<svg xmlns="http://www.w3.org/2000/svg" width="76" height="17.394" viewBox="0 0 76 17.394"><defs><style>.a{fill:#e30613;}.b,.d{fill:#0064b0;}.c{fill:#9f9f9f;}.d{font-size:3px;font-family:SFProText-Bold, SF Pro Text;font-weight:700;letter-spacing:0.115em;}</style></defs><g transform="translate(-1215 -4090.606)"><g transform="translate(1007.505 3833.023)"><path class="a" d="M494.929,276.656h0Zm6.434,1.645h0a2.276,2.276,0,0,0-.5-1l0,0a2.527,2.527,0,0,0-1.312-.767,9.507,9.507,0,0,0-2.273-.2,6.616,6.616,0,0,0-2.344.325,2.1,2.1,0,0,0-.656.431v-.375h-1.443v7.561h1.45v-4.8c0-1.254,1.281-1.749,2.557-1.749h.64c1.277,0,2.569.5,2.569,1.749v4.8h1.431v-4.124a9.207,9.207,0,0,0-.116-1.848Z" transform="translate(-229.468 -15.132)"/><path class="a" d="M410.537,261.177h1.443a11.445,11.445,0,0,1,.127-1.847,1.617,1.617,0,0,1,.436-.839,2.263,2.263,0,0,1,1.056-.671,9.519,9.519,0,0,1,2.151-.235l1.356,0-1.3,1.273-.552,0c-1.919,0-1.785,1.229-1.785,2.318h3.375l-1.365,1.39H413.43l.008,6.563H411.98v-6.563h-1.443v-1.39Z" transform="translate(-163.045)"/><path class="a" d="M403.055,263.323V264.8H404.5v-1.482Z" transform="translate(-157.005 -4.633)"/><path class="b" d="M305.67,279.937a6.38,6.38,0,0,1-.313,2.191c-.21.576-.928,1.875-4.416,1.875s-4.206-1.3-4.416-1.875a7.823,7.823,0,0,1,0-4.382c.21-.576.928-1.875,4.416-1.875s4.206,1.3,4.416,1.875a6.381,6.381,0,0,1,.313,2.191Zm-1.825-1.738h0a1.127,1.127,0,0,0-.727-.663,11.6,11.6,0,0,0-4.353,0,1.127,1.127,0,0,0-.727.663,6.741,6.741,0,0,0,0,3.475,1.128,1.128,0,0,0,.727.663,11.595,11.595,0,0,0,4.353,0,1.128,1.128,0,0,0,.727-.663,6.741,6.741,0,0,0,0-3.475Z" transform="translate(-70.769 -14.761)"/><path class="a" d="M447.753,279.937a6.385,6.385,0,0,1-.313,2.191c-.21.576-.929,1.875-4.416,1.875s-4.206-1.3-4.416-1.875a7.825,7.825,0,0,1,0-4.382c.21-.576.928-1.875,4.416-1.875s4.206,1.3,4.416,1.875a6.386,6.386,0,0,1,.313,2.191Zm-1.826-1.738h0a1.127,1.127,0,0,0-.727-.663,11.6,11.6,0,0,0-4.353,0,1.125,1.125,0,0,0-.727.663,6.735,6.735,0,0,0,0,3.475,1.126,1.126,0,0,0,.727.663,11.594,11.594,0,0,0,4.353,0,1.128,1.128,0,0,0,.727-.663,6.735,6.735,0,0,0,0-3.475Z" transform="translate(-185.449 -14.761)"/><path class="c" d="M342.491,314.5h0l0,0Z" transform="translate(-108.122 -45.938)"/><path class="b" d="M217.778,276.55h0Zm0,0Zm6.51,1.686h0a2.276,2.276,0,0,0-.5-1l0,0a2.548,2.548,0,0,0-1.322-.766,9.511,9.511,0,0,0-2.275-.2,7.2,7.2,0,0,0-2.4.284h0a2.1,2.1,0,0,0-1.04.83,2.324,2.324,0,0,0-1.152-.848,10.163,10.163,0,0,0-2.778-.267,6.552,6.552,0,0,0-1.974.2h0a2.5,2.5,0,0,0-.848.563v-.387h-1.447v7.561h1.442v-4.8c0-1.254,1.273-1.749,2.56-1.749h.645c1.287,0,2.573.5,2.573,1.749v4.8H217.2v-4.8c0-1.254,1.259-1.749,2.545-1.749h.646c1.286,0,2.577.5,2.577,1.749v4.8h1.44v-4.123a9.129,9.129,0,0,0-.117-1.848Z" transform="translate(0 -15.08)"/><path class="a" d="M551.132,280.489h.738c.01-.177.016-.36.016-.553a6.378,6.378,0,0,0-.313-2.191c-.21-.576-.929-1.875-4.416-1.875s-4.206,1.3-4.416,1.875a7.818,7.818,0,0,0,0,4.382c.21.576.929,1.875,4.416,1.875s4.205-1.3,4.416-1.875c.019-.05.036-.1.053-.156h-1.741a1.191,1.191,0,0,1-.551.366,11.593,11.593,0,0,1-4.353,0,1.127,1.127,0,0,1-.727-.663,4.051,4.051,0,0,1-.21-1.177h7.088v-.008Zm-6.151-2.953h0a11.6,11.6,0,0,1,4.353,0,1.127,1.127,0,0,1,.727.663,3.527,3.527,0,0,1,.19.929h-6.187a3.513,3.513,0,0,1,.19-.929,1.127,1.127,0,0,1,.727-.663Z" transform="translate(-269.499 -14.761)"/><path class="b" d="M403.055,276.215v7.952H404.5v-7.952Z" transform="translate(-157.005 -15.038)"/><path class="b" d="M359.459,262.991c-.21-.576-.928-1.875-4.416-1.875a7.688,7.688,0,0,0-2.912.458V257.59h-1.442v11.564h1.442v-.365a7.689,7.689,0,0,0,2.912.458c3.487,0,4.206-1.3,4.416-1.874a7.824,7.824,0,0,0,0-4.382Zm-1.512,3.928h0a1.128,1.128,0,0,1-.727.662,8.465,8.465,0,0,1-2.177.206,6.586,6.586,0,0,1-1.972-.206,1.127,1.127,0,0,1-.727-.662,4.147,4.147,0,0,1-.213-1.222v-1.031a4.146,4.146,0,0,1,.213-1.222,1.127,1.127,0,0,1,.727-.663,6.6,6.6,0,0,1,1.972-.206,8.489,8.489,0,0,1,2.177.206,1.128,1.128,0,0,1,.727.663,6.742,6.742,0,0,1,0,3.475Z" transform="translate(-114.739 -0.006)"/></g><text class="d" transform="translate(1253 4107)"><tspan x="-37.368" y="0" xml:space="preserve">KẾT NỐI GIÁ TRỊ  -  KHƠI DẬY TIỀM NĂNG</tspan></text></g></svg>