<svg xmlns="http://www.w3.org/2000/svg" width="74" height="36" viewBox="0 0 74 36">
  <g id="viettel1" transform="translate(-3804 -8052)">
    <rect id="Rectangle_1895" data-name="Rectangle 1895" width="74" height="36" transform="translate(3804 8052)" fill="none"/>
    <g id="viettel1-2" data-name="viettel1" transform="translate(3755.724 8021.214)">
      <path id="Path_12890" data-name="Path 12890" d="M104.324,47.05c0,6.222-8.741,11.265-19.524,11.265S65.276,53.271,65.276,47.05,74.017,35.786,84.8,35.786,104.324,40.829,104.324,47.05Z" fill="#fff"/>
      <g id="Group_7123" data-name="Group 7123" transform="translate(67.015 59.435)">
        <path id="Path_12891" data-name="Path 12891" d="M71.257,116.214l-.3.038v-2.139l.3-.049v.919h1.037v-.871l.3-.049v2.15l-.3.038v-.993H71.257Z" transform="translate(-70.956 -113.751)" fill="#fff" stroke="#fff" stroke-linecap="round" stroke-linejoin="round" stroke-width="2.835"/>
        <path id="Path_12892" data-name="Path 12892" d="M78.508,117.462l-.265.05V117.3h-.005a.467.467,0,0,1-.461.212.541.541,0,0,1-.416-.173.612.612,0,0,1-.159-.433.5.5,0,0,1,.191-.4.653.653,0,0,1,.428-.145.5.5,0,0,1,.392.154v-.122a.221.221,0,0,0-.1-.212.618.618,0,0,0-.269-.04,1,1,0,0,0-.452.091l.08-.3a2.731,2.731,0,0,1,.423-.061.673.673,0,0,1,.464.136.582.582,0,0,1,.147.447Zm-.652-.847a.414.414,0,0,0-.245.068.257.257,0,0,0-.113.221.295.295,0,0,0,.337.33c.252,0,.378-.111.378-.33a.257.257,0,0,0-.11-.218.41.41,0,0,0-.248-.069Z" transform="translate(-75.29 -114.999)" fill="#fff" stroke="#fff" stroke-linecap="round" stroke-linejoin="round" stroke-width="2.835"/>
        <path id="Path_12893" data-name="Path 12893" d="M78.56,114.026h.159c-.03.236-.134.354-.307.354a.582.582,0,0,1-.2-.057.589.589,0,0,0-.2-.053c-.062,0-.1.044-.113.133h-.159a.441.441,0,0,1,.091-.24.241.241,0,0,1,.2-.119.558.558,0,0,1,.212.056.5.5,0,0,0,.188.06C78.5,114.159,78.542,114.115,78.56,114.026Z" transform="translate(-75.665 -113.725)" fill="#fff" stroke="#fff" stroke-linecap="round" stroke-linejoin="round" stroke-width="2.835"/>
        <path id="Path_12894" data-name="Path 12894" d="M82.424,117.118l-.6-1.206.258-.05.489.953.453-.953.258.05-.985,2.054-.265-.074Z" transform="translate(-78.493 -115)" fill="#fff" stroke="#fff" stroke-linecap="round" stroke-linejoin="round" stroke-width="2.835"/>
        <path id="Path_12895" data-name="Path 12895" d="M90.037,117.461l-.3.05v-1.6l.3-.05v.231h.006a.482.482,0,0,1,.46-.231.679.679,0,0,1,.423.123.49.49,0,0,1,.187.416v1.059l-.294.05v-1.084c0-.2-.115-.305-.345-.305a.423.423,0,0,0-.307.112.484.484,0,0,0-.131.366Z" transform="translate(-83.992 -114.999)" fill="#fff" stroke="#fff" stroke-linecap="round" stroke-linejoin="round" stroke-width="2.835"/>
        <path id="Path_12896" data-name="Path 12896" d="M95.917,115.864a.832.832,0,0,1,.6.239.818.818,0,0,1,0,1.171.863.863,0,0,1-1.192,0,.814.814,0,0,1,0-1.171A.828.828,0,0,1,95.917,115.864Zm.551.825a.547.547,0,0,0-.551-.549.529.529,0,0,0-.389.159.55.55,0,0,0,.779.777A.536.536,0,0,0,96.468,116.689Z" transform="translate(-87.692 -115.001)" fill="#fff" stroke="#fff" stroke-linecap="round" stroke-linejoin="round" stroke-width="2.835"/>
        <path id="Path_12897" data-name="Path 12897" d="M97.413,114.257l.276-.439h.418l-.442.439Z" transform="translate(-89.314 -113.581)" fill="#fff" stroke="#fff" stroke-linecap="round" stroke-linejoin="round" stroke-width="2.835"/>
        <path id="Path_12898" data-name="Path 12898" d="M101.379,114.17l.191-.232.2.232-.19.229Zm.343,1.958-.3.05v-1.6l.3-.05Z" transform="translate(-92.066 -113.664)" fill="#fff" stroke="#fff" stroke-linecap="round" stroke-linejoin="round" stroke-width="2.835"/>
        <path id="Path_12899" data-name="Path 12899" d="M106.9,115v.258h-.411v.825a.285.285,0,0,0,.057.2.329.329,0,0,0,.218.053s.066-.005.2-.019l-.053.265c-.079.007-.159.013-.237.013a.473.473,0,0,1-.341-.133.458.458,0,0,1-.136-.342v-.866h-.243l.106-.258h.138v-.38l.3-.072v.452Z" transform="translate(-95.238 -114.084)" fill="#fff" stroke="#fff" stroke-linecap="round" stroke-linejoin="round" stroke-width="2.835"/>
        <path id="Path_12900" data-name="Path 12900" d="M110.065,116.179l-.294.05v-2.166l.294-.05v.764h.019a.36.36,0,0,1,.183-.146.669.669,0,0,1,.265-.053.683.683,0,0,1,.423.123.466.466,0,0,1,.188.4v1.078l-.3.05v-1.084c0-.2-.114-.305-.345-.305a.423.423,0,0,0-.306.112.486.486,0,0,0-.132.366Z" transform="translate(-97.889 -113.716)" fill="#fff" stroke="#fff" stroke-linecap="round" stroke-linejoin="round" stroke-width="2.835"/>
        <path id="Path_12901" data-name="Path 12901" d="M116.624,116.29l-1.091.695a.481.481,0,0,0,.423.252,1.021,1.021,0,0,0,.576-.27l.059.309a1.1,1.1,0,0,1-.616.237.777.777,0,0,1-.6-.245.881.881,0,0,1-.228-.623.758.758,0,0,1,.231-.549.746.746,0,0,1,.544-.233.723.723,0,0,1,.408.111.93.93,0,0,1,.291.316Zm-1.177.442.772-.492a.345.345,0,0,0-.27-.1.476.476,0,0,0-.366.149.529.529,0,0,0-.14.371.621.621,0,0,0,0,.073Z" transform="translate(-101.622 -115)" fill="#fff" stroke="#fff" stroke-linecap="round" stroke-linejoin="round" stroke-width="2.835"/>
        <path id="Path_12902" data-name="Path 12902" d="M121.509,115.864a.833.833,0,0,1,.6.239.812.812,0,0,1,0,1.171.864.864,0,0,1-1.193,0,.812.812,0,0,1,0-1.171.832.832,0,0,1,.595-.239Zm.55.825a.549.549,0,1,0-.937.388.526.526,0,0,0,.387.159.547.547,0,0,0,.55-.549Z" transform="translate(-105.448 -115.001)" fill="#fff" stroke="#fff" stroke-linecap="round" stroke-linejoin="round" stroke-width="2.835"/>
        <path id="Path_12903" data-name="Path 12903" d="M130.94,116.082l-.179.2a.64.64,0,0,0-.391-.144.453.453,0,0,0-.359.166.582.582,0,0,0-.14.385.549.549,0,0,0,.153.38.468.468,0,0,0,.352.167.559.559,0,0,0,.383-.183l.191.194a.794.794,0,0,1-.582.265.756.756,0,0,1-.55-.239.773.773,0,0,1-.239-.573.841.841,0,0,1,.223-.592.731.731,0,0,1,.567-.245A.856.856,0,0,1,130.94,116.082Z" transform="translate(-111.632 -115)" fill="#fff" stroke="#fff" stroke-linecap="round" stroke-linejoin="round" stroke-width="2.835"/>
        <path id="Path_12904" data-name="Path 12904" d="M135.82,117.461l-.261.05V117.3h-.007a.466.466,0,0,1-.46.212.54.54,0,0,1-.417-.173.611.611,0,0,1-.159-.433.5.5,0,0,1,.19-.4.648.648,0,0,1,.427-.145.5.5,0,0,1,.392.154v-.122a.219.219,0,0,0-.1-.212.626.626,0,0,0-.27-.04.991.991,0,0,0-.45.091l.078-.3a2.743,2.743,0,0,1,.423-.061.668.668,0,0,1,.463.136.579.579,0,0,1,.149.447Zm-.652-.847a.408.408,0,0,0-.243.068.256.256,0,0,0-.114.221.294.294,0,0,0,.336.33c.253,0,.378-.111.378-.33a.256.256,0,0,0-.109-.218.409.409,0,0,0-.248-.069Z" transform="translate(-115.059 -114.999)" fill="#fff" stroke="#fff" stroke-linecap="round" stroke-linejoin="round" stroke-width="2.835"/>
        <path id="Path_12905" data-name="Path 12905" d="M135.807,114.257l.274-.439h.417l-.44.439Z" transform="translate(-115.955 -113.581)" fill="#fff" stroke="#fff" stroke-linecap="round" stroke-linejoin="round" stroke-width="2.835"/>
        <path id="Path_12906" data-name="Path 12906" d="M140.95,116.082l-.177.2a.645.645,0,0,0-.393-.144.448.448,0,0,0-.358.166.579.579,0,0,0-.14.385.544.544,0,0,0,.154.38.464.464,0,0,0,.352.167.559.559,0,0,0,.382-.183l.191.194a.794.794,0,0,1-.582.265.756.756,0,0,1-.552-.239.775.775,0,0,1-.239-.573.84.84,0,0,1,.224-.592.732.732,0,0,1,.567-.245A.851.851,0,0,1,140.95,116.082Z" transform="translate(-118.577 -115)" fill="#fff" stroke="#fff" stroke-linecap="round" stroke-linejoin="round" stroke-width="2.835"/>
        <path id="Path_12907" data-name="Path 12907" d="M145.12,116.179l-.3.05v-2.166l.3-.05v.764h.019a.361.361,0,0,1,.185-.146.658.658,0,0,1,.265-.053.688.688,0,0,1,.423.123.465.465,0,0,1,.186.4v1.078l-.3.05v-1.084c0-.2-.114-.305-.343-.305a.417.417,0,0,0-.305.112.476.476,0,0,0-.133.366Z" transform="translate(-122.212 -113.716)" fill="#fff" stroke="#fff" stroke-linecap="round" stroke-linejoin="round" stroke-width="2.835"/>
        <path id="Path_12908" data-name="Path 12908" d="M154.307,116.082l-.178.2a.648.648,0,0,0-.392-.144.45.45,0,0,0-.358.166.576.576,0,0,0-.141.385.543.543,0,0,0,.154.38.464.464,0,0,0,.353.167.56.56,0,0,0,.382-.183l.19.194a.794.794,0,0,1-.582.265.765.765,0,0,1-.554-.239.777.777,0,0,1-.238-.573.838.838,0,0,1,.224-.592.732.732,0,0,1,.567-.245A.853.853,0,0,1,154.307,116.082Z" transform="translate(-127.845 -115)" fill="#fff" stroke="#fff" stroke-linecap="round" stroke-linejoin="round" stroke-width="2.835"/>
        <path id="Path_12909" data-name="Path 12909" d="M159.261,115.913l.294-.05v1.6l-.294.05v-.228h-.005a.5.5,0,0,1-.465.228.67.67,0,0,1-.421-.124.458.458,0,0,1-.187-.4v-1.079l.3-.05v1.085c0,.2.114.3.344.3a.423.423,0,0,0,.308-.114.473.473,0,0,0,.131-.361Z" transform="translate(-131.481 -115)" fill="#fff" stroke="#fff" stroke-linecap="round" stroke-linejoin="round" stroke-width="2.835"/>
        <path id="Path_12910" data-name="Path 12910" d="M160.067,113.528c-.057.038-.086.07-.086.095v.056l-.18.039v-.143a.14.14,0,0,1,.047-.106c.031-.022.061-.041.092-.065a.121.121,0,0,0,.061-.1.092.092,0,0,0-.032-.07.123.123,0,0,0-.078-.028.146.146,0,0,0-.1.028.424.424,0,0,0-.089.119l-.168-.074a.379.379,0,0,1,.339-.24.339.339,0,0,1,.227.079.245.245,0,0,1,.1.2A.249.249,0,0,1,160.067,113.528Z" transform="translate(-132.421 -113.041)" fill="#fff" stroke="#fff" stroke-linecap="round" stroke-linejoin="round" stroke-width="2.835"/>
        <path id="Path_12911" data-name="Path 12911" d="M164.756,117.462l-.265.05V117.3h-.006a.468.468,0,0,1-.46.212.536.536,0,0,1-.416-.173.614.614,0,0,1-.159-.433.5.5,0,0,1,.189-.4.657.657,0,0,1,.428-.145.5.5,0,0,1,.392.154v-.122a.218.218,0,0,0-.1-.212.615.615,0,0,0-.269-.04,1,1,0,0,0-.453.09l.08-.3a2.738,2.738,0,0,1,.423-.061.677.677,0,0,1,.465.136.588.588,0,0,1,.148.447Zm-.653-.847a.413.413,0,0,0-.243.068.254.254,0,0,0-.113.221.294.294,0,0,0,.335.33c.253,0,.378-.111.378-.33a.254.254,0,0,0-.109-.218.41.41,0,0,0-.248-.069Z" transform="translate(-135.137 -114.999)" fill="#fff" stroke="#fff" stroke-linecap="round" stroke-linejoin="round" stroke-width="2.835"/>
        <path id="Path_12912" data-name="Path 12912" d="M171.53,115.5v-1.443l.3-.05v.809a.669.669,0,0,1,.537-.242.758.758,0,0,1,.557.237.829.829,0,0,1-.619,1.412.762.762,0,0,1-.534-.206A.667.667,0,0,1,171.53,115.5Zm.265-.1a.541.541,0,0,0,.159.388.516.516,0,0,0,.383.159.49.49,0,0,0,.37-.159.577.577,0,0,0,0-.777.49.49,0,0,0-.37-.159.516.516,0,0,0-.381.159.533.533,0,0,0-.163.389Z" transform="translate(-140.742 -113.715)" fill="#fff" stroke="#fff" stroke-linecap="round" stroke-linejoin="round" stroke-width="2.835"/>
        <path id="Path_12913" data-name="Path 12913" d="M178.663,117.461l-.265.05V117.3h-.008a.462.462,0,0,1-.458.212.54.54,0,0,1-.418-.173.618.618,0,0,1-.159-.433.5.5,0,0,1,.191-.4.655.655,0,0,1,.429-.145.505.505,0,0,1,.392.154v-.122a.22.22,0,0,0-.1-.212.618.618,0,0,0-.269-.04,1,1,0,0,0-.453.091l.08-.3a2.734,2.734,0,0,1,.423-.061.673.673,0,0,1,.465.136.587.587,0,0,1,.149.447Zm-.653-.847a.414.414,0,0,0-.243.068.256.256,0,0,0-.114.221.3.3,0,0,0,.337.33c.252,0,.379-.111.379-.33a.255.255,0,0,0-.111-.218.4.4,0,0,0-.248-.069Z" transform="translate(-144.786 -114.999)" fill="#fff" stroke="#fff" stroke-linecap="round" stroke-linejoin="round" stroke-width="2.835"/>
        <path id="Path_12914" data-name="Path 12914" d="M179.2,122.041l-.153-.18.153-.18.149.18Z" transform="translate(-145.956 -119.037)" fill="#fff" stroke="#fff" stroke-linecap="round" stroke-linejoin="round" stroke-width="2.835"/>
        <path id="Path_12915" data-name="Path 12915" d="M182.96,117.461l-.3.05v-1.6l.3-.05v.231h.007a.482.482,0,0,1,.459-.231.682.682,0,0,1,.423.123.493.493,0,0,1,.187.416v1.059l-.3.05v-1.084c0-.2-.113-.305-.342-.305a.423.423,0,0,0-.308.112.486.486,0,0,0-.132.366Z" transform="translate(-148.469 -114.999)" fill="#fff" stroke="#fff" stroke-linecap="round" stroke-linejoin="round" stroke-width="2.835"/>
      </g>
      <g id="Group_7124" data-name="Group 7124" transform="translate(67.015 59.435)">
        <path id="Path_12916" data-name="Path 12916" d="M71.257,116.214l-.3.038v-2.139l.3-.049v.919h1.037v-.871l.3-.049v2.15l-.3.038v-.993H71.257Z" transform="translate(-70.956 -113.751)" fill="#00817a"/>
        <path id="Path_12917" data-name="Path 12917" d="M78.508,117.462l-.265.05V117.3h-.005a.467.467,0,0,1-.461.212.541.541,0,0,1-.416-.173.612.612,0,0,1-.159-.433.5.5,0,0,1,.191-.4.653.653,0,0,1,.428-.145.5.5,0,0,1,.392.154v-.122a.221.221,0,0,0-.1-.212.618.618,0,0,0-.269-.04,1,1,0,0,0-.452.091l.08-.3a2.731,2.731,0,0,1,.423-.061.673.673,0,0,1,.464.136.582.582,0,0,1,.147.447Zm-.652-.847a.414.414,0,0,0-.245.068.257.257,0,0,0-.113.221.295.295,0,0,0,.337.33c.252,0,.378-.111.378-.33a.257.257,0,0,0-.11-.218.41.41,0,0,0-.248-.069Z" transform="translate(-75.29 -114.999)" fill="#00817a"/>
        <path id="Path_12918" data-name="Path 12918" d="M78.56,114.026h.159c-.03.236-.134.354-.307.354a.582.582,0,0,1-.2-.057.589.589,0,0,0-.2-.053c-.062,0-.1.044-.113.133h-.159a.441.441,0,0,1,.091-.24.241.241,0,0,1,.2-.119.558.558,0,0,1,.212.056.5.5,0,0,0,.188.06C78.5,114.159,78.542,114.115,78.56,114.026Z" transform="translate(-75.665 -113.725)" fill="#00817a"/>
        <path id="Path_12919" data-name="Path 12919" d="M82.424,117.118l-.6-1.206.258-.05.489.953.453-.953.258.05-.985,2.054-.265-.074Z" transform="translate(-78.493 -115)" fill="#00817a"/>
        <path id="Path_12920" data-name="Path 12920" d="M90.037,117.461l-.3.05v-1.6l.3-.05v.231h.006a.482.482,0,0,1,.46-.231.679.679,0,0,1,.423.123.49.49,0,0,1,.187.416v1.059l-.294.05v-1.084c0-.2-.115-.305-.345-.305a.423.423,0,0,0-.307.112.484.484,0,0,0-.131.366Z" transform="translate(-83.992 -114.999)" fill="#00817a"/>
        <path id="Path_12921" data-name="Path 12921" d="M95.917,115.864a.832.832,0,0,1,.6.239.818.818,0,0,1,0,1.171.863.863,0,0,1-1.192,0,.814.814,0,0,1,0-1.171A.828.828,0,0,1,95.917,115.864Zm.551.825a.547.547,0,0,0-.551-.549.529.529,0,0,0-.389.159.55.55,0,0,0,.779.777A.536.536,0,0,0,96.468,116.689Z" transform="translate(-87.692 -115.001)" fill="#00817a"/>
        <path id="Path_12922" data-name="Path 12922" d="M97.413,114.257l.276-.439h.418l-.442.439Z" transform="translate(-89.314 -113.581)" fill="#00817a"/>
        <path id="Path_12923" data-name="Path 12923" d="M101.379,114.17l.191-.232.2.232-.19.229Zm.343,1.958-.3.05v-1.6l.3-.05Z" transform="translate(-92.066 -113.664)" fill="#00817a"/>
        <path id="Path_12924" data-name="Path 12924" d="M106.9,115v.258h-.411v.825a.285.285,0,0,0,.057.2.329.329,0,0,0,.218.053s.066-.005.2-.019l-.053.265c-.079.007-.159.013-.237.013a.473.473,0,0,1-.341-.133.458.458,0,0,1-.136-.342v-.866h-.243l.106-.258h.138v-.38l.3-.072v.452Z" transform="translate(-95.238 -114.084)" fill="#00817a"/>
        <path id="Path_12925" data-name="Path 12925" d="M110.065,116.179l-.294.05v-2.166l.294-.05v.764h.019a.36.36,0,0,1,.183-.146.669.669,0,0,1,.265-.053.683.683,0,0,1,.423.123.466.466,0,0,1,.188.4v1.078l-.3.05v-1.084c0-.2-.114-.305-.345-.305a.423.423,0,0,0-.306.112.486.486,0,0,0-.132.366Z" transform="translate(-97.889 -113.716)" fill="#00817a"/>
        <path id="Path_12926" data-name="Path 12926" d="M116.624,116.29l-1.091.695a.481.481,0,0,0,.423.252,1.021,1.021,0,0,0,.576-.27l.059.309a1.1,1.1,0,0,1-.616.237.777.777,0,0,1-.6-.245.881.881,0,0,1-.228-.623.758.758,0,0,1,.231-.549.746.746,0,0,1,.544-.233.723.723,0,0,1,.408.111.93.93,0,0,1,.291.316Zm-1.177.442.772-.492a.345.345,0,0,0-.27-.1.476.476,0,0,0-.366.149.529.529,0,0,0-.14.371.621.621,0,0,0,0,.073Z" transform="translate(-101.622 -115)" fill="#00817a"/>
        <path id="Path_12927" data-name="Path 12927" d="M121.509,115.864a.833.833,0,0,1,.6.239.812.812,0,0,1,0,1.171.864.864,0,0,1-1.193,0,.812.812,0,0,1,0-1.171.832.832,0,0,1,.595-.239Zm.55.825a.549.549,0,1,0-.937.388.526.526,0,0,0,.387.159.547.547,0,0,0,.55-.549Z" transform="translate(-105.448 -115.001)" fill="#00817a"/>
        <path id="Path_12928" data-name="Path 12928" d="M130.94,116.082l-.179.2a.64.64,0,0,0-.391-.144.453.453,0,0,0-.359.166.582.582,0,0,0-.14.385.549.549,0,0,0,.153.38.468.468,0,0,0,.352.167.559.559,0,0,0,.383-.183l.191.194a.794.794,0,0,1-.582.265.756.756,0,0,1-.55-.239.773.773,0,0,1-.239-.573.841.841,0,0,1,.223-.592.731.731,0,0,1,.567-.245A.856.856,0,0,1,130.94,116.082Z" transform="translate(-111.632 -115)" fill="#00817a"/>
        <path id="Path_12929" data-name="Path 12929" d="M135.82,117.461l-.261.05V117.3h-.007a.466.466,0,0,1-.46.212.54.54,0,0,1-.417-.173.611.611,0,0,1-.159-.433.5.5,0,0,1,.19-.4.648.648,0,0,1,.427-.145.5.5,0,0,1,.392.154v-.122a.219.219,0,0,0-.1-.212.626.626,0,0,0-.27-.04.991.991,0,0,0-.45.091l.078-.3a2.743,2.743,0,0,1,.423-.061.668.668,0,0,1,.463.136.579.579,0,0,1,.149.447Zm-.652-.847a.408.408,0,0,0-.243.068.256.256,0,0,0-.114.221.294.294,0,0,0,.336.33c.253,0,.378-.111.378-.33a.256.256,0,0,0-.109-.218.409.409,0,0,0-.248-.069Z" transform="translate(-115.059 -114.999)" fill="#00817a"/>
        <path id="Path_12930" data-name="Path 12930" d="M135.807,114.257l.274-.439h.417l-.44.439Z" transform="translate(-115.955 -113.581)" fill="#00817a"/>
        <path id="Path_12931" data-name="Path 12931" d="M140.95,116.082l-.177.2a.645.645,0,0,0-.393-.144.448.448,0,0,0-.358.166.579.579,0,0,0-.14.385.544.544,0,0,0,.154.38.464.464,0,0,0,.352.167.559.559,0,0,0,.382-.183l.191.194a.794.794,0,0,1-.582.265.756.756,0,0,1-.552-.239.775.775,0,0,1-.239-.573.84.84,0,0,1,.224-.592.732.732,0,0,1,.567-.245A.851.851,0,0,1,140.95,116.082Z" transform="translate(-118.577 -115)" fill="#00817a"/>
        <path id="Path_12932" data-name="Path 12932" d="M145.12,116.179l-.3.05v-2.166l.3-.05v.764h.019a.361.361,0,0,1,.185-.146.658.658,0,0,1,.265-.053.688.688,0,0,1,.423.123.465.465,0,0,1,.186.4v1.078l-.3.05v-1.084c0-.2-.114-.305-.343-.305a.417.417,0,0,0-.305.112.476.476,0,0,0-.133.366Z" transform="translate(-122.212 -113.716)" fill="#00817a"/>
        <path id="Path_12933" data-name="Path 12933" d="M154.307,116.082l-.178.2a.648.648,0,0,0-.392-.144.45.45,0,0,0-.358.166.576.576,0,0,0-.141.385.543.543,0,0,0,.154.38.464.464,0,0,0,.353.167.56.56,0,0,0,.382-.183l.19.194a.794.794,0,0,1-.582.265.765.765,0,0,1-.554-.239.777.777,0,0,1-.238-.573.838.838,0,0,1,.224-.592.732.732,0,0,1,.567-.245A.853.853,0,0,1,154.307,116.082Z" transform="translate(-127.845 -115)" fill="#00817a"/>
        <path id="Path_12934" data-name="Path 12934" d="M159.261,115.913l.294-.05v1.6l-.294.05v-.228h-.005a.5.5,0,0,1-.465.228.67.67,0,0,1-.421-.124.458.458,0,0,1-.187-.4v-1.079l.3-.05v1.085c0,.2.114.3.344.3a.423.423,0,0,0,.308-.114.473.473,0,0,0,.131-.361Z" transform="translate(-131.481 -115)" fill="#00817a"/>
        <path id="Path_12935" data-name="Path 12935" d="M160.067,113.528c-.057.038-.086.07-.086.095v.056l-.18.039v-.143a.14.14,0,0,1,.047-.106c.031-.022.061-.041.092-.065a.121.121,0,0,0,.061-.1.092.092,0,0,0-.032-.07.123.123,0,0,0-.078-.028.146.146,0,0,0-.1.028.424.424,0,0,0-.089.119l-.168-.074a.379.379,0,0,1,.339-.24.339.339,0,0,1,.227.079.245.245,0,0,1,.1.2A.249.249,0,0,1,160.067,113.528Z" transform="translate(-132.421 -113.041)" fill="#00817a"/>
        <path id="Path_12936" data-name="Path 12936" d="M164.756,117.462l-.265.05V117.3h-.006a.468.468,0,0,1-.46.212.536.536,0,0,1-.416-.173.614.614,0,0,1-.159-.433.5.5,0,0,1,.189-.4.657.657,0,0,1,.428-.145.5.5,0,0,1,.392.154v-.122a.218.218,0,0,0-.1-.212.615.615,0,0,0-.269-.04,1,1,0,0,0-.453.09l.08-.3a2.738,2.738,0,0,1,.423-.061.677.677,0,0,1,.465.136.588.588,0,0,1,.148.447Zm-.653-.847a.413.413,0,0,0-.243.068.254.254,0,0,0-.113.221.294.294,0,0,0,.335.33c.253,0,.378-.111.378-.33a.254.254,0,0,0-.109-.218.41.41,0,0,0-.248-.069Z" transform="translate(-135.137 -114.999)" fill="#00817a"/>
        <path id="Path_12937" data-name="Path 12937" d="M171.53,115.5v-1.443l.3-.05v.809a.669.669,0,0,1,.537-.242.758.758,0,0,1,.557.237.829.829,0,0,1-.619,1.412.762.762,0,0,1-.534-.206A.667.667,0,0,1,171.53,115.5Zm.265-.1a.541.541,0,0,0,.159.388.516.516,0,0,0,.383.159.49.49,0,0,0,.37-.159.577.577,0,0,0,0-.777.49.49,0,0,0-.37-.159.516.516,0,0,0-.381.159.533.533,0,0,0-.163.389Z" transform="translate(-140.742 -113.715)" fill="#00817a"/>
        <path id="Path_12938" data-name="Path 12938" d="M178.663,117.461l-.265.05V117.3h-.008a.462.462,0,0,1-.458.212.54.54,0,0,1-.418-.173.618.618,0,0,1-.159-.433.5.5,0,0,1,.191-.4.655.655,0,0,1,.429-.145.505.505,0,0,1,.392.154v-.122a.22.22,0,0,0-.1-.212.618.618,0,0,0-.269-.04,1,1,0,0,0-.453.091l.08-.3a2.734,2.734,0,0,1,.423-.061.673.673,0,0,1,.465.136.587.587,0,0,1,.149.447Zm-.653-.847a.414.414,0,0,0-.243.068.256.256,0,0,0-.114.221.3.3,0,0,0,.337.33c.252,0,.379-.111.379-.33a.255.255,0,0,0-.111-.218.4.4,0,0,0-.248-.069Z" transform="translate(-144.786 -114.999)" fill="#00817a"/>
        <path id="Path_12939" data-name="Path 12939" d="M179.2,122.041l-.153-.18.153-.18.149.18Z" transform="translate(-145.956 -119.037)" fill="#00817a"/>
        <path id="Path_12940" data-name="Path 12940" d="M182.96,117.461l-.3.05v-1.6l.3-.05v.231h.007a.482.482,0,0,1,.459-.231.682.682,0,0,1,.423.123.493.493,0,0,1,.187.416v1.059l-.3.05v-1.084c0-.2-.113-.305-.342-.305a.423.423,0,0,0-.308.112.486.486,0,0,0-.132.366Z" transform="translate(-148.469 -114.999)" fill="#00817a"/>
      </g>
      <g id="Group_7125" data-name="Group 7125" transform="translate(67.015 36.632)">
        <path id="Path_12941" data-name="Path 12941" d="M106.948,45.808c-3.572-4.345-10.157-7.257-17.692-7.257s-14.119,2.911-17.69,7.257H85.529c2.163-2.471,6.15-4.128,10.711-4.128S104.785,43.337,106.948,45.808Z" transform="translate(-71.379 -38.551)" fill="#00817a"/>
        <path id="Path_12942" data-name="Path 12942" d="M71.477,82.912c3.573,4.343,10.158,7.257,17.692,7.257s14.118-2.914,17.692-7.257H92.9c-2.162,2.471-6.15,4.128-10.708,4.128S73.639,85.383,71.477,82.912Z" transform="translate(-71.318 -69.332)" fill="#cd6e20"/>
        <path id="Path_12943" data-name="Path 12943" d="M77.823,67.139H76.362a1.1,1.1,0,0,0-.9.366c-.159.237-1.119,1.636-1.119,1.636L73.209,67.5a1.5,1.5,0,0,0-1.095-.366H70.956l2.035,2.421a2.073,2.073,0,0,0,1.309.363,1.822,1.822,0,0,0,1.363-.363l1.26-1.531V69.56c0,.173.3.363.9.363s1.006-.184,1.006-.363V67.5C78.83,67.319,78.477,67.139,77.823,67.139Zm26.126,2.094c-.37,0-.582-.126-.582-.472V67.5c0-.191-.36-.366-.96-.366s-.953.028-.953.366v1.784H98.309c-.323,0-.46-.041-.46-.3v-.256H100.2c.345,0,.635.016.635-.273v-.29H98.31c-.323,0-.46-.043-.46-.24v-.2h2.531c.323,0,.68-.106.68-.231v-.367H93.826a.269.269,0,0,1-.273-.276V66.8c0-.169-.337-.362-.891-.362s-1.02.139-1.02.362v.074l-.006-.013a.269.269,0,0,1-.274.276H89.073a.269.269,0,0,1-.273-.276l-.008.013V66.8c0-.169-.337-.362-.889-.362s-1.023.139-1.023.362v.061a.269.269,0,0,1-.272.276H79.852c-.346,0-.527.119-.527.366V69.56c0,.179.227.363.779.363h3.772c.291,0,.663-.179.663-.37v-.265H81.677c-.265,0-.442-.061-.442-.307v-.245H83.57c.278,0,.646.005.646-.278v-.284H81.692c-.265,0-.457-.019-.457-.183v-.163H86c.483,0,.885.151.885.635v1.1c0,.169.45.363.98.363s.932-.186.932-.363v-1.1a.7.7,0,0,1,.772-.635h1.312c.436,0,.766.2.766.612v1.12c0,.169.339.363.891.363s1.02-.14,1.02-.363V68.44a.741.741,0,0,1,.682-.612h.99a.667.667,0,0,1,.714.635v1.1c0,.169.159.363.575.363h9.068c.415,0,.753-.162.753-.363v-.327Z" transform="translate(-70.956 -57.903)" fill="#00817a"/>
      </g>
    </g>
  </g>
</svg>
