<svg xmlns="http://www.w3.org/2000/svg" width="85.394" height="32.732" viewBox="0 0 85.394 32.732"><defs><style>.a{fill:#d09b2c;}.b{fill:#006c99;fill-rule:evenodd;}</style></defs><g transform="translate(-216.411 -222.689)"><path class="a" d="M42.821,310.8a10.841,10.841,0,0,1-6.536,1.924c-3.512,0-7.269-1.771-8.43-1.741a2.056,2.056,0,0,0-1.008.183c-.489.214-.825-.122-.764-.4a3.963,3.963,0,0,1,.733-1.161,7.28,7.28,0,0,1,1.5-1.374,5.531,5.531,0,0,1,3.879-1.038,1.6,1.6,0,0,1,.886.489,10.94,10.94,0,0,0,4.734,2.749l.886-.122-.244-.183a11.086,11.086,0,0,1-5.376-3.085,12.565,12.565,0,0,1-2.627-3.543c-.519-1.008-1.252-2.963-2.535-3.6-.305-.153-.305-.672.305-.825a9.881,9.881,0,0,1,6.078,1.313,3.272,3.272,0,0,1,1.649,1.558l.092.367c.153,4.429,2.107,5.895,3.054,6.6.367.305.855.428.977.305l-.214-.275c-2.718-1.8-3.238-4.123-3.39-6.628-.153-2.474.916-4.643,1.588-6.414a3.987,3.987,0,0,0,.183-2.352c-.183-.641,0-.825.367-.855.367-.061.916.7,1.1.947a10.042,10.042,0,0,1,1.374,2.2,15.2,15.2,0,0,1,1.466,6.414c-.031,2.077-.4,2.2-1.4,2.688a1.844,1.844,0,0,0-1.283,1.619c0,.641.489,1.13,1.374,1.527l.214.061c.4.092.733,0,.733-.122l-.4-.183c-.855-.214-1.466-.7-1.466-1.252,0-.764,1.069-1.527,2.443-1.527h.153c1.374,0,2.413.764,2.413,1.527,0,.55-.611,1.038-1.466,1.252l-.4.183c0,.153.336.244.733.122l.214-.061c.886-.367,1.374-.855,1.374-1.527A1.844,1.844,0,0,0,44.5,304.94c-.977-.489-1.374-.611-1.4-2.688a15.114,15.114,0,0,1,1.466-6.414,10.044,10.044,0,0,1,1.374-2.2c.183-.244.733-.977,1.1-.947.367.061.55.214.367.855a4.26,4.26,0,0,0,.183,2.352c.672,1.772,1.71,3.94,1.558,6.414-.153,2.5-.672,4.826-3.39,6.628l-.183.275c.122.122.611,0,.977-.305.947-.672,2.871-2.169,3.054-6.6l.092-.367a3.137,3.137,0,0,1,1.619-1.558,10.132,10.132,0,0,1,6.078-1.313c.611.153.611.672.305.825-1.313.672-2.016,2.627-2.535,3.6a12.149,12.149,0,0,1-2.627,3.543,10.945,10.945,0,0,1-5.376,3.085l-.244.183.886.122a10.94,10.94,0,0,0,4.734-2.749,1.439,1.439,0,0,1,.886-.489,5.5,5.5,0,0,1,3.879,1.038,5.982,5.982,0,0,1,1.5,1.374,3.408,3.408,0,0,1,.733,1.161c.031.275-.275.611-.764.4a1.922,1.922,0,0,0-1.008-.183c-1.161-.031-4.917,1.741-8.43,1.741a10.7,10.7,0,0,1-6.506-1.924" transform="translate(216.364 -70)"/><path class="b" d="M150.1,313.1h-.688l-2.665,5.825L144.03,313.1H142.3a3.54,3.54,0,0,1,.936,1.253l2.983,6.425h.229l3.019-6.6a2.954,2.954,0,0,1,.635-1.077" transform="translate(74.111 -65.395)"/><path class="b" d="M188.836,314.053a.718.718,0,0,0-1.43,0,.718.718,0,0,0,1.43,0m.088,6.849a2.373,2.373,0,0,1-.212-1.183v-3.036a2.31,2.31,0,0,1,.212-1.165H187.3a2.309,2.309,0,0,1,.212,1.165v3.036a2.037,2.037,0,0,1-.212,1.183Z" transform="translate(37.055 -65.642)"/><path class="b" d="M207.92,326.78a2.448,2.448,0,0,0-3-2.277,2.99,2.99,0,0,0-2.948,3.213,2.918,2.918,0,0,0,1.13,1.836,3.716,3.716,0,0,0,4.272-.106l-.229-.247a2.81,2.81,0,0,1-1.765.53c-1.165-.053-2.189-1.094-2.03-2.948m3.16-.424h-3.036a1.756,1.756,0,0,1,1.659-1.465c.335-.018,1.289.018,1.377,1.465" transform="translate(24.996 -74.767)"/><path class="b" d="M242.637,324.96a1.971,1.971,0,0,1-1.536.865,1.053,1.053,0,0,1-1.165-1.112v-3.6h2.383v-.424h-2.383V319.7l-1.324.318a1.57,1.57,0,0,1,.124.671H238.4v.424h.353v3.46c0,1.306,1.183,1.589,1.906,1.606a3.054,3.054,0,0,0,1.783-.477" transform="translate(-5.025 -70.829)"/><path class="b" d="M270.543,330.278a2.931,2.931,0,0,1-.194-1.165V326.5c0-.794-.106-.953-.494-1.289a2.778,2.778,0,0,0-1.659-.424,3.206,3.206,0,0,0-2.242,1.218,2.245,2.245,0,0,0-.141-1.13H264.4a2.462,2.462,0,0,1,.371,1.395V329.1a2,2,0,0,1-.212,1.165h1.624a2.7,2.7,0,0,1-.212-1.165v-1.748a2.3,2.3,0,0,1,2.083-2.1c1.006-.035,1.147.459,1.147,1.8v2.03a2.155,2.155,0,0,1-.212,1.165" transform="translate(-26.435 -75.018)"/><path class="b" d="M309.137,330.075a2.346,2.346,0,0,1-.512-1.43v-1.8a2.87,2.87,0,0,0-.106-1.077c-.441-1.218-2.489-1.377-3.672-1.13a5.584,5.584,0,0,0-1.2.441l-.106.777a3.354,3.354,0,0,1,2.189-.918c1.306-.035,1.765.477,1.73.9-.035.865-1.412.777-2.348.953-1.377.247-2.012.812-2.012,1.659a1.988,1.988,0,0,0,2.083,1.73,2.817,2.817,0,0,0,2.277-1.236,2.486,2.486,0,0,0,.212,1.112m-.229-2.56a2.042,2.042,0,0,1-1.8,2.136,1.124,1.124,0,0,1-.953-1.871,2.342,2.342,0,0,1,1.465-.706,6.872,6.872,0,0,0,1.306-.371v.812Z" transform="translate(-58.304 -74.814)"/><path class="b" d="M349.6,330.165a3.009,3.009,0,0,1-.212-1.165v-2.63c0-1.412-.618-1.748-1.342-1.695a3.037,3.037,0,0,0-2.224,1.271c-.177-1.077-.724-1.306-1.342-1.271a3.138,3.138,0,0,0-2.206,1.218,2.244,2.244,0,0,0-.141-1.13H340.7a2.461,2.461,0,0,1,.371,1.395v2.824a2,2,0,0,1-.212,1.165h1.624a2.7,2.7,0,0,1-.212-1.165v-1.748a2.27,2.27,0,0,1,1.324-1.906c1.147-.53,1.041,1.465,1.041,1.606v2.03a1.978,1.978,0,0,1-.212,1.165h1.624a2.628,2.628,0,0,1-.212-1.165v-1.73a2.262,2.262,0,0,1,1.324-1.924c1.147-.53,1.041,1.465,1.041,1.606v2.048a2.186,2.186,0,0,1-.212,1.165" transform="translate(-89.267 -74.922)"/><path class="b" d="M410.12,320.079a3.7,3.7,0,0,1-.936-1.253L406.2,312.4h-.229l-3.019,6.62a3.566,3.566,0,0,1-.653,1.059h.706l1.289-2.807H407.1l1.289,2.807m-1.553-3.336h-2.295l1.147-2.507Z" transform="translate(-139.993 -64.818)"/><path class="b" d="M450.436,314.053a.718.718,0,0,0-1.43,0,.712.712,0,0,0,.706.653.73.73,0,0,0,.724-.653m.088,6.849a2.373,2.373,0,0,1-.212-1.183v-3.036a2.31,2.31,0,0,1,.212-1.165H448.9a2.31,2.31,0,0,1,.212,1.165v3.036a2.037,2.037,0,0,1-.212,1.183Z" transform="translate(-178.367 -65.642)"/><path class="b" d="M468.4,324.488a3.071,3.071,0,0,0-3.248,1.218,2.287,2.287,0,0,0-.141-1.13H463.6a2.462,2.462,0,0,1,.371,1.395V328.8a2,2,0,0,1-.212,1.165h1.624a2.339,2.339,0,0,1-.212-1.165v-1.748c0-.9,1.094-2.648,2.63-1.836" transform="translate(-190.472 -74.717)"/><path class="b" d="M493.624,318.1a2.123,2.123,0,0,1-.212-1.2v-5.7a2.123,2.123,0,0,1,.212-1.2H492a2.15,2.15,0,0,1,.212,1.2v5.7a2.5,2.5,0,0,1-.212,1.2" transform="translate(-213.859 -62.842)"/><path class="b" d="M509.036,314.053a.718.718,0,0,0-1.43,0,.718.718,0,0,0,1.43,0m.088,6.849a2.372,2.372,0,0,1-.212-1.183v-3.036a2.309,2.309,0,0,1,.212-1.165H507.5a2.31,2.31,0,0,1,.212,1.165v3.036a2.037,2.037,0,0,1-.212,1.183Z" transform="translate(-226.623 -65.642)"/><path class="b" d="M528.443,330.278a2.932,2.932,0,0,1-.194-1.165V326.5c0-.794-.106-.953-.494-1.289a2.778,2.778,0,0,0-1.659-.424,3.206,3.206,0,0,0-2.242,1.218,2.244,2.244,0,0,0-.141-1.13H522.3a2.462,2.462,0,0,1,.371,1.395V329.1a2,2,0,0,1-.212,1.165h1.624a2.7,2.7,0,0,1-.212-1.165v-1.748a2.3,2.3,0,0,1,2.065-2.1c1.006-.035,1.147.459,1.147,1.8v2.03a2.154,2.154,0,0,1-.212,1.165" transform="translate(-238.81 -75.018)"/><path class="b" d="M568.12,326.78a2.448,2.448,0,0,0-3-2.277,2.99,2.99,0,0,0-2.948,3.213,2.918,2.918,0,0,0,1.13,1.836,3.714,3.714,0,0,0,4.272-.106l-.229-.247a2.81,2.81,0,0,1-1.765.53c-1.165-.053-2.189-1.094-2.03-2.948m3.142-.424h-3.036a1.756,1.756,0,0,1,1.659-1.465c.353-.018,1.306.018,1.377,1.465" transform="translate(-271.62 -74.767)"/><path class="b" d="M602.531,328.6c.159-1.13-1.783-1.765-2.383-1.977-.953-.353-1.306-.6-1.271-1.077.018-.371.459-.618.989-.635a3.642,3.642,0,0,1,2.277.883l-.106-.759a4.687,4.687,0,0,0-2.189-.53c-1.165.053-1.924.53-2.03,1.077-.265,1.2.936,1.659,1.906,2.012,2.736,1.006,1.412,2.224.071,2.224a3.98,3.98,0,0,1-2.295-.953l.088.741a4.48,4.48,0,0,0,2.136.6c1.394.035,2.683-.635,2.807-1.606" transform="translate(-300.736 -74.782)"/></g></svg>