<svg xmlns="http://www.w3.org/2000/svg" width="100.417" height="30.409" viewBox="0 0 100.417 30.409"><defs><style>.a,.b{fill:#00a1ed;}.b{fill-rule:evenodd;}</style></defs><g transform="translate(-126.544 -224.398)"><path class="a" d="M126.544,286.5h2.8l1.362,5.487,1.407-5.487h2.715l-2.981,8.661h-2.384l-2.921-8.661Z" transform="translate(0 -50.532)"/><path class="a" d="M175.721,270.7h2.691V272.9h-2.691V270.7Zm0,3.2h2.691v8.406h-2.691V273.9Z" transform="translate(-40.014 -37.675)"/><path class="a" d="M199.625,286.114h2.652v1.395a4.17,4.17,0,0,1,1.2-1.221,2.815,2.815,0,0,1,1.482-.369,2.27,2.27,0,0,1,1.85.813,3.9,3.9,0,0,1,.666,2.505v5.452h-2.859v-4.716a1.915,1.915,0,0,0-.258-1.141.863.863,0,0,0-.728-.336.985.985,0,0,0-.838.452,2.95,2.95,0,0,0-.322,1.623v4.118h-2.848v-8.574Z" transform="translate(-59.463 -50.057)"/><path class="a" d="M248.823,290.753l-2.569-.317a3.721,3.721,0,0,1,.419-1.24,2.446,2.446,0,0,1,.789-.784,2.939,2.939,0,0,1,1.017-.372,7.058,7.058,0,0,1,1.4-.132,9.533,9.533,0,0,1,1.942.159,2.35,2.35,0,0,1,1.223.662,2.389,2.389,0,0,1,.544.985,4.163,4.163,0,0,1,.2,1.219v3.627a5.2,5.2,0,0,0,.063.908,4.52,4.52,0,0,0,.275.839H251.6a3.331,3.331,0,0,1-.2-.483,4.133,4.133,0,0,1-.092-.522,3.477,3.477,0,0,1-1.051.85,3.81,3.81,0,0,1-1.658.34,2.522,2.522,0,0,1-1.908-.681,2.329,2.329,0,0,1-.65-1.676,2.422,2.422,0,0,1,.469-1.539,2.981,2.981,0,0,1,1.73-.9q1.516-.356,1.964-.5a8.58,8.58,0,0,0,.95-.375,1.248,1.248,0,0,0-.2-.813.935.935,0,0,0-.721-.232,1.652,1.652,0,0,0-.99.248,1.39,1.39,0,0,0-.417.726Zm2.332,1.655a11.2,11.2,0,0,1-1.155.412,2.5,2.5,0,0,0-1.037.5.83.83,0,0,0,.647,1.423,1.5,1.5,0,0,0,.837-.253,1.474,1.474,0,0,0,.548-.623,2.4,2.4,0,0,0,.16-.956v-.5Z" transform="translate(-97.231 -51.675)"/><path class="a" d="M294.462,299.1V288.091h2.673v1.179a3.645,3.645,0,0,1,1.018-1.007,2.757,2.757,0,0,1,1.382-.354,2.629,2.629,0,0,1,2.314,1.225,5.337,5.337,0,0,1,.817,3.027,4.572,4.572,0,0,1-.891,3.037,2.835,2.835,0,0,1-2.251,1.046,2.965,2.965,0,0,1-1.2-.238,2.9,2.9,0,0,1-.972-.715V299.1Zm2.865-7a2.2,2.2,0,0,0,.371,1.4,1.16,1.16,0,0,0,.939.459,1.015,1.015,0,0,0,.836-.441,2.5,2.5,0,0,0,.338-1.489,2.321,2.321,0,0,0-.352-1.422,1.044,1.044,0,0,0-.855-.456,1.121,1.121,0,0,0-.913.459,2.393,2.393,0,0,0-.364,1.486Z" transform="translate(-136.629 -51.677)"/><path class="a" d="M345.4,272.142h2.69v4.28a3.74,3.74,0,0,1,1.09-.974,2.635,2.635,0,0,1,1.283-.295,2.084,2.084,0,0,1,1.728.8,3.954,3.954,0,0,1,.629,2.456v5.351h-2.7v-4.628a1.938,1.938,0,0,0-.244-1.12.8.8,0,0,0-.688-.33.923.923,0,0,0-.792.443,2.99,2.99,0,0,0-.3,1.593v4.041H345.4V272.142Z" transform="translate(-178.077 -38.848)"/><path class="a" d="M392.346,292.437a4.565,4.565,0,0,1,1.2-3.249,4.808,4.808,0,0,1,6.757.222,4.653,4.653,0,0,1,.958,2.98,4.587,4.587,0,0,1-1.187,3.257,4.873,4.873,0,0,1-6.308.213,4.433,4.433,0,0,1-1.416-3.423Zm2.979-.008a2.788,2.788,0,0,0,.421,1.7,1.286,1.286,0,0,0,2.109.008,2.9,2.9,0,0,0,.414-1.745,2.753,2.753,0,0,0-.416-1.667,1.253,1.253,0,0,0-1.029-.546,1.3,1.3,0,0,0-1.075.554,2.79,2.79,0,0,0-.424,1.692Z" transform="translate(-216.274 -51.676)"/><path class="a" d="M444.881,288.687h2.71v1.38a4.2,4.2,0,0,1,1.229-1.209,2.952,2.952,0,0,1,1.515-.366,2.354,2.354,0,0,1,1.891.8,3.777,3.777,0,0,1,.68,2.48v5.4h-2.922v-4.668a1.849,1.849,0,0,0-.263-1.129.893.893,0,0,0-.744-.333,1.016,1.016,0,0,0-.856.447,2.845,2.845,0,0,0-.329,1.607v4.076h-2.91v-8.487Z" transform="translate(-259.02 -52.152)"/><path class="a" d="M500.551,294.736h-5.39a2.244,2.244,0,0,0,.35,1.13,1.2,1.2,0,0,0,1.017.533,1.349,1.349,0,0,0,.753-.232,1.871,1.871,0,0,0,.469-.517l2.65.285a4.2,4.2,0,0,1-1.466,1.776,4.688,4.688,0,0,1-2.465.536,4.423,4.423,0,0,1-2.194-.459,3.491,3.491,0,0,1-1.324-1.462,5.006,5.006,0,0,1-.525-2.354,4.527,4.527,0,0,1,1.053-3.115,3.689,3.689,0,0,1,2.911-1.193,4.526,4.526,0,0,1,2.377.536,3.368,3.368,0,0,1,1.329,1.544,6.477,6.477,0,0,1,.456,2.637v.356Zm-2.733-1.507a2.326,2.326,0,0,0-.419-1.307,1.125,1.125,0,0,0-.9-.4,1.175,1.175,0,0,0-1.026.6,2.424,2.424,0,0,0-.309,1.106Z" transform="translate(-297.705 -53.104)"/><path class="b" d="M504.071,232.241c-1.667-1.758-2.722-5.3.8-7.314,2.721-1.058,4.793-.6,5.918,2.061,2.3,6.731,5.5,8.811,7.979,8.578,3.724-.089,5.5-1.884,6.384-4.455.034-6.067,4.46-5.477,5.386-5.253,3.181,1.108,2.755,5.563.931,6.649-1.552,1.529-5.763.091-7.448,2.793-1.422,2.031-1.011,4.573-2.128,5.559a5.734,5.734,0,0,1-4.056.958c-3.721,1.04-.242,3.619-2.726,5.519-1.7,1.007-4.048.035-4.023-1.729.031-2.707,1.927-3.075,3.733-3.083a2.475,2.475,0,0,0,1.212-1.719,4.487,4.487,0,0,0-1.521-4.839c-4.613-4.367-8.093-1.349-10.44-3.724Z" transform="translate(-305.922)"/><path class="a" d="M197.533,359.953l.977-4.665h.577l-.606,2.891,1.679-1.6h.759l-1.441,1.26.872,2.119h-.63l-.675-1.735-.7.607-.233,1.128Zm3.252,0,.974-4.665h.576l-.374,1.791a1.731,1.731,0,0,1,1.169-.582.942.942,0,0,1,.633.2.741.741,0,0,1,.252.6,3.945,3.945,0,0,1-.1.656l-.417,2h-.573l.428-2.047a3.684,3.684,0,0,0,.092-.559q0-.377-.445-.376a1.152,1.152,0,0,0-.6.167,1.186,1.186,0,0,0-.437.443,3.361,3.361,0,0,0-.3.92l-.3,1.451Zm3.727-1.283a2.366,2.366,0,0,1,.582-1.639,1.614,1.614,0,0,1,1.26-.535,1.3,1.3,0,0,1,1,.394,1.433,1.433,0,0,1,.359,1.019,2.519,2.519,0,0,1-.216,1.047,1.77,1.77,0,0,1-.683.8,1.735,1.735,0,0,1-.921.27,1.263,1.263,0,0,1-1.209-.646,1.445,1.445,0,0,1-.172-.713Zm.576-.058a1.112,1.112,0,0,0,.191.678.724.724,0,0,0,.62.293.983.983,0,0,0,.7-.3,1.776,1.776,0,0,0,.442-.77,2.058,2.058,0,0,0,.1-.605,1.091,1.091,0,0,0-.2-.671.721.721,0,0,0-.614-.293,1.077,1.077,0,0,0-.895.506,1.922,1.922,0,0,0-.35,1.164Zm.472-2.449.843-.876h.637l.4.876h-.5l-.259-.57-.525.57Zm2.475,3.79.706-3.379h.521l-.124.589a1.825,1.825,0,0,1,1.242-.666.911.911,0,0,1,.63.21.769.769,0,0,1,.249.608,3.144,3.144,0,0,1-.083.592l-.43,2.047h-.577l.45-2.142a2.569,2.569,0,0,0,.067-.461q0-.38-.452-.379-1,0-1.295,1.41l-.329,1.572Zm3.593.305.582.054a.428.428,0,0,0,.22.448,1,1,0,0,0,.4.07.927.927,0,0,0,.751-.271,2.015,2.015,0,0,0,.277-.789l.058-.274a1.336,1.336,0,0,1-.955.455,1.067,1.067,0,0,1-.91-.442,1.642,1.642,0,0,1-.292-1,2.142,2.142,0,0,1,.246-1,1.948,1.948,0,0,1,.675-.773,1.41,1.41,0,0,1,.774-.242,1.127,1.127,0,0,1,1.025.631l.112-.554h.528l-.681,3.262a2.949,2.949,0,0,1-.244.754,1.283,1.283,0,0,1-.551.551,1.634,1.634,0,0,1-.747.165,1.319,1.319,0,0,1-1.139-.411.773.773,0,0,1-.147-.465,1.007,1.007,0,0,1,.016-.172Zm.719-1.8a1.521,1.521,0,0,0,.067.521.681.681,0,0,0,.665.5.925.925,0,0,0,.627-.251,1.541,1.541,0,0,0,.391-.564,2.076,2.076,0,0,0,.172-.8.975.975,0,0,0-.206-.637.728.728,0,0,0-.6-.274.956.956,0,0,0-.773.455,2.078,2.078,0,0,0-.347,1.041Zm4.748,1.5.706-3.379h.521l-.124.589a1.824,1.824,0,0,1,1.242-.666.911.911,0,0,1,.63.21.769.769,0,0,1,.249.608,3.144,3.144,0,0,1-.083.592l-.43,2.047h-.577l.45-2.142a2.569,2.569,0,0,0,.067-.461q0-.38-.452-.379-1,0-1.295,1.41l-.329,1.572Zm3.593.305.582.054a.428.428,0,0,0,.22.448,1,1,0,0,0,.4.07.927.927,0,0,0,.751-.271,2.015,2.015,0,0,0,.277-.789l.058-.274a1.336,1.336,0,0,1-.955.455,1.067,1.067,0,0,1-.91-.442,1.642,1.642,0,0,1-.292-1,2.142,2.142,0,0,1,.246-1,1.948,1.948,0,0,1,.675-.773,1.41,1.41,0,0,1,.774-.242,1.127,1.127,0,0,1,1.025.631l.112-.554h.528l-.681,3.262a2.949,2.949,0,0,1-.244.754,1.283,1.283,0,0,1-.551.551,1.634,1.634,0,0,1-.747.165,1.319,1.319,0,0,1-1.139-.411.773.773,0,0,1-.147-.465,1.009,1.009,0,0,1,.016-.172Zm.719-1.8a1.521,1.521,0,0,0,.067.521.681.681,0,0,0,.665.5.925.925,0,0,0,.627-.251,1.541,1.541,0,0,0,.391-.564,2.076,2.076,0,0,0,.172-.8.975.975,0,0,0-.206-.637.728.728,0,0,0-.6-.274.956.956,0,0,0-.773.455,2.078,2.078,0,0,0-.347,1.041Zm5.244.884a1.71,1.71,0,0,1-1.244.684.922.922,0,0,1-.608-.2.69.69,0,0,1-.264-.57,4.084,4.084,0,0,1,.109-.731l.407-1.951h.572l-.452,2.161a2.244,2.244,0,0,0-.058.42q0,.4.462.4a1.111,1.111,0,0,0,.872-.437,1.764,1.764,0,0,0,.267-.473,3.826,3.826,0,0,0,.162-.615l.306-1.46h.579l-.064.3a.672.672,0,0,0,.213-.407h-.244l.1-.449h.449l-.083.391c-.079.374-.237.6-.475.675l-.6,2.871h-.531l.13-.612Zm-.411-3.182-.62-.876h.7l.368.876Zm1.728,3.793.706-3.379h.521l-.124.589a1.825,1.825,0,0,1,1.242-.666.912.912,0,0,1,.63.21.769.769,0,0,1,.249.608,3.159,3.159,0,0,1-.083.592l-.43,2.047H230.1l.45-2.142a2.57,2.57,0,0,0,.067-.461q0-.38-.452-.379-1,0-1.295,1.41l-.329,1.572Zm3.593.305.582.054a.427.427,0,0,0,.219.448.994.994,0,0,0,.4.07.927.927,0,0,0,.751-.271,2.019,2.019,0,0,0,.277-.789l.058-.274a1.335,1.335,0,0,1-.955.455,1.067,1.067,0,0,1-.91-.442,1.643,1.643,0,0,1-.292-1,2.145,2.145,0,0,1,.246-1,1.948,1.948,0,0,1,.675-.773,1.41,1.41,0,0,1,.774-.242,1.127,1.127,0,0,1,1.025.631l.112-.554h.528l-.681,3.262a2.942,2.942,0,0,1-.244.754,1.283,1.283,0,0,1-.551.551,1.634,1.634,0,0,1-.747.165,1.32,1.32,0,0,1-1.139-.411.773.773,0,0,1-.147-.465,1.007,1.007,0,0,1,.016-.172Zm.719-1.8a1.52,1.52,0,0,0,.067.521.681.681,0,0,0,.665.5.924.924,0,0,0,.627-.251,1.542,1.542,0,0,0,.391-.564,2.077,2.077,0,0,0,.172-.8.976.976,0,0,0-.206-.637.728.728,0,0,0-.6-.274.956.956,0,0,0-.773.455,2.078,2.078,0,0,0-.347,1.041Zm5.6,1.5-.554-3.379h.562l.288,1.861q.049.31.117,1c.113-.242.253-.518.422-.825l1.131-2.033h.608l-1.935,3.379Zm4.713-.612a1.71,1.71,0,0,1-1.244.684.922.922,0,0,1-.608-.2.69.69,0,0,1-.264-.57,4.083,4.083,0,0,1,.109-.731l.407-1.951h.572l-.452,2.161a2.245,2.245,0,0,0-.058.42q0,.4.462.4a1.111,1.111,0,0,0,.872-.437,1.764,1.764,0,0,0,.267-.473,3.826,3.826,0,0,0,.162-.615l.306-1.46h.579l-.064.3a.671.671,0,0,0,.213-.407h-.244l.1-.449h.449l-.083.391c-.079.374-.237.6-.475.675l-.6,2.871h-.531l.13-.612Zm1.992-.728a1.132,1.132,0,0,0,.191.678.732.732,0,0,0,.62.292,1,1,0,0,0,.7-.3,1.744,1.744,0,0,0,.442-.77,2.032,2.032,0,0,0,.1-.605,1.083,1.083,0,0,0-.2-.671.717.717,0,0,0-.614-.292,1.077,1.077,0,0,0-.894.505,1.945,1.945,0,0,0-.351,1.166Zm2.129-2.149.1-.449h.449l-.079.391a1.03,1.03,0,0,1-.267.554,1.448,1.448,0,0,1,.3.948,2.489,2.489,0,0,1-.216,1.047,1.791,1.791,0,0,1-.681.8,1.725,1.725,0,0,1-.922.267,1.27,1.27,0,0,1-1.21-.642,1.484,1.484,0,0,1-.168-.714,2.378,2.378,0,0,1,.579-1.638,1.612,1.612,0,0,1,1.26-.536,1.338,1.338,0,0,1,.943.335.709.709,0,0,0,.165-.366Zm.821,3.488.706-3.379h.521l-.124.589a1.825,1.825,0,0,1,1.242-.666.912.912,0,0,1,.63.21.77.77,0,0,1,.249.608,3.148,3.148,0,0,1-.083.592l-.43,2.047h-.577l.45-2.142a2.565,2.565,0,0,0,.067-.461q0-.38-.452-.379-1,0-1.295,1.41l-.329,1.572Zm5.21,0,1.47-1.715-.843-1.664h.637l.287.6c.1.21.195.425.286.645l.974-1.247h.7l-1.419,1.709.853,1.671h-.638l-.337-.688c-.074-.151-.156-.332-.246-.544l-1,1.232Zm5.763-.42a1.785,1.785,0,0,1-1.168.5,1.068,1.068,0,0,1-.742-.261.925.925,0,0,1-.3-.719.943.943,0,0,1,.471-.853,1.587,1.587,0,0,1,.521-.188,6.967,6.967,0,0,1,.775-.058,2.559,2.559,0,0,0,.741-.117,1.5,1.5,0,0,0,.067-.392q0-.474-.732-.474a.89.89,0,0,0-.93.617l-.582-.051a1.48,1.48,0,0,1,1.54-1.038,1.533,1.533,0,0,1,.993.3.713.713,0,0,1,.28.58,2.908,2.908,0,0,1-.079.627l-.188.84a3.121,3.121,0,0,0-.09.653,2.2,2.2,0,0,0,.07.458h-.582a2.089,2.089,0,0,1-.067-.42Zm.214-1.291a2.826,2.826,0,0,1-.724.127,4.4,4.4,0,0,0-.551.07.748.748,0,0,0-.47.262.557.557,0,0,0-.105.33.5.5,0,0,0,.191.42.723.723,0,0,0,.452.134,1.074,1.074,0,0,0,.56-.156,1.127,1.127,0,0,0,.411-.422,2.484,2.484,0,0,0,.236-.765Z" transform="translate(-57.761 -106.497)"/></g></svg>