<svg xmlns="http://www.w3.org/2000/svg" width="23.112" height="29.742" viewBox="0 0 23.112 29.742"><defs><style>.a{fill:#fff;}</style></defs><g transform="translate(0 -0.152)"><path class="a" d="M4.64.17A2.3,2.3,0,0,0,3.194,1.1C-.973,6.482,5.733,9.243,7.39,9.243H9.611S3.219,6.6,4.666,4.33c1.164-1.825,2.524,1.8,5.139,2.51,0,.041-.026.068-.026.107V8.1a1.045,1.045,0,0,0,.888,1.147h1.777a1.046,1.046,0,0,0,.89-1.147V6.947c0-.039-.025-.066-.028-.107,2.614-.708,3.975-4.335,5.139-2.51C19.893,6.6,13.5,9.243,13.5,9.243h2.223c1.655,0,8.361-2.76,4.194-8.139a1.9,1.9,0,0,0-3.473.43A11.409,11.409,0,0,1,13.2,6.373a.877.877,0,0,0-.751-.573H10.667a.879.879,0,0,0-.751.573,11.426,11.426,0,0,1-3.249-4.84A1.946,1.946,0,0,0,4.64.17ZM1.777,10.389A2.086,2.086,0,0,0,0,12.685v5.736H9.779V10.389Zm11.558,0v8.032h9.777V12.685a2.086,2.086,0,0,0-1.777-2.3ZM0,21.864V27.6a2.085,2.085,0,0,0,1.777,2.294h8v-8.03Zm13.335,0v8.03h8A2.085,2.085,0,0,0,23.112,27.6V21.864Z" transform="translate(0 0)"/></g></svg>