<svg xmlns="http://www.w3.org/2000/svg" width="32.432" height="29.189" viewBox="0 0 32.432 29.189"><defs><style>.a{fill:#fff;}</style></defs><path class="a" d="M9.73,64.332c-1.441,0-9.73,8.7-9.73,14.595a9.73,9.73,0,0,0,19.459,0C19.459,73.028,11.171,64.332,9.73,64.332Zm4.054,14.595a.811.811,0,0,1,.811.811,4.27,4.27,0,0,1-4.054,4.054.811.811,0,1,1,0-1.622,2.674,2.674,0,0,0,2.432-2.432.811.811,0,0,1,.811-.811Zm0,0" transform="translate(0 -59.467)"/><path class="a" d="M262.486.332c-1.5,0-6.486,5.4-6.486,9.73a6.487,6.487,0,1,0,12.973,0c0-4.326-4.99-9.73-6.487-9.73Zm.811,12.973a.811.811,0,1,1,0-1.622.948.948,0,0,0,.811-.811.811.811,0,1,1,1.622,0,2.561,2.561,0,0,1-2.432,2.432Zm0,0" transform="translate(-236.541 -0.332)"/></svg>