<svg xmlns="http://www.w3.org/2000/svg" width="28.731" height="43.671" viewBox="0 0 28.731 43.671"><defs><style>.a{fill:#fff;}</style></defs><path class="a" d="M21.668,195.437a10.939,10.939,0,0,0,8.978,10.745v12.43a.9.9,0,0,0,.9.9h5.387a.9.9,0,0,0,.9-.9v-12.43a10.939,10.939,0,0,0,8.978-10.745V192H21.668Zm0,0" transform="translate(-19.872 -175.839)"/><path class="a" d="M219.055,2.694a2.694,2.694,0,1,0-5.387,0V8.979h5.387Zm0,0" transform="translate(-195.711 0)"/><path class="a" d="M69.719,2.694a2.694,2.694,0,1,0-5.387,0V8.979h5.387Zm0,0" transform="translate(-58.945 0)"/><path class="a" d="M28.165,128H1.23a.9.9,0,0,0-.9.9v1.8a.9.9,0,0,0,.9.9H28.165a.9.9,0,0,0,.9-.9v-1.8a.9.9,0,0,0-.9-.9Zm0,0" transform="translate(-0.332 -117.226)"/></svg>