<svg xmlns="http://www.w3.org/2000/svg" width="28.227" height="27" viewBox="0 0 28.227 27"><defs><style>.a{fill:#fff;}</style></defs><g transform="translate(-220 -712)"><g transform="translate(220 714)"><path class="a" d="M4.932,24,8.059,37.029a.614.614,0,0,0,.6.471H24.61a.614.614,0,0,0,.6-.471L28.334,24Z" transform="translate(-2.519 -12.5)"/><path class="a" d="M28.614,9.977H23.582l-5.514-7.72a.614.614,0,1,0-1,.713l5,7.007H8.154l5-7.007a.614.614,0,1,0-1-.713L6.645,9.977H1.614A.614.614,0,0,0,1,10.591v3.068a.614.614,0,0,0,.614.614h27a.614.614,0,0,0,.614-.614V10.591A.614.614,0,0,0,28.614,9.977Z" transform="translate(-1 -4)"/></g></g></svg>