<svg xmlns="http://www.w3.org/2000/svg" width="32.432" height="18.184" viewBox="0 0 32.432 18.184"><defs><style>.a{fill:#fff;}</style></defs><path class="a" d="M26.394,0H.95A.95.95,0,0,0,0,.95V7.124H4.681V1.9h1.9V7.124h4.681V1.9h1.9V7.124h4.681V1.9h1.9V7.124h4.681V1.9h1.9V7.487l6.106,3.056v-4.5A6.045,6.045,0,0,0,26.394,0Zm0,0"/><path class="a" d="M0,142.461v6.174a.95.95,0,0,0,.95.95H4.138a3.936,3.936,0,0,1,7.872,0H19.4a3.936,3.936,0,0,1,7.872,0h4.206a.95.95,0,0,0,.95-.95V146.1l-7.281-3.64Zm0,0" transform="translate(0 -133.437)"/><path class="a" d="M97.372,222.8a2.035,2.035,0,1,0,2.035,2.035A2.038,2.038,0,0,0,97.372,222.8Zm0,0" transform="translate(-89.297 -208.688)"/><path class="a" d="M338.372,222.8a2.035,2.035,0,1,0,2.035,2.035A2.038,2.038,0,0,0,338.372,222.8Zm0,0" transform="translate(-315.031 -208.688)"/></svg>