<svg xmlns="http://www.w3.org/2000/svg" width="27.027" height="27.027" viewBox="0 0 27.027 27.027"><defs><style>.a{fill:#fff;}</style></defs><path class="a" d="M25.338,0H1.689A1.672,1.672,0,0,0,0,1.669V25.318a1.706,1.706,0,0,0,1.689,1.709H25.338a1.706,1.706,0,0,0,1.689-1.709V1.669A1.672,1.672,0,0,0,25.338,0ZM5.912,23.649H3.378V21.115H5.912Zm0-5.912H3.378V15.2H5.912Zm0-5.912H3.378V9.291H5.912Zm0-5.912H3.378V3.378H5.912Zm5.912,10.96V10.96l5.068,2.956Zm11.824,6.777H21.115V21.115h2.534Zm0-5.912H21.115V15.2h2.534Zm0-5.912H21.115V9.291h2.534Zm0-5.912H21.115V3.378h2.534Z"/></svg>