<svg xmlns="http://www.w3.org/2000/svg" width="30" height="30" viewBox="0 0 30 30"><defs><style>.a{fill:#fff;}</style></defs><path class="a" d="M1.652,35A.652.652,0,0,0,1,35.652v6.522a.652.652,0,0,0,.652.652h28.7A.652.652,0,0,0,31,42.174V35.652a.652.652,0,0,0-1.3,0v5.87H2.3v-5.87A.652.652,0,0,0,1.652,35Z" transform="translate(-1 -12.826)"/><path class="a" d="M27,15.348h-5.87V1.652A.652.652,0,0,0,20.478,1h-1.3a.652.652,0,0,0-.652.652v13.7h-5.87A.652.652,0,0,0,12.14,16.4l7.174,9.13a.652.652,0,0,0,1.025,0l7.174-9.13A.652.652,0,0,0,27,15.348Z" transform="translate(-4.826 -1)"/></svg>