<svg xmlns="http://www.w3.org/2000/svg" width="32.502" height="32.121" viewBox="0 0 32.502 32.121"><defs><style>.a{fill:#fff;}</style></defs><path class="a" d="M-725.244,194.175a11.625,11.625,0,0,1,.234-3.09,5.13,5.13,0,0,1,4.782-3.626c1.217-.014,2.434-.007,3.651,0,.761,0,1.21.375,1.2.975-.013.576-.443.923-1.167.927-.924.005-1.848,0-2.772,0a3.756,3.756,0,0,0-4.123,4.039c-.02.924,0,1.848,0,2.772,0,.857-.282,1.22-.911,1.208-.609-.012-.883-.4-.885-1.25C-725.246,195.521-725.244,194.913-725.244,194.175Z" transform="translate(725.248 -187.427)"/><path class="a" d="M-548.233,194.218c0,.609,0,1.217,0,1.825-.005.793-.291,1.17-.887,1.181-.613.011-.893-.346-.911-1.142-.027-1.193.067-2.388-.066-3.579a3.639,3.639,0,0,0-3.588-3.292c-1.1-.019-2.208,0-3.313-.007a.972.972,0,0,1-1.1-.928.953.953,0,0,1,1.063-.967,29.9,29.9,0,0,1,4.72.118,5.1,5.1,0,0,1,4.076,4.831C-548.22,192.91-548.234,193.564-548.233,194.218Z" transform="translate(580.731 -187.271)"/><path class="a" d="M-718.642,361.119a17.5,17.5,0,0,1-2.418-.092,5.132,5.132,0,0,1-4.2-5.074q-.011-1.825,0-3.65c0-.734.308-1.1.893-1.106s.883.339.9,1.081c.032,1.215-.068,2.433.068,3.646a3.639,3.639,0,0,0,3.593,3.286c1.081.019,2.163,0,3.245.006.719,0,1.151.36,1.159.936s-.428.956-1.138.965C-717.192,361.125-717.846,361.119-718.642,361.119Z" transform="translate(725.268 -329.001)"/><path class="a" d="M-548.228,354.433a10.921,10.921,0,0,1-.245,3.093,5.112,5.112,0,0,1-4.871,3.6c-1.172.007-2.344,0-3.515,0-.781,0-1.221-.343-1.231-.94s.435-.96,1.2-.963c.9,0,1.8,0,2.7,0,2.621,0,4.111-1.454,4.158-4.071.017-.946,0-1.893.005-2.839.006-.757.285-1.1.874-1.107.611-.007.914.365.92,1.146C-548.223,353-548.228,353.656-548.228,354.433Z" transform="translate(580.726 -329.006)"/><path class="a" d="M-641.65,352.827a8.054,8.054,0,0,1-5.433-2.28,1.027,1.027,0,0,1-.19-1.487c.415-.435.888-.388,1.469.144,2.664,2.444,5.775,2.438,8.384-.016.555-.522,1.05-.564,1.474-.123a.98.98,0,0,1-.175,1.48A8.126,8.126,0,0,1-641.65,352.827Z" transform="translate(658.042 -326.898)"/><path class="a" d="M-618.542,270.787c0,.993.008,1.986,0,2.978a2.588,2.588,0,0,1-3.4,2.259.854.854,0,0,1-.563-.967.86.86,0,0,1,.845-.813c.943-.144.946-.14.946-1.074,0-1.782-.005-3.565,0-5.347,0-.837.432-1.333,1.114-1.316.658.017,1.054.493,1.06,1.3C-618.535,268.8-618.541,269.794-618.542,270.787Z" transform="translate(636.427 -255.778)"/><path class="a" d="M-659.729,270.269c0,.382.014.765,0,1.146a1.258,1.258,0,0,1-1.125,1.228,1.221,1.221,0,0,1-1.324-.916,7.649,7.649,0,0,1,.014-3.008,1.194,1.194,0,0,1,1.288-.863,1.247,1.247,0,0,1,1.146,1.133,1.267,1.267,0,0,1,.005.135Q-659.728,269.7-659.729,270.269Z" transform="translate(670.847 -256.938)"/><path class="a" d="M-562.578,270.237c0,.4.019.81-.006,1.212a1.254,1.254,0,0,1-1.156,1.2,1.237,1.237,0,0,1-1.31-1.019,8.922,8.922,0,0,1,0-2.748,1.209,1.209,0,0,1,1.3-1.03,1.242,1.242,0,0,1,1.174,1.244C-562.562,269.473-562.577,269.855-562.578,270.237Z" transform="translate(586.836 -256.935)"/></svg>