<svg xmlns="http://www.w3.org/2000/svg" xmlns:xlink="http://www.w3.org/1999/xlink" width="332.594" height="267.261" viewBox="0 0 332.594 267.261">
  <defs>
    <linearGradient id="linear-gradient" x1="0.5" y1="1" x2="0.5" gradientUnits="objectBoundingBox">
      <stop offset="0" stop-color="gray" stop-opacity="0.251"/>
      <stop offset="0.54" stop-color="gray" stop-opacity="0.122"/>
      <stop offset="1" stop-color="gray" stop-opacity="0.102"/>
    </linearGradient>
    <clipPath id="clip-graph-contact">
      <rect width="332.593" height="267.261"/>
    </clipPath>
  </defs>
  <g id="graph-contact" clip-path="url(#clip-graph-contact)">
    <g id="undraw_envelope_n8lc" transform="translate(-0.008 0.006)">
      <path id="Path_10956" data-name="Path 10956" d="M275.782,64.749c-21.323-.614-41.631-6.347-61.01-12.62s-38.617-13.212-59.429-16.535c-13.385-2.137-28.692-2.439-39.478,3.535-10.38,5.749-13.732,15.677-15.535,24.891-1.359,6.929-2.156,14.224,1.562,20.709,2.571,4.5,7.163,8.288,10.332,12.6,11.023,15.011,3.233,33.519-8.716,48.174-5.6,6.874-12.106,13.434-16.432,20.751s-6.318,15.709-2.542,23.165c3.75,7.392,12.688,12.955,22.371,16.866,19.665,7.938,42.839,10.21,65.435,11.5,50.019,2.847,100.308,1.607,150.462.379,18.559-.456,37.2-.919,55.463-3.31,10.139-1.327,20.607-3.432,27.96-8.516,9.346-6.453,11.66-17.383,5.4-25.475-10.5-13.575-39.529-16.946-46.885-31.514-4.043-8.018.109-16.953,5.981-24.389,12.6-15.953,33.716-29.949,34.827-48.184.762-12.534-9.387-25.067-25.083-30.993-16.451-6.212-39.266-5.431-51.42,4.853C316.571,61.221,294.608,65.305,275.782,64.749Z" transform="translate(-82.53 -34.2)" fill="#6c63ff" opacity="0.1"/>
      <ellipse id="Ellipse_187" data-name="Ellipse 187" cx="93.44" cy="9.423" rx="93.44" ry="9.423" transform="translate(46.508 248.41)" fill="#6c63ff" opacity="0.1"/>
      <path id="Path_10957" data-name="Path 10957" d="M178.865,695.671s-4.146-23.489-19.533-35.13a35.993,35.993,0,0,1-13.244-19.093,57.606,57.606,0,0,1-1.858-10.959" transform="translate(-124.396 -438.861)" fill="none" stroke="#535461" stroke-miterlimit="10" stroke-width="2"/>
      <path id="Path_10958" data-name="Path 10958" d="M113.068,592.109c1.285,2.516,9.876,7.61,9.876,7.61s1.08-9.516-.215-12.035a5.513,5.513,0,0,0-7.173-2.349A4.942,4.942,0,0,0,113.068,592.109Z" transform="translate(-102.881 -407.872)" fill="#6c63ff"/>
      <path id="Path_10959" data-name="Path 10959" d="M106.212,642.422c2.539,1.449,12.675,1.321,12.675,1.321s-4.573-8.542-7.1-9.992a5.554,5.554,0,0,0-7.372,1.71A4.907,4.907,0,0,0,106.212,642.422Z" transform="translate(-96.845 -440.576)" fill="#6c63ff"/>
      <path id="Path_10960" data-name="Path 10960" d="M139.677,714.588c2.963.042,11.643-4.9,11.643-4.9s-8.513-5.193-11.48-5.238a5.079,5.079,0,1,0-.164,10.139Z" transform="translate(-117.709 -489.051)" fill="#6c63ff"/>
      <path id="Path_10961" data-name="Path 10961" d="M184.587,764.2c2.912.517,12.354-2.973,12.354-2.973s-7.462-6.485-10.371-6.993a5.359,5.359,0,0,0-6.267,4.049A5.086,5.086,0,0,0,184.587,764.2Z" transform="translate(-148.813 -522.781)" fill="#6c63ff"/>
      <path id="Path_10962" data-name="Path 10962" d="M161.531,639.091c-1.012,2.632-9,8.533-9,8.533s-2.115-9.359-1.1-11.991a5.465,5.465,0,0,1,6.881-3.037A5,5,0,0,1,161.531,639.091Z" transform="translate(-129.096 -440.083)" fill="#6c63ff"/>
      <path id="Path_10963" data-name="Path 10963" d="M209.077,694.674c-1.8,2.227-11.287,5.6-11.287,5.6s.964-9.529,2.751-11.753a5.586,5.586,0,0,1,7.527-.964,4.885,4.885,0,0,1,1.009,7.115Z" transform="translate(-160.743 -476.885)" fill="#6c63ff"/>
      <path id="Path_10964" data-name="Path 10964" d="M250.909,759.249c-1.375,2.481-10.12,7.321-10.12,7.321s-.768-9.542.607-12.023a5.528,5.528,0,0,1,7.247-2.14A4.934,4.934,0,0,1,250.909,759.249Z" transform="translate(-189.778 -521.204)" fill="#6c63ff"/>
      <path id="Path_10965" data-name="Path 10965" d="M113.068,592.109c1.285,2.516,9.876,7.61,9.876,7.61s1.08-9.516-.215-12.035a5.513,5.513,0,0,0-7.173-2.349A4.942,4.942,0,0,0,113.068,592.109Z" transform="translate(-102.881 -407.872)" opacity="0.25"/>
      <path id="Path_10966" data-name="Path 10966" d="M106.212,642.422c2.539,1.449,12.675,1.321,12.675,1.321s-4.573-8.542-7.1-9.992a5.554,5.554,0,0,0-7.372,1.71A4.907,4.907,0,0,0,106.212,642.422Z" transform="translate(-96.845 -440.576)" opacity="0.25"/>
      <path id="Path_10967" data-name="Path 10967" d="M139.677,714.588c2.963.042,11.643-4.9,11.643-4.9s-8.513-5.193-11.48-5.238a5.079,5.079,0,1,0-.164,10.139Z" transform="translate(-117.709 -489.051)" opacity="0.25"/>
      <path id="Path_10968" data-name="Path 10968" d="M184.587,764.2c2.912.517,12.354-2.973,12.354-2.973s-7.462-6.485-10.371-6.993a5.359,5.359,0,0,0-6.267,4.049A5.086,5.086,0,0,0,184.587,764.2Z" transform="translate(-148.813 -522.781)" opacity="0.25"/>
      <path id="Path_10969" data-name="Path 10969" d="M161.531,639.091c-1.012,2.632-9,8.533-9,8.533s-2.115-9.359-1.1-11.991a5.465,5.465,0,0,1,6.881-3.037A5,5,0,0,1,161.531,639.091Z" transform="translate(-129.096 -440.083)" opacity="0.25"/>
      <path id="Path_10970" data-name="Path 10970" d="M209.077,694.674c-1.8,2.227-11.287,5.6-11.287,5.6s.964-9.529,2.751-11.753a5.586,5.586,0,0,1,7.527-.964,4.885,4.885,0,0,1,1.009,7.115Z" transform="translate(-160.743 -476.885)" opacity="0.25"/>
      <path id="Path_10971" data-name="Path 10971" d="M250.909,759.249c-1.375,2.481-10.12,7.321-10.12,7.321s-.768-9.542.607-12.023a5.528,5.528,0,0,1,7.247-2.14A4.934,4.934,0,0,1,250.909,759.249Z" transform="translate(-189.778 -521.204)" opacity="0.25"/>
      <path id="Path_10972" data-name="Path 10972" d="M235.2,677.573s6.289-23.062-2.78-39.594a34.325,34.325,0,0,1-3.911-22.522,57.847,57.847,0,0,1,3-10.728" transform="translate(-181.249 -421.379)" fill="none" stroke="#535461" stroke-miterlimit="10" stroke-width="2"/>
      <path id="Path_10973" data-name="Path 10973" d="M221.323,561.145c.1,2.8,5.762,10.737,5.762,10.737s5.071-8.288,4.968-11.087a5.377,5.377,0,0,0-10.731.35Z" transform="translate(-176.71 -388.243)" fill="#6c63ff"/>
      <path id="Path_10974" data-name="Path 10974" d="M193.461,604.506c1.7,2.295,11.017,6.055,11.017,6.055s-.514-9.558-2.211-11.856a5.576,5.576,0,0,0-7.475-1.257,4.895,4.895,0,0,0-1.33,7.057Z" transform="translate(-157.153 -415.817)" fill="#6c63ff"/>
      <path id="Path_10975" data-name="Path 10975" d="M193.105,683.286c2.693,1.173,12.752-.022,12.752-.022s-5.557-8.009-8.25-9.182a5.506,5.506,0,0,0-7.125,2.478A4.954,4.954,0,0,0,193.105,683.286Z" transform="translate(-155.447 -468.126)" fill="#6c63ff"/>
      <path id="Path_10976" data-name="Path 10976" d="M212.821,745.815c2.446,1.588,12.572,2.009,12.572,2.009s-4.043-8.777-6.485-10.361a5.569,5.569,0,0,0-7.466,1.286,4.894,4.894,0,0,0,1.379,7.067Z" transform="translate(-169.363 -510.842)" fill="#6c63ff"/>
      <path id="Path_10977" data-name="Path 10977" d="M239.791,622.608c-2.057,2.018-11.891,4.361-11.891,4.361s2.086-9.368,4.139-11.386a5.6,5.6,0,0,1,7.594-.141,4.872,4.872,0,0,1,.157,7.167Z" transform="translate(-181.176 -427.688)" fill="#6c63ff"/>
      <path id="Path_10978" data-name="Path 10978" d="M258.14,693c-2.6,1.347-12.72.8-12.72.8s4.959-8.356,7.559-9.693a5.545,5.545,0,0,1,7.289,2.009A4.916,4.916,0,0,1,258.14,693Z" transform="translate(-193.066 -474.826)" fill="#6c63ff"/>
      <path id="Path_10979" data-name="Path 10979" d="M268.215,766.848c-2.324,1.742-12.4,2.822-12.4,2.822s3.394-9.021,5.717-10.763a5.585,5.585,0,0,1,7.543.82,4.882,4.882,0,0,1-.865,7.122Z" transform="translate(-200.123 -525.261)" fill="#6c63ff"/>
      <path id="Path_10980" data-name="Path 10980" d="M868.424,279.819c.193-.527-1.253-3.448-1.253-3.593s-1.494-1.774-1.494-2.684-1.98-2.873-1.98-2.873-2.651-1.1-2.941-3.5-3.178-2.446-3.185-2.446h0s0-.219.019-.55a8.027,8.027,0,0,0-.357-2.8,2.844,2.844,0,0,0-1.642-1.392,6.138,6.138,0,0,0-.868-2.442,2.751,2.751,0,0,1-.678-2.584c.289-.909-.386-3.214-1.787-3.535s-2.989-.861-2.989-.861-.157.029-.386.061l-.193-.061a8.6,8.6,0,0,1-1.016.125,1.237,1.237,0,0,1-.816-.27c-.485-.527-4.393-1.533-5.116-1.533a12.082,12.082,0,0,1-2.8-.964l-2.07-1.581a13.652,13.652,0,0,1-1.816-2.5l-.019-.035h0a8.691,8.691,0,0,1-.437-1.26h0a11.39,11.39,0,0,0,1.793-2.465c.051-.093.1-.19.141-.283a1.155,1.155,0,0,0,.321-.051.4.4,0,0,0,.125-.048,2.105,2.105,0,0,0,1.025-1.224h0a3.126,3.126,0,0,0,.093-.321.193.193,0,0,1,.022-.109.949.949,0,0,0,.045-.219c.013-.074.016-.084.023-.122s.022-.145.032-.219a.469.469,0,0,0,0-.119,1.921,1.921,0,0,1,.035-.273h0a9.713,9.713,0,0,1,.151-1.012h0a18.792,18.792,0,0,1,1.626-3.6h0c.08-.17.154-.347.222-.524s.135-.386.19-.582l.048-.18c.035-.141.068-.286.1-.431a1.352,1.352,0,0,1,.035-.193c.032-.2.061-.4.077-.6a7.449,7.449,0,0,0-.479-3.378c-.363-.9-.9-1.71-1.266-2.61-.556-1.363-.7-2.892-1.379-4.2a5.008,5.008,0,0,0-6.007-2.449c-1.051.389-1.96,1.147-3.024,1.488a10.053,10.053,0,0,1-4.425-.093,5.489,5.489,0,0,0-4.294.742c-1.366,1.109-1.742,3.194-3.024,4.412-.537.511-1.208.839-1.777,1.311a2.892,2.892,0,0,0-.89,1.218.422.422,0,0,1-.032.1c-.01.035-.023.08-.032.122s-.019.1-.026.145a.51.51,0,0,0,0,.1,1.705,1.705,0,0,0,0,.257h0a2.094,2.094,0,0,0,.042.241v.067a1.682,1.682,0,0,0,.061.2.181.181,0,0,0,0,.039c.026.074.055.145.083.219l.048.109.039.09a5.581,5.581,0,0,1,.447,1.112,1.256,1.256,0,0,1-.042.736,2.249,2.249,0,0,1-.537.7,9.962,9.962,0,0,0-2.176,3.487c-.055.148-.109.3-.158.45h0l.068.016a2.738,2.738,0,0,0,.421.093c.08,0,.161.019.244.026a3.776,3.776,0,0,0,.983-.077c.08-.016.164-.035.244-.058a6.064,6.064,0,0,0,.964-.357v.456a11.4,11.4,0,0,0,6.328,10.191,3.053,3.053,0,0,0,.042.321c.013.112.023.174.032.26l-.129-.125s-.871-.431-1.69.813A5.475,5.475,0,0,1,817,247.961s-8.78,1.388-9.117,2.539l-4.1.238s-1.449.193-1.607,3.214-.916,3.307-.916,3.307-1.687,2.97-1.543,4.5a2.519,2.519,0,0,1-1.286,2.3l-.193,2.728a1.851,1.851,0,0,0-2.028,1.629,6.377,6.377,0,0,1-1.205,2.732s-2.655,2.2-2.8,4.072l-1.639,1.006s-3.812-.861-4.679-2.394l-.267-.251a.241.241,0,0,1-.023-.039.088.088,0,0,0,0,.019A12.043,12.043,0,0,0,784,272.154a1.17,1.17,0,0,1,.077.771l-.283-.321-.758-.842s-6.161-5.785-9.779-6.228h0c-.048-.093-.28-1-.9-.434a5.029,5.029,0,0,0-.035,7.392l5.769,5.389.148.109,1.241,1.607c-.209.5-.386.987-.53,1.43a.061.061,0,0,1-.016.042c-.029.1-.061.186-.09.276l-.029.1c-.026.09-.055.18-.08.264s-.029.106-.045.157,0,.061-.026.09c-.135.482-.225.852-.27,1.057l-.321-.1.321.135v.051l-.019.1.3.129c1.69.736,10.127,4.435,10.56,5a6.11,6.11,0,0,0,6.559.909,6.985,6.985,0,0,0,3.535-3.882,40.268,40.268,0,0,0,2.892-4.454c.1-.575,2.269-1.247,2.269-1.247s.193,6.428-.916,8.767-3.185,12.746-3.185,12.746a1.529,1.529,0,0,1,.411-.026c-.077.376-.122.6-.122.6a1.433,1.433,0,0,1,.511,0c-.154,1.183-1.041,6.672-1.041,6.672a13.7,13.7,0,0,1-.771,3.352c-.482.861-.53,5.367-.53,5.367l-.771,3.256a6.287,6.287,0,0,0,.292.562h0a8.355,8.355,0,0,0,2.221,2.87,5.885,5.885,0,0,1-.389,1.491,5.164,5.164,0,0,0-.386,2.3,29.462,29.462,0,0,0-.723,4.743,17.494,17.494,0,0,1-.53,3.641l-.9,8.311s-.578,7.234-.289,9.2a17.523,17.523,0,0,1-.2,4.644s.579,5.7.434,6.325-.868,3.3-.434,4.792a26,26,0,0,1,.2,5.557s.289,5.364.623,7.09a12.306,12.306,0,0,1-.1,3.93,28.95,28.95,0,0,1-.482,3.686c-.161,0-1.4,2.539,1.157,5.033s.964,2.1.964,2.1-2.025-1.006-1.787,1.054c.231,1.96.549,1.449.578,1.395l-.482,1.575.321.048-.28.321a7.488,7.488,0,0,1-.964,1.009,2.109,2.109,0,0,0-.643,1.388,37.6,37.6,0,0,1-6.9,5.846,20.67,20.67,0,0,0-3.921,2.632c-.595.643-.5,1.176.736,1.584a18.913,18.913,0,0,0,10.467.193,12.232,12.232,0,0,0,5.113-3.307,7.344,7.344,0,0,1,4.1-.672c2.028.382,6.077-2.25,6.077-2.25l-.074-.681-.215-1.957a1.539,1.539,0,0,1-.337-1.2,6.208,6.208,0,0,0-.17-1.723c-.032-.19-.071-.379-.106-.556l.37-.067s-.479-2.446.389-2.925.623-6.749.623-6.749a7.6,7.6,0,0,0-1.687-1.674c-.582-.238-.048-3.214.051-3.6s.868-7.809.868-7.809a10.044,10.044,0,0,1,.1-3.352c.386-1.006-.463-4.862-.463-4.862a.889.889,0,0,1,.244-1.054c.533-.575.321-5.7.321-5.7s-.045-2.587-.045-3.259a11.82,11.82,0,0,1,1.109-3.927c.53-.813.193-3.355.193-3.355h0l.029-.19a1.913,1.913,0,0,1,.045-.273l.042-.254a36.2,36.2,0,0,1,.954-4.181c.643-2.012,1.35-5.557,1.35-5.557l4.5-11.7.051-.138a18.385,18.385,0,0,1,2.073,7.392,42.437,42.437,0,0,1,.386,5.415,64.052,64.052,0,0,0,.427,6.534s.627,7.761.627,8.1.771,6.325,1.257,7.234-.485,3.689-.774,3.975.1,7.331.1,7.331-.723,5.557-.868,6.707-.723,5.56-.241,7.282.289,1.964.289,1.964,1.739,1.774.723,1.928a2.651,2.651,0,0,0-1.928,3.493,44.746,44.746,0,0,0,2.124,5.142s.3-.068.8-.167v.569l.058,2.854a18.17,18.17,0,0,1,.145,3.355c-.141.456-.321,2.6-.427,3.725-.035.408-.055.681-.055.681s0,2.539,5.354,1.774,6.318-2.873,6.318-2.873a1.279,1.279,0,0,1,.039-.264c.08-.485.254-1.514.4-2.086.193-.768-1.543-4.216-1.543-4.216a8.744,8.744,0,0,0-.775-2.873,2.546,2.546,0,0,1-.386-1.006c-.045-.193-.083-.4-.116-.591a3.531,3.531,0,0,1,.357.064s-.289-1.678.823-2.2a1.582,1.582,0,0,0,.675-2.108,16.114,16.114,0,0,1,.434-3.162,1.559,1.559,0,0,1,.386-1.53c.678-.675,1.205-5.367,1.205-5.367l.1-18.109a17.34,17.34,0,0,0-.045-4.5c-.386-1.285-.774-3.783-.244-4.454s.048-3.783.048-3.783,0-6.566.726-8.192.482-11.929.482-11.929l.19-6.749s1.578-1.491,1.205-9.265c1.681-.106,3.577-.167,3.857.064.53.434,3.956,2.635,5.981,1.247a27.03,27.03,0,0,0,2.41-1.867l-.848-14.366c.53.8.852,1.334.852,1.334,0-2.012,5.692-8.529,5.692-8.529s5.306-6.849,6.463-7.665,3.426-5.126,3.426-5.126a20.769,20.769,0,0,1,1.16-2.394C869.97,282.647,868.232,280.346,868.424,279.819Zm-12.45,5.026c-1.446.145-4.5,3.452-4.535,4.178a2.916,2.916,0,0,1-.643,1.285c-.022-.289-.048-.585-.071-.884-.341-4.233-.71-9.391-.543-9.892a28.661,28.661,0,0,0,.193-4.74h0l.051-.074c.964,3,3.995,6.55,3.995,6.55s.53,1.533,1.157,1.581S855.974,284.845,855.974,284.845Z" transform="translate(-549.547 -158.292)" fill="url(#linear-gradient)"/>
      <path id="Path_10981" data-name="Path 10981" d="M795.34,405.032s1.758-9.224,7.417-9.272l4.136,8.51-2.757,1.9S798.146,406.362,795.34,405.032Z" transform="translate(-566.255 -279.567)" fill="#65617d"/>
      <path id="Path_10982" data-name="Path 10982" d="M806.893,404.29l-2.757,1.9a32.5,32.5,0,0,1-7.231-.607,8.649,8.649,0,0,1-1.565-.534.527.527,0,0,1,.032-.148v-.035a20.809,20.809,0,0,1,1.07-3.387c.177-.415.373-.842.585-1.269a8.59,8.59,0,0,1,3.587-3.93,4.874,4.874,0,0,1,1.886-.492h.251l.09.19,1.4,2.873Z" transform="translate(-566.255 -279.588)" opacity="0.1"/>
      <path id="Path_10983" data-name="Path 10983" d="M968.323,485.758s5.945-.569,6.466-.141,3.9,2.613,5.9,1.234.665-6.18.665-6.37-.19-6.99-.19-6.99l-3.567-4.8-4.467-8.414L964,459.37l.238,13.363-.048,6.845Z" transform="translate(-680.712 -322.735)" fill="#65617d"/>
      <path id="Path_10984" data-name="Path 10984" d="M968.323,485.758s5.945-.569,6.466-.141,3.9,2.613,5.9,1.234.665-6.18.665-6.37-.19-6.99-.19-6.99l-3.567-4.8-4.467-8.414L964,459.37l.238,13.363-.048,6.845Z" transform="translate(-680.712 -322.735)" opacity="0.1"/>
      <path id="Path_10985" data-name="Path 10985" d="M786.109,376.525s-.476,5.8-4.088,5.894c0,0-1.025-.617-2.4-1.645-3.175-2.375-8.211-6.942-6.82-11.19,2-6.084,11.695,5.142,11.695,5.142l.742.836Z" transform="translate(-550.796 -260.577)" fill="#fbbebe"/>
      <path id="Path_10986" data-name="Path 10986" d="M800.367,392.964s-.476,5.8-4.088,5.894c0,0-1.025-.617-2.4-1.645l-.305-.4a4.752,4.752,0,0,0,1.98.534,2.677,2.677,0,0,0,2.571-1.629,20.425,20.425,0,0,0,1-2.3,6.71,6.71,0,0,0,.373-1.42Z" transform="translate(-565.054 -277.016)" opacity="0.1"/>
      <path id="Path_10987" data-name="Path 10987" d="M799.4,402.427l-.813-1.048-2.738-3.535-1.395-1.8a4.7,4.7,0,0,0,1.98.533A2.648,2.648,0,0,0,799,394.949a20.76,20.76,0,0,0,1-2.3c.45-1.285.443-1.928.283-2.163a13.418,13.418,0,0,1,1.571,1.395l.019.019.264.247.1.193,1.379,2.754v.116C803.747,396.089,804.213,401.64,799.4,402.427Z" transform="translate(-565.651 -275.963)" fill="#e7effd"/>
      <path id="Path_10988" data-name="Path 10988" d="M842.576,792.515s-3.995,2.616-5.99,2.25a7.316,7.316,0,0,0-4.043.668,12.045,12.045,0,0,1-5.042,3.281,18.435,18.435,0,0,1-10.313-.193c-1.215-.4-1.314-.926-.729-1.572a20.322,20.322,0,0,1,3.856-2.613,37.29,37.29,0,0,0,6.8-5.785,2.034,2.034,0,0,1,.62-1.375,7.406,7.406,0,0,0,.964-1c.511-.6.99-1.234.99-1.234l11.75.341s.2.845.357,1.71a6.193,6.193,0,0,1,.164,1.713,1.549,1.549,0,0,0,.321,1.186l.212,1.928Z" transform="translate(-580.351 -543.674)" fill="#65617d"/>
      <path id="Path_10989" data-name="Path 10989" d="M949.743,797.635c-.141.569-.321,1.588-.389,2.066l-.042.263s-.964,2.092-6.225,2.854-5.277-1.761-5.277-1.761.019-.27.051-.678a36.912,36.912,0,0,1,.424-3.7,17.1,17.1,0,0,0-.145-3.329l-.055-2.831-.042-1.967,8.751-.906a15.871,15.871,0,0,0,.283,1.948,2.492,2.492,0,0,0,.382,1,8.773,8.773,0,0,1,.758,2.854S949.932,796.873,949.743,797.635Z" transform="translate(-662.938 -545.513)" fill="#65617d"/>
      <path id="Path_10990" data-name="Path 10990" d="M867.9,785.193s.2.845.357,1.71c-1.27.235-6.816,1.2-8.2.524a21.726,21.726,0,0,0-4.946-1.189l.055-.193c.511-.6.99-1.234.99-1.234Z" transform="translate(-606.816 -543.586)" opacity="0.1"/>
      <path id="Path_10991" data-name="Path 10991" d="M947.56,789.6c-2.218-.376-7.07.534-9,.926l-.042-1.967,8.751-.906A15.9,15.9,0,0,0,947.56,789.6Z" transform="translate(-663.42 -545.513)" opacity="0.1"/>
      <path id="Path_10992" data-name="Path 10992" d="M894.071,508.6l-.19,6.7s.238,10.223-.476,11.839-.713,8.131-.713,8.131.476,3.088-.048,3.754-.141,3.137.238,4.422a17.458,17.458,0,0,1,.048,4.47l-.1,17.971s-.521,4.657-1.189,5.325a1.558,1.558,0,0,0-.379,1.52,16.2,16.2,0,0,0-.427,3.14,1.575,1.575,0,0,1-.665,2.089c-1.093.521-.81,2.189-.81,2.189-2.613-.62-10.03,1.048-10.03,1.048a44.618,44.618,0,0,1-2.092-5.091,2.632,2.632,0,0,1,1.9-3.468c1-.145-.713-1.9-.713-1.9s.19-.238-.286-1.948.093-6.106.238-7.231.855-6.656.855-6.656-.379-6.987-.093-7.273,1.234-3.043.762-3.946-1.24-6.845-1.24-7.18-.614-8.034-.614-8.034a63.808,63.808,0,0,1-.427-6.514,41.875,41.875,0,0,0-.382-5.37,18.218,18.218,0,0,0-2.044-7.324l-.051.138-4.406,11.608s-.713,3.516-1.331,5.512a36.053,36.053,0,0,0-.929,4.13l-.042.254a1.607,1.607,0,0,1-.042.267l-.029.193h0s.321,2.52-.193,3.33a12.033,12.033,0,0,0-1.093,3.9c0,.665.048,3.233.048,3.233s.19,5.087-.321,5.659a.912.912,0,0,0-.241,1.044s.855,3.857.476,4.85a10.042,10.042,0,0,0-.093,3.326s-.762,7.372-.855,7.752-.62,3.329-.048,3.567a7.574,7.574,0,0,1,1.661,1.661s.241,6.231-.617,6.7-.382,2.892-.382,2.892-6.89,1.331-8.459.569a21.692,21.692,0,0,0-4.946-1.189l.472-1.562c-.029.055-.344.562-.569-1.385-.235-2.044,1.761-1.048,1.761-1.048s1.568.382-.964-2.089-1.286-4.994-1.141-4.994a31.644,31.644,0,0,0,.479-3.657,12.172,12.172,0,0,0,.093-3.9c-.334-1.713-.617-7.038-.617-7.038a25.9,25.9,0,0,0-.19-5.512c-.427-1.472.283-4.139.427-4.756s-.443-6.26-.443-6.26a17.552,17.552,0,0,0,.19-4.609c-.286-1.948.286-9.13.286-9.13l.855-8.272a17.626,17.626,0,0,0,.524-3.616,29.54,29.54,0,0,1,.717-4.7,5.141,5.141,0,0,1,.379-2.282,17.607,17.607,0,0,0,.665-4.088L860.8,489.3l2.25-9.224,30.187-.286s.112.8.3,2.25.44,3.6.726,6.26c.264,2.414.553,5.251.832,8.41C896,506.8,894.071,508.6,894.071,508.6Z" transform="translate(-604.997 -336.592)" fill="#3f3d56"/>
      <path id="Path_10993" data-name="Path 10993" d="M939.379,293.99l-7.038,7.514s-9.031-3.615-8.079-4.85c.366-.479.321-1.989.1-3.654-.321-2.635-1.048-5.666-1.048-5.666s15.783-2.571,14.462.093a4.364,4.364,0,0,0-.1,3.159A11.892,11.892,0,0,0,939.379,293.99Z" transform="translate(-653.098 -205.23)" fill="#fbbebe"/>
      <path id="Path_10994" data-name="Path 10994" d="M937.762,287.443c-.485.964-.717,1.067-.415,2.118-2.063,2.208-4.689,4.631-7.954,4.631a11.267,11.267,0,0,1-5.036-1.179c-.321-2.635-1.048-5.666-1.048-5.666S939.093,284.775,937.762,287.443Z" transform="translate(-653.098 -205.239)" opacity="0.1"/>
      <path id="Path_10995" data-name="Path 10995" d="M929.661,250.825a11.318,11.318,0,1,1-22.636,0c0-.055,0-.109,0-.161a11.316,11.316,0,0,1,22.631.161Z" transform="translate(-642.047 -173.477)" fill="#fbbebe"/>
      <path id="Path_10996" data-name="Path 10996" d="M915.351,493.947c-1.5,0-6.489.055-12.068.141h-.068l-1.841.032h-.058c-6.614.106-13.135-1.186-15.747-.942-5.56.521,2-5.142,2-5.142a46.525,46.525,0,0,0,12.672,1.286l1.607-.084c5.052-.286,10.133-.762,12.788-1.559C914.811,489.152,915.065,491.289,915.351,493.947Z" transform="translate(-626.101 -341.946)" opacity="0.1"/>
      <path id="Path_10997" data-name="Path 10997" d="M915.351,493.064c-1.5,0-6.489.055-12.068.141h-.068l-1.841.032h-.058c-6.614.106-13.135-1.186-15.747-.942-5.56.524,2-5.142,2-5.142a46.527,46.527,0,0,0,12.672,1.285l1.607-.084c5.052-.286,10.133-.762,12.788-1.555C914.811,488.272,915.065,490.4,915.351,493.064Z" transform="translate(-626.101 -341.349)" fill="#5f5d7e"/>
      <path id="Path_10998" data-name="Path 10998" d="M900.057,316.55l-8.748,4.091-6.749,52.2s3.991-1.806,6.276-.665,9.32.1,9.32.1,5.142-.286,5.9.286,9.693-2.391,9.693-2.391,1.607-3.612.379-4.178.392-6.174.392-6.174l-.771-37.656-1.523-4.85-4.088-2.471-4.178,3.326-2,.286Z" transform="translate(-626.802 -224.653)" opacity="0.1"/>
      <path id="Path_10999" data-name="Path 10999" d="M900.057,314.773l-8.748,4.088-6.749,52.2s3.991-1.806,6.276-.665,9.32.093,9.32.093,5.142-.283,5.9.286,9.7-2.378,9.7-2.378,1.607-3.612.379-4.178.386-6.19.386-6.19l-.771-37.652-1.523-4.846-4.088-2.475-4.178,3.329-2,.286Z" transform="translate(-626.802 -223.445)" fill="#e7effd"/>
      <path id="Path_11000" data-name="Path 11000" d="M917.964,324.281s2.52,3,2.475,3.615-.145,2.092-.145,2.092l-1.9,3.857s-1.044,4.8-1.044,5.8-1.665,9.641-1.665,9.641l-2,13.315-2.52,17.451,2.571,4.419,3.04-2.571,4.043-31.1.855-6.132s.9-11.03.9-12.17a39,39,0,0,0-.521-4.136,4.9,4.9,0,0,1,3.185-3.535c2.568-.681-.19-.145-.19-.145l-1.475-1.186-1.286.521S918.725,322.95,917.964,324.281Z" transform="translate(-644.853 -230.53)" opacity="0.1"/>
      <path id="Path_11001" data-name="Path 11001" d="M917.087,323.442s2.523,3,2.474,3.612-.145,2.092-.145,2.092l-1.9,3.857s-1.048,4.8-1.048,5.8-1.665,9.641-1.665,9.641l-2,13.311-2.52,17.451,2.571,4.422,3.043-2.571,4.04-31.093.858-6.129s.9-11.03.9-12.171a39,39,0,0,0-.521-4.136s.617-2.854,3.185-3.519-.19-.141-.19-.141L922.7,322.68l-1.286.524S917.849,322.108,917.087,323.442Z" transform="translate(-644.263 -229.973)" fill="#6c63ff"/>
      <path id="Path_11002" data-name="Path 11002" d="M922.253,309.51s-.382.286-.476,2.189a37.882,37.882,0,0,1-1.427,6.18s4.946-3.423,7.417-3.043Z" transform="translate(-651.09 -221.036)" opacity="0.1"/>
      <path id="Path_11003" data-name="Path 11003" d="M922.253,307.74s-.382.283-.476,2.185a37.882,37.882,0,0,1-1.427,6.18s4.946-3.423,7.417-3.04Z" transform="translate(-651.09 -219.835)" fill="#e7effd"/>
      <path id="Path_11004" data-name="Path 11004" d="M951.8,304.78l-7.8,6.845s6.562,3.9,7.417,4.85,1.71-9.32,1.71-9.32Z" transform="translate(-667.139 -217.826)" opacity="0.1"/>
      <path id="Path_11005" data-name="Path 11005" d="M952.707,303l-7.8,6.849s6.559,3.9,7.421,4.85,1.71-9.32,1.71-9.32Z" transform="translate(-667.757 -216.618)" fill="#e7effd"/>
      <path id="Path_11006" data-name="Path 11006" d="M879.3,309.359s-.855-.427-1.661.81a5.4,5.4,0,0,1-2.33,1.806s-8.655,1.379-9,2.52l-4.043.238s-1.427.19-1.568,3.185-.9,3.281-.9,3.281-1.665,2.947-1.52,4.467a2.5,2.5,0,0,1-1.285,2.285l5.942,15.452s.193,6.37-.9,8.7-3.137,12.646-3.137,12.646.855-.19.807.379-1.016,6.8-1.016,6.8a13.726,13.726,0,0,1-.762,3.329c-.476.858-.524,5.322-.524,5.322l-.758,3.233s1.806,4.043,4.563,3.471,7.748-11.361,7.748-11.361l3.188-11.65,2.471-11.505.714-7.8,1.141-17.258L878.13,316.3S879.969,310.16,879.3,309.359Z" transform="translate(-607.854 -220.885)" opacity="0.1"/>
      <path id="Path_11007" data-name="Path 11007" d="M878.352,307.589s-.858-.427-1.665.807a5.371,5.371,0,0,1-2.33,1.806s-8.651,1.379-9,2.52l-4.043.238s-1.424.193-1.568,3.188-.9,3.278-.9,3.278-1.665,2.95-1.52,4.47a2.492,2.492,0,0,1-1.286,2.282l5.945,15.452s.19,6.37-.9,8.7-3.14,12.649-3.14,12.649.855-.193.81.379-1.048,6.8-1.048,6.8a13.689,13.689,0,0,1-.762,3.329c-.476.855-.521,5.325-.521,5.325l-.762,3.233s1.806,4.04,4.563,3.471,7.758-11.364,7.758-11.364l3.185-11.647L873.638,351l.714-7.8,1.141-17.258,1.665-11.409S879.018,308.4,878.352,307.589Z" transform="translate(-607.189 -219.684)" fill="#002d6f"/>
      <path id="Path_11008" data-name="Path 11008" d="M806.283,403.666l-2.757,1.9a32.5,32.5,0,0,1-7.231-.607l-1.533-.681-.321-.135.321.1a6.273,6.273,0,0,0,3.808.135c3.9-1.314,3.471-7.758,3.32-9.214a1.223,1.223,0,0,0-.032-.276.085.085,0,0,1,0-.019l.022.039a2.137,2.137,0,0,0,.18.251c.055.061.113.125.174.186h0l1.379,2.754v.116Z" transform="translate(-565.644 -278.963)" opacity="0.1"/>
      <path id="Path_11009" data-name="Path 11009" d="M816.442,364.4l-1.334.379-.19,2.709a1.823,1.823,0,0,0-2,1.607,6.616,6.616,0,0,1-1.189,2.712s-2.616,2.185-2.757,4.04l-1.607,1s-3.757-.858-4.612-2.378c0,0,1.713,12.267-7.417,9.272,0,0,10.223,4.467,10.7,5.087a5.987,5.987,0,0,0,6.466.9,6.86,6.86,0,0,0,3.471-3.857,40.274,40.274,0,0,0,2.851-4.422c.093-.566,2.25-1.237,2.25-1.237l4.088-9.889Z" transform="translate(-566.255 -258.286)" fill="#002d6f"/>
      <path id="Path_11010" data-name="Path 11010" d="M962.858,309.276,964.236,303a7.371,7.371,0,0,0,1.237,2.52l2.044,1.572a11.894,11.894,0,0,0,2.757.948c.713,0,4.564,1,5.039,1.523s2.378.141,2.378.141,1.568.524,2.947.855,2.044,2.616,1.758,3.535a2.741,2.741,0,0,0,.665,2.571,6.118,6.118,0,0,1,.858,2.426,2.783,2.783,0,0,1,1.607,1.379,9.467,9.467,0,0,1,.321,3.326l-7.07,9.985a29.289,29.289,0,0,1-.19,4.708c-.283.852,1,15.4,1,15.4L981.06,378.9a26.442,26.442,0,0,1-2.378,1.854c-.427.19-.855-8.841-.855-9.175s-10.981-16.451-10.981-16.451a14.824,14.824,0,0,1-1.475-2.892c0-.517-1.379-5.325-1.379-5.325l-2.092-9.272Z" transform="translate(-679.286 -216.618)" opacity="0.1"/>
      <path id="Path_11011" data-name="Path 11011" d="M987.746,323.247v.546l-7.07,9.963h0a29.177,29.177,0,0,1-.186,4.7,97.9,97.9,0,0,0,.534,9.818c.238,3.031.463,5.586.463,5.586l.627,10.605.845,14.4a26.317,26.317,0,0,1-2.375,1.854c-.427.19-.855-8.841-.855-9.175S968.743,355.1,968.743,355.1a15.013,15.013,0,0,1-1.475-2.892c0-.511-1.379-5.325-1.379-5.325l-2.089-9.272.948-28.336.778-6.273a13.744,13.744,0,0,0,1.806,2.52l2.044,1.568a11.763,11.763,0,0,0,2.757.964c.713,0,4.567,1,5.042,1.52s2.375.141,2.375.141,1.568.524,2.947.855,2.047,2.616,1.761,3.535a2.735,2.735,0,0,0,.665,2.571,6.125,6.125,0,0,1,.855,2.423,2.8,2.8,0,0,1,1.607,1.382A7.3,7.3,0,0,1,987.746,323.247Z" transform="translate(-680.576 -216.618)" fill="#002d6f"/>
      <path id="Path_11012" data-name="Path 11012" d="M857.48,760.14c.235,0,10.22.379,10.03,2S857.48,760.14,857.48,760.14Z" transform="translate(-608.424 -526.844)" opacity="0.1"/>
      <path id="Path_11013" data-name="Path 11013" d="M864.43,768.57s6.7,1.093,4.943,2.092S864.43,768.57,864.43,768.57Z" transform="translate(-613.141 -532.565)" opacity="0.1"/>
      <path id="Path_11014" data-name="Path 11014" d="M942,756.88s11.126.964,9.461,2.189-5.611,1.424-5.785,1.472S942,756.88,942,756.88Z" transform="translate(-665.782 -524.632)" opacity="0.1"/>
      <path id="Path_11015" data-name="Path 11015" d="M937.81,772.12s6.18,1.044,6.37,2.25S937.81,772.12,937.81,772.12Z" transform="translate(-662.938 -534.974)" opacity="0.1"/>
      <path id="Path_11016" data-name="Path 11016" d="M948.46,683.06s5.656,1.331,5.99,2.25Z" transform="translate(-670.166 -474.536)" opacity="0.1"/>
      <path id="Path_11017" data-name="Path 11017" d="M877.725,695.78s-2.947.855-.093,2.571S877.725,695.78,877.725,695.78Z" transform="translate(-621.255 -483.168)" opacity="0.1"/>
      <path id="Path_11018" data-name="Path 11018" d="M921.24,551.177c.321,0,5.515-1.71,7.321-.964a12.046,12.046,0,0,0,4.04.768Z" transform="translate(-651.694 -384.255)" opacity="0.1"/>
      <path id="Path_11019" data-name="Path 11019" d="M909.1,564.953l-.051.472-4.419,11.608s-.713,3.516-1.331,5.512a36.043,36.043,0,0,0-.929,4.13l3.924-24.335Z" transform="translate(-638.888 -392.613)" opacity="0.1"/>
      <path id="Path_11020" data-name="Path 11020" d="M938.5,496.5l-1.841.032H936.6l-1.08-4.792,1.607-.087Z" transform="translate(-661.384 -344.641)" fill="#3f3d56"/>
      <path id="Path_11021" data-name="Path 11021" d="M974.167,479.013l-1.186.964-3.95,3.256s-10.7,5.708-13.646.286c-2.6-4.776,9.532-8.185,12.453-8.928.4-.1.62-.151.62-.151Z" transform="translate(-674.62 -332.961)" fill="#fbbebe"/>
      <path id="Path_11022" data-name="Path 11022" d="M872.42,343.24s2.092.964,2.571,2.282S872.42,343.24,872.42,343.24Z" transform="translate(-618.563 -243.926)" opacity="0.1"/>
      <path id="Path_11023" data-name="Path 11023" d="M847.861,387.62s-3.043,3.709-1.806,5.142S847.861,387.62,847.861,387.62Z" transform="translate(-600.471 -274.043)" opacity="0.1"/>
      <path id="Path_11024" data-name="Path 11024" d="M1015.317,349.75s-2.854.286-2.947,2.757Z" transform="translate(-713.537 -248.344)" opacity="0.1"/>
      <path id="Path_11025" data-name="Path 11025" d="M939.29,451.674c.283-.286,6.845-9.985,8.356-9.127Z" transform="translate(-663.943 -311.281)" opacity="0.1"/>
      <path id="Path_11026" data-name="Path 11026" d="M929.664,250.825a11.248,11.248,0,0,1-1.34,5.341l-.083-.016c-.717-.151-1.09-.987-1.639-1.507a2.227,2.227,0,0,0-2.571-.36,2.613,2.613,0,0,0-1.26,2.439c-.363-1.523-.247-3.14-.6-4.666s-1.417-3.069-2.876-3.095c-.643,0-1.359.228-1.816-.241-.273-.283-.321-.73-.533-1.077-1.041-1.684-4.213-.832-5.508.032a33.718,33.718,0,0,1-4.406,2.989,11.316,11.316,0,1,1,22.631.161Z" transform="translate(-642.05 -173.477)" opacity="0.1"/>
      <path id="Path_11027" data-name="Path 11027" d="M910.915,234.473c.206.344.26.791.533,1.073.453.472,1.189.228,1.816.241,1.459.026,2.523,1.568,2.876,3.095s.238,3.143.6,4.666A2.606,2.606,0,0,1,918,241.11a2.227,2.227,0,0,1,2.571.36c.55.521.922,1.356,1.639,1.507s1.408-.537,1.668-1.285a20.387,20.387,0,0,0,.411-2.369c.321-1.482,1.286-2.7,1.825-4.11a7.446,7.446,0,0,0-.048-5.309c-.357-.893-.887-1.7-1.25-2.587-.546-1.356-.688-2.892-1.356-4.178a4.924,4.924,0,0,0-5.923-2.43c-1.032.386-1.928,1.138-2.979,1.475a9.812,9.812,0,0,1-4.361-.09,5.4,5.4,0,0,0-4.233.733c-1.347,1.1-1.713,3.172-2.979,4.38-.53.508-1.189.832-1.748,1.285a2.315,2.315,0,0,0-.964,1.928c.084.983,1.048,1.877.691,2.79a2.25,2.25,0,0,1-.527.7,9.94,9.94,0,0,0-2.3,3.914c2.542.8,5.3-2.009,7.289-3.336C906.7,233.641,909.873,232.786,910.915,234.473Z" transform="translate(-636.017 -160.59)" fill="#7c5c5c"/>
      <path id="Path_11028" data-name="Path 11028" d="M1000.834,479.013l-1.186.964c-1.044-1.735-5.328-5.206-5.328-5.206l.186-.18c.4-.1.62-.151.62-.151Z" transform="translate(-701.287 -332.961)" opacity="0.1"/>
      <path id="Path_11029" data-name="Path 11029" d="M1002.579,474.056s-.427,1.06-.865,1.973-.919,1.748-.942,1.07c-.048-1.331-5.563-5.8-5.563-5.8l.749-.726.865-.842Z" transform="translate(-701.891 -329.765)" fill="#e7effd"/>
      <path id="Path_11030" data-name="Path 11030" d="M1002.864,449.5l.627,10.605c-1.478-2.3-5.534-8.185-8.14-8l6.315-7.266a8.608,8.608,0,0,0,.726-.929C1002.629,446.941,1002.864,449.5,1002.864,449.5Z" transform="translate(-701.986 -312.243)" opacity="0.1"/>
      <path id="Path_11031" data-name="Path 11031" d="M1004.16,474.042s-.427,1.06-.865,1.973c-1.658-2.272-3.937-4.956-5.756-5.463l.865-.842Z" transform="translate(-703.473 -329.752)" opacity="0.1"/>
      <path id="Path_11032" data-name="Path 11032" d="M1008.011,363.51l1.713,1.331s2.851.048,3.137,2.426,2.892,3.471,2.892,3.471,1.948,1.948,1.948,2.851,1.475,2.52,1.475,2.664,1.427,3.043,1.234,3.564,1.523,2.806,1,3.66a21.114,21.114,0,0,0-1.141,2.378s-2.233,4.281-3.374,5.087-6.373,7.607-6.373,7.607-5.608,6.466-5.608,8.462c0,0-5.463-9.127-8.7-8.889l6.325-7.276s1.093-1.186,1.141-1.9,3.043-3.995,4.47-4.136c0,0,.234-1.951-.382-2s-1.141-1.568-1.141-1.568-4.178-4.943-4.233-8.083S1008.011,363.51,1008.011,363.51Z" transform="translate(-702.57 -257.682)" fill="#002d6f"/>
      <path id="Path_11033" data-name="Path 11033" d="M1033.893,377.56s-3.991,2.95-3.137,3.9S1033.893,377.56,1033.893,377.56Z" transform="translate(-725.933 -267.216)" opacity="0.1"/>
      <path id="Path_11034" data-name="Path 11034" d="M1041.36,413.208s7.417-2.378,8.179,0Z" transform="translate(-733.21 -290.691)" opacity="0.1"/>
      <path id="Path_11035" data-name="Path 11035" d="M842.576,807.126s-3.995,2.616-5.99,2.25a7.316,7.316,0,0,0-4.043.668,12.045,12.045,0,0,1-5.042,3.281,18.435,18.435,0,0,1-10.313-.193c-1.215-.4-1.314-.926-.729-1.572,2.793.556,9.031,1.665,10.711.858a44.694,44.694,0,0,0,5.325-3.329s4.091-.569,4.66-.569a51.78,51.78,0,0,0,5.348-2.05Z" transform="translate(-580.351 -558.285)" opacity="0.1"/>
      <path id="Path_11036" data-name="Path 11036" d="M949.354,825.15l-.042.263s-.964,2.092-6.225,2.854-5.277-1.761-5.277-1.761.019-.27.051-.678C939.532,826.461,943.177,827.168,949.354,825.15Z" transform="translate(-662.938 -570.962)" opacity="0.1"/>
      <path id="Path_11037" data-name="Path 11037" d="M876.05,375.79s0,10.84-.929,11.91S876.05,375.79,876.05,375.79Z" transform="translate(-620.22 -266.015)" opacity="0.1"/>
      <path id="Path_11038" data-name="Path 11038" d="M1011.92,386.66l1.379,3.876S1013.848,386.731,1011.92,386.66Z" transform="translate(-713.231 -273.392)" opacity="0.1"/>
      <g id="Group_6690" data-name="Group 6690" transform="translate(262.1 68.986)" opacity="0.1">
        <path id="Path_11039" data-name="Path 11039" d="M905.545,251.6c.347-.893-.566-1.768-.685-2.725a1.788,1.788,0,0,0-.151.861,17.168,17.168,0,0,0,.733,2.06A1.3,1.3,0,0,0,905.545,251.6Z" transform="translate(-902.573 -248.87)"/>
        <path id="Path_11040" data-name="Path 11040" d="M916.822,268.171c-.341-1.5-.241-3.085-.588-4.586s-1.417-3.069-2.873-3.095c-.643,0-1.363.231-1.816-.238-.276-.283-.321-.733-.537-1.077-1.041-1.687-4.21-.832-5.508.032-1.928,1.286-4.615,3.995-7.109,3.384-.119.286-.228.578-.321.877,2.542.8,5.3-2.009,7.289-3.336,1.285-.861,4.467-1.716,5.508-.029.206.344.26.791.534,1.073.453.472,1.189.228,1.816.241,1.459.026,2.523,1.568,2.876,3.095s.238,3.143.6,4.666A2.623,2.623,0,0,1,916.822,268.171Z" transform="translate(-898.07 -255.206)"/>
        <path id="Path_11041" data-name="Path 11041" d="M963.585,281.911c-.257.752-.935,1.446-1.668,1.285s-1.089-.987-1.636-1.51a2.25,2.25,0,0,0-2.571-.357,2.59,2.59,0,0,0-1.263,2.3,2.494,2.494,0,0,1,1.122-1.376,2.227,2.227,0,0,1,2.571.36c.55.521.922,1.356,1.639,1.507s1.408-.537,1.668-1.286a6.493,6.493,0,0,0,.26-1.366A3.549,3.549,0,0,1,963.585,281.911Z" transform="translate(-937.686 -270.727)"/>
        <path id="Path_11042" data-name="Path 11042" d="M981.474,261.3c-.534,1.411-1.5,2.626-1.825,4.11-.064.3-.1.6-.138.913.321-1.478,1.286-2.69,1.822-4.1a7.328,7.328,0,0,0,.44-1.97A7.2,7.2,0,0,1,981.474,261.3Z" transform="translate(-953.337 -256.6)"/>
      </g>
      <circle id="Ellipse_188" data-name="Ellipse 188" cx="0.116" cy="0.116" r="0.116" transform="translate(221.414 107.885)" fill="#e6e8ec"/>
      <ellipse id="Ellipse_189" data-name="Ellipse 189" cx="27.748" cy="2.831" rx="27.748" ry="2.831" transform="translate(234.835 251.784)" fill="#6c63ff" opacity="0.1"/>
      <path id="Path_11043" data-name="Path 11043" d="M404.613,244.739,320.57,299.263l54.846,98.919a3.827,3.827,0,0,0,2.442,1.864l49.694,12.122a3.831,3.831,0,0,0,4.351-2.06l24.65-51.211,27.015-36.113L419.461,246.94A11.361,11.361,0,0,0,404.613,244.739Z" transform="translate(-244.064 -175.843)" fill="#dcdfed"/>
      <path id="Path_11044" data-name="Path 11044" d="M486.222,324.1l-.238.321-15.825,21.156-.286.382-10.666,14.259-21.082,43.807-.591,1.224-2.976,6.18a3.831,3.831,0,0,1-4.358,2.06l-49.694-12.129a3.821,3.821,0,0,1-2.442-1.864l-4.779-8.6-.858-1.549-34.493-62.238-.3-.53-14.417-26,1.742-1.131,13.205-8.565.305-.2,27.809-18.042,1.755-1.138,39.224-25.45a11.357,11.357,0,0,1,14.854,2.2l29.245,34.612,1.285,1.543,21.227,25.112.116.138,10.673,12.624L486,323.876Z" transform="translate(-245.863 -176.735)" opacity="0.1"/>
      <path id="Path_11045" data-name="Path 11045" d="M500.723,365.934l-2.59,18-.781,5.431-.447,11.569-.035.9-2.324,60.451a3.834,3.834,0,0,1-4.663,3.59l-25.048-5.592-.27-.061-64.24-14.337-1.179-.263-35.316-7.887.81-54.351.026-1.816.244-16.451.27-18.158,27.809-18.042,1.755-1.138c25.794,2.645,60.1,7.732,83.336,11.361l1.285,1.543L500.575,365.8Z" transform="translate(-273.422 -233.434)" opacity="0.1"/>
      <path id="Path_11046" data-name="Path 11046" d="M502.979,343.577l-3.05,21.211-2.8,19.424-.781,5.418-.447,11.57-2.359,61.354a3.834,3.834,0,0,1-4.663,3.59l-25.318-5.653-64.24-14.337L362.83,438l.836-56.167.244-16.451.286-19.244.292-19.794c6.035-.286,15.966.36,27.821,1.552,26.546,2.664,62.733,8.054,86.392,11.766C493.19,341.938,502.979,343.577,502.979,343.577Z" transform="translate(-272.743 -232.417)" fill="#ad0000"/>
      <path id="Path_11047" data-name="Path 11047" d="M482.046,437.564l-13.585,6.662-69.33,34-63.893-52.805L322.322,414.73l-1.742,1.131,14.417,26-.836,56.167,36.5,8.15,4.769,8.6a3.821,3.821,0,0,0,2.442,1.864l49.694,12.122a3.831,3.831,0,0,0,4.348-2.06l2.976-6.18L460.2,526.18a3.834,3.834,0,0,0,4.663-3.59l2.359-61.354L483.338,439.7l.045-.543Z" transform="translate(-244.071 -292.441)" opacity="0.1"/>
      <path id="Path_11048" data-name="Path 11048" d="M308.456,418.25l-5.73,98.126a3.831,3.831,0,0,0,2.992,3.963L457.9,554.131a3.831,3.831,0,0,0,4.637-3.429l8.918-108.93L387.01,483.187Z" transform="translate(-231.951 -294.83)" fill="#dcdfed"/>
      <path id="Path_11049" data-name="Path 11049" d="M305.332,625.8l79.058-48.775a5.8,5.8,0,0,1,7.392,1.157l70.76,82.526c.257.3.382.084,0,0L305.332,625.8C304.883,625.7,304.94,626.033,305.332,625.8Z" transform="translate(-233.509 -402.006)" opacity="0.1"/>
      <path id="Path_11050" data-name="Path 11050" d="M306.894,628.648l78.242-47.265a6.135,6.135,0,0,1,7.8,1.228l70.121,80.643a.845.845,0,0,1-.82,1.379L307.148,630.194a.842.842,0,0,1-.254-1.546Z" transform="translate(-234.505 -404.936)" fill="#e3e5f1"/>
    </g>
  </g>
</svg>
