<svg xmlns="http://www.w3.org/2000/svg" xmlns:xlink="http://www.w3.org/1999/xlink" width="60" height="60" viewBox="0 0 60 60">
  <defs>
    <linearGradient id="linear-gradient" x1="0.5" y1="1" x2="0.5" gradientUnits="objectBoundingBox">
      <stop offset="0" stop-color="#002d6f"/>
      <stop offset="1" stop-color="#7998c6"/>
    </linearGradient>
  </defs>
  <g id="icon_loiich5" transform="translate(-1167 -2997)">
    <rect id="Rectangle_1861" data-name="Rectangle 1861" width="60" height="60" rx="29" transform="translate(1167 2997)" fill="url(#linear-gradient)"/>
    <g id="payment-method" transform="translate(1094.642 3007)">
      <g id="Group_2451" data-name="Group 2451" transform="translate(91.358)">
        <g id="Group_2447" data-name="Group 2447" transform="translate(0)">
          <path id="Path_6025" data-name="Path 6025" d="M115.453,22.258c-.449-.351-5.136-5.552-6.4-6.287V2.474A2.472,2.472,0,0,0,106.577,0H93.832a2.472,2.472,0,0,0-2.474,2.474V26.1a2.472,2.472,0,0,0,2.474,2.474h5.552l-.229-1.943c-.073-.065-.122-.106-.2-.171H96.51a2.51,2.51,0,0,0-3.046-3.054V5.013a2.8,2.8,0,0,0,.457.041,2.507,2.507,0,0,0,2.507-2.507,2.684,2.684,0,0,0-.041-.441H104a2.683,2.683,0,0,0-.041.441,2.5,2.5,0,0,0,2.507,2.507,2.8,2.8,0,0,0,.457-.041V22.968h0v5.16a9.373,9.373,0,0,1-1.829-2.629s-.474-5.3-3.16-5.3a1.846,1.846,0,0,0-.212.008s-2.033.171-.351,5.985l.751,6.458a14.668,14.668,0,0,0,3.16,5.928V39.3a.7.7,0,0,0,.7.7h7.553a.7.7,0,0,0,.694-.621c.269-2.515,1.315-11.864,1.927-13.284a2.68,2.68,0,0,0,.212-.7A3.228,3.228,0,0,0,115.453,22.258Z" transform="translate(-91.358)" fill="#fff"/>
        </g>
        <g id="Group_2448" data-name="Group 2448" transform="translate(7.618 5.054)">
          <circle id="Ellipse_155" data-name="Ellipse 155" cx="1.502" cy="1.502" r="1.502" fill="#fff"/>
        </g>
        <g id="Group_2450" data-name="Group 2450" transform="translate(3.421 9.03)">
          <g id="Group_2449" data-name="Group 2449">
            <path id="Path_6026" data-name="Path 6026" d="M133.258,116.03a5.437,5.437,0,0,0,4.238,5.3,3.836,3.836,0,0,1,.237-.392,3.14,3.14,0,0,1,2.254-1.413,3.99,3.99,0,0,1,.441-.025,4.178,4.178,0,0,1,1.968.49,5.427,5.427,0,1,0-9.137-3.96Zm2.172-.482c.327,0,.335,0,.384-.327a3.226,3.226,0,0,1,.212-.727.207.207,0,0,1,.278-.139c.2.057.4.114.6.18.188.057.212.122.131.3a2.245,2.245,0,0,0-.229,1.151.742.742,0,0,0,.065.3.436.436,0,0,0,.776.106,1.857,1.857,0,0,0,.278-.5c.131-.31.253-.621.408-.906a1.629,1.629,0,0,1,2.482-.523,1.763,1.763,0,0,1,.58.906.251.251,0,0,0,.286.22c.163-.008.318,0,.482,0a.192.192,0,0,1,.22.212q.012.257,0,.514c0,.155-.09.22-.237.22H141.8c-.261,0-.269.008-.31.261a3.309,3.309,0,0,1-.261.923c-.114.229-.171.253-.408.188-.18-.049-.359-.1-.531-.155-.2-.065-.229-.122-.131-.31a2.963,2.963,0,0,0,.31-1.021,1.18,1.18,0,0,0-.09-.67.519.519,0,0,0-.914-.122,1.381,1.381,0,0,0-.22.384,9.243,9.243,0,0,1-.465,1.045,1.464,1.464,0,0,1-1.413.833,1.562,1.562,0,0,1-1.445-1.135c-.1-.278-.1-.278-.392-.286h-.294c-.22-.008-.261-.041-.261-.261v-.2C134.964,115.556,134.964,115.556,135.43,115.548Z" transform="translate(-133.258 -110.6)" fill="#fff"/>
          </g>
        </g>
      </g>
    </g>
  </g>
</svg>
