<svg xmlns="http://www.w3.org/2000/svg" width="25.045" height="25.045" viewBox="0 0 25.045 25.045"><defs><style>.a{fill:#707070;}</style></defs><g transform="translate(-781 -5502)"><path class="a" d="M186.168,172.031a12.88,12.88,0,0,1,.137,1.751A12.522,12.522,0,0,1,173.782,186.3a12.88,12.88,0,0,1-1.751-.137,10,10,0,0,0,14.137-14.137Z" transform="translate(617.236 5338.236)"/><path class="a" d="M50.018,40A10.018,10.018,0,1,0,60.036,50.018,10.019,10.019,0,0,0,50.018,40Zm3.537,12.88a3.128,3.128,0,0,1-2.818,3.361v1.668H49.485V56.24c-.391-.054-3.023-.342-3.023-3.962h2.368c0,2.138,1.105,2.05,1.272,2.05.186,0,1.086-.034,1.086-1.428,0-2.793-4.329-1.556-4.329-5.738a3.177,3.177,0,0,1,2.8-3.37V42.006h1.262v1.82c.4.078,2.651.592,2.651,3.879H51.207c0-1.717-.734-1.986-1.037-1.986-.171,0-.949.044-.949,1.453C49.226,49.637,53.555,48.869,53.555,52.88Z" transform="translate(741 5462)"/></g></svg>