<svg xmlns="http://www.w3.org/2000/svg" width="24.375" height="25" viewBox="0 0 24.375 25"><defs><style>.a{fill:#707070;}</style></defs><path class="a" d="M38.375,16H14V41H38.375ZM21.063,33.187H16.688V30.063h4.375Zm1.563-6.25H16.688V23.813h5.938Zm10.788,5.133A3.9,3.9,0,0,1,29.9,36.264v1.611H28.335V36.27c-.488-.067-3.772-.427-3.772-4.95h2.954c0,2.673,1.379,2.557,1.587,2.557.232,0,1.355-.043,1.355-1.782,0-3.485-5.4-1.941-5.4-7.159a3.964,3.964,0,0,1,3.5-4.205V19.125h1.575v1.648c.5.1,3.308.739,3.308,4.84H30.483c0-2.142-.916-2.478-1.294-2.478-.214,0-1.184.055-1.184,1.813C28.011,28.024,33.413,27.066,33.413,32.071Z" transform="translate(-14 -16)"/></svg>