<svg xmlns="http://www.w3.org/2000/svg" width="130.863" height="28.417" viewBox="0 0 130.863 28.417">
  <g id="vivnpay" transform="translate(-1397.975 -1459.473)">
    <g id="Group_7102" data-name="Group 7102" transform="translate(1397.975 1459.473)">
      <path id="Path_12862" data-name="Path 12862" d="M-1923.678-1267.906c0-4.8-.015-9.189.008-13.578.009-1.456-1.161-2.322-1.739-3.632h7.843c0,.065.055.2.014.24-1.819,1.646-1.984,3.747-1.942,6.052.108,6.864.014,13.73.063,20.595.008,1.192-.107,1.6-1.5,1.329a12.212,12.212,0,0,1-7.573-4.492c-3.67-4.631-7.405-9.212-11.371-14.135v9.906c0,1.482.041,2.964-.01,4.44-.055,1.628,1.579,2.29,2.05,3.723h-7.845c0-.113-.077-.312-.011-.38,1.693-1.769,1.71-3.944,1.676-6.208q-.116-7.481.008-14.964a6.626,6.626,0,0,0-1.376-4.667,2.316,2.316,0,0,1-.73-1.558h7.963c.676,0,.892.547,1.219.951q6.137,7.607,12.26,15.227C-1924.445-1268.76-1924.179-1268.48-1923.678-1267.906Z" transform="translate(1975.228 1285.235)" fill="#e4081c"/>
      <path id="Path_12863" data-name="Path 12863" d="M-1772.857-1285.043c3.437,0,6.448.048,9.455-.028.958-.025,1.136.521,1.388,1.183,2.489,6.691,5,13.372,7.473,20.072a13.651,13.651,0,0,0,3.866,6.374h-12.715c3.132-2.667.448-5.256-.051-7.892-.085-.443-.526-.378-.862-.379-2.27,0-4.541.014-6.811-.015a.971.971,0,0,0-1.077.757c-.318.984-.671,1.956-1.009,2.932-.572,1.654-1.034,3.289,1.324,4.633h-8.576c3.747-6.286,5.15-13.5,7.826-20.209.364-.913.623-1.868.955-2.795A3.616,3.616,0,0,0-1772.857-1285.043Zm5.125,7.506-.309.024c-.391,1.157-.833,2.3-1.166,3.469a17.669,17.669,0,0,0-1.249,4.309l4.554.081a1.4,1.4,0,0,1,.147,0c.611.069.778-.139.555-.744-.852-2.37-1.687-4.756-2.531-7.138Z" transform="translate(1858.661 1285.12)" fill="#004d9d"/>
      <path id="Path_12864" data-name="Path 12864" d="M-1832.3-1257.433h-11.167c1.678-1.622,1.737-3.568,1.73-5.551-.019-5.778-.007-11.558-.008-17.337a5.466,5.466,0,0,0-1.926-4.767c1.356,0,2.359-.026,3.367,0,3.993.121,8.007-.344,11.98.277a7.1,7.1,0,0,1,6.188,5.915,7.441,7.441,0,0,1-4.095,8.393,11.1,11.1,0,0,1-7.093,1.08c3.31-2.714,4.244-5.29,3.173-8.709a3.787,3.787,0,0,0-2.985-2.767c-.694-.15-1.1-.06-1.095.833.035,5.977.01,11.954.042,17.93A6.627,6.627,0,0,0-1832.3-1257.433Z" transform="translate(1903.139 1285.167)" fill="#004d9d"/>
      <path id="Path_12865" data-name="Path 12865" d="M-2028.18-1264.715c2.121-5.7,4.1-11.111,6.156-16.49a3.347,3.347,0,0,0-.643-3.036c-.416-.767-.331-1.025.58-1,1.431.044,2.867.064,4.3,0,1.041-.05,1.284.2.909,1.235-1.978,5.465-3.893,10.952-5.837,16.427-1.153,3.249-2.349,6.482-3.458,9.746-.288.851-.676,1.023-1.5.8-3.989-1.063-6.98-3.137-8.5-7.23-2.584-6.962-5.393-13.841-8.187-20.977,2.8,0,5.533-.011,8.261,0,.844,0,.778.81.958,1.306,2.124,5.828,4.209,11.675,6.309,17.514C-2028.68-1265.96-2028.492-1265.514-2028.18-1264.715Z" transform="translate(2044.357 1285.247)" fill="#e4081c"/>
      <path id="Path_12866" data-name="Path 12866" d="M-1681.183-1284.9h9.274c-.026.608-.436.937-.7,1.327q-4.42,6.393-8.872,12.767a3.266,3.266,0,0,0-.641,2.052c.043,2.123.023,4.248.027,6.371a6.245,6.245,0,0,0,1.943,5.022H-1691.8c1.647-1.353,1.56-3.157,1.782-4.964a16.882,16.882,0,0,0-4.177-13.746,45.642,45.642,0,0,1-3.316-4.9,14.29,14.29,0,0,0-3.515-3.993c3.48,0,6.613.015,9.743-.011.723,0,.883.545,1.155.971,1.714,2.71,3.429,5.419,5.093,8.159.461.759.718.744,1.188.029,1.03-1.567,2.187-3.053,3.164-4.649C-1679.563-1282.293-1679.72-1283.322-1681.183-1284.9Z" transform="translate(1802.772 1285.051)" fill="#004d9d"/>
    </g>
  </g>
</svg>
