<svg xmlns="http://www.w3.org/2000/svg" width="128.172" height="264.65" viewBox="0 0 128.172 264.65">
  <g id="_2icon-70" data-name="2icon-70" transform="translate(471.824 20.971)">
    <g id="Group_11" data-name="Group 11" transform="translate(29 11)">
      <path id="Path_25" data-name="Path 25" d="M62.109,5.873.314,37.913l6.64,3.393V74.438a7.879,7.879,0,1,0,7.879,0v-29.1l7.879,4.024V69.406c0,10.968,30.154,11.819,39.4,11.819a150.968,150.968,0,0,0,19.667-1.239,21.457,21.457,0,0,1-3.34-7.571,135.578,135.578,0,0,1-16.328.931c-15.561,0-25.888-2.206-30-3.94,4.113-1.733,14.443-3.94,30-3.94a136.489,136.489,0,0,1,15.835.869A21.482,21.482,0,0,1,79.76,58.6a155.463,155.463,0,0,0-17.651-1.008c-6.228,0-21.924.4-31.517,4.009V46.562c2.4-1.753,13.418-4.732,31.517-4.732,13.138,0,22.491,1.568,27.577,3.1V36.774C80.192,34.28,67.553,33.95,62.109,33.95c-7.852,0-30.74.642-37.464,7.556l-7.11-3.64L62.109,14.752l44.574,23.107-.046.031h17.22Z" transform="translate(-497.314 122.127)" fill="#434a54" stroke="#fff" stroke-width="3.5"/>
      <path id="Path_26" data-name="Path 26" d="M97.565,45.769v7.879A13.984,13.984,0,0,0,85.746,67.437,13.464,13.464,0,0,0,99.535,81.225h3.94a5.909,5.909,0,1,1,0,11.819H89.686v7.879h7.879V108.8h7.879v-7.879a13.984,13.984,0,0,0,11.819-13.789,13.464,13.464,0,0,0-13.789-13.789h-3.94a5.909,5.909,0,0,1,0-11.819h13.789V53.648h-7.879V45.769Z" transform="translate(-496.314 122.127)" fill="#434a54" stroke="#fff" stroke-width="3.5"/>
    </g>
    <g id="Group_12" data-name="Group 12" transform="translate(29 -147)">
      <path id="Path_25-2" data-name="Path 25" d="M62.109,5.873.314,37.913l6.64,3.393V74.438a7.879,7.879,0,1,0,7.879,0v-29.1l7.879,4.024V69.406c0,10.968,30.154,11.819,39.4,11.819a150.968,150.968,0,0,0,19.667-1.239,21.457,21.457,0,0,1-3.34-7.571,135.578,135.578,0,0,1-16.328.931c-15.561,0-25.888-2.206-30-3.94,4.113-1.733,14.443-3.94,30-3.94a136.489,136.489,0,0,1,15.835.869A21.482,21.482,0,0,1,79.76,58.6a155.463,155.463,0,0,0-17.651-1.008c-6.228,0-21.924.4-31.517,4.009V46.562c2.4-1.753,13.418-4.732,31.517-4.732,13.138,0,22.491,1.568,27.577,3.1V36.774C80.192,34.28,67.553,33.95,62.109,33.95c-7.852,0-30.74.642-37.464,7.556l-7.11-3.64L62.109,14.752l44.574,23.107-.046.031h17.22Z" transform="translate(-497.314 122.127)" fill="#434a54" stroke="#fff" stroke-width="3.5"/>
      <path id="Path_26-2" data-name="Path 26" d="M97.565,45.769v7.879A13.984,13.984,0,0,0,85.746,67.437,13.464,13.464,0,0,0,99.535,81.225h3.94a5.909,5.909,0,1,1,0,11.819H89.686v7.879h7.879V108.8h7.879v-7.879a13.984,13.984,0,0,0,11.819-13.789,13.464,13.464,0,0,0-13.789-13.789h-3.94a5.909,5.909,0,0,1,0-11.819h13.789V53.648h-7.879V45.769Z" transform="translate(-496.314 122.127)" fill="#2188c9" stroke="#fff" stroke-width="3.5"/>
    </g>
  </g>
</svg>
