<svg xmlns="http://www.w3.org/2000/svg" width="30" height="28" viewBox="0 0 30 28">
  <g id="head_ic5_active" transform="translate(-4152 -351)">
    <path id="Path_228" data-name="Path 228" d="M15.7,3A6.122,6.122,0,0,0,9.574,9.128v2.553H7.532A1.54,1.54,0,0,0,6,13.213V25.468A1.54,1.54,0,0,0,7.532,27h16.34A1.54,1.54,0,0,0,25.4,25.468V13.213a1.54,1.54,0,0,0-1.532-1.532H21.83V9.128A6.122,6.122,0,0,0,15.7,3Zm0,1.021a5.078,5.078,0,0,1,5.106,5.106v2.553H10.6V9.128A5.078,5.078,0,0,1,15.7,4.021ZM7.532,12.7h16.34a.509.509,0,0,1,.511.511V25.468a.509.509,0,0,1-.511.511H7.532a.509.509,0,0,1-.511-.511V13.213A.509.509,0,0,1,7.532,12.7Zm8.17,4.085a1.505,1.505,0,0,0-1.532,1.532,1.448,1.448,0,0,0,.511,1.117v1.436a1.021,1.021,0,1,0,2.043,0V19.436a1.448,1.448,0,0,0,.511-1.117A1.505,1.505,0,0,0,15.7,16.787Z" transform="translate(4150.5 350.5)" fill="#fff" stroke="#fff" stroke-width="0.4"/>
    <rect id="Rectangle_150" data-name="Rectangle 150" width="30" height="28" transform="translate(4152 351)" fill="none"/>
  </g>
</svg>
