<svg xmlns="http://www.w3.org/2000/svg" width="32" height="32" viewBox="0 0 32 32">
  <g id="head_ic4" transform="translate(-3876 -350)">
    <rect id="Rectangle_148" data-name="Rectangle 148" width="32" height="32" transform="translate(3876 350)" fill="none"/>
    <path id="Path_213" data-name="Path 213" d="M8.42,2.984a2.28,2.28,0,0,0-1.48.437A21.56,21.56,0,0,0,4.734,5.276,10.98,10.98,0,0,0,3.578,6.54,2.1,2.1,0,0,0,3,7.907a10.425,10.425,0,0,0,1.138,4.272c1.07,2.279,3.147,5.406,7.2,9.459s7.181,6.133,9.459,7.2a10.42,10.42,0,0,0,4.272,1.138,2.1,2.1,0,0,0,1.366-.58A10.989,10.989,0,0,0,27.7,28.244a21.455,21.455,0,0,0,1.852-2.206,1.859,1.859,0,0,0-.19-2.637c-.475-.332-4.839-3.237-5.493-3.637a2.1,2.1,0,0,0-2.118.138c-.541.285-2,1.122-2.416,1.361a25.933,25.933,0,0,1-4.067-3.553,25.772,25.772,0,0,1-3.551-4.066c.238-.416,1.073-1.87,1.36-2.416h0A2.078,2.078,0,0,0,13.208,9.1c-.182-.286-1-1.528-1.823-2.777S9.776,3.89,9.572,3.607h0A1.549,1.549,0,0,0,8.42,2.984ZM8.309,4.239a.681.681,0,0,1,.268.087c.1.137.959,1.425,1.783,2.672s1.664,2.527,1.811,2.759a1.413,1.413,0,0,1-.182.9h0c-.27.516-1.531,2.722-1.531,2.722l-.176.308.18.307A27.607,27.607,0,0,0,14.4,18.577a27.8,27.8,0,0,0,4.585,3.94l.307.18.309-.176s2.2-1.26,2.722-1.533h0a1.379,1.379,0,0,1,.906-.177c.426.261,5.137,3.393,5.428,3.6a.81.81,0,0,1-.109.927h0a21.481,21.481,0,0,1-1.732,2.059A10.074,10.074,0,0,1,25.7,28.42a3.782,3.782,0,0,1-.588.333,8.708,8.708,0,0,1-3.789-1.022c-2.116-.994-5.135-2.981-9.114-6.96s-5.963-7-6.957-9.114A8.712,8.712,0,0,1,4.226,7.867a3.759,3.759,0,0,1,.333-.589A10.051,10.051,0,0,1,5.584,6.16,21.553,21.553,0,0,1,7.643,4.427h0A.943.943,0,0,1,8.309,4.239Zm17.379,1.2a.613.613,0,0,0-.428,1.053l2.633,2.633H18.947a.613.613,0,1,0,0,1.227h8.947l-2.633,2.633a.613.613,0,1,0,.867.867l3.626-3.626a.613.613,0,0,0,0-.974l0,0L26.128,5.625A.613.613,0,0,0,25.688,5.439Z" transform="translate(3875.501 349.522)" fill="#738ba4" stroke="#738ba4" stroke-width="0.4" opacity="0.85"/>
  </g>
</svg>
