<svg xmlns="http://www.w3.org/2000/svg" width="20" height="20" viewBox="0 0 20 20">
  <g id="ic_nav1" transform="translate(-219 -231)">
    <rect id="Rectangle_71" data-name="Rectangle 71" width="20" height="20" transform="translate(219 231)" fill="none"/>
    <path id="account" d="M10.357,2a.643.643,0,0,0-.308.079L3.04,5.906a.643.643,0,0,0,.246,1.237H4.571v6.429H3.929a.643.643,0,0,0,0,1.286H5.106a.643.643,0,0,0,.21,0H7.678a.643.643,0,0,0,.21,0H9.714V13.571H8.429V7.143H9.714v5.143H11V7.143h1.286v5.143h1.286V7.143h1.286v5.143h1.286V7.143h1.286a.643.643,0,0,0,.246-1.237l-7.014-3.83a.643.643,0,0,0-.3-.077Zm0,1.929a.643.643,0,1,1-.643.643A.643.643,0,0,1,10.357,3.929Zm-4.5,3.214H7.143v6.429H5.857Zm6.107,6.429a.965.965,0,0,0-.964.964v.321h9v-.321a.965.965,0,0,0-.964-.964ZM2.643,16.143a.643.643,0,0,0,0,1.286H9.714V16.143Zm8.357,0v2.893a.965.965,0,0,0,.964.964h7.071A.965.965,0,0,0,20,19.036V16.143Z" transform="translate(218 230)" fill="#ed2124"/>
  </g>
</svg>
