<svg xmlns="http://www.w3.org/2000/svg" width="32" height="32" viewBox="0 0 32 32">
  <g id="menu1_ic2" transform="translate(-626 -669)">
    <rect id="Rectangle_99" data-name="Rectangle 99" width="32" height="32" transform="translate(626 669)" fill="none"/>
    <g id="Group_114" data-name="Group 114" transform="translate(-264 -218)">
      <g id="Group_113" data-name="Group 113" transform="translate(890 890)">
        <path id="Path_191" data-name="Path 191" d="M12.731,3a.87.87,0,0,0-.416.107L2.75,8.324A.87.87,0,1,0,3.582,9.85L4.036,9.6v8.181H3.6a.87.87,0,1,0,0,1.739H21.862a.87.87,0,1,0,0-1.739h-.435V9.6l.453.248a.87.87,0,1,0,.832-1.525L13.148,3.107A.87.87,0,0,0,12.731,3Zm-.87,4.348H13.6v1.4a2.317,2.317,0,0,1,2,2.143H14.133a1.241,1.241,0,0,0-1.372-.98c-.779,0-1.294.361-1.294.929,0,.459.354.723,1.226.909l.9.19c1.5.315,2.14.961,2.14,2.116a2.319,2.319,0,0,1-2.13,2.33v1.393H11.862V16.393a2.316,2.316,0,0,1-2.13-2.174h1.5c.072.6.682.99,1.559.99.81,0,1.383-.392,1.383-.954,0-.475-.371-.748-1.284-.944l-.97-.207c-1.357-.283-2.023-.99-2.023-2.125a2.252,2.252,0,0,1,1.96-2.223Z" transform="translate(-0.595 -3)" fill="#738ba4"/>
        <path id="Path_192" data-name="Path 192" d="M2.37,13.957a.87.87,0,1,0,0,1.739H24.109a.87.87,0,1,0,0-1.739Z" transform="translate(-1.5 4.304)" fill="#ed2124"/>
      </g>
    </g>
  </g>
</svg>
