<svg xmlns="http://www.w3.org/2000/svg" width="32" height="32" viewBox="0 0 32 32">
  <g id="menu2_ic1" transform="translate(-150 -670)">
    <rect id="Rectangle_115" data-name="Rectangle 115" width="32" height="32" transform="translate(150 670)" fill="none"/>
    <g id="Group_278" data-name="Group 278" transform="translate(-5.83 -2)">
      <g id="Group_159" data-name="Group 159" transform="translate(155.83 692.673)">
        <path id="Path_231" data-name="Path 231" d="M2,14.253v1.715h.861s12.291-.034,21.212,2.331l1.075.281V14.253H23.433v.934A1.246,1.246,0,0,0,23,15.11a1.293,1.293,0,0,0-1.242.951,108.482,108.482,0,0,0-18.9-1.808Z" transform="translate(-2 -14.253)" fill="#ed2124"/>
      </g>
      <path id="Path_230" data-name="Path 230" d="M2,5V18.717H26.005V5ZM5.356,6.715h17.3a1.246,1.246,0,0,0-.077.429,1.286,1.286,0,0,0,1.286,1.286,1.325,1.325,0,0,0,.429-.074v7.009a1.246,1.246,0,0,0-.429-.077,1.286,1.286,0,0,0-1.286,1.286,1.246,1.246,0,0,0,.077.429H5.356a1.325,1.325,0,0,0,.074-.429,1.286,1.286,0,0,0-1.286-1.286,1.246,1.246,0,0,0-.429.077V8.356a1.325,1.325,0,0,0,.429.074A1.286,1.286,0,0,0,5.429,7.143,1.325,1.325,0,0,0,5.356,6.715ZM14,8.429a3.427,3.427,0,0,0-3.429,3.429v.857h.174a3.346,3.346,0,0,0,6.51,0h.174v-.857A3.427,3.427,0,0,0,14,8.429Zm0,1.715a1.628,1.628,0,0,1,1.715,1.715A1.628,1.628,0,0,1,14,13.573a1.628,1.628,0,0,1-1.715-1.715A1.628,1.628,0,0,1,14,10.144Zm-6,.429a1.286,1.286,0,1,0,1.286,1.286A1.286,1.286,0,0,0,8,10.573Zm12,0a1.286,1.286,0,1,0,1.286,1.286A1.286,1.286,0,0,0,20,10.573Z" transform="translate(153.83 672)" fill="#738ba4"/>
    </g>
  </g>
</svg>
