<svg xmlns="http://www.w3.org/2000/svg" width="32" height="32" viewBox="0 0 32 32">
  <g id="menu1_ic7" transform="translate(-574 -487)">
    <rect id="Rectangle_97" data-name="Rectangle 97" width="32" height="32" transform="translate(574 487)" fill="none"/>
    <g id="Group_119" data-name="Group 119" transform="translate(200 -155)">
      <path id="Path_194" data-name="Path 194" d="M14.32,8.32a6,6,0,1,0,6,6A6.007,6.007,0,0,0,14.32,8.32Zm-.344,2h.75v.906c1.051.15,1.395.887,1.594,1.687h-.7a1.207,1.207,0,0,0-1.25-1.047c-1.051,0-1.2.7-1.2,1.047,0,.7.7.91,1.453,1.109.9.2,1.906.551,1.906,1.75a1.9,1.9,0,0,1-1.8,1.844v.7h-.75v-.75a1.962,1.962,0,0,1-1.859-2h.75a1.324,1.324,0,0,0,1.453,1.344c1.15,0,1.406-.494,1.406-1.094,0-1.8-3.406-.557-3.406-2.906a1.8,1.8,0,0,1,1.656-1.8Z" transform="translate(378.68 647.68)" fill="#ed2124"/>
      <path id="Path_195" data-name="Path 195" d="M5,0A3,3,0,1,0,8,3,3,3,0,0,0,5,0ZM2.75,6.5A2.754,2.754,0,0,0,0,9.25V16.5a1,1,0,0,0,2,0v-6a.25.25,0,1,1,.5,0V23.656A1.188,1.188,0,0,0,3.7,25,1.289,1.289,0,0,0,5,23.656V16.844a.25.25,0,1,1,.5,0V22H8v.969a2.72,2.72,0,0,0,2.453-2.016A1.846,1.846,0,0,1,12.5,19.5v-1a2.771,2.771,0,0,0-2.953,2.047c-.312.73-.559,1.289-1.547,1.422V10.5a.25.25,0,1,1,.5,0v6a1,1,0,0,0,2,0V9.25A2.754,2.754,0,0,0,7.75,6.5ZM13,19ZM5.5,23v.8s.014,0,.016,0A1.281,1.281,0,0,0,6.8,25,1.189,1.189,0,0,0,8,23.656V23Z" transform="translate(374 643)" fill="#738ba4"/>
    </g>
  </g>
</svg>
