<svg xmlns="http://www.w3.org/2000/svg" width="32" height="32" viewBox="0 0 32 32">
  <g id="menu3_ic2" transform="translate(-599 -718)">
    <rect id="Rectangle_97" data-name="Rectangle 97" width="32" height="32" transform="translate(599 718)" fill="none"/>
    <g id="Group_174" data-name="Group 174" transform="translate(-6492 -897)">
      <path id="Path_238" data-name="Path 238" d="M6.881,12.5a2.381,2.381,0,1,0,2.381,2.381A2.381,2.381,0,0,0,6.881,12.5Zm7.619,0a2.381,2.381,0,1,0,2.381,2.381A2.381,2.381,0,0,0,14.5,12.5Zm7.619,0A2.381,2.381,0,1,0,24.5,14.881,2.381,2.381,0,0,0,22.119,12.5Z" transform="translate(7086.5 1614.119)" fill="#ed2124"/>
      <path id="Path_239" data-name="Path 239" d="M6.881,4.5A2.381,2.381,0,1,0,9.262,6.881,2.381,2.381,0,0,0,6.881,4.5Zm7.619,0a2.381,2.381,0,1,0,2.381,2.381A2.381,2.381,0,0,0,14.5,4.5Zm7.619,0A2.381,2.381,0,1,0,24.5,6.881,2.381,2.381,0,0,0,22.119,4.5ZM6.881,19.738a2.381,2.381,0,1,0,2.381,2.381A2.381,2.381,0,0,0,6.881,19.738Zm7.619,0a2.381,2.381,0,1,0,2.381,2.381A2.381,2.381,0,0,0,14.5,19.738Zm7.619,0A2.381,2.381,0,1,0,24.5,22.119,2.381,2.381,0,0,0,22.119,19.738Z" transform="translate(7086.5 1614.5)" fill="#738ba4"/>
    </g>
  </g>
</svg>
