<svg id="menu1_ic4" xmlns="http://www.w3.org/2000/svg" width="32" height="32" viewBox="0 0 32 32">
  <rect id="Rectangle_96" data-name="Rectangle 96" width="32" height="32" fill="none"/>
  <g id="Group_115" data-name="Group 115" transform="translate(0 1)">
    <g id="Group_84" data-name="Group 84">
      <path id="Path_184" data-name="Path 184" d="M8.6,5.063S2,8.379,2,16.063a6.972,6.972,0,0,0,1.588,4.78,2.17,2.17,0,0,0,1.637.72h15.55a2.169,2.169,0,0,0,1.637-.72A6.966,6.966,0,0,0,24,16.063c0-7.683-6.6-11-6.6-11Z" transform="translate(-2 0.577)" fill="#738ba4"/>
      <path id="Path_184-2" data-name="Path 184" d="M8.868,1a2.4,2.4,0,0,0-1.789.806H5.872a.805.805,0,0,0-.782,1l.556,2.222h6.446l.556-2.222a.805.805,0,0,0-.782-1H10.658A2.4,2.4,0,0,0,8.868,1Z" transform="translate(1.979 -1)" fill="#ed2124"/>
    </g>
    <path id="Path_190" data-name="Path 190" d="M20.149-1a.716.716,0,0,0-.716.716v.131A2.146,2.146,0,0,0,18,1.865c0,1.471,1.4,1.936,1.943,2.118.922.276.922.526.922.747a.717.717,0,0,1-.716.716.935.935,0,0,1-.818-.369.716.716,0,0,0-1.228.737,2.187,2.187,0,0,0,1.33.962v.1a.716.716,0,0,0,1.432,0V6.747A2.146,2.146,0,0,0,22.3,4.73a2.272,2.272,0,0,0-1.922-2.112c-.943-.314-.943-.578-.943-.753a.717.717,0,0,1,.716-.716.936.936,0,0,1,.818.369A.716.716,0,0,0,22.2.781a2.187,2.187,0,0,0-1.33-.962v-.1A.716.716,0,0,0,20.149-1Z" transform="translate(-8.643 11.242)" fill="#fff"/>
  </g>
</svg>
