<svg xmlns="http://www.w3.org/2000/svg" width="32" height="32" viewBox="0 0 32 32">
  <g id="menu3_ic3" transform="translate(-995 -809)">
    <rect id="Rectangle_102" data-name="Rectangle 102" width="32" height="32" transform="translate(995 809)" fill="none"/>
    <g id="Group_122" data-name="Group 122" transform="translate(-776 -815)">
      <path id="Path_215" data-name="Path 215" d="M16.932,2a1.19,1.19,0,0,0-.561.117L13.548,3.5,10.723,2.121A1.147,1.147,0,0,0,9.211,2.6L7.682,5.408l-3.1.543a1.149,1.149,0,0,0-.94,1.278l.41,3.169L1.87,12.656a1.149,1.149,0,0,0-.009,1.588l2.2,2.321-.44,3.113a1.148,1.148,0,0,0,.924,1.289l3.142.588,1.473,2.776a1.144,1.144,0,0,0,1.5.5l2.886-1.37h0l2.823,1.381a1.148,1.148,0,0,0,1.511-.48l1.529-2.805,3.1-.545a1.149,1.149,0,0,0,.94-1.278l-.408-3.166,2.184-2.26a1.147,1.147,0,0,0,.009-1.585L23.04,10.4l.44-3.112A1.15,1.15,0,0,0,22.554,6l-3.139-.588L17.941,2.632a1.3,1.3,0,0,0-.46-.471A1.162,1.162,0,0,0,16.932,2Zm-.518,2.648L17.647,6.98a1.146,1.146,0,0,0,.816.592l2.588.478-.363,2.583A1.142,1.142,0,0,0,21,11.59L22.809,13.5,21.388,14.97l-.39.4a1.146,1.146,0,0,0-.309.958l.343,2.608-2.568.451a1.148,1.148,0,0,0-.814.592L16.394,22.3l-2.343-1.146a1.146,1.146,0,0,0-1.007,0l-2.375,1.135L9.447,19.981a1.142,1.142,0,0,0-.814-.592l-2.588-.478.363-2.579a1.147,1.147,0,0,0-.312-.962L4.285,13.465,6.1,11.593a1.15,1.15,0,0,0,.312-.962L6.063,8.023l2.57-.451a1.144,1.144,0,0,0,.814-.592L10.7,4.664l2.343,1.146a1.148,1.148,0,0,0,1.007,0Z" transform="translate(1772.453 1623.997)" fill="#738ba4"/>
      <path id="Path_216" data-name="Path 216" d="M15.351,7.551,8.457,16.733l1.377,1.034,6.893-9.183Zm-5.628.516a1.722,1.722,0,1,0,1.722,1.722A1.723,1.723,0,0,0,9.722,8.067Zm5.741,5.741a1.722,1.722,0,1,0,1.722,1.722A1.723,1.723,0,0,0,15.463,13.807Z" transform="translate(1773.463 1625.338)" fill="#ed2124"/>
    </g>
  </g>
</svg>
