<svg xmlns="http://www.w3.org/2000/svg" width="60" height="64.752" viewBox="0 0 60 64.752">
  <g id="quick_access1_active" transform="translate(-1400 -166)">
    <g id="Group_124" data-name="Group 124" transform="translate(4 -4)">
      <circle id="Ellipse_23" data-name="Ellipse 23" cx="30" cy="30" r="30" transform="translate(1396 170)" fill="#e85e5b"/>
      <path id="Path_218" data-name="Path 218" d="M22.6,0C17.853,0,14,2.565,14,5.728c0,4.091,8.6,10.024,8.6,10.024s8.6-5.933,8.6-10.024C31.21,2.565,27.357,0,22.6,0Z" transform="translate(1403 219)" fill="#e85e5b"/>
    </g>
    <path id="Path_253" data-name="Path 253" d="M15.5,2.5,3,8.056v3.472H5.778V25.417H3v2.778H28V25.417H25.222V11.528H28V8.056Zm0,3.041L22.724,8.75h-.279V25.417H8.556V8.75H8.276Zm-.4,1.335V8.859A3.518,3.518,0,0,0,12,12.594c0,4.64,4.8,3.268,4.8,6.364,0,1.55-1,1.587-1.207,1.587-.186,0-1.408.1-1.408-2.273H11.558c0,4.017,2.914,4.335,3.347,4.394v1.847H16.3V22.666a3.474,3.474,0,0,0,3.125-3.727c0-4.453-4.8-3.6-4.8-6.331,0-1.565.861-1.614,1.047-1.614.34,0,1.15.3,1.15,2.205h2.626c0-3.649-2.495-4.218-2.941-4.3V6.876Z" transform="translate(1415 179.5)" fill="#fff" opacity="0.85"/>
  </g>
</svg>
