<?xml version="1.0" encoding="utf-8"?>
<!-- Generator: Adobe Illustrator 19.1.0, SVG Export Plug-In . SVG Version: 6.00 Build 0)  -->
<svg version="1.1" id="Capa_1" xmlns="http://www.w3.org/2000/svg" xmlns:xlink="http://www.w3.org/1999/xlink" x="0px" y="0px"
	 viewBox="376 -16 32 64" style="enable-background:new 376 -16 32 64;" xml:space="preserve">
<style type="text/css">
	.st0{fill:#FFFFFF;}
	.st1{fill:#2188C9;}
</style>
<circle class="st0" cx="383.8" cy="32" r="2.8"/>
<circle class="st1" cx="392" cy="32" r="2.8"/>
<g>
	<circle class="st0" cx="400.3" cy="32" r="2.8"/>
</g>
<g>
	<g>
		<path class="st0" d="M391.6-8.1l-7.7,7.7c-0.1,0.1-0.2,0.3-0.2,0.4c0,0.2,0.1,0.3,0.2,0.4l7.7,7.7c0.2,0.2,0.6,0.2,0.8,0
			c0.1-0.1,0.2-0.3,0.2-0.4c0-0.2-0.1-0.3-0.2-0.4l-6.7-6.7h13.9c0.3,0,0.6-0.3,0.6-0.6c0-0.3-0.3-0.6-0.6-0.6h-13.9l6.7-6.7
			c0.2-0.2,0.2-0.6,0-0.8C392.2-8.3,391.8-8.3,391.6-8.1L391.6-8.1z M391.6-8.1"/>
	</g>
</g>
</svg>
