<?xml version="1.0" encoding="utf-8"?>
<!-- Generator: Adobe Illustrator 19.1.0, SVG Export Plug-In . SVG Version: 6.00 Build 0)  -->
<svg version="1.1" id="Layer_1" xmlns="http://www.w3.org/2000/svg" xmlns:xlink="http://www.w3.org/1999/xlink" x="0px" y="0px"
	 viewBox="0 0 64 32" style="enable-background:new 0 0 64 32;" xml:space="preserve">
<style type="text/css">
	.st0{fill:#FFFFFF;}
	.st1{fill:#24346E;fill-opacity:0.3;}
</style>
<path class="st0" d="M23.609,10.163c0.236-0.708,0.192-1.255-0.133-1.638c-0.383-0.325-0.93-0.369-1.638-0.133
	c-0.709,0.236-1.343,0.634-1.905,1.195l-1.771,1.771L10.8,9.598c-0.119-0.037-0.229-0.007-0.332,0.089L9.05,11.104
	c-0.081,0.081-0.114,0.181-0.099,0.299c0.022,0.117,0.084,0.206,0.187,0.265l5.625,3.089l-2.867,2.867l-2.148-0.587
	c-0.014-0.007-0.044-0.011-0.089-0.011c-0.103,0-0.188,0.033-0.255,0.1L8.342,18.2c-0.073,0.089-0.106,0.181-0.1,0.277
	c0.016,0.117,0.063,0.203,0.144,0.255l2.79,2.091l2.093,2.79c0.066,0.081,0.155,0.129,0.266,0.144h0.022
	c0.104,0,0.188-0.033,0.255-0.1l1.063-1.063c0.095-0.103,0.125-0.217,0.089-0.342l-0.587-2.148l2.868-2.867l3.089,5.624
	c0.043,0.096,0.121,0.155,0.232,0.177c0.022,0.008,0.049,0.011,0.078,0.011c0.089,0,0.158-0.022,0.211-0.066l1.418-1.063
	c0.125-0.103,0.17-0.225,0.133-0.365l-1.772-7.705l1.783-1.782C22.975,11.507,23.373,10.872,23.609,10.163z"/>
<g>
	<path class="st1" d="M46.985,23.027c-0.171,0.512-0.139,0.908,0.097,1.185c0.277,0.235,0.672,0.267,1.185,0.097
		c0.513-0.171,0.971-0.459,1.377-0.865l1.282-1.281l5.325,1.273c0.085,0.027,0.166,0.006,0.24-0.064l1.026-1.025
		c0.058-0.059,0.082-0.131,0.072-0.217c-0.016-0.085-0.062-0.149-0.136-0.192l-4.069-2.235l2.074-2.073l1.553,0.424
		c0.011,0.004,0.033,0.008,0.064,0.008c0.075,0,0.137-0.024,0.184-0.072l0.769-0.777c0.054-0.064,0.077-0.131,0.072-0.201
		c-0.01-0.085-0.045-0.147-0.103-0.184l-2.018-1.513l-1.514-2.018c-0.048-0.058-0.112-0.093-0.192-0.104h-0.016
		c-0.075,0-0.137,0.025-0.185,0.072l-0.768,0.769c-0.07,0.075-0.091,0.158-0.064,0.249l0.424,1.553l-2.074,2.073l-2.235-4.068
		c-0.033-0.07-0.088-0.112-0.168-0.128c-0.016-0.006-0.035-0.008-0.056-0.008c-0.064,0-0.114,0.016-0.152,0.048l-1.026,0.769
		c-0.091,0.074-0.122,0.162-0.095,0.264l1.281,5.573l-1.29,1.29C47.445,22.055,47.156,22.514,46.985,23.027z"/>
	<path class="st0" d="M53.461,9.528c0.239-0.717,0.194-1.271-0.135-1.659c-0.388-0.329-0.942-0.374-1.659-0.135
		c-0.718,0.239-1.36,0.642-1.928,1.21l-1.795,1.794l-7.455-1.782c-0.12-0.037-0.232-0.007-0.337,0.09l-1.434,1.436
		c-0.083,0.082-0.117,0.183-0.101,0.303c0.022,0.119,0.085,0.209,0.191,0.268l5.695,3.128l-2.904,2.904l-2.175-0.595
		c-0.015-0.007-0.045-0.011-0.09-0.011c-0.104,0-0.191,0.034-0.258,0.101l-1.076,1.088c-0.074,0.09-0.108,0.183-0.1,0.281
		c0.015,0.119,0.063,0.205,0.145,0.258l2.826,2.118l2.119,2.825c0.067,0.082,0.156,0.13,0.268,0.146h0.022
		c0.106,0,0.191-0.034,0.258-0.101l1.076-1.076c0.097-0.104,0.127-0.22,0.09-0.347l-0.594-2.175l2.904-2.904l3.128,5.695
		c0.045,0.098,0.122,0.157,0.235,0.18c0.022,0.008,0.049,0.011,0.079,0.011c0.09,0,0.162-0.022,0.213-0.067l1.436-1.076
		c0.127-0.104,0.172-0.228,0.135-0.369l-1.795-7.803l1.806-1.805C52.819,10.888,53.222,10.245,53.461,9.528z"/>
</g>
</svg>
