<?xml version="1.0" encoding="utf-8"?>
<!-- Generator: Adobe Illustrator 19.1.0, SVG Export Plug-In . SVG Version: 6.00 Build 0)  -->
<svg version="1.1" id="Layer_1" xmlns="http://www.w3.org/2000/svg" xmlns:xlink="http://www.w3.org/1999/xlink" x="0px" y="0px"
	 viewBox="64 -128 160 320" style="enable-background:new 64 -128 160 320;" xml:space="preserve">
<style type="text/css">
	.st0{fill:#2188C9;}
	.st1{fill:none;stroke:#0c2c63;stroke-width:3.6;stroke-linecap:round;stroke-miterlimit:10;}
	.st2{fill:none;stroke:#0c2c63;stroke-width:3.6;stroke-miterlimit:10;}
	.st3{fill:#0c2c63;}
	.st4{fill:#494949;}
	.st5{fill:#494949;stroke:#434A54;stroke-width:3.6;stroke-linecap:round;stroke-miterlimit:10;}
	.st6{fill:#494949;stroke:#0c2c63;stroke-width:3.6;stroke-miterlimit:10;}
</style>
<g>
	<g>
		<path class="st0" d="M144-76.9c1.5,0,2.6-1.2,2.6-2.6v-15.7c0-1.5-1.2-2.6-2.6-2.6s-2.6,1.2-2.6,2.6v15.7
			C141.4-78.1,142.5-76.9,144-76.9z"/>
		<path class="st0" d="M127.3-74.4c0.5,0.8,1.4,1.4,2.3,1.4c0.4,0,0.9-0.1,1.3-0.3c1.3-0.7,1.7-2.3,0.9-3.6L124-90.5
			c-0.7-1.3-2.3-1.7-3.6-0.9s-1.7,2.3-0.9,3.6L127.3-74.4z"/>
		<path class="st0" d="M157.1-73.4c0.4,0.2,0.8,0.3,1.3,0.3c0.9,0,1.8-0.4,2.3-1.4l7.9-13.6c0.7-1.3,0.3-2.8-0.9-3.6
			c-1.3-0.7-2.8-0.3-3.6,0.9l-7.9,13.6C155.4-75.8,155.8-74.1,157.1-73.4z"/>
		<path class="st0" d="M99.5-48.1h15.7c1.5,0,2.6-1.2,2.6-2.6s-1.2-2.6-2.6-2.6H99.5c-1.5,0-2.6,1.2-2.6,2.6
			C96.8-49.2,98-48.1,99.5-48.1z"/>
		<path class="st0" d="M170.2-50.7c0,1.5,1.2,2.6,2.6,2.6h15.7c1.5,0,2.6-1.2,2.6-2.6s-1.2-2.6-2.6-2.6h-15.7
			C171.4-53.3,170.2-52.2,170.2-50.7z"/>
		<path class="st0" d="M121.3-37.6c-0.7-1.3-2.3-1.7-3.6-0.9l-13.6,7.9c-1.3,0.7-1.7,2.3-0.9,3.6c0.5,0.8,1.4,1.4,2.3,1.4
			c0.4,0,0.9-0.1,1.3-0.3l13.6-7.9C121.6-34.8,122-36.3,121.3-37.6z"/>
		<path class="st0" d="M166.7-63.8c0.5,0.8,1.4,1.4,2.3,1.4c0.4,0,0.9-0.1,1.3-0.3l13.6-7.9c1.3-0.7,1.7-2.3,0.9-3.6
			c-0.7-1.3-2.3-1.7-3.6-0.9l-13.6,7.9C166.4-66.6,166-65.1,166.7-63.8z"/>
		<path class="st0" d="M104.1-70.7l13.6,7.9c0.4,0.2,0.8,0.3,1.3,0.3c0.9,0,1.8-0.4,2.3-1.4c0.7-1.3,0.3-2.8-0.9-3.6l-13.6-7.9
			c-1.3-0.7-2.8-0.3-3.6,0.9C102.4-73,102.8-71.5,104.1-70.7z"/>
		<path class="st0" d="M182.6-25.8c0.9,0,1.8-0.4,2.3-1.4c0.7-1.3,0.3-2.8-0.9-3.6l-13.6-7.9c-1.3-0.7-2.8-0.3-3.6,0.9
			c-0.7,1.3-0.3,2.8,0.9,3.6l13.6,7.9C181.6-26,182.2-25.8,182.6-25.8z"/>
	</g>
	<line class="st1" x1="128.9" y1="-47.8" x2="159.3" y2="-55.9"/>
	<line class="st1" x1="128.9" y1="-39.8" x2="159.3" y2="-47.9"/>
	<line class="st1" x1="128.9" y1="-30.8" x2="159.3" y2="-38.9"/>
	<line class="st1" x1="128.9" y1="-21.8" x2="159.3" y2="-29.9"/>
	<path class="st2" d="M149.3-18.1v4.3V-18.1z"/>
	<path class="st2" d="M139.3-18.1v4.3V-18.1z"/>
	<g>
		<path class="st3" d="M150.8-10.2l-0.5,8.5h-11.7l-0.5-8.5H150.8 M152.5-13.8h-16.2c-1.2,0-2.1,1-2,2.1L135,0
			c0.1,1.1,0.9,1.9,2,1.9h14.7c1.1,0,1.9-0.8,2-1.9l0.7-11.7C154.6-12.8,153.7-13.8,152.5-13.8L152.5-13.8z"/>
	</g>
</g>
<g>
	<g>
		<path class="st4" d="M144,83.1c1.5,0,2.6-1.2,2.6-2.6V64.8c0-1.5-1.2-2.6-2.6-2.6s-2.6,1.2-2.6,2.6v15.7
			C141.4,81.9,142.5,83.1,144,83.1z"/>
		<path class="st4" d="M127.3,85.6c0.5,0.8,1.4,1.4,2.3,1.4c0.4,0,0.9-0.1,1.3-0.3c1.3-0.7,1.7-2.3,0.9-3.6L124,69.5
			c-0.7-1.3-2.3-1.7-3.6-0.9s-1.7,2.3-0.9,3.6L127.3,85.6z"/>
		<path class="st4" d="M157.1,86.6c0.4,0.2,0.8,0.3,1.3,0.3c0.9,0,1.8-0.4,2.3-1.4l7.9-13.6c0.7-1.3,0.3-2.8-0.9-3.6
			c-1.3-0.7-2.8-0.3-3.6,0.9l-7.9,13.6C155.4,84.3,155.8,85.9,157.1,86.6z"/>
		<path class="st4" d="M99.5,111.9h15.7c1.5,0,2.6-1.2,2.6-2.6s-1.2-2.6-2.6-2.6H99.5c-1.5,0-2.6,1.2-2.6,2.6
			C96.8,110.8,98,111.9,99.5,111.9z"/>
		<path class="st4" d="M170.2,109.3c0,1.5,1.2,2.6,2.6,2.6h15.7c1.5,0,2.6-1.2,2.6-2.6s-1.2-2.6-2.6-2.6h-15.7
			C171.4,106.7,170.2,107.8,170.2,109.3z"/>
		<path class="st4" d="M121.3,122.4c-0.7-1.3-2.3-1.7-3.6-0.9l-13.6,7.9c-1.3,0.7-1.7,2.3-0.9,3.6c0.5,0.8,1.4,1.4,2.3,1.4
			c0.4,0,0.9-0.1,1.3-0.3l13.6-7.9C121.6,125.2,122,123.7,121.3,122.4z"/>
		<path class="st4" d="M166.7,96.2c0.5,0.8,1.4,1.4,2.3,1.4c0.4,0,0.9-0.1,1.3-0.3l13.6-7.9c1.3-0.7,1.7-2.3,0.9-3.6
			c-0.7-1.3-2.3-1.7-3.6-0.9l-13.6,7.9C166.4,93.4,166,94.9,166.7,96.2z"/>
		<path class="st4" d="M104.1,89.3l13.6,7.9c0.4,0.2,0.8,0.3,1.3,0.3c0.9,0,1.8-0.4,2.3-1.4c0.7-1.3,0.3-2.8-0.9-3.6l-13.6-7.9
			c-1.3-0.7-2.8-0.3-3.6,0.9C102.4,87,102.8,88.5,104.1,89.3z"/>
		<path class="st4" d="M182.6,134.2c0.9,0,1.8-0.4,2.3-1.4c0.7-1.3,0.3-2.8-0.9-3.6l-13.6-7.9c-1.3-0.7-2.8-0.3-3.6,0.9
			c-0.7,1.3-0.3,2.8,0.9,3.6l13.6,7.9C181.6,134,182.2,134.2,182.6,134.2z"/>
	</g>
	<line class="st5" x1="128.9" y1="112.2" x2="159.3" y2="104.1"/>
	<line class="st5" x1="128.9" y1="120.2" x2="159.3" y2="112.1"/>
	<line class="st5" x1="128.9" y1="129.2" x2="159.3" y2="121.1"/>
	<line class="st5" x1="128.9" y1="138.2" x2="159.3" y2="130.1"/>
	<path class="st6" d="M149.3,141.9v4.3V141.9z"/>
	<path class="st6" d="M139.3,141.9v4.3V141.9z"/>
	<g>
		<path class="st4" d="M150.8,149.8l-0.5,8.5h-11.7l-0.5-8.5H150.8 M152.5,146.2h-16.2c-1.2,0-2.1,1-2,2.1L135,160
			c0.1,1.1,0.9,1.9,2,1.9h14.7c1.1,0,1.9-0.8,2-1.9l0.7-11.7C154.6,147.2,153.7,146.2,152.5,146.2L152.5,146.2z"/>
	</g>
</g>
</svg>
