<?xml version="1.0" encoding="utf-8"?>
<!-- Generator: Adobe Illustrator 19.1.0, SVG Export Plug-In . SVG Version: 6.00 Build 0)  -->
<svg version="1.1" id="Layer_1" xmlns="http://www.w3.org/2000/svg" xmlns:xlink="http://www.w3.org/1999/xlink" x="0px" y="0px"
	 viewBox="64 -128 160 320" style="enable-background:new 64 -128 160 320;" xml:space="preserve">
<style type="text/css">
	.st0{fill:#2188C9;}
	.st1{fill:#0c2c63;}
	.st2{fill:#434A54;}
</style>
<g>
	<path class="st0" d="M117.4,2c-7.1,0-12.9-5.8-12.9-12.9c0-6.6,10.5-19,11.7-20.4c0.6-0.7,1.8-0.7,2.4,0
		c1.2,1.4,11.7,13.8,11.7,20.4C130.3-3.8,124.5,2,117.4,2z M117.4-27.7c-3.5,4.3-9.7,12.8-9.7,16.8c0,5.3,4.3,9.7,9.7,9.7
		s9.7-4.3,9.7-9.7C127.1-15,120.9-23.4,117.4-27.7z"/>
	<path class="st0" d="M162.5-91.5h-6.5c-0.9,0-1.6,0.7-1.6,1.6V-77c0,0.9,0.7,1.6,1.6,1.6h6.5c0.9,0,1.6-0.7,1.6-1.6v-12.9
		C164.2-90.8,163.4-91.5,162.5-91.5z M160.9-78.6h-3.2v-9.7h3.2V-78.6z"/>
	<path class="st0" d="M177.1-98c-3.1,0-16.1,2.7-16.1,8s13,8.1,16.1,8.1c4.4,0,8.1-3.6,8.1-8C185.1-94.4,181.5-98,177.1-98z
		 M177.1-85.1c-4.3,0-12.9-3.2-12.9-4.8c0-1.6,8.5-4.8,12.9-4.8c2.7,0,4.8,2.2,4.8,4.8C181.9-87.2,179.7-85.1,177.1-85.1z"/>
	<path class="st0" d="M141.6-98c-4.4,0-8.1,3.6-8.1,8.1s3.6,8.1,8.1,8.1c3.1,0,16.1-2.7,16.1-8.1S144.6-98,141.6-98z M141.6-85.1
		c-2.7,0-4.8-2.2-4.8-4.8c0-2.7,2.2-4.8,4.8-4.8c4.4,0,12.9,3.2,12.9,4.8C154.5-88.3,145.9-85.1,141.6-85.1z"/>
	<path class="st1" d="M128.7-35.1h-22.6c-0.9,0-1.6-0.7-1.6-1.6v-17.7c0-9.8,8-17.7,17.7-17.7h64.5c0.9,0,1.6,0.7,1.6,1.6V-48
		c0,0.9-0.7,1.6-1.6,1.6h-54.8c-0.9,0-1.6,0.7-1.6,1.6v8.1C130.3-35.8,129.6-35.1,128.7-35.1z M107.7-38.3h19.4v-6.5
		c0-2.7,2.2-4.8,4.8-4.8h53.2V-69h-62.9c-8,0-14.5,6.5-14.5,14.5L107.7-38.3L107.7-38.3z M165.8-39.9h-12.9c-0.9,0-1.6-0.7-1.6-1.6
		V-48c0-0.9,0.7-1.6,1.6-1.6h12.9c0.9,0,1.6,0.7,1.6,1.6v6.5C167.4-40.6,166.7-39.9,165.8-39.9z M154.5-43.1h9.7v-3.2h-9.7V-43.1z
		 M169-69h-19.3c-0.9,0-1.6-0.7-1.6-1.6V-77c0-0.9,0.7-1.6,1.6-1.6H169c0.9,0,1.6,0.7,1.6,1.6v6.5C170.6-69.7,169.9-69,169-69z
		 M151.3-72.2h16.1v-3.2h-16.1V-72.2z M133.5-35.1h-32.2c-0.9,0-1.6-0.7-1.6-1.6s0.7-1.6,1.6-1.6h32.3c0.9,0,1.6,0.7,1.6,1.6
		C135.1-35.8,134.4-35.1,133.5-35.1z"/>
</g>
<g>
	<path class="st2" d="M117.4,162c-7.1,0-12.9-5.8-12.9-12.9c0-6.6,10.5-19,11.7-20.4c0.6-0.7,1.8-0.7,2.4,0
		c1.2,1.4,11.7,13.8,11.7,20.4C130.3,156.2,124.5,162,117.4,162z M117.4,132.3c-3.5,4.3-9.7,12.8-9.7,16.8c0,5.3,4.3,9.7,9.7,9.7
		s9.7-4.4,9.7-9.7C127.1,145,120.9,136.6,117.4,132.3z"/>
	<path class="st2" d="M162.5,68.5h-6.5c-0.9,0-1.6,0.7-1.6,1.6V83c0,0.9,0.7,1.6,1.6,1.6h6.5c0.9,0,1.6-0.7,1.6-1.6V70.1
		C164.2,69.2,163.4,68.5,162.5,68.5z M160.9,81.4h-3.2v-9.7h3.2V81.4z"/>
	<path class="st2" d="M177.1,62c-3.1,0-16.1,2.7-16.1,8s13,8.1,16.1,8.1c4.4,0,8.1-3.6,8.1-8C185.1,65.6,181.5,62,177.1,62z
		 M177.1,74.9c-4.3,0-12.9-3.2-12.9-4.8c0-1.6,8.5-4.8,12.9-4.8c2.7,0,4.8,2.2,4.8,4.8C181.9,72.8,179.7,74.9,177.1,74.9z"/>
	<path class="st2" d="M141.6,62c-4.4,0-8.1,3.6-8.1,8.1s3.6,8.1,8.1,8.1c3.1,0,16.1-2.7,16.1-8.1S144.6,62,141.6,62z M141.6,74.9
		c-2.7,0-4.8-2.2-4.8-4.8c0-2.7,2.2-4.8,4.8-4.8c4.4,0,12.9,3.2,12.9,4.8C154.5,71.7,145.9,74.9,141.6,74.9z"/>
	<path class="st2" d="M128.7,124.9h-22.6c-0.9,0-1.6-0.7-1.6-1.6v-17.7c0-9.8,8-17.7,17.7-17.7h64.5c0.9,0,1.6,0.7,1.6,1.6V112
		c0,0.9-0.7,1.6-1.6,1.6h-54.8c-0.9,0-1.6,0.7-1.6,1.6v8.1C130.3,124.2,129.6,124.9,128.7,124.9z M107.7,121.7h19.4v-6.5
		c0-2.7,2.2-4.8,4.8-4.8h53.2V91h-62.9c-8,0-14.5,6.5-14.5,14.5L107.7,121.7L107.7,121.7z M165.8,120.1h-12.9
		c-0.9,0-1.6-0.7-1.6-1.6V112c0-0.9,0.7-1.6,1.6-1.6h12.9c0.9,0,1.6,0.7,1.6,1.6v6.5C167.4,119.4,166.7,120.1,165.8,120.1z
		 M154.5,116.9h9.7v-3.2h-9.7V116.9z M169,91h-19.3c-0.9,0-1.6-0.7-1.6-1.6V83c0-0.9,0.7-1.6,1.6-1.6H169c0.9,0,1.6,0.7,1.6,1.6v6.5
		C170.6,90.3,169.9,91,169,91z M151.3,87.8h16.1v-3.2h-16.1V87.8z M133.5,124.9h-32.2c-0.9,0-1.6-0.7-1.6-1.6s0.7-1.6,1.6-1.6h32.3
		c0.9,0,1.6,0.7,1.6,1.6C135.1,124.2,134.4,124.9,133.5,124.9z"/>
</g>
</svg>
