<?xml version="1.0" encoding="utf-8"?>
<!-- Generator: Adobe Illustrator 19.1.0, SVG Export Plug-In . SVG Version: 6.00 Build 0)  -->
<svg version="1.1" id="Layer_1" xmlns="http://www.w3.org/2000/svg" xmlns:xlink="http://www.w3.org/1999/xlink" x="0px" y="0px"
	 viewBox="-225 237 160 320" style="enable-background:new -225 237 160 320;" xml:space="preserve">
<style type="text/css">
	.st0{fill:none;stroke:#0c2c63;stroke-width:3.6;stroke-miterlimit:10;}
	.st1{fill:none;stroke:#2188C9;stroke-width:3.6;stroke-miterlimit:10;}
	.st2{fill:none;stroke:#434A54;stroke-width:3.6;stroke-miterlimit:10;}
</style>
<g>
	<g>
		<path class="st0" d="M-138.2,308.4c-0.3,0-0.7,0-1,0h-11.6c-0.3,0-0.7,0-1,0l-4.1,0.4c-18,2.5-31.8,17.9-31.8,36.5V362
			c0,0.6,0.4,1,1,1h83.3c0.6,0,1-0.4,1-1v-16.8c0-18.6-13.8-33.9-31.8-36.5L-138.2,308.4z M-144.9,354.3c-10.2,0-18.5-8.3-18.5-18.5
			c0-10.2,8.2-18.5,18.5-18.5s18.5,8.3,18.5,18.5C-126.4,346-134.8,354.3-144.9,354.3z"/>
	</g>
	<g>
		<path class="st0" d="M-135.6,335.8c0,5.2-4.2,9.3-9.3,9.3s-9.3-4.2-9.3-9.3c0-5.1,4.2-9.3,9.3-9.3
			C-139.8,326.4-135.6,330.6-135.6,335.8z"/>
	</g>
</g>
<g>
	<path class="st1" d="M-96.8,305.8l-4.3,4.9c-1.1,1.2-2.5,1.8-4,1.8c-1.2,0-2.4-0.4-3.4-1.2l-14.9-11.8c-2.2-1.8-2.5-5-0.6-7.1
		l1.6-1.9c0.4-0.5,0.3-1.2-0.2-1.5c-13.7-8.3-31.4-8.3-45.1,0c-0.5,0.3-0.6,1-0.2,1.5l1.6,1.9c1,1,1.4,2.3,1.3,3.8
		c-0.1,1.3-0.7,2.5-1.9,3.5l-14.8,11.7c-2.2,1.8-5.6,1.5-7.4-0.6l-4.3-4.9c-2-2.3-3-5.2-2.6-8.1c0.4-2.9,1.7-5.7,4.1-7.6l12.3-10
		c20.4-14.9,48.8-14.9,69.1-0.1l12.4,10c2.4,1.9,3.8,4.6,4.1,7.6C-93.9,300.6-94.9,303.6-96.8,305.8z"/>
</g>
<g>
	<g>
		<path class="st2" d="M-138.2,468.4c-0.3,0-0.7,0-1,0h-11.6c-0.3,0-0.7,0-1,0l-4.1,0.4c-18,2.5-31.8,17.9-31.8,36.5V522
			c0,0.6,0.4,1,1,1h83.3c0.6,0,1-0.4,1-1v-16.8c0-18.6-13.8-33.9-31.8-36.5L-138.2,468.4z M-144.9,514.3c-10.2,0-18.5-8.3-18.5-18.5
			c0-10.2,8.2-18.5,18.5-18.5s18.5,8.3,18.5,18.5C-126.4,506-134.8,514.3-144.9,514.3z"/>
	</g>
	<g>
		<path class="st2" d="M-135.6,495.8c0,5.2-4.2,9.3-9.3,9.3s-9.3-4.2-9.3-9.3s4.2-9.3,9.3-9.3C-139.8,486.4-135.6,490.6-135.6,495.8
			z"/>
	</g>
</g>
<g>
	<path class="st2" d="M-97.1,465.8l-4.3,4.9c-1.1,1.2-2.5,1.8-4,1.8c-1.2,0-2.4-0.4-3.4-1.2l-14.8-11.8c-2.2-1.8-2.5-5-0.6-7.1
		l1.6-1.9c0.4-0.5,0.3-1.2-0.2-1.5c-13.7-8.3-31.4-8.3-45.1,0c-0.5,0.3-0.6,1-0.2,1.5l1.6,1.9c1,1,1.4,2.3,1.3,3.8
		c-0.1,1.3-0.7,2.5-1.9,3.5l-14.6,11.8c-2.2,1.8-5.6,1.5-7.4-0.6l-4.3-4.9c-2-2.3-3-5.2-2.6-8.1c0.3-2.9,1.7-5.7,4.1-7.6l12.3-10
		c20.4-14.9,48.8-14.9,69.1-0.1l12.4,10c2.4,1.9,3.8,4.6,4.1,7.6C-94.2,460.6-95.2,463.6-97.1,465.8z"/>
</g>
</svg>
