<?xml version="1.0" encoding="utf-8"?>
<!-- Generator: Adobe Illustrator 19.1.0, SVG Export Plug-In . SVG Version: 6.00 Build 0)  -->
<svg version="1.1" id="Layer_1" xmlns="http://www.w3.org/2000/svg" xmlns:xlink="http://www.w3.org/1999/xlink" x="0px" y="0px"
	 viewBox="0 0 32 64" style="enable-background:new 0 0 32 64;" xml:space="preserve">
<style type="text/css">
	.st0{fill:#FFFFFF;}
	.st1{fill:#27B8EB;}
</style>
<g>
	<g>
		<path class="st0" d="M16.412,24.082l7.668-7.668c0.1-0.1,0.171-0.256,0.171-0.412c0-0.156-0.071-0.313-0.171-0.412l-7.668-7.668
			c-0.227-0.227-0.596-0.227-0.824,0c-0.114,0.114-0.171,0.255-0.171,0.412c0,0.156,0.057,0.298,0.171,0.412l6.674,6.673H8.332
			c-0.327,0-0.582,0.256-0.582,0.582c0,0.327,0.256,0.583,0.582,0.583h13.93l-6.674,6.673c-0.227,0.228-0.227,0.596,0,0.824
			C15.815,24.31,16.185,24.295,16.412,24.082L16.412,24.082z M16.412,24.082"/>
	</g>
</g>
<g>
	<g>
		<path class="st1" d="M15.207,47.995l-7.312,7.312c-0.193,0.193-0.193,0.542,0,0.735c0.116,0.116,0.232,0.155,0.387,0.155
			c0.116,0,0.271-0.039,0.348-0.155l7.351-7.351l7.351,7.351c0.116,0.116,0.232,0.155,0.348,0.155s0.271-0.039,0.387-0.155
			c0.193-0.193,0.193-0.542,0-0.735l-7.273-7.312l7.312-7.312c0.193-0.193,0.193-0.542,0-0.735c-0.193-0.193-0.542-0.193-0.735,0
			l-7.351,7.351l-7.351-7.351c-0.193-0.193-0.542-0.193-0.735,0s-0.193,0.542,0,0.735L15.207,47.995z"/>
	</g>
</g>
</svg>
