<svg xmlns="http://www.w3.org/2000/svg" xmlns:xlink="http://www.w3.org/1999/xlink" width="38.994" height="38.994" viewBox="0 0 38.994 38.994">
  <defs>
    <clipPath id="clip-ic-social-yt">
      <rect width="38.994" height="38.994"/>
    </clipPath>
  </defs>
  <g id="ic-social-yt" clip-path="url(#clip-ic-social-yt)">
    <g id="surface1">
      <path id="Path_10510" data-name="Path 10510" d="M27.5,8a19.5,19.5,0,1,0,19.5,19.5A19.5,19.5,0,0,0,27.5,8Zm15.6,19.5A15.6,15.6,0,1,1,27.5,11.9,15.6,15.6,0,0,1,43.095,27.5Z" transform="translate(-8 -8)" fill="#fff"/>
      <g id="surface1-2" data-name="surface1" transform="translate(11.211 10.236)">
        <path id="Path_10491" data-name="Path 10491" d="M39.086,21.443a1.343,1.343,0,0,1-.522-.772,4.893,4.893,0,0,1-.158-1.389v-.79a4.579,4.579,0,0,1,.176-1.408,1.426,1.426,0,0,1,.555-.776,1.776,1.776,0,0,1,.989-.246,1.682,1.682,0,0,1,.967.25,1.425,1.425,0,0,1,.533.776,4.823,4.823,0,0,1,.169,1.4v.79a4.8,4.8,0,0,1-.165,1.4,1.392,1.392,0,0,1-.529.772,2.183,2.183,0,0,1-2.014-.007Zm1.375-.849a2.685,2.685,0,0,0,.1-.867V18.033a2.67,2.67,0,0,0-.1-.856.362.362,0,0,0-.36-.268.355.355,0,0,0-.349.268,2.67,2.67,0,0,0-.1.856v1.694a2.708,2.708,0,0,0,.1.867.357.357,0,0,0,.353.265A.363.363,0,0,0,40.461,20.594Z" transform="translate(-32.195 -14.166)" fill="#fff"/>
        <path id="Path_10492" data-name="Path 10492" d="M24.108,13.028,22.719,8h1.213l.489,2.279c.125.562.217,1.04.276,1.437h.033c.044-.283.136-.761.276-1.43L25.512,8h1.213l-1.408,5.028v2.411H24.108Z" transform="translate(-20.197 -8)" fill="#fff"/>
        <path id="Path_10493" data-name="Path 10493" d="M58.831,16.516v5.436h-.959l-.107-.665h-.026a1.25,1.25,0,0,1-1.169.753.911.911,0,0,1-.8-.357,1.882,1.882,0,0,1-.257-1.106V16.516H56.74v3.992a1.25,1.25,0,0,0,.077.518.281.281,0,0,0,.268.154.538.538,0,0,0,.305-.1.582.582,0,0,0,.217-.246V16.516Z" transform="translate(-45.28 -14.512)" fill="#fff"/>
        <path id="Path_10494" data-name="Path 10494" d="M67.321,62.861a.3.3,0,0,0-.243-.1.288.288,0,0,0-.243.1.6.6,0,0,0-.107.316,6.048,6.048,0,0,0-.026.673v.327h.757v-.327a5.079,5.079,0,0,0-.033-.673A.6.6,0,0,0,67.321,62.861Z" transform="translate(-53.835 -49.883)" fill="#fff"/>
        <path id="Path_10495" data-name="Path 10495" d="M53.124,63.043a.284.284,0,0,0-.243-.121.39.39,0,0,0-.279.118.682.682,0,0,0-.18.309v2.6a.489.489,0,0,0,.176.18.48.48,0,0,0,.239.059.319.319,0,0,0,.261-.118.857.857,0,0,0,.136-.4,5.441,5.441,0,0,0,.044-.787v-.592a6.878,6.878,0,0,0-.037-.831A.971.971,0,0,0,53.124,63.043Z" transform="translate(-42.914 -50.003)" fill="#fff"/>
        <path id="Path_10496" data-name="Path 10496" d="M27.055,44H13.882A1.885,1.885,0,0,0,12,45.882v6.586a1.885,1.885,0,0,0,1.882,1.882H27.055a1.885,1.885,0,0,0,1.882-1.882V45.882A1.885,1.885,0,0,0,27.055,44ZM16.374,52.395H15.363V46.944H14.338v-.831H17.4v.831H16.374Zm3.517,0h-.809l-.088-.562h-.022a1.062,1.062,0,0,1-.989.636.785.785,0,0,1-.676-.3,1.633,1.633,0,0,1-.217-.937V47.808h1.036v3.367a1.041,1.041,0,0,0,.066.437.233.233,0,0,0,.224.132.457.457,0,0,0,.257-.085.5.5,0,0,0,.184-.209V47.8h1.033Zm3.51-1.926a3.482,3.482,0,0,1-.246,1.511.817.817,0,0,1-.772.481,1.032,1.032,0,0,1-.529-.136.859.859,0,0,1-.36-.364h-.022l-.107.434h-.853V45.882h1V48.3h.007a1.087,1.087,0,0,1,.382-.423.965.965,0,0,1,.533-.162.808.808,0,0,1,.573.195,1.172,1.172,0,0,1,.305.629,6.042,6.042,0,0,1,.092,1.206Zm3.2-.026H24.868v.232c0,.294.011.518.026.665a.636.636,0,0,0,.11.32.3.3,0,0,0,.254.1.325.325,0,0,0,.32-.176,1.6,1.6,0,0,0,.092-.6l.889.051a1.038,1.038,0,0,1,.007.165,1.209,1.209,0,0,1-.346.948,1.411,1.411,0,0,1-.985.316,1.172,1.172,0,0,1-1.07-.478,2.8,2.8,0,0,1-.309-1.485v-.8a2.759,2.759,0,0,1,.32-1.507,1.208,1.208,0,0,1,1.088-.474,1.425,1.425,0,0,1,.816.195,1.046,1.046,0,0,1,.4.606,4.367,4.367,0,0,1,.114,1.136v.787Z" transform="translate(-12 -35.532)" fill="#fff"/>
      </g>
    </g>
  </g>
</svg>
