<svg xmlns="http://www.w3.org/2000/svg" xmlns:xlink="http://www.w3.org/1999/xlink" viewBox="0 0 105 40">
  <defs>
    <style>
      .cls-1 {
        clip-path: url(#clip-verified-1);
      }

      .cls-2 {
        fill: #fff;
      }

      .cls-3 {
        fill: #f1f1f1;
      }

      .cls-4 {
        fill: #0083ca;
      }

      .cls-5 {
        fill: #fefefe;
      }

      .cls-6 {
        fill: #fbfdfd;
      }

      .cls-7 {
        fill: #fdfdfe;
      }

      .cls-8 {
        fill: #fcfdfe;
      }

      .cls-9 {
        fill: #fdfefe;
      }

      .cls-10 {
        fill: #fbfcfd;
      }

      .cls-11 {
        fill: #007ec7;
      }

      .cls-12 {
        fill: #0078c5;
      }

      .cls-13 {
        fill: #f8fafc;
      }

      .cls-14 {
        fill: #0079c5;
      }

      .cls-15 {
        fill: #007ec8;
      }

      .cls-16 {
        fill: #a5c9e7;
      }

      .cls-17 {
        fill: #f7fafc;
      }

      .cls-18 {
        fill: #007ac6;
      }

      .cls-19 {
        fill: #007cc7;
      }

      .cls-20 {
        fill: #007bc6;
      }

      .cls-21 {
        fill: #007bc7;
      }

      .cls-22 {
        fill: #017dc7;
      }

      .cls-23 {
        fill: #0479c6;
      }

      .cls-24 {
        fill: #0077c5;
      }

      .cls-25 {
        fill: #0084ca;
      }

      .cls-26 {
        fill: #0184ca;
      }

      .cls-27 {
        fill: #0284ca;
      }

      .cls-28 {
        fill: #0177c5;
      }

      .cls-29 {
        fill: #a0c7e6;
      }

      .cls-30 {
        fill: #0077c4;
      }

      .cls-31 {
        fill: #fcfdfd;
      }

      .cls-32 {
        fill: #fafbfd;
      }

      .cls-33 {
        fill: #edf4fa;
      }

      .cls-34 {
        fill: #eef4fa;
      }

      .cls-35 {
        fill: #2e94d1;
      }

      .cls-36 {
        fill: #0384cb;
      }

      .cls-37 {
        fill: #0485cb;
      }
    </style>
    <clipPath id="clip-verified-1">
      <rect width="105" height="40"/>
    </clipPath>
  </defs>
  <g id="verified-1" class="cls-1">
    <g id="Group_705" data-name="Group 705">
      <path id="Path_1373" data-name="Path 1373" class="cls-2" d="M105.079,29.062a8.034,8.034,0,0,1-.5,1.231,4.143,4.143,0,0,1-3.723,2.143q-32.357-.01-64.714-.011a.773.773,0,0,0-.69.3,17.525,17.525,0,0,1-1.495,1.637,19.989,19.989,0,0,1-4.582,3.33,21.132,21.132,0,0,1-6.494,2.143c-.228.039-.459.065-.69.1-.23.077-.477-.037-.7.065h-.234a.425.425,0,0,0-.391,0H19.142a.6.6,0,0,0-.469,0H18.36c-.171-.081-.355-.021-.531-.041a15.685,15.685,0,0,1-4.333-.917,19.213,19.213,0,0,1-4.216-2A19.9,19.9,0,0,1,6.7,35.094a20.649,20.649,0,0,1-3.053-3.377A19.274,19.274,0,0,1,.681,25.649a13.167,13.167,0,0,1-.64-3.477A1.54,1.54,0,0,0,0,21.641v-.469A.6.6,0,0,0,0,20.7V19.3a.6.6,0,0,0,0-.469v-.469a1.537,1.537,0,0,0,.041-.531,14.626,14.626,0,0,1,.837-4.112,20.221,20.221,0,0,1,8.2-10.633A19.967,19.967,0,0,1,16.864.116a8.381,8.381,0,0,1,.969-.075c.2-.023.407.047.6-.041h.313a.6.6,0,0,0,.469,0H20.78a.6.6,0,0,0,.469,0h.234c.228.1.474-.011.7.065a21.42,21.42,0,0,1,5.6,1.48A19.3,19.3,0,0,1,32.311,4.2a18.926,18.926,0,0,1,3.381,3.371.557.557,0,0,0,.5.221c1.47-.008,2.943,0,4.413,0q30.071,0,60.143-.011a4.294,4.294,0,0,1,3.026,1.115A3.485,3.485,0,0,1,105,11.208c0,.054.011.1.073.119Q105.08,20.2,105.079,29.062Z"/>
      <path id="Path_1374" data-name="Path 1374" class="cls-3" d="M13.9.065c-.236-.007-.48.08-.7-.065h.7C13.9.021,13.9.044,13.9.065Z" transform="translate(8.291 0)"/>
      <path id="Path_1375" data-name="Path 1375" class="cls-3" d="M13.194,24.6c.223-.145.467-.059.7-.065,0,.021,0,.044,0,.065Z" transform="translate(8.291 15.403)"/>
      <path id="Path_1376" data-name="Path 1376" class="cls-3" d="M10.938.065c0-.021,0-.044,0-.065h.625C11.37.16,11.148.05,10.938.065Z" transform="translate(6.873 0)"/>
      <path id="Path_1377" data-name="Path 1377" class="cls-3" d="M.065,13.838l-.033,0-.033,0v-.547C.153,13.457.059,13.654.065,13.838Z" transform="translate(0 8.351)"/>
      <path id="Path_1378" data-name="Path 1378" class="cls-3" d="M0,10.94a.435.435,0,0,1,.065,0c-.007.184.088.381-.065.549Z" transform="translate(0 6.873)"/>
      <path id="Path_1379" data-name="Path 1379" class="cls-3" d="M10.94,24.6c0-.021,0-.044,0-.065.184.007.381-.088.547.065Z" transform="translate(6.873 15.402)"/>
      <path id="Path_1380" data-name="Path 1380" class="cls-2" d="M0,12.714a.351.351,0,0,1,0,.469Z" transform="translate(0 7.989)"/>
      <path id="Path_1381" data-name="Path 1381" class="cls-2" d="M13.231,0a.349.349,0,0,1-.469,0Z" transform="translate(8.02 0)"/>
      <path id="Path_1382" data-name="Path 1382" class="cls-2" d="M11.983,0a.349.349,0,0,1-.469,0Z" transform="translate(7.235 0)"/>
      <path id="Path_1383" data-name="Path 1383" class="cls-2" d="M0,11.562a.351.351,0,0,1,0,.469Z" transform="translate(0 7.266)"/>
      <path id="Path_1384" data-name="Path 1384" class="cls-2" d="M11.466,24.6a.353.353,0,0,1,.469,0Z" transform="translate(7.205 15.401)"/>
      <path id="Path_1385" data-name="Path 1385" class="cls-2" d="M12.81,24.6a.267.267,0,0,1,.391,0Z" transform="translate(8.05 15.403)"/>
      <path id="Path_1386" data-name="Path 1386" class="cls-4" d="M21.966,5.091c.13,0,.261-.011.389-.011q32.377,0,64.753-.015a3.784,3.784,0,0,1,3.768,3.071,3.073,3.073,0,0,1,.044.5q0,8.3,0,16.6A3.664,3.664,0,0,1,87.4,28.779q-32.728,0-65.455,0c-.052,0-.1,0-.156-.007-.062-.23.114-.36.223-.51a19.511,19.511,0,0,0,3.17-6.83,18.7,18.7,0,0,0,.542-5.576A19.49,19.49,0,0,0,22.24,5.687C22.118,5.513,21.877,5.37,21.966,5.091Z" transform="translate(13.686 3.183)"/>
      <path id="Path_1387" data-name="Path 1387" class="cls-5" d="M35.477,8.1a20.778,20.778,0,0,1,2.179,3.768,19.332,19.332,0,0,1-2.12,19.56c-.081.116-.156.236-.233.353A19.6,19.6,0,0,1,27.261,37.9,19.254,19.254,0,0,1,18.6,39.331,19.526,19.526,0,0,1,15.624.772c8-1.646,14.62.9,19.775,7.235C35.424,8.038,35.451,8.066,35.477,8.1Z" transform="translate(0.175 0.179)"/>
      <path id="Path_1388" data-name="Path 1388" class="cls-6" d="M27.309,13.948a1.349,1.349,0,0,1,0-.536c.117-.085.252-.044.379-.044q27.394,0,54.787,0c.125,0,.261-.047.375.05,0,.174,0,.348,0,.524-.117.085-.252.044-.379.044q-27.391,0-54.784,0A.679.679,0,0,1,27.309,13.948Z" transform="translate(17.145 8.394)"/>
      <path id="Path_1389" data-name="Path 1389" class="cls-5" d="M44.44,15.04c0-2.459,0-4.918-.015-7.378,0-.238.091-.28.3-.274a11.994,11.994,0,0,0,1.21,0c.265-.018.357.1.427.324.42,1.352.853,2.7,1.332,4.05.007-.1.018-.2.018-.306,0-1.236.007-2.472,0-3.708,0-.252.033-.363.329-.36.975.007.975-.007.975.964,0,2.122-.007,4.242.008,6.364,0,.326-.091.44-.414.405-.36-.039-.809.142-1.06-.072-.23-.2-.256-.633-.363-.966q-.672-2.1-1.34-4.195c-.225.046-.117.226-.119.339-.008,1.483,0,2.967,0,4.449,0,.414,0,.422-.43.41A2.686,2.686,0,0,1,44.44,15.04Z" transform="translate(27.917 4.639)"/>
      <path id="Path_1390" data-name="Path 1390" class="cls-5" d="M27.449,15.11c-.007-1.013-.018-2.027-.018-3.04,0-.2-.021-.337-.269-.3-.176.026-.225-.07-.218-.228a3.754,3.754,0,0,0,0-.506c-.015-.171.047-.246.217-.223.241.031.272-.1.27-.3-.008-.923,0-1.847-.01-2.768,0-.261.049-.363.335-.355.7.021,1.4,0,2.106.01A1.76,1.76,0,0,1,31.836,9.37c.007,1.156,0,2.314,0,3.47,0,1.5-.274,1.873-1.684,2.273a9.629,9.629,0,0,1-1.72.044A2.787,2.787,0,0,1,27.449,15.11Z" transform="translate(16.93 4.641)"/>
      <path id="Path_1391" data-name="Path 1391" class="cls-5" d="M55.653,10.967a1.626,1.626,0,0,1,1.01,1.775c0,.13,0,.261,0,.391a1.7,1.7,0,0,1-1.785,1.956c-.8.055-1.612.015-2.418.028-.2,0-.234-.1-.231-.267.007-.3,0-.6,0-.9,0-2.055.008-4.112-.008-6.167,0-.335.1-.417.414-.4a19.908,19.908,0,0,1,2.57.08,1.445,1.445,0,0,1,1.311,1.461c.007.078.011.156.013.234A1.664,1.664,0,0,1,55.653,10.967Z" transform="translate(32.816 4.639)"/>
      <path id="Path_1392" data-name="Path 1392" class="cls-5" d="M37.864,11.274c0-1.171.011-2.343-.008-3.514,0-.3.086-.386.371-.358a3.755,3.755,0,0,0,.741,0c.287-.028.344.091.339.353-.015.884,0,1.77-.01,2.656,0,.238.036.373.316.344.422-.046.977.182,1.233-.094.205-.22.064-.765.068-1.168,0-.586.011-1.172,0-1.757-.007-.243.046-.36.318-.334.373.036.858-.153,1.093.07s.07.715.072,1.088c.008,2.057,0,4.113.011,6.17,0,.331-.093.438-.414.4a3.066,3.066,0,0,0-.7,0c-.326.039-.386-.1-.379-.4.018-.845,0-1.692.013-2.539.007-.28-.083-.366-.352-.34-.409.041-.943-.173-1.2.086-.236.239-.059.767-.067,1.168-.01.547-.016,1.094,0,1.64.01.277-.046.415-.358.379-.345-.041-.8.142-1.016-.072s-.064-.666-.067-1.013C37.858,13.122,37.864,12.2,37.864,11.274Z" transform="translate(23.764 4.626)"/>
      <path id="Path_1393" data-name="Path 1393" class="cls-5" d="M45.551,11.271c0,.664.008,1.329,0,1.992a1.755,1.755,0,0,1-1.694,1.917,3.509,3.509,0,0,1-.9.01,1.8,1.8,0,0,1-1.785-2q0-1.913,0-3.827a1.833,1.833,0,0,1,1.977-2.016,3.341,3.341,0,0,1,1.2.134,1.6,1.6,0,0,1,1.184,1.529c.034.754.008,1.51.008,2.265C45.542,11.271,45.547,11.271,45.551,11.271Z" transform="translate(25.873 4.614)"/>
      <path id="Path_1394" data-name="Path 1394" class="cls-5" d="M58.66,11.276c0-.664-.007-1.327,0-1.992a1.79,1.79,0,0,1,1.85-1.933,3.819,3.819,0,0,1,1.088.062,1.607,1.607,0,0,1,1.4,1.557,41.266,41.266,0,0,1,0,4.643,1.557,1.557,0,0,1-1.2,1.467,3.224,3.224,0,0,1-1.775.034,1.677,1.677,0,0,1-1.35-1.729c-.02-.7,0-1.405,0-2.109Z" transform="translate(36.859 4.612)"/>
      <path id="Path_1395" data-name="Path 1395" class="cls-5" d="M49.279,13.587a.643.643,0,0,0,.8.48c.352-.037.594-.2.606-.585.013-.441,0-.884.018-1.326.008-.223-.13-.231-.277-.207-.321.052-.384-.093-.378-.388.018-.726,0-.728.736-.726.352,0,.7.008,1.054,0,.189,0,.244.067.243.251-.01.78.015,1.562-.015,2.342A1.678,1.678,0,0,1,50.5,15.164a4.137,4.137,0,0,1-.738.042,1.81,1.81,0,0,1-1.98-2.034q0-1.913,0-3.823a1.8,1.8,0,0,1,1.97-2,4.494,4.494,0,0,1,.663.018,1.77,1.77,0,0,1,1.664,1.946c.013.746.013.746-.725.746-.645,0-.645,0-.651-.663-.008-.759-.352-1.065-.99-.887a.5.5,0,0,0-.435.477C49.273,10.515,49.268,12.052,49.279,13.587Z" transform="translate(30.024 4.615)"/>
      <path id="Path_1396" data-name="Path 1396" class="cls-5" d="M57.831,7.4c.285.036.731-.151.953.077.2.2.163.635.226.967.4,2.079.788,4.161,1.194,6.237.062.314.067.5-.34.446-.334-.039-.746.091-.99-.064s-.184-.62-.243-.948c-.047-.254-.125-.352-.391-.335-.389.023-.78.016-1.171,0-.2-.008-.277.057-.3.254s-.1.381-.109.573c-.015.4-.171.542-.594.523-.832-.039-.834-.011-.679-.826.415-2.2.837-4.39,1.238-6.589.049-.267.147-.344.4-.324S57.524,7.4,57.831,7.4Z" transform="translate(34.758 4.628)"/>
      <path id="Path_1397" data-name="Path 1397" class="cls-5" d="M33.868,15.107c-.077-.366-.168-.731-.223-1.1-.028-.186-.1-.239-.275-.231-.194.01-.389,0-.583,0-.944,0-.943,0-1.109.951-.023.127-.055.252-.083.379a2.787,2.787,0,0,1-1.316-.018c.467-2.477.94-4.954,1.4-7.434.039-.215.122-.275.329-.27.534.011,1.067.01,1.6,0,.166,0,.259.034.293.218q.689,3.679,1.384,7.357a.549.549,0,0,1-.015.153A3.9,3.9,0,0,1,33.868,15.107Z" transform="translate(19.027 4.641)"/>
      <path id="Path_1398" data-name="Path 1398" class="cls-5" d="M37.727,11.817c0,.99-.008,1.979.007,2.969,0,.254-.065.352-.326.329a4.8,4.8,0,0,0-.78,0c-.278.024-.348-.083-.347-.352.01-1.939,0-3.88.015-5.82,0-.358-.091-.5-.451-.445a2,2,0,0,1-.313,0c-.793,0-.9-.138-.762-.944.029-.173.124-.168.244-.168,1.329,0,2.656,0,3.985,0,.182,0,.243.052.254.241.052.873.059.873-.795.873-.73,0-.73,0-.73.738Q37.726,10.53,37.727,11.817Z" transform="translate(21.817 4.641)"/>
      <path id="Path_1399" data-name="Path 1399" class="cls-7" d="M41.893,18.74c.15.2.127.028.129-.064,0-.534,0-1.067,0-1.6,0-.5.015-.99,0-1.483-.011-.278.14-.274.34-.278s.3.046.3.28c-.01,1.353,0,2.706-.01,4.06,0,.135.106.362-.114.394s-.475.1-.653-.187c-.513-.829-1.054-1.641-1.584-2.461-.176-.272-.353-.542-.544-.832-.112.129-.064.262-.064.379,0,.936-.01,1.874,0,2.811,0,.238-.059.322-.3.313-.221-.01-.357-.016-.353-.308.015-1.353,0-2.706.011-4.06,0-.134-.1-.357.145-.373.2-.015.433-.1.593.158.4.653.824,1.295,1.244,1.936.256.391.521.775.782,1.161C41.879,18.613,41.919,18.656,41.893,18.74Z" transform="translate(24.523 9.617)"/>
      <path id="Path_1400" data-name="Path 1400" class="cls-5" d="M57.116,16.605c0,1.037-.01,2.076.007,3.114,0,.272-.07.35-.345.353-.291,0-.3-.13-.3-.353.007-1.3,0-2.6.011-3.9,0-.163-.148-.427.142-.487a.569.569,0,0,1,.681.29c.632,1.031,1.306,2.037,1.964,3.053.036.054.075.1.116.161.129-.073.065-.189.065-.278,0-.964.008-1.926,0-2.89,0-.223.011-.355.3-.357s.332.121.331.37c-.01,1.314,0,2.63-.011,3.944,0,.145.125.381-.117.427a.548.548,0,0,1-.669-.231c-.506-.834-1.052-1.643-1.583-2.462q-.254-.391-.508-.778Z" transform="translate(35.472 9.618)"/>
      <path id="Path_1401" data-name="Path 1401" class="cls-7" d="M29.787,17.574a1.286,1.286,0,0,1-.339,2.434,12.492,12.492,0,0,1-1.944.049c-.179,0-.166-.122-.166-.241q0-2.125,0-4.25c0-.176.044-.261.241-.256.532.016,1.067-.01,1.6.033a1.165,1.165,0,0,1,1.181.84C30.51,16.756,30.373,17.111,29.787,17.574Z" transform="translate(17.178 9.621)"/>
      <path id="Path_1402" data-name="Path 1402" class="cls-5" d="M53.539,17.813a3.266,3.266,0,0,1,.347-1.47,1.808,1.808,0,0,1,2.6-.612c.4.269.692.151.8-.321.015-.064.02-.129.031-.192.041-.251.238-.14.373-.153.171-.016.176.1.164.23a1.056,1.056,0,0,1-.576.951c-.174.083-.223.137-.143.34a3.82,3.82,0,0,1,.107,2.19,1.72,1.72,0,0,1-1.84,1.508A1.825,1.825,0,0,1,53.64,18.7C53.581,18.411,53.57,18.111,53.539,17.813Z" transform="translate(33.644 9.458)"/>
      <path id="Path_1403" data-name="Path 1403" class="cls-8" d="M51.623,20.07c-.609,0-.609,0-.609-.619,0-.428-.01-.855,0-1.283.007-.221-.068-.291-.29-.288-.6.013-1.192.011-1.788,0-.205,0-.27.067-.265.267.011.479,0,.959,0,1.438,0,.537-.13.614-.677.4-.062-.065-.046-.147-.046-.221V15.624c0-.077-.016-.158.047-.221.552-.21.676-.135.676.41,0,.415.008.832,0,1.247,0,.2.033.308.274.3.6-.016,1.2-.015,1.795,0,.239.007.28-.1.275-.3-.01-.415,0-.832,0-1.247,0-.542.1-.6.643-.414a.3.3,0,0,1,.044.223q0,2.108,0,4.214C51.7,19.918,51.748,20.027,51.623,20.07Z" transform="translate(30.133 9.611)"/>
      <path id="Path_1404" data-name="Path 1404" class="cls-9" d="M50.812,17.2c0-.5.011-.99,0-1.483-.008-.234.054-.316.3-.316s.337.068.332.329q-.022,1.444,0,2.89a1.011,1.011,0,0,0,1.295,1.062.863.863,0,0,0,.821-.887c.033-1,.029-2,.034-3.006,0-.221-.018-.394.309-.392.309,0,.337.14.326.379,0,.1-.068.254.086.3.119.034.225-.05.316-.124a.686.686,0,0,0,.241-.555c0-.257.16-.246.34-.244.265,0,.2.186.182.331a1.058,1.058,0,0,1-.931,1.042.267.267,0,0,0-.241.318q.012.86,0,1.718a1.57,1.57,0,0,1-1.71,1.654,1.533,1.533,0,0,1-1.7-1.65C50.809,18.115,50.812,17.659,50.812,17.2Z" transform="translate(31.927 9.523)"/>
      <path id="Path_1405" data-name="Path 1405" class="cls-9" d="M45.447,19.46a2.084,2.084,0,0,1-2.319.572,1.846,1.846,0,0,1-1.286-1.741,3.9,3.9,0,0,1,.176-1.923A1.737,1.737,0,0,1,43.978,15.3a1.5,1.5,0,0,1,1.428,1.41c-.324.039-.58.088-.751-.35a1.129,1.129,0,0,0-1.915-.068,3.317,3.317,0,0,0,.01,2.783,1.433,1.433,0,0,0,1.887.352.344.344,0,0,0,.179-.321,4.7,4.7,0,0,1,0-.586c.02-.231-.083-.3-.3-.283-.168.013-.339-.01-.506,0-.218.02-.293-.055-.291-.282s.1-.257.283-.248a13.727,13.727,0,0,1,1.441.036A7.011,7.011,0,0,1,45.447,19.46Z" transform="translate(26.266 9.602)"/>
      <path id="Path_1406" data-name="Path 1406" class="cls-9" d="M36.165,17.715a2.866,2.866,0,0,1,.244-1.389,1.706,1.706,0,0,1,1.684-1.042A1.642,1.642,0,0,1,39.7,16.377a3.576,3.576,0,0,1,0,2.666,1.639,1.639,0,0,1-1.641,1.094,1.713,1.713,0,0,1-1.667-1.07A2.846,2.846,0,0,1,36.165,17.715Z" transform="translate(22.723 9.604)"/>
      <path id="Path_1407" data-name="Path 1407" class="cls-9" d="M29.747,17.73A2.82,2.82,0,0,1,30,16.312a1.7,1.7,0,0,1,1.654-1.028,1.641,1.641,0,0,1,1.619,1.073,3.59,3.59,0,0,1,0,2.7,1.629,1.629,0,0,1-1.612,1.078,1.708,1.708,0,0,1-1.679-1.052A2.734,2.734,0,0,1,29.747,17.73Z" transform="translate(18.688 9.604)"/>
      <path id="Path_1408" data-name="Path 1408" class="cls-5" d="M62.886,16.707c-.329.052-.578.077-.746-.35a1.131,1.131,0,0,0-2.053.21,3.492,3.492,0,0,0,0,2.218,1.372,1.372,0,0,0,2.014.65.324.324,0,0,0,.184-.316,1.251,1.251,0,0,1,0-.156c0-.716,0-.726-.707-.716-.259,0-.435-.02-.386-.347.02-.132.068-.182.194-.182.443,0,.884,0,1.327,0,.16,0,.2.075.194.215,0,.467,0,.936,0,1.4,0,.275-.226.4-.423.516a2.022,2.022,0,0,1-3.125-1.373,3.819,3.819,0,0,1,.14-2.114A1.735,1.735,0,0,1,61.461,15.3,1.5,1.5,0,0,1,62.886,16.707Z" transform="translate(37.249 9.603)"/>
      <path id="Path_1409" data-name="Path 1409" class="cls-9" d="M33.533,17.7a2.782,2.782,0,0,1,.218-1.376,1.851,1.851,0,0,1,2.687-.746,1.415,1.415,0,0,1,.6.881c.026.12.251.345-.041.407-.21.044-.492.125-.563-.261a.912.912,0,0,0-.894-.785,1.083,1.083,0,0,0-1.181.646,3.384,3.384,0,0,0,0,2.509,1.037,1.037,0,0,0,1.135.648.956.956,0,0,0,.944-.78.445.445,0,0,1,.6-.272c.151.072.057.176.037.265a1.533,1.533,0,0,1-1.381,1.285,1.742,1.742,0,0,1-1.884-.874A2.815,2.815,0,0,1,33.533,17.7Z" transform="translate(21.066 9.596)"/>
      <path id="Path_1410" data-name="Path 1410" class="cls-10" d="M46.817,15.926a3.258,3.258,0,0,0-1.13-.068c-.189-.015-.347.016-.347-.27s.137-.277.339-.275q1.495.007,2.993,0c.2,0,.335,0,.337.278,0,.29-.161.254-.348.269a3.3,3.3,0,0,0-1.13.068c.073.661.02,1.324.029,1.987.01.612.007,1.225,0,1.835,0,.1.068.238-.075.311h-.619c-.109-.029-.08-.119-.08-.191,0-1.278,0-2.557,0-3.833A.312.312,0,0,1,46.817,15.926Z" transform="translate(28.492 9.622)"/>
      <path id="Path_1411" data-name="Path 1411" class="cls-11" d="M27.3,13.723l55.037,0c.169,0,.339,0,.508,0-.109.142-.264.085-.4.085q-27.372,0-54.742,0C27.566,13.8,27.413,13.854,27.3,13.723Z" transform="translate(17.155 8.619)"/>
      <path id="Path_1412" data-name="Path 1412" class="cls-12" d="M82.841,13.433c-.169,0-.339,0-.508,0H27.808l-.508,0c.109-.14.264-.083.4-.085q27.374,0,54.747,0C82.581,13.344,82.737,13.283,82.841,13.433Z" transform="translate(17.155 8.378)"/>
      <path id="Path_1413" data-name="Path 1413" class="cls-9" d="M33.088,7.606a1.952,1.952,0,0,1-.669-.121.943.943,0,0,0-.948.127c-.215.176-.423-.138-.625-.244s-.036-.251.028-.355a1.194,1.194,0,0,1,1.339-.48c.2.044.4.1.6.161a.763.763,0,0,0,.567-.067c.1-.049.129-.241.269-.177a3.384,3.384,0,0,1,.563.344c.107.078,0,.168-.041.238A1.069,1.069,0,0,1,33.088,7.606Z" transform="translate(19.321 4.045)"/>
      <path id="Path_1414" data-name="Path 1414" class="cls-9" d="M44.937,7.634c-.324,0-.646-.008-.971,0-.3.01-.391-.264-.576-.41-.1-.077-.189-.236-.3-.049-.4.66-1.031.42-1.685.453.391-.4.733-.746,1.067-1.1.094-.1.21-.072.322-.09a1.688,1.688,0,0,1,1.808.733,1.865,1.865,0,0,0,.417.335C44.991,7.551,44.963,7.591,44.937,7.634Z" transform="translate(26.017 4.027)"/>
      <path id="Path_1415" data-name="Path 1415" class="cls-8" d="M56.368,7.615a1.025,1.025,0,0,1,.036-.1c.754-1.122.754-1.122,2.218-1.07-.371.334-.713.594-1,.909C57.26,7.755,56.824,7.587,56.368,7.615Z" transform="translate(35.422 4.04)"/>
      <path id="Path_1416" data-name="Path 1416" class="cls-13" d="M36.72,15.444c.27-.3.493-.581.749-.827a.342.342,0,0,1,.49.015c.243.244.459.515.716.806a.55.55,0,0,1-.705-.2c-.173-.267-.344-.318-.526-.01C37.29,15.5,37.057,15.525,36.72,15.444Z" transform="translate(23.075 9.124)"/>
      <path id="Path_1417" data-name="Path 1417" class="cls-13" d="M32.244,15.435a.576.576,0,0,1-.757-.259c-.148-.23-.283-.221-.423,0a.582.582,0,0,1-.747.265,4.661,4.661,0,0,1,.791-.87.329.329,0,0,1,.428.055C31.767,14.885,31.99,15.145,32.244,15.435Z" transform="translate(19.051 9.124)"/>
      <path id="Path_1418" data-name="Path 1418" class="cls-14" d="M48.721,12.956a1.245,1.245,0,0,1-.049-.536q0-1.786,0-3.573a1.2,1.2,0,0,1,.046-.5c.094.077.075.186.075.287q0,2.015,0,4.032C48.793,12.768,48.814,12.876,48.721,12.956Z" transform="translate(30.582 5.247)"/>
      <path id="Path_1419" data-name="Path 1419" class="cls-14" d="M52.157,14.978V7.452h.037v7.541Z" transform="translate(32.775 4.683)"/>
      <path id="Path_1420" data-name="Path 1420" class="cls-15" d="M37.764,14.978V7.452H37.8v7.541A.382.382,0,0,1,37.764,14.978Z" transform="translate(23.731 4.683)"/>
      <path id="Path_1421" data-name="Path 1421" class="cls-16" d="M44.434,14.173c.3,0,.6,0,.9.018.274.021.355-.08.353-.352-.011-1.6-.007-3.193-.007-4.791V8.762a.208.208,0,0,1,.158.254c-.135.1-.07.239-.07.36,0,1.5-.01,3.011,0,4.516,0,.283-.067.422-.366.373C45.08,14.212,44.74,14.375,44.434,14.173Z" transform="translate(27.922 5.506)"/>
      <path id="Path_1422" data-name="Path 1422" class="cls-17" d="M31.377,18.79c0,.28-.125.4-.36.394a.31.31,0,0,1-.339-.335.318.318,0,0,1,.363-.352A.306.306,0,0,1,31.377,18.79Z" transform="translate(19.278 11.623)"/>
      <path id="Path_1423" data-name="Path 1423" class="cls-18" d="M48.018,15.367q0,2.291,0,4.581c-.122.047-.085-.052-.085-.1q0-2.193,0-4.387a.287.287,0,0,1,.024-.1S48,15.362,48.018,15.367Z" transform="translate(30.117 9.65)"/>
      <path id="Path_1424" data-name="Path 1424" class="cls-19" d="M50.206,20.031q.01-2.005.021-4.009c0-.22.01-.441.013-.661.155-.028.081.1.081.143q.007,2.118,0,4.234C50.325,19.847,50.356,19.977,50.206,20.031Z" transform="translate(31.549 9.65)"/>
      <path id="Path_1425" data-name="Path 1425" class="cls-18" d="M38.968,19.949V15.36H39v4.589Z" transform="translate(24.487 9.652)"/>
      <path id="Path_1426" data-name="Path 1426" class="cls-19" d="M27.257,19.926V15.368H27.3v4.573A.382.382,0,0,1,27.257,19.926Z" transform="translate(17.128 9.657)"/>
      <path id="Path_1427" data-name="Path 1427" class="cls-19" d="M30.042,8.418v4.4H30V8.4Z" transform="translate(18.854 5.28)"/>
      <path id="Path_1428" data-name="Path 1428" class="cls-19" d="M58.635,8.418v4.4H58.6V8.4Z" transform="translate(36.822 5.28)"/>
      <path id="Path_1429" data-name="Path 1429" class="cls-20" d="M46.275,15.689q.012,1.7.028,3.394c0,.248.013.493.021.741-.109-.034-.12-.122-.12-.217,0-1.247,0-2.5,0-3.744A.463.463,0,0,1,46.275,15.689Z" transform="translate(29.034 9.859)"/>
      <path id="Path_1430" data-name="Path 1430" class="cls-21" d="M46.656,19.823q.01-1.834.021-3.669c0-.155.016-.309.024-.466.1.093.072.217.072.329,0,1.156,0,2.312,0,3.468C46.773,19.608,46.824,19.757,46.656,19.823Z" transform="translate(29.319 9.858)"/>
      <path id="Path_1431" data-name="Path 1431" class="cls-22" d="M40.82,18.709l-.088-.155a.866.866,0,0,0,.078-.492c0-.9,0-1.806.042-2.708A26.2,26.2,0,0,1,40.82,18.709Z" transform="translate(25.596 9.648)"/>
      <path id="Path_1432" data-name="Path 1432" class="cls-23" d="M27.253,12.129l2.706,0c.041.016.106.073.088.073a20.688,20.688,0,0,1-2.77-.046C27.268,12.157,27.261,12.139,27.253,12.129Z" transform="translate(17.126 7.622)"/>
      <path id="Path_1433" data-name="Path 1433" class="cls-12" d="M44.039,18.507q0-.855,0-1.71l.065,0A5.974,5.974,0,0,1,44.039,18.507Z" transform="translate(27.674 10.555)"/>
      <path id="Path_1434" data-name="Path 1434" class="cls-24" d="M32.483,12.127l1.4.008A2.2,2.2,0,0,1,32.483,12.127Z" transform="translate(20.412 7.621)"/>
      <path id="Path_1435" data-name="Path 1435" class="cls-24" d="M30.278,12.117l1.316.018A1.8,1.8,0,0,1,30.278,12.117Z" transform="translate(19.027 7.614)"/>
      <path id="Path_1436" data-name="Path 1436" class="cls-4" d="M33.159,16.124a12.242,12.242,0,0,1,.134,2.938,15,15,0,0,1-5.649,10.99,15.191,15.191,0,1,1,3.776-19.2c.129.234.114.326-.13.459a5.178,5.178,0,0,0-1.06.974Q23.705,18.769,17.2,25.27c-.256.256-.368.215-.6-.015q-3.461-3.471-6.943-6.921a1.467,1.467,0,0,0-2.291,0c-.388.386-.78.767-1.161,1.158a1.406,1.406,0,0,0,.01,2.114q4.8,4.785,9.608,9.559a1.406,1.406,0,0,0,2.171-.026Q25.4,23.77,32.806,16.4a2.449,2.449,0,0,0,.246-.35Z" transform="translate(1.843 1.894)"/>
      <path id="Path_1437" data-name="Path 1437" class="cls-25" d="M28.191,13.517a11.47,11.47,0,0,1-.055-2.034c-.007-.205.184-.124.3-.142.187-.029.451.1.549-.065.127-.217.036-.5.041-.762,0-.1-.072-.127-.156-.13a1.8,1.8,0,0,0-.311,0c-.337.052-.458-.065-.435-.42.033-.531.016-1.063,0-1.6,0-.21.049-.318.282-.3a4.106,4.106,0,0,1,.773.047c.246.072.422.2.427.48-.018,1.487-.007,2.972-.007,4.459-.042.378-.3.472-.627.469a.282.282,0,0,0-.184-.042c-.557-.016-.555-.018-.559-.591,0-.456.015-.912-.031-1.365-.037-.049-.057.041-.02,0A9.177,9.177,0,0,1,28.191,13.517Z" transform="translate(17.668 5.071)"/>
      <path id="Path_1438" data-name="Path 1438" class="cls-19" d="M29.059,12.852c-.111-.088-.078-.212-.08-.324q0-1.905,0-3.812c0-.112-.029-.238.085-.322a.52.52,0,0,1,.049.339q0,1.891,0,3.781A.482.482,0,0,1,29.059,12.852Z" transform="translate(18.208 5.274)"/>
      <path id="Path_1439" data-name="Path 1439" class="cls-19" d="M28.162,12.19V10.183c.026,0,.052,0,.078,0,0,.49.023.98-.008,1.467-.023.368.086.532.466.472a.233.233,0,0,1,.246.078A2.138,2.138,0,0,1,28.162,12.19Z" transform="translate(17.697 6.398)"/>
      <path id="Path_1440" data-name="Path 1440" class="cls-26" d="M53.115,11.185c0-.324,0-.65,0-.974,0-.164.054-.239.226-.228s.339,0,.506.008c.578.042.785.251.809.83.011.285.013.572,0,.857-.023.44-.189.606-.614.656-.922.107-.922.107-.922-.8C53.115,11.42,53.115,11.3,53.115,11.185Z" transform="translate(33.376 6.273)"/>
      <path id="Path_1441" data-name="Path 1441" class="cls-27" d="M53.123,9.072a1.035,1.035,0,0,1,.007-.348c.086-.223-.269-.648.3-.653.817-.008,1.055.142,1.081.723,0,.091,0,.182,0,.274,0,.819-.388,1.137-1.213,1.018-.164-.023-.186-.1-.184-.231C53.125,9.591,53.123,9.332,53.123,9.072Z" transform="translate(33.367 5.071)"/>
      <path id="Path_1442" data-name="Path 1442" class="cls-25" d="M43.541,10.844c0,.69.015,1.379,0,2.068-.015.555-.322.793-.871.723a.587.587,0,0,1-.585-.612c-.01-1.457-.013-2.915,0-4.372,0-.4.282-.614.707-.624s.71.191.728.593c.031.739.008,1.482.008,2.224Z" transform="translate(26.438 5.044)"/>
      <path id="Path_1443" data-name="Path 1443" class="cls-25" d="M61.019,10.854c0,.677.007,1.353,0,2.031-.007.528-.236.757-.726.76s-.741-.243-.743-.787q-.007-2.01,0-4.022c0-.542.244-.806.731-.809s.733.252.739.8C61.026,9.5,61.019,10.178,61.019,10.854Z" transform="translate(37.417 5.044)"/>
      <path id="Path_1444" data-name="Path 1444" class="cls-26" d="M56.379,11.807q.274-1.6.547-3.2c.057-.047-.013-.207.145-.163q.291,1.661.58,3.324c.011.064.09.145-.031.189a4.211,4.211,0,0,0-.905-.041C56.592,11.912,56.452,11.959,56.379,11.807Z" transform="translate(35.429 5.304)"/>
      <path id="Path_1445" data-name="Path 1445" class="cls-28" d="M56.384,10.508c.243.138.506.049.76.078.161.018.339-.064.479.077-.347.007-.692.015-1.039.018C56.473,10.681,56.33,10.705,56.384,10.508Z" transform="translate(35.424 6.603)"/>
      <path id="Path_1446" data-name="Path 1446" class="cls-29" d="M56.865,8.519c-.094.013-.086.117-.145.163a1.2,1.2,0,0,1-.011-.186c0-.068-.008-.181.093-.168C56.884,8.34,56.875,8.444,56.865,8.519Z" transform="translate(35.635 5.233)"/>
      <path id="Path_1447" data-name="Path 1447" class="cls-26" d="M31.382,11.9q.3-1.737.6-3.473l.093,0q.305,1.739.609,3.477A4.643,4.643,0,0,1,31.382,11.9Z" transform="translate(19.72 5.291)"/>
      <path id="Path_1448" data-name="Path 1448" class="cls-30" d="M31.382,10.555h1.3A1.8,1.8,0,0,1,31.382,10.555Z" transform="translate(19.72 6.633)"/>
      <path id="Path_1449" data-name="Path 1449" class="cls-26" d="M27.73,17.7c0-.821,0-.821.834-.821.746,0,.98.148,1.075.674a.786.786,0,0,1-.728.984c-.308.031-.622,0-.931.023-.221.015-.262-.09-.251-.277S27.73,17.891,27.73,17.7Z" transform="translate(17.424 10.605)"/>
      <path id="Path_1450" data-name="Path 1450" class="cls-26" d="M27.73,16.362c0-.721,0-.721.738-.718a2.837,2.837,0,0,1,.425.021.642.642,0,0,1,.637.692.716.716,0,0,1-.643.749c-.319.037-.646.011-.969.021-.163,0-.192-.086-.189-.221C27.733,16.725,27.73,16.543,27.73,16.362Z" transform="translate(17.424 9.831)"/>
      <path id="Path_1451" data-name="Path 1451" class="cls-25" d="M53.946,17.5a2.545,2.545,0,0,1,.187-1.181,1.106,1.106,0,0,1,1.07-.7,1.034,1.034,0,0,1,1.065.7,3.354,3.354,0,0,1,0,2.356,1.041,1.041,0,0,1-1.058.708,1.1,1.1,0,0,1-1.057-.664A2.512,2.512,0,0,1,53.946,17.5Z" transform="translate(33.898 9.818)"/>
      <path id="Path_1452" data-name="Path 1452" class="cls-25" d="M36.558,17.479a2.306,2.306,0,0,1,.174-1.161,1.11,1.11,0,0,1,1.075-.694,1.052,1.052,0,0,1,1.065.7,3.369,3.369,0,0,1,.013,2.325,1.048,1.048,0,0,1-1.044.733,1.123,1.123,0,0,1-1.109-.707A2.4,2.4,0,0,1,36.558,17.479Z" transform="translate(22.967 9.818)"/>
      <path id="Path_1453" data-name="Path 1453" class="cls-25" d="M32.643,17.492a2.623,2.623,0,0,1-.156,1.158,1.1,1.1,0,0,1-1.049.733,1.064,1.064,0,0,1-1.088-.674,3.149,3.149,0,0,1,0-2.423,1.05,1.05,0,0,1,1.052-.663,1.1,1.1,0,0,1,1.07.7A2.441,2.441,0,0,1,32.643,17.492Z" transform="translate(18.92 9.817)"/>
      <path id="Path_1454" data-name="Path 1454" class="cls-8" d="M17.122,7.494c-.171.226-.348.446-.51.679-.119.171-.205.262-.422.091-.2-.156-.14-.251-.023-.4.319-.41.62-.834.941-1.242.065-.085.1-.291.278-.174.15.1.36.169.316.433-.064.383-.106.769-.166,1.228a4,4,0,0,0,.646-.795c.145-.207.239-.09.373,0,.156.1.176.182.057.335-.337.428-.655.873-.99,1.3-.065.085-.1.295-.278.163-.134-.1-.34-.148-.3-.4.062-.4.1-.8.148-1.2Z" transform="translate(10.093 4.028)"/>
      <path id="Path_1455" data-name="Path 1455" class="cls-7" d="M9.139,7.657a2.266,2.266,0,0,0-.5-.785c-.137-.176-.078-.252.068-.37s.248-.119.366.05c.309.435.64.853.951,1.286.062.086.256.181.088.318-.137.112-.252.3-.5.174-.353-.179-.728-.321-1.189-.521.254.345.432.614.638.858.16.189.028.256-.1.36s-.223.132-.34-.036c-.308-.435-.638-.855-.949-1.286-.073-.1-.265-.2-.088-.353.14-.121.267-.278.508-.151C8.408,7.362,8.739,7.483,9.139,7.657Z" transform="translate(4.725 4.032)"/>
      <path id="Path_1456" data-name="Path 1456" class="cls-7" d="M7,9.82c-.249-.132-.5-.272-.749-.394-.176-.086-.262-.16-.143-.376.107-.2.189-.22.383-.111.451.257.92.484,1.374.734.1.057.329.059.228.275-.077.166-.124.368-.4.352a6.425,6.425,0,0,0-1.13.037,2.407,2.407,0,0,0,.8.511c.174.093.169.181.09.337s-.155.251-.353.142c-.466-.259-.944-.493-1.409-.754-.1-.055-.331-.057-.23-.274.077-.166.129-.36.4-.353.375.011.749-.028,1.125-.046Z" transform="translate(3.419 5.577)"/>
      <path id="Path_1457" data-name="Path 1457" class="cls-31" d="M11.444,7.478a.8.8,0,0,1-.655-.552,1.28,1.28,0,0,1,.044-1.334.985.985,0,0,1,1.021-.322.564.564,0,0,1,.36.217c.075.1.217.248.124.321-.119.094-.331.21-.485.024a.358.358,0,0,0-.482-.114.428.428,0,0,0-.2.474,2.484,2.484,0,0,0,.145.6c.1.251.313.287.552.221.106-.029.194-.083.166-.218-.021-.106-.042-.217-.191-.179-.173.042-.243-.029-.244-.2s.13-.164.243-.187a2.4,2.4,0,0,0,.265-.055c.257-.088.366,0,.415.269C12.649,7.117,12.331,7.485,11.444,7.478Z" transform="translate(6.675 3.297)"/>
      <path id="Path_1458" data-name="Path 1458" class="cls-31" d="M13.954,6.3c-.054.723-.43,1.122-1.011,1.073a1.008,1.008,0,0,1-.889-1.164c.044-.7.441-1.112,1.026-1.07A.976.976,0,0,1,13.954,6.3Z" transform="translate(7.572 3.229)"/>
      <path id="Path_1459" data-name="Path 1459" class="cls-31" d="M6.337,12.316a1.175,1.175,0,0,1-1.285-.988A.939.939,0,0,1,6,10.357a1.182,1.182,0,0,1,1.283.99A.937.937,0,0,1,6.337,12.316Z" transform="translate(3.174 6.508)"/>
      <path id="Path_1460" data-name="Path 1460" class="cls-31" d="M10.016,5.764c.13.011.134.124.181.194.064.1.039.168-.067.217-.176.083-.347.181-.528.251s-.2.156-.112.324.168.156.3.08c.112-.065.238-.1.348-.171.135-.08.207-.041.277.09s.044.21-.1.265c-.121.049-.228.125-.35.171-.189.072-.176.176-.094.329s.143.236.322.124c.142-.09.3-.15.453-.228.134-.07.225-.07.306.09s.01.226-.124.288c-.318.151-.633.3-.943.467-.151.081-.223.049-.295-.1-.251-.526-.511-1.05-.773-1.571-.067-.132-.057-.205.086-.272.329-.153.653-.321.979-.482Z" transform="translate(5.519 3.622)"/>
      <path id="Path_1461" data-name="Path 1461" class="cls-31" d="M15.91,7.217c.231-.262.482-.51.69-.788.226-.3.443-.094.589.028.163.135-.073.228-.151.313-.352.381-.723.744-1.075,1.125-.155.166-.277.248-.524.127s-.236-.293-.207-.5c.072-.526.135-1.054.212-1.58.015-.1-.065-.327.164-.246.153.054.423.057.373.353q-.083.5-.163,1C15.8,7.123,15.724,7.239,15.91,7.217Z" transform="translate(9.561 3.566)"/>
      <path id="Path_1462" data-name="Path 1462" class="cls-31" d="M14.272,6.728a9.783,9.783,0,0,0,.493-.987c.114-.3.3-.3.544-.236.164.039.179.1.1.241-.316.537-.632,1.075-.931,1.62-.1.189-.244.16-.4.125s-.288-.049-.309-.272c-.054-.581-.15-1.158-.212-1.738-.01-.094-.134-.306.1-.285.163.015.423-.044.446.256l.093,1.26A.583.583,0,0,1,14.272,6.728Z" transform="translate(8.493 3.265)"/>
      <path id="Path_1463" data-name="Path 1463" class="cls-10" d="M6.544,8.212c.059.046.122.091.182.138.308.241.63.464.917.726.21.192.324.132.453-.068.07-.109.163-.2.236-.311.093-.138.177-.1.288-.02s.155.169.037.28a.227.227,0,0,0-.024.031c-.246.3-.445.773-.749.855s-.588-.391-.891-.606c-.233-.166-.449-.353-.676-.529-.08-.062-.134-.13-.047-.225S6.394,8.256,6.544,8.212Z" transform="translate(3.912 5.16)"/>
      <path id="Path_1464" data-name="Path 1464" class="cls-32" d="M7.307,7.331c.06.049.112.083.156.127.414.412.819.829,1.239,1.233.15.143.1.231-.024.342-.1.093-.176.223-.339.052-.4-.423-.821-.827-1.231-1.242-.059-.059-.164-.119-.081-.223S7.2,7.437,7.307,7.331Z" transform="translate(4.396 4.607)"/>
      <path id="Path_1465" data-name="Path 1465" class="cls-33" d="M14.957,6.753c-.023.156-.107.265-.275.257a.262.262,0,0,1-.283-.257.235.235,0,0,1,.267-.259A.28.28,0,0,1,14.957,6.753Z" transform="translate(9.048 4.081)"/>
      <path id="Path_1466" data-name="Path 1466" class="cls-34" d="M10.816,6.789a.3.3,0,0,1-.313.278.224.224,0,0,1-.243-.241.261.261,0,0,1,.261-.278C10.688,6.524,10.779,6.631,10.816,6.789Z" transform="translate(6.448 4.113)"/>
      <path id="Path_1467" data-name="Path 1467" class="cls-35" d="M15.705,6.69c-.024.059-.083.153-.116.122-.1-.091-.029-.2.023-.3C15.634,6.577,15.634,6.653,15.705,6.69Z" transform="translate(9.766 4.093)"/>
      <path id="Path_1468" data-name="Path 1468" class="cls-36" d="M13.225,6c-.007.521-.171.783-.443.773s-.41-.265-.4-.731a1.5,1.5,0,0,1,.034-.269c.046-.2.134-.368.378-.371s.339.155.384.362C13.205,5.868,13.22,5.97,13.225,6Z" transform="translate(7.783 3.398)"/>
      <path id="Path_1469" data-name="Path 1469" class="cls-37" d="M6.2,11.582a1.622,1.622,0,0,1-.66-.2.365.365,0,0,1,.2-.694,1.382,1.382,0,0,1,.668.168c.181.1.316.233.249.466S6.4,11.587,6.2,11.582Z" transform="translate(3.345 6.715)"/>
    </g>
  </g>
</svg>
