<svg xmlns="http://www.w3.org/2000/svg" xmlns:xlink="http://www.w3.org/1999/xlink" width="64" height="64" viewBox="0 0 64 64">
  <defs>
    <radialGradient id="radial-gradient" cx="-1.909" cy="0.722" r="2.922" gradientUnits="objectBoundingBox">
      <stop offset="0" stop-color="#f4e9c3"/>
      <stop offset="0.219" stop-color="#f8eecd"/>
      <stop offset="0.644" stop-color="#fdf4dc"/>
      <stop offset="1" stop-color="#fff6e1"/>
    </radialGradient>
    <linearGradient id="linear-gradient" x1="0.5" y1="-0.008" x2="0.5" y2="1.123" gradientUnits="objectBoundingBox">
      <stop offset="0" stop-color="#39b0b6"/>
      <stop offset="1" stop-color="#007476"/>
    </linearGradient>
    <linearGradient id="linear-gradient-2" x1="0.5" y1="0.738" x2="0.5" y2="-0.069" gradientUnits="objectBoundingBox">
      <stop offset="0" stop-color="#dff9ff"/>
      <stop offset="0.173" stop-color="#d8f8ff"/>
      <stop offset="0.423" stop-color="#c5f4ff"/>
      <stop offset="0.72" stop-color="#a5eeff"/>
      <stop offset="1" stop-color="#81e7ff"/>
    </linearGradient>
    <linearGradient id="linear-gradient-3" x1="0.5" y1="-2.332" x2="0.5" y2="0.449" gradientUnits="objectBoundingBox">
      <stop offset="0" stop-color="#89e4fa"/>
      <stop offset="0.406" stop-color="#94e8fc"/>
      <stop offset="1" stop-color="#acf0ff"/>
    </linearGradient>
    <linearGradient id="linear-gradient-4" x1="0.5" y1="1735.8" x2="0.5" y2="1734.8" gradientUnits="objectBoundingBox">
      <stop offset="0" stop-color="#ecf9fd"/>
      <stop offset="0.848" stop-color="#f2fdff"/>
      <stop offset="1" stop-color="#f4feff"/>
    </linearGradient>
    <linearGradient id="linear-gradient-5" y1="0.588" y2="1.588" xlink:href="#linear-gradient-4"/>
    <linearGradient id="linear-gradient-6" y1="-21" y2="-20" xlink:href="#linear-gradient-4"/>
    <clipPath id="clip-graph-ui">
      <rect width="64" height="64"/>
    </clipPath>
  </defs>
  <g id="graph-ui" clip-path="url(#clip-graph-ui)">
    <g id="Group_6843" data-name="Group 6843" transform="translate(1)">
      <path id="Path_12184" data-name="Path 12184" d="M59.5,33H55.1a2.068,2.068,0,0,1-2.066-1.63A2.175,2.175,0,0,1,53,31,2,2,0,0,1,54.873,29a3.194,3.194,0,0,0,3.1-2.6A3.245,3.245,0,0,0,58,26a3,3,0,0,0-3-3H47V15h7.3a3.636,3.636,0,0,0,3.691-3.278c0-.011,0-.022,0-.033,0-.064,0-.126,0-.189A3.5,3.5,0,0,0,54.5,8H41v4H11.7a3.633,3.633,0,0,0-3.693,3.312l0,.071A3.5,3.5,0,0,0,11.5,19H17v8H9.5a2.5,2.5,0,0,0,0,5h0a2.5,2.5,0,0,1,0,5H4.17A3.115,3.115,0,0,0,1,39.839c0,.054,0,.108,0,.161a3,3,0,0,0,3,3H8.893a2.076,2.076,0,0,1,2.08,1.664A2.115,2.115,0,0,1,11,45a2,2,0,0,1-2,2H8.17a3.114,3.114,0,0,0-3.165,2.839C5,49.893,5,49.947,5,50a3,3,0,0,0,3,3H21V52H54.83A3.194,3.194,0,0,0,58,49.161,3,3,0,0,0,55,46h-.03a3,3,0,0,1-2.078-.768,2.394,2.394,0,0,1-.438-.564A3.041,3.041,0,0,1,55,40h4.3A3.633,3.633,0,0,0,63,36.687,3.5,3.5,0,0,0,59.5,33Z" fill="#018086" opacity="0"/>
      <path id="Path_12185" data-name="Path 12185" d="M5,29.5A2.5,2.5,0,1,0,2.5,32,2.5,2.5,0,0,0,5,29.5Z" fill="url(#radial-gradient)"/>
      <path id="Path_12186" data-name="Path 12186" d="M44,61H20a5,5,0,0,1-5-5V8a5,5,0,0,1,5-5H44a5,5,0,0,1,5,5V56A5,5,0,0,1,44,61Z" fill="url(#linear-gradient)"/>
      <path id="Path_12187" data-name="Path 12187" d="M46,9V55a3,3,0,0,1-3,3H21a3,3,0,0,1-3-3V9a3,3,0,0,1,3-3h3a1,1,0,0,1,1,1h0a2.006,2.006,0,0,0,2,2H37a2.006,2.006,0,0,0,2-2h0a1,1,0,0,1,1-1h3A3,3,0,0,1,46,9Z" fill="url(#linear-gradient-2)"/>
      <path id="Path_12188" data-name="Path 12188" d="M36,45.5h0A2.5,2.5,0,0,0,38.5,48h0A2.5,2.5,0,0,1,41,50.5h0A2.5,2.5,0,0,1,38.5,53h-4A2.5,2.5,0,0,0,32,55.5h0A2.5,2.5,0,0,0,34.5,58H43a3,3,0,0,0,3-3V43H38.5A2.5,2.5,0,0,0,36,45.5Z" fill="url(#linear-gradient-3)"/>
      <path id="Path_12189" data-name="Path 12189" d="M35,18.5h0A2.5,2.5,0,0,0,37.5,21h0A2.5,2.5,0,0,0,40,18.5h0A2.5,2.5,0,0,0,37.5,16h0A2.5,2.5,0,0,0,35,18.5Z" fill="url(#linear-gradient-4)"/>
      <path id="Path_12190" data-name="Path 12190" d="M37,9a3,3,0,0,1-3,3H27a2,2,0,0,0-1.972,2.326A2.081,2.081,0,0,0,27.115,16H30.5a2.5,2.5,0,0,1,2.491,2.749A2.6,2.6,0,0,1,30.36,21H29.5a2.5,2.5,0,0,0-2.491,2.749A2.6,2.6,0,0,0,29.64,26H32.5a2.5,2.5,0,0,1,2.491,2.749A2.6,2.6,0,0,1,32.36,31H27a2,2,0,0,0-1.972,2.326A2.081,2.081,0,0,0,27.115,35H27.5a2.5,2.5,0,0,1,2.491,2.749A2.6,2.6,0,0,1,27.36,40H18V9a3,3,0,0,1,3-3h3a1,1,0,0,1,1,1h0a2.006,2.006,0,0,0,2,2Z" fill="url(#linear-gradient-5)"/>
      <path id="Path_12191" data-name="Path 12191" d="M39,55H25a1,1,0,0,1,0-2H39a1,1,0,0,1,0,2Z" fill="url(#linear-gradient-6)"/>
    </g>
  </g>
</svg>
