<svg xmlns="http://www.w3.org/2000/svg" xmlns:xlink="http://www.w3.org/1999/xlink" width="64" height="64" viewBox="0 0 64 64">
  <defs>
    <linearGradient id="linear-gradient" x1="0.5" x2="0.5" y2="1" gradientUnits="objectBoundingBox">
      <stop offset="0" stop-color="#39b0b6"/>
      <stop offset="1" stop-color="#007476"/>
    </linearGradient>
    <linearGradient id="linear-gradient-3" x1="0.5" x2="0.5" y2="1" gradientUnits="objectBoundingBox">
      <stop offset="0" stop-color="#def9ff"/>
      <stop offset="0.282" stop-color="#cff6ff"/>
      <stop offset="0.823" stop-color="#a7efff"/>
      <stop offset="1" stop-color="#99ecff"/>
    </linearGradient>
    <linearGradient id="linear-gradient-4" x1="0.5" y1="1" x2="0.5" gradientUnits="objectBoundingBox">
      <stop offset="0" stop-color="#ddf9ff"/>
      <stop offset="0.723" stop-color="#eafcff"/>
      <stop offset="1" stop-color="#f1fdff"/>
    </linearGradient>
    <clipPath id="clip-graph-search">
      <rect width="64" height="64"/>
    </clipPath>
  </defs>
  <g id="graph-search" clip-path="url(#clip-graph-search)">
    <g id="Group_6841" data-name="Group 6841" transform="translate(2 2)">
      <path id="Path_12178" data-name="Path 12178" d="M5.81,3.873h0A3.873,3.873,0,0,1,9.683,0h0a3.873,3.873,0,0,1,3.873,3.873h0A3.873,3.873,0,0,1,9.683,7.746h0A3.873,3.873,0,0,1,5.81,3.873Zm1.452,58.1h0a3.389,3.389,0,0,0,3.389-3.389h0A3.389,3.389,0,0,0,7.262,55.19h0a3.389,3.389,0,0,0-3.389,3.389h0A3.389,3.389,0,0,0,7.262,61.968ZM55.675,24.206H45.992A3.389,3.389,0,0,0,42.6,27.6h0a3.389,3.389,0,0,0,3.389,3.389h1.452a3.873,3.873,0,0,1,3.873,3.873h0a3.873,3.873,0,0,1-3.873,3.873H46.96a2.42,2.42,0,0,0-2.421,2.421h0a2.42,2.42,0,0,0,2.421,2.421h5.325a3.873,3.873,0,0,1,3.873,3.873h0a3.873,3.873,0,0,1-3.873,3.873H44.54A1.936,1.936,0,0,0,42.6,53.254h0A1.936,1.936,0,0,0,44.54,55.19h.484a3.389,3.389,0,0,1,3.389,3.389h0a3.389,3.389,0,0,1-3.389,3.389H16.944a3.389,3.389,0,0,1-3.389-3.389h0a3.389,3.389,0,0,1,3.389-3.389h0a2.42,2.42,0,0,0,2.421-2.421h0a2.42,2.42,0,0,0-2.421-2.421H8.714a3.873,3.873,0,0,1-3.873-3.873h0A3.873,3.873,0,0,1,8.714,42.6h4.357a3.389,3.389,0,0,0,3.389-3.389h0a3.389,3.389,0,0,0-3.389-3.389H4.841A4.842,4.842,0,0,1,0,30.984H0a4.842,4.842,0,0,1,4.841-4.841h2.9a2.9,2.9,0,0,0,2.9-2.9h0a2.9,2.9,0,0,0-2.9-2.9H5.325a3.389,3.389,0,0,1-3.389-3.389h0a3.389,3.389,0,0,1,3.389-3.389H23.238a2.9,2.9,0,0,0,2.9-2.9h0a2.9,2.9,0,0,0-2.9-2.9H21.3a3.873,3.873,0,0,1-3.873-3.873h0A3.873,3.873,0,0,1,21.3,0H44.54a3.873,3.873,0,0,1,3.873,3.873h0A3.873,3.873,0,0,1,44.54,7.746H42.6a3.873,3.873,0,0,0-3.873,3.873h0A3.873,3.873,0,0,0,42.6,15.492H55.675a4.357,4.357,0,0,1,4.357,4.357h0A4.357,4.357,0,0,1,55.675,24.206ZM61,34.857h0a3.873,3.873,0,0,0-3.873-3.873h0a3.873,3.873,0,0,0-3.873,3.873h0a3.873,3.873,0,0,0,3.873,3.873h0A3.873,3.873,0,0,0,61,34.857Z" opacity="0" fill="url(#linear-gradient)"/>
      <path id="Path_12179" data-name="Path 12179" d="M54.264,48.6l.006-.006L42.427,36.753a19.864,19.864,0,1,0-5.67,5.672L48.6,54.266a3.82,3.82,0,0,0,5.4,0l.259-.259A3.826,3.826,0,0,0,54.264,48.6Z" transform="translate(-0.19 -0.19)" fill="url(#linear-gradient)"/>
      <path id="Path_12180" data-name="Path 12180" d="M26.04,12a14.04,14.04,0,1,0,14.04,14.04A14.04,14.04,0,0,0,26.04,12Z" transform="translate(-0.381 -0.381)" fill="url(#linear-gradient-3)"/>
      <path id="Path_12181" data-name="Path 12181" d="M26.04,12a2.421,2.421,0,1,1,0,4.841H22.651a1.937,1.937,0,0,0,0,3.873h.484a2.421,2.421,0,0,1,0,4.841H18.778a1.937,1.937,0,1,0,0,3.873h.484a2.421,2.421,0,1,1,0,4.841h-4.58A14.022,14.022,0,0,1,26.04,12Zm3.873,8.714a2.421,2.421,0,1,0,2.421,2.421A2.42,2.42,0,0,0,29.913,20.714Z" transform="translate(-0.381 -0.381)" fill="url(#linear-gradient-4)"/>
    </g>
  </g>
</svg>
