<svg xmlns="http://www.w3.org/2000/svg" xmlns:xlink="http://www.w3.org/1999/xlink" width="64" height="64" viewBox="0 0 64 64">
  <defs>
    <linearGradient id="linear-gradient" x1="0.5" x2="0.5" y2="1" gradientUnits="objectBoundingBox">
      <stop offset="0" stop-color="#39b0b6"/>
      <stop offset="1" stop-color="#007476"/>
    </linearGradient>
    <linearGradient id="linear-gradient-2" y2="1.197" xlink:href="#linear-gradient"/>
    <clipPath id="clip-graph-change">
      <rect width="64" height="64"/>
    </clipPath>
  </defs>
  <g id="graph-change" clip-path="url(#clip-graph-change)">
    <g id="Group_6842" data-name="Group 6842" transform="translate(0 1)">
      <path id="Path_12182" data-name="Path 12182" d="M59,16h2a3.008,3.008,0,0,0,2.94-3.6A3.092,3.092,0,0,0,60.869,10H50.5a1.5,1.5,0,0,1,0-3h5.912a2.557,2.557,0,0,0,2.5-1.821A2.508,2.508,0,0,0,56.5,2H8.5a3.5,3.5,0,0,0,0,7H10a2,2,0,0,1,0,4H4.615a3.578,3.578,0,0,0-3.537,2.757A3.509,3.509,0,0,0,4.5,20H12L9,32H3.615A3.578,3.578,0,0,0,.078,34.757,3.509,3.509,0,0,0,3.5,39H4a2,2,0,0,1,0,4H3.5A3.509,3.509,0,0,0,.078,47.243,3.578,3.578,0,0,0,3.615,50H9a2,2,0,0,1,0,4H7.615a3.578,3.578,0,0,0-3.537,2.757A3.509,3.509,0,0,0,7.5,61H56a3,3,0,0,0,0-6h-.5a2.5,2.5,0,0,1,0-5H60a3,3,0,0,0,0-6H51.623a23.028,23.028,0,0,0,2.289-19h6.5a2.557,2.557,0,0,0,2.5-1.821A2.509,2.509,0,0,0,60.5,20H59a2,2,0,0,1,0-4Z" opacity="0" fill="url(#linear-gradient)"/>
      <path id="Path_12183" data-name="Path 12183" d="M23.984,39.98V52a2.006,2.006,0,0,1-2,2h-12a1.98,1.98,0,0,1-1.4-3.38l3.937-3.944a25.015,25.015,0,0,1,.012-31.367A2.4,2.4,0,0,1,16.1,15.1l.164.164a2.413,2.413,0,0,1,.132,3.23,19.958,19.958,0,0,0-.3,24.6L20.6,38.58A1.982,1.982,0,0,1,23.984,39.98Zm27.5-24.652L55.42,11.4a1.982,1.982,0,0,0-1.4-3.38H42a2.006,2.006,0,0,0-2,2v12a1.98,1.98,0,0,0,3.38,1.4L47.9,18.9a19.956,19.956,0,0,1-.3,24.607,2.413,2.413,0,0,0,.132,3.23l.164.164a2.4,2.4,0,0,0,3.566-.21,25.011,25.011,0,0,0,.015-31.363ZM22.5,8A2.5,2.5,0,1,0,25,10.5,2.5,2.5,0,0,0,22.5,8Zm11-2A2.5,2.5,0,1,0,36,8.5,2.5,2.5,0,0,0,33.5,6Zm8,43A2.5,2.5,0,1,0,44,51.5,2.5,2.5,0,0,0,41.5,49Zm-11,2A2.5,2.5,0,1,0,33,53.5,2.5,2.5,0,0,0,30.5,51Z" fill="url(#linear-gradient-2)"/>
    </g>
  </g>
</svg>
