<svg xmlns="http://www.w3.org/2000/svg" xmlns:xlink="http://www.w3.org/1999/xlink" width="30" height="30" viewBox="0 0 30 30">
  <defs>
    <clipPath id="clip-ic-ck">
      <rect width="30" height="30"/>
    </clipPath>
  </defs>
  <g id="ic-ck" clip-path="url(#clip-ic-ck)">
    <g id="chuyenkhoan">
      <path id="Path_336" data-name="Path 336" d="M0,0H30V30H0Z" fill="none" fill-rule="evenodd"/>
      <g id="Group_1581" data-name="Group 1581" transform="translate(-3 -1)">
        <path id="Path_337" data-name="Path 337" d="M18.422,9.8l.25.263a.735.735,0,0,1-.077,1.089.864.864,0,0,1-.546.192H16.6a.69.69,0,0,0-.714.663v5.742a2.033,2.033,0,0,1-.05.425v.138a2.1,2.1,0,0,1-.09.263c0,.054-.05.1-.075.146a2.189,2.189,0,0,1-.125.217l-.108.138a2.187,2.187,0,0,1-.158.178l-.14.123-.19.147-.158.1-.217.108-.181.07-.241.07-.19.038a2.778,2.778,0,0,1-.408,0h-1.9l4.713,4.924a2.448,2.448,0,0,0,3.566,0l4.978-5.24a.726.726,0,0,0,.1-.8.835.835,0,0,0-.755-.455h-2.2V11.933a2.3,2.3,0,0,0-2.373-2.207h-1.22c-.121,0-.041.077-.041.077" transform="translate(5 2)" fill="#fff" stroke="#007476" stroke-width="1.5" fill-rule="evenodd"/>
        <path id="Path_338" data-name="Path 338" d="M18.464,9.726,13.8,4.82a2.477,2.477,0,0,0-1.52-.785,2.519,2.519,0,0,0-2.093.737l-4.977,5.24A.734.734,0,0,0,5.282,11.1a.865.865,0,0,0,.547.192H8.052v6.4a2.294,2.294,0,0,0,2.373,2.207h1.22l-.241-.261a.731.731,0,0,1-.141-.827.834.834,0,0,1,.763-.455h1.485a.69.69,0,0,0,.713-.664V11.933a1.834,1.834,0,0,1,.05-.424.777.777,0,0,1,0-.14,2.3,2.3,0,0,1,.083-.262.955.955,0,0,1,.082-.146,1.117,1.117,0,0,1,.126-.216l.107-.14a1.64,1.64,0,0,1,.158-.177l.141-.123a1.73,1.73,0,0,1,.19-.147l.158-.1.216-.108.182-.077.24-.07h.192a2.5,2.5,0,0,1,.406,0h1.866c.1,0,.043-.077.043-.077" fill="#fff" stroke="#007476" stroke-width="1.5" fill-rule="evenodd"/>
      </g>
    </g>
  </g>
</svg>
