<svg xmlns="http://www.w3.org/2000/svg" xmlns:xlink="http://www.w3.org/1999/xlink" width="30" height="30" viewBox="0 0 30 30">
  <defs>
    <clipPath id="clip-ic-naptiendt">
      <rect width="30" height="30"/>
    </clipPath>
  </defs>
  <g id="ic-naptiendt" clip-path="url(#clip-ic-naptiendt)">
    <g id="naptiendt" transform="translate(-15 -14.221)">
      <path id="Path_343" data-name="Path 343" d="M33.6,42.62V40.17a3.4,3.4,0,0,1,.913-2.315L40.5,31.51a2.271,2.271,0,0,0,.066-3.095,2.234,2.234,0,0,0-3.25-.023L34.31,31.576c.29-.4.58-.779.891-1.157l5.589-6.458a2.446,2.446,0,1,0-3.7-3.206l-5.589,6.457c-.134.156-.267.312-.4.49a19.13,19.13,0,0,1,1.268-2.026l4.12-5.923a2.446,2.446,0,0,0-4.008-2.806L28.343,22.87l-.668,1,2.25-4.32a2.512,2.512,0,0,0-.958-3.361,2.426,2.426,0,0,0-3.34,1.024l-2.294,4.43A28.625,28.625,0,0,0,20.6,29.461l-.668,3.206a27.563,27.563,0,0,0-.512,7.526L18.9,42.62v.668H33.6V42.62Z" fill="#fff" fill-rule="evenodd"/>
      <g id="Group_1584" data-name="Group 1584" transform="translate(19.781 15.01)">
        <path id="Path_344" data-name="Path 344" d="M13.817,28.277a.656.656,0,0,1-.668-.668V25.16a4.037,4.037,0,0,1,1.113-2.783l6.034-6.39a1.574,1.574,0,0,0-.067-2.2,1.493,1.493,0,0,0-1.113-.423,1.557,1.557,0,0,0-1.091.49l-3.006,3.184a.684.684,0,0,1-.913.067.663.663,0,0,1-.133-.89c.311-.424.623-.847.935-1.2L20.5,8.55A1.784,1.784,0,1,0,17.8,6.212l-5.588,6.457q-.175.205-.334.423l-.045.045a.661.661,0,0,1-.89.133.646.646,0,0,1-.2-.868c.4-.735.846-1.425,1.291-2.093l4.12-5.923a1.787,1.787,0,0,0,.289-1.336,1.815,1.815,0,0,0-.735-1.157,1.787,1.787,0,0,0-1.336-.29,1.817,1.817,0,0,0-1.157.735L9.119,8.26c-.2.289-.423.6-.646.98a.653.653,0,0,1-.89.222.684.684,0,0,1-.268-.89l2.293-4.41A1.7,1.7,0,0,0,9.72,2.8,1.757,1.757,0,0,0,8.85,1.76a1.7,1.7,0,0,0-1.358-.111,1.757,1.757,0,0,0-1.046.868L4.13,6.946a27.8,27.8,0,0,0-2.672,7.638.677.677,0,0,1-.779.534.677.677,0,0,1-.534-.779A29.948,29.948,0,0,1,2.95,6.346L5.266,1.893A3.054,3.054,0,0,1,7.092.356a3.157,3.157,0,0,1,2.383.2,3.054,3.054,0,0,1,1.536,1.826,2.789,2.789,0,0,1,.134.624l1-1.447a3.071,3.071,0,0,1,2-1.292,3.117,3.117,0,0,1,2.338.512,3.072,3.072,0,0,1,1.291,2A3.144,3.144,0,0,1,17.513,4.7a3.087,3.087,0,0,1,3.674.29,3.127,3.127,0,0,1,.334,4.386l-2.271,2.65A2.884,2.884,0,0,1,21.276,16.9l-6.034,6.39a2.729,2.729,0,0,0-.735,1.848v2.45a.694.694,0,0,1-.69.69" fill="#007476" fill-rule="evenodd"/>
      </g>
      <path id="Path_345" data-name="Path 345" d="M25.426,40.394h11.69a2.043,2.043,0,0,0,2.048-2.049V17.927a2.043,2.043,0,0,0-2.048-2.048L25.181,15.9a2.043,2.043,0,0,0-2.048,2.049L23.2,38.19a2.228,2.228,0,0,0,2.226,2.2" fill="#fff" fill-rule="evenodd"/>
      <g id="Group_1585" data-name="Group 1585">
        <path id="Path_346" data-name="Path 346" d="M33.017,24.455A1.57,1.57,0,0,0,30,25.066a1.453,1.453,0,0,0,.47,1.12c.521.44,1.686,1.162,2.211,1.6a1.426,1.426,0,0,1,.46,1.11,1.571,1.571,0,0,1-2.992.667m1.44-7.061v1m0,7v1" fill="none" stroke="#83bcbf" stroke-linecap="round" stroke-width="1.5" fill-rule="evenodd"/>
      </g>
      <path id="Path_347" data-name="Path 347" d="M31.371,36.163a1.113,1.113,0,1,0,1.113,1.113,1.113,1.113,0,0,0-1.113-1.113" fill="#83bcbf" fill-rule="evenodd"/>
      <path id="Path_348" data-name="Path 348" d="M37.116,41.061H29.278a.667.667,0,1,1,0-1.335h7.838a1.387,1.387,0,0,0,1.38-1.38V17.95a1.387,1.387,0,0,0-1.38-1.38H25.18a1.387,1.387,0,0,0-1.38,1.38v7.726a.668.668,0,1,1-1.336,0V17.95a2.727,2.727,0,0,1,2.716-2.717H37.137a2.727,2.727,0,0,1,2.717,2.717V38.367a2.757,2.757,0,0,1-2.74,2.694" fill="#007476" fill-rule="evenodd"/>
      <path id="Path_349" data-name="Path 349" d="M19.014,42.62c-1.225-5.21.8-9.574,4.164-13.337l.935-1.047a2,2,0,0,1,3.006,2.65l-.958,1.047c-2.516,2.827-2.315,5.566-.645,8.46" fill="#fff" fill-rule="evenodd"/>
      <g id="Group_1586" data-name="Group 1586" transform="translate(18 26.811)">
        <path id="Path_350" data-name="Path 350" d="M1.014,16.477a.645.645,0,0,1-.646-.513c-1.113-4.831.29-9.4,4.32-13.938L5.623.98A2.681,2.681,0,0,1,9.63,4.542L8.672,5.566c-2.093,2.36-2.27,4.743-.579,7.682a.668.668,0,1,1-1.157.668c-2-3.473-1.782-6.412.734-9.24l.936-1.047a1.27,1.27,0,0,0,.334-.957,1.286,1.286,0,0,0-.446-.913,1.364,1.364,0,0,0-.957-.334,1.287,1.287,0,0,0-.913.445L5.69,2.917C1.97,7.1.658,11.289,1.682,15.653a.664.664,0,0,1-.49.8.608.608,0,0,1-.178.023" fill="#007476" fill-rule="evenodd"/>
      </g>
    </g>
  </g>
</svg>
