<svg xmlns="http://www.w3.org/2000/svg" xmlns:xlink="http://www.w3.org/1999/xlink" width="30" height="30" viewBox="0 0 30 30">
  <defs>
    <clipPath id="clip-ic-phone">
      <rect width="30" height="30"/>
    </clipPath>
  </defs>
  <g id="ic-phone" clip-path="url(#clip-ic-phone)">
    <g id="Group_6847" data-name="Group 6847" transform="translate(-4817 2484)">
      <g id="Group_6846" data-name="Group 6846" transform="translate(4818 -2483)">
        <path id="Path_12207" data-name="Path 12207" d="M18,22.458h.01a4.035,4.035,0,0,0,5.021-.552l.565-.564a1.345,1.345,0,0,0,0-1.9l-2.377-2.377a1.345,1.345,0,0,0-1.9,0h0a1.347,1.347,0,0,1-1.9,0L13.6,13.256a1.345,1.345,0,0,1,0-1.9h0a1.345,1.345,0,0,0,0-1.9L11.227,7.074a1.346,1.346,0,0,0-1.9-.008l-.005.005-.565.564a4.039,4.039,0,0,0-.55,5.023v.009A36.467,36.467,0,0,0,18,22.458Zm10.847-3.316a14.047,14.047,0,1,0-13.52,10.276c5.527,0,8.064-2.672,6.524-6.685" transform="translate(-1.247 -1.268)" fill="none" stroke="#da4251" stroke-linecap="round" stroke-linejoin="round" stroke-width="1.5"/>
      </g>
    </g>
  </g>
</svg>
