<svg xmlns="http://www.w3.org/2000/svg" xmlns:xlink="http://www.w3.org/1999/xlink" width="30" height="30" viewBox="0 0 30 30">
  <defs>
    <clipPath id="clip-ic-social-zalo">
      <rect width="30" height="30"/>
    </clipPath>
  </defs>
  <g id="ic-social-zalo" clip-path="url(#clip-ic-social-zalo)">
    <path id="Path_281" data-name="Path 281" d="M34.9,14.986a1.12,1.12,0,0,0-1.1,1.135V26.2a1.12,1.12,0,1,0,2.24,0V16.122A1.12,1.12,0,0,0,34.9,14.986ZM18.12,16.122a1.12,1.12,0,1,0,0,2.24H21.7l-4.53,7.247a1.12,1.12,0,0,0,.949,1.713h5.6a1.12,1.12,0,1,0,0-2.24H20.139l4.53-7.247a1.12,1.12,0,0,0-.949-1.713Zm13.422,3.345a1.12,1.12,0,0,0-.921.512,3.852,3.852,0,0,0-1.862-.5,3.92,3.92,0,1,0,0,7.84,3.851,3.851,0,0,0,1.859-.5A1.12,1.12,0,0,0,32.68,26.2V20.6a1.12,1.12,0,0,0-1.137-1.135Zm9.537.015A3.92,3.92,0,1,0,45,23.4,3.937,3.937,0,0,0,41.08,19.482Zm-12.32,2.24a1.68,1.68,0,1,1-1.68,1.68A1.663,1.663,0,0,1,28.76,21.722Zm12.32,0A1.68,1.68,0,1,1,39.4,23.4,1.663,1.663,0,0,1,41.08,21.722Z" transform="translate(-16 -5.986)" fill="#fff"/>
  </g>
</svg>
