<svg xmlns="http://www.w3.org/2000/svg" width="89.611" height="53.11" viewBox="0 0 89.611 53.11">
  <path id="ic_step" d="M142.167,202.437,126.226,177.37a.686.686,0,0,0-.581-.279H53.268a.71.71,0,0,0-.549.234.4.4,0,0,0-.032.482l15.8,24.848L52.687,227.5a.4.4,0,0,0,.032.482.709.709,0,0,0,.549.234h62.755V230.2l5.589-2.48-5.589-2.48v1.983H54.305l15.486-24.351a.4.4,0,0,0,0-.437L54.305,178.086H125.24l15.625,24.569-15.8,24.848a.453.453,0,0,0,.3.665.81.81,0,0,0,.284.05.687.687,0,0,0,.582-.279l15.941-25.066A.4.4,0,0,0,142.167,202.437Z" transform="translate(-52.621 -177.091)" fill="#ae1c3f"/>
</svg>
