<svg xmlns="http://www.w3.org/2000/svg" xmlns:xlink="http://www.w3.org/1999/xlink" width="111.617" height="56" viewBox="0 0 111.617 56">
  <defs>
    <clipPath id="clip-path">
      <path id="Path_1" data-name="Path 1" d="M7.2,48.431v-.446h1.72c-.049.917-.06,1.789-.026,2.622H7.265a.926.926,0,0,0-.023-.185,1.28,1.28,0,0,0-.606-.864,1.537,1.537,0,0,0-.768-.212,1.134,1.134,0,0,0-.531.123.692.692,0,0,0-.4.632.683.683,0,0,0,.247.53,1.032,1.032,0,0,0,.172.111l.1.05.323.15.086.049.4.2.063.023,1.124.531a2.831,2.831,0,0,1,1.919,2.535,3.178,3.178,0,0,1-.112.8,2.42,2.42,0,0,1-.966,1.387A3.428,3.428,0,0,1,6.4,57.05a3.027,3.027,0,0,1-2.324-.767v.594H2.38q.063-1.2.039-2.177c0-.163-.01-.416-.026-.754H4.15v.223a1.3,1.3,0,0,0,1.224,1.247,1.12,1.12,0,0,0,.247.026.975.975,0,0,0,.607-.205.625.625,0,0,0,.273-.525c0-.314-.271-.626-.807-.941-.038-.016-.093-.041-.159-.073l-.175-.1-.789-.347L4.3,53.115c-.058-.023-.141-.065-.248-.122q-1.9-1.039-1.9-2.449a3.215,3.215,0,0,1,.125-.839,2.388,2.388,0,0,1,.976-1.373A3.031,3.031,0,0,1,5.04,47.8a3.974,3.974,0,0,1,.927.112,3.74,3.74,0,0,1,1.237.52" transform="translate(-2.146 -47.799)" fill="#007f86" clip-rule="evenodd"/>
    </clipPath>
    <clipPath id="clip-path-2">
      <rect id="Rectangle_127" data-name="Rectangle 127" width="298.665" height="613.196" fill="#007f86"/>
    </clipPath>
    <clipPath id="clip-path-3">
      <path id="Path_2" data-name="Path 2" d="M14.611,52.931v-.481a1.07,1.07,0,0,0-.279-.768.961.961,0,0,0-.735-.3,1.042,1.042,0,0,0-1.15.719l-2.1-.2q.4-1.694,2.868-1.9c.288-.026.557-.036.8-.036q3.154,0,3.154,2.486v2.535l.854-.038v1.769H14.611v-.532l-.211.12a3.639,3.639,0,0,1-1.817.511,2.381,2.381,0,0,1-1.609-.554,1.942,1.942,0,0,1-.679-1.53,1.869,1.869,0,0,1,.827-1.6,3.012,3.012,0,0,1,1.794-.531A4.29,4.29,0,0,1,14.611,52.931ZM11.9,47.75h1.487l.594,1.038.567-1.038h1.487l-1.312,1.841h-1.5Zm.113-1.082c.018-.067.041-.158.075-.275a1.335,1.335,0,0,1,1.263-1.005,1.7,1.7,0,0,1,.666.135l.556.237A1.149,1.149,0,0,0,15,45.87c.164,0,.315-.118.455-.358a.313.313,0,0,0,.026-.087l.877.346c-.3.833-.735,1.252-1.285,1.252a1.464,1.464,0,0,1-.708-.158l-.323-.135L13.79,46.6a.835.835,0,0,0-.38-.1c-.182,0-.355.172-.518.52C12.76,46.952,12.468,46.838,12.013,46.669Zm2.6,7.52c-.027-.016-.065-.04-.123-.073a1.688,1.688,0,0,0-.841-.256.729.729,0,0,0-.83.654.782.782,0,0,0,.156.651.73.73,0,0,0,.6.265,1.521,1.521,0,0,0,.989-.444.474.474,0,0,0,.049-.038Z" transform="translate(-10.295 -45.388)" fill="#007f86" clip-rule="evenodd"/>
    </clipPath>
    <clipPath id="clip-path-5">
      <path id="Path_3" data-name="Path 3" d="M18.892,57.043V55.3h.854V52.22h-.854V50.453q.851.035,1.7.036c.567,0,1.141-.013,1.715-.036v.679a3.864,3.864,0,0,1,2.181-.83q2.012,0,2.012,2.6v2.4h.827v1.744c-.575-.024-1.147-.038-1.715-.038s-1.133.014-1.7.038v-3.66a1.959,1.959,0,0,0-.06-.631.609.609,0,0,0-.6-.385,1.174,1.174,0,0,0-.469.113.538.538,0,0,0-.125.06l-.109.062-.125.074-.073.049-.049.037V55.3h.864v1.744c-.7-.024-1.414-.038-2.132-.038s-1.434.014-2.148.038" transform="translate(-18.892 -50.302)" fill="#007f86" clip-rule="evenodd"/>
    </clipPath>
    <clipPath id="clip-path-7">
      <path id="Path_4" data-name="Path 4" d="M32.01,56.889V55.12l.828.038V49.717H32.01V47.985c.62.008,1.484.008,2.6,0H35.4v7.174l.8-.038v1.769c-.69-.024-1.372-.038-2.046-.038-.69,0-1.406.014-2.145.038" transform="translate(-32.01 -47.985)" fill="#007f86" clip-rule="evenodd"/>
    </clipPath>
    <clipPath id="clip-path-9">
      <path id="Path_5" data-name="Path 5" d="M36.885,53.6a3.2,3.2,0,0,1,.867-2.319,3.783,3.783,0,0,1,2.261-1.1,3.986,3.986,0,0,1,1.164,0,3.768,3.768,0,0,1,2.238,1.073,3.121,3.121,0,0,1,.9,2.285,3.992,3.992,0,0,1-.1.862,3.09,3.09,0,0,1-1.087,1.778,3.893,3.893,0,0,1-1.945.813,3.986,3.986,0,0,1-1.173,0A3.672,3.672,0,0,1,37.775,55.9,3.23,3.23,0,0,1,36.885,53.6Zm1.631-5.929h2.177l1.09,2.054H40.251Zm1,5.924q0,1.658,1.075,1.657a.922.922,0,0,0,.866-.556,2.327,2.327,0,0,0,.224-1.077c0-.147,0-.267-.013-.357-.083-.9-.44-1.349-1.077-1.349Q39.52,51.909,39.519,53.591Z" transform="translate(-36.885 -47.667)" fill="#007f86" clip-rule="evenodd"/>
    </clipPath>
    <clipPath id="clip-path-11">
      <path id="Path_6" data-name="Path 6" d="M45.3,57.043V55.3h.854V52.22H45.3V50.453c.568.023,1.132.036,1.7.036s1.141-.013,1.713-.036v.679a3.874,3.874,0,0,1,2.184-.83q2.01,0,2.009,2.6v2.4h.828v1.744c-.573-.024-1.145-.038-1.713-.038s-1.132.014-1.7.038v-3.66a1.9,1.9,0,0,0-.063-.631.6.6,0,0,0-.594-.385,1.174,1.174,0,0,0-.469.113.558.558,0,0,0-.125.06l-.111.062-.123.074-.073.049-.052.037V55.3h.867v1.744c-.7-.024-1.413-.038-2.134-.038s-1.435.014-2.146.038" transform="translate(-45.298 -50.302)" fill="#007f86" clip-rule="evenodd"/>
    </clipPath>
    <clipPath id="clip-path-13">
      <path id="Path_7" data-name="Path 7" d="M59.5,51.149v-.693c.5.007,1.088.007,1.752,0h1.663v1.78l-.864-.035v3.893a3.126,3.126,0,0,1-1.112,2.7,4.732,4.732,0,0,1-2.919.679,8.815,8.815,0,0,1-2.97-.618l.905-1.459a4.226,4.226,0,0,0,1.705.419,2,2,0,0,0,1.6-.506,1.172,1.172,0,0,0,.346-.777v-.287a2.967,2.967,0,0,1-4.255-.284,3.324,3.324,0,0,1-.7-2.165,4.694,4.694,0,0,1,.05-.642,3.406,3.406,0,0,1,.923-1.966,2.653,2.653,0,0,1,1.963-.828,2.385,2.385,0,0,1,1.921.791m-2.222,2.644a2.5,2.5,0,0,0,.234,1.089.934.934,0,0,0,.864.594.95.95,0,0,0,.916-.606,2.435,2.435,0,0,0,.208-1.15c-.015-1.038-.38-1.56-1.1-1.56a.956.956,0,0,0-.89.547,2.09,2.09,0,0,0-.234,1.085" transform="translate(-54.64 -50.358)" fill="#007f86" clip-rule="evenodd"/>
    </clipPath>
    <clipPath id="clip-path-15">
      <path id="Path_8" data-name="Path 8" d="M72.959,51v-.544h1.695q-.036.717-.037,1.471V53.2H72.8c-.011-.049-.021-.116-.037-.2a1.2,1.2,0,0,0-1.2-.914,1.093,1.093,0,0,0-1,.579,2.226,2.226,0,0,0-.294,1.183,1.975,1.975,0,0,0,.281,1.1,1.089,1.089,0,0,0,.965.5,1.539,1.539,0,0,0,.311-.035,1.228,1.228,0,0,0,.988-1l2.028.617c-.016.041-.063.137-.136.287a3.356,3.356,0,0,1-3.237,1.867,5.472,5.472,0,0,1-.583-.037A3.647,3.647,0,0,1,68.6,56.092a3.229,3.229,0,0,1-.887-2.288,3.437,3.437,0,0,1,.773-2.311,3.167,3.167,0,0,1,2.119-1.127,4.258,4.258,0,0,1,.495-.037A2.506,2.506,0,0,1,72.959,51" transform="translate(-67.717 -50.33)" fill="#007f86" clip-rule="evenodd"/>
    </clipPath>
    <clipPath id="clip-path-17">
      <path id="Path_9" data-name="Path 9" d="M75.491,56.889V55.12l.893.038V49.717h-.893V47.985h.9q1.312.027,2.535,0v2.992a2.794,2.794,0,0,1,.487-.358,1.994,1.994,0,0,1,.371-.21,2.93,2.93,0,0,1,1.222-.285,2.094,2.094,0,0,1,1.374.476,1.939,1.939,0,0,1,.69,1.261,7.767,7.767,0,0,1,.049,1.029v2.269l.828-.038v1.769c-.554-.024-1.117-.038-1.689-.038s-1.145.014-1.723.038V52.9c0-.511-.2-.767-.607-.767a1.249,1.249,0,0,0-.492.125.277.277,0,0,0-.1.035l-.1.063-.146.088-.115.075-.049.036v2.609l.917-.038v1.769c-.718-.024-1.439-.038-2.165-.038s-1.455.014-2.19.038" transform="translate(-75.491 -47.985)" fill="#007f86" clip-rule="evenodd"/>
    </clipPath>
    <clipPath id="clip-path-19">
      <path id="Path_10" data-name="Path 10" d="M84.848,56.86V55.115h.913V52.036h-.913V50.27q1.1.049,1.866.036c.765-.007,1.309-.021,1.632-.036v4.846h.8V56.86c-.713-.024-1.434-.038-2.158-.038s-1.439.014-2.144.038m.751-8.112a1.067,1.067,0,0,1,.471-.891,1.605,1.605,0,0,1,.976-.308,1.565,1.565,0,0,1,.976.321,1.082,1.082,0,0,1,.471.891,1.028,1.028,0,0,1-.482.879,1.619,1.619,0,0,1-.989.308,1.5,1.5,0,0,1-.966-.323,1.037,1.037,0,0,1-.458-.877" transform="translate(-84.848 -47.548)" fill="#007f86" clip-rule="evenodd"/>
    </clipPath>
    <clipPath id="clip-path-21">
      <path id="Path_11" data-name="Path 11" d="M94.158,53.258v-.481a1.078,1.078,0,0,0-.279-.768.961.961,0,0,0-.735-.3,1.043,1.043,0,0,0-1.151.719l-2.1-.2q.395-1.694,2.868-1.9c.289-.026.557-.036.8-.036q3.154,0,3.155,2.486v2.535l.851-.038v1.769H94.158v-.532l-.211.12a3.647,3.647,0,0,1-1.817.511,2.424,2.424,0,0,1-1.421-.421,1.872,1.872,0,0,1-.818-1.206,2.313,2.313,0,0,1-.049-.445,1.879,1.879,0,0,1,.828-1.614,2.971,2.971,0,0,1,1.793-.531A4.3,4.3,0,0,1,94.158,53.258Zm0,1.257c-.023-.016-.065-.04-.122-.073a1.705,1.705,0,0,0-.844-.256.728.728,0,0,0-.828.654.8.8,0,0,0,.154.651.738.738,0,0,0,.6.265,1.521,1.521,0,0,0,.989-.444.225.225,0,0,0,.049-.038Z" transform="translate(-89.842 -50.291)" fill="#007f86" clip-rule="evenodd"/>
    </clipPath>
    <clipPath id="clip-path-23">
      <path id="Path_12" data-name="Path 12" d="M106.663,50.794l.066-.344h1.77v2.088h-1.8a.887.887,0,0,0-.4-.765,1.229,1.229,0,0,0-.9-.247c-.461.034-.69.216-.69.543a.411.411,0,0,0,.307.41l.172.06.112.025.226.063.208.06.693.175.4.111.544.135a1.739,1.739,0,0,1,1.543,1.769,2.427,2.427,0,0,1-.086.632,2.057,2.057,0,0,1-.975,1.272,2.986,2.986,0,0,1-1.586.409,3.614,3.614,0,0,1-1.988-.52v.371h-1.854c.021-.387.036-.788.036-1.2V54.777h1.781a1,1,0,0,0,1,1.077,1.682,1.682,0,0,0,.707-.05.5.5,0,0,0,.406-.483.4.4,0,0,0-.247-.373l-.442-.174-.236-.061-.3-.053-.416-.117-.151-.024-.406-.112c-1.263-.348-1.9-.984-1.9-1.918a2.8,2.8,0,0,1,.073-.6,1.893,1.893,0,0,1,.912-1.237,2.891,2.891,0,0,1,1.53-.4,3.655,3.655,0,0,1,1.895.543" transform="translate(-102.254 -50.251)" fill="#007f86" clip-rule="evenodd"/>
    </clipPath>
    <clipPath id="clip-path-25">
      <path id="Path_13" data-name="Path 13" d="M117.138,54.049h-4.783a1.244,1.244,0,0,0,.354.917,1.21,1.21,0,0,0,.908.357,1.455,1.455,0,0,0,1.262-.728l2.114.52c-.016.033-.065.109-.148.233A3.53,3.53,0,0,1,113.6,57a3.8,3.8,0,0,1-2.928-1.123,3.071,3.071,0,0,1-.867-2.216,4.3,4.3,0,0,1,.083-.815,3.238,3.238,0,0,1,1.029-1.818,3.646,3.646,0,0,1,1.915-.866,4.362,4.362,0,0,1,.745-.063A3.57,3.57,0,0,1,116.04,51a3.352,3.352,0,0,1,1.114,2.347A3.825,3.825,0,0,1,117.138,54.049Zm-4.919-5.663v-.112c.057-.632.46-.95,1.21-.95a2.9,2.9,0,0,1,.495.049c.669.116,1.038.405,1.1.865a2.111,2.111,0,0,1,.026.311c0,.536-.394.935-1.177,1.2-.115.057-.159.087-.135.087h-.817l-.011-.049.024-.186-.013-.3-.011-.148a.559.559,0,0,0,.175,0,.77.77,0,0,0,.7-.483.612.612,0,0,0,0-.209.411.411,0,0,0-.346-.385.4.4,0,0,0-.239.079c-.1.063-.157.117-.157.166v.063Zm.135,4.527h2.264V52.74a1.044,1.044,0,0,0-.854-.978,1.1,1.1,0,0,0-.755.1A1.087,1.087,0,0,0,112.355,52.912Z" transform="translate(-109.809 -47.323)" fill="#007f86" clip-rule="evenodd"/>
    </clipPath>
    <clipPath id="clip-path-27">
      <path id="Path_14" data-name="Path 14" d="M8.875,0,111.617.185l-.056,27.283c.251,4.919-2.892,8.353-8.824,8.345L0,35.632.056,8.342A8.622,8.622,0,0,1,8.875,0" transform="translate(0 0)" fill="none" clip-rule="evenodd"/>
    </clipPath>
    <clipPath id="clip-path-28">
      <rect id="Rectangle_153" data-name="Rectangle 153" width="298.054" height="580.95" fill="none"/>
    </clipPath>
    <clipPath id="clip-path-29">
      <path id="Path_15" data-name="Path 15" d="M105.474,22.115C93.9,23.379,99.1,29.094,92.563,32.4c0,0,2.592-3.558.927-6.285a18.162,18.162,0,0,1-8.912,9.78s4.1-4.639,2.7-7.9C83.9,31.814,80.174,33.8,69.645,34.8c9.319-3.022,11.9-5.372,12.724-9.617-3.3,1.5-5.314,2.264-8.9,1.529-4.516-.925-8.334-2.265-13.886.568.492.638,5.918,7.522,5.918,7.522l-5.124-.009-4.495-6.242-.015,6.232H51.934l.024-14.932,3.467,0,.468,0-.006,6.171,4.8-6.157,4.175,0h1.006l-5.415,6.348c2.491-2.054,7.365-4.2,11.189-3.847,5.339.5,6.986-.273,8.661-3.116C72.47,22.835,64.89,17.4,64.89,17.4c2.064.52,6.065,1.9,10.142.407a8.542,8.542,0,0,0,3.882-2.55c-4.018-1.34-11.205-1.894-20.062,2.12l-.034.018-57.046-.1L1.739,37.171l101.186.188a7.218,7.218,0,0,0,7.177-6.8l.012-5.6A10.368,10.368,0,0,0,105.474,22.115ZM14.21,34.7l-8.619-.016.024-14.927,9.211.016A4.161,4.161,0,0,1,19.107,23.9a4.067,4.067,0,0,1-1.652,3.346,4.072,4.072,0,0,1,1.636,3.3,3.862,3.862,0,0,1-1.3,3.04A4.733,4.733,0,0,1,14.21,34.7Zm16.835.036s-1.151-2.779-1.347-3.257l-4.735-.009c-.2.48-1.366,3.253-1.366,3.253l-4.51-.007S23.309,24.511,23.956,23c.957-2.245,2.367-3.2,4.287-3.2H29.4L35.58,34.743Zm18.8.033-1.853,0a4.271,4.271,0,0,1-3.969-2.485c-1.122-2.023-2.921-5.275-3.577-6.462l-.02,8.931-3.8-.007.03-14.928,2.006,0a4.2,4.2,0,0,1,3.941,2.5c1.133,2.113,2.77,5.244,3.476,6.558l.015-9.047,3.781.007Z" transform="translate(-1.739 -14.263)" fill="none" clip-rule="evenodd"/>
    </clipPath>
    <clipPath id="clip-path-30">
      <rect id="Rectangle_155" data-name="Rectangle 155" width="298.036" height="613.196" fill="none"/>
    </clipPath>
    <clipPath id="clip-path-31">
      <path id="Path_16" data-name="Path 16" d="M27.809,28.828l2.637,0c-.3-.728-.87-2.137-1.312-3.217-.443,1.082-1.021,2.485-1.324,3.214" transform="translate(-27.809 -25.614)" fill="none" clip-rule="evenodd"/>
    </clipPath>
    <clipPath id="clip-path-32">
      <rect id="Rectangle_157" data-name="Rectangle 157" width="298.665" height="613.196" fill="none"/>
    </clipPath>
    <clipPath id="clip-path-33">
      <path id="Path_17" data-name="Path 17" d="M15.411,25.025a1.165,1.165,0,0,0-1.121-1.192l-4.137-.008,0-.015-.05,0-.017,8.049V31.9l4.156.007a1.165,1.165,0,1,0-.069-2.33h-.407A3.8,3.8,0,0,1,10.1,26.15l4.169.007a1.171,1.171,0,0,0,1.139-1.132" transform="translate(-10.091 -23.808)" fill="none" clip-rule="evenodd"/>
    </clipPath>
    <clipPath id="clip-path-35">
      <path id="Path_18" data-name="Path 18" d="M48.429,6.585a2.057,2.057,0,0,0-1.082-.231h-.022a1.786,1.786,0,0,0-1,.231,2.428,2.428,0,0,0-1.087,2.074,2.635,2.635,0,0,0,1.224,2.226,2.408,2.408,0,0,0,.828.15.437.437,0,0,0,.1,0,2.39,2.39,0,0,0,.735-.146A2.332,2.332,0,0,0,49.465,8.7a2.621,2.621,0,0,0-1.036-2.116" transform="translate(-45.236 -6.354)" fill="none" clip-rule="evenodd"/>
    </clipPath>
    <clipPath id="clip-path-37">
      <path id="Path_19" data-name="Path 19" d="M101.063,16.9c6.092.012,9-3.588,9.073-3.682l.021-11.487L9.441,1.542A7.339,7.339,0,0,0,1.8,9.137v0l-.017,5.939,58.7.11a26.4,26.4,0,0,1,3.968-2.5l-2.773,0c-2.329-.007-3.61-2.354-3.605-4.254a4.684,4.684,0,0,1,1.485-3.48,4.1,4.1,0,0,1,2.565-.815l3.746.01V6.105L62.323,6.1c-1.36,0-1.843.567-1.845,2.187a4.413,4.413,0,0,0,.333,1.819c.293.544.954.615,1.557.622h1.276l0-1.367a1.94,1.94,0,0,1-1.971-1.964l4.188.007-.007,4.617a21.914,21.914,0,0,1,14.2-1.369c-2.211-2.05-4.322-3.885-9.805-3.612,6.42-1.428,9.4,1.012,13.066,1.746,3.27.655,5.172.786,11.378-.951,5.947-1.662,6.053,2.211,5.575,3.715.989-1.818,2.273-3.916,4.659-3.539a4.077,4.077,0,0,0-1.4-3.073c-1.573-1.214-4.393-1.1-8.4.356l-1.021.374C90.246,7.07,87.691,8,85.578,7.028a2.069,2.069,0,0,1-1.22-2.386A2.269,2.269,0,0,1,86.5,2.77a.333.333,0,0,1,.162.05.638.638,0,0,1,.622.613.656.656,0,0,1-.622.681A.647.647,0,0,1,86,3.525a1.757,1.757,0,0,0-1.017,1.251,1.431,1.431,0,0,0,.86,1.659C87.719,7.3,90.175,6.4,93.89,5.05l1.021-.379c4.227-1.52,7.259-1.614,9.011-.254a5.127,5.127,0,0,1,1.7,3.688,1.957,1.957,0,0,1,1.26,1.828c.224,1.746-.647,2.986-.093,3.761a1.735,1.735,0,0,1-1.159-1.282c-1.943,2.807-4.659,2.441-8.291,2.746-7.039.594-9.409,5.1-6.942,8.827,2.763-4.2,10.318-4.389,15.245-2.733-.061.006-.106.016-.169.021a10.341,10.341,0,0,1,4.64,2.841l.018-10.822c-.116.668-1.216,5.341-9.071,5.06-4.888-.179-8.1.6-10.33,2.728C92.464,17.032,96.049,16.892,101.063,16.9ZM13.289,12.594l-2.9-.006L7.849,9.007l-.01,3.573H5.622l.016-8.546,2.223,0-.01,3.533,2.722-3.527,2.927.006S10.189,7.974,9.934,8.278C10.176,8.591,13.289,12.594,13.289,12.594Zm3.251,0-2.224,0,.017-8.547,2.223,0ZM24.6,6.029l-2.526-.006c-1.205,0-1.763.1-2.019,1.349l4.544.01A1.983,1.983,0,0,1,22.69,9.333l-2.6,0c.195,1.071.823,1.317,2.054,1.317l2.456.007-.007,1.961-2.525-.007a6.465,6.465,0,0,1-2.194-.292c-1.615-.588-2.358-2.476-2.355-4.053a4.5,4.5,0,0,1,2.016-3.838,3.326,3.326,0,0,1,1.876-.362l3.2,0Zm8.555,6.624H32.116a2.414,2.414,0,0,1-2.243-1.408c-.632-1.138-1.638-3.043-2.017-3.714l-.008,5.089L25.7,12.615l.017-8.548h1.133a2.393,2.393,0,0,1,2.223,1.41c.635,1.2,1.563,2.962,1.957,3.7l.009-5.1,2.134,0Zm6.533-.009L37,12.633a2.741,2.741,0,0,1-2.656-2.72l.011-5.829,2.209.006-.007,5.517a1.058,1.058,0,0,0,1.14,1.073H39.7Zm6.81-.282a3.412,3.412,0,0,1-1.59.291l-1.122-.006a2.9,2.9,0,0,1-1.476-.291,4.672,4.672,0,0,1-.409-7.772,3.124,3.124,0,0,1,1.9-.482h1.123a3.458,3.458,0,0,1,1.9.429,4.4,4.4,0,0,1,1.966,3.774C48.792,9.887,47.916,11.825,46.5,12.362Zm10.546.338L56,12.7a2.406,2.406,0,0,1-2.237-1.406c-.638-1.14-1.649-3.044-2.021-3.716l-.01,5.086H49.588l.02-8.548,1.13.006A2.377,2.377,0,0,1,52.97,5.525c.634,1.195,1.558,2.959,1.948,3.7l.01-5.1,2.139.006Z" transform="translate(-1.782 -1.542)" fill="none" clip-rule="evenodd"/>
    </clipPath>
    <clipPath id="clip-path-39">
      <path id="Path_20" data-name="Path 20" d="M97.42,11.973l5.442-.123a1.8,1.8,0,0,1-.44-1.029,1.836,1.836,0,0,1,.077-.749c-.8.665-1.851,1.593-5.079,1.9" transform="translate(-97.42 -10.072)" fill="none" clip-rule="evenodd"/>
    </clipPath>
    <clipPath id="clip-path-41">
      <path id="Path_21" data-name="Path 21" d="M105.812,10.5a1.008,1.008,0,0,0-1.1-.917,1.019,1.019,0,1,0,1.1.917" transform="translate(-103.8 -9.574)" fill="none" clip-rule="evenodd"/>
    </clipPath>
  </defs>
  <g id="Group_6839" data-name="Group 6839" transform="translate(-247 -5651)">
    <g id="Group_1630" data-name="Group 1630" transform="translate(247 5651)">
      <g id="Group_1475" data-name="Group 1475" transform="translate(2.003 44.497)">
        <g id="Group_1474" data-name="Group 1474" clip-path="url(#clip-path)">
          <g id="Group_1473" data-name="Group 1473" transform="translate(-95.336 -89.412)">
            <g id="Group_1472" data-name="Group 1472" clip-path="url(#clip-path-2)">
              <rect id="Rectangle_126" data-name="Rectangle 126" width="16.556" height="18.587" transform="translate(90.669 84.745)" fill="#007f86"/>
            </g>
          </g>
        </g>
      </g>
      <g id="Group_1479" data-name="Group 1479" transform="translate(9.609 42.247)">
        <g id="Group_1478" data-name="Group 1478" clip-path="url(#clip-path-3)">
          <g id="Group_1477" data-name="Group 1477" transform="translate(-102.941 -87.162)">
            <g id="Group_1476" data-name="Group 1476" clip-path="url(#clip-path-2)">
              <rect id="Rectangle_128" data-name="Rectangle 128" width="17.064" height="20.76" transform="translate(98.275 82.495)" fill="#007f86"/>
            </g>
          </g>
        </g>
      </g>
      <g id="Group_1483" data-name="Group 1483" transform="translate(17.593 46.834)">
        <g id="Group_1482" data-name="Group 1482" clip-path="url(#clip-path-5)">
          <g id="Group_1481" data-name="Group 1481" transform="translate(-110.965 -91.748)">
            <g id="Group_1480" data-name="Group 1480" clip-path="url(#clip-path-2)">
              <rect id="Rectangle_130" data-name="Rectangle 130" width="17.769" height="16.075" transform="translate(106.299 87.081)" fill="#007f86"/>
            </g>
          </g>
        </g>
      </g>
      <g id="Group_1487" data-name="Group 1487" transform="translate(29.812 44.671)">
        <g id="Group_1486" data-name="Group 1486" clip-path="url(#clip-path-7)">
          <g id="Group_1485" data-name="Group 1485" transform="translate(-123.209 -89.585)">
            <g id="Group_1484" data-name="Group 1484" clip-path="url(#clip-path-2)">
              <rect id="Rectangle_132" data-name="Rectangle 132" width="13.524" height="18.238" transform="translate(118.542 84.918)" fill="#007f86"/>
            </g>
          </g>
        </g>
      </g>
      <g id="Group_1491" data-name="Group 1491" transform="translate(34.35 44.374)">
        <g id="Group_1490" data-name="Group 1490" clip-path="url(#clip-path-9)">
          <g id="Group_1489" data-name="Group 1489" transform="translate(-127.758 -89.289)">
            <g id="Group_1488" data-name="Group 1488" clip-path="url(#clip-path-2)">
              <rect id="Rectangle_134" data-name="Rectangle 134" width="16.764" height="18.7" transform="translate(123.092 84.622)" fill="#007f86"/>
            </g>
          </g>
        </g>
      </g>
      <g id="Group_1495" data-name="Group 1495" transform="translate(42.184 46.834)">
        <g id="Group_1494" data-name="Group 1494" clip-path="url(#clip-path-11)">
          <g id="Group_1493" data-name="Group 1493" transform="translate(-135.611 -91.748)">
            <g id="Group_1492" data-name="Group 1492" clip-path="url(#clip-path-2)">
              <rect id="Rectangle_136" data-name="Rectangle 136" width="17.766" height="16.075" transform="translate(130.944 87.081)" fill="#007f86"/>
            </g>
          </g>
        </g>
      </g>
      <g id="Group_1499" data-name="Group 1499" transform="translate(50.884 46.886)">
        <g id="Group_1498" data-name="Group 1498" clip-path="url(#clip-path-13)">
          <g id="Group_1497" data-name="Group 1497" transform="translate(-144.33 -91.8)">
            <g id="Group_1496" data-name="Group 1496" clip-path="url(#clip-path-2)">
              <rect id="Rectangle_138" data-name="Rectangle 138" width="17.605" height="18.448" transform="translate(139.664 87.133)" fill="#007f86"/>
            </g>
          </g>
        </g>
      </g>
      <g id="Group_1503" data-name="Group 1503" transform="translate(63.064 46.86)">
        <g id="Group_1502" data-name="Group 1502" clip-path="url(#clip-path-15)">
          <g id="Group_1501" data-name="Group 1501" transform="translate(-156.535 -91.774)">
            <g id="Group_1500" data-name="Group 1500" clip-path="url(#clip-path-2)">
              <rect id="Rectangle_140" data-name="Rectangle 140" width="16.455" height="16.185" transform="translate(151.868 87.108)" fill="#007f86"/>
            </g>
          </g>
        </g>
      </g>
      <g id="Group_1507" data-name="Group 1507" transform="translate(70.302 44.671)">
        <g id="Group_1506" data-name="Group 1506" clip-path="url(#clip-path-17)">
          <g id="Group_1505" data-name="Group 1505" transform="translate(-163.791 -89.585)">
            <g id="Group_1504" data-name="Group 1504" clip-path="url(#clip-path-2)">
              <rect id="Rectangle_142" data-name="Rectangle 142" width="17.793" height="18.238" transform="translate(159.124 84.918)" fill="#007f86"/>
            </g>
          </g>
        </g>
      </g>
      <g id="Group_1511" data-name="Group 1511" transform="translate(79.023 44.263)">
        <g id="Group_1510" data-name="Group 1510" clip-path="url(#clip-path-19)">
          <g id="Group_1509" data-name="Group 1509" transform="translate(-172.524 -89.178)">
            <g id="Group_1508" data-name="Group 1508" clip-path="url(#clip-path-2)">
              <rect id="Rectangle_144" data-name="Rectangle 144" width="13.635" height="18.645" transform="translate(167.857 84.511)" fill="#007f86"/>
            </g>
          </g>
        </g>
      </g>
      <g id="Group_1515" data-name="Group 1515" transform="translate(83.668 46.823)">
        <g id="Group_1514" data-name="Group 1514" clip-path="url(#clip-path-21)">
          <g id="Group_1513" data-name="Group 1513" transform="translate(-177.185 -91.738)">
            <g id="Group_1512" data-name="Group 1512" clip-path="url(#clip-path-2)">
              <rect id="Rectangle_146" data-name="Rectangle 146" width="17.061" height="16.184" transform="translate(172.518 87.071)" fill="#007f86"/>
            </g>
          </g>
        </g>
      </g>
      <g id="Group_1519" data-name="Group 1519" transform="translate(95.208 46.786)">
        <g id="Group_1518" data-name="Group 1518" clip-path="url(#clip-path-23)">
          <g id="Group_1517" data-name="Group 1517" transform="translate(-188.769 -91.7)">
            <g id="Group_1516" data-name="Group 1516" clip-path="url(#clip-path-2)">
              <rect id="Rectangle_148" data-name="Rectangle 148" width="15.986" height="16.271" transform="translate(184.103 87.033)" fill="#007f86"/>
            </g>
          </g>
        </g>
      </g>
      <g id="Group_1523" data-name="Group 1523" transform="translate(102.259 44.053)">
        <g id="Group_1522" data-name="Group 1522" clip-path="url(#clip-path-25)">
          <g id="Group_1521" data-name="Group 1521" transform="translate(-195.821 -88.968)">
            <g id="Group_1520" data-name="Group 1520" clip-path="url(#clip-path-2)">
              <rect id="Rectangle_150" data-name="Rectangle 150" width="16.688" height="19.015" transform="translate(191.154 84.301)" fill="#007f86"/>
            </g>
          </g>
        </g>
      </g>
      <g id="Group_1527" data-name="Group 1527" transform="translate(0 0)">
        <g id="Group_1526" data-name="Group 1526" clip-path="url(#clip-path-27)">
          <g id="Group_1525" data-name="Group 1525" transform="translate(-93.142 -42.444)">
            <g id="Group_1524" data-name="Group 1524" clip-path="url(#clip-path-28)">
              <rect id="Rectangle_152" data-name="Rectangle 152" width="120.931" height="44.654" transform="translate(88.485 38.023)" fill="#fefefe"/>
            </g>
          </g>
        </g>
      </g>
      <g id="Group_1531" data-name="Group 1531" transform="translate(1.623 13.266)">
        <g id="Group_1530" data-name="Group 1530" clip-path="url(#clip-path-29)">
          <g id="Group_1529" data-name="Group 1529" transform="translate(-94.756 -58.112)">
            <g id="Group_1528" data-name="Group 1528" clip-path="url(#clip-path-30)">
              <rect id="Rectangle_154" data-name="Rectangle 154" width="117.689" height="32.429" transform="translate(90.099 53.445)" fill="#007f86"/>
            </g>
          </g>
        </g>
      </g>
      <g id="Group_1535" data-name="Group 1535" transform="translate(25.901 23.854)">
        <g id="Group_1534" data-name="Group 1534" clip-path="url(#clip-path-31)">
          <g id="Group_1533" data-name="Group 1533" transform="translate(-119.288 -68.706)">
            <g id="Group_1532" data-name="Group 1532" clip-path="url(#clip-path-32)">
              <rect id="Rectangle_156" data-name="Rectangle 156" width="11.97" height="12.55" transform="translate(114.621 64.039)" fill="#007f86"/>
            </g>
          </g>
        </g>
      </g>
      <g id="Group_1539" data-name="Group 1539" transform="translate(9.418 22.168)">
        <g id="Group_1538" data-name="Group 1538" clip-path="url(#clip-path-33)">
          <g id="Group_1537" data-name="Group 1537" transform="translate(-102.751 -67.02)">
            <g id="Group_1536" data-name="Group 1536" clip-path="url(#clip-path-32)">
              <rect id="Rectangle_158" data-name="Rectangle 158" width="14.653" height="17.435" transform="translate(98.084 62.354)" fill="#007f86"/>
            </g>
          </g>
        </g>
      </g>
      <g id="Group_1543" data-name="Group 1543" transform="translate(42.13 5.93)">
        <g id="Group_1542" data-name="Group 1542" clip-path="url(#clip-path-35)">
          <g id="Group_1541" data-name="Group 1541" transform="translate(-135.553 -50.73)">
            <g id="Group_1540" data-name="Group 1540" clip-path="url(#clip-path-32)">
              <rect id="Rectangle_160" data-name="Rectangle 160" width="13.563" height="14.017" transform="translate(130.886 46.063)" fill="#ec1d24"/>
            </g>
          </g>
        </g>
      </g>
      <g id="Group_1547" data-name="Group 1547" transform="translate(1.663 1.439)">
        <g id="Group_1546" data-name="Group 1546" clip-path="url(#clip-path-37)">
          <g id="Group_1545" data-name="Group 1545" transform="translate(-94.796 -46.239)">
            <g id="Group_1544" data-name="Group 1544" clip-path="url(#clip-path-30)">
              <rect id="Rectangle_162" data-name="Rectangle 162" width="117.69" height="31.907" transform="translate(90.139 41.572)" fill="#ec1d24"/>
            </g>
          </g>
        </g>
      </g>
      <g id="Group_1551" data-name="Group 1551" transform="translate(90.696 9.381)">
        <g id="Group_1550" data-name="Group 1550" clip-path="url(#clip-path-39)">
          <g id="Group_1549" data-name="Group 1549" transform="translate(-184.258 -54.2)">
            <g id="Group_1548" data-name="Group 1548" clip-path="url(#clip-path-32)">
              <rect id="Rectangle_164" data-name="Rectangle 164" width="14.776" height="11.234" transform="translate(179.591 49.534)" fill="#ec1d24"/>
            </g>
          </g>
        </g>
      </g>
      <g id="Group_1555" data-name="Group 1555" transform="translate(96.651 9.174)">
        <g id="Group_1554" data-name="Group 1554" clip-path="url(#clip-path-41)">
          <g id="Group_1553" data-name="Group 1553" transform="translate(-190.212 -53.735)">
            <g id="Group_1552" data-name="Group 1552" clip-path="url(#clip-path-32)">
              <rect id="Rectangle_166" data-name="Rectangle 166" width="11.351" height="11.371" transform="translate(185.545 49.068)" fill="#ec1d24"/>
            </g>
          </g>
        </g>
      </g>
    </g>
  </g>
</svg>
