<?xml version="1.0" encoding="utf-8"?>
<!-- Generator: Adobe Illustrator 19.1.0, SVG Export Plug-In . SVG Version: 6.00 Build 0)  -->
<svg version="1.1" id="Layer_1" xmlns="http://www.w3.org/2000/svg" xmlns:xlink="http://www.w3.org/1999/xlink" x="0px" y="0px"
	 viewBox="0 0 32 32" style="enable-background:new 0 0 32 32;" xml:space="preserve">
<style type="text/css">
	.st0{fill:#FFFFFF;}
	.st1{fill:#2188C9;}
</style>
<g>
	<g>
		<path class="st0" d="M10.401,11.184l9.455,5.125l0.353,0.177l0.442-0.088c0.177-0.088,0.442-0.088,0.884-0.265
			c1.325-0.353,3.446-0.972,5.302-1.414c0.088,0,0.177-0.088,0.442-0.088c0.53,0,1.149,0.088,1.502,0.353
			c0.088,0.088,0.088,0.088,0.177,0.088l0,0v0.088c0,0,0,0.177-0.088,0.353c-0.265,0.619-1.237,1.237-1.679,1.325l-16.347,4.418
			c-0.088,0-0.177,0-0.177,0c-1.325,0-3.269-0.442-4.595-0.884l6.892-1.856l1.414-0.353l-0.795-1.237l-3.534-5.302L10.401,11.184
			 M10.312,9.859c-0.088,0-0.265,0.088-0.353,0.088l-1.06,1.149c-0.088,0.177-0.177,0.353,0,0.53l3.888,5.743l-8.394,2.209
			c-0.353,0.088-0.442,0.353-0.353,0.53c0.177,0.884,4.595,2.032,6.715,2.032c0.177,0,0.265,0,0.353,0c0,0,0,0,0.088,0l16.347-4.418
			c0.619-0.177,1.856-0.884,2.386-1.944c0.177-0.353,0.265-0.795,0.177-1.06c-0.088-0.353-0.265-0.619-0.619-0.795
			c-0.53-0.353-1.414-0.442-2.121-0.442c-0.265,0-0.53,0-0.795,0.088c-2.297,0.619-5.39,1.414-6.185,1.679l-9.896-5.302
			C10.401,9.859,10.401,9.859,10.312,9.859L10.312,9.859z"/>
	</g>
	<path class="st1" d="M4.304,19.313c-0.177,0-0.353,0-0.442-0.177l-1.944-2.828c-0.088-0.177-0.088-0.353,0.088-0.53l0.795-0.707
		c0.088-0.088,0.353-0.088,0.442-0.088l4.418,2.651c0.177,0.088,0.177,0.177,0.177,0.353c0,0.177-0.088,0.265-0.265,0.353
		L4.304,19.313L4.304,19.313z"/>
</g>
</svg>
