<?xml version="1.0" encoding="utf-8"?>
<!-- Generator: Adobe Illustrator 19.1.0, SVG Export Plug-In . SVG Version: 6.00 Build 0)  -->
<svg version="1.1" id="Layer_1" xmlns="http://www.w3.org/2000/svg" xmlns:xlink="http://www.w3.org/1999/xlink" x="0px" y="0px"
	 viewBox="-289 381 32 32" style="enable-background:new -289 381 32 32;" xml:space="preserve">
<style type="text/css">
	.st0{fill:none;stroke:#ffffff;stroke-width:1.2;stroke-miterlimit:10;}
	.st1{fill:none;stroke:#ffffff;stroke-width:1.2;stroke-miterlimit:10;}
</style>
<g>
	<path class="st0" d="M-281.7,393.6l7.9-8.3c0.3-0.3,0.9-0.3,1.2,0l8.6,8.2 M-271.1,386.7l-6.4,6.9 M-268.5,389.2l-4.5,4.5"/>
	<path class="st1" d="M-263.2,409h-19.6c-1.1,0-2-0.9-2-2v-11.4c0-1.1,0.9-2,2-2h19.6c1.1,0,2,0.9,2,2V407
		C-261.2,408.1-262.1,409-263.2,409z M-277,401.4v-3.9c0-0.4-0.3-0.7-0.7-0.7h-3.9c-0.4,0-0.7,0.3-0.7,0.7v3.9
		c0,0.4,0.3,0.7,0.7,0.7h3.9C-277.3,402-277,401.7-277,401.4z M-282.2,405.1h3.3 M-277.1,405.1h3.3 M-272.1,405.1h3.3 M-267.1,405.1
		h3.3"/>
</g>
</svg>
