<svg xmlns="http://www.w3.org/2000/svg" xmlns:xlink="http://www.w3.org/1999/xlink" viewBox="0 0 32 32">
  <defs>
    <style>
      .cls-1 {
        clip-path: url(#clip-_202);
      }

      .cls-2 {
        fill: #fff;
        stroke-width: 0.2px;
      }

      .cls-2, .cls-3 {
        stroke: #fff;
      }

      .cls-3 {
        fill: none;
        stroke-width: 1.1px;
      }
    </style>
    <clipPath id="clip-_202">
      <rect width="32" height="32"/>
    </clipPath>
  </defs>
  <g id="_202" data-name="202" class="cls-1">
    <g id="Group_2" data-name="Group 2">
      <g id="surface1" transform="translate(2 3)">
        <path id="Path_5" data-name="Path 5" class="cls-2" d="M14.418,0c-1.273,0-2.348.7-3.941,1.525A27.371,27.371,0,0,1,3.405,4.071L3,4.168v.405c0,7.951,2.788,13.265,5.579,16.559a18.452,18.452,0,0,0,5.628,4.606l.227.114.227-.114S25.835,19.965,25.835,4.574V4.168l-.405-.1a27.369,27.369,0,0,1-7.071-2.546C16.765.7,15.691,0,14.418,0Zm0,1.038c.853,0,1.843.574,3.471,1.411a29.224,29.224,0,0,0,6.877,2.514c-.191,14.073-9.7,19.352-10.363,19.705a16.472,16.472,0,0,1-5.044-4.2c-2.609-3.079-5.192-8.032-5.287-15.5a29.224,29.224,0,0,0,6.877-2.514C12.575,1.612,13.564,1.038,14.418,1.038Z"/>
      </g>
      <g id="Group_1" data-name="Group 1" transform="translate(0 0.5)">
        <path id="Path_6" data-name="Path 6" class="cls-3" d="M1251.092-86.75v8" transform="translate(-1234.592 97.25)"/>
        <path id="Path_7" data-name="Path 7" class="cls-3" d="M1251.092-86.75v8" transform="translate(99.25 1265.592) rotate(-90)"/>
      </g>
    </g>
  </g>
</svg>
