<?xml version="1.0" encoding="utf-8"?>
<!-- Generator: Adobe Illustrator 19.1.0, SVG Export Plug-In . SVG Version: 6.00 Build 0)  -->
<svg version="1.1" id="Layer_1" xmlns="http://www.w3.org/2000/svg" xmlns:xlink="http://www.w3.org/1999/xlink" x="0px" y="0px"
	 viewBox="-289 381 32 32" style="enable-background:new -289 381 32 32;" xml:space="preserve">
<style type="text/css">
	.st0{display:none;fill:none;stroke:#ffffff;stroke-width:1.2;stroke-miterlimit:10;}
	.st1{fill:none;stroke:#ffffff;stroke-width:1.2;stroke-miterlimit:10;}
	.st2{fill:none;stroke:#ffffff;stroke-width:1.2;stroke-miterlimit:10;}
</style>
<g>
	<path class="st0" d="M-276.7,404.4c0,0,2.1,3.4,4.1-1.5c0,0-0.7,3.2,1.2,3.1c0,0,1.9,0.5,2.3-3.1c0,0-0.7,2.5,1,2.5
		c0,0,2.2,0.1,2.3-2.5"/>
	<path class="st1" d="M-287.4,396.9l6.5-5c0.3-0.3,0.8-0.4,1.2-0.4h0.8"/>
	<path class="st2" d="M-278.8,398.7v-8.3c0-1.3,1.1-2.3,2.3-2.3h15.5c1.3,0,2.3,1.1,2.3,2.3v9.8c0,1.3-1.1,2.3-2.3,2.3h-14.7
		 M-278.8,392.8h20.2"/>
	<path class="st1" d="M-285.9,405.1c1.6-0.7,6.1-0.2,6.1-0.2c2.5-0.1,4.9-3.4,4.9-3.4l2.8-1.6c0.4-0.2,0.7-0.5,0.9-1
		c0.9-3.1-1.1-2.4-1.1-2.4l-9.8,3.7"/>
</g>
</svg>
