<?xml version="1.0" encoding="utf-8"?>
<!-- Generator: Adobe Illustrator 19.1.0, SVG Export Plug-In . SVG Version: 6.00 Build 0)  -->
<svg version="1.1" id="Layer_1" xmlns="http://www.w3.org/2000/svg" xmlns:xlink="http://www.w3.org/1999/xlink" x="0px" y="0px"
	 viewBox="0 0 32 32" style="enable-background:new 0 0 32 32;" xml:space="preserve">
<style type="text/css">
	.st0{fill:none;stroke:#2AB9EC;stroke-width:0.864;stroke-miterlimit:10;}
	.st1{fill:none;stroke:#FFFFFF;stroke-width:0.864;stroke-miterlimit:10;}
	.st2{fill:none;stroke:#2AB9EC;stroke-width:0.72;stroke-miterlimit:10;}
	.st3{fill:none;stroke:#2AB9EC;stroke-width:0.864;stroke-linecap:round;stroke-miterlimit:10;}
</style>
<g>
	<path class="st0" d="M9.455,21.568l-4.632,5.976c-0.24,0.312-0.024,0.768,0.384,0.768h9.264c0.504,0,0.672-0.672,0.24-0.888
		c-1.056-0.576-4.128-1.416-4.56-2.472"/>
	<path class="st1" d="M9.263,8.752c-1.632,1.752-2.592,4.128-2.472,6.72c0.216,4.8,4.152,8.688,8.952,8.856
		c2.64,0.096,5.04-0.936,6.792-2.64c0.192-0.192,0.192-0.504,0-0.696L9.959,8.728C9.767,8.536,9.455,8.56,9.263,8.752z"/>
	<path class="st1" d="M18.887,13.264l-1.248-1.272c-0.192-0.192-0.192-0.504,0-0.672l2.232-2.16c0.192-0.192,0.504-0.192,0.672,0
		l1.248,1.272c0.192,0.192,0.192,0.504,0,0.672l-2.232,2.16C19.367,13.456,19.079,13.456,18.887,13.264z"/>
	<line class="st1" x1="18.239" y1="12.664" x2="16.127" y2="14.728"/>
	<path class="st2" d="M9.551,12.712c0,0-1.92,3.264,1.08,6.696"/>
	<path class="st3" d="M19.679,3.688c4.248,0,7.68,3.432,7.68,7.68"/>
	<path class="st3" d="M19.727,6.064c3.048,0,5.52,2.472,5.52,5.52"/>
</g>
</svg>
