<svg xmlns="http://www.w3.org/2000/svg" xmlns:xlink="http://www.w3.org/1999/xlink" width="131" height="29" viewBox="0 0 131 29">
  <defs>
    <clipPath id="clip-logo-white">
      <rect width="131" height="29"/>
    </clipPath>
  </defs>
  <g id="logo-white" clip-path="url(#clip-logo-white)">
    <g id="Group_7085" data-name="Group 7085" transform="translate(2044.367 1286.023)">
      <path id="Path_11302" data-name="Path 11302" d="M-1923.692-1267.918c0-4.8-.015-9.183.009-13.568.008-1.455-1.161-2.321-1.738-3.63h7.839c.005.065.055.2.014.24-1.818,1.645-1.983,3.739-1.947,6.048.108,6.859.014,13.721.063,20.581.009,1.192-.107,1.6-1.5,1.328a12.2,12.2,0,0,1-7.567-4.489c-3.668-4.628-7.4-9.206-11.364-14.125v9.9c0,1.481.04,2.963-.01,4.442-.055,1.627,1.578,2.288,2.049,3.72h-7.84c-.006-.112-.077-.312-.011-.38,1.692-1.768,1.708-3.942,1.673-6.2q-.116-7.476.008-14.954a6.617,6.617,0,0,0-1.375-4.663,2.315,2.315,0,0,1-.729-1.557c2.673,0,5.315.007,7.958,0,.676,0,.892.547,1.218.95q6.133,7.6,12.252,15.217C-1924.454-1268.771-1924.192-1268.491-1923.692-1267.918Z" transform="translate(-69.148 -0.538)" fill="#fff"/>
      <path id="Path_11303" data-name="Path 11303" d="M-1772.861-1285.043c3.435,0,6.443.048,9.447-.028.956-.024,1.136.52,1.382,1.181,2.488,6.686,5,13.363,7.467,20.058.838,2.275,1.674,4.528,3.864,6.369h-12.705c3.13-2.666.448-5.253-.051-7.886-.084-.442-.526-.377-.861-.378-2.269-.006-4.538.014-6.806-.016a.966.966,0,0,0-1.077.757c-.318.983-.671,1.954-1.009,2.931-.572,1.653-1.033,3.287,1.324,4.63h-8.57c3.746-6.281,5.147-13.49,7.821-20.2.364-.912.623-1.866.954-2.792C-1771.093-1282.053-1771.022-1283.592-1772.861-1285.043Zm5.122,7.5-.31.024c-.392,1.156-.825,2.3-1.165,3.472-.415,1.435-1.192,2.767-1.242,4.306l4.551.08c.049,0,.1-.005.147,0,.61.07.776-.143.558-.743C-1766.06-1272.777-1766.894-1275.161-1767.739-1277.542Z" transform="translate(-185.747 -0.653)" fill="#fff"/>
      <path id="Path_11304" data-name="Path 11304" d="M-1832.308-1257.452h-11.159c1.677-1.621,1.736-3.566,1.729-5.551-.02-5.775-.007-11.55-.008-17.325a5.462,5.462,0,0,0-1.925-4.764c1.354,0,2.36-.026,3.364,0,3.991.121,8-.344,11.972.282a7.091,7.091,0,0,1,6.184,5.91c.6,3.782-.852,6.749-4.092,8.387-2.25,1.138-5.516,1.635-7.088,1.079,3.307-2.713,4.241-5.286,3.17-8.7a3.784,3.784,0,0,0-2.983-2.764c-.689-.149-1.1-.06-1.095.834.035,5.972.01,11.945.042,17.917A6.62,6.62,0,0,0-1832.308-1257.452Z" transform="translate(-141.255 -0.604)" fill="#fff"/>
      <path id="Path_11305" data-name="Path 11305" d="M-2028.189-1264.727c2.119-5.7,4.1-11.1,6.151-16.479.469-1.228-.137-2.107-.642-3.034-.418-.767-.332-1.025.58-1,1.43.044,2.865.064,4.293-.006,1.04-.051,1.282.2.908,1.234-1.976,5.461-3.89,10.944-5.833,16.417-1.152,3.246-2.348,6.478-3.456,9.739-.289.851-.676,1.022-1.5.8-3.986-1.062-6.975-3.135-8.493-7.225-2.583-6.958-5.389-13.832-8.187-20.962,2.8,0,5.529-.011,8.255.007.842.005.778.81.958,1.3,2.122,5.827,4.207,11.667,6.3,17.5C-2028.686-1265.971-2028.5-1265.526-2028.189-1264.727Z" transform="translate(0 -0.528)" fill="#fff"/>
      <path id="Path_11306" data-name="Path 11306" d="M-1681.2-1284.9h9.268c-.027.608-.435.936-.7,1.325q-4.417,6.39-8.865,12.756a3.262,3.262,0,0,0-.64,2.051c.043,2.122.024,4.244.026,6.367a6.24,6.24,0,0,0,1.944,5.019h-11.638c1.646-1.353,1.559-3.155,1.78-4.96a16.87,16.87,0,0,0-4.175-13.738,45.56,45.56,0,0,1-3.314-4.9,14.29,14.29,0,0,0-3.513-3.99c3.477,0,6.607.016,9.737-.011.722-.007.882.544,1.154.975,1.712,2.708,3.427,5.416,5.089,8.154.461.759.717.744,1.187.028,1.029-1.566,2.185-3.051,3.162-4.646C-1679.578-1282.294-1679.735-1283.323-1681.2-1284.9Z" transform="translate(-241.65 -0.723)" fill="#fff"/>
    </g>
  </g>
</svg>
