<svg id="ic_chart" xmlns="http://www.w3.org/2000/svg" width="24" height="20" viewBox="0 0 24 20">
  <rect id="Rectangle_82" data-name="Rectangle 82" width="24" height="20" fill="none"/>
  <g id="ic_chart-2" data-name="ic_chart" transform="translate(3 1)">
    <path id="Path_1106" data-name="Path 1106" d="M20.364,4a1.635,1.635,0,0,0-1.612,1.914L16.017,8.193a1.619,1.619,0,0,0-1.464.169L12.177,7.174a1.635,1.635,0,0,0-3.268.1q0,.053,0,.105L6.36,9.08a1.635,1.635,0,1,0,.912,1.465q0-.052,0-.1l2.554-1.7a1.625,1.625,0,0,0,1.625-.1l2.376,1.189a1.635,1.635,0,1,0,3.244-.377L19.8,7.17A1.635,1.635,0,1,0,20.364,4Z" transform="translate(-4 -4)" fill="#fff" stroke="#31ae27" stroke-width="0.2"/>
    <g id="Group_687" data-name="Group 687" transform="translate(-337 -32)">
      <path id="Path_1107" data-name="Path 1107" d="M4.5,15.455a.459.459,0,0,0-.5.4v5.8H6v-5.8a.459.459,0,0,0-.5-.4Z" transform="translate(333 28)" fill="#fff"/>
      <path id="Path_1109" data-name="Path 1109" d="M4.5,14.455a.459.459,0,0,0-.5.4v6.8H6v-6.8a.459.459,0,0,0-.5-.4Z" transform="translate(344 28)" fill="#fff"/>
      <path id="Path_1108" data-name="Path 1108" d="M4.5,12.455a.459.459,0,0,0-.5.4v8.8H6v-8.8a.459.459,0,0,0-.5-.4Z" transform="translate(339 28)" fill="#fff"/>
      <path id="Path_1110" data-name="Path 1110" d="M4.5,10.455a.459.459,0,0,0-.5.4v10.8H6v-10.8a.459.459,0,0,0-.5-.4Z" transform="translate(349 28)" fill="#fff"/>
    </g>
  </g>
</svg>
