<svg xmlns="http://www.w3.org/2000/svg" xmlns:xlink="http://www.w3.org/1999/xlink" preserveAspectRatio="xMidYMid" width="8" height="14" viewBox="0 0 8 14">
  <defs>
    <style>
      .cls-1 {
        fill: #31ae27;
        fill-rule: evenodd;
      }
    </style>
  </defs>
  <path d="M0.217,7.546 L6.277,13.776 C6.417,13.921 6.604,14.000 6.803,14.000 C7.003,14.000 7.190,13.921 7.330,13.776 L7.776,13.318 C8.067,13.019 8.067,12.533 7.776,12.235 L2.688,7.003 L7.782,1.765 C7.922,1.621 8.000,1.429 8.000,1.224 C8.000,1.019 7.922,0.827 7.782,0.682 L7.336,0.224 C7.196,0.079 7.009,-0.000 6.809,-0.000 C6.610,-0.000 6.423,0.079 6.282,0.224 L0.217,6.459 C0.076,6.604 -0.001,6.797 -0.000,7.003 C-0.001,7.209 0.076,7.402 0.217,7.546 Z" class="cls-1"/>
</svg>
