<svg xmlns="http://www.w3.org/2000/svg" xmlns:xlink="http://www.w3.org/1999/xlink" width="237.2" height="124.959" viewBox="0 0 237.2 124.959">
  <defs>
    <radialGradient id="radial-gradient" cx="46.151" cy="27.618" r="14.094" gradientTransform="matrix(0.11, 0.994, -0.994, 0.11, 68.498, -21.295)" gradientUnits="userSpaceOnUse">
      <stop offset="0" stop-color="#1e1e1e"/>
      <stop offset="0.28" stop-color="#0f0f0f"/>
      <stop offset="0.63" stop-color="#040404"/>
      <stop offset="1"/>
    </radialGradient>
    <linearGradient id="linear-gradient" x1="2.337" y1="39.566" x2="2.449" y2="39.566" gradientUnits="objectBoundingBox">
      <stop offset="0" stop-color="#e3e3e3"/>
      <stop offset="0.12" stop-color="#e8e8e8"/>
      <stop offset="0.49" stop-color="#c5c5c5"/>
      <stop offset="0.51" stop-color="#c3c3c3"/>
      <stop offset="0.74" stop-color="#d0d0d0"/>
      <stop offset="0.9" stop-color="#fcfcfc"/>
      <stop offset="0.92" stop-color="#f8f8f8"/>
      <stop offset="0.94" stop-color="#ededed"/>
      <stop offset="0.95" stop-color="#d9d9d9"/>
      <stop offset="0.97" stop-color="#bebebe"/>
      <stop offset="0.98" stop-color="#9c9c9c"/>
      <stop offset="0.99" stop-color="#8a8a8a"/>
    </linearGradient>
  </defs>
  <g id="maps2" transform="translate(-69 -478.691)">
    <g id="gauge_top" transform="translate(-1314 -9050.998)">
      <path id="Path_976" data-name="Path 976" d="M101.4,169a98.6,98.6,0,1,1,197.2-.1l-59.16.06a39.44,39.44,0,0,0-78.88.039Z" transform="translate(1301.6 9475.647)" fill="#f5f5f5" stroke="#ccc" stroke-width="1"/>
      <path id="Path_977" data-name="Path 977" d="M101.4,169a98.6,98.6,0,0,1,40.565-79.711l5.886,8.084A88.6,88.6,0,0,0,111.4,169Z" transform="translate(1301.6 9475.647)" fill="#df5353"/>
      <path id="Path_978" data-name="Path 978" d="M142.044,89.231a98.6,98.6,0,0,1,115.832-.058l-5.87,8.1a88.6,88.6,0,0,0-104.084.052Z" transform="translate(1301.6 9475.647)" fill="#dddf0d"/>
      <path id="Path_979" data-name="Path 979" d="M257.956,89.231A98.6,98.6,0,0,1,298.6,168.9l-10,.01a88.6,88.6,0,0,0-36.522-71.59Z" transform="translate(1301.6 9475.647)" fill="#31ae27"/>
      <path id="Path_981" data-name="Path 981" d="M160.638,166.524,101.6,162.809" transform="translate(1301.6 9475.647)" fill="none"/>
      <path id="Path_982" data-name="Path 982" d="M160.871,164.057l-58.694-7.415" transform="translate(1301.6 9475.647)" fill="none"/>
      <path id="Path_983" data-name="Path 983" d="M161.259,161.61l-58.113-11.086" transform="translate(1301.6 9475.647)" fill="none"/>
      <path id="Path_984" data-name="Path 984" d="M161.8,159.192l-57.3-14.713" transform="translate(1301.6 9475.647)" fill="none"/>
      <path id="Path_985" data-name="Path 985" d="M162.49,156.812l-56.264-18.281" transform="translate(1301.6 9475.647)" fill="none"/>
      <path id="Path_986" data-name="Path 986" d="M163.33,154.481,108.324,132.7" transform="translate(1301.6 9475.647)" fill="none"/>
      <path id="Path_987" data-name="Path 987" d="M164.314,152.207l-53.53-25.189" transform="translate(1301.6 9475.647)" fill="none"/>
      <path id="Path_988" data-name="Path 988" d="M165.438,150,113.6,121.5" transform="translate(1301.6 9475.647)" fill="none"/>
      <path id="Path_989" data-name="Path 989" d="M166.7,147.867l-49.951-31.7" transform="translate(1301.6 9475.647)" fill="none"/>
      <path id="Path_990" data-name="Path 990" d="M168.092,145.818l-47.861-34.774" transform="translate(1301.6 9475.647)" fill="none"/>
      <path id="Path_991" data-name="Path 991" d="M169.611,143.86l-45.584-37.71" transform="translate(1301.6 9475.647)" fill="none"/>
      <path id="Path_992" data-name="Path 992" d="M171.249,142l-43.125-40.5" transform="translate(1301.6 9475.647)" fill="none"/>
      <path id="Path_993" data-name="Path 993" d="M173,140.249,132.5,97.124" transform="translate(1301.6 9475.647)" fill="none"/>
      <path id="Path_994" data-name="Path 994" d="M174.86,138.611,137.15,93.027" transform="translate(1301.6 9475.647)" fill="none"/>
      <path id="Path_995" data-name="Path 995" d="M176.818,137.092,142.044,89.231" transform="translate(1301.6 9475.647)" fill="none"/>
      <path id="Path_996" data-name="Path 996" d="M178.867,135.7l-31.7-49.951" transform="translate(1301.6 9475.647)" fill="none"/>
      <path id="Path_997" data-name="Path 997" d="M181,134.438,152.5,82.6" transform="translate(1301.6 9475.647)" fill="none"/>
      <path id="Path_998" data-name="Path 998" d="M183.207,133.314l-25.189-53.53" transform="translate(1301.6 9475.647)" fill="none"/>
      <path id="Path_999" data-name="Path 999" d="M185.481,132.33,163.7,77.324" transform="translate(1301.6 9475.647)" fill="none"/>
      <path id="Path_1000" data-name="Path 1000" d="M187.812,131.49,169.531,75.226" transform="translate(1301.6 9475.647)" fill="none"/>
      <path id="Path_1001" data-name="Path 1001" d="M190.192,130.8,175.479,73.5" transform="translate(1301.6 9475.647)" fill="none"/>
      <path id="Path_1002" data-name="Path 1002" d="M192.61,130.259,181.524,72.146" transform="translate(1301.6 9475.647)" fill="none"/>
      <path id="Path_1003" data-name="Path 1003" d="M195.057,129.871l-7.415-58.694" transform="translate(1301.6 9475.647)" fill="none"/>
      <path id="Path_1004" data-name="Path 1004" d="M197.524,129.638l-3.715-59.043" transform="translate(1301.6 9475.647)" fill="none"/>
      <path id="Path_1005" data-name="Path 1005" d="M200,129.56V70.4" transform="translate(1301.6 9475.647)" fill="none"/>
      <path id="Path_1006" data-name="Path 1006" d="M202.476,129.638l3.715-59.043" transform="translate(1301.6 9475.647)" fill="none"/>
      <path id="Path_1007" data-name="Path 1007" d="M204.943,129.871l7.415-58.694" transform="translate(1301.6 9475.647)" fill="none"/>
      <path id="Path_1008" data-name="Path 1008" d="M207.39,130.259l11.086-58.113" transform="translate(1301.6 9475.647)" fill="none"/>
      <path id="Path_1009" data-name="Path 1009" d="M209.808,130.8l14.713-57.3" transform="translate(1301.6 9475.647)" fill="none"/>
      <path id="Path_1010" data-name="Path 1010" d="M212.188,131.49l18.281-56.264" transform="translate(1301.6 9475.647)" fill="none"/>
      <path id="Path_1011" data-name="Path 1011" d="M214.519,132.33,236.3,77.324" transform="translate(1301.6 9475.647)" fill="none"/>
      <path id="Path_1012" data-name="Path 1012" d="M216.793,133.314l25.189-53.53" transform="translate(1301.6 9475.647)" fill="none"/>
      <path id="Path_1013" data-name="Path 1013" d="M219,134.438,247.5,82.6" transform="translate(1301.6 9475.647)" fill="none"/>
      <path id="Path_1014" data-name="Path 1014" d="M221.133,135.7l31.7-49.951" transform="translate(1301.6 9475.647)" fill="none"/>
      <path id="Path_1015" data-name="Path 1015" d="M223.182,137.092l34.774-47.861" transform="translate(1301.6 9475.647)" fill="none"/>
      <path id="Path_1016" data-name="Path 1016" d="M225.14,138.611l37.71-45.584" transform="translate(1301.6 9475.647)" fill="none"/>
      <path id="Path_1017" data-name="Path 1017" d="M227,140.249l40.5-43.125" transform="translate(1301.6 9475.647)" fill="none"/>
      <path id="Path_1018" data-name="Path 1018" d="M228.751,142l43.125-40.5" transform="translate(1301.6 9475.647)" fill="none"/>
      <path id="Path_1019" data-name="Path 1019" d="M230.389,143.86l45.584-37.71" transform="translate(1301.6 9475.647)" fill="none"/>
      <path id="Path_1020" data-name="Path 1020" d="M231.908,145.818l47.861-34.774" transform="translate(1301.6 9475.647)" fill="none"/>
      <path id="Path_1021" data-name="Path 1021" d="M233.3,147.867l49.951-31.7" transform="translate(1301.6 9475.647)" fill="none"/>
      <path id="Path_1022" data-name="Path 1022" d="M234.562,150,286.4,121.5" transform="translate(1301.6 9475.647)" fill="none"/>
      <path id="Path_1023" data-name="Path 1023" d="M235.686,152.207l53.53-25.189" transform="translate(1301.6 9475.647)" fill="none"/>
      <path id="Path_1024" data-name="Path 1024" d="M236.67,154.481,291.676,132.7" transform="translate(1301.6 9475.647)" fill="none"/>
      <path id="Path_1025" data-name="Path 1025" d="M237.51,156.812l56.264-18.281" transform="translate(1301.6 9475.647)" fill="none"/>
      <path id="Path_1026" data-name="Path 1026" d="M238.2,159.192l57.3-14.713" transform="translate(1301.6 9475.647)" fill="none"/>
      <path id="Path_1027" data-name="Path 1027" d="M238.741,161.61l58.113-11.086" transform="translate(1301.6 9475.647)" fill="none"/>
      <path id="Path_1028" data-name="Path 1028" d="M239.129,164.057l58.694-7.415" transform="translate(1301.6 9475.647)" fill="none"/>
      <path id="Path_1029" data-name="Path 1029" d="M239.362,166.524l59.043-3.715" transform="translate(1301.6 9475.647)" fill="none"/>
      <path id="Path_1032" data-name="Path 1032" d="M162.49,156.812l-56.264-18.281" transform="translate(1301.6 9475.647)" fill="none"/>
      <path id="Path_1033" data-name="Path 1033" d="M168.092,145.818l-47.861-34.774" transform="translate(1301.6 9475.647)" fill="none"/>
      <path id="Path_1034" data-name="Path 1034" d="M176.818,137.092,142.044,89.231" transform="translate(1301.6 9475.647)" fill="none"/>
      <path id="Path_1035" data-name="Path 1035" d="M187.812,131.49,169.531,75.226" transform="translate(1301.6 9475.647)" fill="none"/>
      <path id="Path_1036" data-name="Path 1036" d="M200,129.56V70.4" transform="translate(1301.6 9475.647)" fill="none"/>
      <path id="Path_1037" data-name="Path 1037" d="M212.188,131.49l18.281-56.264" transform="translate(1301.6 9475.647)" fill="none"/>
      <path id="Path_1038" data-name="Path 1038" d="M223.182,137.092l34.774-47.861" transform="translate(1301.6 9475.647)" fill="none"/>
      <path id="Path_1039" data-name="Path 1039" d="M231.908,145.818l47.861-34.774" transform="translate(1301.6 9475.647)" fill="none"/>
      <path id="Path_1040" data-name="Path 1040" d="M237.51,156.812l56.264-18.281" transform="translate(1301.6 9475.647)" fill="none"/>
      <path id="Path_1047" data-name="Path 1047" d="M106.226,138.531l9.51,3.09" transform="translate(1301.6 9475.647)" fill="none" stroke="#666" stroke-width="1"/>
      <path id="Path_1052" data-name="Path 1052" d="M120.231,111.044l8.09,5.878" transform="translate(1301.6 9475.647)" fill="none" stroke="#666" stroke-width="1"/>
      <path id="Path_1057" data-name="Path 1057" d="M142.044,89.231l5.878,8.09" transform="translate(1301.6 9475.647)" fill="none" stroke="#666" stroke-width="1"/>
      <path id="Path_1062" data-name="Path 1062" d="M169.531,75.226l3.09,9.511" transform="translate(1301.6 9475.647)" fill="none" stroke="#666" stroke-width="1"/>
      <path id="Path_1067" data-name="Path 1067" d="M200,70.4v10" transform="translate(1301.6 9475.647)" fill="none" stroke="#666" stroke-width="1"/>
      <path id="Path_1072" data-name="Path 1072" d="M230.469,75.226l-3.09,9.511" transform="translate(1301.6 9475.647)" fill="none" stroke="#666" stroke-width="1"/>
      <path id="Path_1077" data-name="Path 1077" d="M257.956,89.231l-5.878,8.09" transform="translate(1301.6 9475.647)" fill="none" stroke="#666" stroke-width="1"/>
      <path id="Path_1082" data-name="Path 1082" d="M279.769,111.044l-8.09,5.878" transform="translate(1301.6 9475.647)" fill="none" stroke="#666" stroke-width="1"/>
      <path id="Path_1087" data-name="Path 1087" d="M293.774,138.531l-9.51,3.09" transform="translate(1301.6 9475.647)" fill="none" stroke="#666" stroke-width="1"/>
      <path id="Path_1094" data-name="Path 1094" d="M106.226,138.531l9.51,3.09" transform="translate(1301.6 9475.647)" fill="none" stroke="#fff" stroke-width="2"/>
      <path id="Path_1095" data-name="Path 1095" d="M120.231,111.044l8.09,5.878" transform="translate(1301.6 9475.647)" fill="none" stroke="#fff" stroke-width="2"/>
      <path id="Path_1096" data-name="Path 1096" d="M142.044,89.231l5.878,8.09" transform="translate(1301.6 9475.647)" fill="none" stroke="#fff" stroke-width="2"/>
      <path id="Path_1097" data-name="Path 1097" d="M169.531,75.226l3.09,9.511" transform="translate(1301.6 9475.647)" fill="none" stroke="#fff" stroke-width="2"/>
      <path id="Path_1098" data-name="Path 1098" d="M200,70.4v10" transform="translate(1301.6 9475.647)" fill="none" stroke="#fff" stroke-width="2"/>
      <path id="Path_1099" data-name="Path 1099" d="M230.469,75.226l-3.09,9.511" transform="translate(1301.6 9475.647)" fill="none" stroke="#fff" stroke-width="2"/>
      <path id="Path_1100" data-name="Path 1100" d="M257.956,89.231l-5.878,8.09" transform="translate(1301.6 9475.647)" fill="none" stroke="#fff" stroke-width="2"/>
      <path id="Path_1101" data-name="Path 1101" d="M279.769,111.044l-8.09,5.878" transform="translate(1301.6 9475.647)" fill="none" stroke="#fff" stroke-width="2"/>
      <path id="Path_1102" data-name="Path 1102" d="M293.774,138.531l-9.51,3.09" transform="translate(1301.6 9475.647)" fill="none" stroke="#fff" stroke-width="2"/>
      <path id="Path_1104" data-name="Path 1104" d="M101.4,169a98.6,98.6,0,1,1,197.2-.1M200,169" transform="translate(1301.6 9475.647)" fill="none" stroke="#ccd6eb" stroke-width="1"/>
      <text id="_0" data-name="0" transform="translate(1393 9644.647) rotate(-90)" fill="#666" font-size="11" font-family="HelveticaNeue, Helvetica Neue"><tspan x="-3.058" y="0">0</tspan></text>
      <text id="_20" data-name="20" transform="translate(1413.742 9580.814) rotate(-54)" fill="#666" font-size="11" font-family="HelveticaNeue, Helvetica Neue"><tspan x="-6.116" y="0">20</tspan></text>
      <text id="_40" data-name="40" transform="translate(1468.042 9541.362) rotate(-18)" fill="#666" font-size="11" font-family="HelveticaNeue, Helvetica Neue"><tspan x="-6.116" y="0">40</tspan></text>
      <text id="_60" data-name="60" transform="translate(1535.16 9541.363) rotate(18)" fill="#666" font-size="11" font-family="HelveticaNeue, Helvetica Neue"><tspan x="-6.116" y="0">60</tspan></text>
      <text id="_80" data-name="80" transform="translate(1589.46 9580.815) rotate(54)" fill="#666" font-size="11" font-family="HelveticaNeue, Helvetica Neue"><tspan x="-6.116" y="0">80</tspan></text>
      <text id="_100" data-name="100" transform="translate(1610.2 9644.647) rotate(90)" fill="#666" font-size="11" font-family="HelveticaNeue, Helvetica Neue"><tspan x="-9.174" y="0">100</tspan></text>
    </g>
    <g id="gauge_bottom" transform="translate(-1379 -9183.998)">
      <path id="Path_1111" data-name="Path 1111" d="M12.619.086a14.15,14.15,0,1,0,15.6,12.533A14.15,14.15,0,0,0,12.619.086Z" transform="translate(1551.994 9757.999)" fill="url(#radial-gradient)"/>
      <g id="Group_709" data-name="Group 709" transform="translate(1557.427 9766.105) rotate(-28)">
        <path id="Path_1113" data-name="Path 1113" d="M6.681,16.491h0L102.344.573A.287.287,0,0,0,102.277,0L5.435,5.023H5.15A5.773,5.773,0,0,0,6.4,16.5Z" transform="translate(0.017 0)" fill="url(#linear-gradient)"/>
        <path id="Path_1114" data-name="Path 1114" d="M6.641,15.443h0L102.475.571a.285.285,0,1,0,0-.571L5.528,3.918H5.233A5.789,5.789,0,1,0,6.346,15.443Z" transform="translate(0 1.171)" opacity="0.41"/>
        <path id="Path_1115" data-name="Path 1115" d="M6.681,16.491h0L102.344.573A.287.287,0,0,0,102.277,0L5.435,5.023H5.15A5.773,5.773,0,0,0,6.4,16.5Z" transform="translate(0.017 0)" fill="#e6e6e6"/>
        <path id="Path_1116" data-name="Path 1116" d="M3.439.022A3.861,3.861,0,1,0,7.7,3.446,3.861,3.861,0,0,0,3.439.022Z" transform="translate(1.918 6.93)" fill="#969696"/>
      </g>
    </g>
  </g>
</svg>
