<?xml version="1.0" encoding="utf-8"?>
<!-- Generator: Adobe Illustrator 19.1.0, SVG Export Plug-In . SVG Version: 6.00 Build 0)  -->
<svg version="1.1" id="Layer_1" xmlns="http://www.w3.org/2000/svg" xmlns:xlink="http://www.w3.org/1999/xlink" x="0px" y="0px"
	 viewBox="0 0 32 32" style="enable-background:new 0 0 32 32;" xml:space="preserve">
<style type="text/css">
	.st0{fill:none;stroke:#122448;stroke-width:1.0603;}
	.st1{fill:#38A4DC;stroke:#38A4DC;stroke-width:1.0603;}
</style>
<circle class="st0" cx="16" cy="16" r="15.375"/>
<path class="st1" d="M21.98,22.727c-7.011,0.006-12.7-5.673-12.706-12.684c0-0.007,0-0.015,0-0.022
	C9.25,9.632,9.547,9.297,9.936,9.273c0.028-0.002,0.057-0.002,0.085,0h2.616c0.389-0.024,0.724,0.273,0.748,0.662
	c0.002,0.028,0.002,0.057,0,0.085c0.003,0.915,0.155,1.824,0.449,2.691c0.06,0.259,0.006,0.532-0.15,0.748l-1.719,1.644
	c1.101,2.109,2.823,3.83,4.933,4.931l1.644-1.644c0.18-0.224,0.495-0.287,0.748-0.149c0.864,0.306,1.774,0.458,2.691,0.449
	c0.389-0.024,0.723,0.273,0.747,0.662c0.002,0.029,0.002,0.057,0,0.086v2.541c0.025,0.389-0.271,0.724-0.659,0.749
	C22.038,22.728,22.009,22.728,21.98,22.727z"/>
</svg>
