<?xml version="1.0" encoding="utf-8"?>
<!-- Generator: Adobe Illustrator 22.1.0, SVG Export Plug-In . SVG Version: 6.00 Build 0)  -->
<svg version="1.1" id="Layer_1" xmlns="http://www.w3.org/2000/svg" xmlns:xlink="http://www.w3.org/1999/xlink" x="0px" y="0px"
	 viewBox="0 0 32 32" style="enable-background:new 0 0 32 32;" xml:space="preserve">
<style type="text/css">
	.st0{clip-path:url(#SVGID_2_);}
	.st1{fill:#0C2C63;stroke:#0C2C63;stroke-width:0.2;}
	.st2{fill:none;stroke:#2188C9;stroke-width:1.1;}
	.st3{fill:none;stroke:#2088C8;stroke-width:1.1;}
</style>
<g>
	<defs>
		<rect id="SVGID_1_" width="32" height="32"/>
	</defs>
	<clipPath id="SVGID_2_">
		<use xlink:href="#SVGID_1_"  style="overflow:visible;"/>
	</clipPath>
	<g id="ic-202" class="st0">
		<g id="surface1" transform="translate(2 3)">
			<path id="Path_5" class="st1" d="M14.4,0c-1.3,0-2.3,0.7-3.9,1.5c-2.2,1.2-4.6,2-7.1,2.5L3,4.2v0.4c0,8,2.8,13.3,5.6,16.6
				c1.6,1.9,3.5,3.5,5.6,4.6l0.2,0.1l0.2-0.1c0,0,11.2-5.8,11.2-21.2V4.2l-0.4-0.1c-2.5-0.5-4.8-1.4-7.1-2.5C16.8,0.7,15.7,0,14.4,0
				z M14.4,1c0.9,0,1.8,0.6,3.5,1.4c2.2,1.1,4.5,2,6.9,2.5C24.6,19,15.1,24.3,14.4,24.7c-1.9-1-3.7-2.5-5-4.2
				c-2.6-3.1-5.2-8-5.3-15.5c2.4-0.5,4.7-1.4,6.9-2.5C12.6,1.6,13.6,1,14.4,1z"/>
		</g>
		<g id="Group_1" transform="translate(0 0.5)">
			<path id="Path_6" class="st2" d="M16.5,10.5v8"/>
			<path id="Path_7" class="st3" d="M12.5,14.5h8"/>
		</g>
	</g>
</g>
</svg>
