<?xml version="1.0" encoding="utf-8"?>
<!-- Generator: Adobe Illustrator 19.1.0, SVG Export Plug-In . SVG Version: 6.00 Build 0)  -->
<svg version="1.1" id="Layer_1" xmlns="http://www.w3.org/2000/svg" xmlns:xlink="http://www.w3.org/1999/xlink" x="0px" y="0px"
	 viewBox="0 0 32 32" style="enable-background:new 0 0 32 32;" xml:space="preserve">
<style type="text/css">
	.st0{fill:none;stroke:#1E4485;stroke-width:1.1469;}
	.st1{fill:none;stroke:#38A4DC;stroke-width:1.1469;}
	.st2{fill:#38A4DC;}
</style>
<path class="st0" d="M26.736,21.404L26.721,21.4c-0.102-0.024-0.206-0.038-0.31-0.041c-0.067-0.013-0.135-0.022-0.203-0.026H19.11
	c-0.067,0.002-0.133,0.009-0.199,0.019c-0.073-0.003-0.146-0.001-0.219,0.005l-5.931,0.516l-1.039-2.837l-1.011-2.76l-1.758-4.803
	c0,0,0-0.008-0.006-0.015V6.584c0.022-1.115-0.864-2.037-1.98-2.059c-0.03-0.001-0.061-0.001-0.091,0c0,0-2.07,0-2.07,2.059v5.138
	c0.055,0.394,0.14,0.783,0.256,1.163l4.807,13.129c0.098,0.238,0.231,0.46,0.395,0.659c0.379,0.539,1.013,0.841,1.671,0.795h12.714
	h0.028h0.741c0.654,0.072,1.255-0.366,1.386-1.01l0.908-3.37c0.207-0.711-0.201-1.456-0.913-1.664
	c-0.021-0.006-0.041-0.011-0.062-0.016"/>
<circle class="st1" cx="21.447" cy="11.999" r="7.168"/>
<path id="_" class="st2" d="M21.527,15.566v-0.819c0.787-0.056,1.405-0.698,1.43-1.486c0-0.723-0.385-1.165-1.341-1.502
	c-0.683-0.257-0.964-0.425-0.964-0.688c0-0.225,0.169-0.45,0.688-0.45c0.401,0.003,0.797,0.096,1.157,0.273l0.233-0.908
	c-0.366-0.168-0.762-0.259-1.165-0.265V9.013h-0.787v0.763c-0.75,0.064-1.333,0.678-1.357,1.43c0,0.779,0.586,1.181,1.446,1.47
	c0.595,0.201,0.852,0.393,0.852,0.699c0,0.321-0.313,0.498-0.771,0.498c-0.467-0.006-0.925-0.128-1.333-0.353l-0.241,0.94
	c0.424,0.214,0.89,0.331,1.365,0.344v0.763h0.787L21.527,15.566z"/>
</svg>
