<svg xmlns="http://www.w3.org/2000/svg" width="28.894" height="32.432" viewBox="0 0 28.894 32.432"><defs><style>.a{fill:#fff;}.b{fill:#456aa1;}</style></defs><path class="a" d="M1.356,118.556a3.161,3.161,0,0,0,0,5.19,5.342,5.342,0,0,0,3.319,1.1h0a5.925,5.925,0,0,0,1.025-.1.33.33,0,0,1,.236.021l1.885.8-.056-1.428a.419.419,0,0,1,.163-.349l.012-.009.049-.038a3.156,3.156,0,0,0,0-5.185,5.336,5.336,0,0,0-3.319-1.09,5.337,5.337,0,0,0-3.319,1.09Zm0,0" transform="translate(0 -109.255)"/><path class="a" d="M90.515,2.625A2.656,2.656,0,0,0,87.831,0H75.349a2.633,2.633,0,0,0-2.657,2.626V3.843H90.515Zm-7.976-.11H80.677a.419.419,0,1,1,0-.839h1.861a.419.419,0,0,1,0,.839Zm0,0" transform="translate(-67.61 0.002)"/><path class="a" d="M72.691,386.966a2.632,2.632,0,0,0,2.657,2.626H87.831a2.656,2.656,0,0,0,2.684-2.626V384H72.691Zm6.447-.869h4.94a.419.419,0,0,1,0,.839h-4.94a.419.419,0,0,1,0-.839Zm0,0" transform="translate(-67.61 -357.16)"/><path class="a" d="M72.691,69.7a6.19,6.19,0,0,1,3.436,1.259,3.983,3.983,0,0,1,.1,6.416l.073,1.876a.419.419,0,0,1-.582.4l-2.38-1.006c-.214.034-.437.056-.647.069v9.6H90.515V83.74a7.754,7.754,0,0,1-1.127-.1l-2.957,1.245a.418.418,0,0,1-.581-.4l.093-2.347a4.79,4.79,0,0,1,.094-7.75,7.485,7.485,0,0,1,4.477-1.535V67H72.691Zm0,0" transform="translate(-67.61 -62.316)"/><path class="a" d="M258.281,167.266a4.172,4.172,0,0,0-1.7-3.261,6.959,6.959,0,0,0-8.257,0,3.963,3.963,0,0,0,0,6.506l.066.052.01.008a.421.421,0,0,1,.164.35l-.074,1.9,2.448-1.031a.416.416,0,0,1,.236-.019,7.385,7.385,0,0,0,1.273.126h.005a6.65,6.65,0,0,0,4.129-1.373,4.172,4.172,0,0,0,1.7-3.261Z" transform="translate(-229.387 -151.28)"/><g transform="translate(24.592 9.087) rotate(90)"><g transform="translate(0 0)"><path class="b" d="M.409,1.29c.291,0,.3,0,.342-.291A2.873,2.873,0,0,1,.94.352.185.185,0,0,1,1.187.228c.182.051.356.1.538.16s.189.109.116.269a2,2,0,0,0-.2,1.025.661.661,0,0,0,.058.269.388.388,0,0,0,.691.095A1.654,1.654,0,0,0,2.634,1.6C2.75,1.326,2.859,1.05,3,.8A1.451,1.451,0,0,1,5.208.33a1.57,1.57,0,0,1,.516.807.224.224,0,0,0,.255.2c.145-.007.284,0,.429,0a.171.171,0,0,1,.2.189q.011.229,0,.458c0,.138-.08.2-.211.2H6.081c-.233,0-.24.007-.276.233a2.948,2.948,0,0,1-.233.822c-.1.2-.153.225-.364.167-.16-.044-.32-.087-.473-.138-.182-.058-.2-.109-.116-.276A2.639,2.639,0,0,0,4.9,2.076a1.051,1.051,0,0,0-.08-.6A.462.462,0,0,0,4,1.37a1.23,1.23,0,0,0-.2.342,8.237,8.237,0,0,1-.415.931,1.3,1.3,0,0,1-1.258.742A1.391,1.391,0,0,1,.845,2.374C.758,2.126.758,2.126.5,2.119H.234C.038,2.112,0,2.083,0,1.886V1.7C-.006,1.3-.006,1.3.409,1.29Z" transform="translate(3.966)"/><path class="b" d="M.327,1.032C.56,1.032.566,1.032.6.8A2.3,2.3,0,0,1,.752.282a.148.148,0,0,1,.2-.1c.145.041.285.081.43.128s.151.087.093.215a1.6,1.6,0,0,0-.163.82.529.529,0,0,0,.047.215.311.311,0,0,0,.553.076,1.323,1.323,0,0,0,.2-.355C2.2,1.061,2.288.84,2.4.637A1.161,1.161,0,0,1,4.167.264,1.256,1.256,0,0,1,4.58.91a.179.179,0,0,0,.2.157c.116-.006.227,0,.343,0a.137.137,0,0,1,.157.151q.009.183,0,.367c0,.111-.064.157-.169.157h-.25c-.186,0-.192.006-.221.186a2.357,2.357,0,0,1-.186.657c-.081.163-.122.18-.291.134-.128-.035-.256-.07-.378-.111-.145-.047-.163-.087-.093-.221a2.111,2.111,0,0,0,.221-.727.841.841,0,0,0-.064-.477A.37.37,0,0,0,3.2,1.1a.984.984,0,0,0-.157.273,6.583,6.583,0,0,1-.332.745,1.043,1.043,0,0,1-1.006.593A1.113,1.113,0,0,1,.676,1.9C.606,1.7.606,1.7.4,1.7H.187C.03,1.69,0,1.666,0,1.509V1.364C0,1.038,0,1.038.327,1.032Z" transform="translate(0 18.508)"/></g></g></svg>