<svg xmlns="http://www.w3.org/2000/svg" width="26.919" height="28.09" viewBox="0 0 26.919 28.09"><defs><style>.a{fill:#fff;}</style></defs><g transform="translate(-1)"><path class="a" d="M14.46,0A14.227,14.227,0,0,0,1.329,8.924,1.171,1.171,0,1,0,3.487,9.8a12.491,12.491,0,0,1,.841-1.609H7c-.082.3-.151.6-.219.914a1.171,1.171,0,1,0,2.268.512c.11-.489.229-.974.366-1.426H19.471c.142.462.293.924.4,1.426a1.171,1.171,0,1,0,2.268-.512c-.069-.315-.137-.608-.219-.914h2.6a12.014,12.014,0,0,1,.8,1.609,1.171,1.171,0,1,0,2.158-.878A13.927,13.927,0,0,0,15.155.037,5.019,5.019,0,0,0,14.46,0Zm0,2.341a4.105,4.105,0,0,1,3.072,1.865,10.363,10.363,0,0,1,1.024,1.646H10.363a10.019,10.019,0,0,1,.988-1.682A3.977,3.977,0,0,1,14.46,2.341ZM8.827,3.767A14.828,14.828,0,0,0,7.766,5.852H6.084A11.728,11.728,0,0,1,8.827,3.767Zm11.229,0a11.56,11.56,0,0,1,2.707,2.085H21.116A14.126,14.126,0,0,0,20.056,3.767ZM1,11.7l1.646,4.682h1.17L5.1,13.35l1.28,3.036h1.17L9.193,11.7H7.8L6.852,15,5.682,11.7H4.621L3.341,15,2.39,11.7Zm9.363,0,1.646,4.682h1.17l1.28-3.036,1.28,3.036h1.17L18.556,11.7h-1.39L16.215,15,15.045,11.7H13.984L12.7,15,11.753,11.7Zm9.363,0,1.646,4.682h1.17l1.28-3.036,1.28,3.036h1.17L27.919,11.7H26.53L25.579,15,24.408,11.7H23.348L22.067,15,21.116,11.7Zm1.207,5.706a1.172,1.172,0,0,0-1.061,1.061c-.11.489-.229.974-.366,1.426H9.449c-.142-.462-.293-.924-.4-1.426a1.163,1.163,0,1,0-2.268.512c.069.315.137.608.219.914H4.4a12.013,12.013,0,0,1-.8-1.609,1.164,1.164,0,0,0-2.121-.128,1.191,1.191,0,0,0-.037,1.006,14.041,14.041,0,0,0,26.151,0,1.171,1.171,0,1,0-2.158-.878,11.494,11.494,0,0,1-.8,1.609H21.921c.082-.3.151-.6.219-.914a1.171,1.171,0,0,0-1.207-1.573ZM6.157,22.238H7.8a14.129,14.129,0,0,0,1.061,2.085A11.562,11.562,0,0,1,6.157,22.238Zm4.206,0h8.193a10.016,10.016,0,0,1-.988,1.682,3.977,3.977,0,0,1-3.109,1.829,4.105,4.105,0,0,1-3.072-1.865A10.364,10.364,0,0,1,10.363,22.238Zm10.79,0h1.682a11.79,11.79,0,0,1-2.78,2.121A14.017,14.017,0,0,0,21.153,22.238Z"/></g></svg>