<svg xmlns="http://www.w3.org/2000/svg" width="27.728" height="27.827" viewBox="0 0 27.728 27.827"><defs><style>.a{fill:#fff;}</style></defs><g transform="translate(0.001)"><path class="a" d="M6.421,0A3.211,3.211,0,0,0,3.211,3.211V19.265a3.21,3.21,0,0,0,3.209,3.212v.435a3.465,3.465,0,0,1-.567,2.074,1.776,1.776,0,0,1-1.573.7,1.776,1.776,0,0,1-1.573-.7,3.465,3.465,0,0,1-.569-2.074V17.76a1.07,1.07,0,1,0-2.14,0v5.152a5.5,5.5,0,0,0,1.036,3.377,4.046,4.046,0,0,0,3.245,1.539,4.039,4.039,0,0,0,3.243-1.539,5.486,5.486,0,0,0,1.038-3.377v-.435a3.212,3.212,0,0,0,3.212-3.212V3.211A3.213,3.213,0,0,0,8.562,0Zm9.635,0a3.212,3.212,0,0,0-3.212,3.211V19.265a3.21,3.21,0,0,0,3.212,3.212h7.491c1.772,0,4.182-1.405,4.182-11.237S25.318,0,23.546,0Zm.535,3.211h7.491a.534.534,0,0,1,.537.535V6.958a.536.536,0,0,1-.537.535H16.59a.534.534,0,0,1-.535-.535V3.746A.533.533,0,0,1,16.59,3.211Zm0,6.421h1.07a.533.533,0,0,1,.535.535v1.072a.534.534,0,0,1-.535.535H16.59a.534.534,0,0,1-.535-.535V10.167A.533.533,0,0,1,16.59,9.632Zm3.209,0h1.072a.533.533,0,0,1,.535.535v1.072a.534.534,0,0,1-.535.535H19.8a.535.535,0,0,1-.535-.535V10.167A.534.534,0,0,1,19.8,9.632Zm3.212,0h1.07a.534.534,0,0,1,.537.535v1.072a.536.536,0,0,1-.537.535h-1.07a.534.534,0,0,1-.535-.535V10.167A.533.533,0,0,1,23.011,9.632ZM16.59,12.844h1.07a.533.533,0,0,1,.535.535v1.07a.533.533,0,0,1-.535.535H16.59a.533.533,0,0,1-.535-.535v-1.07A.533.533,0,0,1,16.59,12.844Zm3.209,0h1.072a.533.533,0,0,1,.535.535v1.07a.533.533,0,0,1-.535.535H19.8a.534.534,0,0,1-.535-.535v-1.07A.534.534,0,0,1,19.8,12.844Zm3.212,0h1.07a.534.534,0,0,1,.537.535v1.07a.534.534,0,0,1-.537.535h-1.07a.533.533,0,0,1-.535-.535v-1.07A.533.533,0,0,1,23.011,12.844ZM16.59,16.055h1.07a.533.533,0,0,1,.535.535v1.07a.533.533,0,0,1-.535.535H16.59a.533.533,0,0,1-.535-.535V16.59A.533.533,0,0,1,16.59,16.055Zm3.209,0h1.072a.533.533,0,0,1,.535.535v1.07a.533.533,0,0,1-.535.535H19.8a.534.534,0,0,1-.535-.535V16.59A.534.534,0,0,1,19.8,16.055Zm3.212,0h1.07a.534.534,0,0,1,.537.535v1.07a.534.534,0,0,1-.537.535h-1.07a.533.533,0,0,1-.535-.535V16.59A.533.533,0,0,1,23.011,16.055Z"/></g></svg>