<svg xmlns="http://www.w3.org/2000/svg" width="26.687" height="30.27" viewBox="0 0 26.687 30.27"><defs><style>.a{fill:#fff;}</style></defs><path class="a" d="M88.47,113.716a.95.95,0,0,1,.95-.95h4.07a.95.95,0,0,1,.95.95v4.206h8.143V95.328H80.328v22.593H88.47ZM96.612,98.45a.95.95,0,1,1,1.9,0v1.018a.95.95,0,0,1-1.9,0Zm0,5.088a.95.95,0,0,1,1.9,0v1.018a.95.95,0,1,1-1.9,0Zm0,5.089a.95.95,0,0,1,1.9,0v1.017a.95.95,0,0,1-1.9,0Zm0,5.089a.95.95,0,0,1,1.9,0v1.018a.95.95,0,1,1-1.9,0ZM92.541,98.45a.95.95,0,1,1,1.9,0v1.018a.95.95,0,0,1-1.9,0Zm0,5.088a.95.95,0,0,1,1.9,0v1.018a.95.95,0,1,1-1.9,0Zm0,5.089a.95.95,0,0,1,1.9,0v1.017a.95.95,0,0,1-1.9,0ZM88.47,98.45a.95.95,0,1,1,1.9,0v1.018a.95.95,0,0,1-1.9,0Zm0,5.088a.95.95,0,0,1,1.9,0v1.018a.95.95,0,1,1-1.9,0Zm0,5.089a.95.95,0,1,1,1.9,0v1.017a.95.95,0,0,1-1.9,0ZM86.3,114.734a.95.95,0,0,1-1.9,0v-1.018a.95.95,0,1,1,1.9,0Zm0-5.089a.95.95,0,0,1-1.9,0v-1.017a.95.95,0,1,1,1.9,0Zm0-5.088a.95.95,0,1,1-1.9,0v-1.018a.95.95,0,0,1,1.9,0Zm0-5.088a.95.95,0,0,1-1.9,0V98.45a.95.95,0,1,1,1.9,0Zm0,0" transform="translate(-78.112 -89.29)"/><path class="a" d="M102.587,2.986A2.984,2.984,0,0,0,99.6,0H83.317a2.985,2.985,0,0,0-2.986,2.986V4.138h22.255Zm0,0" transform="translate(-78.116)"/><path class="a" d="M25.905,482H.782a.968.968,0,0,0,0,1.9H25.905a.968.968,0,0,0,0-1.9Zm0,0" transform="translate(0 -453.63)"/></svg>