<svg xmlns="http://www.w3.org/2000/svg" width="27.027" height="27.027" viewBox="0 0 27.027 27.027"><defs><style>.a{fill:#fff;}</style></defs><path class="a" d="M96.73.969,79.168,19.514l1.125,1.125L83.1,17.834a.785.785,0,0,1,1.11,1.11L81.4,21.749l1.125,1.125L101.073,5.312a3.021,3.021,0,0,0,.047-4.39,3.02,3.02,0,0,0-4.39.047Zm0,0" transform="translate(-75.015 0)"/><path class="a" d="M298.968,242.107a.792.792,0,1,0-1.121-1.121l-.465.465-.474-2.252-5.272,4.991,5.133,8.8a.792.792,0,0,0,1.244.161l1.21-1.21a.792.792,0,0,0,.214-.727l-.691-3.28,1.342-1.342a.792.792,0,1,0-1.121-1.121l-.611.611-.585-2.777Zm0,0" transform="translate(-276.268 -226.572)"/><path class="a" d="M64.392,392.676a.784.784,0,0,0,1.109,1.109l1.68-1.68L66.072,391Zm0,0" transform="translate(-60.794 -370.356)"/><path class="a" d="M18.791,59.789l-2.246-.483.5-.5a.793.793,0,1,0-1.121-1.121L14.7,58.909l-2.767-.6.63-.63a.793.793,0,0,0-1.121-1.121l-1.354,1.354-3.268-.7a.791.791,0,0,0-.727.214L4.883,58.638a.792.792,0,0,0,.161,1.244l8.8,5.133Zm0,0" transform="translate(-4.432 -53.357)"/><path class="a" d="M156.578,410.145a.792.792,0,0,0,.73-.214l1.145-1.145a.792.792,0,0,0,.23-.617l-.266-3.681-3.264,3.091.852,2.069A.792.792,0,0,0,156.578,410.145Zm0,0" transform="translate(-146.989 -383.136)"/><path class="a" d="M.732,291.816a.793.793,0,0,0,.293,1.307l2.059.848,3.133-3.308-3.733-.222a.792.792,0,0,0-.607.231Zm0,0" transform="translate(-0.5 -275.108)"/></svg>