<svg xmlns="http://www.w3.org/2000/svg" width="22.7" height="29.375" viewBox="0 0 22.7 29.375"><defs><style>.a{fill:#fff;}</style></defs><path class="a" d="M-7258.3,5010.374h-13.352a2,2,0,0,1-2-2v-6.008h-3.672a1.672,1.672,0,0,1-1.67-1.67v-6.008a1.671,1.671,0,0,1,1.67-1.667h.334v-.669a3.987,3.987,0,0,1,3.338-3.942V4983a2.005,2.005,0,0,1,2-2h13.352a2.006,2.006,0,0,1,2,2v25.369A2.005,2.005,0,0,1-7258.3,5010.374Zm-8.677-3.337a.669.669,0,0,0-.668.667.669.669,0,0,0,.668.668h4a.668.668,0,0,0,.667-.668.667.667,0,0,0-.667-.667Zm-5.342-4.673v2.671h14.688v-19.362h-14.687v2.735a3.988,3.988,0,0,1,3.338,3.942v.669h.334a1.671,1.671,0,0,1,1.67,1.667v6.008a1.672,1.672,0,0,1-1.67,1.67Zm-.479-6.989a1.5,1.5,0,0,0-1.5,1.5,1.5,1.5,0,0,0,1.5,1.5,1.5,1.5,0,0,0,1.5-1.5A1.5,1.5,0,0,0-7272.8,4995.375Zm-.19-5.7a2.674,2.674,0,0,0-2.671,2.67v.669h5.342v-.669A2.674,2.674,0,0,0-7272.992,4989.679Z" transform="translate(7279 -4981)"/></svg>