<svg xmlns="http://www.w3.org/2000/svg" width="200" height="143" viewBox="0 0 200 143"><defs><style>.a{fill:none;}.b{fill:#005992;}.c{fill:#d71149;}.d{fill:#005790;}</style></defs><g transform="translate(-2138 2497)"><rect class="a" width="200" height="143" transform="translate(2138 -2497)"/><g transform="translate(2069.719 -2507.735)"><path class="b" d="M82.6,79.992v12.9H87.47V76.165A4.64,4.64,0,0,0,82.6,79.992Z" transform="translate(8.756 13.102)"/><path class="b" d="M104.435,79.992v12.9h4.874V76.165A4.641,4.641,0,0,0,104.435,79.992Z" transform="translate(24.281 13.102)"/><path class="b" d="M118.221,75.846a5.881,5.881,0,0,0-4.649,2.229V76.438H108.7V93.164h4.876V82.233a3.713,3.713,0,0,1,3.052-1.92c2.279,0,2.553,2.549,2.553,2.549v10.3h4.967V81.634A5.915,5.915,0,0,0,118.221,75.846Z" transform="translate(27.31 12.874)"/><path class="b" d="M153.132,82.862v10.3H158.1V81.634a5.937,5.937,0,0,0-10.572-3.559V76.438h-4.876V93.164h4.876V82.233a3.713,3.713,0,0,1,3.054-1.92C152.859,80.313,153.132,82.862,153.132,82.862Z" transform="translate(51.451 12.874)"/><path class="b" d="M143.967,93.125H148.8V76.31h-4.828v2a7.457,7.457,0,0,0-5.422-2.414c-4.382,0-7.93,3.978-7.93,8.885s3.548,8.885,7.93,8.885a7.457,7.457,0,0,0,5.422-2.414Zm-4.081-4.057a4.309,4.309,0,1,1,4.081-5.2V85.65A4.209,4.209,0,0,1,139.886,89.068Z" transform="translate(42.893 12.913)"/><path class="b" d="M158.414,88.716l.318.181L163.425,96h6.652l-7.016-9.159,7.155-7.518h-6.334l-5.468,6.1V75.91c-.318-4.466-5.15-4.192-5.15-4.192l-.091,23.876.135.5h5.105Z" transform="translate(58.93 9.939)"/><path class="b" d="M95.325,75.925a8.887,8.887,0,0,0,0,17.77,8.686,8.686,0,0,0,8.142-5.833H98.981a4.277,4.277,0,0,1-3.612,2.19,4.591,4.591,0,0,1-4.241-3.737h12.194v-.046h.556a8.915,8.915,0,0,0,.128-1.458A8.787,8.787,0,0,0,95.325,75.925Zm-4.051,6.928a4.226,4.226,0,0,1,8.2,0Z" transform="translate(11.634 12.932)"/><path class="b" d="M88.5,71.77,82.625,87.013,76.488,71.77H70.281l9.542,24.059s3.624.753,4.649-1.162S93.7,71.77,93.7,71.77Z" transform="translate(0 9.978)"/><path class="b" d="M104.679,73.715H99.8v4.192H97.3v3.92H99.8v7.29s-.275,4.281,4.6,5.466h2.917v-4.1a2.63,2.63,0,0,1-1.413-.364,2.7,2.7,0,0,1-1.23-2.325V81.826h2.78v-3.92h-2.78Z" transform="translate(19.207 11.361)"/><path class="b" d="M124.274,71.877h-5.057v24.15h11.347v-.108c1.062-.121,6.873-1.044,6.9-7.07.021-5.217-4.034-5.853-4.034-5.853l-.092.019L133.336,83h.1a5.126,5.126,0,0,0,2.871-5.013c0-4.763-4.238-5.855-6.654-6.094m-4.874,4.363h4.01c.453,0,2.553.455,2.553,2.414s-2.19,2.6-2.19,2.6h-4.373Zm0,9.431h5.239s2.37.638,2.37,2.69a2.91,2.91,0,0,1-2.2,3.1h-5.41Z" transform="translate(34.79 10.054)"/><path class="c" d="M180.254,86.02a19.52,19.52,0,0,0,16.461-9.032,35.518,35.518,0,0,0-32.922,0A19.515,19.515,0,0,0,180.254,86.02Z" transform="translate(66.48 10.812)"/><path class="d" d="M175.8,81.467V71.451h11.482V81.467A38.116,38.116,0,0,1,199.307,85.4a19.549,19.549,0,1,0-35.539,0A38.15,38.15,0,0,1,175.8,81.467Z" transform="translate(65.197 0)"/></g></g></svg>