<svg xmlns="http://www.w3.org/2000/svg" xmlns:xlink="http://www.w3.org/1999/xlink" width="200" height="143" viewBox="0 0 200 143"><defs><style>.a{fill:none;}.b,.c,.d{fill-rule:evenodd;}.b{fill:url(#a);}.c{fill:url(#b);}.d{fill:#004522;}</style><linearGradient id="a" x1="0.878" y1="0.637" x2="0.081" y2="0.056" gradientUnits="objectBoundingBox"><stop offset="0" stop-color="#006840"/><stop offset="0.4" stop-color="#007a48"/><stop offset="1" stop-color="#86c440"/></linearGradient><linearGradient id="b" x1="0.158" y1="0.018" x2="0.828" y2="0.841" gradientUnits="objectBoundingBox"><stop offset="0" stop-color="#006840"/><stop offset="0.3" stop-color="#007a48"/><stop offset="1" stop-color="#86c440"/></linearGradient></defs><g transform="translate(-2137 2497)"><rect class="a" width="200" height="143" transform="translate(2137 -2497)"/><g transform="translate(1944.812 -2589.346)"><g transform="translate(326.682 130.346)"><path class="b" d="M286.4,130.666c-3.182.646-4.346,2.087-4.233,4.163.159,2.916,3.367,8.475,4.9,10.955a68.061,68.061,0,0,0,9.37,11.839c2.856,2.821,4.639,3.432,7.692-.732a64.43,64.43,0,0,0,7.068-11.1,49.291,49.291,0,0,0,2.49-6.2c.8-2.671.511-5.034-2.1-6.775a6.735,6.735,0,0,1,3.779,5.987,21.63,21.63,0,0,1-1.119,6.973,78.77,78.77,0,0,1-5.352,14.04,80.69,80.69,0,0,1-5.955,10.2c-4.724,6.5-9.261,4.4-14.575,0a55.426,55.426,0,0,1-9.389-10.179,77.282,77.282,0,0,1-7.738-14.081c-2.507-6.065-.558-9.169,2.54-11.139C277.175,132.462,282.272,131.236,286.4,130.666Z" transform="translate(-270.088 -130.114)"/><path class="c" d="M281.21,144.731c4.921-.735,17.71-1.531,22.2.794a2.515,2.515,0,0,1,1.395,3.023q.673-1.215,1.312-2.522a49.29,49.29,0,0,0,2.49-6.2c.8-2.671.511-5.034-2.1-6.775l-.012-.007a17.06,17.06,0,0,0-3.1-1.171,46.993,46.993,0,0,0-9.535-1.445c-1.362-.1-2.787-.088-4.23-.083a64.413,64.413,0,0,0-8.315.549c-3.18.646-4.344,2.087-4.232,4.163C277.22,137.545,279.569,141.948,281.21,144.731Z" transform="translate(-265.01 -130.346)"/></g><path class="d" d="M330.022,180.166c2.569-.311,4.744-1.619,5.478-5.5a22.431,22.431,0,0,0-.294-8.829,5.25,5.25,0,0,0-1.526-2.605,7,7,0,0,0-8.213.2c-.28.224-.523.325-.523-.069l-.045-8.289-4.592.076.021,23.762c1.968,1.324,7.381,1.542,9.694,1.264Zm-123.142-.452c.965,0,.775.086,1.364-.72,3.992-5.475,7.767-17.146,7.716-23.66a20.421,20.421,0,0,0-5.616.679c-1.8,10.68-3.386,13.5-6.269,18.95h0c-2.883-5.449-4.465-8.27-6.271-18.95a20.42,20.42,0,0,0-5.616-.679c-.052,6.514,3.724,18.185,7.716,23.66.589.806.4.72,1.364.72Zm131.983-16.838.447,4.169c1.818-.173,3.3-.653,5.209-.789,2.871-.1,4.7-.171,4.613,1.91-2.146-.009-4.308,0-6.538.019-2.707.022-4.955,1.309-4.658,6.809.359,6.6,8.2,6.12,11.782,3.472v1.481h4.163c-.111-6.742.378-13.826-.837-15.739-2.32-3.657-9.922-2.315-14.18-1.333Zm-98.051,16.279q-.23-2.041-.463-4.081a39.962,39.962,0,0,1-7.011.761c-2.193-.071-3.009-1.124-3-4.251a3.848,3.848,0,0,0,2.9,1.359c2.862.033,5.539.079,8.36-.024.126-5.205.577-9.744-4.622-10.853a15.444,15.444,0,0,0-6.918.152,5.033,5.033,0,0,0-3.912,3.881c-1.179,4.081-.846,10.129,1.778,12.462,3.013,2.678,9.088,1.723,12.887.594ZM232.445,166.1h2.3a2.09,2.09,0,0,1,2.084,2.084v.924h-6.464v-.924a2.09,2.09,0,0,1,2.084-2.084Zm146.817,13.81.143-7.643c.009-.468.425.161.539.347a31.793,31.793,0,0,0,5.162,6.707c.634.634.763.589,1.889.589h4.817a26.573,26.573,0,0,1-7.343-8.757c-.376-.811-.357-.72.18-1.48.7-.8,1.576-1.89,2.547-3l4.1-4.831c.019-.038.038-.076.057-.112h-4.365c-.8,0-.772-.123-1.336.487-1.661,1.794-3.565,3.891-5.1,5.587a3.724,3.724,0,0,1-.608.5c-.632.454-.516.333-.52-.319l-.041-12.981-4.648.033-.059,24.867Zm-107.9-.6-.409-4.054c-2.094.176-4.309.753-6.542.5s-2.5-1.428-2.524-3.239c-.012-1.095-.043-2.329.019-3.41.088-1.483.523-2.44,2.505-2.662,2.232-.25,4.447.326,6.542.5l.409-4.054c-7.992-1.889-12.975-.946-14.092,5.25a27.861,27.861,0,0,0,.19,6.782c1.416,5.418,6.3,6.183,13.9,4.385ZM246.283,162H243.36q-.013,2.147-.024,4.294l2.947.021c.005,1.452,0,2.992-.009,4.451-.005,1.535-.017,2.973-.009,4.223.01,1.82.357,3.379,1.388,4.2a3.541,3.541,0,0,0,1.818.609,14.729,14.729,0,0,0,5.62-.4q-.075-1.844-.148-3.688c-1.8.178-4,.565-4-.354,0-3.134,0-5.906.005-9.04,1.44-.005,2.806-.01,4.245-.017q-.005-2.139-.009-4.283L250.956,162q0-2.137,0-4.27l-4.675.007q0,2.129.005,4.259Zm-28.534,17.912,4.542.086.166-17.93-4.727.022.019,17.821Zm61.917-18.154h4.076a5.807,5.807,0,0,1,5.789,5.791v6.846a5.807,5.807,0,0,1-5.789,5.791h-4.076a5.805,5.805,0,0,1-5.787-5.791v-6.846a5.805,5.805,0,0,1,5.787-5.791Zm.891,4.346a2.09,2.09,0,0,0-2.084,2.084v5.568a2.089,2.089,0,0,0,2.084,2.082h2.3a2.089,2.089,0,0,0,2.084-2.082v-5.568a2.09,2.09,0,0,0-2.084-2.084Zm16.562,13.808q.062-6.852.126-13.7,1.707,0,3.415-.005a1.679,1.679,0,0,1,1.8,1.561v.63l.01,11.519h4.587l.128-13.72,3.743,0a1.626,1.626,0,0,1,1.823,1.678l.017,12.046h4.544l.155-12.956c.033-2.755-1.485-5.031-4.6-5l-2.973.029a3.829,3.829,0,0,0-3.208,1.241c-.689.715-.352.722-.982.052a4.329,4.329,0,0,0-3.431-1.319h-2.1a4.074,4.074,0,0,0-3.04,1.419c-.761.77-.67,1.024-.67-.181v-1.12h0c-1.29.005-2.617.01-3.907.017q.01,8.911.019,17.821Zm64.327,0q.062-6.852.128-13.7,1.73,0,3.462-.005a1.674,1.674,0,0,1,1.825,1.656q.008,6.024.014,12.054h4.651q.057-6,.114-11.987c.029-3.166-1.214-5.968-4.967-5.968h-2.127a4.1,4.1,0,0,0-2.99,1.328c-.8.77-.775,1.191-.775-.035v-1.19l-3.971,0c.007,5.939.021,11.909.026,17.85Zm-17.286-7.726h5.062v2.645c0,1.1-3.2,1.146-5.23,1.1-1.49-.035-1.316.007-1.381-1.321-.022-.492,0-.984,0-1.48,0-1.015.209-.944,1.55-.944Zm-13.183-3.2V173.9a2.09,2.09,0,0,1-2.084,2.084h-2.345c-1.638,0-1.649.022-1.649-2.31V168.4c0-2.332.01-2.31,1.649-2.31h2.345a2.09,2.09,0,0,1,2.084,2.084Z" transform="translate(0 17.919)"/></g></g></svg>