<svg xmlns="http://www.w3.org/2000/svg" width="200" height="143" viewBox="0 0 200 143">
  <g id="logo_bidv1" transform="translate(-2137 2497)">
    <rect id="Rectangle_1892" data-name="Rectangle 1892" width="200" height="143" transform="translate(2137 -2497)" fill="none"/>
    <g id="Group_7122" data-name="Group 7122" transform="translate(2128.324 -2665.879)">
      <rect id="Rectangle_1893" data-name="Rectangle 1893" width="7.431" height="33.478" transform="translate(67.507 223.866)" fill="#21409a"/>
      <g id="Group_7120" data-name="Group 7120" transform="translate(35.833 223.748)">
        <path id="Path_12882" data-name="Path 12882" d="M238.222,258.311c-.826-2.171-8.37-21.716-8.37-21.716l-8.068.005.14.356,12.79,33.122h7l12.876-33.48h-8.092s-6.955,18.108-8.271,21.71" transform="translate(-154.376 -236.483)" fill="#21409a"/>
        <path id="Path_12883" data-name="Path 12883" d="M170.836,263.087c-1.72,1.194-4.373,1.814-8.06,1.814h-1.285V241.8h1.046c4.866.006,6.562.381,8.438,1.72,2.463,1.831,3.891,5.412,3.891,9.832s-1.476,7.994-4.028,9.737m5.887-23.185c-3.128-2.382-6.932-3.294-13.64-3.291h-9.011v33.478h8.531c6.638,0,10.118-.67,13.146-2.562,4.318-2.725,6.562-7.694,6.562-14.223,0-6.005-1.884-10.582-5.586-13.4" transform="translate(-111.21 -236.493)" fill="#21409a"/>
        <path id="Path_12884" data-name="Path 12884" d="M53.767,264.126c-1.359.589-3.61.517-7.546.517h-2.95V256H46.28a28.65,28.65,0,0,1,7.271.6,3.586,3.586,0,0,1,2.857,3.739,3.636,3.636,0,0,1-2.641,3.792M43.28,241.555H45.6c3.815,0,6.372-.13,7.792.6a3.69,3.69,0,0,1,.058,6.647c-1.164.622-4.106.916-7.553.916H43.276Zm13.42,11.11c4.2-1.157,6.293-3.649,6.266-7.4a7.926,7.926,0,0,0-4.814-7.425c-2.561-1.17-5.258-1.551-10.987-1.55H35.833v33.478H48.5c5.358,0,8.051-.433,10.5-1.656a8.435,8.435,0,0,0,4.862-7.706c.026-4.062-2.428-6.665-7.163-7.74" transform="translate(-35.833 -236.285)" fill="#21409a"/>
      </g>
      <path id="Path_12885" data-name="Path 12885" d="M338.612,220.788l-22.2,22.14L338.6,265.063l.01,0,22.211-22.126L338.615,220.8" transform="translate(-178.865 -2.658)" fill="#fff"/>
      <path id="Path_12886" data-name="Path 12886" d="M367.423,240.872l0,18.494h7.43v-18.5h-3.556" transform="translate(-211.385 -15.461)" fill="#ed1d24"/>
      <g id="Group_7121" data-name="Group 7121" transform="translate(151.969 229.089)">
        <path id="Path_12887" data-name="Path 12887" d="M356.2,251.019h3.713v11.2H356.2Zm13.869,11.2-2.005,0v-11.2h2.007c2.038,0,3.586,2.512,3.6,5.6.023,3.014-1.561,5.6-3.606,5.6" transform="translate(-356.2 -251.019)" fill="#21409a"/>
      </g>
      <path id="Path_12888" data-name="Path 12888" d="M335.957,262.4l-.01,0L313.753,240.27l22.2-22.14v.008l22.207,22.141ZM312.245,240.27l.195.2,22.631,22.567.889.887.889-.887,22.831-22.759-23.712-23.659" transform="translate(-176.211)" fill="#ed1d24"/>
      <path id="Path_12889" data-name="Path 12889" d="M340.363,292.538l-10.7-10.675h-10.5l18.494,18.448.2.2,2.512,2.507,21.22-21.152H351.073" transform="translate(-180.618 -41.593)" fill="#ed1d24"/>
    </g>
  </g>
</svg>
