<svg xmlns="http://www.w3.org/2000/svg" width="201.673" height="143" viewBox="0 0 201.673 143"><defs><style>.a{fill:none;}.b{fill:#ea2127;}.b,.c,.d,.e,.f,.g{fill-rule:evenodd;}.c{fill:#ea2128;}.d{fill:#008447;}.e{fill:#0d8547;}.f{fill:#008347;}.g{fill:#008346;}</style></defs><g transform="translate(-2137 2497)"><rect class="a" width="200" height="143" transform="translate(2138 -2497)"/><g transform="translate(990.6 -2025.325)"><g transform="translate(1146.4 -421.675)"><path class="b" d="M56.4,70.828a8.893,8.893,0,0,0,1.96.065c2.508.011,5.015.051,7.519-.016a6.849,6.849,0,0,1,3.54.922,30.043,30.043,0,0,1,6.815,5.637c1.683,1.715,3.32,3.475,4.991,5.2a1.2,1.2,0,0,1,.4.921c-.04,3.414-.069,6.832-.069,10.245,0,.653-.264.626-.74.469a13.269,13.269,0,0,1-4.461-2.809C73.522,89,71.005,86.223,68.4,83.537,64.367,79.381,60.576,75,56.4,70.98,56.4,70.929,56.4,70.878,56.4,70.828Z" transform="translate(-56.4 -51.694)"/><path class="c" d="M86.164,57.325a1.837,1.837,0,0,0-.067.822c-.006,3.969-.037,7.94.009,11.906a10.984,10.984,0,0,1-3.065,8.053c-2.525,2.651-5.009,5.344-7.51,8.013-.291-.136-.167-.367-.167-.538-.008-5.437,0-10.872-.024-16.309a1.662,1.662,0,0,1,.635-1.21q5.016-5.371,10.037-10.737Z" transform="translate(-48.502 -57.325)"/><path class="b" d="M191.071,84.751a5.54,5.54,0,0,1-2.813,1.516q0-3.05,0-6.1c1.689-1.742,3.373-3.493,5.072-5.225.388-.4.826-.744,1.253-1.1a5.493,5.493,0,0,1,4.1-1.42c1.458.116,2.932.026,4.4.026V72.6c-1.423,1.237-2.668,2.653-4,3.983-1.549,1.547-3.066,3.126-4.6,4.69A22.282,22.282,0,0,0,191.071,84.751Z" transform="translate(-1.41 -51.036)"/><path class="d" d="M140.852,73.779v2.349c0,1.506,0,1.526,1.489,1.5a34.764,34.764,0,0,0,5-.112,3.816,3.816,0,0,0,3.227-4.183c-.111-1.98-1.362-3.1-3.547-3.289-1.844-.156-3.689-.094-5.528-.145-.565-.017-.666.19-.648.692.035,1.06.011,2.123.011,3.186Zm.055,12.837c0,1.392,0,2.783,0,4.173,0,.262-.088.574.377.564,2.477-.054,4.953.058,7.43-.094a4.083,4.083,0,0,0,3.408-5.113c-.587-2.3-2.327-3.33-4.427-3.881s-4.275-.272-6.418-.327c-.449-.011-.368.322-.37.584-.006,1.365,0,2.729,0,4.094Zm11.009-7.166a8.929,8.929,0,0,1,5.437,6.133c1.407,5.24-1.45,9.46-6.908,10.3a24.763,24.763,0,0,1-3.775.276c-3.391.007-6.778-.01-10.17.017-.534,0-.673-.15-.673-.679q.008-14.722-.024-29.442c0-.51.1-.687.655-.684,3.744.027,7.488,0,11.23.021a8.9,8.9,0,0,1,4.287,1.108c2.821,1.562,3.85,4.034,3.653,7.167A6.444,6.444,0,0,1,151.916,79.45Z" transform="translate(-23.286 -53.969)"/><path class="e" d="M123.839,74.93c0,1.44,0,2.879,0,4.319,0,.308.007.523.427.52a50.548,50.548,0,0,0,5.825-.171,4.479,4.479,0,0,0,4.25-4.93c-.089-2.623-1.79-4.268-4.554-4.476-1.793-.136-3.584-.057-5.375-.106-.49-.016-.587.154-.58.6.028,1.411.01,2.827.01,4.241Zm-5.549,5.8c0-4.856.013-9.712-.016-14.567,0-.629.16-.8.792-.795,4.068.06,8.139-.044,12.209.133,4.807.208,7.9,3.237,8.234,8.05a11.176,11.176,0,0,1-1.315,6.5,8.16,8.16,0,0,1-6.5,4.146,50.6,50.6,0,0,1-7.04.256c-.6-.008-.754.16-.748.752.03,3.414,0,6.829.027,10.242,0,.547-.111.748-.7.73-1.414-.045-2.833-.05-4.247,0-.6.02-.706-.187-.7-.731C118.3,90.543,118.29,85.637,118.29,80.731Z" transform="translate(-30.596 -53.97)"/><path class="f" d="M110.968,90.581A99.723,99.723,0,0,0,115.131,78.1a73.082,73.082,0,0,0,2.16-11.988c.051-.6.249-.8.871-.775,1.414.052,2.833.03,4.248.008.422-.007.495.119.438.523a96.079,96.079,0,0,1-6.782,24.988c-.693,1.6-1.437,3.17-2.212,4.729a.757.757,0,0,1-.8.506c-1.467-.03-2.935-.035-4.4,0a.927.927,0,0,1-.979-.6,79.484,79.484,0,0,1-6.643-17.909c-.959-3.85-1.7-7.741-2.315-11.661-.078-.5.044-.588.506-.58,1.392.027,2.787.062,4.173-.013.717-.037.877.259.958.864.448,3.356,1.07,6.681,1.836,9.979a76.918,76.918,0,0,0,4.4,13.592C110.686,89.993,110.8,90.217,110.968,90.581Z" transform="translate(-38.762 -53.989)"/><path class="d" d="M169.195,82.723c0-3.313.013-6.628-.013-9.942-.006-.548.111-.765.7-.733.958.05,1.923.007,2.884.016s1.146.2,1.2,1.141c.013.176.03.353.03.53,0,.531.162.606.616.3a12.461,12.461,0,0,1,6.4-2.335c4.006-.205,5.937,1.533,5.99,5.529.067,5.236.011,10.475.027,15.712,0,.436-.14.561-.563.555-1.465-.021-2.933-.034-4.4.006-.557.016-.655-.184-.653-.687.02-4.883.011-9.766.01-14.649,0-1.9-1.03-2.719-2.894-2.3a14.364,14.364,0,0,0-3.557,1.469c-.418.221-.356.561-.356.907,0,4.808-.013,9.612.016,14.42,0,.624-.136.82-.779.794-1.287-.054-2.582-.048-3.87,0-.614.023-.811-.133-.8-.778C169.212,89.35,169.195,86.037,169.195,82.723Z" transform="translate(-9.365 -51.338)"/><path class="d" d="M166.257,85.525a15.478,15.478,0,0,1,.013-1.74c.069-.6-.194-.738-.706-.728-.631.013-1.263,0-1.893-.007-3.363-.011-4.89,1.427-4.427,4.289.028.173.011.354.038.527a2.406,2.406,0,0,0,3.251,2.179A8.478,8.478,0,0,0,165.1,88.8a2.022,2.022,0,0,0,1.161-2.221,5.735,5.735,0,0,1-.007-1.059Zm.218,5.607a10.578,10.578,0,0,1-4.3,2.536,8.435,8.435,0,0,1-3.975.211,4.813,4.813,0,0,1-3.989-3.779,9.525,9.525,0,0,1,0-5.235c.812-2.575,2.845-3.666,5.237-4.312a25.933,25.933,0,0,1,6.16-.731c.5-.013.7-.14.625-.636a1.361,1.361,0,0,1,0-.228c0-2.556-1.187-3.679-3.757-3.482a16.366,16.366,0,0,0-5.7,1.42c-.441.207-.58.122-.74-.319-.279-.755-.655-1.475-.972-2.216-.241-.564-.21-.965.512-1.2a25.7,25.7,0,0,1,9.131-1.58,12.733,12.733,0,0,1,3.139.483c2.208.663,3.177,2.347,3.577,4.467a10.884,10.884,0,0,1,.16,2.038q-.015,5.237,0,10.475a24.547,24.547,0,0,0,.145,3.939c.075.459-.038.624-.536.609-1.061-.038-2.127-.038-3.187,0a.813.813,0,0,1-.857-.565A14.284,14.284,0,0,1,166.476,91.132Z" transform="translate(-15.762 -51.387)"/><path class="b" d="M100.584,70.888c-1.447,1.488-2.784,2.827-4.08,4.2-4.6,4.875-9.13,9.816-13.894,14.533a26.677,26.677,0,0,1-4.3,3.588,8.574,8.574,0,0,1-2.032,1.008c-.83.265-.856.252-.857-.6q-.015-3.6-.025-7.211a4.646,4.646,0,0,0-.006-.757,4.567,4.567,0,0,1,1.631-4.383c2.606-2.463,4.876-5.276,7.686-7.536.649-.523,1.332-1,2.029-1.461a7.986,7.986,0,0,1,4.849-1.413c2.7.116,5.413.03,8.121.03Z" transform="translate(-48.514 -51.684)"/><path class="c" d="M66.5,57.347c1.21,1.271,2.32,2.432,3.425,3.6q3.45,3.626,6.9,7.257a1.323,1.323,0,0,1,.478.974q-.021,8.313-.01,16.626c0,.074-.021.147-.05.367-.856-.9-1.651-1.716-2.436-2.549-1.943-2.06-3.922-4.085-5.8-6.205a9.681,9.681,0,0,1-2.529-6.5c-.047-4.379-.014-8.757-.013-13.135C66.461,57.69,66.475,57.6,66.5,57.347Z" transform="translate(-52.21 -57.316)"/><path class="g" d="M189.91,83.122q0,3.05,0,6.1c-.01,2.126-.038,4.25-.021,6.372.006.5-.136.636-.631.625-1.389-.033-2.783-.054-4.172.006-.652.03-.711-.234-.71-.772q.019-14.118.016-28.233c0-.6-.271-1.389.128-1.737.336-.292,1.105-.1,1.682-.1,1.015-.007,2.028.031,3.038-.014.551-.028.652.166.65.679-.018,5.388-.011,10.775-.008,16.166C189.877,82.515,189.9,82.818,189.91,83.122Z" transform="translate(-3.06 -53.99)"/><path class="d" d="M190.243,82.14a22.274,22.274,0,0,1,3.416-3.477c2.6,3.952,5.208,7.9,7.879,11.957-2.116,0-4.1-.007-6.088,0-.415,0-.473-.33-.612-.571C193.324,87.4,191.632,84.858,190.243,82.14Z" transform="translate(-0.582 -48.426)"/></g></g></g></svg>