<svg xmlns="http://www.w3.org/2000/svg" width="200" height="143" viewBox="0 0 200 143"><defs><style>.a{fill:none;}.b{fill:#fcb813;}.b,.c,.d,.e{fill-rule:evenodd;}.c{fill:#f37920;}.d{fill:#f6921e;}.e{fill:#0066b2;}</style></defs><g transform="translate(-2138 2497)"><rect class="a" width="200" height="143" transform="translate(2138 -2497)"/><g transform="translate(2095.709 -2469.81)"><path class="b" d="M153.219,9.81c-3.8,0-5.467.89-7.571,3.111l-4.837,5.3-4.819-5.3c-2.107-2.221-3.776-3.111-7.575-3.111h-5.61s8.805,10.96,9.911,12.224c1.862,2.124,3.207,3.162,5.8,3.162h4.592c2.6,0,3.929-1.032,5.813-3.162,1.106-1.263,9.907-12.224,9.907-12.224Z" transform="translate(49.54)"/><path class="c" d="M141.146,18.353c-2.785.562-4.336,1.2-5.63,3.457l-1.16,1.992-1.145,1.984c-1.3,2.252-1.071,3.918-.175,6.611.54,1.578,5.632,14.694,5.632,14.694l2.82-4.864c1.9-3.294,1.965-5.173,1.1-8.106l-2.18-6.835,7-1.531c2.969-.711,4.573-1.726,6.471-5.008l2.808-4.862S142.79,18.019,141.146,18.353Z" transform="translate(58.496 5.731)"/><path class="d" d="M142.777,25.786,141.62,23.8l-1.147-1.992c-1.3-2.26-2.855-2.9-5.626-3.457-1.652-.334-15.551-2.468-15.551-2.468l2.818,4.862c1.891,3.3,3.488,4.3,6.467,5.008l7,1.531L133.4,34.121c-.859,2.933-.791,4.818,1.11,8.106l2.8,4.864s5.1-13.116,5.643-14.694C143.841,29.7,144.073,28.039,142.777,25.786Z" transform="translate(46.229 5.731)"/><path class="e" d="M163.5,43a4.805,4.805,0,0,0,.651-.361,9.7,9.7,0,0,0,5.212-8.419c0-7.165-5.626-9.981-13.823-9.965,0,0-16.419-.016-17.48-.016a1.9,1.9,0,0,0-2.066,2.151v36.6c0,1.677.721,2.334,1.918,2.334s19.715,0,19.715,0c8.351,0,14.5-3.8,14.5-12.138,0-5.119-3.214-8.986-8.625-10.191ZM145.03,31.26h9.182c3.737,0,5.793,1.469,5.793,4.555,0,3.119-2.355,4.722-5.529,4.722h-9.452l.006-9.278ZM155.359,58.3H145.024V47.279H155.45c4.205,0,7.2,1.722,7.2,5.6,0,4.273-3.718,5.416-7.288,5.416ZM125.981,24.235h-5.624a1.808,1.808,0,0,0-1.79,1.786V63.533a1.8,1.8,0,0,0,1.79,1.792h5.624a1.787,1.787,0,0,0,1.774-1.792V26.021a1.781,1.781,0,0,0-1.774-1.786Zm-15.588,0h-4.989c-1.63,0-2.116.634-2.645,2.907-1.854,7.97-4.112,20.479-8.605,27.1,0,0-1.038,1.745-2.423,1.745s-2.437-1.745-2.437-1.745c-4.483-6.617-7.527-19.126-9.365-27.1-.534-2.274-1.024-2.907-2.649-2.911l-5,0c-1.683,0-2.178,1.421-1.932,2.655,1.576,8.16,4.275,20.6,10.6,31.346,2.993,5.09,5.8,7.89,10.778,7.906,4.979-.019,7.793-2.816,10.774-7.906,6.322-10.751,8.253-23.186,9.828-31.34.245-1.24-.247-2.66-1.934-2.66Z" transform="translate(0 13.604)"/></g></g></svg>