<svg xmlns="http://www.w3.org/2000/svg" xmlns:xlink="http://www.w3.org/1999/xlink" width="60" height="60" viewBox="0 0 60 60"><defs><style>.a{fill:none;}.b{clip-path:url(#a);}.c,.d{fill:#fff;}.d{opacity:0.5;}</style><clipPath id="a"><rect class="a" width="60" height="60" rx="20" transform="translate(0 0)"/></clipPath></defs><g class="b"><g transform="translate(11.499 21.445)"><g transform="translate(0 0)"><path class="c" d="M114.286,212.915l0-9.514,3.327.739v7.851l-3.327.925Z" transform="translate(-81.848 -192.382)"/><path class="c" d="M54.558,300.884a7.7,7.7,0,0,1-.27,2.01l-4,2.254a13.667,13.667,0,0,0,.114-1.768v-3.25l4.159-1.159v1.913Z" transform="translate(-12.968 -279.257)"/><path class="c" d="M50.286,215.589l4.159.924v4.939l-4.159,1.155Z" transform="translate(-12.855 -203.461)"/><path class="c" d="M54.4,148.614a7.358,7.358,0,0,1,.47,2.662v1.366l-4.159-.924v-1.274a11.6,11.6,0,0,0-.429-3.244Z" transform="translate(-13.279 -141.294)"/><path class="c" d="M4.771,172.053a9.842,9.842,0,0,0-.2-2l1.572.541a1.664,1.664,0,0,1,1.123,1.573v2.173l-2.5-.555Z" transform="translate(38.483 -162.072)"/><path class="c" d="M4.771,171.569a5.718,5.718,0,0,0-.2-1.512l1.572.409a1.341,1.341,0,0,1,1.123,1.191V173.3l-2.495-.42Z" transform="translate(41.736 -160.302)"/><path class="c" d="M4.771,171.223a3.47,3.47,0,0,0-.2-1.166l1.572.316c.672.135,1.123.5,1.123.919v1.269l-2.495-.324Z" transform="translate(44.989 -159.038)"/><path class="d" d="M261.973,165.411h-2.426a1.893,1.893,0,0,1-1.774-1.253,45.852,45.852,0,0,1-2.194-8.729h19.207a45.905,45.905,0,0,1-2.2,8.729,1.893,1.893,0,0,1-1.774,1.253h-2.426a3.311,3.311,0,0,0-6.418,0Z" transform="translate(-251.873 -148.775)"/><path class="c" d="M115.374,113.822c-.006-.092-.014-.178-.021-.268-.015-.191-.032-.38-.054-.562-.012-.1-.025-.194-.039-.289-.025-.166-.054-.333-.083-.5-.017-.087-.034-.176-.053-.261-.041-.179-.087-.35-.137-.517-.017-.056-.031-.116-.048-.166a6.6,6.6,0,0,0-.233-.62c-.022-.049-.047-.094-.069-.142-.068-.146-.14-.286-.216-.416-.035-.061-.072-.118-.11-.177s-.076-.13-.117-.189l7.883,2.71a8.2,8.2,0,0,1,.81,3.944v.9l-2.966-.66a1.664,1.664,0,0,0-2.025,1.624v9.514a1.662,1.662,0,0,0,2.113,1.6l2.878-.8v2.787a10.15,10.15,0,0,1-.357,2.842l-7.237,4.076a5.394,5.394,0,0,0,.083-.685,3.912,3.912,0,0,0,.024-.411V114.706C115.4,114.4,115.39,114.108,115.374,113.822Z" transform="translate(-87.118 -107.22)"/><path class="d" d="M348.2,256.847h-2.88a1.664,1.664,0,0,1,2.88,0Z" transform="translate(-333.448 -240.211)"/><path class="c" d="M251.485,85.8c-.005-.088-.01-.175-.014-.263-.025-.484-.041-.963-.043-1.432.008-.019.025-.048.036-.071.02-.042.041-.083.072-.139.018-.033.046-.072.068-.106.037-.057.076-.116.122-.18.032-.042.072-.083.108-.131.054-.064.113-.128.179-.194.047-.047.1-.093.153-.139a2.779,2.779,0,0,1,.249-.191c.062-.044.127-.087.2-.13a3.455,3.455,0,0,1,.333-.166c.077-.036.152-.072.238-.1a3.933,3.933,0,0,1,.461-.13l.025-.007c.076-.017.144-.041.225-.055a4.964,4.964,0,0,1,.859-.078h13.309a5.18,5.18,0,0,1,.749.057l.1.014a4.166,4.166,0,0,1,.592.146l.1.035a3.6,3.6,0,0,1,.482.211l.058.034a3.214,3.214,0,0,1,.385.255l.02.015c.07.055.124.111.184.166a3,3,0,0,1,.653.893c0,.467-.019.944-.043,1.427,0,.083-.009.17-.014.256-.028.489-.065.982-.116,1.483H251.6C251.55,86.779,251.51,86.288,251.485,85.8Zm4.1-.187h11.645a.832.832,0,0,0,0-1.664H255.586a.832.832,0,1,0,0,1.664Z" transform="translate(-248.1 -82.287)"/><path class="c" d="M4.571,229.815l2.5.554v2.86l-2.5.693Z" transform="translate(38.683 -216.393)"/><path class="c" d="M4.571,229.815l2.495.42V232.4l-2.495.525Z" transform="translate(41.936 -215.943)"/><path class="c" d="M4.571,229.815l2.495.324v1.67l-2.495.4Z" transform="translate(45.188 -215.621)"/><path class="c" d="M6.575,289.1l-2,1.223c.028-.309.043-.624.043-.944V287l2.5-.694v1.607C7.11,288.517,7.1,288.8,6.575,289.1Z" transform="translate(38.64 -267.747)"/><path class="c" d="M6.713,288.63l-2.158.715a5.95,5.95,0,0,0,.043-.715v-1.8l2.495-.525v1.217C7.093,287.981,7.235,288.407,6.713,288.63Z" transform="translate(41.909 -268.544)"/><path class="c" d="M6.263,288.094l-1.692.557a3.555,3.555,0,0,0,.043-.551v-1.385l2.495-.405v.938C7.109,287.6,6.786,287.922,6.263,288.094Z" transform="translate(45.145 -269.114)"/><path class="d" d="M249.568,325.859a.448.448,0,0,1,.458-.3,6.569,6.569,0,0,1,2.684.529c-.166.962-2.349,1.355-3.036,1.455a.416.416,0,0,1-.388-.151.443.443,0,0,1-.083-.434Z" transform="translate(-229.215 -303.422)"/><path class="d" d="M437.419,325.86l.366,1.1a.444.444,0,0,1-.083.433.411.411,0,0,1-.389.151c-.686-.1-2.868-.493-3.035-1.455a6.571,6.571,0,0,1,2.684-.529A.449.449,0,0,1,437.419,325.86Z" transform="translate(-431.154 -303.423)"/><path class="c" d="M307.118,411.429h9.15a.832.832,0,0,1,.832.832v3.327H306.286v-3.327A.832.832,0,0,1,307.118,411.429Z" transform="translate(-298.8 -381.484)"/><path class="c" d="M216.1,112.489a2.079,2.079,0,0,1,.438-.333c.01.328.027.652.047.977v.083c.045.722.111,1.433.2,2.129v.014a47,47,0,0,0,2.406,10.023,3.56,3.56,0,0,0,3.345,2.357H233.8a3.56,3.56,0,0,0,3.339-2.353,47,47,0,0,0,2.406-10.023v-.018c.083-.7.151-1.407.2-2.129v-.083c.02-.324.037-.649.047-.976l.024.011c.03.017.062.041.092.062s.077.047.115.076a2.1,2.1,0,0,1,.215.184c.565.551,1.241,1.768,1.241,4.436v22.459a3.919,3.919,0,0,1-.066.687c-.009.047-.017.1-.027.143a3.415,3.415,0,0,1-.189.6c-.018.043-.042.083-.062.127a3.206,3.206,0,0,1-.285.486c-.019.027-.035.057-.056.083a3.609,3.609,0,0,1-.429.463c-1.1,1.018-2.991,1.573-5.541,1.573v-3.327a2.5,2.5,0,0,0-2.5-2.5h-9.15a2.5,2.5,0,0,0-2.5,2.5v3.306c-3.712-.19-5.823-1.673-5.823-4.137V116.925C214.857,114.256,215.533,113.039,216.1,112.489Zm17.555,21.987a2.08,2.08,0,0,0,1.6.749,2.2,2.2,0,0,0,.3-.022c3.694-.539,4.47-2.049,4.47-3.22,0-1.617-2.428-1.956-4.254-2.071a2.1,2.1,0,0,0-2.14,1.437l-.365,1.1A2.1,2.1,0,0,0,233.656,134.476Zm-12.881.727,0,0a2.224,2.224,0,0,0,.305.022,2.079,2.079,0,0,0,1.6-.749,2.105,2.105,0,0,0,.387-2.028l-.366-1.1a2.1,2.1,0,0,0-2.14-1.437c-1.83.115-4.254.454-4.254,2.071C216.306,133.154,217.082,134.664,220.775,135.2Z" transform="translate(-214.857 -109.439)"/><path class="c" d="M4.153,348.612H17.462c3.284,0,5.271-.809,6.48-1.841L34.015,341.1l9.2-5.187,6.526-3.573v1.682L20.556,351.939H-1.42L3.6,348.592C3.789,348.6,3.959,348.612,4.153,348.612Z" transform="translate(2.501 -312.844)"/><path class="c" d="M25.484,384.586s-14.893,5.972-21.537,9.584-5.913,0-5.913,0l26.575-16.7Z" transform="translate(28.229 -355.075)"/></g></g></g></svg>