<svg xmlns="http://www.w3.org/2000/svg" width="25.646" height="25.646" viewBox="0 0 25.646 25.646"><defs><style>.a{fill:#fff;}</style></defs><g transform="translate(-44.544 -44.544)"><path class="a" d="M60.19,47.367A12.823,12.823,0,1,0,73.013,60.19,12.821,12.821,0,0,0,60.19,47.367ZM52.71,67.82c1.248-3.74,4.988-2.279,5.61-4.308V62.164a3.584,3.584,0,0,1-1.169-2c-.221-.017-.564-.238-.668-1.1a.815.815,0,0,1,.3-.81,4.3,4.3,0,0,1-.33-1.494c0-2.216,1.1-4.053,3.74-4.053a1.967,1.967,0,0,1,1.87,1.01c1.277,0,1.87,1.4,1.87,3.039a3.828,3.828,0,0,1-.33,1.5.808.808,0,0,1,.3.806c-.1.868-.447,1.089-.668,1.106a3.6,3.6,0,0,1-1.169,2v1.348c.622,2.029,4.362.568,5.61,4.308a10.683,10.683,0,0,1-14.96,0Z" transform="translate(-2.823 -2.823)"/></g></svg>