<svg xmlns="http://www.w3.org/2000/svg" width="24.647" height="24.647" viewBox="0 0 24.647 24.647"><defs><style>.a{fill:#fff;}</style></defs><g transform="translate(-8 -8)"><path class="a" d="M10.465,10.465H27.718V8H8V27.718h2.465Z"/><path class="a" d="M43.718,24H24V43.718H43.718ZM40.17,32.776l-2.335,2.335-1.743-1.743,2.335-2.335a1.232,1.232,0,0,0-1.743-1.743L34.34,31.635l1.743,1.743-2.47,2.47,1.743,1.743-2.58,2.58a3.7,3.7,0,1,1-5.228-5.228l2.58-2.58L31.871,34.1l2.445-2.445-1.743-1.743,2.368-2.368a3.7,3.7,0,1,1,5.228,5.228Z" transform="translate(-11.071 -11.071)"/><path class="a" d="M40.361,59.41a1.232,1.232,0,0,0,0,1.743,1.259,1.259,0,0,0,1.743,0l2.566-2.566-1.743-1.743Z" transform="translate(-22.141 -33.795)"/></g></svg>