<svg xmlns="http://www.w3.org/2000/svg" width="20.845" height="26.778" viewBox="0 0 20.845 26.778"><defs><style>.a{fill:#fff;}</style></defs><g transform="translate(-8 -4.12)"><path class="a" d="M8,29.793,9.793,28l8.351,8.352-1.793,1.793Z" transform="translate(0 -16.392)"/><path class="a" d="M8,36.352,16.352,28l1.793,1.793L9.793,38.145Z" transform="translate(0 -16.392)"/><path class="a" d="M34,4H23.043A3.046,3.046,0,0,0,20,7.043V9.791l1.217,1.217,1.217-1.217V7.652H34.606V24.692H22.434v-2.14l-1.217-1.217L20,22.553v5.183a3.046,3.046,0,0,0,3.043,3.043H34a3.046,3.046,0,0,0,3.043-3.043V7.043A3.046,3.046,0,0,0,34,4ZM28.52,28.5a1.369,1.369,0,1,1,1.369-1.369A1.37,1.37,0,0,1,28.52,28.5Z" transform="translate(-8.196 0.12)"/></g></svg>