<svg xmlns="http://www.w3.org/2000/svg" width="41.149" height="30.665" viewBox="0 0 41.149 30.665"><defs><style>.a{fill:#fff;}.b{fill:none;stroke:#fff;stroke-linecap:round;stroke-linejoin:round;stroke-miterlimit:10;}</style></defs><g transform="translate(0.322 -2.322)"><g transform="translate(10.812 8.65)"><g transform="translate(0 0)"><path class="a" d="M9.193,18.381a9.19,9.19,0,1,1,9.185-9.192A9.2,9.2,0,0,1,9.193,18.381ZM6.76,10.707c-.1,0-.155.069-.221.274-.078.239-.15.487-.227.787-.1.354-.06.436.272.6a4.9,4.9,0,0,0,1.364.39c.374.054.387.072.387.454v.521c0,.233.11.351.323.351h.077l.072,0c.077.005.156.005.233.005h.233l.072-.008H9.42c.21,0,.314-.113.314-.328,0-.077,0-.156,0-.233v-.059c0-.136,0-.274,0-.413a.367.367,0,0,1,.326-.423,2.663,2.663,0,0,0,1.343-.857,2.319,2.319,0,0,0,.5-1.936A2.509,2.509,0,0,0,10.625,8.1,11.88,11.88,0,0,0,9.51,7.589c-.036-.015-.073-.028-.109-.046s-.073-.033-.112-.046a2.653,2.653,0,0,1-.735-.408.68.68,0,0,1-.282-.616.7.7,0,0,1,.433-.531,1.067,1.067,0,0,1,.437-.095h.01c.063,0,.135-.008.214-.008a3.347,3.347,0,0,1,1.485.341.531.531,0,0,0,.227.067c.105,0,.167-.069.224-.259.086-.267.162-.526.227-.764l.036-.123a.306.306,0,0,0-.208-.413,5.083,5.083,0,0,0-1.072-.315c-.481-.069-.481-.087-.481-.564-.012-.585-.014-.675-.442-.675h-.55c-.317,0-.367.054-.382.385v.433c-.009.436-.009.436-.419.582A2.29,2.29,0,0,0,6.333,6.671a2.138,2.138,0,0,0,1.228,2.08,7.794,7.794,0,0,0,1.046.485l.091.036c.135.054.273.113.405.174a1.731,1.731,0,0,1,.567.323A.76.76,0,0,1,9.5,11.113a1.652,1.652,0,0,1-.721.159,1.984,1.984,0,0,1-.272-.021A4.321,4.321,0,0,1,7,10.787.611.611,0,0,0,6.76,10.707Z" transform="translate(0)"/></g></g><g transform="matrix(0.819, 0.574, -0.574, 0.819, 9.545, 0)"><g transform="translate(0 16.64) rotate(-90)"><path class="b" d="M0,4.554a6.074,6.074,0,0,1,11.14-1.52" transform="translate(0 0.533)"/><path class="a" d="M7.132,0l-.65,6.605L0,5.18Z" transform="translate(6.674 0)"/></g><g transform="translate(37.795 0) rotate(90)"><path class="b" d="M0,4.554a6.074,6.074,0,0,1,11.14-1.52" transform="translate(0 0.533)"/><path class="a" d="M7.132,0l-.65,6.6L0,5.179Z" transform="translate(6.674 0)"/></g></g></g></svg>