<svg xmlns="http://www.w3.org/2000/svg" width="211.154" height="72.061" viewBox="0 0 211.154 72.061"><defs><style>.a{font-size:14px;font-family:Muli-Black, Muli;font-weight:800;}.b{font-size:24px;font-family:MyanmarText, Myanmar Text;}.c{fill:#707070;}</style></defs><g transform="translate(-19.846 -11.378)"><text class="a" transform="translate(101 35.439)"><tspan x="0" y="0">ANDROID APP ON</tspan></text><text class="b" transform="translate(103 63.439)"><tspan x="0" y="0">Google play</tspan></text><g transform="translate(19.846 11.378)"><path class="c" d="M149.488,79.793,157,72.278c-10.263-6.221-24.01-14.568-30.188-18.326l-4.141-2.508a5.039,5.039,0,0,0-2.278-.745Z" transform="translate(-115.838 -50.699)"/><path class="c" d="M94.848,70.313a5.721,5.721,0,0,0-.11.981v57.2a4.907,4.907,0,0,0,.087.7l29.6-29.457Z" transform="translate(-94.738 -66.829)"/><path class="c" d="M149.844,259.168l-29.016,29.017a4.63,4.63,0,0,0,1.665-.6c.756-.449,20.9-12.673,34.712-21.053Z" transform="translate(-116.195 -222.446)"/><path class="c" d="M322.7,193.738c-.329-.186-3.341-2-7.678-4.633l-8.478,8.478,8.335,8.335c4.415-2.683,7.471-4.534,7.81-4.742a4.447,4.447,0,0,0,2.323-3.812A4.262,4.262,0,0,0,322.7,193.738Z" transform="translate(-269.18 -164.675)"/></g></g></svg>