<svg xmlns="http://www.w3.org/2000/svg" xmlns:xlink="http://www.w3.org/1999/xlink" width="142.522" height="40.85" viewBox="0 0 142.522 40.85"><defs><style>.a{fill:url(#a);}.b{fill:url(#b);}.c,.d{fill:#fff;}.d{opacity:0.78;}.e{fill:url(#c);}.f{fill:url(#i);}.g{fill:url(#m);}.h{fill:url(#n);}.i{fill:url(#p);}</style><linearGradient id="a" x1="-0.184" y1="1.294" x2="0.486" y2="0.516" gradientUnits="objectBoundingBox"><stop offset="0" stop-color="#fdf53f"/><stop offset="1" stop-color="#d93c65"/></linearGradient><linearGradient id="b" x1="0.878" y1="-0.071" x2="-1.173" y2="3.028" xlink:href="#a"/><linearGradient id="c" x1="1.304" y1="-0.302" x2="-1.589" y2="2.559" xlink:href="#a"/><linearGradient id="i" x1="1.304" y1="-0.302" x2="-1.589" y2="2.559" xlink:href="#a"/><linearGradient id="m" x1="-0.184" y1="-0.294" x2="0.486" y2="0.484" xlink:href="#a"/><linearGradient id="n" x1="0.878" y1="1.071" x2="-1.173" y2="-2.028" xlink:href="#a"/><linearGradient id="p" x1="1.184" y1="1.294" x2="0.514" y2="0.516" xlink:href="#a"/></defs><g transform="translate(0 0)"><g transform="translate(0 10.414)"><path class="a" d="M5.022.009c2.615-.154,4.61,1.592,4.455,3.9a5.226,5.226,0,0,1-5.014,4.46C1.849,8.525-.146,6.778.008,4.47A5.226,5.226,0,0,1,5.022.009Z" transform="translate(0 8.756) rotate(-67.377)"/><path class="b" d="M4.314.008c2.23-.147,3.919,1.784,3.772,4.314A5.044,5.044,0,0,1,3.781,9.169C1.55,9.316-.138,7.385.009,4.855A5.044,5.044,0,0,1,4.314.008Z" transform="translate(0.208 3.277) rotate(-22.264)"/><path class="c" d="M87.608,481.4a.132.132,0,0,1-.069-.02.2.2,0,0,1-.067-.244,3.754,3.754,0,0,1,3.376-2.481,3.233,3.233,0,0,1,.682.073.182.182,0,0,1,.123.212.157.157,0,0,1-.178.147,2.957,2.957,0,0,0-.627-.067,3.451,3.451,0,0,0-3.1,2.281A.152.152,0,0,1,87.608,481.4Z" transform="translate(-85.156 -477.18)"/><ellipse class="d" cx="3.326" cy="3.969" rx="3.326" ry="3.969" transform="translate(2.452 2.123)"/><g transform="translate(4.313 3.283)"><path class="e" d="M97.009,490.737V490.3a2.552,2.552,0,0,1-1.015-.263.267.267,0,0,1-.116-.3l.092-.4a.205.205,0,0,1,.286-.165,2.119,2.119,0,0,0,.937.236c.363,0,.634-.147.634-.448,0-.272-.209-.434-.714-.6-.72-.235-1.238-.61-1.238-1.367a1.318,1.318,0,0,1,1.145-1.345v-.432a.234.234,0,0,1,.211-.252h.212a.234.234,0,0,1,.211.252v.388a2.305,2.305,0,0,1,.8.172.263.263,0,0,1,.131.3l-.084.372a.206.206,0,0,1-.278.17,1.884,1.884,0,0,0-.789-.171c-.431,0-.554.213-.554.4,0,.235.258.4.819.6.8.287,1.133.683,1.133,1.4a1.376,1.376,0,0,1-1.194,1.389v.483a.234.234,0,0,1-.211.252H97.22A.234.234,0,0,1,97.009,490.737Z" transform="translate(-95.87 -484.977)"/></g></g><g transform="translate(6.61)"><ellipse class="a" cx="7.075" cy="8.445" rx="7.075" ry="8.445" transform="translate(3.576 2.207)"/><path class="b" d="M8.194.03a6.087,6.087,0,0,1,6.84,6.84A9.319,9.319,0,0,1,6.87,15.034,6.087,6.087,0,0,1,.03,8.194,9.319,9.319,0,0,1,8.194.03Z" transform="translate(0 10.651) rotate(-45)"/><path class="c" d="M125.928,451.8a.131.131,0,0,1-.069-.019.2.2,0,0,1-.067-.245,6.423,6.423,0,0,1,5.776-4.245,5.5,5.5,0,0,1,1.166.125.183.183,0,0,1,.123.212.157.157,0,0,1-.178.146,5.23,5.23,0,0,0-1.112-.119,6.121,6.121,0,0,0-5.5,4.045A.152.152,0,0,1,125.928,451.8Z" transform="translate(-120.917 -444.353)"/><path class="d" d="M7.106.005c3.783-.138,6.738,2.368,6.6,5.6s-3.318,5.961-7.1,6.1S-.134,9.334,0,6.1,3.322.144,7.106.005Z" transform="translate(3.528 16.156) rotate(-76.717)"/><g transform="translate(8.25 5.939)"><path class="e" d="M141.933,467.839v-.752a4.44,4.44,0,0,1-1.767-.457.465.465,0,0,1-.2-.514l.16-.7a.358.358,0,0,1,.5-.287,3.684,3.684,0,0,0,1.632.41c.632,0,1.1-.256,1.1-.78,0-.473-.364-.755-1.243-1.036-1.254-.41-2.154-1.062-2.154-2.38A2.294,2.294,0,0,1,141.954,459v-.752a.407.407,0,0,1,.367-.438h.37a.407.407,0,0,1,.367.438v.675a4.014,4.014,0,0,1,1.4.3.459.459,0,0,1,.228.526l-.147.647a.359.359,0,0,1-.483.3,3.281,3.281,0,0,0-1.374-.3c-.75,0-.965.371-.965.7,0,.41.45.691,1.425,1.049,1.394.5,1.972,1.19,1.972,2.431a2.4,2.4,0,0,1-2.08,2.418v.841a.407.407,0,0,1-.367.438h-.37A.407.407,0,0,1,141.933,467.839Z" transform="translate(-139.951 -457.812)"/></g></g><g transform="translate(10.804 18.176)"><path class="a" d="M8.721.032A6.479,6.479,0,0,1,16,7.312,9.919,9.919,0,0,1,7.312,16a6.479,6.479,0,0,1-7.28-7.28A9.919,9.919,0,0,1,8.721.032Z" transform="translate(0 11.337) rotate(-45)"/><path class="b" d="M8.431.03a6.264,6.264,0,0,1,7.038,7.038,9.589,9.589,0,0,1-8.4,8.4A6.264,6.264,0,0,1,.03,8.431,9.589,9.589,0,0,1,8.431.03Z" transform="translate(0.377 11.337) rotate(-45)"/><path class="c" d="M145.637,517.2a.131.131,0,0,1-.069-.02.2.2,0,0,1-.068-.244,6.605,6.605,0,0,1,5.94-4.365,5.66,5.66,0,0,1,1.2.129.182.182,0,0,1,.123.212.157.157,0,0,1-.178.147,5.4,5.4,0,0,0-1.145-.123,6.3,6.3,0,0,0-5.667,4.165A.152.152,0,0,1,145.637,517.2Z" transform="translate(-140.104 -509.166)"/><path class="d" d="M6.547.012c3.383-.225,5.943,2.7,5.718,6.534s-3.15,7.124-6.534,7.349S-.211,11.195.014,7.361,3.164.237,6.547.012Z" transform="translate(3.157 7.446) rotate(-22.5)"/><g transform="translate(8.867 6.488)"><path class="f" d="M162.092,533.7v-.774a4.572,4.572,0,0,1-1.818-.47.478.478,0,0,1-.207-.529l.165-.721a.368.368,0,0,1,.513-.3,3.794,3.794,0,0,0,1.679.422c.651,0,1.136-.263,1.136-.8,0-.487-.375-.777-1.279-1.066-1.29-.421-2.217-1.093-2.217-2.448a2.361,2.361,0,0,1,2.052-2.409v-.774a.419.419,0,0,1,.378-.451h.381a.419.419,0,0,1,.378.451v.695a4.139,4.139,0,0,1,1.441.309.472.472,0,0,1,.235.542l-.151.666a.369.369,0,0,1-.5.3,3.38,3.38,0,0,0-1.414-.306c-.772,0-.993.382-.993.724,0,.421.463.711,1.467,1.079,1.434.513,2.03,1.224,2.03,2.5a2.466,2.466,0,0,1-2.14,2.488v.866a.419.419,0,0,1-.378.451h-.381A.419.419,0,0,1,162.092,533.7Z" transform="translate(-160.053 -523.378)"/></g></g><g transform="translate(25.003 10.535)"><path class="a" d="M6.445,0c3.512-.047,6.322,2.307,6.275,5.256s-2.932,5.379-6.445,5.426S-.046,8.377,0,5.427,2.933.048,6.445,0Z" transform="translate(0.63 13.039) rotate(-85.269)"/><path class="b" d="M6.33,0c3.37-.123,6,2.109,5.879,4.986S9.254,10.3,5.883,10.424-.119,8.315,0,5.438,2.959.128,6.33,0Z" transform="matrix(0.23, -0.973, 0.973, 0.23, 0, 11.886)"/><path class="c" d="M191.154,481.866a.133.133,0,0,1-.069-.019.2.2,0,0,1-.067-.245,4.88,4.88,0,0,1,4.389-3.225,4.159,4.159,0,0,1,.886.1.182.182,0,0,1,.123.212.157.157,0,0,1-.178.147,3.907,3.907,0,0,0-.831-.089,4.577,4.577,0,0,0-4.116,3.025A.152.152,0,0,1,191.154,481.866Z" transform="translate(-188.928 -477.1)"/><path class="d" d="M4.8.009C7.276-.156,9.152,1.987,8.987,4.8S6.679,10.016,4.2,10.18-.155,8.2.01,5.393,2.318.174,4.8.009Z" transform="translate(0.485 4.29) rotate(-22.5)"/><g transform="translate(4.668 3.588)"><path class="f" d="M203.34,494.03v-.567a3.348,3.348,0,0,1-1.332-.345.351.351,0,0,1-.152-.387l.121-.528a.269.269,0,0,1,.376-.216,2.781,2.781,0,0,0,1.23.309c.477,0,.832-.193.832-.588,0-.357-.275-.569-.937-.781-.946-.308-1.624-.8-1.624-1.794a1.729,1.729,0,0,1,1.5-1.765V486.8a.307.307,0,0,1,.277-.33h.279a.307.307,0,0,1,.277.33v.509a3.027,3.027,0,0,1,1.056.226.345.345,0,0,1,.172.4l-.111.488a.27.27,0,0,1-.364.223,2.474,2.474,0,0,0-1.036-.224c-.566,0-.727.28-.727.531,0,.308.339.521,1.075.791,1.051.376,1.487.9,1.487,1.833a1.807,1.807,0,0,1-1.568,1.823v.634a.307.307,0,0,1-.277.33h-.279A.307.307,0,0,1,203.34,494.03Z" transform="translate(-201.846 -486.47)"/></g></g></g><g transform="translate(104.564 0)"><g transform="translate(26.574 10.414)"><path class="g" d="M4.464.009a5.226,5.226,0,0,1,5.014,4.46c.154,2.309-1.84,4.056-4.455,3.9A5.226,5.226,0,0,1,.008,3.911C-.146,1.6,1.849-.145,4.464.009Z" transform="translate(3.649 11.98) rotate(-112.623)"/><path class="h" d="M3.781.008a5.044,5.044,0,0,1,4.3,4.847c.147,2.53-1.541,4.461-3.772,4.314a5.044,5.044,0,0,1-4.3-4.847C-.138,1.792,1.55-.139,3.781.008Z" transform="translate(7.699 11.77) rotate(-157.736)"/><path class="c" d="M91.5,481.4a.132.132,0,0,0,.069-.02.2.2,0,0,0,.067-.244,3.754,3.754,0,0,0-3.376-2.481,3.233,3.233,0,0,0-.682.073.182.182,0,0,0-.123.212.157.157,0,0,0,.178.147,2.957,2.957,0,0,1,.627-.067,3.451,3.451,0,0,1,3.1,2.281A.152.152,0,0,0,91.5,481.4Z" transform="translate(-82.571 -477.18)"/><ellipse class="d" cx="3.326" cy="3.969" rx="3.326" ry="3.969" transform="translate(2.281 2.123)"/><g transform="translate(4.104 3.283)"><path class="e" d="M97.009,490.737v-.432a2.552,2.552,0,0,1-1.015-.263.267.267,0,0,1-.116-.3l.092-.4a.206.206,0,0,1,.286-.165,2.119,2.119,0,0,0,.937.236c.363,0,.634-.147.634-.448,0-.272-.209-.434-.714-.6-.72-.235-1.238-.61-1.238-1.367a1.318,1.318,0,0,1,1.145-1.345v-.432a.234.234,0,0,1,.211-.252h.212a.234.234,0,0,1,.211.252v.388a2.306,2.306,0,0,1,.8.172.263.263,0,0,1,.131.3l-.084.372a.206.206,0,0,1-.278.17,1.884,1.884,0,0,0-.789-.171c-.431,0-.554.213-.554.4,0,.235.258.4.819.6.8.287,1.133.684,1.133,1.4a1.377,1.377,0,0,1-1.194,1.389v.483a.234.234,0,0,1-.211.252H97.22A.234.234,0,0,1,97.009,490.737Z" transform="translate(-95.87 -484.977)"/></g></g><g transform="translate(10.046 0)"><ellipse class="i" cx="7.075" cy="8.445" rx="7.075" ry="8.445" transform="translate(3.576 2.206)"/><path class="h" d="M6.87.03a9.319,9.319,0,0,1,8.164,8.164,6.087,6.087,0,0,1-6.84,6.84A9.319,9.319,0,0,1,.03,6.87,6.087,6.087,0,0,1,6.87.03Z" transform="translate(10.651 21.302) rotate(-135)"/><path class="c" d="M132.707,451.8a.131.131,0,0,0,.069-.019.2.2,0,0,0,.067-.245,6.423,6.423,0,0,0-5.776-4.245,5.5,5.5,0,0,0-1.166.125.183.183,0,0,0-.123.212.157.157,0,0,0,.178.146,5.231,5.231,0,0,1,1.112-.119,6.121,6.121,0,0,1,5.5,4.045A.152.152,0,0,0,132.707,451.8Z" transform="translate(-116.416 -444.353)"/><path class="d" d="M6.6.005c3.783.138,6.963,2.869,7.1,6.1s-2.817,5.736-6.6,5.6S.143,8.833,0,5.6,2.821-.133,6.6.005Z" transform="translate(6.38 18.846) rotate(-103.283)"/><g transform="translate(7.887 5.939)"><path class="e" d="M141.933,467.839v-.752a4.44,4.44,0,0,1-1.767-.457.465.465,0,0,1-.2-.514l.16-.7a.358.358,0,0,1,.5-.287,3.684,3.684,0,0,0,1.632.41c.632,0,1.1-.256,1.1-.78,0-.473-.364-.755-1.243-1.036-1.254-.41-2.154-1.062-2.154-2.379A2.294,2.294,0,0,1,141.954,459v-.752a.407.407,0,0,1,.367-.438h.37a.407.407,0,0,1,.367.438v.675a4.014,4.014,0,0,1,1.4.3.458.458,0,0,1,.228.526l-.147.647a.359.359,0,0,1-.483.295,3.282,3.282,0,0,0-1.374-.3c-.75,0-.965.371-.965.7,0,.409.45.691,1.425,1.049,1.394.5,1.972,1.19,1.972,2.431a2.4,2.4,0,0,1-2.08,2.418v.841a.407.407,0,0,1-.367.438h-.37A.407.407,0,0,1,141.933,467.839Z" transform="translate(-139.951 -457.812)"/></g></g><g transform="translate(4.481 18.176)"><path class="g" d="M7.312.032A9.919,9.919,0,0,1,16,8.721,6.479,6.479,0,0,1,8.721,16a9.919,9.919,0,0,1-8.69-8.69A6.479,6.479,0,0,1,7.312.032Z" transform="translate(11.337 22.674) rotate(-135)"/><path class="h" d="M7.069.03a9.589,9.589,0,0,1,8.4,8.4,6.264,6.264,0,0,1-7.038,7.038,9.589,9.589,0,0,1-8.4-8.4A6.264,6.264,0,0,1,7.069.03Z" transform="translate(11.337 22.297) rotate(-135)"/><path class="c" d="M152.613,517.2a.131.131,0,0,0,.069-.02.2.2,0,0,0,.067-.244,6.605,6.605,0,0,0-5.94-4.365,5.661,5.661,0,0,0-1.2.129.182.182,0,0,0-.123.212.157.157,0,0,0,.178.147,5.405,5.405,0,0,1,1.145-.123,6.3,6.3,0,0,1,5.667,4.165A.152.152,0,0,0,152.613,517.2Z" transform="translate(-135.472 -509.166)"/><path class="d" d="M5.732.012c3.383.225,6.308,3.515,6.534,7.349S9.931,14.12,6.547,13.895.239,10.379.014,6.546,2.349-.213,5.732.012Z" transform="translate(14.195 20.294) rotate(-157.5)"/><g transform="translate(8.492 6.488)"><path class="f" d="M162.092,533.7v-.774a4.574,4.574,0,0,1-1.818-.47.478.478,0,0,1-.207-.529l.165-.721a.368.368,0,0,1,.513-.3,3.794,3.794,0,0,0,1.679.422c.651,0,1.136-.263,1.136-.8,0-.487-.375-.777-1.279-1.066-1.29-.421-2.217-1.093-2.217-2.448a2.361,2.361,0,0,1,2.052-2.409v-.774a.419.419,0,0,1,.378-.451h.381a.419.419,0,0,1,.378.451v.695a4.139,4.139,0,0,1,1.441.309.472.472,0,0,1,.235.542l-.151.666a.369.369,0,0,1-.5.3,3.38,3.38,0,0,0-1.414-.306c-.772,0-.993.382-.993.724,0,.421.463.711,1.467,1.079,1.434.513,2.03,1.224,2.03,2.5a2.466,2.466,0,0,1-2.14,2.488v.866a.419.419,0,0,1-.378.451h-.381A.419.419,0,0,1,162.092,533.7Z" transform="translate(-160.053 -523.378)"/></g></g><g transform="translate(0 10.535)"><path class="g" d="M6.275,0c3.512.047,6.4,2.476,6.445,5.426s-2.762,5.3-6.275,5.256S.047,8.207,0,5.257,2.763-.046,6.275,0Z" transform="translate(1.679 13.921) rotate(-94.731)"/><path class="h" d="M5.883,0c3.37.123,6.2,2.556,6.326,5.433S9.7,10.547,6.33,10.424.127,7.868,0,4.991,2.513-.118,5.883,0Z" transform="translate(2.806 14.282) rotate(-103.282)"/><path class="c" d="M196.265,481.866a.133.133,0,0,0,.069-.019.2.2,0,0,0,.067-.245,4.88,4.88,0,0,0-4.389-3.225,4.159,4.159,0,0,0-.886.1.182.182,0,0,0-.123.212.157.157,0,0,0,.178.147,3.907,3.907,0,0,1,.831-.089,4.577,4.577,0,0,1,4.116,3.025A.152.152,0,0,0,196.265,481.866Z" transform="translate(-185.535 -477.1)"/><path class="d" d="M4.2.009C6.679.174,8.822,2.585,8.987,5.393S7.276,10.345,4.8,10.18.175,7.6.01,4.8,1.721-.156,4.2.009Z" transform="translate(8.572 13.704) rotate(-157.5)"/><g transform="translate(4.394 3.588)"><path class="f" d="M203.34,494.03v-.567a3.347,3.347,0,0,1-1.332-.345.351.351,0,0,1-.152-.387l.121-.528a.27.27,0,0,1,.376-.216,2.78,2.78,0,0,0,1.23.309c.477,0,.832-.193.832-.588,0-.357-.275-.569-.937-.781-.946-.308-1.624-.8-1.624-1.794a1.729,1.729,0,0,1,1.5-1.765V486.8a.307.307,0,0,1,.277-.33h.279a.307.307,0,0,1,.277.33v.509a3.026,3.026,0,0,1,1.056.226.345.345,0,0,1,.172.4l-.111.488a.27.27,0,0,1-.364.222,2.474,2.474,0,0,0-1.036-.224c-.566,0-.727.28-.727.531,0,.308.339.521,1.075.791,1.051.376,1.487.9,1.487,1.833a1.807,1.807,0,0,1-1.568,1.823v.634a.307.307,0,0,1-.277.33h-.279A.307.307,0,0,1,203.34,494.03Z" transform="translate(-201.846 -486.47)"/></g></g></g></svg>