<svg xmlns="http://www.w3.org/2000/svg" xmlns:xlink="http://www.w3.org/1999/xlink" width="60" height="60" viewBox="0 0 60 60">
  <defs>
    <linearGradient id="linear-gradient" x1="0.5" y1="1" x2="0.5" gradientUnits="objectBoundingBox">
      <stop offset="0" stop-color="#002d6f"/>
      <stop offset="1" stop-color="#7998c6"/>
    </linearGradient>
  </defs>
  <g id="icon_loiich3" transform="translate(-389 -3167)">
    <rect id="Rectangle_1859" data-name="Rectangle 1859" width="60" height="60" rx="30" transform="translate(389 3167)" fill="url(#linear-gradient)"/>
    <g id="Group_7096" data-name="Group 7096" transform="translate(405 3184)">
      <path id="Path_12841" data-name="Path 12841" d="M27.681,3.469h-4.5a2.571,2.571,0,0,0,.16-.867,2.6,2.6,0,0,0-2.6-2.6,4.067,4.067,0,0,0-3.469,2.185A4.067,4.067,0,0,0,13.805,0a2.6,2.6,0,0,0-2.6,2.6,2.571,2.571,0,0,0,.16.867h-4.5A.867.867,0,0,0,6,4.336v2.6a.867.867,0,0,0,.867.867H27.681a.867.867,0,0,0,.867-.867v-2.6A.867.867,0,0,0,27.681,3.469ZM20.743,1.735a.867.867,0,1,1,0,1.735H18.538A2.688,2.688,0,0,1,20.743,1.735ZM12.938,2.6a.868.868,0,0,1,.867-.867,2.688,2.688,0,0,1,2.205,1.735H13.805A.868.868,0,0,1,12.938,2.6Z" transform="translate(-0.796)" fill="#fff"/>
      <path id="Path_12842" data-name="Path 12842" d="M26.868,22.1a2.983,2.983,0,0,0-1.718-1.92V11H7.805v4.834a7.462,7.462,0,0,0-2.6-.5H.867A.867.867,0,0,0,0,16.2v6.071a.866.866,0,0,0,.474.773l9.747,4.96a4.936,4.936,0,0,0,2.035.453,4.067,4.067,0,0,0,1.685-.352l12.4-5.03A.867.867,0,0,0,26.868,22.1Zm-13.611,4.41a2.833,2.833,0,0,1-2.283-.069l-9.239-4.7V17.071H5.2a5.683,5.683,0,0,1,4.482,2.216.867.867,0,0,0,.722.386h3.469a2.9,2.9,0,0,1,2.406,1.735H9.54a.867.867,0,1,0,0,1.735h7.805a.867.867,0,0,0,.867-.867,3.737,3.737,0,0,0-.1-.867h4.44a3.821,3.821,0,0,1,2.116.48Z" transform="translate(0 -1.46)" fill="#fff"/>
    </g>
  </g>
</svg>
