<svg xmlns="http://www.w3.org/2000/svg" xmlns:xlink="http://www.w3.org/1999/xlink" width="180.086" height="121.835" viewBox="0 0 180.086 121.835"><defs><style>.a{fill:none;}.b{fill:url(#a);}.c{opacity:0.3;}.d,.l,.t{fill:#fff;}.e{fill:url(#b);}.f{opacity:0.23;}.g{fill:url(#c);}.h{opacity:0.29;}.i{fill:url(#d);}.j{opacity:0.37;}.k{fill:url(#e);}.l{opacity:0.56;}.m{fill:url(#f);}.n{fill:url(#g);}.o{fill:url(#h);}.p{fill:url(#i);}.q{fill:url(#j);}.r{opacity:0.39;fill:url(#k);}.s{fill:url(#l);}.t{opacity:0.78;}.u{fill:url(#m);}.v{fill:url(#n);}.w{fill:url(#o);}.x{fill:url(#p);}.y{fill:url(#q);}.z{fill:url(#r);}.aa{fill:url(#s);}.ab{fill:url(#t);}.ac{fill:url(#u);}.ad{fill:url(#v);}.ae{fill:url(#w);}.af{fill:url(#x);}.ag{fill:url(#y);}.ah{fill:url(#z);}.ai{fill:url(#aa);}.aj{fill:url(#ab);}.ak{fill:url(#ac);}.al{fill:url(#ad);}.am{fill:url(#ae);}.an{fill:url(#af);}</style><linearGradient id="a" x1="0.897" y1="-0.01" x2="-0.035" y2="1.188" gradientUnits="objectBoundingBox"><stop offset="0" stop-color="#53d8ff"/><stop offset="1" stop-color="#3840f7"/></linearGradient><linearGradient id="b" x1="-0.21" y1="0.042" x2="1.944" y2="1.464" xlink:href="#a"/><linearGradient id="c" x1="0.216" y1="0.202" x2="1.228" y2="1.259" xlink:href="#a"/><linearGradient id="d" x1="0.647" y1="0.285" x2="-0.08" y2="1.375" xlink:href="#a"/><linearGradient id="e" x1="-0.148" y1="-0.443" x2="0.485" y2="0.685" gradientUnits="objectBoundingBox"><stop offset="0" stop-color="#cb236d"/><stop offset="0.867" stop-color="#5d246d"/><stop offset="1" stop-color="#4c246d"/></linearGradient><linearGradient id="f" x1="-0.814" y1="0.765" x2="0.048" y2="0.765" gradientUnits="objectBoundingBox"><stop offset="0" stop-color="#cb236d"/><stop offset="1" stop-color="#4c246d"/></linearGradient><linearGradient id="g" x1="0.15" y1="0.964" x2="1.101" y2="-0.279" gradientUnits="objectBoundingBox"><stop offset="0" stop-color="#fdf53f"/><stop offset="1" stop-color="#d93c65"/></linearGradient><linearGradient id="h" x1="0.92" y1="0.042" x2="0.321" y2="0.63" xlink:href="#f"/><linearGradient id="i" x1="1.069" y1="-0.133" x2="0.075" y2="0.983" xlink:href="#g"/><linearGradient id="j" x1="0.51" y1="0.559" x2="0.306" y2="0.056" gradientUnits="objectBoundingBox"><stop offset="0" stop-color="#a737d5"/><stop offset="1" stop-color="#ef497a"/></linearGradient><linearGradient id="k" x1="0.041" y1="0.635" x2="1.041" y2="0.635" gradientUnits="objectBoundingBox"><stop offset="0" stop-color="#b37cff"/><stop offset="1" stop-color="#f895e7"/></linearGradient><linearGradient id="l" x1="1.462" y1="1.196" x2="-0.589" y2="4.295" xlink:href="#g"/><linearGradient id="m" x1="3.104" y1="4.707" x2="-0.749" y2="9.847" xlink:href="#g"/><linearGradient id="n" x1="2.114" y1="4.385" x2="0.112" y2="10.102" xlink:href="#g"/><linearGradient id="o" x1="1.191" y1="1.448" x2="-0.86" y2="4.547" xlink:href="#g"/><linearGradient id="p" x1="2.058" y1="5.638" x2="-1.795" y2="10.779" xlink:href="#g"/><linearGradient id="q" x1="1.57" y1="5.42" x2="-0.432" y2="11.137" xlink:href="#g"/><linearGradient id="r" x1="1.075" y1="0.844" x2="-0.976" y2="3.942" xlink:href="#g"/><linearGradient id="s" x1="1.611" y1="3.409" x2="-2.243" y2="8.55" xlink:href="#g"/><linearGradient id="t" x1="1.338" y1="2.942" x2="-0.664" y2="8.659" xlink:href="#g"/><linearGradient id="u" x1="1.31" y1="0.696" x2="-0.741" y2="3.795" xlink:href="#g"/><linearGradient id="v" x1="2.517" y1="2.865" x2="-1.336" y2="8.005" xlink:href="#g"/><linearGradient id="w" x1="1.809" y1="2.336" x2="-0.193" y2="8.053" xlink:href="#g"/><linearGradient id="x" x1="1.233" y1="0.818" x2="-0.818" y2="3.917" xlink:href="#g"/><linearGradient id="y" x1="2.22" y1="3.314" x2="-1.633" y2="8.455" xlink:href="#g"/><linearGradient id="z" x1="1.654" y1="2.837" x2="-0.347" y2="8.553" xlink:href="#g"/><linearGradient id="aa" x1="1.16" y1="0.711" x2="-0.891" y2="3.81" xlink:href="#g"/><linearGradient id="ab" x1="1.944" y1="2.921" x2="-1.91" y2="8.062" xlink:href="#g"/><linearGradient id="ac" x1="1.508" y1="2.389" x2="-0.495" y2="8.08" xlink:href="#g"/><linearGradient id="ad" x1="1.34" y1="1.363" x2="-0.712" y2="4.462" xlink:href="#g"/><linearGradient id="ae" x1="2.631" y1="5.322" x2="-1.223" y2="10.463" xlink:href="#g"/><linearGradient id="af" x1="1.868" y1="5.069" x2="-0.134" y2="10.786" xlink:href="#g"/></defs><g transform="translate(-55 -142)"><g transform="translate(55 142)"><g transform="translate(0)"><rect class="a" width="179.47" height="119.647" transform="translate(0.617 2.188)"/><rect class="a" width="179.47" height="119.647" transform="translate(0.617 2.032)"/><rect class="a" width="179.47" height="119.647" transform="translate(0 2.032)"/><rect class="a" width="179.47" height="119.647"/></g></g><g transform="translate(70.63 149.505)"><g transform="translate(2.772 15.439)"><g transform="translate(105.349 9.001)"><path class="b" d="M1752.932,424.005a1.658,1.658,0,0,0-1.694-1.554h-34.9a1.733,1.733,0,0,0-1.749,1.618v76.469a1.515,1.515,0,0,0,.525,1.1,1.813,1.813,0,0,0,1.215.452l36.479-.091a1.784,1.784,0,0,0,1.209-.466,1.519,1.519,0,0,0,.485-1.13Z" transform="translate(-1714.587 -422.451)"/><g class="c" transform="translate(2.212 3.295)"><path class="d" d="M1753.658,466.456h-9.018a.47.47,0,0,0-.509.436v1.492a.5.5,0,0,0,.509.469h9.018a.5.5,0,0,0,.509-.469v-1.492A.47.47,0,0,0,1753.658,466.456Z" transform="translate(-1744.131 -466.456)"/><path class="d" d="M1915.405,466.456h-9.018a.431.431,0,0,0-.464.436v1.492a.457.457,0,0,0,.464.469h9.018a.539.539,0,0,0,.553-.469v-1.492C1915.958,466.63,1915.673,466.456,1915.405,466.456Z" transform="translate(-1893.808 -466.456)"/><path class="d" d="M2074.918,466.456H2065.9c-.268,0-.6.174-.6.436v1.492c0,.262.332.469.6.469h9.018a.421.421,0,0,0,.417-.469v-1.492A.394.394,0,0,0,2074.918,466.456Z" transform="translate(-2041.251 -466.456)"/><g transform="translate(0 5.869)"><path class="d" d="M1753.658,544.833h-9.018a.5.5,0,0,0-.509.469v1.492a.54.54,0,0,0,.509.519h9.018a.539.539,0,0,0,.509-.519V545.3A.5.5,0,0,0,1753.658,544.833Z" transform="translate(-1744.131 -544.833)"/><path class="d" d="M1915.405,544.833h-9.018a.457.457,0,0,0-.464.469v1.492a.5.5,0,0,0,.464.519h9.018a.582.582,0,0,0,.553-.519V545.3A.539.539,0,0,0,1915.405,544.833Z" transform="translate(-1893.808 -544.833)"/><path class="d" d="M2074.918,544.833H2065.9c-.268,0-.6.206-.6.469v1.492a.631.631,0,0,0,.6.519h9.018a.465.465,0,0,0,.417-.519V545.3A.42.42,0,0,0,2074.918,544.833Z" transform="translate(-2041.251 -544.833)"/></g><g transform="translate(0 11.738)"><path class="d" d="M1753.658,623.21h-9.018a.524.524,0,0,0-.509.5V625.2c0,.262.241.4.509.4h9.018c.268,0,.509-.141.509-.4v-1.492A.523.523,0,0,0,1753.658,623.21Z" transform="translate(-1744.131 -623.21)"/><path class="d" d="M1915.405,623.21h-9.018a.485.485,0,0,0-.464.5V625.2c0,.262.2.4.464.4h9.018c.268,0,.553-.141.553-.4v-1.492A.566.566,0,0,0,1915.405,623.21Z" transform="translate(-1893.808 -623.21)"/><path class="d" d="M2074.918,623.21H2065.9c-.268,0-.6.239-.6.5V625.2c0,.262.332.4.6.4h9.018a.37.37,0,0,0,.417-.4v-1.492A.449.449,0,0,0,2074.918,623.21Z" transform="translate(-2041.251 -623.21)"/></g><g transform="translate(0 17.607)"><path class="d" d="M1753.658,701.586h-9.018a.554.554,0,0,0-.509.534v1.492a.484.484,0,0,0,.509.453h9.018a.483.483,0,0,0,.509-.453V702.12A.554.554,0,0,0,1753.658,701.586Z" transform="translate(-1744.131 -701.586)"/><path class="d" d="M1915.405,701.586h-9.018a.516.516,0,0,0-.464.534v1.492a.445.445,0,0,0,.464.453h9.018a.527.527,0,0,0,.553-.453V702.12A.6.6,0,0,0,1915.405,701.586Z" transform="translate(-1893.808 -701.586)"/><path class="d" d="M2074.918,701.586H2065.9a.645.645,0,0,0-.6.534v1.492c0,.262.332.453.6.453h9.018a.408.408,0,0,0,.417-.453V702.12C2075.335,701.858,2075.187,701.586,2074.918,701.586Z" transform="translate(-2041.251 -701.586)"/></g><g transform="translate(0 23.558)"><path class="d" d="M1753.658,781.067h-9.018a.509.509,0,0,0-.509.484v1.492a.525.525,0,0,0,.509.5h9.018a.525.525,0,0,0,.509-.5v-1.492A.509.509,0,0,0,1753.658,781.067Z" transform="translate(-1744.131 -781.067)"/><path class="d" d="M1915.405,781.067h-9.018a.47.47,0,0,0-.464.484v1.492a.487.487,0,0,0,.464.5h9.018a.568.568,0,0,0,.553-.5v-1.492A.552.552,0,0,0,1915.405,781.067Z" transform="translate(-1893.808 -781.067)"/><path class="d" d="M2074.918,781.067H2065.9c-.268,0-.6.222-.6.484v1.492c0,.262.332.5.6.5h9.018a.451.451,0,0,0,.417-.5v-1.492A.434.434,0,0,0,2074.918,781.067Z" transform="translate(-2041.251 -781.067)"/></g><g transform="translate(0 29.51)"><path class="d" d="M1753.658,860.548h-9.018a.469.469,0,0,0-.509.434v1.492a.572.572,0,0,0,.509.553h9.018a.572.572,0,0,0,.509-.553v-1.492A.469.469,0,0,0,1753.658,860.548Z" transform="translate(-1744.131 -860.548)"/><path class="d" d="M1915.405,860.548h-9.018a.43.43,0,0,0-.464.434v1.492a.534.534,0,0,0,.464.553h9.018a.614.614,0,0,0,.553-.553v-1.492C1915.958,860.72,1915.673,860.548,1915.405,860.548Z" transform="translate(-1893.808 -860.548)"/><path class="d" d="M2074.918,860.548H2065.9c-.268,0-.6.172-.6.434v1.492a.663.663,0,0,0,.6.553h9.018c.268,0,.417-.291.417-.553v-1.492A.393.393,0,0,0,2074.918,860.548Z" transform="translate(-2041.251 -860.548)"/></g><g transform="translate(0 35.461)"><path class="d" d="M1753.658,940.028h-9.018c-.268,0-.509.122-.509.385V941.9a.472.472,0,0,0,.509.438h9.018a.471.471,0,0,0,.509-.438v-1.492C1754.167,940.15,1753.926,940.028,1753.658,940.028Z" transform="translate(-1744.131 -940.028)"/><path class="d" d="M1915.405,940.028h-9.018c-.268,0-.464.122-.464.385V941.9a.432.432,0,0,0,.464.438h9.018c.268,0,.553-.175.553-.438v-1.492C1915.958,940.15,1915.673,940.028,1915.405,940.028Z" transform="translate(-1893.808 -940.028)"/><path class="d" d="M2074.918,940.028H2065.9c-.268,0-.6.122-.6.385V941.9c0,.262.332.438.6.438h9.018a.4.4,0,0,0,.417-.438v-1.492C2075.335,940.15,2075.187,940.028,2074.918,940.028Z" transform="translate(-2041.251 -940.028)"/></g><g transform="translate(0 41.248)"><path class="d" d="M1753.658,1017.3h-9.018a.523.523,0,0,0-.509.5v1.492a.512.512,0,0,0,.509.487h9.018a.511.511,0,0,0,.509-.487V1017.8A.522.522,0,0,0,1753.658,1017.3Z" transform="translate(-1744.131 -1017.301)"/><path class="d" d="M1915.405,1017.3h-9.018a.484.484,0,0,0-.464.5v1.492a.473.473,0,0,0,.464.487h9.018a.554.554,0,0,0,.553-.487V1017.8A.565.565,0,0,0,1915.405,1017.3Z" transform="translate(-1893.808 -1017.301)"/><path class="d" d="M2074.918,1017.3H2065.9c-.268,0-.6.238-.6.5v1.492c0,.262.332.487.6.487h9.018a.436.436,0,0,0,.417-.487V1017.8A.448.448,0,0,0,2074.918,1017.3Z" transform="translate(-2041.251 -1017.301)"/></g><g transform="translate(0 47.199)"><path class="d" d="M1753.658,1096.781h-9.018a.481.481,0,0,0-.509.45v1.492a.485.485,0,0,0,.509.455h9.018a.484.484,0,0,0,.509-.455v-1.492A.481.481,0,0,0,1753.658,1096.781Z" transform="translate(-1744.131 -1096.781)"/><path class="d" d="M1915.405,1096.781h-9.018a.442.442,0,0,0-.464.45v1.492a.446.446,0,0,0,.464.455h9.018a.528.528,0,0,0,.553-.455v-1.492A.524.524,0,0,0,1915.405,1096.781Z" transform="translate(-1893.808 -1096.781)"/><path class="d" d="M2074.918,1096.781H2065.9c-.268,0-.6.188-.6.45v1.492c0,.262.332.455.6.455h9.018a.409.409,0,0,0,.417-.455v-1.492A.405.405,0,0,0,2074.918,1096.781Z" transform="translate(-2041.251 -1096.781)"/></g><g transform="translate(0 53.068)"><path class="d" d="M1753.658,1175.158h-9.018a.508.508,0,0,0-.509.483v1.492a.527.527,0,0,0,.509.5h9.018a.526.526,0,0,0,.509-.5v-1.492A.508.508,0,0,0,1753.658,1175.158Z" transform="translate(-1744.131 -1175.158)"/><path class="d" d="M1915.405,1175.158h-9.018a.469.469,0,0,0-.464.483v1.492a.488.488,0,0,0,.464.5h9.018a.569.569,0,0,0,.553-.5v-1.492A.55.55,0,0,0,1915.405,1175.158Z" transform="translate(-1893.808 -1175.158)"/><path class="d" d="M2074.918,1175.158H2065.9c-.268,0-.6.221-.6.483v1.492c0,.262.332.5.6.5h9.018a.452.452,0,0,0,.417-.5v-1.492A.433.433,0,0,0,2074.918,1175.158Z" transform="translate(-2041.251 -1175.158)"/></g><g transform="translate(0 59.02)"><path class="d" d="M1753.658,1254.639h-9.018a.468.468,0,0,0-.509.433v1.492c0,.262.241.389.509.389h9.018c.268,0,.509-.127.509-.389v-1.492A.468.468,0,0,0,1753.658,1254.639Z" transform="translate(-1744.131 -1254.639)"/><path class="d" d="M1915.405,1254.639h-9.018a.429.429,0,0,0-.464.433v1.492c0,.262.2.389.464.389h9.018c.268,0,.553-.127.553-.389v-1.492C1915.958,1254.81,1915.673,1254.639,1915.405,1254.639Z" transform="translate(-1893.808 -1254.639)"/><path class="d" d="M2074.918,1254.639H2065.9c-.268,0-.6.171-.6.433v1.492c0,.262.332.389.6.389h9.018c.268,0,.417-.127.417-.389v-1.492A.392.392,0,0,0,2074.918,1254.639Z" transform="translate(-2041.251 -1254.639)"/></g><g transform="translate(0 64.806)"><path class="d" d="M1753.658,1331.912h-9.018a.568.568,0,0,0-.509.548v1.492a.473.473,0,0,0,.509.439h9.018a.472.472,0,0,0,.509-.439v-1.492A.568.568,0,0,0,1753.658,1331.912Z" transform="translate(-1744.131 -1331.912)"/><path class="d" d="M1915.405,1331.912h-9.018a.53.53,0,0,0-.464.548v1.492a.433.433,0,0,0,.464.439h9.018c.268,0,.553-.177.553-.439v-1.492A.61.61,0,0,0,1915.405,1331.912Z" transform="translate(-1893.808 -1331.912)"/><path class="d" d="M2074.918,1331.912H2065.9a.659.659,0,0,0-.6.548v1.492c0,.262.332.439.6.439h9.018a.4.4,0,0,0,.417-.439v-1.492C2075.335,1332.2,2075.187,1331.912,2074.918,1331.912Z" transform="translate(-2041.251 -1331.912)"/></g></g></g><g transform="translate(0 0)"><path class="e" d="M346.271,312.439a1.132,1.132,0,0,0-1.1-1.116H308.845a1.214,1.214,0,0,0-1.154,1.175V397.28a1.753,1.753,0,0,0,1.751,1.705l36.713-.1a1.714,1.714,0,0,0,1.217-.513,1.751,1.751,0,0,0,.488-1.244Z" transform="translate(-307.691 -311.323)"/><g class="f" transform="translate(2.029 4.489)"><path class="d" d="M368.483,362.193H335.132a.348.348,0,0,0-.346.354l.02,2.471a.355.355,0,0,0,.351.354l33.307.009a.336.336,0,0,0,.33-.355v-2.479A.321.321,0,0,0,368.483,362.193Z" transform="translate(-334.786 -362.193)"/><path class="d" d="M369,444.056l-33.294-.018a.343.343,0,0,0-.34.354l.022,2.464a.355.355,0,0,0,.352.354l33.26.028a.336.336,0,0,0,.331-.354v-2.472A.336.336,0,0,0,369,444.056Z" transform="translate(-335.327 -437.909)"/><path class="d" d="M369.606,525.7l-33.246-.036a.342.342,0,0,0-.34.352l.022,2.457a.355.355,0,0,0,.351.353l33.212.046a.335.335,0,0,0,.33-.353v-2.465A.336.336,0,0,0,369.606,525.7Z" transform="translate(-335.927 -513.421)"/><path class="d" d="M370.206,607.106l-33.2-.054a.341.341,0,0,0-.339.351l.022,2.45a.354.354,0,0,0,.351.352l33.165.064a.334.334,0,0,0,.329-.352V607.46A.335.335,0,0,0,370.206,607.106Z" transform="translate(-336.527 -588.717)"/><path class="d" d="M370.8,688.282l-33.151-.072a.34.34,0,0,0-.339.35l.022,2.443a.354.354,0,0,0,.35.351l33.117.082a.333.333,0,0,0,.329-.35v-2.451A.335.335,0,0,0,370.8,688.282Z" transform="translate(-337.125 -663.798)"/><path class="d" d="M371.4,769.227l-33.1-.09a.339.339,0,0,0-.338.349l.022,2.436a.353.353,0,0,0,.35.35l33.07.1a.332.332,0,0,0,.328-.349v-2.444A.334.334,0,0,0,371.4,769.227Z" transform="translate(-337.72 -738.665)"/><path class="d" d="M371.995,849.941l-33.057-.108a.338.338,0,0,0-.338.348l.022,2.429a.353.353,0,0,0,.349.35l33.023.117a.331.331,0,0,0,.328-.348v-2.437A.334.334,0,0,0,371.995,849.941Z" transform="translate(-338.314 -813.318)"/><path class="d" d="M372.588,930.425l-33.01-.125a.337.337,0,0,0-.337.346l.022,2.422a.352.352,0,0,0,.349.349l32.976.134a.33.33,0,0,0,.328-.347v-2.43A.333.333,0,0,0,372.588,930.425Z" transform="translate(-338.907 -887.76)"/><path class="d" d="M373.179,1010.682l-32.963-.143a.336.336,0,0,0-.337.345l.022,2.416a.352.352,0,0,0,.348.348l32.929.152a.329.329,0,0,0,.327-.346v-2.423A.333.333,0,0,0,373.179,1010.682Z" transform="translate(-339.497 -961.99)"/><path class="d" d="M373.725,1084.79l-32.92-.159a.336.336,0,0,0-.336.344l.022,2.409a.351.351,0,0,0,.348.347l32.886.168a.328.328,0,0,0,.327-.345v-2.416A.332.332,0,0,0,373.725,1084.79Z" transform="translate(-340.043 -1030.534)"/><path class="d" d="M374.313,1164.609l-32.873-.176a.335.335,0,0,0-.336.343l.022,2.4a.351.351,0,0,0,.347.346l32.84.185a.327.327,0,0,0,.326-.344v-2.409A.332.332,0,0,0,374.313,1164.609Z" transform="translate(-340.631 -1104.361)"/><path class="d" d="M374.9,1244.2l-32.827-.193a.334.334,0,0,0-.336.342l.022,2.4a.35.35,0,0,0,.347.346l32.793.2a.326.326,0,0,0,.326-.342v-2.4A.331.331,0,0,0,374.9,1244.2Z" transform="translate(-341.216 -1177.978)"/><path class="d" d="M375.484,1323.571l-32.78-.21a.333.333,0,0,0-.335.341l.021,2.389a.35.35,0,0,0,.346.345l32.747.219a.325.325,0,0,0,.325-.341v-2.4A.331.331,0,0,0,375.484,1323.571Z" transform="translate(-341.801 -1251.388)"/></g></g><g transform="translate(29.889 0.176)"><path class="g" d="M750,306.523a1.949,1.949,0,0,0-2.027-1.921l-39.925,1.6a1.256,1.256,0,0,0-1.206,1.285l2.027,85.351,40.37-.493a1.95,1.95,0,0,0,1.925-1.976Z" transform="translate(-706.841 -304.601)"/><g class="h" transform="translate(4.507 6.739)"><path class="d" d="M773.531,405.549l-6.425.018L767.03,394.6h6.439Z" transform="translate(-767.03 -394.603)"/><path class="d" d="M897.239,405.529l-6.4.018-.056-10.944H897.2Z" transform="translate(-881.516 -394.603)"/><path class="d" d="M1027.319,405.507l-6.376.018-.034-10.922h6.39Z" transform="translate(-1001.898 -394.603)"/><path class="d" d="M1153.489,405.479l-6.353.021-.016-10.9h6.369Z" transform="translate(-1118.658 -394.603)"/><g transform="translate(0.108 15.53)"><path class="d" d="M774.957,614.072l-6.4.034-.075-10.9,6.419-.02Z" transform="translate(-768.477 -603.097)"/><path class="d" d="M898.279,613.664l-6.381.034-.055-10.88,6.395-.02Z" transform="translate(-882.605 -602.738)"/><path class="d" d="M1027.954,613.234l-6.356.034-.034-10.858,6.37-.02Z" transform="translate(-1002.612 -602.36)"/><path class="d" d="M1153.765,612.818l-6.333.034-.013-10.838,6.346-.02Z" transform="translate(-1119.043 -601.994)"/></g><g transform="translate(0.22 31.491)"><path class="d" d="M776.422,828.383l-6.384.055-.075-10.83,6.4-.041Z" transform="translate(-769.963 -817.386)"/><path class="d" d="M899.346,827.578l-6.36.055-.055-10.81,6.374-.041Z" transform="translate(-883.723 -816.66)"/><path class="d" d="M1028.6,826.732l-6.336.054L1022.235,816l6.349-.041Z" transform="translate(-1003.345 -815.897)"/><path class="d" d="M1154.014,825.912l-6.313.054-.013-10.769,6.326-.041Z" transform="translate(-1119.404 -815.156)"/></g><g transform="translate(0.33 47.352)"><path class="d" d="M777.875,1041.072l-6.364.075-.073-10.505,6.378-.061Z" transform="translate(-771.438 -1030.309)"/><path class="d" d="M900.406,1039.876l-6.341.074-.053-10.486,6.354-.061Z" transform="translate(-884.833 -1029.221)"/><path class="d" d="M1029.252,1038.619l-6.316.074-.033-10.466,6.329-.061Z" transform="translate(-1004.073 -1028.077)"/><path class="d" d="M1154.262,1037.4l-6.294.074-.012-10.446,6.306-.061Z" transform="translate(-1119.762 -1026.967)"/></g><g transform="translate(0.44 63.112)"><path class="d" d="M779.321,1252.663l-6.344.095-.072-10.439,6.357-.082Z" transform="translate(-772.905 -1241.878)"/><path class="d" d="M901.459,1251.082l-6.32.094-.053-10.42,6.334-.081Z" transform="translate(-885.937 -1240.433)"/><path class="d" d="M1029.9,1249.419l-6.3.094-.033-10.4,6.309-.081Z" transform="translate(-1004.797 -1238.913)"/><path class="d" d="M1154.509,1247.806l-6.274.094-.012-10.38,6.286-.081Z" transform="translate(-1120.119 -1237.439)"/></g></g></g><g transform="translate(71.938 6.181)"><path class="i" d="M1311.954,386.9a2.324,2.324,0,0,0-.572-1.517,1.7,1.7,0,0,0-1.328-.591l-39.875,1.485a2.034,2.034,0,0,0-1.782,2.209l1.967,76.977a2,2,0,0,0,1.858,2.083l39.074-.443a1.727,1.727,0,0,0,1.3-.649,2.349,2.349,0,0,0,.521-1.534Z" transform="translate(-1268.397 -384.786)"/><g class="j" transform="translate(3.27 5.725)"><path class="d" d="M1348.193,461.247h-35.509a.635.635,0,0,0-.619.671l.034,3.651c0,.383.288.815.635.816l35.61.043c.353,0,.625-.441.614-.828l-.108-3.675A.675.675,0,0,0,1348.193,461.247Z" transform="translate(-1312.066 -461.247)"/><path class="d" d="M1349.338,566.376l-35.664-.069a.728.728,0,0,0-.621.77l.034,3.693a.73.73,0,0,0,.637.755l35.766.115a.7.7,0,0,0,.619-.757l-.109-3.727A.776.776,0,0,0,1349.338,566.376Z" transform="translate(-1312.979 -558.44)"/><path class="d" d="M1350.5,676.649l-35.825-.142a.556.556,0,0,0-.625.575l.035,3.725a.663.663,0,0,0,.639.687l35.922.186a.634.634,0,0,0,.624-.686l-.11-3.76A.6.6,0,0,0,1350.5,676.649Z" transform="translate(-1313.902 -660.388)"/><path class="d" d="M1351.666,784.187l-35.982-.214a.618.618,0,0,0-.627.654l.035,3.758a.6.6,0,0,0,.641.618l36.081.259a.576.576,0,0,0,.629-.614l-.111-3.793A.664.664,0,0,0,1351.666,784.187Z" transform="translate(-1314.833 -759.807)"/><path class="d" d="M1352.842,892.661l-36.141-.287a.689.689,0,0,0-.63.735l.035,3.791c0,.4.293.827.646.83l36.246.335c.359,0,.637-.426.625-.826l-.112-3.827A.744.744,0,0,0,1352.842,892.661Z" transform="translate(-1315.772 -860.092)"/><path class="d" d="M1354.027,1002.085l-36.3-.361c-.353,0-.635.419-.632.818l.035,3.825a.733.733,0,0,0,.648.762l36.407.41a.69.69,0,0,0,.63-.754l-.113-3.861C1354.691,1002.521,1354.387,1002.089,1354.027,1002.085Z" transform="translate(-1316.718 -961.253)"/><path class="d" d="M1355.232,1116.3l-36.468-.439a.584.584,0,0,0-.636.615l.036,3.859a.665.665,0,0,0,.65.691l36.569.486a.624.624,0,0,0,.635-.681l-.114-3.9A.637.637,0,0,0,1355.232,1116.3Z" transform="translate(-1317.674 -1066.839)"/><path class="d" d="M1356.439,1227.69l-36.631-.516a.65.65,0,0,0-.638.7l.036,3.893a.6.6,0,0,0,.652.62l36.733.564a.567.567,0,0,0,.641-.606l-.115-3.931A.714.714,0,0,0,1356.439,1227.69Z" transform="translate(-1318.638 -1169.821)"/><path class="d" d="M1357.657,1340.072l-36.8-.594a.727.727,0,0,0-.64.782l.036,3.928c0,.411.3.834.657.84l36.9.646c.365.006.649-.41.637-.825l-.116-3.966A.8.8,0,0,0,1357.657,1340.072Z" transform="translate(-1319.61 -1273.716)"/></g></g></g><g transform="translate(0 1.167)"><g transform="translate(19.94 0)"><path class="k" d="M578.7,204.106s-2.043-57.135-33.055-92.166a.838.838,0,0,0-1.394.209C540.312,120.943,517.856,177.511,578.7,204.106Z" transform="translate(-536.962 -111.655)"/><path class="l" d="M664.574,333.544c.423,3.294.98,6.585,1.66,9.841q.988,4.893,2.264,9.718c.858,3.213,1.782,6.406,2.828,9.561,1.029,3.159,2.148,6.289,3.4,9.366s2.552,6.133,4.016,9.112c.18.374.354.751.539,1.122l.567,1.108c.383.736.746,1.483,1.144,2.211l1.2,2.184.3.547.314.537.628,1.075c.815,1.448,1.729,2.833,2.6,4.248.448.7.921,1.381,1.38,2.073l.694,1.035c.235.343.486.673.725,1.013l1.451,2.028L691.8,402.3l.764.987.8.956,1.592,1.924,0,.005a.234.234,0,0,1-.35.311,93.288,93.288,0,0,1-12.231-15.926l-.659-1.073-.329-.536-.313-.546-1.243-2.189c-.413-.731-.79-1.48-1.187-2.22l-.588-1.113c-.191-.373-.373-.752-.56-1.127-1.513-3-2.845-6.08-4.11-9.187a139.983,139.983,0,0,1-6.084-19.16q-1.182-4.886-2-9.847-.407-2.479-.714-4.972c-.209-1.662-.383-3.324-.481-5a.234.234,0,0,1,.467-.044Z" transform="translate(-654.586 -316.733)"/></g><g transform="translate(0 41.409)"><path class="m" d="M332.764,726.979s-26.136-57.6-60.993-62.319a.969.969,0,0,0-1.092,1.055C271.384,672.944,277.691,711.072,332.764,726.979Z" transform="translate(-270.674 -664.652)"/><path class="l" d="M372.969,784.148c1.891,2.409,3.873,4.759,5.874,7.084,1.006,1.159,2.013,2.317,3.032,3.465s2.046,2.288,3.089,3.414,2.086,2.252,3.141,3.367l3.194,3.316c2.163,2.177,4.325,4.356,6.547,6.474,2.185,2.156,4.469,4.207,6.716,6.3l3.454,3.043c.577.505,1.148,1.018,1.731,1.517l1.767,1.474c1.181.98,2.351,1.973,3.54,2.942l3.618,2.846c.6.474,1.2.958,1.809,1.423l1.85,1.369,3.7,2.739.005,0a.225.225,0,0,1-.265.364c-5-3.585-9.947-7.251-14.631-11.243l-1.777-1.472c-.586-.5-1.16-1.01-1.741-1.514l-3.473-3.038c-2.259-2.088-4.555-4.136-6.753-6.289q-6.658-6.389-12.868-13.224c-1.041-1.132-2.054-2.289-3.082-3.433s-2.021-2.319-3.025-3.484c-1.983-2.352-3.937-4.725-5.813-7.171a.225.225,0,0,1,.356-.276Z" transform="translate(-364.934 -775.117)"/></g></g><g transform="translate(81.233 0)"><g transform="translate(9.938)"><path class="n" d="M1514.308,96.181c-5.884,4.207-39.128,30.085-20.447,65.642,0,0,26.271-11.4,21.413-65.2A.612.612,0,0,0,1514.308,96.181Z" transform="translate(-1488.224 -96.066)"/><path class="l" d="M1530.289,189.845c-1.2,1.974-2.353,3.974-3.491,5.982s-2.252,4.032-3.342,6.067-2.157,4.083-3.2,6.143-2.051,4.137-3.033,6.226c-1.958,4.18-3.8,8.42-5.4,12.748q-1.211,3.242-2.179,6.564a57.98,57.98,0,0,0-1.565,6.725h0a.171.171,0,1,1-.338-.055h0a58.356,58.356,0,0,1,1.6-6.759q.981-3.33,2.209-6.577c1.62-4.333,3.475-8.572,5.45-12.75q1.487-3.131,3.059-6.221t3.223-6.136q1.648-3.049,3.366-6.059c1.146-2.006,2.31-4,3.515-5.974a.073.073,0,1,1,.124.076Z" transform="translate(-1506.282 -182.72)"/></g><g transform="translate(17.173 16.225)"><path class="o" d="M1642.907,312.791c-8.586,3.21-57.789,23.934-46.635,73.6,0,0,35.9-5.3,47.672-72.74A.776.776,0,0,0,1642.907,312.791Z" transform="translate(-1593.902 -312.74)"/><path class="l" d="M1628.988,417.1c-2.115,2.021-4.189,4.087-6.244,6.17s-4.085,4.191-6.091,6.322-3.986,4.285-5.941,6.463-3.874,4.387-5.765,6.619c-3.774,4.47-7.421,9.053-10.807,13.822q-2.551,3.569-4.832,7.316a73.548,73.548,0,0,0-4.135,7.718h0a.171.171,0,1,1-.312-.142h0a73.864,73.864,0,0,1,4.175-7.742q2.294-3.751,4.865-7.321c3.406-4.769,7.07-9.346,10.86-13.81q2.849-3.343,5.788-6.608t5.962-6.45q3.019-3.19,6.111-6.308c2.062-2.078,4.142-4.138,6.266-6.156a.073.073,0,0,1,.1.105Z" transform="translate(-1584.845 -409.169)"/></g><g transform="translate(0 49.363)"><path class="p" d="M1421.505,755.294c-7.783.159-54.608,3.153-65.922,51.012-.46,1.947,1.1,4.26,3.045,3.772,32.762-8.251,50.683-18.839,63.373-53.613C1422.21,755.893,1422.026,755.284,1421.505,755.294Z" transform="translate(-1355.502 -755.294)"/><path class="l" d="M1464.692,832.159c-2.48,1.245-4.935,2.543-7.377,3.862s-4.868,2.67-7.277,4.049c-4.817,2.759-9.576,5.622-14.238,8.636-.581.379-1.167.751-1.745,1.135l-1.734,1.151c-.577.385-1.148.779-1.722,1.168l-.86.587-.852.6-.853.6c-.285.2-.568.4-.849.6l-1.688,1.217c-.56.409-1.113.827-1.67,1.241-.277.208-.558.412-.833.624l-.823.636-.823.636-.411.319-.405.326-1.621,1.3-1.594,1.337-.4.334c-.132.113-.26.229-.391.343l-.78.687a78.917,78.917,0,0,0-5.947,5.8h0a.171.171,0,0,1-.253-.231h0a79.247,79.247,0,0,1,5.99-5.809l.785-.687c.131-.114.26-.23.393-.342l.4-.334,1.6-1.335,1.629-1.3.407-.325.413-.318.827-.635.827-.635c.276-.211.558-.415.836-.622.559-.412,1.115-.83,1.677-1.238l1.694-1.214c.281-.2.566-.4.852-.6l.855-.595.855-.595.862-.585c.576-.388,1.149-.781,1.728-1.165l1.74-1.147c.579-.383,1.167-.754,1.75-1.131,4.674-3,9.445-5.853,14.273-8.6q3.622-2.058,7.293-4.029c2.448-1.313,4.906-2.6,7.393-3.843a.073.073,0,0,1,.065.13Z" transform="translate(-1405.458 -826.276)"/></g></g><g transform="translate(23.974 12.122)"><g transform="translate(0.125 0)"><g transform="translate(3.229 3.499)"><ellipse class="q" cx="47.839" cy="44.32" rx="47.839" ry="44.32" transform="matrix(1, -0.008, 0.008, 1, 0, 0.761)"/><ellipse class="r" cx="37.539" cy="35.462" rx="37.539" ry="35.462" transform="translate(6.113 8.17) rotate(-2.969)"/></g><path class="d" d="M674.074,543.671h0q-.373,0-.75-.005a.187.187,0,0,1,0-.374h0q.375,0,.747.005a.187.187,0,0,1,0,.374Zm.749,0a.187.187,0,0,1,0-.374q.375,0,.747-.009a.185.185,0,0,1,.19.184.187.187,0,0,1-.184.19q-.373.006-.75.009Zm-2.246-.015h0q-.373-.007-.75-.018a.187.187,0,1,1,.011-.374q.375.011.747.018a.187.187,0,0,1,0,.374Zm3.744-.01a.187.187,0,0,1,0-.374q.375-.01.747-.024a.187.187,0,0,1,.014.374q-.373.014-.75.024Zm-5.241-.032h-.007l-.75-.031a.187.187,0,0,1,.017-.374l.747.03a.187.187,0,0,1-.007.374Zm6.737-.023a.187.187,0,0,1-.009-.374q.375-.018.746-.039a.187.187,0,0,1,.022.374q-.373.022-.75.039Zm-8.234-.044h-.01l-.749-.042a.187.187,0,0,1,.023-.374q.375.023.746.042a.187.187,0,0,1-.01.374Zm9.729-.043a.187.187,0,0,1-.013-.374q.375-.026.745-.056a.187.187,0,0,1,.03.373q-.372.03-.749.056Zm-11.224-.048h-.013l-.748-.054a.187.187,0,1,1,.028-.373l.746.053a.187.187,0,0,1-.013.374Zm12.716-.073a.187.187,0,0,1-.017-.374q.374-.035.743-.074a.187.187,0,1,1,.039.372q-.371.04-.747.075Zm-14.21-.039h-.016l-.747-.065a.187.187,0,0,1,.034-.373l.745.064a.187.187,0,0,1-.015.374Zm15.7-.119a.187.187,0,0,1-.022-.373c.247-.03.5-.061.74-.094a.187.187,0,1,1,.05.371c-.245.033-.5.065-.745.094Zm-17.19-.015h-.018l-.746-.075a.187.187,0,1,1,.039-.372l.744.075a.187.187,0,0,1-.018.374Zm-1.49-.155h-.021l-.745-.085a.187.187,0,1,1,.044-.372l.743.085a.187.187,0,0,1-.02.373Zm20.165-.028a.187.187,0,0,1-.027-.372c.247-.037.5-.075.737-.115a.187.187,0,0,1,.061.37c-.244.04-.494.079-.743.116Zm-21.652-.146H662.1l-.744-.095a.187.187,0,0,1,.049-.371l.742.095a.187.187,0,0,1-.023.373Zm23.13-.1a.187.187,0,0,1-.033-.371c.245-.044.491-.091.733-.139a.187.187,0,1,1,.073.367c-.243.048-.492.1-.739.14A.184.184,0,0,1,685.256,542.782Zm-24.615-.1-.026,0-.743-.1a.187.187,0,1,1,.053-.37l.74.1a.187.187,0,0,1-.025.373Zm26.084-.193a.187.187,0,0,1-.039-.37c.244-.053.489-.108.727-.165a.187.187,0,1,1,.086.364c-.24.057-.487.113-.734.166A.2.2,0,0,1,686.725,542.491Zm-27.566-.02-.028,0-.741-.113a.187.187,0,1,1,.058-.37l.739.113a.187.187,0,0,1-.028.372Zm-1.48-.231-.03,0-.74-.122a.187.187,0,0,1,.062-.369l.738.122a.187.187,0,0,1-.03.372Zm30.5-.094a.187.187,0,0,1-.047-.369c.242-.062.484-.127.719-.194a.187.187,0,0,1,.1.36c-.238.067-.483.133-.727.2A.191.191,0,0,1,688.183,542.146Zm-31.981-.154-.032,0-.738-.131a.187.187,0,0,1,.066-.368l.736.131a.187.187,0,0,1-.032.372Zm33.422-.251a.187.187,0,0,1-.055-.366c.239-.073.477-.149.709-.226a.187.187,0,1,1,.118.355c-.234.078-.476.155-.718.229A.189.189,0,0,1,689.624,541.741Zm-34.9-.015a.185.185,0,0,1-.035,0l-.737-.139a.187.187,0,0,1,.071-.368l.735.139a.187.187,0,0,1-.034.371Zm-1.471-.283a.192.192,0,0,1-.037,0l-.735-.148a.187.187,0,0,1,.075-.367l.733.147a.187.187,0,0,1-.036.371Zm37.788-.175a.187.187,0,0,1-.064-.363c.235-.085.469-.174.7-.263a.187.187,0,1,1,.137.348c-.23.091-.467.18-.705.267A.187.187,0,0,1,691.045,541.268Zm-39.255-.124a.183.183,0,0,1-.039,0l-.733-.156a.187.187,0,1,1,.079-.366l.731.156a.187.187,0,0,1-.038.37Zm-1.464-.315a.189.189,0,0,1-.041,0l-.732-.164a.187.187,0,1,1,.083-.365l.73.164a.187.187,0,0,1-.04.37Zm42.112-.11a.187.187,0,0,1-.074-.359c.23-.1.458-.2.677-.3a.187.187,0,0,1,.159.339c-.223.1-.455.209-.688.31A.187.187,0,0,1,692.438,540.717Zm-43.572-.221a.185.185,0,0,1-.043,0l-.73-.172a.187.187,0,1,1,.087-.364l.728.171a.187.187,0,0,1-.042.37Zm-1.457-.347a.187.187,0,0,1-.045-.005l-.728-.18a.187.187,0,0,1,.091-.363l.726.179a.187.187,0,0,1-.044.369Zm46.383-.07a.187.187,0,0,1-.086-.354c.222-.114.441-.233.652-.352a.187.187,0,1,1,.185.326c-.215.122-.439.243-.665.36A.187.187,0,0,1,693.792,540.079Zm-47.836-.293a.187.187,0,0,1-.046-.006l-.726-.187a.187.187,0,0,1,.094-.362l.724.187a.187.187,0,0,1-.046.369Zm-1.449-.378a.183.183,0,0,1-.048-.006l-.724-.195a.187.187,0,1,1,.1-.361l.722.194a.187.187,0,0,1-.048.368Zm50.588-.068a.187.187,0,0,1-.1-.346c.211-.132.419-.269.618-.407a.187.187,0,0,1,.213.308c-.2.141-.416.281-.633.416A.186.186,0,0,1,695.094,539.341Zm-52.033-.325a.19.19,0,0,1-.05-.007l-.722-.2a.187.187,0,0,1,.1-.36l.72.2a.187.187,0,0,1-.05.368Zm-1.439-.407a.188.188,0,0,1-.052-.007l-.719-.209a.187.187,0,1,1,.106-.359l.717.209a.187.187,0,0,1-.052.367Zm54.7-.122a.187.187,0,0,1-.115-.335c.2-.152.389-.309.571-.467a.187.187,0,1,1,.245.283c-.187.162-.385.324-.587.481A.186.186,0,0,1,696.323,538.487Zm-56.137-.3a.19.19,0,0,1-.054-.008l-.718-.217a.187.187,0,1,1,.109-.358l.716.216a.187.187,0,0,1-.054.367Zm-1.433-.437a.187.187,0,0,1-.056-.009l-.716-.224a.187.187,0,1,1,.113-.357l.714.224a.187.187,0,0,1-.055.366Zm58.7-.245a.187.187,0,0,1-.131-.321c.176-.173.347-.353.506-.533a.187.187,0,1,1,.28.248c-.166.187-.342.372-.524.551A.186.186,0,0,1,697.451,537.506Zm-60.126-.207a.187.187,0,0,1-.057-.009l-.713-.232a.187.187,0,1,1,.117-.356l.711.231a.187.187,0,0,1-.057.365Zm-1.423-.466a.187.187,0,0,1-.059-.01l-.711-.239a.187.187,0,0,1,.12-.355l.709.238a.187.187,0,0,1-.059.365Zm62.54-.446a.187.187,0,0,1-.149-.3c.149-.2.291-.4.422-.6a.187.187,0,0,1,.314.2c-.136.21-.284.42-.439.623A.187.187,0,0,1,698.442,536.387Zm-63.959-.035a.185.185,0,0,1-.061-.01l-.708-.246a.187.187,0,0,1,.124-.353l.706.246a.187.187,0,0,1-.061.364Zm-1.413-.5a.189.189,0,0,1-.063-.011l-.706-.254a.187.187,0,0,1,.128-.352l.7.253a.187.187,0,0,1-.063.364Zm-1.408-.511a.188.188,0,0,1-.065-.012l-.7-.261a.187.187,0,0,1,.131-.351l.7.261a.187.187,0,0,1-.065.363Zm67.59-.213a.187.187,0,0,1-.165-.276c.115-.215.222-.437.317-.659a.187.187,0,0,1,.344.147c-.1.232-.211.463-.331.688A.187.187,0,0,1,699.252,535.132Zm-68.992-.313a.188.188,0,0,1-.067-.012l-.7-.269a.187.187,0,1,1,.135-.349l.7.268a.187.187,0,0,1-.067.362Zm-1.4-.541a.188.188,0,0,1-.068-.013l-.7-.277a.187.187,0,1,1,.139-.348l.7.276a.187.187,0,0,1-.069.361Zm70.976-.519a.187.187,0,0,1-.178-.246q.035-.106.067-.212c.048-.162.092-.328.131-.493a.187.187,0,1,1,.365.085c-.04.172-.086.346-.136.515q-.033.112-.07.222A.187.187,0,0,1,699.839,533.759Zm-72.367-.038a.187.187,0,0,1-.07-.014l-.694-.285a.187.187,0,1,1,.143-.346l.692.284a.187.187,0,0,1-.071.361Zm-1.384-.572a.186.186,0,0,1-.072-.015l-.691-.293a.187.187,0,1,1,.147-.344l.689.292a.187.187,0,0,1-.073.36Zm-1.377-.588a.187.187,0,0,1-.074-.016l-.687-.3a.187.187,0,1,1,.151-.343l.685.3a.187.187,0,0,1-.075.359Zm75.468-.259-.027,0a.187.187,0,0,1-.159-.212c.034-.239.058-.484.072-.729a.187.187,0,1,1,.374.021c-.014.255-.039.511-.075.761A.187.187,0,0,1,700.179,532.3Zm-76.838-.346a.187.187,0,0,1-.076-.016l-.683-.309a.187.187,0,0,1,.155-.341l.681.308a.187.187,0,0,1-.077.358Zm-1.363-.621a.186.186,0,0,1-.078-.017l-.68-.317a.187.187,0,0,1,.159-.339l.678.316a.187.187,0,0,1-.079.357Zm78.285-.527a.187.187,0,0,1-.187-.182c-.006-.241-.022-.487-.047-.732a.187.187,0,1,1,.372-.038c.026.255.043.51.049.761a.187.187,0,0,1-.182.192Zm-79.64-.111a.187.187,0,0,1-.081-.018l-.676-.326a.187.187,0,0,1,.164-.337l.674.325a.187.187,0,0,1-.081.356Zm-1.347-.655a.186.186,0,0,1-.083-.019l-.671-.334a.187.187,0,1,1,.168-.335l.669.333a.187.187,0,0,1-.083.355Zm-1.339-.672a.187.187,0,0,1-.085-.021l-.667-.343a.187.187,0,1,1,.173-.332q.331.172.665.342a.187.187,0,0,1-.085.354Zm82.174-.05a.187.187,0,0,1-.184-.155c-.042-.237-.093-.48-.151-.72a.187.187,0,1,1,.364-.089c.061.249.113.5.156.744a.187.187,0,0,1-.152.217Zm-83.5-.64a.187.187,0,0,1-.087-.022q-.333-.176-.662-.353a.187.187,0,1,1,.177-.33q.328.176.66.351a.187.187,0,0,1-.088.353Zm-1.32-.709a.187.187,0,0,1-.09-.023q-.33-.181-.657-.362a.187.187,0,1,1,.182-.327q.325.181.655.361a.187.187,0,0,1-.09.352Zm84.47-.105a.187.187,0,0,1-.179-.132c-.071-.23-.151-.466-.237-.7a.187.187,0,1,1,.351-.13c.089.24.171.482.244.719a.187.187,0,0,1-.124.234A.189.189,0,0,1,699.758,527.868Zm-85.779-.623a.186.186,0,0,1-.092-.024q-.328-.185-.652-.372a.187.187,0,1,1,.187-.324q.323.186.649.37a.187.187,0,0,1-.092.35Zm-1.3-.747a.186.186,0,0,1-.094-.026q-.325-.191-.646-.382a.187.187,0,1,1,.192-.322q.32.191.643.381a.187.187,0,0,1-.095.349Zm86.56-.034a.187.187,0,0,1-.172-.114c-.1-.222-.2-.449-.307-.673a.187.187,0,1,1,.337-.163c.111.23.216.462.314.689a.187.187,0,0,1-.172.261Zm-87.846-.734a.187.187,0,0,1-.1-.027q-.322-.2-.64-.393a.187.187,0,0,1,.2-.318q.316.2.637.391a.187.187,0,0,1-.1.347Zm87.2-.615a.187.187,0,0,1-.165-.1c-.115-.214-.237-.432-.363-.647a.187.187,0,0,1,.323-.189c.128.219.253.441.37.659a.187.187,0,0,1-.077.253A.185.185,0,0,1,698.59,525.115Zm-88.469-.174a.186.186,0,0,1-.1-.029q-.319-.2-.633-.4a.187.187,0,1,1,.2-.315q.313.2.63.4a.187.187,0,0,1-.1.346Zm-1.259-.811a.185.185,0,0,1-.1-.031q-.315-.207-.625-.415a.187.187,0,1,1,.208-.311q.309.207.622.413a.187.187,0,0,1-.1.344Zm88.972-.307a.187.187,0,0,1-.158-.087c-.13-.205-.267-.414-.408-.621a.187.187,0,0,1,.31-.211c.143.21.282.422.414.631a.187.187,0,0,1-.158.287Zm-90.216-.527a.186.186,0,0,1-.106-.033q-.311-.213-.617-.427a.187.187,0,1,1,.215-.307q.3.213.614.425a.187.187,0,0,1-.106.342Zm89.375-.711a.187.187,0,0,1-.152-.077c-.143-.2-.292-.4-.444-.6a.187.187,0,1,1,.3-.228c.154.2.306.4.451.6a.187.187,0,0,1-.151.3Zm-90.6-.147a.186.186,0,0,1-.109-.035q-.307-.22-.609-.44a.187.187,0,0,1,.221-.3q.3.219.605.437a.187.187,0,0,1-.109.34Zm-1.209-.884a.187.187,0,0,1-.112-.037q-.3-.226-.6-.453a.187.187,0,0,1,.228-.3q.295.225.6.451a.187.187,0,0,1-.112.337Zm90.9-.158a.187.187,0,0,1-.146-.069c-.153-.19-.313-.382-.475-.573a.187.187,0,1,1,.285-.242c.164.193.325.388.481.58a.187.187,0,0,1-.146.3Zm-92.09-.753a.186.186,0,0,1-.115-.04q-.3-.234-.588-.467a.187.187,0,1,1,.235-.292q.289.233.585.464a.187.187,0,0,1-.116.335Zm91.121-.389a.186.186,0,0,1-.14-.063c-.162-.183-.331-.369-.5-.552a.187.187,0,0,1,.275-.254c.171.185.341.373.506.558a.187.187,0,0,1-.14.312Zm-92.288-.55a.186.186,0,0,1-.119-.043c-.195-.161-.388-.323-.576-.483a.187.187,0,1,1,.242-.285c.186.158.379.32.572.479a.187.187,0,0,1-.119.331Zm91.27-.549a.187.187,0,0,1-.135-.057c-.17-.176-.346-.356-.522-.532a.187.187,0,0,1,.265-.265c.178.178.355.359.527.537a.187.187,0,0,1-.135.317Zm-92.412-.421a.186.186,0,0,1-.123-.046c-.189-.165-.378-.333-.562-.5a.187.187,0,0,1,.251-.278c.183.164.37.331.558.5a.187.187,0,0,1-.123.328Zm91.354-.639a.187.187,0,0,1-.13-.053c-.176-.171-.358-.343-.541-.514a.187.187,0,0,1,.256-.273c.184.172.367.346.545.518a.187.187,0,0,1-.13.322Zm-92.467-.363a.187.187,0,0,1-.127-.05c-.185-.172-.369-.345-.547-.516a.187.187,0,0,1,.259-.27c.177.17.359.342.542.512a.187.187,0,0,1-.127.324Zm91.373-.66a.187.187,0,0,1-.126-.048c-.182-.165-.37-.332-.557-.5a.187.187,0,1,1,.247-.281c.188.166.377.334.561.5a.187.187,0,0,1-.126.326Zm-92.453-.377a.187.187,0,0,1-.132-.054c-.179-.178-.357-.358-.529-.535a.187.187,0,1,1,.269-.261c.171.176.347.354.524.53a.187.187,0,0,1-.132.32Zm-1.043-1.075a.187.187,0,0,1-.137-.059c-.172-.184-.342-.371-.508-.555a.187.187,0,1,1,.279-.25c.164.183.333.368.5.55a.187.187,0,0,1-.137.315Zm-1-1.115a.186.186,0,0,1-.142-.066c-.164-.192-.327-.386-.483-.577a.187.187,0,0,1,.29-.237c.154.189.315.381.478.571a.187.187,0,0,1-.142.309Zm-.947-1.16a.187.187,0,0,1-.148-.072c-.155-.2-.308-.4-.454-.6a.187.187,0,0,1,.3-.221c.144.2.295.4.448.594a.187.187,0,0,1-.148.3Zm-.885-1.207a.187.187,0,0,1-.154-.081c-.144-.209-.285-.42-.418-.628a.187.187,0,1,1,.315-.2c.132.2.27.412.412.618a.187.187,0,0,1-.154.294Zm-.81-1.259a.187.187,0,0,1-.161-.091c-.13-.218-.256-.439-.375-.656a.187.187,0,0,1,.328-.18c.116.213.24.429.368.644a.187.187,0,0,1-.161.283Zm-.717-1.313a.187.187,0,0,1-.168-.1c-.113-.228-.221-.459-.32-.685a.187.187,0,1,1,.343-.151c.1.221.2.447.313.67a.187.187,0,0,1-.168.27Zm-.6-1.369a.187.187,0,0,1-.175-.12c-.091-.238-.176-.479-.252-.715a.187.187,0,0,1,.356-.115c.074.23.157.464.245.7a.187.187,0,0,1-.175.254Zm-.458-1.423a.187.187,0,0,1-.181-.14c-.064-.247-.12-.5-.167-.741a.187.187,0,1,1,.368-.07c.045.236.1.478.161.717a.188.188,0,0,1-.181.234Zm-.279-1.467a.187.187,0,0,1-.186-.165c-.03-.254-.051-.51-.062-.759a.187.187,0,1,1,.374-.016c.01.24.031.486.06.731a.187.187,0,0,1-.164.208Zm-.064-1.494h-.007a.187.187,0,0,1-.18-.194c.009-.255.03-.512.06-.762a.187.187,0,1,1,.372.045c-.029.24-.049.486-.058.73A.187.187,0,0,1,592.689,503.812Zm.182-1.485a.188.188,0,0,1-.183-.226c.049-.229.107-.459.174-.684l.017-.057a.187.187,0,0,1,.358.109l-.016.055c-.064.215-.12.435-.167.654A.187.187,0,0,1,592.87,502.328Zm.437-1.43a.187.187,0,0,1-.174-.258c.095-.234.2-.468.317-.694a.187.187,0,1,1,.334.17c-.111.217-.213.441-.3.665A.187.187,0,0,1,593.307,500.9Zm.678-1.331a.187.187,0,0,1-.159-.286c.132-.213.276-.426.428-.631a.187.187,0,0,1,.3.222c-.146.2-.284.4-.411.607A.187.187,0,0,1,593.985,499.567Zm.886-1.2a.187.187,0,0,1-.142-.309c.163-.189.336-.377.516-.56a.187.187,0,0,1,.266.263c-.174.176-.342.358-.5.541A.187.187,0,0,1,594.871,498.363Zm1.05-1.065a.187.187,0,0,1-.125-.327c.185-.165.381-.329.581-.488a.187.187,0,0,1,.233.293c-.2.155-.385.314-.565.474A.186.186,0,0,1,595.921,497.3Zm1.172-.93a.187.187,0,0,1-.109-.34c.2-.143.413-.286.628-.423a.187.187,0,0,1,.2.315c-.21.134-.417.274-.613.413A.186.186,0,0,1,597.093,496.367Zm1.26-.807a.187.187,0,0,1-.094-.349c.214-.124.436-.247.662-.365a.187.187,0,1,1,.174.331c-.221.117-.439.237-.649.358A.186.186,0,0,1,598.353,495.56Zm1.324-.7a.187.187,0,0,1-.081-.356c.223-.107.453-.213.686-.315a.187.187,0,0,1,.15.343c-.229.1-.456.2-.675.31A.186.186,0,0,1,599.678,494.862Zm1.37-.6a.187.187,0,0,1-.07-.361c.23-.092.467-.184.7-.271a.187.187,0,1,1,.13.351c-.234.086-.467.176-.694.267A.187.187,0,0,1,601.048,494.26Zm1.4-.519a.187.187,0,0,1-.06-.365c.234-.079.475-.158.716-.233a.187.187,0,1,1,.111.357c-.239.074-.477.152-.708.23A.187.187,0,0,1,602.453,493.741Zm1.43-.446a.187.187,0,0,1-.052-.367c.238-.068.482-.135.726-.2a.187.187,0,1,1,.1.362c-.241.063-.483.13-.718.2A.186.186,0,0,1,603.882,493.295Zm1.448-.381a.187.187,0,0,1-.044-.369c.241-.058.488-.115.733-.169a.187.187,0,0,1,.081.366c-.243.054-.487.11-.726.168A.185.185,0,0,1,605.33,492.914Zm1.462-.323a.187.187,0,0,1-.037-.371c.243-.049.491-.1.738-.143a.187.187,0,1,1,.068.368c-.245.045-.492.093-.732.141A.187.187,0,0,1,606.792,492.591Zm1.473-.272a.187.187,0,0,1-.031-.372c.243-.041.493-.081.742-.119a.187.187,0,1,1,.056.37c-.248.038-.5.077-.737.118Z" transform="translate(-592.501 -474.314)"/><path class="d" d="M777.722,370.622h0c-.254,0-.508-.014-.756-.029a.187.187,0,1,1,.022-.374c.243.014.492.024.74.028a.187.187,0,0,1,0,.374Zm.749,0a.187.187,0,0,1,0-.374c.243-.006.492-.017.741-.032a.187.187,0,0,1,.023.374c-.254.016-.508.027-.755.033Zm-2.243-.088h-.02c-.253-.027-.506-.061-.752-.1a.187.187,0,1,1,.059-.37c.239.038.486.071.733.1a.187.187,0,0,1-.02.373Zm3.737-.005a.187.187,0,0,1-.018-.374c.242-.024.49-.052.737-.085a.187.187,0,0,1,.049.371c-.252.033-.5.062-.75.086Zm1.484-.194a.187.187,0,0,1-.03-.372c.24-.039.486-.083.732-.13a.187.187,0,1,1,.071.368c-.249.048-.5.092-.742.132Zm-6.7-.036a.189.189,0,0,1-.04,0c-.249-.053-.5-.114-.738-.181a.187.187,0,1,1,.1-.361c.234.064.475.123.717.175a.187.187,0,0,1-.039.37Zm8.169-.246a.187.187,0,0,1-.04-.37c.239-.053.482-.11.724-.169a.187.187,0,1,1,.09.363c-.245.061-.492.118-.734.172A.189.189,0,0,1,782.919,370.05Zm-9.612-.153a.185.185,0,0,1-.061-.01c-.241-.083-.48-.173-.712-.269a.187.187,0,0,1,.144-.346c.224.093.456.181.689.261a.187.187,0,0,1-.061.364Zm11.066-.207a.187.187,0,0,1-.049-.368c.235-.064.476-.133.716-.2a.187.187,0,0,1,.107.359c-.242.072-.486.142-.724.207A.189.189,0,0,1,784.373,369.69Zm-12.448-.369a.186.186,0,0,1-.083-.02c-.227-.113-.453-.235-.67-.362a.187.187,0,1,1,.189-.323c.21.123.427.241.647.35a.187.187,0,0,1-.084.355Zm13.883-.057a.187.187,0,0,1-.057-.365c.233-.075.471-.154.707-.235a.187.187,0,0,1,.122.354c-.238.082-.478.161-.714.237A.185.185,0,0,1,785.808,369.264Zm1.417-.486a.187.187,0,0,1-.064-.363c.231-.084.465-.172.7-.262a.187.187,0,1,1,.135.349c-.234.09-.471.179-.7.264A.186.186,0,0,1,787.225,368.778Zm-16.59-.214a.186.186,0,0,1-.106-.033c-.208-.143-.414-.3-.613-.453a.187.187,0,0,1,.233-.293c.191.152.39.3.591.437a.187.187,0,0,1-.106.342Zm17.988-.324a.187.187,0,0,1-.07-.361c.227-.092.459-.189.689-.286a.187.187,0,1,1,.146.345c-.231.1-.465.2-.694.288A.186.186,0,0,1,788.622,368.239Zm1.378-.586a.187.187,0,0,1-.076-.358c.224-.1.453-.2.68-.308a.187.187,0,1,1,.157.34c-.228.105-.458.21-.685.31A.187.187,0,0,1,790,367.654Zm-20.537-.022a.186.186,0,0,1-.127-.049c-.186-.171-.368-.351-.542-.535a.187.187,0,1,1,.272-.257c.168.178.344.351.523.516a.187.187,0,0,1-.127.325Zm21.9-.607a.187.187,0,0,1-.081-.356c.223-.107.449-.217.67-.328a.187.187,0,0,1,.167.335c-.223.111-.45.222-.675.33A.186.186,0,0,1,791.36,367.025Zm-22.923-.48a.187.187,0,0,1-.145-.068c-.159-.194-.315-.4-.463-.6a.187.187,0,0,1,.3-.218c.143.2.293.4.447.584a.187.187,0,0,1-.145.306Zm24.264-.187a.187.187,0,0,1-.086-.354q.33-.17.661-.346a.187.187,0,1,1,.176.331q-.334.177-.666.348A.187.187,0,0,1,792.7,366.358Zm1.323-.7a.187.187,0,0,1-.09-.351q.326-.178.653-.362a.187.187,0,1,1,.184.326q-.329.185-.657.365A.187.187,0,0,1,794.024,365.656Zm-26.457-.328a.187.187,0,0,1-.159-.089c-.132-.212-.26-.434-.38-.658a.187.187,0,0,1,.33-.177c.117.217.241.432.369.638a.187.187,0,0,1-.159.286Zm27.762-.406a.187.187,0,0,1-.094-.349q.322-.186.644-.378a.187.187,0,0,1,.191.322q-.324.193-.648.38A.186.186,0,0,1,795.329,364.921Zm1.288-.765a.187.187,0,0,1-.1-.347q.317-.193.636-.392a.187.187,0,0,1,.2.318q-.32.2-.639.394A.186.186,0,0,1,796.617,364.157Zm-29.759-.146a.187.187,0,0,1-.17-.108c-.105-.226-.206-.461-.3-.7a.187.187,0,0,1,.348-.139c.092.23.19.458.293.678a.187.187,0,0,1-.17.266Zm31.03-.646a.187.187,0,0,1-.1-.345q.313-.2.628-.405a.187.187,0,1,1,.2.314q-.316.206-.631.407A.186.186,0,0,1,797.888,363.364Zm-31.587-.743a.187.187,0,0,1-.177-.127c-.081-.236-.157-.479-.228-.722a.187.187,0,1,1,.36-.1c.069.238.144.475.222.705a.187.187,0,0,1-.177.248Zm32.841-.076a.187.187,0,0,1-.1-.343q.309-.206.62-.418a.187.187,0,0,1,.211.31q-.312.212-.623.419A.186.186,0,0,1,799.142,362.546Zm1.238-.843a.187.187,0,0,1-.107-.341q.306-.212.612-.429a.187.187,0,1,1,.216.305q-.307.218-.614.431A.186.186,0,0,1,800.38,361.7Zm-34.5-.519a.187.187,0,0,1-.182-.143c-.058-.241-.113-.489-.162-.739a.187.187,0,1,1,.367-.073c.049.244.1.488.159.724a.187.187,0,0,1-.138.226A.19.19,0,0,1,765.884,361.184Zm35.718-.346a.187.187,0,0,1-.11-.339q.3-.218.6-.44a.187.187,0,1,1,.222.3q-.3.223-.607.442A.186.186,0,0,1,801.6,360.837Zm1.207-.887a.187.187,0,0,1-.112-.337q.3-.223.6-.451a.187.187,0,0,1,.227.3q-.3.228-.6.452A.187.187,0,0,1,802.809,359.95Zm-37.217-.235a.187.187,0,0,1-.185-.158c-.039-.245-.074-.5-.1-.748a.187.187,0,0,1,.372-.045c.03.247.065.495.1.735a.187.187,0,0,1-.156.214ZM804,359.042a.187.187,0,0,1-.115-.335q.294-.228.589-.46a.187.187,0,0,1,.232.294q-.3.233-.591.462A.186.186,0,0,1,804,359.042Zm-38.59-.813a.187.187,0,0,1-.186-.171c-.022-.247-.04-.5-.054-.753a.187.187,0,1,1,.374-.021c.014.249.032.5.054.741a.187.187,0,0,1-.17.2Zm39.766-.114a.187.187,0,0,1-.117-.333q.291-.233.581-.47a.187.187,0,0,1,.236.29q-.292.238-.584.472A.186.186,0,0,1,805.176,358.115Zm1.161-.946a.187.187,0,0,1-.119-.331q.287-.237.574-.479a.187.187,0,1,1,.241.287q-.288.242-.576.48A.187.187,0,0,1,806.338,357.169Zm-41.013-.435a.187.187,0,0,1-.187-.182c-.007-.248-.01-.5-.01-.754a.187.187,0,0,1,.374,0c0,.249,0,.5.01.744a.187.187,0,0,1-.182.192Zm42.16-.529a.187.187,0,0,1-.122-.33q.283-.242.567-.487a.187.187,0,1,1,.245.283q-.285.246-.569.489A.187.187,0,0,1,807.484,356.206Zm-42.16-.969h0a.187.187,0,0,1-.182-.192c.006-.248.016-.5.028-.753a.187.187,0,1,1,.374.019c-.012.248-.022.5-.028.744A.187.187,0,0,1,765.324,355.237Zm43.293-.012a.187.187,0,0,1-.124-.328q.28-.246.56-.5a.187.187,0,0,1,.249.28q-.281.25-.562.5A.186.186,0,0,1,808.617,355.225Zm1.118-1a.187.187,0,0,1-.126-.326q.276-.25.553-.5a.187.187,0,0,1,.253.276q-.277.254-.555.505A.187.187,0,0,1,809.735,354.229Zm1.1-1.012a.187.187,0,0,1-.128-.324q.273-.254.546-.511a.187.187,0,1,1,.257.272q-.274.258-.547.513A.187.187,0,0,1,810.838,353.216Zm1.09-1.027a.187.187,0,0,1-.129-.323q.27-.258.539-.518a.187.187,0,0,1,.261.269q-.27.262-.541.52A.187.187,0,0,1,811.928,352.189ZM813,351.147a.187.187,0,0,1-.131-.321q.266-.261.532-.526a.187.187,0,0,1,.264.265q-.267.265-.534.527A.186.186,0,0,1,813,351.147Zm1.062-1.056a.187.187,0,0,1-.133-.319q.263-.265.525-.532a.187.187,0,0,1,.267.262q-.263.269-.527.534A.187.187,0,0,1,814.066,350.091Zm1.048-1.07a.187.187,0,0,1-.135-.317q.259-.268.518-.539a.187.187,0,0,1,.271.259q-.26.272-.52.541A.187.187,0,0,1,815.114,349.021Zm1.034-1.083a.187.187,0,0,1-.136-.316q.256-.271.511-.546a.187.187,0,1,1,.274.255q-.256.275-.513.547A.187.187,0,0,1,816.148,347.938Zm1.021-1.1a.187.187,0,0,1-.138-.314q.253-.275.5-.552a.187.187,0,0,1,.277.252q-.253.278-.506.554A.187.187,0,0,1,817.169,346.842Zm1.007-1.109a.187.187,0,0,1-.139-.312q.249-.278.5-.558a.187.187,0,0,1,.28.248q-.249.281-.5.56A.187.187,0,0,1,818.176,345.733Zm.993-1.121a.187.187,0,0,1-.141-.311q.246-.281.491-.564a.187.187,0,1,1,.283.245q-.246.284-.492.566A.187.187,0,0,1,819.169,344.612Zm.98-1.133a.187.187,0,0,1-.142-.309q.242-.284.484-.57a.187.187,0,0,1,.286.241q-.242.287-.485.572A.187.187,0,0,1,820.149,343.479Zm.966-1.145a.187.187,0,0,1-.144-.307q.239-.287.477-.576a.187.187,0,1,1,.289.238q-.239.29-.478.577A.187.187,0,0,1,821.115,342.334Zm.952-1.156a.187.187,0,0,1-.145-.305l.284-.351.186-.231a.187.187,0,1,1,.292.235l-.186.231-.285.352A.187.187,0,0,1,822.067,341.178Zm.938-1.167a.187.187,0,0,1-.146-.3q.232-.293.462-.586a.187.187,0,1,1,.294.231q-.231.294-.464.587A.187.187,0,0,1,823,340.012Zm.923-1.177a.187.187,0,0,1-.148-.3q.229-.3.456-.592a.187.187,0,1,1,.3.228q-.227.3-.458.594A.187.187,0,0,1,823.928,338.834Zm.91-1.189a.187.187,0,0,1-.149-.3q.226-.3.449-.6a.187.187,0,0,1,.3.224q-.224.3-.45.6A.187.187,0,0,1,824.838,337.645Zm.9-1.2a.187.187,0,0,1-.151-.3q.222-.3.442-.6a.187.187,0,0,1,.3.22q-.22.3-.443.605A.187.187,0,0,1,825.734,336.445Zm.881-1.211a.187.187,0,0,1-.152-.3q.219-.3.434-.609a.187.187,0,0,1,.305.217q-.216.305-.436.611A.187.187,0,0,1,826.615,335.234Zm.866-1.222a.187.187,0,0,1-.153-.295q.215-.307.427-.614a.187.187,0,1,1,.308.213q-.213.308-.428.616A.187.187,0,0,1,827.481,334.012Zm.851-1.232a.187.187,0,0,1-.155-.293q.211-.31.419-.619a.187.187,0,0,1,.311.209q-.209.311-.42.621A.187.187,0,0,1,828.332,332.779Zm.835-1.243a.187.187,0,0,1-.156-.291q.207-.312.411-.625a.187.187,0,0,1,.313.2q-.2.313-.412.627A.187.187,0,0,1,829.167,331.536Zm.819-1.254a.187.187,0,0,1-.157-.289q.2-.315.4-.63a.187.187,0,1,1,.316.2q-.2.316-.4.632A.187.187,0,0,1,829.986,330.282Zm.8-1.265a.187.187,0,0,1-.159-.286q.2-.318.394-.635a.187.187,0,0,1,.319.2q-.2.319-.4.637A.187.187,0,0,1,830.789,329.018Zm.786-1.275a.187.187,0,0,1-.16-.284q.195-.32.386-.64a.187.187,0,1,1,.321.192q-.192.321-.387.643A.187.187,0,0,1,831.575,327.743Zm.768-1.286a.187.187,0,0,1-.161-.282q.19-.323.377-.646a.187.187,0,0,1,.324.188q-.187.324-.378.648A.187.187,0,0,1,832.343,326.457Zm.75-1.3a.187.187,0,0,1-.162-.28q.186-.326.368-.651a.187.187,0,0,1,.327.183q-.183.326-.369.653A.187.187,0,0,1,833.093,325.161Zm.732-1.307a.187.187,0,0,1-.164-.278q.181-.328.358-.656a.187.187,0,1,1,.329.178q-.178.329-.359.658A.187.187,0,0,1,833.825,323.854Zm.713-1.317a.187.187,0,0,1-.165-.275q.176-.331.348-.661a.187.187,0,0,1,.332.173q-.173.331-.35.664A.187.187,0,0,1,834.538,322.537Zm.693-1.328a.187.187,0,0,1-.167-.273q.171-.334.338-.667a.187.187,0,0,1,.335.168q-.168.334-.339.669A.187.187,0,0,1,835.23,321.209Zm.672-1.339a.187.187,0,0,1-.168-.27q.166-.336.327-.672a.187.187,0,0,1,.337.163q-.162.337-.329.675A.187.187,0,0,1,835.9,319.87Zm.65-1.349a.187.187,0,0,1-.169-.267q.16-.339.316-.677a.187.187,0,0,1,.34.157q-.157.339-.318.68A.187.187,0,0,1,836.553,318.521Zm.628-1.36a.187.187,0,0,1-.17-.264q.154-.342.3-.682a.187.187,0,1,1,.343.151q-.151.342-.306.685A.187.187,0,0,1,837.181,317.161Zm.6-1.37a.187.187,0,0,1-.172-.261q.148-.345.292-.688a.187.187,0,1,1,.345.145q-.145.345-.294.691A.187.187,0,0,1,837.785,315.791Zm.579-1.381a.185.185,0,0,1-.071-.014.187.187,0,0,1-.1-.244q.142-.347.279-.693a.187.187,0,1,1,.348.138q-.138.347-.28.7A.187.187,0,0,1,838.364,314.41Zm.553-1.392a.187.187,0,0,1-.175-.255q.135-.35.266-.7a.187.187,0,1,1,.351.131q-.131.35-.267.7A.187.187,0,0,1,838.917,313.018Zm.525-1.4a.187.187,0,0,1-.176-.251q.128-.353.251-.7a.187.187,0,0,1,.353.124q-.124.352-.252.707A.187.187,0,0,1,839.442,311.615Zm.5-1.413a.187.187,0,0,1-.177-.247q.12-.355.235-.709a.187.187,0,0,1,.356.116q-.116.355-.237.713A.187.187,0,0,1,839.938,310.2Zm.464-1.424a.187.187,0,0,1-.179-.243q.112-.358.219-.714a.187.187,0,1,1,.359.108q-.107.358-.22.718A.187.187,0,0,1,840.4,308.778Zm.43-1.435a.188.188,0,0,1-.18-.239q.1-.361.2-.719a.187.187,0,0,1,.361.1q-.1.36-.2.724A.187.187,0,0,1,840.832,307.343Zm.394-1.445a.187.187,0,0,1-.181-.234c.062-.242.124-.486.182-.724a.187.187,0,0,1,.364.089c-.058.24-.12.485-.183.729A.188.188,0,0,1,841.226,305.9Zm.354-1.455a.187.187,0,0,1-.183-.229c.055-.242.109-.487.161-.728a.187.187,0,1,1,.366.078c-.052.244-.106.491-.162.734A.187.187,0,0,1,841.58,304.443Zm.311-1.465a.179.179,0,0,1-.036,0,.187.187,0,0,1-.148-.22c.048-.245.094-.492.137-.733a.187.187,0,1,1,.369.066c-.043.243-.09.492-.138.739A.187.187,0,0,1,841.891,302.978Zm.263-1.474-.03,0a.187.187,0,0,1-.155-.215c.04-.246.077-.494.112-.737a.187.187,0,1,1,.371.053c-.035.245-.073.5-.113.744A.187.187,0,0,1,842.154,301.5Zm.211-1.483h-.023a.187.187,0,0,1-.163-.209c.03-.247.059-.5.084-.74a.187.187,0,1,1,.372.038c-.025.246-.054.5-.085.748A.187.187,0,0,1,842.366,300.021Zm.153-1.49H842.5a.187.187,0,0,1-.171-.2c.02-.248.038-.5.053-.743a.187.187,0,1,1,.374.022c-.015.248-.033.5-.053.751A.187.187,0,0,1,842.519,298.532Zm.089-1.495H842.6a.187.187,0,0,1-.18-.194c.009-.249.015-.5.017-.744a.187.187,0,1,1,.374,0c0,.248-.009.5-.018.753A.187.187,0,0,1,842.607,297.037Zm.015-1.5a.187.187,0,0,1-.187-.184c0-.25-.011-.5-.022-.743a.187.187,0,0,1,.374-.017c.011.247.019.5.023.754a.187.187,0,0,1-.184.19Zm-.067-1.5a.187.187,0,0,1-.187-.173c-.019-.249-.041-.5-.067-.74a.187.187,0,1,1,.372-.04c.026.246.049.5.068.752a.187.187,0,0,1-.173.2Zm-.161-1.489a.187.187,0,0,1-.185-.161c-.035-.247-.075-.493-.119-.732a.187.187,0,1,1,.368-.067c.044.243.085.494.121.746a.187.187,0,0,1-.159.212Zm-.268-1.473a.187.187,0,0,1-.182-.146c-.054-.243-.114-.485-.177-.719a.187.187,0,1,1,.362-.1c.064.239.125.487.18.735a.187.187,0,0,1-.183.228Zm-.389-1.445a.187.187,0,0,1-.178-.13c-.075-.236-.157-.471-.242-.7a.187.187,0,0,1,.351-.131c.087.233.171.474.248.716a.187.187,0,0,1-.121.235A.189.189,0,0,1,841.738,289.637Zm-.526-1.4a.187.187,0,0,1-.172-.112c-.1-.227-.2-.451-.314-.668a.187.187,0,1,1,.334-.169c.113.223.221.454.323.687a.187.187,0,0,1-.171.262Zm-.676-1.335a.187.187,0,0,1-.162-.093c-.125-.213-.256-.423-.392-.624a.187.187,0,0,1,.311-.209c.14.208.276.424.4.644a.187.187,0,0,1-.161.282Zm-.836-1.241a.187.187,0,0,1-.148-.073c-.15-.194-.308-.384-.47-.566a.187.187,0,1,1,.28-.249c.167.188.331.385.486.586a.187.187,0,0,1-.148.3Zm-1-1.117a.187.187,0,0,1-.131-.053c-.175-.17-.358-.337-.544-.494a.187.187,0,1,1,.242-.286c.193.163.383.336.564.512a.187.187,0,0,1-.131.321Zm-20.478-.363a.187.187,0,0,1-.075-.359c.231-.1.464-.2.691-.3a.187.187,0,1,1,.144.346c-.226.094-.457.193-.686.293A.186.186,0,0,1,818.226,284.18Zm1.382-.576a.187.187,0,0,1-.069-.361c.234-.093.47-.184.7-.272a.187.187,0,1,1,.132.35c-.229.086-.463.177-.7.269A.187.187,0,0,1,819.609,283.6Zm17.953-.027a.186.186,0,0,1-.11-.036c-.2-.144-.4-.282-.609-.412a.187.187,0,0,1,.2-.317c.215.134.427.278.631.427a.187.187,0,0,1-.111.338Zm-16.552-.5a.187.187,0,0,1-.063-.364c.237-.084.476-.167.711-.245a.187.187,0,1,1,.119.355c-.233.078-.47.159-.7.243A.188.188,0,0,1,821.01,283.076Zm15.285-.293a.186.186,0,0,1-.088-.022c-.215-.114-.437-.223-.661-.324a.187.187,0,0,1,.154-.342c.232.1.462.217.684.335a.187.187,0,0,1-.088.352ZM822.43,282.6a.187.187,0,0,1-.056-.366c.241-.075.483-.147.721-.216a.187.187,0,0,1,.1.36c-.235.068-.476.139-.714.213A.19.19,0,0,1,822.43,282.6Zm1.439-.413a.187.187,0,0,1-.047-.368c.244-.064.49-.126.731-.182a.187.187,0,0,1,.086.364c-.238.056-.481.117-.722.18A.185.185,0,0,1,823.87,282.189Zm11.06-.02a.186.186,0,0,1-.065-.012c-.227-.085-.462-.164-.7-.236a.187.187,0,1,1,.109-.358c.244.074.487.156.721.243a.187.187,0,0,1-.065.363Zm-9.6-.324a.187.187,0,0,1-.038-.371c.247-.052.5-.1.74-.144a.187.187,0,0,1,.066.368c-.241.043-.486.091-.73.142A.189.189,0,0,1,825.327,281.845Zm8.17-.111a.188.188,0,0,1-.044-.005c-.236-.056-.479-.108-.722-.152a.187.187,0,0,1,.067-.368c.25.045.5.1.743.156a.187.187,0,0,1-.043.369Zm-6.7-.154a.187.187,0,0,1-.028-.372c.25-.038.5-.071.748-.1a.187.187,0,0,1,.044.372c-.242.028-.49.062-.736.1Zm5.224-.114H832c-.241-.031-.488-.057-.736-.076a.187.187,0,0,1,.03-.373c.253.02.507.046.754.078a.187.187,0,0,1-.024.373Zm-3.737-.06a.187.187,0,0,1-.015-.374c.253-.021.507-.038.754-.049a.187.187,0,1,1,.018.374c-.243.011-.492.028-.74.048Zm2.245-.059h-.006c-.243-.008-.492-.012-.741-.01h0a.187.187,0,0,1,0-.374c.255,0,.509,0,.756.01a.187.187,0,0,1-.006.374Z" transform="translate(-752.201 -279.238)"/><path class="d" d="M851.344,349.251h0c-.248-.006-.5-.018-.757-.037a.187.187,0,0,1,.027-.373c.248.018.5.03.738.036a.187.187,0,0,1,0,.374Zm.749,0a.187.187,0,0,1-.005-.374c.248-.007.5-.022.737-.043a.187.187,0,0,1,.032.373c-.248.022-.5.036-.758.044Zm-2.241-.106h-.022c-.246-.029-.5-.064-.749-.1a.187.187,0,1,1,.059-.37c.246.039.493.074.734.1a.187.187,0,0,1-.022.373Zm3.732-.025a.187.187,0,0,1-.028-.372c.245-.037.488-.082.724-.133a.187.187,0,0,1,.08.366c-.244.054-.5.1-.749.138Zm-5.209-.211a.189.189,0,0,1-.037,0c-.243-.049-.491-.1-.738-.161a.187.187,0,1,1,.086-.364c.243.057.486.111.725.158a.187.187,0,0,1-.037.371Zm6.671-.11a.187.187,0,0,1-.053-.367c.236-.07.47-.148.7-.234a.187.187,0,0,1,.133.35c-.235.089-.478.171-.723.243A.188.188,0,0,1,855.046,348.8Zm-8.128-.234a.188.188,0,0,1-.049-.007c-.239-.065-.483-.135-.725-.209a.187.187,0,0,1,.109-.358c.238.072.478.142.714.206a.187.187,0,0,1-.049.368Zm9.527-.3a.187.187,0,0,1-.08-.357c.221-.1.44-.218.65-.339a.187.187,0,0,1,.186.325c-.219.126-.447.245-.677.353A.187.187,0,0,1,856.444,348.265Zm-10.959-.138a.186.186,0,0,1-.06-.01c-.235-.079-.474-.163-.711-.249a.187.187,0,1,1,.128-.352c.234.085.47.168.7.246a.187.187,0,0,1-.06.365Zm-1.407-.513a.186.186,0,0,1-.068-.013c-.23-.09-.464-.186-.7-.284a.187.187,0,0,1,.145-.345c.231.1.463.191.69.28a.187.187,0,0,1-.068.362Zm13.663-.094a.187.187,0,0,1-.106-.342c.2-.138.4-.286.587-.439a.187.187,0,0,1,.236.29c-.2.16-.4.314-.611.457A.186.186,0,0,1,857.742,347.521Zm-15.044-.486a.187.187,0,0,1-.076-.016c-.225-.1-.456-.206-.684-.313a.187.187,0,1,1,.159-.339c.227.107.454.211.677.31a.187.187,0,0,1-.076.358Zm16.2-.457a.187.187,0,0,1-.129-.323c.175-.167.347-.345.51-.527a.187.187,0,1,1,.279.25c-.17.19-.348.374-.53.548A.187.187,0,0,1,858.9,346.578Zm-17.559-.18a.186.186,0,0,1-.083-.019c-.221-.109-.447-.223-.671-.339a.187.187,0,1,1,.172-.333c.222.115.446.228.665.336a.187.187,0,0,1-.083.355Zm-1.33-.688a.187.187,0,0,1-.089-.022c-.218-.118-.44-.24-.659-.362a.187.187,0,0,1,.183-.327c.217.122.437.243.653.359a.187.187,0,0,1-.089.352Zm19.888-.246a.187.187,0,0,1-.148-.3c.147-.191.291-.393.427-.6a.187.187,0,1,1,.312.207c-.141.213-.29.422-.443.62A.187.187,0,0,1,859.9,345.464Zm-21.194-.486a.186.186,0,0,1-.094-.025c-.214-.124-.432-.253-.647-.383a.187.187,0,1,1,.193-.321c.214.128.43.256.642.38a.187.187,0,0,1-.094.349Zm22.021-.761a.187.187,0,0,1-.162-.28c.12-.21.236-.429.345-.651a.187.187,0,1,1,.336.165c-.113.229-.233.455-.356.671A.187.187,0,0,1,860.727,344.217Zm-23.3-.012a.186.186,0,0,1-.1-.028c-.209-.13-.423-.265-.635-.4a.187.187,0,1,1,.2-.315c.211.135.423.269.631.4a.187.187,0,0,1-.1.346Zm-1.261-.808a.186.186,0,0,1-.1-.031q-.312-.206-.625-.418a.187.187,0,0,1,.21-.31q.311.211.621.415a.187.187,0,0,1-.1.343Zm25.227-.523a.187.187,0,0,1-.172-.26c.094-.223.185-.454.27-.688a.187.187,0,0,1,.352.128c-.087.24-.18.478-.277.706A.187.187,0,0,1,861.389,342.875Zm-26.467-.318a.186.186,0,0,1-.107-.034q-.306-.213-.614-.433a.187.187,0,0,1,.218-.3q.306.218.61.43a.187.187,0,0,1-.107.341Zm-1.219-.87a.186.186,0,0,1-.11-.036q-.3-.22-.6-.447a.187.187,0,1,1,.224-.3q.3.225.6.444a.187.187,0,0,1-.111.338Zm28.2-.219a.187.187,0,0,1-.179-.242c.071-.231.14-.471.2-.712a.187.187,0,0,1,.362.095c-.064.246-.134.492-.207.728A.187.187,0,0,1,861.9,341.468Zm-29.4-.679a.186.186,0,0,1-.114-.039q-.3-.227-.594-.459a.187.187,0,1,1,.23-.3q.3.231.591.457a.187.187,0,0,1-.114.336Zm29.775-.77a.187.187,0,0,1-.183-.227c.051-.237.1-.482.144-.728a.187.187,0,1,1,.369.066c-.045.251-.094.5-.147.741A.187.187,0,0,1,862.279,340.02Zm-30.955-.153a.186.186,0,0,1-.117-.041q-.292-.233-.584-.471a.187.187,0,0,1,.236-.29q.291.237.582.469a.187.187,0,0,1-.117.333Zm-1.161-.946a.186.186,0,0,1-.12-.043q-.287-.239-.575-.482a.187.187,0,0,1,.242-.286q.287.242.573.48a.187.187,0,0,1-.12.331Zm32.38-.375-.027,0a.187.187,0,0,1-.159-.212c.034-.241.066-.489.093-.737a.187.187,0,0,1,.372.041c-.028.252-.059.5-.094.749A.187.187,0,0,1,862.543,338.546Zm-33.524-.592a.186.186,0,0,1-.122-.045q-.283-.244-.566-.493a.187.187,0,0,1,.247-.281q.282.247.564.49a.187.187,0,0,1-.122.329Zm-1.126-.988a.187.187,0,0,1-.125-.048q-.279-.249-.558-.5a.187.187,0,1,1,.252-.277q.278.252.555.5a.187.187,0,0,1-.125.327Zm-1.109-1.007a.186.186,0,0,1-.127-.05q-.275-.254-.549-.511a.187.187,0,1,1,.256-.273q.274.257.547.509a.187.187,0,0,1-.127.325Zm-1.092-1.025a.186.186,0,0,1-.129-.052q-.271-.258-.541-.52a.187.187,0,0,1,.261-.269q.269.261.539.518a.187.187,0,0,1-.129.323Zm-1.076-1.042a.187.187,0,0,1-.131-.054q-.267-.262-.533-.528a.187.187,0,1,1,.265-.265q.265.265.531.526a.187.187,0,0,1-.131.321Zm-1.06-1.058a.187.187,0,0,1-.133-.056q-.263-.266-.525-.536a.187.187,0,0,1,.268-.261q.261.269.523.534a.187.187,0,0,1-.133.319Zm-1.044-1.074a.187.187,0,0,1-.135-.058q-.259-.27-.517-.544a.187.187,0,1,1,.272-.257q.258.273.515.542a.187.187,0,0,1-.135.317Zm-1.029-1.089a.186.186,0,0,1-.137-.06q-.255-.274-.509-.551a.187.187,0,1,1,.276-.253q.254.276.508.549a.187.187,0,0,1-.137.315Zm-1.013-1.1a.187.187,0,0,1-.139-.061q-.251-.277-.5-.558a.187.187,0,1,1,.279-.25q.25.279.5.556a.187.187,0,0,1-.139.313Zm-1-1.116a.187.187,0,0,1-.141-.063q-.248-.28-.494-.564a.187.187,0,1,1,.282-.246q.246.283.493.562a.187.187,0,0,1-.14.311Zm-.984-1.13a.187.187,0,0,1-.142-.065q-.244-.284-.487-.571a.187.187,0,1,1,.286-.242q.242.286.485.569a.187.187,0,0,1-.142.309Zm-.969-1.142a.187.187,0,0,1-.144-.067q-.24-.287-.48-.577a.187.187,0,0,1,.289-.239q.239.289.478.575a.187.187,0,0,1-.143.307Zm-.954-1.154a.187.187,0,0,1-.145-.069q-.237-.29-.472-.583a.187.187,0,0,1,.292-.235q.235.292.471.581a.187.187,0,0,1-.145.306Zm-.94-1.166a.186.186,0,0,1-.146-.071q-.233-.293-.465-.588a.187.187,0,0,1,.294-.231q.231.295.464.587a.187.187,0,0,1-.146.3Zm-.925-1.178a.187.187,0,0,1-.148-.072q-.229-.3-.458-.594a.187.187,0,1,1,.3-.228q.228.3.457.592a.187.187,0,0,1-.148.3Zm-.911-1.189a.187.187,0,0,1-.149-.074q-.226-.3-.451-.6a.187.187,0,1,1,.3-.224q.224.3.449.6a.187.187,0,0,1-.149.3Zm-.9-1.2a.187.187,0,0,1-.151-.076q-.222-.3-.444-.6a.187.187,0,0,1,.3-.221q.221.3.442.6a.187.187,0,0,1-.15.3Zm-.883-1.21a.187.187,0,0,1-.152-.078q-.219-.3-.437-.61a.187.187,0,0,1,.305-.217q.217.305.435.608a.187.187,0,0,1-.152.3Zm-.868-1.22a.187.187,0,0,1-.153-.08q-.215-.306-.429-.615a.187.187,0,1,1,.308-.214q.214.308.428.613a.187.187,0,0,1-.153.295Zm-.854-1.23a.187.187,0,0,1-.155-.081q-.191-.279-.382-.56l-.041-.06a.187.187,0,0,1,.31-.21l.04.06q.19.28.381.558a.187.187,0,0,1-.154.293Zm-.84-1.24a.187.187,0,0,1-.156-.083q-.208-.312-.414-.623a.187.187,0,1,1,.312-.206q.205.311.413.622a.187.187,0,0,1-.155.291Zm-.825-1.248a.187.187,0,0,1-.157-.085q-.205-.315-.408-.629a.187.187,0,0,1,.315-.2q.2.314.407.627a.187.187,0,0,1-.157.289Zm-.811-1.259a.187.187,0,0,1-.158-.087q-.2-.317-.4-.634a.187.187,0,1,1,.317-.2q.2.316.4.632a.187.187,0,0,1-.158.288Zm-.8-1.269a.187.187,0,0,1-.159-.089q-.2-.319-.393-.639a.187.187,0,0,1,.319-.2q.195.318.392.637a.187.187,0,0,1-.159.286Zm-.781-1.278a.187.187,0,0,1-.161-.091q-.194-.322-.385-.643a.187.187,0,0,1,.322-.191q.191.321.384.642a.187.187,0,0,1-.16.284Zm-.766-1.287a.187.187,0,0,1-.162-.092q-.19-.324-.378-.648a.187.187,0,1,1,.324-.188q.187.323.377.646a.187.187,0,0,1-.161.282Zm-.75-1.3a.187.187,0,0,1-.163-.094q-.186-.327-.37-.653a.187.187,0,0,1,.326-.184q.183.325.369.651a.187.187,0,0,1-.162.28Zm-.734-1.305a.187.187,0,0,1-.164-.1q-.182-.329-.362-.657a.187.187,0,0,1,.329-.179q.179.327.36.655a.187.187,0,0,1-.164.278Zm-.718-1.315a.187.187,0,0,1-.165-.1q-.178-.331-.353-.662a.187.187,0,1,1,.331-.175q.174.33.352.66a.187.187,0,0,1-.165.276Zm-.7-1.323a.187.187,0,0,1-.166-.1q-.174-.333-.345-.666a.187.187,0,0,1,.333-.171q.17.332.343.664a.187.187,0,0,1-.166.274Zm-.684-1.333a.187.187,0,0,1-.167-.1q-.169-.336-.336-.671a.187.187,0,1,1,.335-.167q.166.334.335.669a.187.187,0,0,1-.167.272Zm-.666-1.341a.187.187,0,0,1-.168-.105q-.165-.338-.327-.675a.187.187,0,1,1,.338-.162q.161.336.326.673a.187.187,0,0,1-.168.269Zm-.648-1.351a.187.187,0,0,1-.17-.107q-.16-.34-.317-.68a.187.187,0,1,1,.34-.157q.157.338.316.677a.187.187,0,0,1-.169.267Zm-.629-1.359a.187.187,0,0,1-.171-.11q-.156-.343-.308-.684a.187.187,0,1,1,.342-.152q.152.34.307.682a.187.187,0,0,1-.17.265Zm-.609-1.368a.187.187,0,0,1-.172-.112q-.151-.345-.3-.689a.187.187,0,0,1,.344-.147q.146.342.3.686a.187.187,0,0,1-.172.262Zm-.589-1.377a.187.187,0,0,1-.173-.115q-.145-.347-.287-.693a.187.187,0,1,1,.346-.142q.141.345.286.691a.187.187,0,0,1-.173.26Zm-.568-1.386a.187.187,0,0,1-.174-.118q-.14-.35-.276-.7a.187.187,0,1,1,.349-.136q.136.347.275.695a.187.187,0,0,1-.174.257Zm-.546-1.395a.187.187,0,0,1-.175-.12q-.135-.352-.265-.7a.187.187,0,1,1,.351-.131q.13.349.264.7a.187.187,0,0,1-.175.254Zm-.523-1.4a.187.187,0,0,1-.176-.123q-.129-.354-.253-.707a.187.187,0,0,1,.353-.125q.124.351.252.7a.187.187,0,0,1-.176.251Zm-.5-1.412a.187.187,0,0,1-.177-.126q-.122-.357-.24-.711a.187.187,0,1,1,.355-.118q.117.353.239.708a.187.187,0,0,1-.177.248Zm-.473-1.421a.187.187,0,0,1-.178-.13q-.116-.359-.227-.716a.187.187,0,1,1,.357-.111q.111.355.226.712a.187.187,0,0,1-.178.245Zm-.446-1.43a.187.187,0,0,1-.179-.133q-.109-.361-.213-.72a.187.187,0,0,1,.36-.1q.1.357.212.716a.187.187,0,0,1-.179.241Zm-.417-1.438a.187.187,0,0,1-.18-.137q-.1-.364-.2-.724a.187.187,0,1,1,.362-.1q.1.359.2.72a.187.187,0,0,1-.18.238Zm-.387-1.447a.187.187,0,0,1-.181-.141q-.093-.366-.182-.729a.187.187,0,0,1,.364-.089q.088.361.181.724a.187.187,0,0,1-.182.234Zm-.354-1.455a.187.187,0,0,1-.182-.145q-.085-.368-.164-.733a.187.187,0,1,1,.366-.08q.079.362.163.729a.187.187,0,0,1-.14.224A.19.19,0,0,1,794.53,282.895Zm-.319-1.463a.187.187,0,0,1-.183-.15c-.05-.247-.1-.495-.146-.737a.187.187,0,1,1,.368-.07c.046.241.094.487.145.732a.187.187,0,0,1-.146.221A.194.194,0,0,1,794.211,281.431Zm-.28-1.471a.187.187,0,0,1-.184-.155c-.044-.247-.086-.5-.125-.741a.187.187,0,0,1,.37-.06c.039.243.081.49.124.736a.187.187,0,0,1-.152.217Zm-.238-1.479a.187.187,0,0,1-.185-.16c-.036-.248-.071-.5-.1-.745a.187.187,0,1,1,.371-.048c.032.244.066.493.1.739a.187.187,0,0,1-.158.212ZM793.5,277a.187.187,0,0,1-.186-.166c-.028-.249-.054-.5-.078-.748a.187.187,0,1,1,.373-.035c.023.245.049.494.077.742a.187.187,0,0,1-.165.207Zm-.141-1.491a.187.187,0,0,1-.186-.173c-.019-.251-.036-.5-.05-.751a.187.187,0,1,1,.374-.021c.014.245.03.495.049.743a.187.187,0,0,1-.172.2Zm-.085-1.5a.187.187,0,0,1-.187-.18c-.009-.252-.016-.505-.019-.753a.187.187,0,0,1,.374-.005c0,.245.01.5.019.744a.187.187,0,0,1-.18.194Zm-.021-1.5h0a.187.187,0,0,1-.185-.189c0-.252.008-.505.016-.753a.187.187,0,1,1,.374.013c-.008.245-.014.495-.016.744A.187.187,0,0,1,793.254,272.513Zm.052-1.5h-.012a.187.187,0,0,1-.176-.2c.015-.253.034-.506.056-.752a.187.187,0,1,1,.373.033c-.022.242-.04.492-.056.741A.187.187,0,0,1,793.306,271.016Zm.134-1.491h-.023a.187.187,0,0,1-.163-.208c.03-.251.065-.5.1-.748a.187.187,0,1,1,.37.057c-.037.241-.071.488-.1.736A.187.187,0,0,1,793.44,269.525Zm.229-1.48a.185.185,0,0,1-.035,0,.187.187,0,0,1-.149-.219c.048-.25.1-.5.156-.74a.187.187,0,1,1,.365.085c-.055.237-.106.481-.153.725A.187.187,0,0,1,793.669,268.045Zm.339-1.458a.187.187,0,0,1-.181-.237c.068-.246.141-.49.218-.725a.187.187,0,0,1,.356.116c-.075.23-.147.468-.213.709A.187.187,0,0,1,794.007,266.587Zm.465-1.423a.187.187,0,0,1-.175-.254c.091-.238.189-.474.29-.7a.187.187,0,1,1,.342.152c-.1.221-.193.45-.282.682A.187.187,0,0,1,794.473,265.165Zm.61-1.366a.187.187,0,0,1-.166-.273c.117-.227.242-.45.37-.664a.187.187,0,0,1,.321.193c-.125.207-.245.424-.359.643A.187.187,0,0,1,795.082,263.8Zm.771-1.282a.187.187,0,0,1-.154-.294c.146-.209.3-.414.457-.609a.187.187,0,1,1,.291.236c-.152.188-.3.386-.441.588A.187.187,0,0,1,795.853,262.516Zm21.059-.161a.186.186,0,0,1-.092-.024c-.216-.123-.435-.245-.651-.363a.187.187,0,1,1,.18-.328c.218.119.439.242.657.366a.187.187,0,0,1-.093.35Zm-1.314-.718a.187.187,0,0,1-.087-.021c-.221-.116-.444-.231-.663-.34a.187.187,0,1,1,.168-.335c.221.111.446.226.669.343a.187.187,0,0,1-.087.353Zm-18.8-.283a.187.187,0,0,1-.136-.316c.175-.185.358-.365.545-.534a.187.187,0,0,1,.251.277c-.18.163-.356.335-.524.513A.187.187,0,0,1,796.795,261.354Zm17.465-.388a.186.186,0,0,1-.081-.018c-.225-.108-.452-.214-.675-.315a.187.187,0,1,1,.155-.341c.225.1.455.209.682.318a.187.187,0,0,1-.081.356Zm-16.356-.615a.187.187,0,0,1-.114-.336c.148-.114.3-.225.457-.33l.167-.111a.187.187,0,0,1,.2.314l-.161.107c-.149.1-.3.207-.438.317A.187.187,0,0,1,797.9,260.351Zm14.992,0a.188.188,0,0,1-.074-.015c-.23-.1-.461-.195-.688-.286a.187.187,0,1,1,.14-.347c.229.092.463.189.7.289a.187.187,0,0,1-.074.359Zm-1.389-.558a.188.188,0,0,1-.066-.012c-.233-.087-.468-.172-.7-.252a.187.187,0,0,1,.122-.354c.235.081.473.167.709.255a.187.187,0,0,1-.066.362Zm-12.347-.25a.187.187,0,0,1-.089-.352c.222-.12.453-.232.686-.335a.187.187,0,0,1,.151.343c-.224.1-.446.207-.659.321A.187.187,0,0,1,799.159,259.538Zm10.932-.238a.189.189,0,0,1-.056-.009c-.237-.075-.477-.147-.712-.213a.187.187,0,1,1,.1-.36c.239.067.482.14.723.216a.187.187,0,0,1-.056.366Zm-9.563-.364a.187.187,0,0,1-.062-.364c.237-.083.482-.159.728-.225a.187.187,0,0,1,.1.362c-.238.064-.474.137-.7.217A.188.188,0,0,1,800.528,258.935Zm8.122-.043a.184.184,0,0,1-.045-.006c-.242-.06-.485-.116-.723-.167a.187.187,0,1,1,.078-.366c.242.052.49.109.736.17a.187.187,0,0,1-.045.369Zm-1.465-.311a.181.181,0,0,1-.032,0c-.245-.043-.492-.081-.733-.113a.187.187,0,1,1,.049-.371c.246.033.5.071.747.115a.187.187,0,0,1-.032.372Zm-5.213-.036a.187.187,0,0,1-.036-.371c.245-.048.5-.089.751-.121a.187.187,0,0,1,.047.371c-.245.031-.49.071-.727.117A.192.192,0,0,1,801.973,258.546Zm3.729-.16h-.017c-.248-.022-.5-.038-.738-.048a.187.187,0,0,1,.015-.374c.248.01.5.027.756.049a.187.187,0,0,1-.016.374Zm-2.244-.031a.187.187,0,0,1-.012-.374c.248-.017.5-.026.759-.029h0a.187.187,0,0,1,0,.374c-.248,0-.5.012-.738.028Z" transform="translate(-778.048 -257.951)"/></g><g transform="translate(51.115 8.872)"><circle class="s" cx="3.957" cy="3.957" r="3.957" transform="translate(0 5.596) rotate(-45)"/><path class="d" d="M1298.411,444.5h0a.081.081,0,0,1-.081-.081,3.765,3.765,0,0,1,.03-.471.081.081,0,0,1,.161.021,3.578,3.578,0,0,0-.029.451A.081.081,0,0,1,1298.411,444.5Z" transform="translate(-1296.464 -438.827)"/><path class="d" d="M1302.541,403.652a.079.079,0,0,1-.037-.007.081.081,0,0,1-.042-.107,3.719,3.719,0,0,1,3.224-2.224,3.766,3.766,0,0,1,.676.026.081.081,0,0,1-.021.16,3.611,3.611,0,0,0-.647-.025,3.558,3.558,0,0,0-3.085,2.128A.081.081,0,0,1,1302.541,403.652Z" transform="translate(-1300.284 -399.448)"/><circle class="t" cx="3.349" cy="3.349" r="3.349" transform="translate(0.95 5.678) rotate(-45)"/><path class="u" d="M1336.846,423.353a1.037,1.037,0,1,1-2.051.106,1.029,1.029,0,0,1,2.051-.106Z" transform="translate(-1330.2 -418.992)"/><path class="v" d="M1324.423,457.259l2.5-.13a.606.606,0,0,0,.555-.451l.113-.428a.606.606,0,0,0-.4-.734,4.673,4.673,0,0,0-3.15.2.6.6,0,0,0-.349.752l.124.377A.607.607,0,0,0,1324.423,457.259Z" transform="translate(-1319.902 -449.42)"/></g><g transform="translate(92.171 51.321)"><circle class="w" cx="3.957" cy="3.957" r="3.957" transform="translate(0 5.596) rotate(-45)"/><path class="d" d="M1828.615,984.251h0a.081.081,0,0,1-.081-.081,3.744,3.744,0,0,1,.03-.471.081.081,0,0,1,.161.021,3.6,3.6,0,0,0-.029.451A.081.081,0,0,1,1828.615,984.251Z" transform="translate(-1826.667 -978.578)"/><path class="d" d="M1832.744,943.4a.081.081,0,0,1-.078-.113,3.718,3.718,0,0,1,3.224-2.224,3.77,3.77,0,0,1,.676.026.081.081,0,0,1-.021.16,3.606,3.606,0,0,0-.647-.025,3.558,3.558,0,0,0-3.085,2.127A.081.081,0,0,1,1832.744,943.4Z" transform="translate(-1830.487 -939.199)"/><circle class="t" cx="3.349" cy="3.349" r="3.349" transform="translate(0.95 5.678) rotate(-45)"/><path class="x" d="M1867.05,963.105a1.037,1.037,0,1,1-2.051.106,1.028,1.028,0,0,1,2.051-.106Z" transform="translate(-1860.404 -958.744)"/><path class="y" d="M1854.626,997.01l2.5-.13a.606.606,0,0,0,.555-.451l.113-.428a.606.606,0,0,0-.4-.734,4.672,4.672,0,0,0-3.15.2.6.6,0,0,0-.349.752l.124.377A.607.607,0,0,0,1854.626,997.01Z" transform="translate(-1850.105 -989.171)"/></g><g transform="translate(55.864 53.223)"><circle class="z" cx="5.511" cy="5.511" r="5.511" transform="translate(0 0.764) rotate(-3.975)"/><path class="d" d="M1309.893,1074.129h-.006a.113.113,0,0,1-.113-.113,5.227,5.227,0,0,1,.042-.656.113.113,0,0,1,.224.028,5.006,5.006,0,0,0-.04.628A.113.113,0,0,1,1309.893,1074.129Z" transform="translate(-1309.094 -1068.142)"/><path class="d" d="M1315.643,1017.24a.113.113,0,0,1-.109-.158,5.179,5.179,0,0,1,4.491-3.1,5.259,5.259,0,0,1,.941.036.113.113,0,1,1-.029.224,4.984,4.984,0,0,0-5.2,2.929A.112.112,0,0,1,1315.643,1017.24Z" transform="translate(-1314.414 -1013.298)"/><circle class="t" cx="4.665" cy="4.665" r="4.665" transform="matrix(0.248, -0.969, 0.969, 0.248, 0.331, 9.356)"/><path class="aa" d="M1363.421,1044.678a1.444,1.444,0,1,1-2.856.148,1.433,1.433,0,0,1,2.856-.148Z" transform="translate(-1356.079 -1040.518)"/><path class="ab" d="M1346.119,1091.9l3.487-.181a.845.845,0,0,0,.773-.628l.157-.6a.845.845,0,0,0-.564-1.023,6.508,6.508,0,0,0-4.387.276.842.842,0,0,0-.486,1.047l.172.525A.845.845,0,0,0,1346.119,1091.9Z" transform="translate(-1341.736 -1082.895)"/></g><g transform="translate(18.182 8.987)"><circle class="ac" cx="5.387" cy="5.387" r="5.387" transform="matrix(0.904, -0.427, 0.427, 0.904, 0, 4.597)"/><path class="d" d="M825.474,446.562h-.006a.11.11,0,0,1-.11-.11,5.133,5.133,0,0,1,.041-.641.11.11,0,1,1,.218.028,4.9,4.9,0,0,0-.039.614A.11.11,0,0,1,825.474,446.562Z" transform="translate(-823.27 -439.288)"/><path class="d" d="M831.094,390.954a.11.11,0,0,1-.106-.154,5.062,5.062,0,0,1,4.39-3.027,5.13,5.13,0,0,1,.92.035.11.11,0,1,1-.028.218,4.906,4.906,0,0,0-.88-.033,4.843,4.843,0,0,0-4.2,2.9A.11.11,0,0,1,831.094,390.954Z" transform="translate(-828.47 -385.677)"/><circle class="t" cx="4.56" cy="4.56" r="4.56" transform="translate(1.608 4.241) rotate(-16.864)"/><path class="ad" d="M877.8,417.775a1.411,1.411,0,1,1-2.792.145,1.4,1.4,0,0,1,2.792-.145Z" transform="translate(-869.198 -412.286)"/><path class="ae" d="M860.885,463.932l3.408-.177a.826.826,0,0,0,.756-.614l.154-.583a.825.825,0,0,0-.551-1,6.361,6.361,0,0,0-4.288.269.823.823,0,0,0-.475,1.023l.168.513A.826.826,0,0,0,860.885,463.932Z" transform="translate(-855.177 -453.708)"/></g><g transform="translate(41.073 22.759)"><circle class="af" cx="5.387" cy="5.387" r="5.387" transform="matrix(0.859, -0.512, 0.512, 0.859, 0, 5.513)"/><path class="d" d="M1170.212,651.421h-.006a.11.11,0,0,1-.11-.11,5.112,5.112,0,0,1,.041-.641.11.11,0,0,1,.218.028,4.9,4.9,0,0,0-.039.614A.11.11,0,0,1,1170.212,651.421Z" transform="translate(-1167.794 -643.932)"/><path class="d" d="M1175.832,595.813a.11.11,0,0,1-.106-.154,5.062,5.062,0,0,1,4.39-3.027,5.133,5.133,0,0,1,.92.035.11.11,0,1,1-.028.218,4.9,4.9,0,0,0-.88-.033,4.843,4.843,0,0,0-4.2,2.9A.11.11,0,0,1,1175.832,595.813Z" transform="translate(-1172.993 -590.322)"/><circle class="t" cx="4.56" cy="4.56" r="4.56" transform="translate(1.715 4.665) rotate(-18.957)"/><path class="ag" d="M1222.535,622.634a1.411,1.411,0,1,1-2.792.145,1.4,1.4,0,0,1,2.792-.145Z" transform="translate(-1213.721 -616.93)"/><path class="ah" d="M1205.623,668.791l3.408-.177a.826.826,0,0,0,.756-.614l.154-.583a.825.825,0,0,0-.551-1,6.361,6.361,0,0,0-4.288.269.823.823,0,0,0-.475,1.023l.168.513A.826.826,0,0,0,1205.623,668.791Z" transform="translate(-1199.701 -658.353)"/></g><g transform="translate(0 61.254)"><circle class="ai" cx="5.387" cy="5.387" r="5.387" transform="translate(0 0.538) rotate(-2.865)"/><path class="d" d="M598.518,970.863h-.006a.11.11,0,0,1-.111-.109,5.138,5.138,0,0,1,.037-.642.11.11,0,0,1,.219.027,4.879,4.879,0,0,0-.035.614A.11.11,0,0,1,598.518,970.863Z" transform="translate(-597.835 -965.081)"/><path class="d" d="M603.988,914.906a.11.11,0,0,1-.107-.154,5.062,5.062,0,0,1,4.372-3.052,5.129,5.129,0,0,1,.92.03.11.11,0,0,1-.027.219,4.9,4.9,0,0,0-.881-.028,4.843,4.843,0,0,0-4.183,2.92A.11.11,0,0,1,603.988,914.906Z" transform="translate(-602.895 -911.125)"/><circle class="t" cx="4.56" cy="4.56" r="4.56" transform="matrix(0.986, -0.17, 0.17, 0.986, 0.507, 2.04)"/><path class="aj" d="M650.719,941.69a1.411,1.411,0,1,1-2.791.161,1.4,1.4,0,0,1,2.791-.161Z" transform="translate(-643.65 -937.73)"/><path class="ak" d="M634.067,987.822l3.407-.2a.826.826,0,0,0,.753-.619l.15-.584a.825.825,0,0,0-.557-1,6.36,6.36,0,0,0-4.286.294.823.823,0,0,0-.469,1.026l.171.512A.826.826,0,0,0,634.067,987.822Z" transform="translate(-629.863 -979.112)"/></g><g transform="translate(75.764 26.265)"><circle class="al" cx="3.957" cy="3.957" r="3.957" transform="translate(0 5.596) rotate(-45)"/><path class="d" d="M1645.678,685.81h0a.081.081,0,0,1-.081-.081,3.749,3.749,0,0,1,.03-.471.081.081,0,1,1,.16.021,3.586,3.586,0,0,0-.029.451A.081.081,0,0,1,1645.678,685.81Z" transform="translate(-1643.73 -680.138)"/><path class="d" d="M1649.807,644.962a.079.079,0,0,1-.037-.007.081.081,0,0,1-.041-.107,3.718,3.718,0,0,1,3.224-2.224,3.765,3.765,0,0,1,.676.026.081.081,0,0,1-.021.16,3.615,3.615,0,0,0-.647-.024,3.557,3.557,0,0,0-3.085,2.127A.08.08,0,0,1,1649.807,644.962Z" transform="translate(-1647.55 -640.758)"/><circle class="t" cx="3.349" cy="3.349" r="3.349" transform="translate(1.151 7.043) rotate(-61.745)"/><path class="am" d="M1684.112,664.663a1.037,1.037,0,1,1-2.051.106,1.029,1.029,0,0,1,2.051-.106Z" transform="translate(-1677.466 -660.302)"/><path class="an" d="M1671.689,698.569l2.5-.13a.606.606,0,0,0,.555-.451l.113-.428a.606.606,0,0,0-.405-.734,4.672,4.672,0,0,0-3.15.2.6.6,0,0,0-.349.752l.124.377A.607.607,0,0,0,1671.689,698.569Z" transform="translate(-1667.168 -690.73)"/></g><g transform="translate(31.059 7.394)"><g transform="translate(0.59)"><path class="d" d="M1014.612,417.78l-.708.465a.265.265,0,1,1-.291-.442l.708-.465a.265.265,0,1,1,.291.442Z" transform="translate(-1013.494 -412.756)"/><path class="d" d="M1043.619,374.276l-1.239.814a.265.265,0,0,1-.291-.443l1.239-.814a.265.265,0,1,1,.291.442Zm-2.478,1.629-1.239.814a.265.265,0,0,1-.291-.442l1.239-.814a.265.265,0,1,1,.291.443Z" transform="translate(-1037.546 -372.51)"/><path class="d" d="M1107.579,357.488a.265.265,0,0,1-.24.026l-.664-.254-.594.391a.265.265,0,1,1-.291-.442l.708-.465a.265.265,0,0,1,.24-.026l.791.3a.265.265,0,0,1,.051.468Z" transform="translate(-1098.768 -356.699)"/><path class="d" d="M1154.948,372.268a.264.264,0,0,1-.24.026l-1.764-.675a.265.265,0,1,1,.189-.494l1.764.675a.265.265,0,0,1,.051.468Zm-3.528-1.35a.265.265,0,0,1-.24.026l-1.764-.675a.265.265,0,0,1,.189-.495l1.764.675a.265.265,0,0,1,.051.468Z" transform="translate(-1139.081 -368.779)"/><path class="d" d="M1244.675,406.6a.264.264,0,0,1-.24.026l-.791-.3a.265.265,0,1,1,.189-.494l.791.3a.265.265,0,0,1,.051.468Z" transform="translate(-1226.252 -402.136)"/></g><path class="d" d="M1007.611,407.432a1.085,1.085,0,1,1-1.5-.311A1.086,1.086,0,0,1,1007.611,407.432Z" transform="translate(-1005.618 -403.18)"/><circle class="d" cx="1.085" cy="1.085" r="1.085" transform="translate(17.84 4.983) rotate(-78.243)"/></g><g transform="translate(42.817 17.595)"><g transform="translate(1.319 0.571)"><path class="d" d="M1277,501.4a.265.265,0,0,1,.089-.364l.724-.44a.265.265,0,1,1,.275.453l-.724.44A.265.265,0,0,1,1277,501.4Z" transform="translate(-1269.717 -500.56)"/><path class="d" d="M1207.373,519.781a.265.265,0,0,1,.089-.364l1.3-.792a.265.265,0,1,1,.275.452l-1.3.792A.265.265,0,0,1,1207.373,519.781Zm2.607-1.583a.265.265,0,0,1,.089-.364l1.3-.792a.265.265,0,1,1,.275.453l-1.3.792A.265.265,0,0,1,1209.979,518.2Z" transform="translate(-1205.307 -515.773)"/><path class="d" d="M1180.3,560.131a.265.265,0,0,1,.089-.364l.724-.44a.265.265,0,1,1,.275.453l-.724.44A.265.265,0,0,1,1180.3,560.131Z" transform="translate(-1180.258 -554.892)"/></g><circle class="d" cx="1.085" cy="1.085" r="1.085" transform="translate(0 5.246) rotate(-18.823)"/><circle class="d" cx="1.085" cy="1.085" r="1.085" transform="translate(8.257)"/></g><g transform="translate(80.111 53.051)"><g transform="translate(1.58 1.2)"><path class="d" d="M1775.76,971.171a.265.265,0,0,1,.3-.226l.839.117a.265.265,0,1,1-.073.524l-.839-.117A.265.265,0,0,1,1775.76,971.171Z" transform="translate(-1767.367 -969.773)"/><path class="d" d="M1695.082,959.921a.265.265,0,0,1,.3-.226l1.51.211a.265.265,0,0,1-.073.524l-1.51-.211A.265.265,0,0,1,1695.082,959.921Zm3.021.421a.265.265,0,0,1,.3-.226l1.51.211a.265.265,0,1,1-.073.524l-1.51-.211A.265.265,0,0,1,1698.1,960.342Z" transform="translate(-1692.73 -959.365)"/><path class="d" d="M1663.707,955.545a.265.265,0,0,1,.3-.226l.839.117a.265.265,0,1,1-.073.524l-.839-.117A.265.265,0,0,1,1663.707,955.545Z" transform="translate(-1663.705 -955.317)"/></g><circle class="d" cx="1.085" cy="1.085" r="1.085" transform="translate(0 1.679) rotate(-50.669)"/><circle class="d" cx="1.085" cy="1.085" r="1.085" transform="matrix(0.101, -0.995, 0.995, 0.101, 9.568, 3.785)"/></g><g transform="translate(63.309 16.378)"><g transform="translate(0.926 0.726)"><path class="d" d="M1637.637,599.068a.265.265,0,0,1,.485-.114l.463.71a.265.265,0,0,1-.444.289l-.463-.709A.264.264,0,0,1,1637.637,599.068Z" transform="translate(-1623.486 -590.412)"/><path class="d" d="M1591.435,528.272a.265.265,0,0,1,.485-.114l.865,1.325a.265.265,0,1,1-.443.289l-.865-1.325A.264.264,0,0,1,1591.435,528.272Zm1.73,2.651a.265.265,0,0,1,.485-.114l.865,1.325a.265.265,0,0,1-.443.289l-.865-1.325A.263.263,0,0,1,1593.165,530.923Z" transform="translate(-1580.743 -524.918)"/><path class="d" d="M1562.462,499.795a.265.265,0,0,1,.294-.233l.842.1a.265.265,0,0,1,.191.118l.463.709a.265.265,0,1,1-.443.289l-.4-.605-.718-.083A.265.265,0,0,1,1562.462,499.795Z" transform="translate(-1553.939 -498.573)"/><path class="d" d="M1480.422,490.286a.265.265,0,0,1,.293-.233l1.536.178a.265.265,0,1,1-.061.526l-1.536-.178A.265.265,0,0,1,1480.422,490.286Zm3.072.356a.265.265,0,0,1,.293-.233l1.536.178a.265.265,0,0,1-.061.526l-1.536-.178A.265.265,0,0,1,1483.493,490.642Z" transform="translate(-1478.043 -489.776)"/><path class="d" d="M1448.672,486.606a.265.265,0,0,1,.293-.232l.842.1a.265.265,0,0,1-.061.526l-.842-.1A.265.265,0,0,1,1448.672,486.606Z" transform="translate(-1448.67 -486.371)"/></g><circle class="d" cx="1.085" cy="1.085" r="1.085" transform="translate(14.538 8.554) rotate(-2.156)"/><path class="d" d="M1437.261,478.834a1.085,1.085,0,1,1,1.2-.953A1.085,1.085,0,0,1,1437.261,478.834Z" transform="translate(-1436.3 -476.67)"/></g><g transform="translate(54.184 34.475)"><g transform="translate(0.962 0.811)"><path class="d" d="M1406.966,933.908a.265.265,0,0,1,.453.207l-.069.844a.265.265,0,0,1-.528-.043l.069-.844A.264.264,0,0,1,1406.966,933.908Z" transform="translate(-1400.866 -918.504)"/><path class="d" d="M1409.914,849.647a.265.265,0,0,1,.453.207l-.128,1.577a.265.265,0,1,1-.528-.043l.128-1.577A.265.265,0,0,1,1409.914,849.647Zm-.257,3.155a.265.265,0,0,1,.453.207l-.128,1.577a.265.265,0,0,1-.528-.043l.128-1.577A.264.264,0,0,1,1409.658,852.8Z" transform="translate(-1403.301 -840.552)"/><path class="d" d="M1409.216,809.39a.265.265,0,0,1,.375,0l.605.593a.264.264,0,0,1,.078.211l-.069.844a.265.265,0,0,1-.528-.043l.059-.721-.517-.506A.265.265,0,0,1,1409.216,809.39Z" transform="translate(-1403.01 -803.31)"/><path class="d" d="M1350.2,751.615a.265.265,0,0,1,.375,0l1.1,1.082a.265.265,0,1,1-.37.378l-1.1-1.082A.265.265,0,0,1,1350.2,751.615Zm2.21,2.163a.265.265,0,0,1,.374,0l1.1,1.082a.265.265,0,1,1-.37.378l-1.1-1.082A.265.265,0,0,1,1352.408,753.778Z" transform="translate(-1348.413 -749.861)"/><path class="d" d="M1327.359,729.256a.265.265,0,0,1,.374,0l.605.593a.265.265,0,1,1-.37.378l-.605-.593A.265.265,0,0,1,1327.359,729.256Z" transform="translate(-1327.283 -729.176)"/></g><circle class="d" cx="1.085" cy="1.085" r="1.085" transform="matrix(0.599, -0.801, 0.801, 0.599, 5.873, 16.963)"/><circle class="d" cx="1.085" cy="1.085" r="1.085"/></g><g transform="translate(11.623 58.635)"><g transform="translate(1.077)"><path class="d" d="M940.686,979.933l.371.762a.265.265,0,1,1-.476.232l-.371-.762a.265.265,0,1,1,.476-.232Z" transform="translate(-926.725 -971.5)"/><path class="d" d="M901.565,899.57l.732,1.5a.265.265,0,0,1-.476.232l-.732-1.5a.265.265,0,0,1,.476-.232Zm1.465,3.009.732,1.5a.265.265,0,0,1-.476.232l-.732-1.5a.265.265,0,1,1,.476-.232Z" transform="translate(-890.533 -897.155)"/><path class="d" d="M877.422,869.308l.371.762a.265.265,0,1,1-.476.232l-.255-.524-.524.255a.265.265,0,1,1-.232-.476l.762-.371A.265.265,0,0,1,877.422,869.308Z" transform="translate(-867.493 -869.159)"/><path class="d" d="M796.971,884.535a.265.265,0,0,1-.122.354l-1.581.769a.265.265,0,1,1-.232-.476l1.581-.769A.265.265,0,0,1,796.971,884.535Zm-3.161,1.539a.265.265,0,0,1-.122.354l-1.581.769a.265.265,0,0,1-.232-.476l1.581-.769A.265.265,0,0,1,793.81,886.074Z" transform="translate(-789.384 -883.246)"/><path class="d" d="M761.711,925.637a.265.265,0,0,1-.122.354l-.762.371a.265.265,0,0,1-.232-.476l.762-.371A.265.265,0,0,1,761.711,925.637Z" transform="translate(-760.446 -921.27)"/></g><circle class="d" cx="1.085" cy="1.085" r="1.085" transform="matrix(0.095, -0.996, 0.996, 0.095, 13.885, 10.103)"/><circle class="d" cx="1.085" cy="1.085" r="1.085" transform="translate(0 5.389) rotate(-70.957)"/></g></g></g></g></svg>