<svg xmlns="http://www.w3.org/2000/svg" xmlns:xlink="http://www.w3.org/1999/xlink" width="169.884" height="114.932" viewBox="0 0 169.884 114.932"><defs><style>.a{fill:none;}.b,.q{fill:#fff;}.b{opacity:0.05;}.c{opacity:0.7;}.d,.j{opacity:0.6;}.d{fill:url(#a);}.e{fill:url(#b);}.f{fill:#6030dc;}.g{fill:url(#c);}.h{fill:#4838da;}.i{fill:url(#d);}.k{fill:url(#e);}.l{fill:#1f5aa9;}.m{fill:url(#f);}.n{fill:url(#g);}.o{fill:url(#h);}.p{opacity:0.9;}.r{fill:url(#i);}.s{fill:url(#j);}.t{fill:url(#k);}.u{fill:url(#l);}.v{fill:url(#n);}.w{fill:url(#o);}.x{fill:url(#p);}.y{fill:url(#q);}.z{fill:url(#r);}.aa{fill:url(#s);}.ab{fill:url(#t);}.ac{fill:url(#u);}.ad{fill:#eda150;}.ae{fill:url(#v);}.af{fill:url(#w);}.ag{fill:url(#x);}.ah{fill:url(#z);}.ai{fill:url(#aa);}.aj{fill:url(#ab);}.ak{fill:url(#ad);}.al{fill:url(#ae);}.am{fill:url(#af);}.an{fill:url(#ag);}.ao{fill:url(#ah);}.ap{fill:url(#aj);}.aq{fill:url(#ak);}.ar{fill:url(#al);}</style><linearGradient id="a" y1="0.5" x2="1" y2="0.5" gradientUnits="objectBoundingBox"><stop offset="0" stop-color="#53d8ff"/><stop offset="1" stop-color="#3840f7"/></linearGradient><linearGradient id="b" x1="-0.37" y1="0.761" x2="1.288" y2="-0.131" gradientUnits="objectBoundingBox"><stop offset="0" stop-color="#a737d5"/><stop offset="1" stop-color="#ef497a"/></linearGradient><linearGradient id="c" x1="0.53" y1="-1.548" x2="1.465" y2="-1.548" xlink:href="#b"/><linearGradient id="d" x1="1.489" y1="1.501" x2="0.052" y2="-0.131" xlink:href="#b"/><linearGradient id="e" x1="-1.686" y1="1.072" x2="-0.968" y2="1.072" xlink:href="#a"/><linearGradient id="f" x1="0" y1="0.5" x2="1" y2="0.5" xlink:href="#b"/><linearGradient id="g" x1="1.016" y1="0.018" x2="-0.299" y2="1.265" gradientUnits="objectBoundingBox"><stop offset="0" stop-color="#2b3582"/><stop offset="1" stop-color="#150e42"/></linearGradient><linearGradient id="h" x1="1.022" y1="0.008" x2="-0.307" y2="1.262" gradientUnits="objectBoundingBox"><stop offset="0" stop-color="#fdf53f"/><stop offset="1" stop-color="#d93c65"/></linearGradient><linearGradient id="i" y1="0.5" x2="1" y2="0.5" gradientUnits="objectBoundingBox"><stop offset="0" stop-color="#f9b776"/><stop offset="1" stop-color="#f47960"/></linearGradient><linearGradient id="j" x1="0.479" y1="0.158" x2="0.541" y2="1.532" xlink:href="#b"/><linearGradient id="k" x1="0" y1="0.5" x2="1" y2="0.5" xlink:href="#g"/><linearGradient id="l" x1="0.837" y1="0.768" x2="-0.373" y2="-0.195" xlink:href="#a"/><linearGradient id="n" x1="-0.064" y1="1.004" x2="1.11" y2="-0.047" xlink:href="#a"/><linearGradient id="o" x1="1.107" y1="-0.006" x2="-0.123" y2="0.733" xlink:href="#h"/><linearGradient id="p" x1="1.314" y1="-0.073" x2="0.004" y2="0.944" xlink:href="#i"/><linearGradient id="q" x1="1.01" y1="-1.182" x2="0.399" y2="0.558" xlink:href="#i"/><linearGradient id="r" x1="0.7" y1="0.019" x2="-1.5" y2="3.348" xlink:href="#i"/><linearGradient id="s" x1="1.188" y1="-0.094" x2="-0.616" y2="1.466" xlink:href="#h"/><linearGradient id="t" x1="0.181" y1="1.219" x2="0.572" y2="0.33" xlink:href="#i"/><linearGradient id="u" x1="0.53" y1="0.549" x2="0.112" y2="1.263" xlink:href="#i"/><linearGradient id="v" x1="0.821" y1="0.35" x2="-0.291" y2="1.106" xlink:href="#i"/><linearGradient id="w" x1="0.28" y1="0.152" x2="1.03" y2="1.129" xlink:href="#g"/><linearGradient id="x" x1="2.74" y1="-0.685" x2="-1.811" y2="1.784" xlink:href="#i"/><linearGradient id="z" x1="0.035" y1="0.333" x2="1.461" y2="0.835" xlink:href="#b"/><linearGradient id="aa" x1="0.589" y1="0.833" x2="0.309" y2="-0.234" xlink:href="#i"/><linearGradient id="ab" y1="0.5" x2="1" y2="0.5" gradientUnits="objectBoundingBox"><stop offset="0" stop-color="#9cfffb"/><stop offset="1" stop-color="#9bfffa"/></linearGradient><linearGradient id="ad" x1="0.485" y1="0.339" x2="0.712" y2="1.663" xlink:href="#h"/><linearGradient id="ae" x1="-0.653" y1="0.098" x2="2.14" y2="1.033" xlink:href="#b"/><linearGradient id="af" x1="-0.279" y1="0.282" x2="1.279" y2="0.718" xlink:href="#b"/><linearGradient id="ag" x1="0.724" y1="0.148" x2="-0.021" y2="1.392" xlink:href="#i"/><linearGradient id="ah" x1="115.379" y1="139.644" x2="114.307" y2="140.926" xlink:href="#i"/><linearGradient id="aj" x1="323.186" y1="465.096" x2="325.644" y2="462.447" xlink:href="#i"/><linearGradient id="ak" x1="0.497" y1="-2.182" x2="0.504" y2="3.784" xlink:href="#g"/><linearGradient id="al" x1="0.496" y1="-2.549" x2="0.504" y2="3.416" xlink:href="#g"/></defs><g transform="translate(0)"><g transform="translate(0)"><rect class="a" width="169.302" height="112.868" transform="translate(0.582 2.064)"/><rect class="a" width="169.302" height="112.868" transform="translate(0.582 1.917)"/><g transform="translate(0)"><rect class="a" width="169.302" height="112.868" transform="translate(0 1.917)"/><rect class="a" width="169.302" height="112.868"/></g></g></g><g transform="translate(7.028 14.626)"><g transform="translate(0 0)"><path class="b" d="M177.952,194.21c2.431.723,6.067,4.011,9.255,9.255,3.921,6.451,6.251,7.016,11.8,3.838s12.065-1.043,16.781,7.419-3.546,15.042-11.2,25.351,7.632,7.643,12.585,19.684-2.032,25.549-25.017,25.388c-23.016-.161-57.808.148-57.808.148s-32.266,2.846-44.015-4.508,2.7-10.931-8.225-15.634-22.334-5.02-17.556-17.175,11.541-9.638,15.905-12.888,6.989-6.778.749-12.563-11.017-9.682-7.863-17.345c4.526-11,15.509-12.414,27.576-7.753s14.116,10.628,34.031,7.173C146.054,202.672,157.25,188.051,177.952,194.21Z" transform="translate(-63.428 -192.706)"/><path class="b" d="M203.552,227.937c2.122.631,5.295,3.5,8.077,8.077,3.423,5.63,5.456,6.123,10.3,3.349s10.529-.91,14.646,6.475-3.095,13.128-9.778,22.126,6.661,6.67,10.984,17.179S236,307.442,215.945,307.3c-20.088-.14-50.453.129-50.453.129s-28.16,2.484-38.415-3.935,2.359-9.541-7.179-13.645-19.493-4.381-15.322-14.99,10.073-8.412,13.882-11.248,6.1-5.916.654-10.964-9.616-8.45-6.862-15.138c3.95-9.6,13.536-10.834,24.068-6.767s12.32,9.276,29.7,6.26C175.712,235.322,185.484,222.561,203.552,227.937Z" transform="translate(-93.723 -218.285)"/></g><g class="c" transform="translate(17.497 13.125)"><path class="d" d="M502.2,413.007a.152.152,0,0,0,.278-.112c-.557-2.434-1.811-10.274,4-14.04,6.768-4.391,18.429-6.3,11.285-32.821a1.509,1.509,0,0,0-2.242-.9c-3.976,2.417-13.516,9.114-14.017,17.992-.634,11.232,1.308,13.611.313,17.745C500.053,408.187,501.409,411.7,502.2,413.007Z" transform="translate(-410.883 -335.704)"/><g transform="translate(85.843 9.8)"><path class="e" d="M486.168,354.034A.086.086,0,0,1,486,354c.633-4.367,2.449-18.141,1.932-29.143-.624-13.256-2.983-19.081-4.02-25.832s3.242-15.306,14.7-12.541c9.353,2.257,16.7,3.8,20.148,3.3a.827.827,0,0,1,.853,1.193c-1.978,3.934-7.352,12.823-15.81,13.531-10.888.91-11.041-2.071-13.334.82s-2.175,5.728-2,11.048C488.639,321.5,489.359,341.72,486.168,354.034Z" transform="translate(-483.761 -285.95)"/><path class="f" d="M494.384,331.409a21.551,21.551,0,0,1-.8-2.473,22.713,22.713,0,0,1-.523-2.539,16.378,16.378,0,0,1,.017-5.2,10.89,10.89,0,0,1,.775-2.518,8.952,8.952,0,0,1,1.425-2.231,9.866,9.866,0,0,1,2.01-1.712c.366-.229.727-.464,1.106-.673s.757-.417,1.141-.616a19.37,19.37,0,0,1,2.4-1,16.053,16.053,0,0,1,2.531-.6,16.741,16.741,0,0,1,2.589-.189c.864,0,1.723.06,2.575.141,1.7.166,3.387.4,5.078.49a22.046,22.046,0,0,0,5.054-.285h0a.136.136,0,0,1,.05.267,22.394,22.394,0,0,1-5.121.418c-1.716-.045-3.415-.263-5.1-.393a20.571,20.571,0,0,0-5.029.122,15.446,15.446,0,0,0-2.427.612,18.752,18.752,0,0,0-2.3.991c-.37.2-.742.391-1.1.611s-.715.441-1.069.668a9.258,9.258,0,0,0-1.859,1.6,9.121,9.121,0,0,0-2.014,4.425,15.711,15.711,0,0,0-.024,4.975,23.988,23.988,0,0,0,.484,2.469,21.048,21.048,0,0,0,.746,2.394l0,.012a.326.326,0,0,1-.607.238Z" transform="translate(-490.622 -305.334)"/></g><g transform="translate(90.07 34.339)"><path class="g" d="M501.127,428.437a.1.1,0,0,1-.168-.087,27.5,27.5,0,0,0,1.526-10.851c-.382-6.806-5.383-23.233,7.545-26.206,11.388-2.619,18.119-3.192,21.276-5.4a.679.679,0,0,1,1.07.577c-.145,4.071-1.208,14.82-8.324,17.488-8.83,3.31-17.4-.317-20.218,2.863C501.1,409.9,505.708,421.723,501.127,428.437Z" transform="translate(-500.952 -385.763)"/><path class="h" d="M504.528,426a21.58,21.58,0,0,1-.045-2.2c.02-.731.064-1.463.14-2.192a22.5,22.5,0,0,1,.867-4.325,17.452,17.452,0,0,1,.8-2.081,13.991,13.991,0,0,1,1.121-1.95,11.151,11.151,0,0,1,1.495-1.71l.44-.366c.075-.059.145-.125.223-.179l.236-.163c.159-.105.31-.225.477-.317l.5-.282.125-.07.131-.059.261-.118a5.057,5.057,0,0,1,.528-.22l.541-.185c.18-.066.362-.1.544-.151a12.944,12.944,0,0,1,2.219-.352,21.8,21.8,0,0,1,4.4.259,14.837,14.837,0,0,0,4.218.113,10.707,10.707,0,0,0,3.932-1.515h0a.122.122,0,0,1,.137.2,11.5,11.5,0,0,1-1.865,1.16,9.294,9.294,0,0,1-2.1.734,10.971,10.971,0,0,1-2.217.228c-.741,0-1.473-.055-2.195-.115s-1.433-.133-2.14-.164a15.673,15.673,0,0,0-2.1.035,11.96,11.96,0,0,0-2.047.364c-.165.05-.338.087-.5.147l-.483.168a4.262,4.262,0,0,0-.469.2l-.232.106-.116.053-.111.063-.442.253c-.148.082-.281.191-.422.285l-.209.146c-.07.048-.132.108-.2.161l-.391.329a10.774,10.774,0,0,0-1.353,1.542,14.449,14.449,0,0,0-1.825,3.745c-.215.67-.406,1.349-.559,2.041s-.273,1.391-.378,2.094a29.028,29.028,0,0,0-.289,4.252v.013a.326.326,0,0,1-.652.026Z" transform="translate(-503.608 -402.468)"/></g><g transform="translate(15.134 0)"><path class="i" d="M216.35,298.23s.429-11.244-4.709-14.329-14.961-5.108-15.1-21.265c-.081-9.459-.255-13.6-.386-15.4a1.065,1.065,0,0,1,1.274-1.122c4.893.995,20.778,5.028,23.964,15.955C225.171,275.022,216.35,298.23,216.35,298.23Z" transform="translate(-196.153 -246.09)"/><path class="h" d="M215.5,264.56c.376.347.737.7,1.093,1.059.179.179.353.363.526.547s.35.365.519.553c.341.373.684.745,1.015,1.128l.5.571.488.581.485.584.472.594c.316.4.63.792.932,1.2.616.8,1.2,1.634,1.782,2.46.563.842,1.136,1.678,1.661,2.545l.4.645.2.323.191.328.763,1.316.189.33.179.336.357.671.357.672.179.336.168.341c.44.915.907,1.811,1.3,2.759.107.233.2.472.292.709s.191.474.281.713l.26.721.129.361.118.364.236.729.214.735c.149.489.261.987.39,1.48a42.486,42.486,0,0,1,.987,6.029,46.444,46.444,0,0,1,.162,6.094q-.063,1.522-.221,3.038c-.1,1.013-.242,2.012-.448,3.024a.338.338,0,0,1-.666-.114l0-.014a44.632,44.632,0,0,0,.428-5.956,51.188,51.188,0,0,0-.283-5.969,45.1,45.1,0,0,0-1.02-5.873,37.685,37.685,0,0,0-1.864-5.644,74.149,74.149,0,0,0-5.7-10.525l-.833-1.248c-.273-.42-.573-.821-.856-1.233s-.579-.817-.876-1.22l-.445-.606-.458-.6a58.632,58.632,0,0,0-3.858-4.6l0,0a.192.192,0,0,1,.27-.272Z" transform="translate(-210.498 -259.982)"/></g><g class="j" transform="translate(0 27.091)"><path class="k" d="M171.45,405.757c.8.388-7.591-10.08-10.27-26.56-1.262-7.766-1.316-17.5-5.757-21.237-3.7-3.109-16.225-1.089-20.324-.324a.615.615,0,0,0-.282,1.077c1.973,1.645,6.2,5.525,7.308,9.448,1.465,5.171,6.4,8.445,10.808,9.319s6.863,1.73,9.037,8.767S169.179,404.655,171.45,405.757Z" transform="translate(-134.596 -356.282)"/><path class="l" d="M159.807,370.621a19.889,19.889,0,0,1,7.674,1.89,15.616,15.616,0,0,1,3.374,2.145,13.548,13.548,0,0,1,2.664,3l.27.426c.089.142.165.293.248.439s.164.3.238.442l.221.441q.444.881.875,1.767.863,1.774,1.667,3.575c1.075,2.4,2.071,4.836,2.915,7.333a.132.132,0,0,1-.247.093v0c-.5-1.209-1.014-2.415-1.555-3.608s-1.083-2.386-1.644-3.57-1.128-2.364-1.712-3.537q-.432-.882-.878-1.758l-.222-.439c-.074-.146-.154-.282-.23-.424s-.149-.283-.233-.42l-.255-.407a13.425,13.425,0,0,0-2.519-2.888,14.773,14.773,0,0,0-1.54-1.16l-.2-.134-.206-.127c-.138-.083-.273-.171-.413-.252-.281-.158-.561-.32-.851-.463a20.063,20.063,0,0,0-3.62-1.41,20.981,20.981,0,0,0-3.828-.743h-.007a.106.106,0,0,1,.014-.211Z" transform="translate(-153.526 -367.096)"/></g><g transform="translate(0.38 49.174)"><path class="m" d="M168.65,477.71c.473.25-2.667-5.155-2.907-9.916s-1.315-12.888-5.421-17.749-8.6-5.3-14.268-.885c-4.721,3.683-7.666,5.541-9.394,5.887a.653.653,0,0,0-.438.952c1.108,2.04,4.24,6.726,9.5,6.4,6.708-.421,14.837-4.781,17.315-1.144a11.086,11.086,0,0,1,2.236,7.4C165.347,470.372,165.517,476.059,168.65,477.71Z" transform="translate(-136.142 -446.104)"/><path class="h" d="M184.1,471.333a13.218,13.218,0,0,1,1.166-.987c.4-.309.822-.6,1.257-.871a12.541,12.541,0,0,1,2.783-1.319,8.762,8.762,0,0,1,1.527-.346,6.526,6.526,0,0,1,1.587-.007c.132.021.266.034.4.063s.265.056.39.091l.742.231.727.283.7.339a8.849,8.849,0,0,1,2.453,1.921,10.972,10.972,0,0,1,1.693,2.584c.113.23.227.46.318.7s.2.472.286.711l.248.723c.088.239.143.488.213.732a26.324,26.324,0,0,1,.631,2.972.118.118,0,0,1-.23.047v0c-.242-.975-.471-1.951-.8-2.894-.149-.477-.337-.937-.511-1.4-.094-.23-.2-.453-.3-.68s-.213-.446-.33-.664a11.187,11.187,0,0,0-1.675-2.406,8.588,8.588,0,0,0-2.3-1.755l-.659-.312-.682-.261-.7-.213c-.116-.033-.229-.055-.344-.083s-.233-.038-.349-.058a5.877,5.877,0,0,0-1.425,0,8.191,8.191,0,0,0-1.422.286,13.822,13.822,0,0,0-2.716,1.148c-.434.24-.866.489-1.284.76s-.83.558-1.224.858l0,0a.122.122,0,0,1-.159-.185Z" transform="translate(-172.284 -462.434)"/></g></g><g transform="translate(45.722 5.017)"><g transform="translate(0 0)"><path class="n" d="M255.557,213.111l52.473.578a5.43,5.43,0,0,1,5.174,5.679l-.047,77.783a3.98,3.98,0,0,1-3.888,3.99l-56.256.248a3.653,3.653,0,0,1-3.613-3.69V219.746A6.367,6.367,0,0,1,255.557,213.111Z" transform="translate(-249.399 -213.111)"/><path class="o" d="M324.553,243.441H280.446a3.349,3.349,0,0,0-3.335,3.326v64.2a3.242,3.242,0,0,0,3.335,3.2h44.107a3.266,3.266,0,0,0,3.363-3.2v-64.2A3.373,3.373,0,0,0,324.553,243.441Z" transform="translate(-270.298 -235.984)"/></g><g class="p" transform="translate(20.617 24.474)"><path class="q" d="M342.149,350.342v-2.825a23.042,23.042,0,0,1-7.928-1.719,1.634,1.634,0,0,1-.9-1.931l.718-2.632a1.647,1.647,0,0,1,2.236-1.078,19.129,19.129,0,0,0,7.32,1.541c2.837,0,4.952-.962,4.952-2.933,0-1.779-1.634-2.836-5.577-3.894-5.626-1.539-9.664-3.991-9.664-8.943,0-4.472,3.27-7.885,8.943-8.8V314.3a1.646,1.646,0,0,1,1.646-1.646h1.66A1.646,1.646,0,0,1,347.2,314.3v2.537a21,21,0,0,1,6.284,1.128,1.638,1.638,0,0,1,1.023,1.978l-.66,2.434a1.641,1.641,0,0,1-2.167,1.109,17.138,17.138,0,0,0-6.163-1.119c-3.366,0-4.327,1.394-4.327,2.644,0,1.539,2.019,2.6,6.395,3.943,6.251,1.875,8.847,4.471,8.847,9.135,0,4.279-3.173,8.126-9.328,9.087v3.162a1.646,1.646,0,0,1-1.646,1.646h-1.66A1.646,1.646,0,0,1,342.149,350.342Z" transform="translate(-333.259 -312.658)"/></g></g><g transform="translate(35.307 58.917)"><g transform="translate(36.219 10.789)"><path class="r" d="M357.816,511.4s-.532-1.4-1.154-1.273a4.253,4.253,0,0,0-1.3.606l-1,1.351s2.8,1.1,3.79.471a21.577,21.577,0,0,0,6.481-.1,14.181,14.181,0,0,1-1.019-3.071A15.09,15.09,0,0,1,357.816,511.4Z" transform="translate(-354.361 -501.233)"/><path class="s" d="M401.369,476.233a37.417,37.417,0,0,1-9.374,8.15,14.178,14.178,0,0,0,1.019,3.071,16.93,16.93,0,0,0,8.586-3.9Z" transform="translate(-382.743 -476.233)"/></g><path class="t" d="M207.116,479.03l8.141,20.473a2.425,2.425,0,0,0,2.6,1.5l21.347-1.576-7.689-21.771a1.36,1.36,0,0,0-1.3-.876c-3.743.086-17.374.423-22.251.857A1.01,1.01,0,0,0,207.116,479.03Z" transform="translate(-207.04 -465.859)"/><path class="u" d="M223.019,503.126l-8.134-20.657a.644.644,0,0,1,.585-.88l20.1-.763a1.219,1.219,0,0,1,1.181.773l7.363,20.137Z" transform="translate(-212.922 -468.907)"/><path class="t" d="M439.608,479.03,431.468,499.5a2.426,2.426,0,0,1-2.6,1.5l-21.347-1.494,7.689-21.853a1.36,1.36,0,0,1,1.3-.876c3.743.086,17.375.423,22.251.857A1.01,1.01,0,0,1,439.608,479.03Z" transform="translate(-358.232 -465.859)"/><path class="v" d="M432.559,503.126l8.133-20.657a.644.644,0,0,0-.585-.88l-20.1-.763a1.218,1.218,0,0,0-1.181.773l-7.363,20.137Z" transform="translate(-361.203 -468.907)"/><path class="w" d="M305.112,479.011l.255,6.837a18.79,18.79,0,0,0,2.067.587,20.65,20.65,0,0,1,2.052-4.145A10.138,10.138,0,0,1,305.112,479.011Z" transform="translate(-281.001 -467.539)"/><path class="x" d="M325.8,478.538c-3.726,4.023-6.742,4.26-9.188,3.4a20.649,20.649,0,0,0-2.052,4.145c9.951,2.194,12.295-6.954,12.295-6.954Z" transform="translate(-288.123 -467.182)"/><path class="y" d="M363.351,475.352a1.365,1.365,0,0,1,1.224-.316c.795.145,1.5.421,2,0s.669.144.669.144l-1.482,1.127Z" transform="translate(-324.922 -464.423)"/><path class="z" d="M359.745,476.7s.294-1.23,1.181-1.061,2.9,1.263,3.417,1.061,1.182-.684,1.522-.514l-.6.745s1.54-.889,1.806-.343l-2.563,1.443S360.757,477.656,359.745,476.7Z" transform="translate(-322.202 -464.984)"/><path class="aa" d="M252.461,496.321s-1.271-18.153,8-23.8c0,0,2.592-1.711,5.821,1.6s2.189,6.755-.521,9.981-5.47,8.988-4.813,12.213Z" transform="translate(-241.25 -462.314)"/><path class="ab" d="M294.7,453.768c0,.216-3.089,4.6-3.089,4.6s.554,1.091,3.2,1.977l2.283-4.694Z" transform="translate(-270.818 -448.502)"/><path class="ac" d="M299.236,503.659s5.856,4.9,12.18,2.764a1.505,1.505,0,0,1,1.187.09l1.818.96a1.623,1.623,0,0,0,2.151-.6,3.414,3.414,0,0,0,.511-1.367l-3.557-1.44.262-.437s-1.737-.147-2.191,1.1c0,0-3.308,1.376-8.887-4.76A21.658,21.658,0,0,0,299.236,503.659Z" transform="translate(-276.569 -483.34)"/><path class="ad" d="M286.511,500.8a.129.129,0,0,1-.072-.022,11.3,11.3,0,0,1-3.648-4.395.129.129,0,1,1,.238-.1,11.027,11.027,0,0,0,3.554,4.281.129.129,0,0,1-.073.237Z" transform="translate(-264.16 -480.506)"/><path class="ad" d="M293.023,482.443a.129.129,0,0,1-.109-.059c-.008-.012-.761-1.185-2.2-3.755a2.863,2.863,0,0,0-1.7-1.472,3.332,3.332,0,0,0-2.273.3.13.13,0,0,1-.128-.225,3.539,3.539,0,0,1,2.469-.327,3.112,3.112,0,0,1,1.864,1.6c1.43,2.562,2.18,3.73,2.188,3.741a.13.13,0,0,1-.109.2Z" transform="translate(-266.999 -465.873)"/><g transform="translate(19.935)"><path class="ae" d="M300.547,443.549a16.176,16.176,0,0,1,1.172,3.847c.074,1.324.359,2.183-1.172,2.45a3.255,3.255,0,0,1-3.52-1.815s-1.095-2.032-.849-2.865S300.547,443.549,300.547,443.549Z" transform="translate(-294.171 -440.795)"/><path class="af" d="M291.506,438.636l.087-.039a.21.21,0,0,0,.1-.289c-.216-.417-.637-1.373-.093-1.6.7-.287,3.476-.854,4.075-1.838a1.833,1.833,0,0,0-.7-2.516.106.106,0,0,0-.138.045l-.064.121a.1.1,0,0,1-.192-.02h0a.1.1,0,0,0-.187-.027,2.812,2.812,0,0,1-2.01,1.018c-1.889.349-3.138,1.113-3.169,2.418a.1.1,0,0,1-.161.086c-.139-.085-.363-.125-.661.126-.519.436-.307,1.568.831,2.5a.1.1,0,0,1,0,.166c-.206.134-.514.454.283.879a2.683,2.683,0,0,0,1.676.365.1.1,0,0,0,.084-.125l-.253-1.147a.1.1,0,0,1,.1-.126Z" transform="translate(-288.127 -432.348)"/><path class="ag" d="M297.831,455.1s-.419-1.611-1.141-1.16.375,1.806.956,1.866Z" transform="translate(-294.405 -448.575)"/></g><path class="r" d="M353.605,523.008s1.488,1.455,1.775,1.244a5.208,5.208,0,0,0,.61-.654.639.639,0,0,0,.043-.753l-.351-.542a1.015,1.015,0,0,0-1.514-.22A1.836,1.836,0,0,0,353.605,523.008Z" transform="translate(-317.572 -499.836)"/><path class="ah" d="M433.084,496.707a30.075,30.075,0,0,0-3.812-13.294,10.824,10.824,0,0,1-1.242-6.967l.417-2.691a20.151,20.151,0,0,1,11-.074s8.021,6.62,2.66,23.552Z" transform="translate(-373.601 -462.967)"/><path class="ai" d="M433.738,459.615l1.353,3.251a.648.648,0,0,0,.489.389,5.923,5.923,0,0,0,3.906-.472.315.315,0,0,0,.084-.443l-2.5-3.589Z" transform="translate(-378.004 -452.26)"/><g transform="translate(58.848 18.376)"><path class="aj" d="M446.625,512.636a.3.3,0,0,0-.19.43l3.915,7.506a.3.3,0,0,0,.35.15l12.805-3.7a.3.3,0,0,0,.205-.372l-2.206-7.636a.3.3,0,0,0-.365-.207Z" transform="translate(-446.401 -508.379)"/><path class="aj" d="M449.93,510.465a.315.315,0,0,0-.222.415l3.134,8.512a.314.314,0,0,0,.382.193l12.767-3.686a.314.314,0,0,0,.22-.369l-1.769-8.193a.315.315,0,0,0-.38-.24Z" transform="translate(-448.88 -507.09)"/><path class="ak" d="M454.181,511.352a.389.389,0,0,0-.32.472l2.128,9.189a.389.389,0,0,0,.487.286l12.573-3.63a.389.389,0,0,0,.269-.47l-1.934-7.5a.389.389,0,0,0-.435-.287Z" transform="translate(-452.019 -508.836)"/></g><path class="al" d="M471.793,491.578c.976-7.372-4.7-13.04-4.7-13.04l-3.38,3.94a21.666,21.666,0,0,1,4.343,8.431A3.8,3.8,0,0,1,471.793,491.578Z" transform="translate(-400.606 -467.182)"/><path class="am" d="M467.786,502.818a.086.086,0,0,1-.084-.066,21.672,21.672,0,0,0-4.327-8.4.086.086,0,1,1,.135-.108,21.841,21.841,0,0,1,4.36,8.465.086.086,0,0,1-.064.1Z" transform="translate(-400.341 -479.004)"/><path class="an" d="M470.793,528.207a13.54,13.54,0,0,1,.384,4.5.593.593,0,0,1-.549.532c-.327.023-.773.053-1.171.076a2.183,2.183,0,0,1-1.248-.483.2.2,0,0,0-.288.247,3.455,3.455,0,0,0,1.282,1.145.2.2,0,0,1-.046.37l-1.814.514c2.98,2.807,4.947-.334,4.947-.334a14.213,14.213,0,0,0,2.244-5.9A3.8,3.8,0,0,0,470.793,528.207Z" transform="translate(-403.347 -504.479)"/><g transform="translate(53.998 0.302)"><path class="ao" d="M432.073,441.492c-.057.054-2.4,4.652-2.4,4.652l2.654,1.281,2.867-4.029S433.024,440.6,432.073,441.492Z" transform="translate(-428.937 -439.413)"/><path class="t" d="M431.727,438.045l-1.324,2.207a.413.413,0,0,1-.073.09.7.7,0,0,1-1.113-.007,3.735,3.735,0,0,0-1.046-1.131.423.423,0,0,0-.571.188,15.8,15.8,0,0,0-.906,2.149.421.421,0,0,0,.245.517,11.744,11.744,0,0,0,2.542.742.423.423,0,0,0,.4-.17c.405-.556,1.548-2.108,1.939-2.5.362-.361,1.031-.225,1.333-.138a.426.426,0,0,0,.338-.044.933.933,0,0,0,.351-1.419.424.424,0,0,1,.131-.576.936.936,0,0,0,.359-1.329,1.32,1.32,0,0,0-1.43-.7.44.44,0,0,1-.461-.256.279.279,0,0,0-.218-.172.411.411,0,0,1-.333-.483,1.084,1.084,0,0,0-.606-1.242c-1.145-.63-2.148.4-2.4,1.262s1.025,1.478,1.831,1.58c.592.075.916.721,1.047,1.058A.424.424,0,0,1,431.727,438.045Z" transform="translate(-426.676 -433.578)"/><path class="ap" d="M445.583,459.126s.509-1.49,1.161-1.435,1.165.7.357,1.434C446.1,460.032,445.583,459.126,445.583,459.126Z" transform="translate(-440.935 -451.761)"/></g><path class="aq" d="M274.571,569.163a.691.691,0,0,1-.691.691H245.8a1.05,1.05,0,0,1-1.05-1.05l-.442-.513,29.151-.25a1.122,1.122,0,0,1,1.107,1.122Z" transform="translate(-235.149 -534.68)"/><path class="ar" d="M378,569.163a.691.691,0,0,0,.691.691h28.076a1.05,1.05,0,0,0,1.05-1.05l.442-.513-29.151-.25A1.122,1.122,0,0,0,378,569.163Z" transform="translate(-335.967 -534.68)"/></g></g></svg>