<svg xmlns="http://www.w3.org/2000/svg" width="71.913" height="32.791" viewBox="0 0 71.913 32.791"><defs><style>.a{fill:#fff;}</style></defs><g transform="translate(-426.42 -0.252)"><g transform="translate(427 17.552)"><path class="a" d="M-1933.888-1275.791c0-2.617-.008-5.009,0-7.4,0-.793-.633-1.266-.948-1.979h4.275c0,.036.03.111.008.131a3.929,3.929,0,0,0-1.062,3.3c.059,3.741.008,7.483.034,11.225,0,.65-.058.873-.819.724a6.654,6.654,0,0,1-4.127-2.448c-2-2.524-4.036-5.021-6.2-7.7v5.4c0,.808.022,1.616-.006,2.423-.03.888.86,1.248,1.117,2.029h-4.276c0-.061-.042-.17-.006-.207a4.362,4.362,0,0,0,.913-3.384q-.063-4.077,0-8.156a3.61,3.61,0,0,0-.75-2.543,1.262,1.262,0,0,1-.4-.849c1.458,0,2.9,0,4.34,0,.369,0,.487.3.664.518q3.345,4.146,6.682,8.3C-1934.3-1276.256-1934.161-1276.1-1933.888-1275.791Z" transform="translate(1961.991 1285.238)"/><path class="a" d="M-1776.313-1285.056c1.874,0,3.514.026,5.153-.015.522-.013.62.284.754.644,1.357,3.647,2.728,7.288,4.073,10.94a7.439,7.439,0,0,0,2.107,3.473h-6.929c1.707-1.454.244-2.865-.028-4.3-.046-.241-.287-.206-.47-.206-1.237,0-2.475.007-3.712-.009a.527.527,0,0,0-.587.413c-.173.536-.366,1.066-.55,1.6-.312.9-.563,1.793.722,2.525h-4.674c2.043-3.426,2.807-7.357,4.266-11.015.2-.5.339-1.018.52-1.523A1.97,1.97,0,0,0-1776.313-1285.056Zm2.794,4.091-.169.013c-.214.631-.45,1.255-.635,1.894a9.636,9.636,0,0,0-.677,2.349l2.482.044a.8.8,0,0,1,.08,0c.333.038.423-.078.3-.405C-1772.6-1278.366-1773.059-1279.667-1773.52-1280.965Z" transform="translate(1823.087 1285.1)"/><path class="a" d="M-1837.473-1270.04h-6.086a3.755,3.755,0,0,0,.943-3.027c-.011-3.15,0-6.3,0-9.449a2.98,2.98,0,0,0-1.05-2.6c.739,0,1.287-.014,1.835,0a51.693,51.693,0,0,1,6.529.154,3.867,3.867,0,0,1,3.373,3.223,4.056,4.056,0,0,1-2.232,4.574,6.05,6.05,0,0,1-3.865.589c1.8-1.479,2.313-2.883,1.729-4.747a2.063,2.063,0,0,0-1.627-1.508c-.376-.081-.6-.033-.6.455.019,3.257.005,6.515.022,9.772A3.61,3.61,0,0,0-1837.473-1270.04Z" transform="translate(1876.09 1285.159)"/><path class="a" d="M-2035.543-1274.057c1.156-3.108,2.234-6.056,3.355-8.988a1.824,1.824,0,0,0-.35-1.655c-.228-.418-.181-.559.316-.544.78.024,1.563.035,2.341,0,.567-.028.7.108.5.673-1.078,2.978-2.122,5.969-3.181,8.954-.629,1.771-1.281,3.533-1.885,5.312-.157.464-.369.557-.818.438a6.187,6.187,0,0,1-4.632-3.94c-1.409-3.795-2.939-7.544-4.465-11.433,1.529,0,3.016-.006,4.5,0,.46,0,.425.442.523.711,1.157,3.178,2.294,6.363,3.438,9.546C-2035.815-1274.735-2035.713-1274.492-2035.543-1274.057Z" transform="translate(2044.367 1285.25)"/><path class="a" d="M-1690.212-1284.93h5.055c-.015.332-.237.51-.384.723q-2.409,3.485-4.835,6.957a1.778,1.778,0,0,0-.349,1.118c.023,1.157.013,2.315.014,3.472a3.4,3.4,0,0,0,1.06,2.737H-1696c.9-.738.85-1.721.971-2.705a9.2,9.2,0,0,0-2.277-7.493,24.832,24.832,0,0,1-1.807-2.671,7.791,7.791,0,0,0-1.916-2.176c1.9,0,3.6.009,5.31-.006.394,0,.481.3.63.532.934,1.477,1.869,2.954,2.776,4.447.251.414.391.406.648.016.561-.854,1.192-1.664,1.724-2.534A1.659,1.659,0,0,0-1690.212-1284.93Z" transform="translate(1756.49 1285.018)"/></g><path class="a" d="M7.986-17.093a.112.112,0,0,1,0,.028q0,.011-.009.028l-2.042,7.3A1.581,1.581,0,0,1,4.206-8.548,1.585,1.585,0,0,1,2.474-9.737l-2.042-7.3a.142.142,0,0,0,0-.034.107.107,0,0,0-.009-.023.18.18,0,0,1,.064-.145.241.241,0,0,1,.161-.054H1.964a.228.228,0,0,1,.152.057.251.251,0,0,1,.085.142l1.8,7a.332.332,0,0,0,.07.151.188.188,0,0,0,.131.037.176.176,0,0,0,.128-.037.36.36,0,0,0,.067-.151l1.8-7a.251.251,0,0,1,.085-.142.228.228,0,0,1,.152-.057H7.761a.241.241,0,0,1,.161.054A.18.18,0,0,1,7.986-17.093Zm4.047,8.221a.21.21,0,0,1-.079.165.256.256,0,0,1-.17.068H10.55a.256.256,0,0,1-.17-.068.21.21,0,0,1-.079-.165v-8.2a.2.2,0,0,1,.076-.156.258.258,0,0,1,.173-.065h1.234a.258.258,0,0,1,.173.065.2.2,0,0,1,.076.156Zm1.118-10.7a.128.128,0,0,1-.049.091l-1.465,1.444a.855.855,0,0,1-.137.117.311.311,0,0,1-.167.037h-1.07q-.109,0-.109-.08a.156.156,0,0,1,.049-.119l1.185-1.4a.608.608,0,0,1,.149-.139.375.375,0,0,1,.173-.031h1.307Q13.151-19.651,13.151-19.572ZM26.07-12.107a4.138,4.138,0,0,1-.261,1.526,2.932,2.932,0,0,1-.76,1.114,3.291,3.291,0,0,1-1.225.685,5.436,5.436,0,0,1-1.662.233q-.328,0-.7-.014T20.746-8.6q-.34-.02-.617-.043t-.416-.045a.451.451,0,0,1-.24-.108.344.344,0,0,1-.082-.256v-3.388h-.723a.239.239,0,0,1-.17-.063.208.208,0,0,1-.067-.159v-.87a.191.191,0,0,1,.067-.153.254.254,0,0,1,.17-.057h.723v-3.144a.334.334,0,0,1,.082-.253.465.465,0,0,1,.24-.105q.14-.023.416-.048t.617-.045q.34-.02.714-.034t.7-.014a5.437,5.437,0,0,1,1.662.233,3.291,3.291,0,0,1,1.225.685,2.928,2.928,0,0,1,.76,1.117,4.161,4.161,0,0,1,.261,1.529Zm-1.714-1.711a2.988,2.988,0,0,0-.167-1.08,1.661,1.661,0,0,0-.462-.677,1.658,1.658,0,0,0-.7-.347,3.705,3.705,0,0,0-.869-.1q-.346,0-.6.011l-.447.023v2.246H22a.254.254,0,0,1,.17.057.191.191,0,0,1,.067.153v.87a.208.208,0,0,1-.067.159.239.239,0,0,1-.17.063h-.887v2.5l.447.023q.252.011.6.011a3.6,3.6,0,0,0,.869-.1,1.7,1.7,0,0,0,.7-.347,1.638,1.638,0,0,0,.462-.674,2.988,2.988,0,0,0,.167-1.08Zm6.089,4.946a.21.21,0,0,1-.079.165.256.256,0,0,1-.17.068H28.962a.256.256,0,0,1-.17-.068.21.21,0,0,1-.079-.165v-8.2a.2.2,0,0,1,.076-.156.258.258,0,0,1,.173-.065H30.2a.258.258,0,0,1,.173.065.2.2,0,0,1,.076.156Zm8.337-.08q0,.216-.249.244-.122.011-.319.045t-.6.063q-.4.028-.647.04t-.8.011a5.134,5.134,0,0,1-1.516-.2,1.839,1.839,0,0,1-.994-.722,2.541,2.541,0,0,1-.365-1.464V-15a2.555,2.555,0,0,1,.365-1.467,1.835,1.835,0,0,1,.994-.725,5.134,5.134,0,0,1,1.516-.2,15.206,15.206,0,0,1,2.364.165.343.343,0,0,1,.2.068.243.243,0,0,1,.052.176v.745a.218.218,0,0,1-.073.165.249.249,0,0,1-.176.068h-2.54a1.066,1.066,0,0,0-.76.216,1.094,1.094,0,0,0-.219.785v1.256h3.373a.249.249,0,0,1,.176.068.218.218,0,0,1,.073.165v.836a.21.21,0,0,1-.079.165.256.256,0,0,1-.17.068H35.014v1.507a1.1,1.1,0,0,0,.219.782,1.057,1.057,0,0,0,.76.219h2.54a.256.256,0,0,1,.182.063.222.222,0,0,1,.067.171ZM37.2-6.473a.205.205,0,0,1-.082.168.281.281,0,0,1-.179.065h-.893a.281.281,0,0,1-.179-.065.205.205,0,0,1-.082-.168V-7.5a.21.21,0,0,1,.082-.162.268.268,0,0,1,.179-.071h.893a.268.268,0,0,1,.179.071A.21.21,0,0,1,37.2-7.5Zm1.465-11.5q0,.08-.115.08H37.518a.323.323,0,0,1-.112-.017.267.267,0,0,1-.088-.057l-.085-.08-.881-.944-.887.944a.982.982,0,0,1-.14.122.3.3,0,0,1-.158.031H34.132q-.109,0-.109-.08a.156.156,0,0,1,.049-.119l1.143-1.4a.852.852,0,0,1,.161-.142.365.365,0,0,1,.167-.028h1.617a.355.355,0,0,1,.17.031.736.736,0,0,1,.152.139l1.136,1.4A.156.156,0,0,1,38.666-17.974Zm9.8,8.869a.435.435,0,0,1-.146.33.5.5,0,0,1-.352.136H46.712a1.163,1.163,0,0,1-.456-.074.679.679,0,0,1-.3-.347l-2.759-5.668q-.049-.091-.115-.091t-.061.091v5.856a.219.219,0,0,1-.07.168.236.236,0,0,1-.167.065H41.722a.256.256,0,0,1-.17-.068.21.21,0,0,1-.079-.165v-7.953a.435.435,0,0,1,.146-.33.5.5,0,0,1,.352-.136h1.343a.577.577,0,0,1,.325.08.725.725,0,0,1,.222.3l2.9,5.986q.049.091.1.091t.061-.108V-17.07a.208.208,0,0,1,.067-.159.239.239,0,0,1,.17-.063h1.07a.239.239,0,0,1,.17.063.208.208,0,0,1,.067.159Zm13.277-7.044a.183.183,0,0,1-.073.156.288.288,0,0,1-.176.054H59.32v7.067a.215.215,0,0,1-.073.168.255.255,0,0,1-.176.065H57.837a.256.256,0,0,1-.17-.068.21.21,0,0,1-.079-.165v-7.067H55.413A.278.278,0,0,1,55.236-16a.184.184,0,0,1-.073-.153v-.921a.207.207,0,0,1,.07-.156.252.252,0,0,1,.179-.065H61.5a.266.266,0,0,1,.179.06.2.2,0,0,1,.07.162Zm5.715-3.775a2.535,2.535,0,0,0-.593.148.3.3,0,0,1-.27,0q-.1-.063-.1-.125v-.352a.2.2,0,0,1,.043-.108.69.69,0,0,1,.267-.156,1.981,1.981,0,0,1,.474-.131,3.544,3.544,0,0,1,.632-.023,1.233,1.233,0,0,1,.681.225.79.79,0,0,1,.3.694v.028a.964.964,0,0,1-.073.367,1.792,1.792,0,0,1-.328.463l-.34.37a.938.938,0,0,1-.085.1.961.961,0,0,0-.091.105.359.359,0,0,0-.049.1.371.371,0,0,0-.018.114v.2q0,.04-.07.1a.285.285,0,0,1-.191.06h-.462a.278.278,0,0,1-.194-.057.154.154,0,0,1-.061-.1v-.2a1.028,1.028,0,0,1,.067-.4,1.407,1.407,0,0,1,.267-.372l.352-.381a.966.966,0,0,0,.158-.253.324.324,0,0,0,.03-.244.237.237,0,0,0-.106-.131A.508.508,0,0,0,67.46-19.924Zm3.412,4.895v3.189a4.32,4.32,0,0,1-.243,1.546,2.448,2.448,0,0,1-.693,1.012,2.822,2.822,0,0,1-1.079.557,5.212,5.212,0,0,1-1.407.176,5.179,5.179,0,0,1-1.4-.176,2.839,2.839,0,0,1-1.073-.551,2.454,2.454,0,0,1-.7-1.02,4.286,4.286,0,0,1-.249-1.543v-5.23a.207.207,0,0,1,.07-.156.252.252,0,0,1,.179-.065h1.234a.258.258,0,0,1,.173.065.2.2,0,0,1,.076.156v5.23a3.442,3.442,0,0,0,.149,1.12,1.128,1.128,0,0,0,.514.628,2.1,2.1,0,0,0,1.027.208,2.109,2.109,0,0,0,1.033-.21A1.121,1.121,0,0,0,69-10.723a3.482,3.482,0,0,0,.146-1.117v-5.23a.207.207,0,0,1,.07-.156.252.252,0,0,1,.179-.065h1.228a.266.266,0,0,1,.179.06.2.2,0,0,1,.07.162v1.035a.7.7,0,0,0,.292-.517v-.6q-.006-.125.207-.136h.772a.154.154,0,0,1,.17.114Q72.5-15.262,70.872-15.029Z" transform="translate(426 20.928)"/></g></svg>