<svg xmlns="http://www.w3.org/2000/svg" width="25" height="25" viewBox="0 0 25 25"><defs><style>.a{fill:#707070;}</style></defs><path class="a" d="M59.867,47.367a12.5,12.5,0,1,0,12.5,12.5A12.5,12.5,0,0,0,59.867,47.367ZM52.576,67.305c1.217-3.646,4.862-2.222,5.469-4.2V61.792a3.494,3.494,0,0,1-1.139-1.945c-.216-.016-.549-.232-.651-1.074a.8.8,0,0,1,.289-.789,4.187,4.187,0,0,1-.322-1.457c0-2.161,1.07-3.951,3.646-3.951a1.918,1.918,0,0,1,1.823.985c1.245,0,1.823,1.367,1.823,2.962a3.732,3.732,0,0,1-.321,1.461.788.788,0,0,1,.289.785c-.1.847-.435,1.062-.651,1.078a3.51,3.51,0,0,1-1.139,1.945v1.314c.606,1.978,4.252.553,5.469,4.2a10.414,10.414,0,0,1-14.583,0Z" transform="translate(-47.367 -47.367)"/></svg>