<svg xmlns="http://www.w3.org/2000/svg" width="25" height="25" viewBox="0 0 25 25"><defs><style>.a{fill:#707070;}</style></defs><g transform="translate(-781 -5623)"><path class="a" d="M10.5,10.5H28V8H8V28h2.5Z" transform="translate(773 5615)"/><path class="a" d="M44,24H24V44H44Zm-3.6,8.9L38.033,35.27,36.266,33.5l2.368-2.368a1.25,1.25,0,1,0-1.768-1.768l-2.378,2.378,1.768,1.768-2.5,2.5,1.768,1.768L32.9,40.4a3.75,3.75,0,1,1-5.3-5.3l2.617-2.617,1.768,1.768,2.48-2.48L32.7,30l2.4-2.4a3.75,3.75,0,1,1,5.3,5.3Z" transform="translate(762 5604)"/><path class="a" d="M40.366,59.446a1.25,1.25,0,0,0,0,1.768,1.277,1.277,0,0,0,1.768,0l2.6-2.6-1.768-1.768Z" transform="translate(751 5581.42)"/></g></svg>