<?xml version="1.0" encoding="utf-8"?>
<!-- Generator: Adobe Illustrator 19.1.0, SVG Export Plug-In . SVG Version: 6.00 Build 0)  -->
<svg version="1.1" id="Layer_1" xmlns="http://www.w3.org/2000/svg" xmlns:xlink="http://www.w3.org/1999/xlink" x="0px" y="0px"
	 viewBox="0 0 32 64" style="enable-background:new 0 0 32 64;" xml:space="preserve">
<style type="text/css">
	.st0{fill:#38A4DC;}
	.st1{fill:#4B4A4B;}
</style>
<path class="st0" d="M23.4,27H5.2C4.5,27,4,26.4,4,25.6V14.9c0-0.7,0.6-1.3,1.2-1.3H6c-0.7-0.9-1.1-2-1.1-3.2C4.9,7.4,7.3,5,10.1,5
	c1.7,0,3.2,0.8,4.2,2.2c1-1.3,2.5-2.2,4.2-2.2c2.9,0,5.2,2.4,5.2,5.3c0,1.2-0.4,2.3-1.1,3.2h0.7c0.7,0,1.2,0.6,1.2,1.3v1.4l1.5-1
	c0.4-0.3,0.9-0.3,1.3,0c0.4,0.2,0.6,0.7,0.6,1.1v7.6c0,0.5-0.2,0.9-0.6,1.1c-0.4,0.3-0.9,0.3-1.3,0l-1.5-1v1.6
	C24.6,26.4,24,27,23.4,27z M5.5,25.4h17.6v-2.9c0-0.3,0.2-0.5,0.4-0.7c0.2-0.1,0.5-0.1,0.8,0l2.2,1.5v-6.7l-2.2,1.5
	c-0.2,0.2-0.5,0.2-0.8,0c-0.2-0.1-0.4-0.4-0.4-0.7v-2.6h-2.4c-0.3,0-0.6-0.2-0.7-0.6c-0.1-0.3,0.1-0.7,0.4-0.9
	c1.2-0.7,1.9-1.9,1.9-3.3c0-2.1-1.7-3.8-3.7-3.8c-1.5,0-2.9,1-3.5,2.5c-0.1,0.3-0.4,0.5-0.7,0.5c-0.3,0-0.6-0.2-0.7-0.5
	c-0.5-1.5-1.9-2.5-3.5-2.5c-2,0-3.7,1.7-3.7,3.8c0,1.4,0.7,2.6,1.9,3.3c0.3,0.2,0.4,0.5,0.4,0.9c-0.1,0.3-0.4,0.6-0.7,0.6H5.5V25.4z
	 M26.6,16.5L26.6,16.5L26.6,16.5L26.6,16.5z"/>
<path class="st1" d="M23.4,59H5.2C4.6,59,4,58.4,4,57.6V46.9c0-0.7,0.6-1.3,1.2-1.3H6c-0.7-0.9-1.1-2-1.1-3.2c0-2.9,2.3-5.3,5.2-5.3
	c1.7,0,3.2,0.8,4.2,2.2c1-1.3,2.5-2.2,4.2-2.2c2.9,0,5.2,2.4,5.2,5.3c0,1.2-0.4,2.3-1.1,3.2h0.7c0.7,0,1.2,0.6,1.2,1.3v1.4l1.5-1
	c0.4-0.3,0.9-0.3,1.3,0c0.4,0.2,0.6,0.7,0.6,1.1v7.6c0,0.5-0.2,0.9-0.6,1.1c-0.4,0.3-0.9,0.3-1.3,0l-1.5-1v1.6
	C24.6,58.4,24,59,23.4,59z M5.5,57.4h17.6v-2.9c0-0.3,0.2-0.5,0.4-0.7c0.2-0.1,0.5-0.1,0.8,0l2.2,1.5v-6.7l-2.2,1.5
	c-0.2,0.2-0.5,0.2-0.8,0c-0.2-0.1-0.4-0.4-0.4-0.7v-2.6h-2.4c-0.3,0-0.6-0.2-0.7-0.6c-0.1-0.3,0.1-0.7,0.4-0.9
	c1.2-0.7,1.9-1.9,1.9-3.3c0-2.1-1.7-3.8-3.7-3.8c-1.5,0-2.9,1-3.5,2.5c-0.1,0.3-0.4,0.5-0.7,0.5c-0.3,0-0.6-0.2-0.7-0.5
	c-0.5-1.5-1.9-2.5-3.5-2.5c-2,0-3.7,1.7-3.7,3.8c0,1.4,0.7,2.6,1.9,3.3c0.3,0.2,0.4,0.5,0.4,0.9c-0.1,0.3-0.4,0.6-0.7,0.6H5.5
	L5.5,57.4L5.5,57.4z M26.6,48.5L26.6,48.5L26.6,48.5L26.6,48.5z"/>
</svg>
