<?xml version="1.0" encoding="utf-8"?>
<!-- Generator: Adobe Illustrator 19.1.0, SVG Export Plug-In . SVG Version: 6.00 Build 0)  -->
<svg version="1.1" id="Layer_1" xmlns="http://www.w3.org/2000/svg" xmlns:xlink="http://www.w3.org/1999/xlink" x="0px" y="0px"
	 viewBox="0 0 32 64" style="enable-background:new 0 0 32 64;" xml:space="preserve">
<style type="text/css">
	.st0{fill:#38A4DC;}
	.st1{fill:#4B4B4B;}
</style>
<path class="st0" d="M24.721,26H7.278c-2.095,0-3.793-1.722-3.793-3.846V9.846C3.485,7.722,5.183,6,7.278,6h17.443
	c2.095,0,3.793,1.722,3.793,3.846v12.308C28.514,24.278,26.816,26,24.721,26z M27.035,9.846c0-1.294-1.038-2.346-2.314-2.346H7.278
	c-1.276,0-2.314,1.052-2.314,2.346v12.308c0,1.294,1.038,2.346,2.314,2.346h17.443c1.276,0,2.314-1.052,2.314-2.346V9.846z
	 M15.241,19.715c-0.758,0.445-1.706-0.111-1.706-0.999v-4.663c0-0.888,0.948-1.443,1.706-0.999l3.982,2.331
	c0.758,0.444,0.758,1.555,0,1.999L15.241,19.715z"/>
<path class="st1" d="M24.721,58H7.278c-2.095,0-3.793-1.722-3.793-3.846V41.846C3.485,39.722,5.183,38,7.278,38h17.443
	c2.095,0,3.793,1.722,3.793,3.846v12.308C28.514,56.278,26.816,58,24.721,58z M27.035,41.846c0-1.294-1.038-2.346-2.314-2.346H7.278
	c-1.276,0-2.314,1.052-2.314,2.346v12.308c0,1.294,1.038,2.346,2.314,2.346h17.443c1.276,0,2.314-1.052,2.314-2.346V41.846z
	 M15.241,51.715c-0.758,0.445-1.706-0.111-1.706-0.999v-4.663c0-0.888,0.948-1.443,1.706-0.999l3.982,2.331
	c0.758,0.444,0.758,1.555,0,1.999L15.241,51.715z"/>
</svg>
