<svg xmlns="http://www.w3.org/2000/svg" xmlns:xlink="http://www.w3.org/1999/xlink" preserveAspectRatio="xMidYMid" width="64" height="64" viewBox="0 0 64 64">
  <defs>
    <style>
      .cls-1 {
        fill: #dcdcdf;
        fill-rule: evenodd;
      }
    </style>
  </defs>
  <path d="M41.105,22.086 L22.895,22.086 C20.752,22.086 19.007,23.830 19.007,25.974 L19.007,38.026 C19.007,40.170 20.752,41.914 22.895,41.914 L41.105,41.914 C43.248,41.914 44.993,40.170 44.993,38.026 L44.993,25.974 C44.993,23.830 43.248,22.086 41.105,22.086 ZM42.269,38.026 C42.269,38.668 41.747,39.190 41.105,39.190 L22.895,39.190 C22.253,39.190 21.731,38.668 21.731,38.026 L21.731,25.974 C21.731,25.332 22.253,24.809 22.895,24.809 L41.105,24.809 C41.747,24.809 42.269,25.332 42.269,25.974 L42.269,38.026 ZM54.748,9.520 C54.710,9.470 54.673,9.419 54.627,9.373 C54.582,9.327 54.530,9.290 54.480,9.252 C48.696,3.536 40.754,-0.000 32.000,-0.000 C14.355,-0.000 -0.000,14.355 -0.000,32.000 C-0.000,40.754 3.536,48.696 9.252,54.480 C9.290,54.530 9.327,54.581 9.373,54.627 C9.418,54.673 9.470,54.710 9.520,54.748 C15.304,60.464 23.246,64.000 32.000,64.000 C49.645,64.000 64.000,49.645 64.000,32.000 C64.000,23.246 60.464,15.303 54.748,9.520 ZM32.000,61.277 C24.417,61.277 17.499,58.378 12.294,53.632 L20.183,45.743 C20.715,45.211 20.715,44.349 20.183,43.818 C19.651,43.286 18.789,43.286 18.258,43.818 L10.369,51.707 C5.622,46.501 2.723,39.583 2.723,32.000 C2.723,15.857 15.857,2.723 32.000,2.723 C39.583,2.723 46.501,5.622 51.706,10.368 L43.221,18.853 C42.689,19.384 42.689,20.246 43.221,20.778 C43.487,21.044 43.835,21.177 44.184,21.177 C44.532,21.177 44.880,21.044 45.147,20.778 L53.631,12.293 C58.378,17.499 61.277,24.417 61.277,32.000 C61.277,48.143 48.143,61.277 32.000,61.277 ZM35.106,32.590 L30.936,34.997 C30.482,35.259 29.915,34.932 29.915,34.408 L29.915,29.592 C29.915,29.068 30.482,28.741 30.936,29.003 L35.106,31.410 C35.560,31.672 35.560,32.328 35.106,32.590 Z" class="cls-1"/>
</svg>
