<svg width="16" height="16" viewBox="0 0 16 16" version="1.1" xmlns="http://www.w3.org/2000/svg" xmlns:xlink="http://www.w3.org/1999/xlink">
<title>Vector</title>
<desc>Created using Figma</desc>
<g id="Canvas" transform="translate(-8980 -891)">
<g id="Vector">
<use xlink:href="#path0_fill" transform="matrix(6.12323e-17 -1 1 6.12323e-17 8980 907)" fill="#FFFFFF"/>
<use xlink:href="#path1_fill" transform="matrix(6.12323e-17 -1 1 6.12323e-17 8980 907)" fill="#FFFFFF"/>
<use xlink:href="#path2_fill" transform="matrix(6.12323e-17 -1 1 6.12323e-17 8980 907)" fill="#FFFFFF"/>
</g>
</g>
<defs>
<path id="path0_fill" d="M 14.0184 6.51138C 14.472 6.05551 15.2064 6.05551 15.6603 6.51138C 16.1131 6.96651 16.1134 7.7055 15.6603 8.16137L 8.82082 15.0367C 8.36804 15.4922 7.63287 15.4918 7.17972 15.0363C 6.72657 14.5808 6.72657 13.8422 7.17935 13.3863L 14.0184 6.51138Z"/>
<path id="path1_fill" d="M 0.339815 8.16137C -0.113333 7.70587 -0.113333 6.96688 0.340183 6.51101C 0.793331 6.05514 1.52814 6.05551 1.98165 6.51138L 8.82111 13.386C 9.27425 13.8418 9.27434 14.5808 8.82082 15.0367C 8.36804 15.4922 7.63287 15.4918 7.17972 15.0363L 0.339815 8.16137Z"/>
<path id="path2_fill" d="M 6.8391 1.16681C 6.8391 0.521944 7.35834 0 7.99988 0C 8.64031 0 9.16029 0.522313 9.16029 1.16644L 9.16066 14.2113C 9.16102 14.8558 8.64104 15.3778 7.99988 15.3778C 7.35908 15.3778 6.83946 14.8555 6.83946 14.2113L 6.8391 1.16681Z"/>
</defs>
</svg>
