<svg width="54" height="54" viewBox="0 0 54 54" version="1.1" xmlns="http://www.w3.org/2000/svg" xmlns:xlink="http://www.w3.org/1999/xlink">
<title>close</title>
<desc>Created using Figma</desc>
<g id="Canvas" transform="translate(-7285 -765)">
<g id="close">
<g id="Ellipse 2" filter="url(#filter0_d)">
<use xlink:href="#path0_fill" transform="translate(7287 765)" fill="#FFFFFF"/>
<mask id="mask0_outline_ins">
<use xlink:href="#path0_fill" fill="white" transform="translate(7287 765)"/>
</mask>
<g mask="url(#mask0_outline_ins)">
<use xlink:href="#path1_stroke_2x" transform="translate(7287 765)" fill="#E4EBF0"/>
</g>
</g>
<g id="Vector">
<use xlink:href="#path2_stroke" transform="matrix(5.55112e-17 1 -1 5.55112e-17 7316.97 781)" fill="#4E5D6B"/>
</g>
</g>
</g>
<defs>
<filter id="filter0_d" filterUnits="userSpaceOnUse" x="7285" y="765" width="54" height="54" color-interpolation-filters="sRGB">
<feFlood flood-opacity="0" result="BackgroundImageFix"/>
<feColorMatrix in="SourceAlpha" type="matrix" values="0 0 0 0 0 0 0 0 0 0 0 0 0 0 0 0 0 0 255 0"/>
<feOffset dx="2" dy="4"/>
<feGaussianBlur stdDeviation="2"/>
<feColorMatrix type="matrix" values="0 0 0 0 0 0 0 0 0 0 0 0 0 0 0 0 0 0 0.1 0"/>
<feBlend mode="normal" in2="BackgroundImageFix" result="effect1_dropShadow"/>
<feBlend mode="normal" in="SourceGraphic" in2="effect1_dropShadow" result="shape"/>
</filter>
<path id="path0_fill" d="M 46 23C 46 35.7025 35.7025 46 23 46C 10.2975 46 0 35.7025 0 23C 0 10.2975 10.2975 0 23 0C 35.7025 0 46 10.2975 46 23Z"/>
<path id="path1_stroke_2x" d="M 44 23C 44 34.598 34.598 44 23 44L 23 48C 36.8071 48 48 36.8071 48 23L 44 23ZM 23 44C 11.402 44 2 34.598 2 23L -2 23C -2 36.8071 9.19288 48 23 48L 23 44ZM 2 23C 2 11.402 11.402 2 23 2L 23 -2C 9.19288 -2 -2 9.19288 -2 23L 2 23ZM 23 2C 34.598 2 44 11.402 44 23L 48 23C 48 9.19288 36.8071 -2 23 -2L 23 2Z"/>
<path id="path2_stroke" d="M 12.4738 -1.06066L 5.69217 5.72095L 7.81349 7.84228L 14.5951 1.06066L 12.4738 -1.06066ZM 5.69217 5.72095L -1.06066 12.4738L 1.06066 14.5951L 7.81349 7.84228L 5.69217 5.72095ZM 15.0319 12.9393L 7.81349 5.72095L 5.69217 7.84228L 12.9106 15.0607L 15.0319 12.9393ZM 7.81349 5.72095L 1.49742 -0.595123L -0.623905 1.5262L 5.69217 7.84228L 7.81349 5.72095Z"/>
</defs>
</svg>
