<svg width="21" height="22" viewBox="0 0 21 22" version="1.1" xmlns="http://www.w3.org/2000/svg" xmlns:xlink="http://www.w3.org/1999/xlink">
<title>Vector</title>
<desc>Created using Figma</desc>
<g id="Canvas" transform="translate(-9494 3827)">
<g id="Vector" filter="url(#filter0_d)">
<use xlink:href="#path0_stroke" transform="translate(9497 -3826)" fill="#A6B5C5"/>
</g>
</g>
<defs>
<filter id="filter0_d" filterUnits="userSpaceOnUse" x="9494" y="-3827" width="21" height="22" color-interpolation-filters="sRGB">
<feFlood flood-opacity="0" result="BackgroundImageFix"/>
<feColorMatrix in="SourceAlpha" type="matrix" values="0 0 0 0 0 0 0 0 0 0 0 0 0 0 0 0 0 0 255 0"/>
<feOffset dx="0" dy="2"/>
<feGaussianBlur stdDeviation="1"/>
<feColorMatrix type="matrix" values="0 0 0 0 0 0 0 0 0 0 0 0 0 0 0 0 0 0 0.03 0"/>
<feBlend mode="normal" in2="BackgroundImageFix" result="effect1_dropShadow"/>
<feBlend mode="normal" in="SourceGraphic" in2="effect1_dropShadow" result="shape"/>
</filter>
<path id="path0_stroke" d="M 0.432037 5.94655L 0.0617579 6.5406L 0.432037 5.94655ZM 0.114852 4.72362L 0.723629 5.06915L 0.114852 4.72362ZM 0.994057 3.17457L 1.60283 3.5201L 0.994057 3.17457ZM 2.19306 2.84309L 2.53211 2.23068L 2.19306 2.84309ZM 2.84188 3.20229L 3.18092 2.58987L 2.84188 3.20229ZM 3.72516 3.19711L 4.0755 3.80314L 3.72516 3.19711ZM 5.14471 2.3765L 5.49504 2.98252L 5.14471 2.3765ZM 5.59056 1.61364L 4.89067 1.60106L 5.59056 1.61364ZM 5.60389 0.872133L 6.30378 0.884719L 5.60389 0.872133ZM 6.49046 2.80304e-05L 6.49605 -0.69995L 6.49046 2.80304e-05ZM 8.27157 0.0142539L 8.27716 -0.685724L 8.27157 0.0142539ZM 9.17205 0.900631L 8.47245 0.924278L 9.17205 0.900631ZM 9.19713 1.64245L 8.49753 1.66609L 9.19713 1.64245ZM 9.65511 2.41252L 10.0102 1.80929L 9.65511 2.41252ZM 11.0878 3.25592L 10.7327 3.85916L 11.0878 3.25592ZM 11.9713 3.27521L 12.305 3.89052L 11.9713 3.27521ZM 12.6145 2.92633L 12.9483 3.54164L 12.6145 2.92633ZM 13.8189 3.27701L 13.2129 3.62738L 13.8189 3.27701ZM 14.7228 4.84029L 15.3288 4.48992L 14.7228 4.84029ZM 14.4249 6.05831L 14.0589 5.46162L 14.4249 6.05831ZM 13.8009 6.44106L 14.1669 7.03776L 13.8009 6.44106ZM 13.3754 7.21603L 14.0754 7.21049L 13.3754 7.21603ZM 13.3886 8.87882L 12.6886 8.88436L 13.3886 8.87882ZM 13.8264 9.66068L 14.1967 9.06663L 13.8264 9.66068ZM 14.4565 10.0534L 14.0862 10.6475L 14.4565 10.0534ZM 14.7737 11.2764L 14.1649 10.9309L 14.7737 11.2764ZM 13.8945 12.8254L 14.5033 13.171L 13.8945 12.8254ZM 12.6955 13.1569L 13.0345 12.5445L 12.6955 13.1569ZM 12.0467 12.7977L 12.3857 12.1853L 12.0467 12.7977ZM 11.1634 12.8029L 10.813 12.1969L 11.1634 12.8029ZM 9.74383 13.6235L 10.0942 14.2295L 9.74383 13.6235ZM 9.29798 14.3864L 8.5981 14.3738L 9.29798 14.3864ZM 9.28465 15.1279L 9.98454 15.1405L 9.28465 15.1279ZM 8.39808 16L 8.40367 15.3L 8.39808 16ZM 6.61697 15.9857L 6.62257 15.2858L 6.61697 15.9857ZM 5.71649 15.0994L 5.01689 15.123L 5.71649 15.0994ZM 5.69141 14.3576L 4.99181 14.3812L 5.69141 14.3576ZM 5.23343 13.5875L 4.87832 14.1907L 5.23343 13.5875ZM 3.80072 12.7441L 4.15583 12.1408L 3.80072 12.7441ZM 2.91724 12.7248L 3.25098 13.3401L 2.91724 12.7248ZM 2.27403 13.0737L 1.94028 12.4584L 2.27403 13.0737ZM 1.06962 12.723L 0.46362 13.0734L 1.06962 12.723ZM 0.165789 11.1597L -0.440215 11.5101L 0.165789 11.1597ZM 0.463655 9.94168L 0.09765 9.34499L 0.463655 9.94168ZM 1.08764 9.55894L 0.721639 8.96224L 1.08764 9.55894ZM 1.51313 8.78397L 0.813149 8.78951L 1.51313 8.78397ZM 1.49997 7.12118L 0.79999 7.12672L 1.49997 7.12118ZM 1.06216 6.33932L 0.691885 6.93337L 1.06216 6.33932ZM 0.432038 5.94655L 0.802317 5.3525L 0.432038 5.94655ZM 0.114852 4.72362L 0.723629 5.06915L 0.114852 4.72362ZM 0.994057 3.17457L 1.60283 3.5201L 0.994057 3.17457ZM 2.19306 2.84309L 1.85402 3.4555L 2.19306 2.84309ZM 2.84188 3.20229L 2.50283 3.8147L 2.84188 3.20229ZM 3.72517 3.19711L 3.37483 2.59109L 3.72517 3.19711ZM 5.14471 2.3765L 5.49504 2.98252L 5.14471 2.3765ZM 5.59056 1.61364L 4.89067 1.60106L 5.59056 1.61364ZM 5.60389 0.872133L 6.30378 0.884719L 5.60389 0.872133ZM 6.49046 2.80311e-05L 6.48487 0.700006L 6.49046 2.80311e-05ZM 8.27157 0.0142539L 8.26597 0.714232L 8.27157 0.0142539ZM 9.17205 0.900632L 9.87165 0.876987L 9.87165 0.876987L 9.17205 0.900632ZM 9.19713 1.64245L 9.89673 1.6188L 9.19713 1.64245ZM 9.65511 2.41252L 10.0102 1.80929L 9.65511 2.41252ZM 11.0878 3.25592L 11.4429 2.65268L 11.0878 3.25592ZM 11.9713 3.2752L 11.6376 2.65989L 11.9713 3.2752ZM 12.6145 2.92633L 12.2808 2.31101L 12.6145 2.92633ZM 13.8189 3.27701L 14.4249 2.92664L 13.8189 3.27701ZM 14.7228 4.84029L 14.1167 5.19066L 14.7228 4.84029ZM 14.4249 6.05832L 14.0589 5.46162L 14.4249 6.05832ZM 13.8009 6.44106L 13.4349 5.84437L 13.8009 6.44106ZM 13.3754 7.21603L 12.6754 7.22157L 13.3754 7.21603ZM 13.3886 8.87882L 12.6886 8.88436L 13.3886 8.87882ZM 13.8264 9.66068L 13.4561 10.2547L 13.8264 9.66068ZM 14.4565 10.0534L 14.0862 10.6475L 14.4565 10.0534ZM 14.7737 11.2764L 14.1649 10.9309L 14.7737 11.2764ZM 13.8945 12.8254L 13.2857 12.4799L 13.8945 12.8254ZM 12.6955 13.1569L 12.3564 13.7693L 12.6955 13.1569ZM 12.0467 12.7977L 12.3857 12.1853L 12.0467 12.7977ZM 11.1634 12.8029L 10.813 12.1969L 11.1634 12.8029ZM 9.74383 13.6235L 10.0942 14.2295L 9.74383 13.6235ZM 9.29798 14.3864L 9.99787 14.3989L 9.29798 14.3864ZM 9.28465 15.1279L 9.98454 15.1405L 9.28465 15.1279ZM 8.39808 16L 8.40367 15.3L 8.39808 16ZM 6.61697 15.9857L 6.62257 15.2858L 6.61697 15.9857ZM 5.71649 15.0994L 6.41609 15.0757L 5.71649 15.0994ZM 5.69141 14.3576L 6.39101 14.3339L 5.69141 14.3576ZM 5.23343 13.5875L 4.87832 14.1907L 5.23343 13.5875ZM 3.80072 12.7441L 4.15583 12.1408L 3.80072 12.7441ZM 2.91724 12.7248L 3.25098 13.3401L 2.91724 12.7248ZM 2.27403 13.0737L 2.60777 13.689L 2.27403 13.0737ZM 1.06962 12.723L 0.46362 13.0734L 1.06962 12.723ZM 0.165789 11.1597L 0.771793 10.8093L 0.165789 11.1597ZM 0.463656 9.94168L 0.0976505 9.34499L 0.463656 9.94168ZM 1.08764 9.55894L 0.721639 8.96224L 1.08764 9.55894ZM 1.51313 8.78397L 0.813149 8.78951L 1.51313 8.78397ZM 1.49997 7.12118L 0.79999 7.12672L 1.49997 7.12118ZM 1.06216 6.33932L 1.43244 5.74527L 1.06216 6.33932ZM 8.89893 8.05283C 8.89893 8.75467 8.32997 9.32363 7.62813 9.32363L 7.62813 10.7236C 9.10317 10.7236 10.2989 9.52787 10.2989 8.05283L 8.89893 8.05283ZM 7.62813 9.32363C 6.92629 9.32363 6.35733 8.75467 6.35733 8.05283L 4.95733 8.05283C 4.95733 9.52787 6.15309 10.7236 7.62813 10.7236L 7.62813 9.32363ZM 6.35733 8.05283C 6.35733 7.35098 6.92628 6.78203 7.62813 6.78203L 7.62813 5.38203C 6.15309 5.38203 4.95733 6.57778 4.95733 8.05283L 6.35733 8.05283ZM 7.62813 6.78203C 8.32997 6.78203 8.89893 7.35098 8.89893 8.05283L 10.2989 8.05283C 10.2989 6.57778 9.10317 5.38203 7.62813 5.38203L 7.62813 6.78203ZM 0.802316 5.3525C 0.702866 5.29051 0.674992 5.15484 0.723629 5.06915L -0.493925 4.37809C -0.919487 5.12787 -0.663924 6.08827 0.0617579 6.5406L 0.802316 5.3525ZM 0.723629 5.06915L 1.60283 3.5201L 0.38528 2.82904L -0.493925 4.37809L 0.723629 5.06915ZM 1.60283 3.5201C 1.64844 3.43975 1.75829 3.40251 1.85402 3.4555L 2.53211 2.23068C 1.77349 1.81069 0.814455 2.07289 0.38528 2.82904L 1.60283 3.5201ZM 1.85402 3.4555L 2.50283 3.8147L 3.18092 2.58987L 2.53211 2.23068L 1.85402 3.4555ZM 2.50283 3.8147C 2.96127 4.0685 3.61842 4.06737 4.0755 3.80314L 3.37483 2.59109C 3.38381 2.5859 3.37998 2.58977 3.35908 2.59471C 3.33912 2.59943 3.31223 2.60302 3.28148 2.6032C 3.25076 2.60338 3.22323 2.60011 3.20209 2.59541C 3.1801 2.59052 3.17421 2.58616 3.18092 2.58987L 2.50283 3.8147ZM 4.0755 3.80314L 5.49504 2.98252L 4.79437 1.77047L 3.37483 2.59109L 4.0755 3.80314ZM 5.49504 2.98252C 5.9517 2.71854 6.28101 2.15055 6.29044 1.62623L 4.89067 1.60106C 4.8908 1.59366 4.89158 1.6011 4.88482 1.62263C 4.87832 1.64334 4.86738 1.66884 4.85188 1.69536C 4.83635 1.72191 4.81979 1.74343 4.80569 1.7584C 4.79094 1.77407 4.78557 1.77556 4.79437 1.77047L 5.49504 2.98252ZM 6.29044 1.62623L 6.30378 0.884719L 4.904 0.859548L 4.89067 1.60106L 6.29044 1.62623ZM 6.30378 0.884719C 6.30571 0.777077 6.39434 0.699283 6.48487 0.700006L 6.49605 -0.69995C 5.62594 -0.706899 4.91953 -0.00379362 4.904 0.859547L 6.30378 0.884719ZM 6.48487 0.700006L 8.26597 0.714232L 8.27716 -0.685724L 6.49605 -0.69995L 6.48487 0.700006ZM 8.26597 0.714232C 8.36653 0.715035 8.46845 0.805732 8.47245 0.924278L 9.87165 0.876985C 9.84264 0.0187217 9.13842 -0.678845 8.27716 -0.685724L 8.26597 0.714232ZM 8.47245 0.924278L 8.49753 1.66609L 9.89673 1.6188L 9.87165 0.876987L 8.47245 0.924278ZM 8.49753 1.66609C 8.51516 2.1878 8.85038 2.75108 9.3 3.01576L 10.0102 1.80929C 10.0163 1.81286 10.0085 1.80923 9.99163 1.79133C 9.97544 1.77414 9.95708 1.75034 9.94005 1.7217C 9.92302 1.69306 9.91089 1.66561 9.90355 1.64326C 9.89591 1.61996 9.89648 1.61155 9.89673 1.6188L 8.49753 1.66609ZM 9.3 3.01576L 10.7327 3.85916L 11.4429 2.65268L 10.0102 1.80929L 9.3 3.01576ZM 10.7327 3.85916C 11.1836 4.12457 11.8401 4.14273 12.305 3.89052L 11.6376 2.65989C 11.6467 2.6549 11.6429 2.65864 11.622 2.66297C 11.602 2.66711 11.5751 2.66996 11.5444 2.66928C 11.5137 2.66861 11.4862 2.66457 11.465 2.65924C 11.443 2.65369 11.4368 2.64907 11.4429 2.65268L 10.7327 3.85916ZM 12.305 3.89052L 12.9483 3.54164L 12.2808 2.31101L 11.6376 2.65989L 12.305 3.89052ZM 12.9483 3.54164C 13.0261 3.49942 13.1532 3.52414 13.2129 3.62738L 14.4249 2.92664C 13.9971 2.18671 13.0452 1.89639 12.2808 2.31101L 12.9483 3.54164ZM 13.2129 3.62738L 14.1167 5.19066L 15.3288 4.48992L 14.4249 2.92664L 13.2129 3.62738ZM 14.1167 5.19066C 14.177 5.29485 14.1358 5.41442 14.0589 5.46162L 14.7909 6.65501C 15.5356 6.19821 15.7566 5.22993 15.3288 4.48992L 14.1167 5.19066ZM 14.0589 5.46162L 13.4349 5.84437L 14.1669 7.03776L 14.7909 6.65501L 14.0589 5.46162ZM 13.4349 5.84437C 12.9846 6.12057 12.6713 6.69821 12.6754 7.22157L 14.0754 7.21049C 14.0754 7.21773 14.0745 7.2101 14.0808 7.18817C 14.0868 7.16709 14.0971 7.14112 14.112 7.11407C 14.1268 7.08698 14.1428 7.06498 14.1565 7.04967C 14.1708 7.03364 14.1759 7.03221 14.1669 7.03776L 13.4349 5.84437ZM 12.6754 7.22157L 12.6886 8.88436L 14.0885 8.87328L 14.0754 7.21049L 12.6754 7.22157ZM 12.6886 8.88436C 12.6927 9.40611 13.0124 9.97815 13.4561 10.2547L 14.1967 9.06663C 14.2026 9.07035 14.195 9.06657 14.1787 9.04835C 14.163 9.03085 14.1454 9.00669 14.1292 8.9777C 14.1129 8.94872 14.1015 8.921 14.0948 8.89843C 14.0878 8.87493 14.0885 8.86635 14.0885 8.87328L 12.6886 8.88436ZM 13.4561 10.2547L 14.0862 10.6475L 14.8268 9.4594L 14.1967 9.06663L 13.4561 10.2547ZM 14.0862 10.6475C 14.1857 10.7095 14.2135 10.8452 14.1649 10.9309L 15.3825 11.6219C 15.808 10.8721 15.5525 9.91173 14.8268 9.4594L 14.0862 10.6475ZM 14.1649 10.9309L 13.2857 12.4799L 14.5033 13.171L 15.3825 11.6219L 14.1649 10.9309ZM 13.2857 12.4799C 13.2401 12.5602 13.1303 12.5975 13.0345 12.5445L 12.3564 13.7693C 13.1151 14.1893 14.0741 13.9271 14.5033 13.171L 13.2857 12.4799ZM 13.0345 12.5445L 12.3857 12.1853L 11.7076 13.4101L 12.3564 13.7693L 13.0345 12.5445ZM 12.3857 12.1853C 11.9273 11.9315 11.2701 11.9326 10.813 12.1969L 11.5137 13.4089C 11.5047 13.4141 11.5086 13.4102 11.5295 13.4053C 11.5494 13.4006 11.5763 13.397 11.6071 13.3968C 11.6378 13.3966 11.6653 13.3999 11.6864 13.4046C 11.7084 13.4095 11.7143 13.4138 11.7076 13.4101L 12.3857 12.1853ZM 10.813 12.1969L 9.3935 13.0175L 10.0942 14.2295L 11.5137 13.4089L 10.813 12.1969ZM 9.3935 13.0175C 8.93684 13.2815 8.60752 13.8495 8.5981 14.3738L 9.99787 14.3989C 9.99774 14.4063 9.99696 14.3989 10.0037 14.3774C 10.0102 14.3567 10.0212 14.3312 10.0367 14.3046C 10.0522 14.2781 10.0687 14.2566 10.0828 14.2416C 10.0976 14.2259 10.103 14.2244 10.0942 14.2295L 9.3935 13.0175ZM 8.5981 14.3738L 8.58476 15.1153L 9.98454 15.1405L 9.99787 14.3989L 8.5981 14.3738ZM 8.58476 15.1153C 8.58283 15.2229 8.4942 15.3007 8.40367 15.3L 8.39249 16.7C 9.2626 16.7069 9.96901 16.0038 9.98454 15.1405L 8.58476 15.1153ZM 8.40367 15.3L 6.62257 15.2858L 6.61138 16.6857L 8.39249 16.7L 8.40367 15.3ZM 6.62257 15.2858C 6.52201 15.285 6.42009 15.1943 6.41609 15.0757L 5.01689 15.123C 5.0459 15.9813 5.75012 16.6788 6.61138 16.6857L 6.62257 15.2858ZM 6.41609 15.0757L 6.39101 14.3339L 4.99181 14.3812L 5.01689 15.123L 6.41609 15.0757ZM 6.39101 14.3339C 6.37338 13.8122 6.03816 13.2489 5.58854 12.9842L 4.87832 14.1907C 4.87226 14.1871 4.88004 14.1908 4.89691 14.2087C 4.9131 14.2259 4.93146 14.2497 4.94849 14.2783C 4.96552 14.3069 4.97765 14.3344 4.98499 14.3567C 4.99263 14.38 4.99206 14.3884 4.99181 14.3812L 6.39101 14.3339ZM 5.58854 12.9842L 4.15583 12.1408L 3.44561 13.3473L 4.87832 14.1907L 5.58854 12.9842ZM 4.15583 12.1408C 3.70497 11.8754 3.04848 11.8573 2.58349 12.1095L 3.25098 13.3401C 3.24179 13.3451 3.24562 13.3414 3.26653 13.337C 3.2865 13.3329 3.31342 13.33 3.34415 13.3307C 3.37486 13.3314 3.40238 13.3354 3.42357 13.3408C 3.44559 13.3463 3.45175 13.3509 3.44561 13.3473L 4.15583 12.1408ZM 2.58349 12.1095L 1.94028 12.4584L 2.60777 13.689L 3.25098 13.3401L 2.58349 12.1095ZM 1.94028 12.4584C 1.86244 12.5006 1.73532 12.4759 1.67563 12.3726L 0.46362 13.0734C 0.891418 13.8133 1.84335 14.1036 2.60777 13.689L 1.94028 12.4584ZM 1.67563 12.3726L 0.771793 10.8093L -0.440215 11.5101L 0.46362 13.0734L 1.67563 12.3726ZM 0.771793 10.8093C 0.711556 10.7052 0.752708 10.5856 0.829661 10.5384L 0.09765 9.34499C -0.647057 9.80179 -0.868061 10.7701 -0.440215 11.5101L 0.771793 10.8093ZM 0.829661 10.5384L 1.45365 10.1556L 0.721639 8.96224L 0.0976505 9.34499L 0.829661 10.5384ZM 1.45365 10.1556C 1.90392 9.87943 2.21725 9.30179 2.21311 8.77843L 0.813149 8.78951C 0.813092 8.78227 0.814034 8.7899 0.807781 8.81183C 0.801768 8.83291 0.791437 8.85888 0.776584 8.88593C 0.761713 8.91302 0.745701 8.93502 0.73205 8.95033C 0.717751 8.96636 0.712603 8.96779 0.721639 8.96224L 1.45365 10.1556ZM 2.21311 8.77843L 2.19995 7.11564L 0.79999 7.12672L 0.813149 8.78951L 2.21311 8.77843ZM 2.19995 7.11564C 2.19582 6.59388 1.87616 6.02184 1.43244 5.74527L 0.691885 6.93337C 0.68592 6.92965 0.693547 6.93343 0.709852 6.95165C 0.725508 6.96915 0.743161 6.99331 0.759385 7.0223C 0.775608 7.05128 0.786996 7.079 0.793749 7.10157C 0.800783 7.12507 0.800045 7.13365 0.79999 7.12672L 2.19995 7.11564ZM 1.43244 5.74527L 0.802317 5.3525L 0.0617586 6.5406L 0.691884 6.93337L 1.43244 5.74527ZM 7.62813 6.78203L 7.62813 5.38203L 7.62813 6.78203ZM 0.0617579 6.5406C 0.0617583 6.5406 0.0617585 6.5406 0.0617586 6.5406L 0.802317 5.3525C 0.802317 5.3525 0.802316 5.3525 0.802316 5.3525L 0.0617579 6.5406ZM 0.723629 5.06915L -0.493925 4.37809C -0.493925 4.37809 -0.493925 4.37809 -0.493925 4.37809L 0.723629 5.06915ZM 1.60283 3.5201C 1.60283 3.5201 1.60283 3.5201 1.60283 3.5201L 0.38528 2.82904C 0.38528 2.82904 0.38528 2.82904 0.38528 2.82904L 1.60283 3.5201ZM 1.85402 3.4555L 2.53211 2.23068C 2.53211 2.23068 2.53211 2.23068 2.53211 2.23068L 1.85402 3.4555ZM 2.50283 3.8147C 2.50283 3.8147 2.50283 3.8147 2.50283 3.8147L 3.18092 2.58987L 2.50283 3.8147ZM 4.0755 3.80314C 4.0755 3.80314 4.0755 3.80314 4.0755 3.80314L 3.37483 2.59109L 3.37483 2.59109L 4.0755 3.80314ZM 5.49504 2.98252L 5.49504 2.98252L 4.79437 1.77047C 4.79437 1.77047 4.79437 1.77047 4.79437 1.77047L 5.49504 2.98252ZM 6.29044 1.62623C 6.29044 1.62623 6.29044 1.62623 6.29044 1.62623L 4.89067 1.60106L 6.29044 1.62623ZM 6.30378 0.884719L 4.904 0.859547C 4.904 0.859547 4.904 0.859547 4.904 0.859548L 6.30378 0.884719ZM 6.48487 0.700006L 6.49605 -0.69995C 6.49605 -0.69995 6.49605 -0.69995 6.49605 -0.69995L 6.48487 0.700006ZM 8.26597 0.714232L 8.27716 -0.685724L 8.26597 0.714232ZM 8.47245 0.924278L 8.47245 0.924278L 9.87165 0.876987C 9.87165 0.876986 9.87165 0.876985 9.87165 0.876985L 8.47245 0.924278ZM 8.49753 1.66609C 8.49753 1.66609 8.49753 1.66609 8.49753 1.66609L 9.89673 1.6188L 9.89673 1.6188L 8.49753 1.66609ZM 9.3 3.01576C 9.3 3.01576 9.3 3.01576 9.3 3.01576L 10.0102 1.80929L 10.0102 1.80929L 9.3 3.01576ZM 10.7327 3.85916L 11.4429 2.65268C 11.4429 2.65268 11.4429 2.65268 11.4429 2.65268L 10.7327 3.85916ZM 12.305 3.89052L 12.305 3.89052L 11.6376 2.65989C 11.6376 2.65989 11.6376 2.65989 11.6376 2.65989L 12.305 3.89052ZM 12.9483 3.54164C 12.9483 3.54164 12.9483 3.54164 12.9483 3.54164L 12.2808 2.31101C 12.2808 2.31101 12.2808 2.31101 12.2808 2.31101L 12.9483 3.54164ZM 13.2129 3.62738L 14.4249 2.92664C 14.4249 2.92664 14.4249 2.92664 14.4249 2.92664L 13.2129 3.62738ZM 14.1167 5.19066C 14.1167 5.19066 14.1167 5.19066 14.1167 5.19066L 15.3288 4.48992L 14.1167 5.19066ZM 14.0589 5.46162L 14.7909 6.65501C 14.7909 6.65501 14.7909 6.65501 14.7909 6.65501L 14.0589 5.46162ZM 13.4349 5.84437C 13.4349 5.84437 13.4349 5.84437 13.4349 5.84437L 14.1669 7.03776L 14.1669 7.03776L 13.4349 5.84437ZM 12.6754 7.22157C 12.6754 7.22157 12.6754 7.22157 12.6754 7.22157L 14.0754 7.21049L 12.6754 7.22157ZM 12.6886 8.88436L 14.0885 8.87328L 12.6886 8.88436ZM 13.4561 10.2547L 14.1967 9.06663C 14.1967 9.06663 14.1967 9.06663 14.1967 9.06663L 13.4561 10.2547ZM 14.0862 10.6475L 14.0862 10.6475L 14.8268 9.4594C 14.8268 9.4594 14.8268 9.4594 14.8268 9.4594L 14.0862 10.6475ZM 14.1649 10.9309L 15.3825 11.6219C 15.3825 11.6219 15.3825 11.6219 15.3825 11.6219L 14.1649 10.9309ZM 13.2857 12.4799L 13.2857 12.4799L 14.5033 13.171L 13.2857 12.4799ZM 13.0345 12.5445C 13.0345 12.5445 13.0345 12.5445 13.0345 12.5445L 12.3564 13.7693C 12.3564 13.7693 12.3564 13.7693 12.3564 13.7693L 13.0345 12.5445ZM 12.3857 12.1853C 12.3857 12.1853 12.3857 12.1853 12.3857 12.1853L 11.7076 13.4101C 11.7076 13.4101 11.7076 13.4101 11.7076 13.4101L 12.3857 12.1853ZM 10.813 12.1969L 11.5137 13.4089L 10.813 12.1969ZM 9.3935 13.0175C 9.3935 13.0175 9.3935 13.0175 9.3935 13.0175L 10.0942 14.2295L 9.3935 13.0175ZM 8.5981 14.3738C 8.5981 14.3738 8.5981 14.3738 8.5981 14.3738L 9.99787 14.3989L 8.5981 14.3738ZM 8.58476 15.1153L 9.98454 15.1405C 9.98454 15.1405 9.98454 15.1405 9.98454 15.1405L 8.58476 15.1153ZM 8.40367 15.3L 8.39249 16.7C 8.39249 16.7 8.39249 16.7 8.39249 16.7L 8.40367 15.3ZM 6.62257 15.2858L 6.62257 15.2858L 6.61138 16.6857L 6.61138 16.6857L 6.62257 15.2858ZM 6.41609 15.0757L 5.01689 15.123C 5.01689 15.123 5.01689 15.123 5.01689 15.123L 6.41609 15.0757ZM 6.39101 14.3339C 6.39101 14.3339 6.39101 14.3339 6.39101 14.3339L 4.99181 14.3812L 6.39101 14.3339ZM 5.58854 12.9842L 4.87832 14.1907L 5.58854 12.9842ZM 4.15583 12.1408L 3.44561 13.3473L 4.15583 12.1408ZM 2.58349 12.1095L 2.58349 12.1095L 3.25098 13.3401C 3.25098 13.3401 3.25098 13.3401 3.25098 13.3401L 2.58349 12.1095ZM 1.94028 12.4584C 1.94028 12.4584 1.94028 12.4584 1.94028 12.4584L 2.60777 13.689C 2.60777 13.689 2.60777 13.689 2.60777 13.689L 1.94028 12.4584ZM 1.67563 12.3726L 0.46362 13.0734C 0.46362 13.0734 0.46362 13.0734 0.46362 13.0734L 1.67563 12.3726ZM 0.771793 10.8093L 0.771793 10.8093L -0.440215 11.5101L -0.440215 11.5101L 0.771793 10.8093ZM 0.829661 10.5384L 0.0976505 9.34499C 0.0976504 9.34499 0.0976502 9.34499 0.09765 9.34499L 0.829661 10.5384ZM 1.45365 10.1556C 1.45365 10.1556 1.45365 10.1556 1.45365 10.1556L 0.721639 8.96224L 0.721639 8.96224L 1.45365 10.1556ZM 2.21311 8.77843L 0.813149 8.78951L 2.21311 8.77843ZM 2.19995 7.11564L 2.19995 7.11564L 0.79999 7.12672L 2.19995 7.11564ZM 1.43244 5.74527C 1.43244 5.74527 1.43244 5.74527 1.43244 5.74527L 0.691884 6.93337C 0.691885 6.93337 0.691885 6.93337 0.691885 6.93337L 1.43244 5.74527Z"/>
</defs>
</svg>
