<svg width="17" height="22" viewBox="0 0 17 22" version="1.1" xmlns="http://www.w3.org/2000/svg" xmlns:xlink="http://www.w3.org/1999/xlink">
<title>Group</title>
<desc>Created using Figma</desc>
<g id="Canvas" transform="translate(-10418 556)">
<g id="Group">
<g id="Vector">
<use xlink:href="#path0_fill" transform="translate(10422 -545)" fill="#5DA630"/>
<mask id="mask0_outline_out">
<rect id="mask0_outline_inv" fill="white" x="-1" y="-1" width="11" height="3" transform="translate(10422 -545)"/>
<use xlink:href="#path0_fill" fill="black" transform="translate(10422 -545)"/>
</mask>
<g mask="url(#mask0_outline_out)">
<use xlink:href="#path1_stroke_2x" transform="translate(10422 -545)" fill="#5DA630"/>
</g>
</g>
<g id="Vector">
<use xlink:href="#path2_fill" transform="translate(10422.2 -550.333)" fill="#5DA630"/>
<mask id="mask1_outline_out">
<rect id="mask1_outline_inv" fill="white" x="-1" y="-1" width="6" height="3" transform="translate(10422.2 -550.333)"/>
<use xlink:href="#path2_fill" fill="black" transform="translate(10422.2 -550.333)"/>
</mask>
<g mask="url(#mask1_outline_out)">
<use xlink:href="#path3_stroke_2x" transform="translate(10422.2 -550.333)" fill="#5DA630"/>
</g>
</g>
<g id="Vector">
<use xlink:href="#path4_fill" transform="translate(10422.2 -539.667)" fill="#5DA630"/>
<mask id="mask2_outline_out">
<rect id="mask2_outline_inv" fill="white" x="-1" y="-1" width="11" height="3" transform="translate(10422.2 -539.667)"/>
<use xlink:href="#path4_fill" fill="black" transform="translate(10422.2 -539.667)"/>
</mask>
<g mask="url(#mask2_outline_out)">
<use xlink:href="#path5_stroke_2x" transform="translate(10422.2 -539.667)" fill="#5DA630"/>
</g>
</g>
<g id="Vector">
<use xlink:href="#path6_fill" transform="translate(10419 -555)" fill="#5DA630"/>
<mask id="mask3_outline_out">
<rect id="mask3_outline_inv" fill="white" x="-1" y="-1" width="17" height="22" transform="translate(10419 -555)"/>
<use xlink:href="#path6_fill" fill="black" transform="translate(10419 -555)"/>
</mask>
<g mask="url(#mask3_outline_out)">
<use xlink:href="#path7_stroke_2x" transform="translate(10419 -555)" fill="#5DA630"/>
</g>
</g>
</g>
</g>
<defs>
<path id="path0_fill" d="M 8.29787 0L 0.319149 0C 0.142979 0 0 0.149 0 0.333333C 0 0.517667 0.142979 0.666667 0.319149 0.666667L 8.29787 0.666667C 8.47404 0.666667 8.61702 0.517667 8.61702 0.333333C 8.61702 0.149 8.47404 0 8.29787 0Z"/>
<path id="path1_stroke_2x" d="M 8.29787 -0.4L 0.319149 -0.4L 0.319149 0.4L 8.29787 0.4L 8.29787 -0.4ZM 0.319149 -0.4C -0.0938953 -0.4 -0.4 -0.0556087 -0.4 0.333333L 0.4 0.333333C 0.4 0.353609 0.379853 0.4 0.319149 0.4L 0.319149 -0.4ZM -0.4 0.333333C -0.4 0.722275 -0.0938953 1.06667 0.319149 1.06667L 0.319149 0.266667C 0.379853 0.266667 0.4 0.313058 0.4 0.333333L -0.4 0.333333ZM 0.319149 1.06667L 8.29787 1.06667L 8.29787 0.266667L 0.319149 0.266667L 0.319149 1.06667ZM 8.29787 1.06667C 8.71092 1.06667 9.01702 0.722275 9.01702 0.333333L 8.21702 0.333333C 8.21702 0.313058 8.23717 0.266667 8.29787 0.266667L 8.29787 1.06667ZM 9.01702 0.333333C 9.01702 -0.0556087 8.71092 -0.4 8.29787 -0.4L 8.29787 0.4C 8.23717 0.4 8.21702 0.353609 8.21702 0.333333L 9.01702 0.333333Z"/>
<path id="path2_fill" d="M 0.319149 0.666667L 3.51064 0.666667C 3.68681 0.666667 3.82979 0.517667 3.82979 0.333333C 3.82979 0.149 3.68681 0 3.51064 0L 0.319149 0C 0.142979 0 0 0.149 0 0.333333C 0 0.517667 0.142979 0.666667 0.319149 0.666667Z"/>
<path id="path3_stroke_2x" d="M 0.319149 1.06667L 3.51064 1.06667L 3.51064 0.266667L 0.319149 0.266667L 0.319149 1.06667ZM 3.51064 1.06667C 3.92368 1.06667 4.22979 0.722275 4.22979 0.333333L 3.42979 0.333333C 3.42979 0.313058 3.44993 0.266667 3.51064 0.266667L 3.51064 1.06667ZM 4.22979 0.333333C 4.22979 -0.0556088 3.92368 -0.4 3.51064 -0.4L 3.51064 0.4C 3.44993 0.4 3.42979 0.353609 3.42979 0.333333L 4.22979 0.333333ZM 3.51064 -0.4L 0.319149 -0.4L 0.319149 0.4L 3.51064 0.4L 3.51064 -0.4ZM 0.319149 -0.4C -0.0938952 -0.4 -0.4 -0.0556088 -0.4 0.333333L 0.4 0.333333C 0.4 0.353609 0.379853 0.4 0.319149 0.4L 0.319149 -0.4ZM -0.4 0.333333C -0.4 0.722275 -0.0938952 1.06667 0.319149 1.06667L 0.319149 0.266667C 0.379853 0.266667 0.4 0.313058 0.4 0.333333L -0.4 0.333333Z"/>
<path id="path4_fill" d="M 8.29787 0L 0.319149 0C 0.142979 0 0 0.149 0 0.333333C 0 0.517667 0.142979 0.666667 0.319149 0.666667L 8.29787 0.666667C 8.47404 0.666667 8.61702 0.517667 8.61702 0.333333C 8.61702 0.149 8.47404 0 8.29787 0Z"/>
<path id="path5_stroke_2x" d="M 8.29787 -0.4L 0.319149 -0.4L 0.319149 0.4L 8.29787 0.4L 8.29787 -0.4ZM 0.319149 -0.4C -0.0938953 -0.4 -0.4 -0.0556087 -0.4 0.333333L 0.4 0.333333C 0.4 0.353609 0.379853 0.4 0.319149 0.4L 0.319149 -0.4ZM -0.4 0.333333C -0.4 0.722275 -0.0938953 1.06667 0.319149 1.06667L 0.319149 0.266667C 0.379853 0.266667 0.4 0.313058 0.4 0.333333L -0.4 0.333333ZM 0.319149 1.06667L 8.29787 1.06667L 8.29787 0.266667L 0.319149 0.266667L 0.319149 1.06667ZM 8.29787 1.06667C 8.71092 1.06667 9.01702 0.722276 9.01702 0.333333L 8.21702 0.333333C 8.21702 0.313058 8.23717 0.266667 8.29787 0.266667L 8.29787 1.06667ZM 9.01702 0.333333C 9.01702 -0.0556089 8.71092 -0.4 8.29787 -0.4L 8.29787 0.4C 8.23717 0.4 8.21702 0.353609 8.21702 0.333333L 9.01702 0.333333Z"/>
<path id="path6_fill" d="M 10.3449 0L 0 0L 0 20L 15 20L 15 4.862L 10.3449 0ZM 10.5319 1.138L 13.9104 4.66667L 10.5319 4.66667L 10.5319 1.138ZM 0.638298 19.3333L 0.638298 0.666667L 9.89362 0.666667L 9.89362 5.33333L 14.3617 5.33333L 14.3617 19.3333L 0.638298 19.3333Z"/>
<path id="path7_stroke_2x" d="M 10.3449 0L 10.6338 -0.276629L 10.5157 -0.4L 10.3449 -0.4L 10.3449 0ZM 0 0L 0 -0.4L -0.4 -0.4L -0.4 0L 0 0ZM 0 20L -0.4 20L -0.4 20.4L 0 20.4L 0 20ZM 15 20L 15 20.4L 15.4 20.4L 15.4 20L 15 20ZM 15 4.862L 15.4 4.862L 15.4 4.70139L 15.2889 4.58537L 15 4.862ZM 10.5319 1.138L 10.8208 0.861371L 10.1319 0.141829L 10.1319 1.138L 10.5319 1.138ZM 13.9104 4.66667L 13.9104 5.06667L 14.8472 5.06667L 14.1993 4.39004L 13.9104 4.66667ZM 10.5319 4.66667L 10.1319 4.66667L 10.1319 5.06667L 10.5319 5.06667L 10.5319 4.66667ZM 0.638298 19.3333L 0.238298 19.3333L 0.238298 19.7333L 0.638298 19.7333L 0.638298 19.3333ZM 0.638298 0.666667L 0.638298 0.266667L 0.238298 0.266667L 0.238298 0.666667L 0.638298 0.666667ZM 9.89362 0.666667L 10.2936 0.666667L 10.2936 0.266667L 9.89362 0.266667L 9.89362 0.666667ZM 9.89362 5.33333L 9.49362 5.33333L 9.49362 5.73333L 9.89362 5.73333L 9.89362 5.33333ZM 14.3617 5.33333L 14.7617 5.33333L 14.7617 4.93333L 14.3617 4.93333L 14.3617 5.33333ZM 14.3617 19.3333L 14.3617 19.7333L 14.7617 19.7333L 14.7617 19.3333L 14.3617 19.3333ZM 10.3449 -0.4L 0 -0.4L 0 0.4L 10.3449 0.4L 10.3449 -0.4ZM -0.4 0L -0.4 20L 0.4 20L 0.4 0L -0.4 0ZM 0 20.4L 15 20.4L 15 19.6L 0 19.6L 0 20.4ZM 15.4 20L 15.4 4.862L 14.6 4.862L 14.6 20L 15.4 20ZM 15.2889 4.58537L 10.6338 -0.276629L 10.056 0.276629L 14.7111 5.13863L 15.2889 4.58537ZM 10.243 1.41463L 13.6215 4.9433L 14.1993 4.39004L 10.8208 0.861371L 10.243 1.41463ZM 13.9104 4.26667L 10.5319 4.26667L 10.5319 5.06667L 13.9104 5.06667L 13.9104 4.26667ZM 10.9319 4.66667L 10.9319 1.138L 10.1319 1.138L 10.1319 4.66667L 10.9319 4.66667ZM 1.0383 19.3333L 1.0383 0.666667L 0.238298 0.666667L 0.238298 19.3333L 1.0383 19.3333ZM 0.638298 1.06667L 9.89362 1.06667L 9.89362 0.266667L 0.638298 0.266667L 0.638298 1.06667ZM 9.49362 0.666667L 9.49362 5.33333L 10.2936 5.33333L 10.2936 0.666667L 9.49362 0.666667ZM 9.89362 5.73333L 14.3617 5.73333L 14.3617 4.93333L 9.89362 4.93333L 9.89362 5.73333ZM 13.9617 5.33333L 13.9617 19.3333L 14.7617 19.3333L 14.7617 5.33333L 13.9617 5.33333ZM 14.3617 18.9333L 0.638298 18.9333L 0.638298 19.7333L 14.3617 19.7333L 14.3617 18.9333Z"/>
</defs>
</svg>
