<svg width="22" height="19" viewBox="0 0 22 19" version="1.1" xmlns="http://www.w3.org/2000/svg" xmlns:xlink="http://www.w3.org/1999/xlink">
<title>Vector</title>
<desc>Created using Figma</desc>
<g id="Canvas" transform="translate(-10390 481)">
<g id="Vector">
<mask id="mask0_outline_ins">
<use xlink:href="#path0_fill" fill="white" transform="translate(10390 -480.2)"/>
</mask>
<g mask="url(#mask0_outline_ins)">
<use xlink:href="#path1_stroke_2x" transform="translate(10390 -480.2)" fill="url(#paint0_linear)"/>
</g>
</g>
</g>
<defs>
<linearGradient id="paint0_linear" x1="0" y1="0" x2="1" y2="0" gradientUnits="userSpaceOnUse" gradientTransform="matrix(31.4073 -2.69221e-07 -2.27986e-07 20.8225 -4.61871 -2.10355)">
<stop offset="0" stop-color="#227E1D" stop-opacity="0.993122"/>
<stop offset="0.98895" stop-color="#8CC540"/>
</linearGradient>
<path id="path0_fill" d="M 7.56964 10.8619L 0.322336 2.26516L 0.231366 2.18329C -0.0718686 1.74663 -0.0718684 1.20081 0.201043 0.73686C 0.473954 0.272911 1.01978 0 1.59592 0L 19.6384 0C 20.2145 0 20.7603 0.272911 21.0333 0.73686C 21.3365 1.20081 21.3062 1.74663 21.0029 2.18329C 20.9726 2.21058 20.9726 2.23787 20.9423 2.26516L 13.695 10.8619L 13.695 16.9084C 13.695 17.3177 13.4524 17.6725 13.0582 17.8635C 12.8762 17.9454 12.6943 18 12.482 18C 12.2698 18 12.0272 17.9454 11.8452 17.8363L 8.14579 15.7348C 7.78191 15.5438 7.56964 15.189 7.56964 14.8069L 7.56964 10.8619Z"/>
<path id="path1_stroke_2x" d="M 0.322336 2.26516L 1.54563 1.23388L 1.4746 1.14962L 1.39268 1.07589L 0.322336 2.26516ZM 7.56964 10.8619L 9.16964 10.8619L 9.16964 10.2774L 8.79294 9.83058L 7.56964 10.8619ZM 8.14579 15.7348L 8.93605 14.3436L 8.91299 14.3305L 8.88952 14.3182L 8.14579 15.7348ZM 11.8452 17.8363L 12.6684 16.4643L 12.6521 16.4545L 12.6355 16.445L 11.8452 17.8363ZM 13.0582 17.8635L 13.7148 19.3226L 13.7355 19.3133L 13.756 19.3034L 13.0582 17.8635ZM 13.695 10.8619L 12.4717 9.83058L 12.095 10.2774L 12.095 10.8619L 13.695 10.8619ZM 20.9423 2.26516L 19.8719 1.0759L 19.79 1.14962L 19.719 1.23388L 20.9423 2.26516ZM 21.0029 2.18329L 22.0733 3.37255L 22.2112 3.24838L 22.3171 3.09592L 21.0029 2.18329ZM 21.0333 0.73686L 19.6542 1.54809L 19.6733 1.58063L 19.694 1.61222L 21.0333 0.73686ZM 0.201043 0.73686L 1.58014 1.54809L 0.201043 0.73686ZM 0.231366 2.18329L -1.08283 3.09592L -0.976949 3.24838L -0.83898 3.37256L 0.231366 2.18329ZM -0.900962 3.29644L 6.34634 11.8931L 8.79294 9.83058L 1.54563 1.23388L -0.900962 3.29644ZM 5.96964 10.8619L 5.96964 14.8069L 9.16964 14.8069L 9.16964 10.8619L 5.96964 10.8619ZM 5.96964 14.8069C 5.96964 15.8021 6.52823 16.6927 7.40205 17.1515L 8.88952 14.3182C 9.03558 14.3949 9.16964 14.5759 9.16964 14.8069L 5.96964 14.8069ZM 7.35553 17.1261L 11.055 19.2275L 12.6355 16.445L 8.93605 14.3436L 7.35553 17.1261ZM 11.0221 19.2082C 11.4324 19.4308 12.0931 19.5902 12.482 19.6L 12.482 16.4C 12.5075 16.4 12.5232 16.4026 12.5378 16.4062C 12.55 16.4092 12.5977 16.4218 12.6684 16.4643L 11.0221 19.2082ZM 12.482 19.6C 12.9266 19.583 13.4356 19.4445 13.7148 19.3226L 12.4016 16.4045C 12.3705 16.4185 12.3704 16.4161 12.3905 16.411C 12.4142 16.405 12.447 16.4 12.482 16.4L 12.482 19.6ZM 13.756 19.3034C 14.629 18.8803 15.295 18.008 15.295 16.9084L 12.095 16.9084C 12.095 16.7882 12.1329 16.67 12.196 16.576C 12.2566 16.4857 12.3236 16.4416 12.3604 16.4237L 13.756 19.3034ZM 15.295 16.9084L 15.295 10.8619L 12.095 10.8619L 12.095 16.9084L 15.295 16.9084ZM 14.9183 11.8931L 22.1656 3.29644L 19.719 1.23388L 12.4717 9.83058L 14.9183 11.8931ZM 22.0126 3.45443C 22.0663 3.40612 22.1156 3.35568 22.1606 3.30377C 22.2056 3.25196 22.2432 3.20232 22.2745 3.15732C 22.3053 3.11297 22.3288 3.07462 22.3447 3.04777C 22.3591 3.02341 22.3709 3.00181 22.3713 3.00124C 22.3747 2.99499 22.3666 3.00977 22.3563 3.0273C 22.3445 3.04733 22.3252 3.07886 22.2991 3.11638C 22.2726 3.15456 22.2402 3.19738 22.2011 3.24236C 22.162 3.28745 22.1194 3.33107 22.0733 3.37255L 19.9326 0.994024C 19.8789 1.04233 19.8296 1.09277 19.7846 1.14469C 19.7396 1.19649 19.702 1.24613 19.6707 1.29114C 19.6399 1.33548 19.6164 1.37383 19.6005 1.40068C 19.5862 1.42504 19.5743 1.44664 19.5739 1.44721C 19.5705 1.45346 19.5786 1.43868 19.5889 1.42115C 19.6008 1.40112 19.62 1.36959 19.6461 1.33207C 19.6726 1.29389 19.705 1.25107 19.7441 1.20609C 19.7832 1.161 19.8258 1.11738 19.8719 1.0759L 22.0126 3.45443ZM 22.3171 3.09592C 22.9677 2.15905 23.0551 0.905807 22.3726 -0.138502L 19.694 1.61222C 19.67 1.57559 19.6437 1.50651 19.6463 1.42162C 19.6487 1.34127 19.6754 1.28981 19.6887 1.27066L 22.3171 3.09592ZM 22.4124 -0.0743721C 21.8041 -1.10832 20.6804 -1.6 19.6384 -1.6L 19.6384 1.6C 19.6565 1.6 19.673 1.60219 19.6867 1.60549C 19.7005 1.60881 19.7086 1.61255 19.711 1.61381C 19.7171 1.61698 19.6861 1.60247 19.6542 1.54809L 22.4124 -0.0743721ZM 19.6384 -1.6L 1.59592 -1.6L 1.59592 1.6L 19.6384 1.6L 19.6384 -1.6ZM 1.59592 -1.6C 0.553907 -1.6 -0.569848 -1.10832 -1.17805 -0.0743721L 1.58014 1.54809C 1.54815 1.60246 1.51721 1.61698 1.52328 1.61381C 1.52572 1.61255 1.5338 1.60881 1.5476 1.60549C 1.56131 1.60219 1.5778 1.6 1.59592 1.6L 1.59592 -1.6ZM -1.17805 -0.0743722C -1.7382 0.877872 -1.77395 2.1007 -1.08283 3.09592L 1.54556 1.27066C 1.57674 1.31556 1.59896 1.37965 1.59996 1.44596C 1.60091 1.50839 1.58313 1.543 1.58014 1.54809L -1.17805 -0.0743722ZM -0.83898 3.37256L -0.748009 3.45443L 1.39268 1.07589L 1.30171 0.99402L -0.83898 3.37256Z"/>
</defs>
</svg>
