<svg width="20" height="15" viewBox="0 0 20 15" version="1.1" xmlns="http://www.w3.org/2000/svg" xmlns:xlink="http://www.w3.org/1999/xlink">
<title>email-envelope-outline-shape-with-rounded-corners</title>
<desc>Created using Figma</desc>
<g id="Canvas" transform="translate(-7159 -931)">
<g id="email-envelope-outline-shape-with-rounded-corners">
<g id="Group">
<g id="Vector">
<use xlink:href="#path0_fill" transform="translate(7159 931)" fill="#3F8F3B"/>
</g>
</g>
</g>
</g>
<defs>
<path id="path0_fill" d="M 17.5 0L 2.5 0C 1.11937 0 0 1.11937 0 2.5L 0 12.5C 0 13.8806 1.11937 15 2.5 15L 17.5 15C 18.8806 15 20 13.8806 20 12.5L 20 2.5C 20 1.11937 18.8806 0 17.5 0ZM 13.385 6.67113L 18.6768 2.13621C 18.7134 2.2534 18.75 2.37059 18.75 2.5L 18.75 12.5C 18.75 12.5867 18.717 12.6636 18.7 12.7454L 13.385 6.67113ZM 17.5 1.25C 17.583 1.25 17.6562 1.28176 17.7344 1.29762L 10 7.92727L 2.26562 1.29762C 2.34375 1.28176 2.41699 1.25 2.5 1.25L 17.5 1.25ZM 1.29945 12.7441C 1.28234 12.6623 1.25 12.5867 1.25 12.5L 1.25 2.5C 1.25 2.37059 1.28723 2.2534 1.32387 2.13621L 6.61379 6.66992L 1.29945 12.7441ZM 2.5 13.75C 2.37367 13.75 2.25891 13.7134 2.14355 13.678L 7.56348 7.4841L 9.59352 9.22359C 9.71008 9.32496 9.85535 9.375 10 9.375C 10.1446 9.375 10.2899 9.32496 10.4065 9.22363L 12.4365 7.48414L 17.8564 13.678C 17.7417 13.7134 17.627 13.75 17.5 13.75L 2.5 13.75Z"/>
</defs>
</svg>
