<svg width="20" height="21" viewBox="0 0 20 21" version="1.1" xmlns="http://www.w3.org/2000/svg" xmlns:xlink="http://www.w3.org/1999/xlink">
<title>Vector</title>
<desc>Created using Figma</desc>
<g id="Canvas" transform="translate(-6696 -929)">
<g id="Vector">
<mask id="mask0_outline_ins">
<use xlink:href="#path0_fill" fill="white" transform="translate(6695 928)"/>
</mask>
<g mask="url(#mask0_outline_ins)">
<use xlink:href="#path1_stroke_2x" transform="translate(6695 928)" fill="#227E1D" fill-opacity="0.993122"/>
</g>
</g>
</g>
<defs>
<path id="path0_fill" d="M 11.4833 18.5093C 11.1825 18.3433 10.8175 18.3433 10.5167 18.5093L 6.00093 21.002C 5.26922 21.4059 4.39429 20.7872 4.53118 19.9627L 5.42986 14.5499C 5.48208 14.2354 5.38119 13.9148 5.15824 13.6869L 1.36118 9.80496C 0.791966 9.22303 1.11942 8.24113 1.92398 8.11734L 7.08204 7.32372C 7.41163 7.27301 7.69426 7.06134 7.83564 6.75933L 10.0943 1.93458C 10.4539 1.16656 11.5461 1.16656 11.9057 1.93458L 14.1644 6.75933C 14.3057 7.06134 14.5884 7.27301 14.918 7.32372L 20.076 8.11734C 20.8806 8.24113 21.208 9.22303 20.6388 9.80496L 16.8418 13.6869C 16.6188 13.9148 16.5179 14.2354 16.5701 14.5499L 17.4688 19.9627C 17.6057 20.7872 16.7308 21.4059 15.9991 21.002L 11.4833 18.5093Z"/>
<path id="path1_stroke_2x" d="M 6.00093 21.002L 5.22772 19.6012L 6.00093 21.002ZM 5.42986 14.5499L 3.85147 14.2879L 5.42986 14.5499ZM 1.36118 9.80496L 0.217373 10.9238L 1.36118 9.80496ZM 10.0943 1.93458L 11.5434 2.61296L 10.0943 1.93458ZM 14.1644 6.75933L 12.7153 7.43771L 14.1644 6.75933ZM 20.076 8.11734L 19.8327 9.69873L 20.076 8.11734ZM 16.8418 13.6869L 17.9856 14.8057L 16.8418 13.6869ZM 11.4833 18.5093L 10.71 19.9101L 11.4833 18.5093ZM 5.15824 13.6869L 6.30204 12.5681L 5.15824 13.6869ZM 11.9057 1.93458L 10.4566 2.61296L 11.9057 1.93458ZM 16.5701 14.5499L 14.9917 14.812L 16.5701 14.5499ZM 15.9991 21.002L 15.2259 22.4028L 15.9991 21.002ZM 9.74354 17.1086L 5.22772 19.6012L 6.77414 22.4028L 11.29 19.9101L 9.74354 17.1086ZM 6.10958 20.2248L 7.00825 14.812L 3.85147 14.2879L 2.95279 19.7007L 6.10958 20.2248ZM 6.30204 12.5681L 2.50498 8.68616L 0.217373 10.9238L 4.01444 14.8057L 6.30204 12.5681ZM 2.1673 9.69873L 7.32536 8.90511L 6.83873 5.74233L 1.68067 6.53595L 2.1673 9.69873ZM 9.28471 7.43771L 11.5434 2.61296L 8.64526 1.25621L 6.38657 6.08096L 9.28471 7.43771ZM 10.4566 2.61296L 12.7153 7.43771L 15.6134 6.08096L 13.3547 1.25621L 10.4566 2.61296ZM 14.6746 8.90511L 19.8327 9.69873L 20.3193 6.53595L 15.1613 5.74233L 14.6746 8.90511ZM 19.495 8.68616L 15.698 12.5681L 17.9856 14.8057L 21.7826 10.9238L 19.495 8.68616ZM 14.9917 14.812L 15.8904 20.2248L 19.0472 19.7007L 18.1485 14.2879L 14.9917 14.812ZM 16.7723 19.6012L 12.2565 17.1086L 10.71 19.9101L 15.2259 22.4028L 16.7723 19.6012ZM 11.29 19.9101C 11.1095 20.0097 10.8905 20.0097 10.71 19.9101L 12.2565 17.1086C 11.4744 16.6769 10.5256 16.6769 9.74354 17.1086L 11.29 19.9101ZM 5.22772 19.6012C 5.66675 19.3589 6.19171 19.7301 6.10958 20.2248L 2.95279 19.7007C 2.59687 21.8444 4.87168 23.4529 6.77414 22.4028L 5.22772 19.6012ZM 7.00825 14.812C 7.14403 13.9942 6.8817 13.1607 6.30204 12.5681L 4.01444 14.8057C 3.88067 14.6689 3.82013 14.4766 3.85147 14.2879L 7.00825 14.812ZM 2.50498 8.68616C 2.8465 9.03532 2.65003 9.62446 2.1673 9.69873L 1.68067 6.53595C -0.411193 6.85781 -1.26257 9.41074 0.217373 10.9238L 2.50498 8.68616ZM 7.32536 8.90511C 8.18229 8.77326 8.91711 8.22294 9.28471 7.43771L 6.38657 6.08096C 6.4714 5.89975 6.64098 5.77275 6.83873 5.74233L 7.32536 8.90511ZM 11.5434 2.61296C 11.3277 3.07377 10.6723 3.07377 10.4566 2.61296L 13.3547 1.25621C 12.4199 -0.740643 9.58008 -0.740643 8.64526 1.25621L 11.5434 2.61296ZM 12.7153 7.43771C 13.0829 8.22294 13.8177 8.77326 14.6746 8.90511L 15.1613 5.74233C 15.359 5.77275 15.5286 5.89975 15.6134 6.08096L 12.7153 7.43771ZM 19.8327 9.69873C 19.35 9.62446 19.1535 9.03532 19.495 8.68616L 21.7826 10.9238C 23.2626 9.41074 22.4112 6.85781 20.3193 6.53595L 19.8327 9.69873ZM 15.698 12.5681C 15.1183 13.1607 14.856 13.9942 14.9917 14.812L 18.1485 14.2879C 18.1799 14.4766 18.1193 14.6689 17.9856 14.8057L 15.698 12.5681ZM 15.8904 20.2248C 15.8083 19.7301 16.3332 19.3589 16.7723 19.6012L 15.2259 22.4028C 17.1283 23.4529 19.4031 21.8444 19.0472 19.7007L 15.8904 20.2248Z"/>
</defs>
</svg>
