<svg width="17" height="21" viewBox="0 0 17 21" fill="none" xmlns="http://www.w3.org/2000/svg">
<path d="M15.081 5.114H3.097C1.986 5.114 1.079 4.21 1.079 3.096C1.079 1.985 1.983 1.078 3.097 1.078H15.086C15.386 1.078 15.625 0.835001 15.625 0.539001C15.625 0.239001 15.382 5.26356e-07 15.086 5.26356e-07H3.097C1.39 -0.000999474 0 1.389 0 3.096V16.58C0 18.286 1.39 19.676 3.096 19.676H15.085C15.385 19.676 15.624 19.433 15.624 19.137V5.653C15.62 5.357 15.381 5.114 15.081 5.114ZM14.542 18.598H3.097C1.986 18.598 1.079 17.694 1.079 16.58V5.446C1.622 5.912 2.327 6.196 3.097 6.196H14.542V18.598Z" transform="translate(1.1255 0.443756)" fill="white"/>
<path d="M15.335 20.177H3.347C1.501 20.177 0 18.676 0 16.831V3.347C0 1.501 1.501 0 3.347 0H15.336C15.771 0 16.124 0.354 16.124 0.789C16.124 1.224 15.77 1.578 15.336 1.578H3.347C2.372 1.578 1.578 2.371 1.578 3.347C1.578 4.323 2.371 5.115 3.347 5.115H15.331C15.763 5.115 16.118 5.468 16.124 5.901V19.388C16.124 19.823 15.77 20.177 15.335 20.177ZM3.347 0.5C1.777 0.5 0.5 1.777 0.5 3.347V16.831C0.5 18.4 1.777 19.677 3.347 19.677H15.336C15.495 19.677 15.624 19.547 15.624 19.388V5.904C15.622 5.746 15.49 5.615 15.331 5.615H3.347C2.096 5.615 1.078 4.597 1.078 3.347C1.078 2.096 2.096 1.078 3.347 1.078H15.336C15.495 1.078 15.624 0.948 15.624 0.789C15.624 0.63 15.495 0.5 15.335 0.5H3.347ZM15.042 19.099H3.347C2.096 19.099 1.078 18.081 1.078 16.831V5.153L1.491 5.507C2.009 5.952 2.668 6.196 3.347 6.196H15.042V19.099ZM1.578 6.19V16.831C1.578 17.806 2.371 18.599 3.347 18.599H14.542V6.697H3.347C2.72 6.697 2.107 6.519 1.578 6.19Z" transform="translate(0.8755 0.192749)" fill="white"/>
<path d="M0.539 -5.34058e-08C0.239 -5.34058e-08 -7.43866e-08 0.243 -7.43866e-08 0.539C-7.43866e-08 0.835 0.243 1.078 0.539 1.078H10.663C10.963 1.078 11.202 0.835 11.202 0.539C11.202 0.243 10.959 -5.34058e-08 10.663 -5.34058e-08H0.539Z" transform="translate(3.8535 3.04875)" fill="white"/>
<path d="M10.913 1.578H0.789C0.354 1.578 -7.43866e-08 1.224 -7.43866e-08 0.789C-7.43866e-08 0.354 0.354 -5.34058e-08 0.789 -5.34058e-08H10.914C11.35 -5.34058e-08 11.703 0.354 11.703 0.789C11.703 1.224 11.349 1.578 10.913 1.578ZM0.789 0.5C0.63 0.5 0.5 0.63 0.5 0.789C0.5 0.946 0.632 1.078 0.789 1.078H10.914C11.073 1.078 11.203 0.948 11.203 0.789C11.203 0.632 11.07 0.5 10.914 0.5H0.789Z" transform="translate(3.6035 2.79875)" fill="white"/>
<path fill-rule="evenodd" clip-rule="evenodd" d="M14 0H0V13H14V0ZM7.6835 3.04175L10.1335 9.90976C10.2815 10.3158 10.0685 10.7688 9.6605 10.9178C9.5635 10.9498 9.4775 10.9648 9.3925 10.9648C9.0585 10.9648 8.7605 10.7547 8.6505 10.4418L8.0545 8.77275H5.8115L5.2135 10.4427C5.0755 10.8347 4.6455 11.0688 4.2085 10.9198L4.2035 10.9187C3.7985 10.7708 3.5835 10.3307 3.7145 9.91475L6.3715 2.72775C6.39473 2.69872 6.41703 2.68091 6.4275 2.67255L6.4285 2.67175L6.4745 2.62175L6.6685 2.54276V2.54076C6.6735 2.53876 6.6795 2.53676 6.6855 2.53476L6.7055 2.52875C6.7105 2.52774 6.7155 2.5265 6.7205 2.52525C6.7255 2.524 6.7305 2.52277 6.7355 2.52176L6.9295 2.49275L7.3765 2.62375L7.4405 2.68875L7.4435 2.68575L7.4995 2.73775C7.5215 2.75575 7.5355 2.77376 7.5415 2.78175L7.6275 2.87975L7.6195 2.90575L7.6835 3.04175ZM6.3755 7.19475H7.4925L6.9355 5.63275L6.3755 7.19475Z" transform="translate(2 6)" fill="white"/>
</svg>
