<svg width="22" height="19" viewBox="0 0 22 19" version="1.1" xmlns="http://www.w3.org/2000/svg" xmlns:xlink="http://www.w3.org/1999/xlink">
<title>Subtract</title>
<desc>Created using Figma</desc>
<g id="Canvas" transform="translate(-4898 2369)">
<g id="Subtract">
<mask id="mask0_outline_ins">
<use xlink:href="#path0_fill" fill="white" transform="translate(4898 -2368.15)"/>
<use xlink:href="#path1_fill" fill="white" transform="translate(4898 -2368.15)"/>
</mask>
<g mask="url(#mask0_outline_ins)">
<use xlink:href="#path2_stroke_2x" transform="translate(4898 -2368.15)" fill="#A6B5C5"/>
</g>
</g>
</g>
<defs>
<path id="path0_fill" d="M 15.5319 7.05712C 15.6815 6.79353 15.6762 6.47391 15.5179 6.21501L 12.2344 0.844538C 11.5459 -0.281515 9.85006 -0.281512 9.1616 0.844544L 0.247805 15.424C -0.449279 16.5641 0.407115 18 1.78421 18L 8.79062 18C 9.1167 18 9.41672 17.829 9.57276 17.5541L 15.5319 7.05712Z"/>
<path id="path1_fill" d="M 17.2008 8.96754C 17.0255 8.68082 16.5914 8.68744 16.4256 8.97937L 11.6635 17.3678C 11.5018 17.6527 11.7166 18 12.0546 18L 19.6118 18C 20.9889 18 21.8453 16.5641 21.1482 15.424L 17.2008 8.96754Z"/>
<path id="path2_stroke_2x" d="M 12.2344 0.844538L 11.04 1.57482L 11.04 1.57482L 12.2344 0.844538ZM 15.5179 6.21501L 16.7124 5.48473L 16.7124 5.48473L 15.5179 6.21501ZM 0.247805 15.424L -0.946638 14.6937L 0.247805 15.424ZM 16.4256 8.97937L 17.6431 9.67054L 17.6431 9.67054L 16.4256 8.97937ZM 11.6635 17.3678L 10.446 16.6766L 10.446 16.6766L 11.6635 17.3678ZM 9.1616 0.844544L 10.356 1.57482L 10.356 1.57482L 9.1616 0.844544ZM 15.5319 7.05712L 14.3144 6.36595L 14.3144 6.36595L 15.5319 7.05712ZM 9.57276 17.5541L 10.7903 18.2452L 10.7903 18.2452L 9.57276 17.5541ZM 17.2008 8.96754L 18.3952 8.23727L 18.3952 8.23726L 17.2008 8.96754ZM 21.1482 15.424L 19.9538 16.1542L 19.9538 16.1542L 21.1482 15.424ZM 11.04 1.57482L 14.3235 6.9453L 16.7124 5.48473L 13.4288 0.114255L 11.04 1.57482ZM 1.44225 16.1542L 10.356 1.57482L 7.96715 0.114266L -0.946638 14.6937L 1.44225 16.1542ZM 8.79062 16.6L 1.78421 16.6L 1.78421 19.4L 8.79062 19.4L 8.79062 16.6ZM 10.7903 18.2452L 16.7493 7.74829L 14.3144 6.36595L 8.35527 16.8629L 10.7903 18.2452ZM 15.2081 8.2882L 10.446 16.6766L 12.881 18.059L 17.6431 9.67054L 15.2081 8.2882ZM 19.6118 16.6L 12.0546 16.6L 12.0546 19.4L 19.6118 19.4L 19.6118 16.6ZM 16.0064 9.69782L 19.9538 16.1542L 22.3427 14.6937L 18.3952 8.23727L 16.0064 9.69782ZM 13.4288 0.114255C 12.1944 -1.90476 9.20157 -1.90475 7.96715 0.114266L 10.356 1.57482C 10.4184 1.47276 10.5344 1.4 10.698 1.4C 10.8616 1.4 10.9776 1.47275 11.04 1.57482L 13.4288 0.114255ZM 14.3235 6.9453C 14.2166 6.77043 14.2123 6.54575 14.3144 6.36595L 16.7493 7.74829C 17.1507 7.0413 17.1358 6.17738 16.7124 5.48473L 14.3235 6.9453ZM -0.946638 14.6937C -2.26696 16.8532 -0.583414 19.4 1.78421 19.4L 1.78421 16.6C 1.60724 16.6 1.49672 16.5165 1.44058 16.4224C 1.41156 16.3738 1.4005 16.3272 1.40002 16.2895C 1.3996 16.2567 1.40644 16.2128 1.44225 16.1542L -0.946638 14.6937ZM 8.79062 19.4C 9.60077 19.4 10.3759 18.9752 10.7903 18.2452L 8.35527 16.8629C 8.45755 16.6827 8.63263 16.6 8.79062 16.6L 8.79062 19.4ZM 17.6431 9.67054C 17.2805 10.3093 16.3856 10.3181 16.0064 9.69782L 18.3952 8.23726C 17.6654 7.04355 15.9022 7.06563 15.2081 8.2882L 17.6431 9.67054ZM 10.446 16.6766C 9.70583 17.9805 10.7434 19.4 12.0546 19.4L 12.0546 16.6C 12.6898 16.6 13.2977 17.325 12.881 18.059L 10.446 16.6766ZM 19.6118 19.4C 21.9795 19.4 23.663 16.8532 22.3427 14.6937L 19.9538 16.1542C 19.9896 16.2128 19.9964 16.2567 19.996 16.2895C 19.9955 16.3272 19.9845 16.3738 19.9555 16.4224C 19.8993 16.5165 19.7888 16.6 19.6118 16.6L 19.6118 19.4Z"/>
</defs>
</svg>
