<svg xmlns="http://www.w3.org/2000/svg" width="25.4" height="18.37" viewBox="0 0 25.4 18.37">
  <g id="ic_nav_9" transform="translate(-98.8 -320.8)">
    <path id="kpi" d="M15,5a1,1,0,1,1-1,1A1,1,0,0,1,15,5ZM10.377,6.213A1,1,0,1,1,10,6.34,1,1,0,0,1,10.377,6.213Zm9.246,0a1,1,0,1,1-.988.492A1,1,0,0,1,19.623,6.213ZM7.33,9.508A1,1,0,0,1,8.072,11,1,1,0,1,1,7.33,9.508Zm15.346.029a1,1,0,0,1,.619,1.859L17,15.006A2,2,0,0,1,15,17a1.972,1.972,0,0,1-1-.275l-2.185,1.252a1,1,0,1,1-1-1.734L13,14.994A2,2,0,0,1,15,13a1.974,1.974,0,0,1,1,.275l6.3-3.613A1,1,0,0,1,22.676,9.537ZM6,14a1,1,0,1,1-1,1A1,1,0,0,1,6,14Zm18,0a1,1,0,1,1-1,1A1,1,0,0,1,24,14Z" transform="translate(96 318)" fill="#a6b5c5"/>
    <path id="kpi-2" data-name="kpi" d="M15,3A12,12,0,0,0,3,15c0,6.627,24,6.627,24,0A12,12,0,0,0,15,3Z" transform="translate(96.5 318.5)" fill="none" stroke="#a6b5c5" stroke-width="1.4"/>
  </g>
</svg>
