<svg width="16" height="21" viewBox="0 0 16 21" fill="none" xmlns="http://www.w3.org/2000/svg">
<path d="M14.479 4.912H2.973C1.907 4.912 1.035 4.044 1.035 2.974C1.035 1.908 1.903 1.036 2.973 1.036H14.483C14.771 1.036 15 0.802 15 0.518C15 0.23 14.767 -2.02656e-09 14.483 -2.02656e-09H2.973C1.335 -2.02656e-09 0 1.335 0 2.973V15.919C0 17.557 1.335 18.892 2.973 18.892H14.483C14.771 18.892 15 18.659 15 18.375V5.429C14.996 5.145 14.767 4.912 14.479 4.912ZM13.961 17.857H2.973C1.907 17.857 1.035 16.989 1.035 15.919V5.231C1.556 5.678 2.234 5.951 2.973 5.951H13.961V17.857V17.857Z" transform="translate(0.5 1.05399)" fill="#A6B5C5" stroke="#A6B5C5" stroke-width="0.5" stroke-miterlimit="10"/>
<path d="M0.518 9.34601e-08C0.23 9.34601e-08 3.05176e-08 0.233 3.05176e-08 0.517C3.05176e-08 0.801 0.234 1.035 0.518 1.035H10.238C10.526 1.035 10.756 0.802 10.756 0.517C10.756 0.233 10.522 9.34601e-08 10.238 9.34601e-08H0.518V9.34601e-08Z" transform="translate(3.118 3.55699)" fill="#A6B5C5" stroke="#A6B5C5" stroke-width="0.5" stroke-miterlimit="10"/>
<path d="M0.34778 7.622C0.40578 7.642 0.464781 7.653 0.522781 7.653C0.736781 7.653 0.934781 7.521 1.00878 7.311L1.63878 5.548H4.06678C4.08678 5.548 4.10978 5.548 4.12878 5.544L4.75878 7.311C4.83278 7.521 5.03478 7.653 5.24478 7.653C5.30278 7.653 5.36178 7.641 5.41978 7.622C5.68878 7.525 5.82878 7.229 5.73078 6.961L3.37478 0.35C3.37078 0.335 3.36378 0.319 3.35578 0.303L3.34378 0.28L3.33278 0.257C3.32878 0.249 3.32078 0.241 3.31678 0.229C3.31278 0.226 3.30878 0.218 3.30478 0.214C3.30178 0.206 3.29378 0.198 3.28578 0.191C3.28178 0.187 3.27778 0.179 3.26978 0.175C3.26678 0.167 3.25878 0.163 3.25078 0.156L3.23078 0.136C3.22778 0.132 3.21978 0.128 3.21578 0.121C3.20778 0.113 3.19978 0.109 3.19278 0.101C3.18878 0.0969997 3.18078 0.0929996 3.17678 0.0889996C3.16878 0.0859996 3.16178 0.0780002 3.15378 0.0740002L3.12978 0.0620001L3.10678 0.0500001C3.09078 0.0430001 3.07578 0.035 3.05978 0.031H3.05678L3.00978 0.0189999C3.00178 0.0189999 2.99778 0.0150002 2.98978 0.0150002C2.97878 0.0110002 2.97078 0.0110002 2.95878 0.00800024C2.95078 0.00800024 2.94278 0.00799957 2.93578 0.00399957C2.92778 0.00399957 2.91578 -1.37329e-07 2.90878 -1.37329e-07H2.85778C2.84978 -1.37329e-07 2.83878 -4.27477e-07 2.83078 0.00399957C2.82278 0.00399957 2.81478 0.00400024 2.80778 0.00800024C2.79578 0.00800024 2.78778 0.0119997 2.77678 0.0159997C2.76878 0.0159997 2.76478 0.0200003 2.75778 0.0200003C2.74078 0.0230003 2.72578 0.027 2.71378 0.031H2.70978C2.69478 0.035 2.67878 0.0430001 2.66278 0.0500001L2.63978 0.0620001L2.61678 0.0740002C2.60878 0.0780002 2.60078 0.0859996 2.58878 0.0889996C2.58578 0.0929996 2.57778 0.0969997 2.57378 0.101C2.56578 0.109 2.55778 0.113 2.55078 0.121C2.54678 0.124 2.53878 0.128 2.53478 0.136L2.49578 0.175C2.49178 0.179 2.48778 0.187 2.48078 0.191C2.47278 0.198 2.46878 0.206 2.46078 0.214C2.45678 0.218 2.45278 0.226 2.44878 0.229C2.44478 0.237 2.43778 0.245 2.43378 0.253L2.42178 0.276L2.41078 0.3C2.40278 0.315 2.39478 0.331 2.39078 0.346L0.0247804 6.957C-0.0602196 7.23 0.0797803 7.525 0.34778 7.622ZM2.88878 2.062L3.76378 4.514H2.00978L2.88878 2.062Z" transform="translate(5.10922 9.02399)" fill="#A6B5C5" stroke="#A6B5C5" stroke-width="0.5" stroke-miterlimit="10"/>
</svg>
