<svg width="23" height="22" viewBox="0 0 23 22" version="1.1" xmlns="http://www.w3.org/2000/svg" xmlns:xlink="http://www.w3.org/1999/xlink">
<title>Group</title>
<desc>Created using Figma</desc>
<g id="Canvas" transform="translate(-5005 2457)">
<g id="Group">
<g id="Vector">
<use xlink:href="#path0_fill" transform="translate(5006 -2456.13)" fill="#FFFFFF"/>
<use xlink:href="#path1_fill" transform="translate(5006 -2456.13)" fill="#FFFFFF"/>
<use xlink:href="#path2_stroke" transform="translate(5006 -2456.13)" fill="#FFFFFF"/>
</g>
</g>
</g>
<defs>
<path id="path0_fill" d="M 3.34907 15.7792L 0.994607 18.0396C 0.705837 18.3168 0.705837 18.7649 0.994607 19.0421C 1.13862 19.1804 1.32769 19.2499 1.51675 19.2499C 1.70582 19.2499 1.89489 19.1804 2.0389 19.0421L 4.39337 16.7818C 4.68214 16.5045 4.68214 16.0564 4.39337 15.7792C 4.1046 15.502 3.63784 15.502 3.34907 15.7792Z"/>
<path id="path1_fill" d="M 15.1089 15.0085L 14.9612 11.5911C 17.9153 9.07405 19.1929 6.67054 20.2121 3.01201L 20.8029 0.89205C 20.8694 0.650984 20.8029 0.388649 20.6109 0.211394C 20.4263 0.02705 20.153 -0.0438532 19.9019 0.0270485L 17.6863 0.594264C 13.8828 1.57271 11.3792 2.79216 8.75741 5.63531L 5.19765 5.48642C 4.50342 5.45806 3.8018 5.81257 3.42515 6.38687L 0.116488 11.4067C -0.068147 11.6832 -0.0312194 12.0448 0.212499 12.2859C 0.352822 12.4206 0.544842 12.4915 0.736862 12.4915C 0.869799 12.4915 1.00274 12.4631 1.1209 12.3922L 3.47685 11.0168C 4.13415 10.6339 4.84315 10.3857 5.55953 10.2723C 5.13118 11.1444 4.76191 12.0377 4.48126 12.9666C 4.40002 13.2147 4.47388 13.4841 4.6659 13.6685L 6.59349 15.519C 6.73381 15.6537 6.92583 15.7246 7.11785 15.7246C 7.18432 15.7246 7.25818 15.7175 7.32464 15.6963C 8.29213 15.4268 9.22269 15.0723 10.1311 14.6611C 10.0129 15.3488 9.75444 16.0295 9.35563 16.6605L 7.92286 18.9152C 7.74561 19.1988 7.78992 19.5604 8.03364 19.7944C 8.18135 19.9291 8.36599 20 8.55062 20C 8.69094 20 8.82388 19.9575 8.94943 19.8866L 14.1783 16.7102C 14.7765 16.3486 15.1377 15.6821 15.1089 15.0085ZM 15.035 5.5637C 14.4582 5.00996 14.4582 4.11235 15.035 3.5586C 15.6118 3.00486 16.5468 3.00486 17.1236 3.5586C 17.7004 4.11235 17.7004 5.00996 17.1236 5.5637C 16.5475 6.11745 15.6118 6.11745 15.035 5.5637Z"/>
<path id="path2_stroke" d="M 3.34907 15.7792L 3.17594 15.5989L 3.17594 15.5989L 3.34907 15.7792ZM 0.994607 18.0396L 1.16774 18.2199L 1.16774 18.2199L 0.994607 18.0396ZM 0.994607 19.0421L 0.821471 19.2225L 0.994607 19.0421ZM 2.0389 19.0421L 2.21204 19.2225L 2.21204 19.2225L 2.0389 19.0421ZM 4.39337 16.7818L 4.22023 16.6014L 4.22023 16.6014L 4.39337 16.7818ZM 15.1089 15.0085L 15.3586 14.9978L 15.3586 14.9977L 15.1089 15.0085ZM 14.9612 11.5911L 14.799 11.4008L 14.7061 11.4799L 14.7114 11.6019L 14.9612 11.5911ZM 20.2121 3.01201L 19.9713 2.9449L 19.9713 2.94492L 20.2121 3.01201ZM 20.8029 0.89205L 21.0438 0.959168L 21.044 0.958503L 20.8029 0.89205ZM 20.6109 0.211394L 20.4341 0.388446L 20.4413 0.395093L 20.6109 0.211394ZM 19.9019 0.0270485L 19.9639 0.269311L 19.9699 0.267642L 19.9019 0.0270485ZM 17.6863 0.594264L 17.6243 0.352075L 17.624 0.352147L 17.6863 0.594264ZM 8.75741 5.63531L 8.74696 5.8851L 8.86268 5.88994L 8.9412 5.80479L 8.75741 5.63531ZM 5.19765 5.48642L 5.20809 5.23664L 5.20785 5.23663L 5.19765 5.48642ZM 3.42515 6.38687L 3.63389 6.52445L 3.6342 6.52398L 3.42515 6.38687ZM 0.116488 11.4067L 0.324403 11.5455L 0.325225 11.5443L 0.116488 11.4067ZM 0.212499 12.2859L 0.0366726 12.4637L 0.0393637 12.4662L 0.212499 12.2859ZM 1.1209 12.3922L 0.994845 12.1763L 0.992277 12.1779L 1.1209 12.3922ZM 3.47685 11.0168L 3.35102 10.8007L 3.3508 10.8009L 3.47685 11.0168ZM 5.55953 10.2723L 5.78393 10.3825L 5.99636 9.95L 5.52043 10.0254L 5.55953 10.2723ZM 4.48126 12.9666L 4.71892 13.0444L 4.72058 13.0389L 4.48126 12.9666ZM 4.6659 13.6685L 4.49276 13.8488L 4.49276 13.8488L 4.6659 13.6685ZM 6.59349 15.519L 6.76662 15.3387L 6.76662 15.3387L 6.59349 15.519ZM 7.32464 15.6963L 7.25753 15.4553L 7.24845 15.4582L 7.32464 15.6963ZM 10.1311 14.6611L 10.3775 14.7034L 10.4573 14.239L 10.028 14.4334L 10.1311 14.6611ZM 9.35563 16.6605L 9.56663 16.7946L 9.56696 16.7941L 9.35563 16.6605ZM 7.92286 18.9152L 7.71185 18.7811L 7.71086 18.7827L 7.92286 18.9152ZM 8.03364 19.7944L 7.86045 19.9748L 7.86518 19.9791L 8.03364 19.7944ZM 8.94943 19.8866L 9.07243 20.1044L 9.07923 20.1002L 8.94943 19.8866ZM 14.1783 16.7102L 14.049 16.4962L 14.0485 16.4965L 14.1783 16.7102ZM 17.1236 5.5637L 16.9505 5.38336L 16.9503 5.38347L 17.1236 5.5637ZM 3.17594 15.5989L 0.821471 17.8592L 1.16774 18.2199L 3.52221 15.9596L 3.17594 15.5989ZM 0.821471 17.8592C 0.430216 18.2348 0.430216 18.8468 0.821471 19.2225L 1.16774 18.8618C 0.981459 18.6829 0.981459 18.3987 1.16774 18.2199L 0.821471 17.8592ZM 0.821471 19.2225C 1.01481 19.4081 1.26709 19.4999 1.51675 19.4999L 1.51675 18.9999C 1.38828 18.9999 1.26243 18.9527 1.16774 18.8618L 0.821471 19.2225ZM 1.51675 19.4999C 1.76641 19.4999 2.01869 19.4081 2.21204 19.2225L 1.86577 18.8618C 1.77108 18.9527 1.64522 18.9999 1.51675 18.9999L 1.51675 19.4999ZM 2.21204 19.2225L 4.5665 16.9621L 4.22023 16.6014L 1.86577 18.8618L 2.21204 19.2225ZM 4.5665 16.9621C 4.95776 16.5865 4.95776 15.9745 4.5665 15.5989L 4.22023 15.9596C 4.40652 16.1384 4.40652 16.4226 4.22023 16.6014L 4.5665 16.9621ZM 4.5665 15.5989C 4.18099 15.2288 3.56145 15.2288 3.17594 15.5989L 3.52221 15.9596C 3.71424 15.7752 4.0282 15.7752 4.22023 15.9596L 4.5665 15.5989ZM 15.3586 14.9977L 15.2109 11.5803L 14.7114 11.6019L 14.8591 15.0193L 15.3586 14.9977ZM 15.1233 11.7814C 18.1102 9.23063 19.4251 6.7633 20.4529 3.0791L 19.9713 2.94492C 18.9608 6.57778 17.7204 8.91746 14.799 11.4008L 15.1233 11.7814ZM 20.4529 3.07913L 21.0438 0.959168L 20.5621 0.824933L 19.9713 2.9449L 20.4529 3.07913ZM 21.044 0.958503C 21.1342 0.631283 21.0443 0.271187 20.7805 0.0276958L 20.4413 0.395093C 20.5616 0.506111 20.6047 0.670686 20.5619 0.825598L 21.044 0.958503ZM 20.7876 0.0344786C 20.5388 -0.213897 20.172 -0.308973 19.834 -0.213544L 19.9699 0.267642C 20.1341 0.221267 20.3138 0.267997 20.4343 0.38831L 20.7876 0.0344786ZM 19.8399 -0.215141L 17.6243 0.352075L 17.7483 0.836454L 19.9639 0.269238L 19.8399 -0.215141ZM 17.624 0.352147C 13.7965 1.33808 11.23 2.59157 8.57363 5.46584L 8.9412 5.80479C 11.5284 2.99274 13.9691 1.80733 17.7486 0.836381L 17.624 0.352147ZM 8.76786 5.38553L 5.20809 5.23664L 5.1872 5.7362L 8.74696 5.8851L 8.76786 5.38553ZM 5.20785 5.23663C 4.42786 5.20476 3.64207 5.60027 3.2161 6.24977L 3.6342 6.52398C 3.96154 6.02486 4.57898 5.71135 5.18744 5.73621L 5.20785 5.23663ZM 3.21641 6.24929L -0.092249 11.2691L 0.325225 11.5443L 3.63389 6.52445L 3.21641 6.24929ZM -0.0914235 11.2679C -0.343913 11.646 -0.29042 12.1401 0.0366921 12.4636L 0.388306 12.1082C 0.227982 11.9496 0.207619 11.7204 0.3244 11.5455L -0.0914235 11.2679ZM 0.0393637 12.4662C 0.229842 12.6491 0.485468 12.7415 0.736862 12.7415L 0.736862 12.2415C 0.604215 12.2415 0.475802 12.1921 0.385634 12.1055L 0.0393637 12.4662ZM 0.736862 12.7415C 0.896024 12.7401 1.09438 12.6957 1.24953 12.6066L 0.992277 12.1779C 0.911097 12.2305 0.843574 12.2429 0.736862 12.2415L 0.736862 12.7415ZM 1.24695 12.6081L 3.6029 11.2327L 3.3508 10.8009L 0.994854 12.1763L 1.24695 12.6081ZM 3.60268 11.2328C 4.23884 10.8609 4.90424 10.6281 5.59863 10.5192L 5.52043 10.0254C 4.78206 10.1433 4.02946 10.4069 3.35102 10.8007L 3.60268 11.2328ZM 5.33514 10.1621C 4.90334 11.0415 4.52644 11.9537 4.24195 12.8942L 4.72058 13.0389C 4.99737 12.1217 5.35902 11.2473 5.78393 10.3825L 5.33514 10.1621ZM 4.24367 12.8888C 4.13069 13.2339 4.23588 13.6022 4.49276 13.8488L 4.83903 13.4881C 4.71188 13.3661 4.66936 13.1955 4.71885 13.0443L 4.24367 12.8888ZM 4.49276 13.8488L 6.42035 15.6994L 6.76662 15.3387L 4.83903 13.4881L 4.49276 13.8488ZM 6.42035 15.6994C 6.61083 15.8822 6.86646 15.9746 7.11785 15.9746L 7.11785 15.4746C 6.9852 15.4746 6.85679 15.4252 6.76662 15.3387L 6.42035 15.6994ZM 7.11785 15.9746C 7.19628 15.9743 7.30851 15.9624 7.40084 15.9344L 7.24845 15.4582C 7.20784 15.4727 7.17236 15.4749 7.11785 15.4746L 7.11785 15.9746ZM 7.39171 15.9371C 8.37025 15.6643 9.31879 15.3031 10.2342 14.8889L 10.028 14.4334C 9.1266 14.8415 8.21401 15.1894 7.25758 15.4554L 7.39171 15.9371ZM 9.88471 14.6188C 9.77176 15.283 9.53079 15.9178 9.1443 16.527L 9.56696 16.7941C 9.97809 16.1412 10.2541 15.4147 10.3775 14.7034L 9.88471 14.6188ZM 9.14463 16.5264L 7.71186 18.7811L 8.13386 19.0493L 9.56663 16.7946L 9.14463 16.5264ZM 7.71086 18.7827C 7.47073 19.1669 7.53167 19.659 7.86051 19.9747L 8.20678 19.614C 8.04818 19.4618 8.02049 19.2307 8.13486 19.0477L 7.71086 18.7827ZM 7.86518 19.9791C 8.05003 20.1418 8.32041 20.2458 8.55062 20.25L 8.55062 19.75C 8.41156 19.7542 8.31267 19.7164 8.20211 19.6097L 7.86518 19.9791ZM 8.55062 20.25C 8.7295 20.247 8.92397 20.1866 9.07237 20.1042L 8.8265 19.6689C 8.7238 19.7284 8.65239 19.753 8.55062 19.75L 8.55062 20.25ZM 9.07923 20.1002L 14.3081 16.9238L 14.0485 16.4965L 8.81964 19.6729L 9.07923 20.1002ZM 14.3076 16.9241C 14.9816 16.5167 15.3915 15.7654 15.3586 14.9978L 14.8591 15.0192C 14.8839 15.5988 14.5714 16.1804 14.049 16.4962L 14.3076 16.9241ZM 15.2081 5.38336C 14.7338 4.92801 14.7338 4.1943 15.2081 3.73895L 14.8619 3.37826C 14.1826 4.03039 14.1826 5.09192 14.8619 5.74405L 15.2081 5.38336ZM 15.2081 3.73895C 15.6882 3.27808 16.4704 3.27808 16.9505 3.73895L 17.2967 3.37826C 16.6232 2.73164 15.5354 2.73164 14.8619 3.37826L 15.2081 3.73895ZM 16.9505 3.73895C 17.4248 4.1943 17.4248 4.92801 16.9505 5.38336L 17.2967 5.74405C 17.976 5.09192 17.976 4.03039 17.2967 3.37826L 16.9505 3.73895ZM 16.9503 5.38347C 16.4711 5.84413 15.6883 5.84429 15.2081 5.38336L 14.8619 5.74405C 15.5353 6.3906 16.624 6.39076 17.2968 5.74394L 16.9503 5.38347Z"/>
</defs>
</svg>
