<svg width="23" height="22" viewBox="0 0 23 22" version="1.1" xmlns="http://www.w3.org/2000/svg" xmlns:xlink="http://www.w3.org/1999/xlink">
<title>Group</title>
<desc>Created using Figma</desc>
<g id="Canvas" transform="translate(-4896 2457)">
<g id="Group">
<g id="Vector">
<use xlink:href="#path0_stroke" transform="translate(4897 -2456.13)" fill="#A6B5C5"/>
</g>
</g>
</g>
<defs>
<path id="path0_stroke" d="M 3.34907 15.7792L 2.86429 15.2743L 2.86429 15.2743L 3.34907 15.7792ZM 0.994607 18.0396L 1.47939 18.5445L 1.47939 18.5445L 0.994607 18.0396ZM 0.994607 19.0421L 0.509828 19.5471L 0.994607 19.0421ZM 2.0389 19.0421L 2.52368 19.5471L 2.52368 19.5471L 2.0389 19.0421ZM 4.39337 16.7818L 3.90859 16.2768L 3.90859 16.2768L 4.39337 16.7818ZM 15.1089 15.0085L 15.8082 14.9786L 15.8082 14.9783L 15.1089 15.0085ZM 14.9612 11.5911L 14.5072 11.0582L 14.247 11.2799L 14.2618 11.6213L 14.9612 11.5911ZM 20.2121 3.01201L 19.5378 2.82408L 19.5378 2.82416L 20.2121 3.01201ZM 20.8029 0.89205L 21.4772 1.07998L 21.4778 1.07812L 20.8029 0.89205ZM 20.6109 0.211394L 20.1163 0.706759L 20.126 0.716449L 20.1361 0.725751L 20.6109 0.211394ZM 19.9019 0.0270485L 20.0755 0.705179L 20.0839 0.703046L 20.0921 0.700709L 19.9019 0.0270485ZM 17.6863 0.594264L 17.5127 -0.0838665L 17.5119 -0.0836633L 17.6863 0.594264ZM 8.75741 5.63531L 8.72816 6.3347L 9.05217 6.34826L 9.27201 6.10985L 8.75741 5.63531ZM 5.19765 5.48642L 5.2269 4.78703L 5.22622 4.787L 5.19765 5.48642ZM 3.42515 6.38687L 4.00961 6.7721L 4.01049 6.77077L 3.42515 6.38687ZM 0.116488 11.4067L 0.698651 11.7954L 0.700952 11.7919L 0.116488 11.4067ZM 0.212499 12.2859L -0.279815 12.7836L -0.27228 12.7909L 0.212499 12.2859ZM 1.1209 12.3922L 0.767941 11.7877L 0.76075 11.792L 1.1209 12.3922ZM 3.47685 11.0168L 3.12452 10.4119L 3.12391 10.4122L 3.47685 11.0168ZM 5.55953 10.2723L 6.18783 10.5809L 6.78266 9.36988L 5.45005 9.5809L 5.55953 10.2723ZM 4.48126 12.9666L 5.14652 13.1843L 5.14902 13.1767L 5.15134 13.169L 4.48126 12.9666ZM 4.6659 13.6685L 4.18112 14.1734L 4.18112 14.1734L 4.6659 13.6685ZM 6.59349 15.519L 7.07827 15.014L 7.07827 15.014L 6.59349 15.519ZM 7.32464 15.6963L 7.13685 15.0219L 7.124 15.0255L 7.1113 15.0296L 7.32464 15.6963ZM 10.1311 14.6611L 10.821 14.7796L 11.0444 13.4793L 9.84241 14.0234L 10.1311 14.6611ZM 9.35563 16.6605L 9.94644 17.036L 9.94736 17.0345L 9.35563 16.6605ZM 7.92286 18.9152L 7.33204 18.5398L 7.32926 18.5442L 7.92286 18.9152ZM 8.03364 19.7944L 7.54886 20.2993L 7.55532 20.3056L 7.56194 20.3116L 8.03364 19.7944ZM 8.94943 19.8866L 9.29364 20.4961L 9.30334 20.4906L 9.31286 20.4848L 8.94943 19.8866ZM 14.1783 16.7102L 13.8162 16.1111L 13.8149 16.1119L 14.1783 16.7102ZM 17.1236 5.5637L 16.6388 5.05874L 16.6385 5.05905L 17.1236 5.5637ZM 2.86429 15.2743L 0.509828 17.5346L 1.47939 18.5445L 3.83385 16.2842L 2.86429 15.2743ZM 0.509828 17.5346C -0.065903 18.0873 -0.065903 18.9944 0.509828 19.5471L 1.47939 18.5372C 1.47576 18.5337 1.47599 18.5327 1.47686 18.5348C 1.47755 18.5364 1.47803 18.5385 1.47803 18.5408C 1.47803 18.5432 1.47755 18.5453 1.47686 18.5469C 1.47599 18.549 1.47576 18.548 1.47939 18.5445L 0.509828 17.5346ZM 0.509828 19.5471C 0.791956 19.8179 1.15802 19.9499 1.51675 19.9499L 1.51675 18.5499C 1.49736 18.5499 1.48529 18.5428 1.47939 18.5372L 0.509828 19.5471ZM 1.51675 19.9499C 1.87549 19.9499 2.24155 19.8179 2.52368 19.5471L 1.55412 18.5372C 1.54822 18.5428 1.53615 18.5499 1.51675 18.5499L 1.51675 19.9499ZM 2.52368 19.5471L 4.87815 17.2867L 3.90859 16.2768L 1.55412 18.5372L 2.52368 19.5471ZM 4.87815 17.2867C 5.45388 16.734 5.45388 15.827 4.87815 15.2743L 3.90859 16.2842C 3.91221 16.2877 3.91198 16.2886 3.91111 16.2866C 3.91043 16.2849 3.90994 16.2828 3.90994 16.2805C 3.90994 16.2782 3.91043 16.276 3.91111 16.2744C 3.91198 16.2724 3.91221 16.2733 3.90859 16.2768L 4.87815 17.2867ZM 4.87815 15.2743C 4.3185 14.737 3.42394 14.737 2.86429 15.2743L 3.83385 16.2842C 3.84019 16.2781 3.8521 16.2713 3.87122 16.2713C 3.89034 16.2713 3.90225 16.2781 3.90859 16.2842L 4.87815 15.2743ZM 15.8082 14.9783L 15.6605 11.5608L 14.2618 11.6213L 14.4095 15.0387L 15.8082 14.9783ZM 15.4151 12.1239C 18.461 9.51249 19.843 6.93027 20.8864 3.19986L 19.5378 2.82416C 18.5429 6.41081 17.3696 8.63561 14.5072 11.0582L 15.4151 12.1239ZM 20.8864 3.19994L 21.4772 1.07998L 20.1286 0.704122L 19.5378 2.82408L 20.8864 3.19994ZM 21.4778 1.07812C 21.6107 0.595821 21.4787 0.0597553 21.0857 -0.302962L 20.1361 0.725751C 20.1355 0.725135 20.1338 0.723407 20.1321 0.720621C 20.1305 0.717945 20.1294 0.715243 20.1288 0.712851C 20.1275 0.708189 20.1282 0.705821 20.1281 0.705984L 21.4778 1.07812ZM 21.1055 -0.28397C 20.7413 -0.647602 20.206 -0.78619 19.7117 -0.646612L 20.0921 0.700709C 20.0948 0.699948 20.0994 0.699483 20.1053 0.701003C 20.1111 0.702518 20.1147 0.705083 20.1163 0.706759L 21.1055 -0.28397ZM 19.7283 -0.651082L 17.5127 -0.0838661L 17.8599 1.27239L 20.0755 0.705179L 19.7283 -0.651082ZM 17.5119 -0.0836633C 13.6411 0.915755 10.9614 2.23051 8.24281 5.16078L 9.27201 6.10985C 11.797 3.3538 14.1245 2.22966 17.8607 1.27219L 17.5119 -0.0836633ZM 8.78667 4.93593L 5.2269 4.78703L 5.16839 6.18581L 8.72816 6.3347L 8.78667 4.93593ZM 5.22622 4.787C 4.29185 4.74883 3.35454 5.21815 2.83981 6.00298L 4.01049 6.77077C 4.24907 6.40699 4.71498 6.16729 5.16907 6.18584L 5.22622 4.787ZM 2.84069 6.00164L -0.467976 11.0215L 0.700952 11.7919L 4.00961 6.7721L 2.84069 6.00164ZM -0.465665 11.018C -0.840291 11.5791 -0.756982 12.3115 -0.27976 12.7836L 0.704758 11.7882C 0.702295 11.7858 0.700845 11.7839 0.700067 11.7829C 0.699282 11.7818 0.698999 11.7812 0.698986 11.7811C 0.698968 11.7811 0.699135 11.7815 0.69934 11.7822C 0.699542 11.7829 0.69975 11.7838 0.699877 11.785C 0.700144 11.7875 0.69998 11.7903 0.699341 11.7929C 0.698657 11.7957 0.697849 11.7966 0.698641 11.7954L -0.465665 11.018ZM -0.27228 12.7909C 0.00847738 13.0604 0.378596 13.1915 0.736862 13.1915L 0.736862 11.7915C 0.726255 11.7915 0.715758 11.7894 0.707362 11.7862C 0.699242 11.783 0.696554 11.7802 0.697278 11.7809L -0.27228 12.7909ZM 0.736862 13.1915C 0.943229 13.1876 1.25933 13.1144 1.48106 12.9925L 0.76075 11.792C 0.766338 11.7887 0.769277 11.7882 0.766655 11.7889C 0.763453 11.7897 0.753934 11.7915 0.736862 11.7915L 0.736862 13.1915ZM 1.47384 12.9968L 3.82979 11.6213L 3.12391 10.4122L 0.767966 11.7877L 1.47384 12.9968ZM 3.82918 11.6216C 4.42727 11.2696 5.01421 11.0645 5.66902 10.9637L 5.45005 9.5809C 4.67209 9.70695 3.84103 9.99821 3.12452 10.4119L 3.82918 11.6216ZM 4.93123 9.96368C 4.49324 10.8562 4.10261 11.8025 3.81118 12.7641L 5.15134 13.169C 5.4212 12.273 5.76912 11.4325 6.18783 10.5809L 4.93123 9.96368ZM 3.816 12.7488C 3.64588 13.2684 3.80747 13.8147 4.18112 14.1734L 5.15068 13.1635C 5.1454 13.1584 5.14633 13.1568 5.14756 13.1614C 5.14817 13.1637 5.14874 13.1672 5.14864 13.1716C 5.14853 13.1762 5.14772 13.1807 5.14652 13.1843L 3.816 12.7488ZM 4.18112 14.1734L 6.10871 16.024L 7.07827 15.014L 5.15068 13.1635L 4.18112 14.1734ZM 6.10871 16.024C 6.38947 16.2935 6.75958 16.4246 7.11785 16.4246L 7.11785 15.0246C 7.10725 15.0246 7.09675 15.0225 7.08835 15.0193C 7.08023 15.0162 7.07754 15.0134 7.07827 15.014L 6.10871 16.024ZM 7.11785 16.4246C 7.21781 16.4238 7.39911 16.4032 7.53799 16.363L 7.1113 15.0296C 7.1196 15.0269 7.12565 15.0255 7.12898 15.0248C 7.13235 15.0241 7.13392 15.0239 7.13351 15.0239C 7.13223 15.0241 7.1269 15.0246 7.11785 15.0246L 7.11785 16.4246ZM 7.51243 16.3706C 8.51086 16.0918 9.49176 15.7186 10.4198 15.2988L 9.84241 14.0234C 8.95362 14.4261 8.0734 14.7619 7.13685 15.0219L 7.51243 16.3706ZM 9.44121 14.5426C 9.33765 15.1645 9.12823 15.7167 8.7639 16.2866L 9.94736 17.0345C 10.3807 16.3423 10.6882 15.5332 10.821 14.7796L 9.44121 14.5426ZM 8.76483 16.2851L 7.33206 18.5398L 8.51366 19.2906L 9.94643 17.036L 8.76483 16.2851ZM 7.32926 18.5442C 6.97594 19.1095 7.0668 19.8366 7.54886 20.2993L 8.51842 19.2894C 8.51667 19.2877 8.51569 19.2865 8.5152 19.2859C 8.51495 19.2855 8.51478 19.2853 8.51469 19.2851C 8.51459 19.2849 8.51455 19.2849 8.51454 19.2849C 8.51454 19.2848 8.51463 19.285 8.51473 19.2854C 8.51483 19.2857 8.51492 19.2861 8.51498 19.2866C 8.51511 19.2876 8.51503 19.2885 8.51491 19.2891C 8.51474 19.2899 8.51475 19.2889 8.51646 19.2862L 7.32926 18.5442ZM 7.56194 20.3116C 7.81366 20.5248 8.23838 20.6883 8.55062 20.7L 8.55062 19.3C 8.54619 19.3 8.52836 19.2982 8.50534 19.2772L 7.56194 20.3116ZM 8.55062 20.7C 8.79891 20.6916 9.10412 20.5989 9.29364 20.4961L 8.60522 19.277C 8.58212 19.2901 8.5667 19.2958 8.55853 19.2982C 8.55105 19.3004 8.54907 19.3 8.55062 19.3L 8.55062 20.7ZM 9.31286 20.4848L 14.5417 17.3084L 13.8149 16.1119L 8.586 19.2883L 9.31286 20.4848ZM 14.5404 17.3092C 15.3508 16.8194 15.8483 15.9154 15.8082 14.9786L 14.4095 15.0384C 14.427 15.4487 14.2022 15.8778 13.8162 16.1111L 14.5404 17.3092ZM 15.5198 5.05874C 15.2299 4.78049 15.2299 4.34182 15.5198 4.06357L 14.5502 3.05364C 13.6865 3.88287 13.6865 5.23944 14.5502 6.06867L 15.5198 5.05874ZM 15.5198 4.06357C 15.8257 3.76987 16.3329 3.76987 16.6388 4.06357L 17.6084 3.05364C 16.7607 2.23985 15.3979 2.23985 14.5502 3.05364L 15.5198 4.06357ZM 16.6388 4.06357C 16.9287 4.34182 16.9287 4.78049 16.6388 5.05874L 17.6084 6.06867C 18.4721 5.23944 18.4721 3.88287 17.6084 3.05364L 16.6388 4.06357ZM 16.6385 5.05905C 16.3336 5.35216 15.8259 5.3526 15.5198 5.05874L 14.5502 6.06867C 15.3977 6.88229 16.7615 6.88273 17.6087 6.06836L 16.6385 5.05905Z"/>
</defs>
</svg>
