<svg width="20" height="18" viewBox="0 0 20 18" version="1.1" xmlns="http://www.w3.org/2000/svg" xmlns:xlink="http://www.w3.org/1999/xlink">
<title>Group</title>
<desc>Created using Figma</desc>
<g id="Canvas" transform="translate(-5007 2278)">
<g id="Group">
<g id="Group">
<g id="Vector">
<use xlink:href="#path0_fill" transform="translate(5008 -2277)" fill="#FFFFFF"/>
<use xlink:href="#path1_stroke" transform="translate(5008 -2277)" fill="#FFFFFF"/>
</g>
</g>
<g id="Group">
<g id="Vector">
<use xlink:href="#path2_stroke" transform="translate(5008 -2269.8)" fill="#263038"/>
</g>
</g>
</g>
</g>
<defs>
<path id="path0_fill" d="M 12.0441 1.69416L 17.0294 1.69416C 17.5147 1.69416 17.9118 2.07535 17.9118 2.54124L 17.9118 9.31789L 17.9118 14.5533C 17.9118 15.0192 17.5147 15.4004 17.0294 15.4004L 0.882353 15.4004C 0.397059 15.4004 0 15.0192 0 14.5533L 0 9.31789L 0 2.54124C 0 2.07535 0.397059 1.69416 0.882353 1.69416L 5.86765 1.69416L 5.86765 0.42354C 5.86765 0.169416 6.04412 0 6.30882 0L 11.6029 0C 11.8676 0 12.0441 0.169416 12.0441 0.42354L 12.0441 1.69416Z"/>
<path id="path1_stroke" d="M 12.0441 1.69416L 11.3441 1.69416L 11.3441 2.39416L 12.0441 2.39416L 12.0441 1.69416ZM 5.86765 1.69416L 5.86765 2.39416L 6.56765 2.39416L 6.56765 1.69416L 5.86765 1.69416ZM 17.0294 0.994162L 12.0441 0.994162L 12.0441 2.39416L 17.0294 2.39416L 17.0294 0.994162ZM 12.7441 1.69416L 12.7441 0.42354L 11.3441 0.42354L 11.3441 1.69416L 12.7441 1.69416ZM 12.7441 0.42354C 12.7441 0.128607 12.6379 -0.167415 12.4076 -0.38849C 12.1799 -0.607099 11.886 -0.7 11.6029 -0.7L 11.6029 0.7C 11.5846 0.7 11.5113 0.691807 11.438 0.621438C 11.3621 0.548601 11.3441 0.46435 11.3441 0.42354L 12.7441 0.42354ZM 11.6029 -0.7L 6.30882 -0.7L 6.30882 0.7L 11.6029 0.7L 11.6029 -0.7ZM 6.30882 -0.7C 6.02576 -0.7 5.7319 -0.607099 5.50419 -0.388491C 5.27391 -0.167416 5.16765 0.128605 5.16765 0.42354L 6.56765 0.42354C 6.56765 0.464351 6.54962 0.548603 6.47375 0.621438C 6.40045 0.691807 6.32718 0.7 6.30882 0.7L 6.30882 -0.7ZM 5.16765 0.42354L 5.16765 1.69416L 6.56765 1.69416L 6.56765 0.42354L 5.16765 0.42354ZM 5.86765 0.994162L 0.882353 0.994162L 0.882353 2.39416L 5.86765 2.39416L 5.86765 0.994162ZM 0.882353 0.994162C 0.0376491 0.994162 -0.7 1.66211 -0.7 2.54124L 0.7 2.54124C 0.7 2.48859 0.756469 2.39416 0.882353 2.39416L 0.882353 0.994162ZM 18.6118 2.54124C 18.6118 1.66211 17.8741 0.994162 17.0294 0.994162L 17.0294 2.39416C 17.1553 2.39416 17.2118 2.48859 17.2118 2.54124L 18.6118 2.54124ZM 17.2118 9.31789L 17.2118 14.5533L 18.6118 14.5533L 18.6118 9.31789L 17.2118 9.31789ZM 17.2118 14.5533C 17.2118 14.6059 17.1553 14.7004 17.0294 14.7004L 17.0294 16.1004C 17.8741 16.1004 18.6118 15.4324 18.6118 14.5533L 17.2118 14.5533ZM 17.0294 14.7004L 0.882353 14.7004L 0.882353 16.1004L 17.0294 16.1004L 17.0294 14.7004ZM 0.882353 14.7004C 0.756469 14.7004 0.7 14.6059 0.7 14.5533L -0.7 14.5533C -0.7 15.4324 0.0376493 16.1004 0.882353 16.1004L 0.882353 14.7004ZM 0.7 14.5533L 0.7 9.31789L -0.7 9.31789L -0.7 14.5533L 0.7 14.5533ZM 17.2118 2.54124L 17.2118 9.31789L 18.6118 9.31789L 18.6118 2.54124L 17.2118 2.54124ZM -0.7 2.54124L -0.7 9.31789L 0.7 9.31789L 0.7 2.54124L -0.7 2.54124Z"/>
<path id="path2_stroke" d="M 10.5 1.60406C 10.1134 1.60406 9.8 1.91746 9.8 2.30406C 9.8 2.69066 10.1134 3.00406 10.5 3.00406L 10.5 1.60406ZM 18 3.00406C 18.3866 3.00406 18.7 2.69066 18.7 2.30406C 18.7 1.91746 18.3866 1.60406 18 1.60406L 18 3.00406ZM 0 1.60406C -0.386599 1.60406 -0.7 1.91746 -0.7 2.30406C -0.7 2.69066 -0.386599 3.00406 0 3.00406L 0 1.60406ZM 7.5 3.00406C 7.8866 3.00406 8.2 2.69066 8.2 2.30406C 8.2 1.91746 7.8866 1.60406 7.5 1.60406L 7.5 3.00406ZM 8.25 0.7L 9.75 0.7L 9.75 -0.7L 8.25 -0.7L 8.25 0.7ZM 9.8 0.720019L 9.8 3.60009L 11.2 3.60009L 11.2 0.720019L 9.8 0.720019ZM 9.75 3.62011L 8.25 3.62011L 8.25 5.02011L 9.75 5.02011L 9.75 3.62011ZM 8.2 3.60009L 8.2 0.720019L 6.8 0.720019L 6.8 3.60009L 8.2 3.60009ZM 8.25 -0.7C 7.47638 -0.7 6.8 -0.0908758 6.8 0.720019L 8.2 0.720019C 8.2 0.719723 8.20002 0.720097 8.19986 0.720837C 8.19979 0.721154 8.19971 0.721433 8.19964 0.721655C 8.19957 0.721874 8.19952 0.721985 8.19952 0.721981C 8.19952 0.721981 8.19978 0.721388 8.20055 0.7203C 8.20132 0.719198 8.20258 0.717649 8.20445 0.715853C 8.21215 0.708457 8.22682 0.7 8.25 0.7L 8.25 -0.7ZM 9.75 0.7C 9.77318 0.7 9.78785 0.708457 9.79555 0.715853C 9.79742 0.717649 9.79868 0.719198 9.79945 0.7203C 9.80022 0.721388 9.80048 0.721981 9.80048 0.721981C 9.80048 0.721985 9.80043 0.721874 9.80036 0.721655C 9.80029 0.721433 9.80021 0.721154 9.80014 0.720837C 9.79998 0.720097 9.8 0.719723 9.8 0.720019L 11.2 0.720019C 11.2 -0.0908758 10.5236 -0.7 9.75 -0.7L 9.75 0.7ZM 9.8 3.60009C 9.8 3.60039 9.79998 3.60002 9.80014 3.59928C 9.80021 3.59896 9.80029 3.59868 9.80036 3.59846C 9.80043 3.59824 9.80048 3.59813 9.80048 3.59813C 9.80048 3.59813 9.80022 3.59872 9.79945 3.59981C 9.79868 3.60091 9.79742 3.60246 9.79555 3.60426C 9.78785 3.61166 9.77318 3.62011 9.75 3.62011L 9.75 5.02011C 10.5236 5.02011 11.2 4.41099 11.2 3.60009L 9.8 3.60009ZM 8.25 3.62011C 8.22682 3.62011 8.21215 3.61166 8.20445 3.60426C 8.20258 3.60246 8.20132 3.60091 8.20055 3.59981C 8.19978 3.59872 8.19952 3.59813 8.19952 3.59813C 8.19952 3.59813 8.19957 3.59824 8.19964 3.59846C 8.19971 3.59868 8.19979 3.59896 8.19986 3.59928C 8.20002 3.60002 8.2 3.60039 8.2 3.60009L 6.8 3.60009C 6.8 4.41099 7.47638 5.02011 8.25 5.02011L 8.25 3.62011ZM 10.5 3.00406L 18 3.00406L 18 1.60406L 10.5 1.60406L 10.5 3.00406ZM 0 3.00406L 7.5 3.00406L 7.5 1.60406L 0 1.60406L 0 3.00406Z"/>
</defs>
</svg>
