<svg width="22" height="21" viewBox="0 0 22 21" version="1.1" xmlns="http://www.w3.org/2000/svg" xmlns:xlink="http://www.w3.org/1999/xlink">
<title>Group</title>
<desc>Created using Figma</desc>
<g id="Canvas" transform="translate(-5006 2098)">
<g id="Group">
<g id="Group">
<g id="Line 2">
<use xlink:href="#path0_fill" transform="matrix(0.164399 0.986394 -0.986394 0.164399 5025.69 -2098)" fill="#FFFFFF"/>
<mask id="mask0_outline_ins">
<use xlink:href="#path0_fill" fill="white" transform="matrix(0.164399 0.986394 -0.986394 0.164399 5025.69 -2098)"/>
</mask>
<g mask="url(#mask0_outline_ins)">
<use xlink:href="#path1_stroke_2x" transform="matrix(0.164399 0.986394 -0.986394 0.164399 5025.69 -2098)" fill="#FFFFFF"/>
</g>
</g>
<g id="Line 2">
<use xlink:href="#path2_stroke" transform="matrix(0.164399 0.986394 -0.986394 0.164399 5007.5 -2095.39)" fill="#FFFFFF"/>
</g>
</g>
</g>
</g>
<defs>
<path id="path0_fill" d="M 9.20443 15.9056L 1.1689 15.9056C 0.554889 15.9056 0.0858999 15.3574 0.180952 14.7508L 1.24649 7.95065C 1.25982 7.8656 1.32606 7.79863 1.41096 7.78437L 2.84864 7.54292C 2.93353 7.52867 2.99978 7.46169 3.0131 7.37665L 3.92044 1.58607C 4.03505 0.85467 4.87702 0.497049 5.48294 0.922406L 8.22179 2.84506C 8.5175 3.05265 8.90218 3.08458 9.22807 2.9286L 12.4245 1.3987C 13.1506 1.05117 13.9688 1.66024 13.8442 2.45551L 13.067 7.41501C 13.0568 7.48011 13.0152 7.53601 12.9558 7.56445L 11.3331 8.34112C 11.2737 8.36956 11.232 8.42546 11.2218 8.49056L 10.1924 15.0604C 10.1161 15.5469 9.69695 15.9056 9.20443 15.9056Z"/>
<path id="path1_stroke_2x" d="M 1.1689 15.9056L 1.1689 14.5056L 1.1689 14.5056L 1.1689 15.9056ZM 9.20443 15.9056L 9.20443 14.5056L 9.20443 14.5056L 9.20443 15.9056ZM 10.1924 15.0604L 11.5755 15.2771L 11.5755 15.2771L 10.1924 15.0604ZM 11.2218 8.49056L 9.83872 8.27383L 9.83872 8.27383L 11.2218 8.49056ZM 11.3331 8.34112L 11.9375 9.60393L 11.9375 9.60393L 11.3331 8.34112ZM 12.9558 7.56445L 12.3514 6.30164L 12.3514 6.30164L 12.9558 7.56445ZM 13.067 7.41501L 11.6839 7.19828L 11.6839 7.19828L 13.067 7.41501ZM 13.8442 2.45551L 15.2273 2.67224L 15.2273 2.67224L 13.8442 2.45551ZM 12.4245 1.3987L 11.8201 0.135893L 11.8201 0.135893L 12.4245 1.3987ZM 9.22807 2.9286L 8.62366 1.66579L 8.62366 1.66579L 9.22807 2.9286ZM 8.22179 2.84506L 9.02617 1.69921L 9.02617 1.69921L 8.22179 2.84506ZM 5.48294 0.922406L 4.67856 2.06826L 4.67856 2.06826L 5.48294 0.922406ZM 3.92044 1.58607L 2.53732 1.36934L 2.53732 1.36934L 3.92044 1.58607ZM 3.0131 7.37665L 4.39623 7.59337L 4.39623 7.59337L 3.0131 7.37665ZM 2.84864 7.54292L 2.61677 6.16226L 2.61677 6.16226L 2.84864 7.54292ZM 1.41096 7.78437L 1.17909 6.40371L 1.17909 6.40371L 1.41096 7.78437ZM 1.24649 7.95065L -0.136631 7.73392L -0.136631 7.73392L 1.24649 7.95065ZM 0.180952 14.7508L -1.20217 14.534L -1.20217 14.534L 0.180952 14.7508ZM 1.1689 17.3056L 9.20443 17.3056L 9.20443 14.5056L 1.1689 14.5056L 1.1689 17.3056ZM 11.5755 15.2771L 12.605 8.70729L 9.83872 8.27383L 8.80925 14.8436L 11.5755 15.2771ZM 11.9375 9.60393L 13.5602 8.82727L 12.3514 6.30164L 10.7287 7.07831L 11.9375 9.60393ZM 14.4502 7.63174L 15.2273 2.67224L 12.4611 2.23878L 11.6839 7.19828L 14.4502 7.63174ZM 11.8201 0.135893L 8.62366 1.66579L 9.83248 4.19141L 13.0289 2.66151L 11.8201 0.135893ZM 9.02617 1.69921L 6.28732 -0.223444L 4.67856 2.06826L 7.41741 3.99091L 9.02617 1.69921ZM 2.53732 1.36934L 1.62998 7.15992L 4.39623 7.59337L 5.30356 1.80279L 2.53732 1.36934ZM 2.61677 6.16226L 1.17909 6.40371L 1.64283 9.16504L 3.08051 8.92359L 2.61677 6.16226ZM -0.136631 7.73392L -1.20217 14.534L 1.56407 14.9675L 2.62961 8.16738L -0.136631 7.73392ZM 1.1689 14.5056C 1.4145 14.5056 1.6021 14.7248 1.56407 14.9675L -1.20217 14.534C -1.4303 15.9899 -0.304722 17.3056 1.1689 17.3056L 1.1689 14.5056ZM 9.20443 17.3056C 10.3865 17.3056 11.3925 16.4449 11.5755 15.2771L 8.80925 14.8436C 8.83975 14.649 9.00742 14.5056 9.20443 14.5056L 9.20443 17.3056ZM 12.605 8.70729C 12.5438 9.09787 12.2941 9.43325 11.9375 9.60393L 10.7287 7.0783C 10.2532 7.30588 9.92032 7.75305 9.83872 8.27383L 12.605 8.70729ZM 13.5602 8.82727C 14.0357 8.59969 14.3686 8.15253 14.4502 7.63174L 11.6839 7.19828C 11.7451 6.8077 11.9948 6.47232 12.3514 6.30164L 13.5602 8.82727ZM 15.2273 2.67224C 15.5264 0.763598 13.5627 -0.69817 11.8201 0.135893L 13.0289 2.66151C 12.7385 2.80052 12.4112 2.55689 12.4611 2.23878L 15.2273 2.67224ZM 8.62366 1.66579C 8.75401 1.6034 8.90789 1.61618 9.02617 1.69921L 7.41741 3.99091C 8.12711 4.48911 9.05035 4.56576 9.83248 4.19141L 8.62366 1.66579ZM 6.28732 -0.223444C 4.8331 -1.2443 2.81237 -0.386009 2.53732 1.36934L 5.30356 1.80279C 5.25772 2.09535 4.92093 2.2384 4.67856 2.06826L 6.28732 -0.223444ZM 1.62998 7.15992C 1.70993 6.64966 2.10741 6.2478 2.61677 6.16226L 3.08051 8.92359C 3.75965 8.80953 4.28962 8.27372 4.39623 7.59337L 1.62998 7.15992ZM 1.17909 6.40371C 0.499949 6.51776 -0.0300241 7.05357 -0.136631 7.73392L 2.62961 8.16738C 2.54966 8.67764 2.15218 9.07949 1.64283 9.16504L 1.17909 6.40371Z"/>
<path id="path2_stroke" d="M 8.04822e-07 0.700021L 18.2482 0.7L 18.2482 -0.7L -8.04822e-07 -0.699979L 8.04822e-07 0.700021Z"/>
</defs>
</svg>
