<svg width="18" height="20" viewBox="0 0 18 20" version="1.1" xmlns="http://www.w3.org/2000/svg" xmlns:xlink="http://www.w3.org/1999/xlink">
<title>Group</title>
<desc>Created using Figma</desc>
<g id="Canvas" transform="translate(-4899 2190)">
<g id="Group">
<g id="Rectangle 7">
<use xlink:href="#path0_stroke" transform="translate(4900 -2189)" fill="#A6B5C5"/>
</g>
<g id="Line">
<use xlink:href="#path1_stroke" transform="translate(4903.69 -2177.28)" fill="#A6B5C5"/>
</g>
<g id="Line">
<use xlink:href="#path2_stroke" transform="translate(4904.61 -2175.03)" fill="#A6B5C5"/>
</g>
<g id="Vector">
<mask id="mask0_outline_ins">
<use xlink:href="#path3_fill" fill="white" transform="translate(4910.99 -2186.75)"/>
</mask>
<g mask="url(#mask0_outline_ins)">
<use xlink:href="#path4_stroke_2x" transform="translate(4910.99 -2186.75)" fill="#A6B5C5"/>
</g>
</g>
</g>
</g>
<defs>
<path id="path0_stroke" d="M 12.7583 0.630627L 12.3005 1.16015L 12.3005 1.16015L 12.7583 0.630627ZM 15.347 2.86877L 15.8048 2.33924L 15.8048 2.33924L 15.347 2.86877ZM 13.636 17.3L 2.55675 17.3L 2.55675 18.7L 13.636 18.7L 13.636 17.3ZM 0.7 15.5455L 0.7 2.45455L -0.7 2.45455L -0.7 15.5455L 0.7 15.5455ZM 2.55675 0.7L 11.0473 0.7L 11.0473 -0.7L 2.55675 -0.7L 2.55675 0.7ZM 15.4928 4.69269L 15.4928 15.5455L 16.8928 15.5455L 16.8928 4.69269L 15.4928 4.69269ZM 12.3005 1.16015L 14.8892 3.3983L 15.8048 2.33924L 13.2161 0.101099L 12.3005 1.16015ZM 0.7 2.45455C 0.7 1.51218 1.50411 0.7 2.55675 0.7L 2.55675 -0.7C 0.785287 -0.7 -0.7 0.685698 -0.7 2.45455L 0.7 2.45455ZM 13.636 18.7C 15.4075 18.7 16.8928 17.3143 16.8928 15.5455L 15.4928 15.5455C 15.4928 16.4878 14.6887 17.3 13.636 17.3L 13.636 18.7ZM 2.55675 17.3C 1.50411 17.3 0.7 16.4878 0.7 15.5455L -0.7 15.5455C -0.7 17.3143 0.785287 18.7 2.55675 18.7L 2.55675 17.3ZM 11.0473 0.7C 11.5563 0.689117 11.9331 0.827551 12.3005 1.16015L 13.2161 0.101099C 12.6444 -0.378242 11.8022 -0.689117 11.0473 -0.7L 11.0473 0.7ZM 16.8928 4.69269C 16.8928 3.78848 16.4929 2.93413 15.8048 2.33924L 14.8892 3.3983C 15.2779 3.73434 15.4928 4.20579 15.4928 4.69269L 16.8928 4.69269Z"/>
<path id="path1_stroke" d="M 0.7 -1.4C 0.313401 -1.4 0 -1.0866 0 -0.7C 0 -0.313401 0.313401 0 0.7 0L 0.7 -1.4ZM 7.59675 0C 7.98334 0 8.29675 -0.313401 8.29675 -0.7C 8.29675 -1.0866 7.98334 -1.4 7.59675 -1.4L 7.59675 0ZM 0.7 0L 7.59675 0L 7.59675 -1.4L 0.7 -1.4L 0.7 0Z"/>
<path id="path2_stroke" d="M 0 -0.7C -0.386599 -0.7 -0.7 -0.386599 -0.7 0C -0.7 0.386599 -0.386599 0.7 0 0.7L 0 -0.7ZM 4.6093 0.7C 4.9959 0.7 5.3093 0.386599 5.3093 0C 5.3093 -0.386599 4.9959 -0.7 4.6093 -0.7L 4.6093 0.7ZM 0 0.7L 4.6093 0.7L 4.6093 -0.7L 0 -0.7L 0 0.7Z"/>
<path id="path3_fill" d="M -7.05948e-07 1.72C -7.05948e-07 2.04 0.27759 2.28 0.647711 2.28L 2.63711 2.28L -7.05948e-07 0L -7.05948e-07 1.72Z"/>
<path id="path4_stroke_2x" d="M 2.63711 2.28L 2.63711 3.68L 6.39696 3.68L 3.55275 1.22094L 2.63711 2.28ZM -7.05948e-07 0L 0.915642 -1.05906L -1.4 -3.06112L -1.4 0L -7.05948e-07 0ZM -1.4 1.72C -1.4 2.99748 -0.297456 3.68 0.647711 3.68L 0.647711 0.88C 0.76264 0.88 0.935846 0.918412 1.1007 1.06094C 1.27469 1.21137 1.4 1.45027 1.4 1.72L -1.4 1.72ZM 0.647711 3.68L 2.63711 3.68L 2.63711 0.88L 0.647711 0.88L 0.647711 3.68ZM 3.55275 1.22094L 0.915642 -1.05906L -0.915643 1.05906L 1.72146 3.33906L 3.55275 1.22094ZM -1.4 0L -1.4 1.72L 1.4 1.72L 1.4 0L -1.4 0Z"/>
</defs>
</svg>
