<svg width="18" height="22" viewBox="0 0 18 22" version="1.1" xmlns="http://www.w3.org/2000/svg" xmlns:xlink="http://www.w3.org/1999/xlink">
<title>Group</title>
<desc>Created using Figma</desc>
<g id="Canvas" transform="translate(-4899 1920)">
<g id="Group">
<g id="Subtract">
<mask id="mask0_outline_ins">
<use xlink:href="#path0_fill" fill="white" transform="translate(4899 -1920)"/>
</mask>
<g mask="url(#mask0_outline_ins)">
<use xlink:href="#path1_stroke_2x" transform="translate(4899 -1920)" fill="#A6B5C5"/>
</g>
</g>
<g id="Subtract">
<mask id="mask1_outline_ins">
<use xlink:href="#path2_fill" fill="white" transform="translate(4905 -1913.66)"/>
</mask>
<g mask="url(#mask1_outline_ins)">
<use xlink:href="#path3_stroke_2x" transform="translate(4905 -1913.66)" fill="#A6B5C5"/>
</g>
</g>
</g>
</g>
<defs>
<path id="path0_fill" fill-rule="evenodd" d="M 2.6351 2.63507C 2.6351 2.63507 2.6351 2.63507 2.6351 2.63507C 6.14853 -0.878356 11.8515 -0.878356 15.3649 2.63507C 15.3649 2.63507 15.3649 2.63507 15.3649 2.63507C 18.8781 6.14824 18.8784 11.8506 15.3657 15.3641C 15.3652 15.3646 15.3646 15.3652 15.3641 15.3657L 9.71363 21.0416C 9.71312 21.0422 9.7126 21.0427 9.71208 21.0432C 9.50855 21.2463 9.25428 21.3479 9 21.3479L 9 21.3479C 8.74541 21.3479 8.49081 21.2461 8.28716 21.0424C 8.28715 21.0424 8.28714 21.0424 8.28712 21.0424L 2.6351 15.3904C 2.6351 15.3904 2.6351 15.3904 2.6351 15.3904C -0.878367 11.8769 -0.878367 6.14851 2.6351 2.63507Z"/>
<path id="path1_stroke_2x" d="M 15.3649 2.63507L 14.3749 3.62502L 14.3749 3.62502L 15.3649 2.63507ZM 2.6351 2.63507L 1.64515 1.64512L 2.6351 2.63507ZM 15.3657 15.3641L 14.3756 14.3743L 15.3657 15.3641ZM 9.71363 21.0416L 8.72146 20.0539L 9.71363 21.0416ZM 9 21.3479L 9 19.9479L 6.73475 19.9479L 7.7478 21.974L 9 21.3479ZM 8.28716 21.0424L 9.27714 20.0525L 8.28716 21.0424ZM 2.6351 15.3904L 3.62505 14.4004L 2.6351 15.3904ZM 15.3649 2.63507L 16.3548 1.64512L 15.3649 2.63507ZM 2.6351 2.63507L 3.62505 3.62503L 2.6351 2.63507ZM 15.3641 15.3657L 14.3719 14.378L 15.3641 15.3657ZM 9.71208 21.0432L 10.7011 22.034L 9.71208 21.0432ZM 9 21.3479L 9 22.7479L 11.2652 22.7479L 10.2522 20.7218L 9 21.3479ZM 8.28712 21.0424L 9.27707 20.0524L 8.28712 21.0424ZM 2.6351 15.3904L 1.64516 16.3803L 2.6351 15.3904ZM 16.3548 1.64512C 12.2947 -2.41504 5.70531 -2.41504 1.64515 1.64512L 3.62505 3.62502C 6.59174 0.658327 11.4083 0.658327 14.3749 3.62502L 16.3548 1.64512ZM 16.3558 16.3539C 20.4151 12.2937 20.4147 5.70498 16.3548 1.64512L 14.375 3.62503C 17.3415 6.5915 17.3417 11.4075 14.3756 14.3743L 16.3558 16.3539ZM 10.7058 22.0294L 16.3563 16.3534L 14.3719 14.378L 8.72146 20.0539L 10.7058 22.0294ZM 9 22.7479C 9.63672 22.7479 10.2434 22.4909 10.7011 22.034L 8.72302 20.0523C 8.77366 20.0018 8.87183 19.9479 9 19.9479L 9 22.7479ZM 7.29718 22.0323C 7.75504 22.4902 8.36245 22.7479 9 22.7479L 9 19.9479C 9.12836 19.9479 9.22658 20.0019 9.27714 20.0525L 7.29718 22.0323ZM 1.64515 16.3803L 7.29717 22.0323L 9.27707 20.0524L 3.62505 14.4004L 1.64515 16.3803ZM 1.64516 1.64512C -2.41505 5.70529 -2.41505 12.3202 1.64516 16.3803L 3.62504 14.4004C 0.658319 11.4337 0.658317 6.59173 3.62505 3.62503L 1.64516 1.64512ZM 14.3749 3.62502C 14.3749 3.62502 14.375 3.62502 14.375 3.62503L 16.3548 1.64512L 16.3548 1.64512L 14.3749 3.62502ZM 1.64515 1.64512L 1.64516 1.64512L 3.62505 3.62503C 3.62505 3.62502 3.62505 3.62502 3.62505 3.62502L 1.64515 1.64512ZM 14.3756 14.3743C 14.3746 14.3753 14.373 14.3769 14.3719 14.378L 16.3563 16.3534L 16.3558 16.3539L 14.3756 14.3743ZM 8.72146 20.0539C 8.72146 20.0539 8.72208 20.0533 8.72302 20.0523L 10.7011 22.034C 10.7028 22.0324 10.7049 22.0303 10.7058 22.0294L 8.72146 20.0539ZM 7.7478 21.974L 7.7478 21.974L 10.2522 20.7218L 10.2522 20.7218L 7.7478 21.974ZM 9.27714 20.0525C 9.27713 20.0525 9.2771 20.0525 9.27707 20.0524L 7.29717 22.0323L 7.29718 22.0323L 9.27714 20.0525ZM 3.62505 14.4004C 3.62505 14.4004 3.62505 14.4004 3.62504 14.4004L 1.64516 16.3803L 1.64515 16.3803L 3.62505 14.4004Z"/>
<path id="path2_fill" d="M 3 6C 4.65684 6 6 4.65686 6 3C 6 1.34314 4.65684 0 3 0C 1.34316 0 0 1.34314 0 3C 0 4.65686 1.34316 6 3 6Z"/>
<path id="path3_stroke_2x" d="M 4.6 3C 4.6 3.88365 3.88364 4.6 3 4.6L 3 7.4C 5.43003 7.4 7.4 5.43007 7.4 3L 4.6 3ZM 3 1.4C 3.88364 1.4 4.6 2.11635 4.6 3L 7.4 3C 7.4 0.569933 5.43003 -1.4 3 -1.4L 3 1.4ZM 1.4 3C 1.4 2.11635 2.11635 1.4 3 1.4L 3 -1.4C 0.569973 -1.4 -1.4 0.569933 -1.4 3L 1.4 3ZM 3 4.6C 2.11636 4.6 1.4 3.88365 1.4 3L -1.4 3C -1.4 5.43007 0.569973 7.4 3 7.4L 3 4.6Z"/>
</defs>
</svg>
