<svg xmlns="http://www.w3.org/2000/svg" width="16.806" height="16.806" viewBox="0 0 16.806 16.806">
  <path id="ic_nav_10_active" d="M2,2V16a2.813,2.813,0,0,0,2.8,2.8H16a2.813,2.813,0,0,0,2.8-2.8V6.2H14.6V2ZM3.4,3.4h9.8V16a2.778,2.778,0,0,0,.394,1.4H4.8A1.389,1.389,0,0,1,3.4,16ZM4.8,6.2V7.6h7V6.2Zm9.8,1.4h2.8V16a1.4,1.4,0,0,1-2.8,0ZM4.8,9v1.4H7.6V9ZM9,9v1.4h2.8V9ZM4.8,11.8v1.4H7.6V11.8Zm4.2,0v1.4h2.8V11.8ZM4.8,14.6V16H7.6V14.6Zm4.2,0V16h2.8V14.6Z" transform="translate(-2 -2)" fill="#fff"/>
</svg>
