<svg width="20" height="18" viewBox="0 0 20 18" version="1.1" xmlns="http://www.w3.org/2000/svg" xmlns:xlink="http://www.w3.org/1999/xlink">
<title>Group</title>
<desc>Created using Figma</desc>
<g id="Canvas" transform="translate(-4898 2278)">
<g id="Group">
<g id="Vector">
<use xlink:href="#path0_stroke" transform="translate(4899 -2277)" fill="#A6B5C5"/>
</g>
</g>
</g>
<defs>
<path id="path0_stroke" d="M 12.0441 1.69416L 11.3441 1.69416L 11.3441 2.39416L 12.0441 2.39416L 12.0441 1.69416ZM 5.86765 1.69416L 5.86765 2.39416L 6.56765 2.39416L 6.56765 1.69416L 5.86765 1.69416ZM 10.5 8.80425C 10.1134 8.80425 9.8 9.11765 9.8 9.50425C 9.8 9.89085 10.1134 10.2042 10.5 10.2042L 10.5 8.80425ZM 18 10.2042C 18.3866 10.2042 18.7 9.89085 18.7 9.50425C 18.7 9.11765 18.3866 8.80425 18 8.80425L 18 10.2042ZM 0 8.80425C -0.386599 8.80425 -0.7 9.11765 -0.7 9.50425C -0.7 9.89085 -0.386599 10.2042 0 10.2042L 0 8.80425ZM 7.5 10.2042C 7.8866 10.2042 8.2 9.89085 8.2 9.50425C 8.2 9.11765 7.8866 8.80425 7.5 8.80425L 7.5 10.2042ZM 17.0294 0.994162L 12.0441 0.994162L 12.0441 2.39416L 17.0294 2.39416L 17.0294 0.994162ZM 12.7441 1.69416L 12.7441 0.42354L 11.3441 0.42354L 11.3441 1.69416L 12.7441 1.69416ZM 12.7441 0.42354C 12.7441 0.128607 12.6379 -0.167415 12.4076 -0.38849C 12.1799 -0.607099 11.886 -0.7 11.6029 -0.7L 11.6029 0.7C 11.5846 0.7 11.5113 0.691807 11.438 0.621438C 11.3621 0.548601 11.3441 0.46435 11.3441 0.42354L 12.7441 0.42354ZM 11.6029 -0.7L 6.30882 -0.7L 6.30882 0.7L 11.6029 0.7L 11.6029 -0.7ZM 6.30882 -0.7C 6.02576 -0.7 5.7319 -0.607099 5.50419 -0.388491C 5.27391 -0.167416 5.16765 0.128605 5.16765 0.42354L 6.56765 0.42354C 6.56765 0.464351 6.54962 0.548603 6.47375 0.621438C 6.40045 0.691807 6.32718 0.7 6.30882 0.7L 6.30882 -0.7ZM 5.16765 0.42354L 5.16765 1.69416L 6.56765 1.69416L 6.56765 0.42354L 5.16765 0.42354ZM 5.86765 0.994162L 0.882353 0.994162L 0.882353 2.39416L 5.86765 2.39416L 5.86765 0.994162ZM 0.882353 0.994162C 0.0376491 0.994162 -0.7 1.66211 -0.7 2.54124L 0.7 2.54124C 0.7 2.48859 0.756469 2.39416 0.882353 2.39416L 0.882353 0.994162ZM 18.6118 2.54124C 18.6118 1.66211 17.8741 0.994162 17.0294 0.994162L 17.0294 2.39416C 17.1553 2.39416 17.2118 2.48859 17.2118 2.54124L 18.6118 2.54124ZM 17.2118 9.31789L 17.2118 14.5533L 18.6118 14.5533L 18.6118 9.31789L 17.2118 9.31789ZM 17.2118 14.5533C 17.2118 14.6059 17.1553 14.7004 17.0294 14.7004L 17.0294 16.1004C 17.8741 16.1004 18.6118 15.4324 18.6118 14.5533L 17.2118 14.5533ZM 17.0294 14.7004L 0.882353 14.7004L 0.882353 16.1004L 17.0294 16.1004L 17.0294 14.7004ZM 0.882353 14.7004C 0.756469 14.7004 0.7 14.6059 0.7 14.5533L -0.7 14.5533C -0.7 15.4324 0.0376493 16.1004 0.882353 16.1004L 0.882353 14.7004ZM 0.7 14.5533L 0.7 9.31789L -0.7 9.31789L -0.7 14.5533L 0.7 14.5533ZM 17.2118 2.54124L 17.2118 9.31789L 18.6118 9.31789L 18.6118 2.54124L 17.2118 2.54124ZM -0.7 2.54124L -0.7 9.31789L 0.7 9.31789L 0.7 2.54124L -0.7 2.54124ZM 8.25 7.90019L 9.75 7.90019L 9.75 6.50019L 8.25 6.50019L 8.25 7.90019ZM 9.8 7.92021L 9.8 10.8003L 11.2 10.8003L 11.2 7.92021L 9.8 7.92021ZM 9.75 10.8203L 8.25 10.8203L 8.25 12.2203L 9.75 12.2203L 9.75 10.8203ZM 8.2 10.8003L 8.2 7.92021L 6.8 7.92021L 6.8 10.8003L 8.2 10.8003ZM 8.25 6.50019C 7.47638 6.50019 6.8 7.10931 6.8 7.92021L 8.2 7.92021C 8.2 7.91991 8.20002 7.92028 8.19986 7.92102C 8.19979 7.92134 8.19971 7.92162 8.19964 7.92184C 8.19957 7.92206 8.19952 7.92217 8.19952 7.92217C 8.19952 7.92217 8.19978 7.92157 8.20055 7.92049C 8.20132 7.91938 8.20258 7.91784 8.20445 7.91604C 8.21215 7.90864 8.22682 7.90019 8.25 7.90019L 8.25 6.50019ZM 9.75 7.90019C 9.77318 7.90019 9.78785 7.90864 9.79555 7.91604C 9.79742 7.91784 9.79868 7.91938 9.79945 7.92049C 9.80022 7.92157 9.80048 7.92217 9.80048 7.92217C 9.80048 7.92217 9.80043 7.92206 9.80036 7.92184C 9.80029 7.92162 9.80021 7.92134 9.80014 7.92102C 9.79998 7.92028 9.8 7.91991 9.8 7.92021L 11.2 7.92021C 11.2 7.10931 10.5236 6.50019 9.75 6.50019L 9.75 7.90019ZM 9.8 10.8003C 9.8 10.8006 9.79998 10.8002 9.80014 10.7995C 9.80021 10.7991 9.80029 10.7989 9.80036 10.7986C 9.80043 10.7984 9.80048 10.7983 9.80048 10.7983C 9.80048 10.7983 9.80022 10.7989 9.79945 10.8C 9.79868 10.8011 9.79742 10.8026 9.79555 10.8044C 9.78785 10.8118 9.77318 10.8203 9.75 10.8203L 9.75 12.2203C 10.5236 12.2203 11.2 11.6112 11.2 10.8003L 9.8 10.8003ZM 8.25 10.8203C 8.22682 10.8203 8.21215 10.8118 8.20445 10.8044C 8.20258 10.8026 8.20132 10.8011 8.20055 10.8C 8.19978 10.7989 8.19952 10.7983 8.19952 10.7983C 8.19952 10.7983 8.19957 10.7984 8.19964 10.7986C 8.19971 10.7989 8.19979 10.7991 8.19986 10.7995C 8.20002 10.8002 8.2 10.8006 8.2 10.8003L 6.8 10.8003C 6.8 11.6112 7.47638 12.2203 8.25 12.2203L 8.25 10.8203ZM 10.5 10.2042L 18 10.2042L 18 8.80425L 10.5 8.80425L 10.5 10.2042ZM 0 10.2042L 7.5 10.2042L 7.5 8.80425L 0 8.80425L 0 10.2042Z"/>
</defs>
</svg>
