<svg width="23" height="20" viewBox="0 0 23 20" version="1.1" xmlns="http://www.w3.org/2000/svg" xmlns:xlink="http://www.w3.org/1999/xlink">
<title>Subtract</title>
<desc>Created using Figma</desc>
<g id="Canvas" transform="translate(-5006 2369)">
<g id="Subtract">
<use xlink:href="#path0_fill" transform="translate(5007 -2368.15)" fill="#FFFFFF"/>
<use xlink:href="#path1_fill" transform="translate(5007 -2368.15)" fill="#FFFFFF"/>
<use xlink:href="#path2_stroke" transform="translate(5007 -2368.15)" fill="#FFFFFF"/>
</g>
</g>
<defs>
<path id="path0_fill" d="M 15.5319 7.05712C 15.6815 6.79353 15.6762 6.47391 15.5179 6.21501L 12.2344 0.844538C 11.5459 -0.281515 9.85006 -0.281512 9.1616 0.844544L 0.247805 15.424C -0.449279 16.5641 0.407115 18 1.78421 18L 8.79062 18C 9.1167 18 9.41672 17.829 9.57276 17.5541L 15.5319 7.05712Z"/>
<path id="path1_fill" d="M 17.2008 8.96754C 17.0255 8.68082 16.5914 8.68744 16.4256 8.97937L 11.6635 17.3678C 11.5018 17.6527 11.7166 18 12.0546 18L 19.6118 18C 20.9889 18 21.8453 16.5641 21.1482 15.424L 17.2008 8.96754Z"/>
<path id="path2_stroke" d="M 12.2344 0.844538L 12.0211 0.974946L 12.0211 0.974946L 12.2344 0.844538ZM 15.5179 6.21501L 15.7312 6.08461L 15.7312 6.08461L 15.5179 6.21501ZM 0.247805 15.424L 0.0345117 15.2935L 0.247805 15.424ZM 16.4256 8.97937L 16.643 9.10279L 16.4256 8.97937ZM 11.6635 17.3678L 11.4461 17.2444L 11.4461 17.2444L 11.6635 17.3678ZM 9.1616 0.844544L 9.37489 0.974951L 9.37489 0.974951L 9.1616 0.844544ZM 15.5319 7.05712L 15.3144 6.9337L 15.3144 6.9337L 15.5319 7.05712ZM 9.57276 17.5541L 9.79017 17.6775L 9.79017 17.6775L 9.57276 17.5541ZM 17.2008 8.96754L 17.4141 8.83714L 17.4141 8.83714L 17.2008 8.96754ZM 21.1482 15.424L 20.9349 15.5544L 20.9349 15.5544L 21.1482 15.424ZM 12.0211 0.974946L 15.3046 6.34542L 15.7312 6.08461L 12.4477 0.71413L 12.0211 0.974946ZM 0.461099 15.5544L 9.37489 0.974951L 8.9483 0.714137L 0.0345117 15.2935L 0.461099 15.5544ZM 8.79062 17.75L 1.78421 17.75L 1.78421 18.25L 8.79062 18.25L 8.79062 17.75ZM 9.79017 17.6775L 15.7493 7.18054L 15.3144 6.9337L 9.35535 17.4307L 9.79017 17.6775ZM 16.2082 8.85594L 11.4461 17.2444L 11.8809 17.4912L 16.643 9.10279L 16.2082 8.85594ZM 19.6118 17.75L 12.0546 17.75L 12.0546 18.25L 19.6118 18.25L 19.6118 17.75ZM 16.9875 9.09795L 20.9349 15.5544L 21.3615 15.2935L 17.4141 8.83714L 16.9875 9.09795ZM 12.4477 0.71413C 11.6617 -0.57138 9.73426 -0.571376 8.9483 0.714137L 9.37489 0.974951C 9.96587 0.00835214 11.4301 0.0083492 12.0211 0.974946L 12.4477 0.71413ZM 15.3046 6.34542C 15.4156 6.52686 15.4191 6.74928 15.3144 6.9337L 15.7493 7.18054C 15.9439 6.83777 15.9369 6.42096 15.7312 6.08461L 15.3046 6.34542ZM 0.0345117 15.2935C -0.773866 16.6157 0.230235 18.25 1.78421 18.25L 1.78421 17.75C 0.583996 17.75 -0.124693 16.5125 0.461099 15.5544L 0.0345117 15.2935ZM 8.79062 18.25C 9.20314 18.25 9.588 18.0336 9.79017 17.6775L 9.35535 17.4307C 9.24544 17.6243 9.03026 17.75 8.79062 17.75L 8.79062 18.25ZM 16.643 9.10279C 16.7144 8.97705 16.9112 8.97319 16.9875 9.09795L 17.4141 8.83714C 17.1398 8.38845 16.4683 8.39783 16.2082 8.85594L 16.643 9.10279ZM 11.4461 17.2444C 11.1811 17.7113 11.5428 18.25 12.0546 18.25L 12.0546 17.75C 11.8904 17.75 11.8225 17.5942 11.8809 17.4912L 11.4461 17.2444ZM 19.6118 18.25C 21.1658 18.25 22.1699 16.6157 21.3615 15.2935L 20.9349 15.5544C 21.5207 16.5125 20.812 17.75 19.6118 17.75L 19.6118 18.25Z"/>
</defs>
</svg>
