<?xml version="1.0" encoding="utf-8"?>
<!-- Generator: Adobe Illustrator 21.1.0, SVG Export Plug-In . SVG Version: 6.00 Build 0)  -->
<svg version="1.1" id="Layer_1" xmlns="http://www.w3.org/2000/svg" xmlns:xlink="http://www.w3.org/1999/xlink" x="0px" y="0px"
	 viewBox="0 0 100 100" style="enable-background:new 0 0 100 100;" xml:space="preserve">
<style type="text/css">
	.st0{opacity:0.2;fill:#393C44;enable-background:new    ;}
	.st1{fill:#8CC540;stroke:#8CC540;stroke-width:0.1205;stroke-miterlimit:10;}
	.st2{fill:#8CC540;stroke:#8CC540;stroke-width:4.050000e-02;stroke-miterlimit:10;}
	.st3{fill:#227E1D;fill-opacity:0.9931;}
	.st4{fill:#8CC540;}
	.st5{fill:#7D8B98;}
	.st6{fill:#263038;}
</style>
<g>
	<g>
		<path class="st0" d="M50,99.3C22.8,99.3,0.7,77.2,0.7,50S22.8,0.7,50,0.7S99.3,22.8,99.3,50S77.2,99.3,50,99.3z M50,1.3
			C23.2,1.3,1.3,23.1,1.3,50c0,26.8,21.8,48.7,48.7,48.7S98.7,76.9,98.7,50S76.8,1.3,50,1.3z"/>
		<path class="st0" d="M50,93.2C26.2,93.2,6.8,73.8,6.8,50S26.2,6.8,50,6.8S93.2,26.2,93.2,50S73.8,93.2,50,93.2z M50,7.5
			C26.6,7.5,7.5,26.6,7.5,50S26.6,92.5,50,92.5S92.5,73.4,92.5,50S73.4,7.5,50,7.5z"/>
		<path class="st1" d="M1.4,47.6c1.3-26.8,24.2-47.5,51-46.2V0.7C25.2-0.7,2,20.3,0.7,47.5c-1.4,27.2,19.6,50.4,46.8,51.7v-0.7
			C20.8,97.2,0.1,74.4,1.4,47.6z		">
<animateTransform  accumulate="none" additive="replace" attributeName="transform" calcMode="spline" dur="2s" fill="remove" from="0 50 50" keySplines="0.4, 0, 0.2, 1" keyTimes="0;1" repeatCount="indefinite" restart="always" to="360 50 50" type="rotate">
				</animateTransform>
		</path>
		<path class="st2" d="M80.9,79.2c-16.1,17-43,17.8-60.1,1.7l-0.5,0.5c17.3,16.3,44.7,15.5,61-1.8s15.5-44.7-1.8-61L79,19.1
			C96.2,35.2,97,62.1,80.9,79.2z		">
<animateTransform  accumulate="none" additive="replace" attributeName="transform" calcMode="linear" dur="1.8s" fill="remove" from="0 50 50" repeatCount="indefinite" restart="always" to="360 50 50" type="rotate">
				</animateTransform>
		</path>
	</g>
</g>
<g id="Canvas" transform="translate(-4525 1816)">
	<g id="logo">
		<g id="SALESAPP">
			<g transform="translate(4525 -1816)">
				<path id="path0_fill" class="st3" d="M4536.5-1764.5c0.6,0.1,2.1,0.3,3.4,0.3c0.1,0,0.3,0,0.4,0c1.4-0.1,3.6-0.3,3.7-2.4
					c0-0.1,0-0.2,0-0.3c0-0.6-0.2-1.5-1.1-2.1c-0.4-0.2-1.5-0.9-2.6-1.5c-0.9-0.5-1.1-0.7-1.1-1.1v-0.1c0-0.3,0.4-0.6,1.6-0.6
					s1.7,0,3,0.2l0.3-1.5c-1.1-0.2-2-0.2-3.4-0.2c-2.7,0-3.9,1.1-4,2.1c0,0.1,0,0.2,0,0.3c0,1.3,0.8,2,2.1,2.8
					c0.9,0.5,1.9,1,2.3,1.4c0.3,0.3,0.4,0.5,0.4,0.7c0,0.5-0.4,0.7-1.4,0.7c-0.1,0-0.2,0-0.3,0c-0.9,0-1.9-0.1-3.1-0.3
					L4536.5-1764.5z"/>
			</g>
			<g transform="translate(4525 -1816)">
				<path id="path1_fill" class="st3" d="M4548.4-1773.6l-3.6,9.3h2.5l0.9-2.2h3.7l0.9,2.2h2.5l-3.6-9.3H4548.4z M4551.1-1768h-2.5
					l1.2-3.3L4551.1-1768z"/>
			</g>
			<g transform="translate(4525 -1816)">
				<path id="path2_fill" class="st3" d="M4563.8-1764.3v-1.5h-5.1v-7.8h-2.4v9.3H4563.8z"/>
			</g>
			<g transform="translate(4525 -1816)">
				<path id="path3_fill" class="st3" d="M4564.9-1764.3h8v-1.5h-5.5v-2.5h4.6v-1.5h-4.6v-2.3h5.5v-1.5h-8V-1764.3z"/>
			</g>
			<g transform="translate(4525 -1816)">
				<path id="path4_fill" class="st3" d="M4574-1764.5c0.6,0.1,2.1,0.3,3.4,0.3c0.1,0,0.3,0,0.4,0c1.4-0.1,3.6-0.3,3.7-2.4
					c0-0.1,0-0.2,0-0.3c0-0.6-0.2-1.5-1.1-2.1c-0.4-0.2-1.5-0.9-2.6-1.5c-0.9-0.5-1.1-0.7-1.1-1.1v-0.1c0-0.3,0.4-0.6,1.6-0.6
					s1.7,0,3,0.2l0.3-1.5c-1.1-0.2-2-0.2-3.4-0.2c-2.7,0-3.9,1.1-4,2.1c0,0.1,0,0.2,0,0.3c0,1.3,0.8,2,2.1,2.8
					c0.9,0.5,1.9,1,2.3,1.4c0.3,0.3,0.4,0.5,0.4,0.7c0,0.5-0.4,0.7-1.4,0.7c-0.1,0-0.2,0-0.3,0c-0.9,0-1.9-0.1-3.1-0.3L4574-1764.5z
					"/>
			</g>
		</g>
		<g id="SALESAPP_1_">
			<g transform="translate(4626.19 -1815.74)">
				<path id="path5_fill" class="st4" d="M4586.2-1773.6l-3.6,9.3h2.5l0.9-2.2h3.7l0.9,2.2h2.5l-3.6-9.3H4586.2z M4589-1768h-2.5
					l1.2-3.3L4589-1768z"/>
			</g>
			<g transform="translate(4626.19 -1815.74)">
				<path id="path6_fill" class="st4" d="M4598.8-1767.3c2.8,0,4-1.4,4-3.3s-1.3-3-4-3h-4.7v9.3h2.4v-3H4598.8z M4596.5-1768.8v-3.3
					h2.3c1.2,0,1.6,0.3,1.6,1.5s-0.4,1.8-1.6,1.8H4596.5z"/>
			</g>
			<g transform="translate(4626.19 -1815.74)">
				<path id="path7_fill" class="st4" d="M4609.4-1767.3c2.8,0,4-1.4,4-3.3s-1.3-3-4-3h-4.7v9.3h2.4v-3H4609.4z M4607.1-1768.8v-3.3
					h2.3c1.2,0,1.6,0.3,1.6,1.5s-0.4,1.8-1.6,1.8H4607.1z"/>
			</g>
		</g>
		<g id="DÃ_xA0_nh_cho_cÃ_xA1_n_bá_xBB__x99__Vietcombank">
			<g transform="translate(4525 -1792)">
				<path id="path8_fill" class="st5" d="M4538.8-1757.8c1.2,0,1.6-1,1.6-2s-0.4-1.9-1.6-1.9h-1.7v3.8L4538.8-1757.8L4538.8-1757.8z
					 M4537.6-1758.2v-3.1h1.2c0.8,0,1,0.7,1,1.5s-0.3,1.6-1,1.6H4537.6z M4541.4-1761.8l0.8,0.7h0.5l-0.7-0.7H4541.4z
					 M4541.1-1760.2c0.4,0,0.7-0.1,1-0.1s0.5,0.2,0.5,0.5v0.2l-0.8,0.1c-0.7,0.1-1,0.4-1,0.8c0,0.5,0.4,0.8,0.9,0.8
					c0.6,0,1.1-0.1,1.4-0.2v-1.7c0-0.6-0.3-0.9-1-0.9c-0.3,0-0.7,0-1.1,0.1L4541.1-1760.2z M4542.6-1758.2c-0.2,0.1-0.5,0.1-0.9,0.1
					c-0.3,0-0.4-0.2-0.4-0.5s0.1-0.5,0.5-0.5l0.8-0.1V-1758.2z M4543.7-1757.8h0.5v-2.3c0.2-0.1,0.4-0.1,0.7-0.1
					c0.5,0,0.7,0.3,0.7,1v1.4h0.5v-1.4c0-0.9-0.3-1.4-1.3-1.4c-0.4,0-0.8,0.1-1.2,0.3L4543.7-1757.8L4543.7-1757.8z M4547.5-1761.6
					h-0.5v3.8h0.5v-2.3c0.2-0.1,0.4-0.1,0.7-0.1c0.5,0,0.6,0.3,0.6,1v1.4h0.5v-1.4c0-0.9-0.2-1.4-1.2-1.4c-0.3,0-0.5,0.1-0.7,0.1
					v-1.1H4547.5z M4554.1-1758.2c-0.2,0-0.6,0.1-0.8,0.1c-0.7,0-0.8-0.3-0.8-1.1c0-0.8,0.1-1.1,0.8-1.1c0.2,0,0.7,0.1,0.8,0.1v-0.3
					c-0.1,0-0.6-0.1-0.8-0.1c-1.1,0-1.3,0.4-1.3,1.4s0.3,1.5,1.3,1.4c0.3,0,0.7-0.1,0.8-0.1V-1758.2z M4555.2-1761.6h-0.5v3.8h0.5
					v-2.3c0.2-0.1,0.4-0.1,0.7-0.1c0.5,0,0.7,0.3,0.7,1v1.4h0.5v-1.4c0-0.9-0.2-1.4-1.2-1.4c-0.3,0-0.5,0.1-0.7,0.1V-1761.6z
					 M4558.9-1760.6c-0.9,0-1.3,0.4-1.3,1.4c0,1.1,0.3,1.5,1.3,1.5s1.3-0.5,1.3-1.5C4560.2-1760.2,4559.8-1760.6,4558.9-1760.6z
					 M4558.9-1758.1c-0.7,0-0.8-0.3-0.8-1.2c0-0.8,0.2-1,0.8-1c0.5,0,0.8,0.3,0.8,1C4559.7-1758.4,4559.6-1758.1,4558.9-1758.1z
					 M4564.9-1758.2c-0.2,0-0.6,0.1-0.8,0.1c-0.7,0-0.8-0.3-0.8-1.1c0-0.8,0.1-1.1,0.8-1.1c0.2,0,0.7,0.1,0.8,0.1v-0.3
					c-0.1,0-0.6-0.1-0.8-0.1c-1.1,0-1.3,0.4-1.3,1.4s0.3,1.5,1.3,1.4c0.3,0,0.7-0.1,0.8-0.1V-1758.2z M4566.6-1761.8l-0.7,0.7h0.4
					l0.8-0.7H4566.6z M4565.6-1760.2c0.4,0,0.7-0.1,1-0.1c0.4,0,0.5,0.2,0.5,0.5v0.2l-0.8,0.1c-0.7,0.1-1,0.4-1,0.8
					c0,0.5,0.4,0.8,0.9,0.8c0.6,0,1.1-0.1,1.4-0.2v-1.7c0-0.6-0.3-0.9-1-0.9c-0.3,0-0.7,0-1.1,0.1L4565.6-1760.2z M4567.1-1758.2
					c-0.2,0.1-0.5,0.1-0.9,0.1c-0.3,0-0.4-0.2-0.4-0.5s0.1-0.5,0.5-0.5l0.8-0.1V-1758.2z M4568.3-1757.8h0.5v-2.3
					c0.2-0.1,0.4-0.1,0.7-0.1c0.5,0,0.7,0.3,0.7,1v1.4h0.5v-1.4c0-0.9-0.3-1.4-1.3-1.4c-0.4,0-0.8,0.1-1.2,0.3L4568.3-1757.8
					L4568.3-1757.8z M4573.5-1761.6v3.8c0.3,0,0.6,0,0.9,0c1.2,0,1.5-0.5,1.5-1.5c0-0.9-0.2-1.4-1.2-1.4c-0.3,0-0.5,0.1-0.7,0.1
					v-1.1L4573.5-1761.6L4573.5-1761.6z M4574-1760.2c0.2,0,0.4-0.1,0.7-0.1c0.5,0,0.7,0.3,0.7,1c0,0.8-0.1,1.1-0.9,1.1
					c0,0,0,0-0.1,0s-0.3,0-0.4,0L4574-1760.2L4574-1760.2z M4576.7-1761h0.5l0.5-0.5l0.5,0.5h0.5l-0.8-0.8h-0.3L4576.7-1761z
					 M4577.7-1760.6c-0.9,0-1.3,0.4-1.3,1.4c0,1.1,0.3,1.5,1.3,1.5s1.3-0.5,1.3-1.5S4578.5-1760.6,4577.7-1760.6z M4577.7-1758.1
					c-0.7,0-0.8-0.3-0.8-1.2c0-0.8,0.2-1,0.8-1c0.5,0,0.8,0.3,0.8,1C4578.5-1758.4,4578.4-1758.1,4577.7-1758.1z M4577.5-1757.3v0.4
					h0.4v-0.4H4577.5z M4584.2-1761.6l-1.1,3.5h-0.1l-1.1-3.5h-0.5l1.3,3.8h0.9l1.2-3.8H4584.2z M4585.2-1761.1h0.5v-0.4h-0.5
					V-1761.1z M4585.2-1757.8h0.5v-2.7h-0.5V-1757.8z M4588.6-1758.2c-0.2,0.1-0.8,0.2-1.1,0.2c-0.6,0-0.7-0.3-0.8-0.9h2v-0.3
					c0-0.9-0.4-1.3-1.3-1.3c-0.8,0-1.3,0.4-1.3,1.4c0,0.9,0.3,1.4,1.3,1.4c0.4,0,0.8-0.1,1.1-0.2L4588.6-1758.2z M4586.8-1759.3
					c0-0.7,0.2-0.9,0.7-0.9s0.7,0.2,0.7,0.9H4586.8z M4589.6-1761.2v0.7h-0.6v0.3h0.6v1.5c0,0.7,0.1,0.9,0.7,0.9
					c0.1,0,0.2,0,0.4-0.1l0.1-0.3c-0.2,0.1-0.3,0.1-0.3,0.1l0,0c-0.2,0-0.2-0.1-0.2-0.6v-1.5h0.6v-0.3h-0.6v-0.7H4589.6z
					 M4593.3-1758.2c-0.2,0-0.6,0.1-0.8,0.1c-0.7,0-0.8-0.3-0.8-1.1c0-0.8,0.1-1.1,0.8-1.1c0.2,0,0.7,0.1,0.8,0.1v-0.3
					c-0.1,0-0.6-0.1-0.8-0.1c-1.1,0-1.3,0.4-1.3,1.4s0.3,1.5,1.3,1.4c0.3,0,0.7-0.1,0.8-0.1V-1758.2z M4595.1-1760.6
					c-0.9,0-1.3,0.4-1.3,1.4c0,1.1,0.3,1.5,1.3,1.5s1.3-0.5,1.3-1.5S4595.9-1760.6,4595.1-1760.6z M4595.1-1758.1
					c-0.7,0-0.8-0.3-0.8-1.2c0-0.8,0.2-1,0.8-1c0.5,0,0.8,0.3,0.8,1C4595.8-1758.4,4595.7-1758.1,4595.1-1758.1z M4597-1757.8h0.5
					v-2.3c0.2,0,0.4-0.1,0.7-0.1c0.5,0,0.6,0.3,0.6,1v1.4h0.5v-1.4c0-0.4,0-0.7-0.1-0.9c0.3-0.1,0.5-0.2,0.8-0.2
					c0.5,0,0.6,0.3,0.6,1v1.4h0.5v-1.4c0-0.9-0.2-1.4-1.2-1.4c-0.4,0-0.7,0-1.1,0.2c-0.2-0.1-0.4-0.2-0.8-0.2s-0.8,0.1-1.2,0.3v2.6
					H4597z M4601.9-1761.6v3.8c0.3,0,0.6,0,0.9,0c1.2,0,1.5-0.5,1.5-1.5c0-0.9-0.2-1.4-1.2-1.4c-0.3,0-0.5,0.1-0.7,0.1v-1.1
					L4601.9-1761.6L4601.9-1761.6z M4602.4-1760.2c0.2,0,0.4-0.1,0.7-0.1c0.5,0,0.7,0.3,0.7,1c0,0.8-0.1,1.1-0.9,1.1c0,0,0,0-0.1,0
					s-0.3,0-0.4,0L4602.4-1760.2L4602.4-1760.2z M4605.1-1760.2c0.4,0,0.7-0.1,1-0.1s0.5,0.2,0.5,0.5v0.2l-0.8,0.1
					c-0.7,0.1-1,0.4-1,0.8c0,0.5,0.4,0.8,0.9,0.8c0.6,0,1.1-0.1,1.4-0.2v-1.7c0-0.6-0.3-0.9-1-0.9c-0.3,0-0.7,0-1.1,0.1
					L4605.1-1760.2z M4606.6-1758.2c-0.2,0.1-0.5,0.1-0.9,0.1c-0.3,0-0.4-0.2-0.4-0.5s0.1-0.5,0.5-0.5l0.8-0.1V-1758.2z
					 M4607.8-1757.8h0.5v-2.3c0.2-0.1,0.4-0.1,0.7-0.1c0.5,0,0.7,0.3,0.7,1v1.4h0.5v-1.4c0-0.9-0.3-1.4-1.3-1.4
					c-0.4,0-0.8,0.1-1.2,0.3L4607.8-1757.8L4607.8-1757.8z M4611.5-1757.8v-1.2h0.4l1,1.2h0.6l-1.2-1.5l1.2-1.2h-0.6l-1,1h-0.4v-2.1
					h-0.5v3.8L4611.5-1757.8L4611.5-1757.8z"/>
			</g>
		</g>
	</g>
</g>
<g id="Group_2_">
	<g id="Group_1_">
		<g id="SALESAPP_3_">
			<g transform="translate(4295.18 -9186.28)">
				<path id="path6_fill_1_" class="st3" d="M15,53.8c0.6,0.1,2,0.3,3.1,0.3c0.1,0,0.3,0,0.4,0c1.3-0.1,3.3-0.3,3.5-2.2
					c0-0.1,0-0.2,0-0.3c0-0.6-0.2-1.4-1-2c-0.3-0.2-1.4-0.8-2.4-1.4c-0.8-0.5-1.1-0.7-1.1-1v-0.1c0-0.3,0.4-0.6,1.5-0.6
					s1.6,0,2.8,0.2l0.3-1.4C21.1,45,20.3,45,19,45c-2.5,0-3.7,1.1-3.7,2c0,0.1,0,0.2,0,0.3c0,1.2,0.7,2,2,2.7c0.8,0.5,1.8,1,2.2,1.3
					c0.3,0.3,0.4,0.5,0.4,0.7c0,0.5-0.4,0.7-1.3,0.7c-0.1,0-0.2,0-0.3,0c-0.8,0-1.7-0.1-2.9-0.3L15,53.8z"/>
			</g>
			<g transform="translate(4295.18 -9186.28)">
				<path id="path7_fill_1_" class="st3" d="M26.2,45.1L22.8,54h2.3l0.8-2.1h3.5l0.8,2.1h2.3L29,45.1H26.2z M28.7,50.5h-2.3l1.2-3.2
					L28.7,50.5z"/>
			</g>
			<g transform="translate(4295.18 -9186.28)">
				<path id="path8_fill_1_" class="st3" d="M40.6,54v-1.5h-4.8V45h-2.3v9H40.6z"/>
			</g>
			<g transform="translate(4295.18 -9186.28)">
				<path id="path9_fill" class="st3" d="M41.7,54h7.5v-1.5H44v-2.4h4.4v-1.5H44v-2.2h5.2v-1.5h-7.5V54z"/>
			</g>
			<g transform="translate(4295.18 -9186.28)">
				<path id="path10_fill" class="st3" d="M50.2,53.8c0.6,0.1,2,0.3,3.1,0.3c0.1,0,0.3,0,0.4,0c1.3-0.1,3.3-0.3,3.5-2.2
					c0-0.1,0-0.2,0-0.3c0-0.6-0.2-1.4-1-2c-0.3-0.2-1.4-0.8-2.4-1.4c-0.8-0.5-1.1-0.7-1.1-1v-0.1c0-0.3,0.4-0.6,1.5-0.6
					s1.6,0,2.8,0.2l0.3-1.4c-1-0.2-1.9-0.2-3.1-0.2c-2.5,0-3.7,1.1-3.7,2c0,0.1,0,0.2,0,0.3c0,1.2,0.7,2,2,2.7
					c0.8,0.5,1.8,1,2.2,1.3c0.3,0.3,0.4,0.5,0.4,0.7c0,0.5-0.4,0.7-1.3,0.7c-0.1,0-0.2,0-0.3,0c-0.8,0-1.7-0.1-2.9-0.3L50.2,53.8z"
					/>
			</g>
		</g>
		<g id="SALESAPP_2_">
			<g transform="translate(4338.05 -9186.16)">
				<path id="path11_fill" class="st4" d="M61.3,45.1L57.9,54h2.3l0.8-2.1h3.5l0.8,2.1h2.3l-3.4-8.9H61.3z M63.9,50.5h-2.3l1.2-3.2
					L63.9,50.5z"/>
			</g>
			<g transform="translate(4338.05 -9186.16)">
				<path id="path12_fill" class="st4" d="M73.1,51.1c2.6,0,3.8-1.3,3.8-3.1s-1.2-2.9-3.8-2.9h-4.4V54H71v-2.9H73.1z M71,49.7v-3.1
					h2.2c1.1,0,1.5,0.3,1.5,1.4c0,1.2-0.4,1.7-1.5,1.7C73.2,49.7,71,49.7,71,49.7z"/>
			</g>
			<g transform="translate(4338.05 -9186.16)">
				<path id="path13_fill" class="st4" d="M83.1,51.1c2.6,0,3.8-1.3,3.8-3.1s-1.2-2.9-3.8-2.9h-4.4V54H81v-2.9H83.1z M80.9,49.7
					v-3.1h2.2c1.1,0,1.5,0.3,1.5,1.4c0,1.2-0.4,1.7-1.5,1.7C83.1,49.7,80.9,49.7,80.9,49.7z"/>
			</g>
		</g>
	</g>
	<g id="DÃ_xA0_nh_cho_cÃ_xA1_n_bá_xBB__x99__Vietcombank_1_">
		<g transform="translate(4280 -9176.37)">
			<path id="path14_fill" class="st6" d="M17.6,59.9c1.1,0,1.4-0.9,1.4-1.8s-0.3-1.7-1.4-1.7H16v3.5H17.6z M16.6,59.5v-2.8h1.1
				c0.7,0,0.9,0.7,0.9,1.4s-0.2,1.5-0.9,1.5L16.6,59.5z M20.1,56.3l0.7,0.6h0.4l-0.6-0.6H20.1z M19.8,57.7c0.4,0,0.7-0.1,0.9-0.1
				c0.3,0,0.5,0.1,0.5,0.5v0.2l-0.7,0.1c-0.6,0.1-0.9,0.3-0.9,0.8s0.3,0.8,0.8,0.8c0.6,0,1-0.1,1.3-0.2v-1.6c0-0.5-0.3-0.8-0.9-0.8
				c-0.3,0-0.6,0-1,0.1L19.8,57.7z M21.1,59.5c-0.2,0.1-0.5,0.1-0.8,0.1c-0.2,0-0.4-0.2-0.4-0.5s0.1-0.4,0.5-0.5l0.7-0.1
				C21.1,58.5,21.1,59.5,21.1,59.5z M22.2,59.9h0.5v-2.1c0.2,0,0.4-0.1,0.6-0.1c0.5,0,0.7,0.3,0.7,1V60h0.5v-1.3
				c0-0.8-0.3-1.2-1.2-1.2c-0.4,0-0.7,0.1-1.1,0.2V59.9z M25.6,56.4h-0.5v3.5h0.5v-2.1c0.2-0.1,0.4-0.1,0.6-0.1c0.5,0,0.6,0.3,0.6,1
				V60h0.5v-1.3c0-0.8-0.2-1.2-1.1-1.2c-0.3,0-0.5,0.1-0.6,0.1V56.4z M31.7,59.5c-0.2,0-0.6,0.1-0.8,0.1c-0.6,0-0.7-0.2-0.7-1
				s0.1-1,0.7-1c0.2,0,0.7,0.1,0.8,0.1v-0.3c-0.1,0-0.5-0.1-0.8-0.1c-1,0-1.2,0.4-1.2,1.3s0.2,1.3,1.2,1.3c0.3,0,0.7-0.1,0.8-0.1
				V59.5z M32.7,56.4h-0.5v3.5h0.5v-2.1c0.2-0.1,0.4-0.1,0.6-0.1c0.5,0,0.6,0.3,0.6,1V60h0.5v-1.3c0-0.8-0.2-1.2-1.1-1.2
				c-0.3,0-0.5,0.1-0.6,0.1V56.4z M36.1,57.3c-0.8,0-1.2,0.3-1.2,1.2c0,1,0.3,1.3,1.2,1.3s1.2-0.4,1.2-1.3
				C37.3,57.7,36.9,57.3,36.1,57.3z M36.1,59.6c-0.6,0-0.7-0.3-0.7-1.1s0.2-1,0.7-1c0.4,0,0.7,0.2,0.7,1S36.7,59.6,36.1,59.6z
				 M41.6,59.5c-0.2,0-0.6,0.1-0.8,0.1c-0.6,0-0.7-0.2-0.7-1s0.1-1,0.7-1c0.2,0,0.7,0.1,0.8,0.1v-0.3c-0.1,0-0.5-0.1-0.8-0.1
				c-1,0-1.2,0.4-1.2,1.3s0.2,1.3,1.2,1.3c0.3,0,0.7-0.1,0.8-0.1V59.5z M43.1,56.3l-0.6,0.6h0.4l0.7-0.6H43.1z M42.2,57.7
				c0.4,0,0.7-0.1,0.9-0.1c0.3,0,0.5,0.1,0.5,0.5v0.2l-0.7,0.1c-0.6,0.1-0.9,0.3-0.9,0.8s0.3,0.8,0.8,0.8c0.6,0,1-0.1,1.3-0.2v-1.6
				c0-0.5-0.3-0.8-0.9-0.8c-0.3,0-0.6,0-1,0.1L42.2,57.7z M43.6,59.5c-0.2,0.1-0.5,0.1-0.8,0.1c-0.2,0-0.4-0.2-0.4-0.5
				s0.1-0.4,0.5-0.5l0.7-0.1V59.5z M44.7,59.9h0.5v-2.1c0.2,0,0.4-0.1,0.6-0.1c0.5,0,0.7,0.3,0.7,1V60H47v-1.3
				c0-0.8-0.3-1.2-1.2-1.2c-0.4,0-0.7,0.1-1.1,0.2V59.9z M49.4,56.4v3.5c0.3,0,0.5,0,0.8,0c1.1,0,1.4-0.4,1.4-1.3
				c0-0.8-0.2-1.2-1.1-1.2c-0.3,0-0.5,0.1-0.6,0.1v-1L49.4,56.4L49.4,56.4z M49.9,57.7c0.2,0,0.4-0.1,0.6-0.1c0.5,0,0.6,0.3,0.6,1
				s-0.1,1-0.8,1c0,0,0,0-0.1,0s-0.2,0-0.3,0V57.7z M52.4,56.9h0.4l0.4-0.4l0.4,0.4H54l-0.7-0.7h-0.2L52.4,56.9z M53.3,57.3
				c-0.8,0-1.2,0.3-1.2,1.2c0,1,0.3,1.3,1.2,1.3s1.2-0.4,1.2-1.3C54.5,57.7,54,57.3,53.3,57.3z M53.3,59.6c-0.6,0-0.7-0.3-0.7-1.1
				s0.2-1,0.7-1c0.4,0,0.7,0.2,0.7,1S53.9,59.6,53.3,59.6z M53.1,60.3v0.4h0.4v-0.4H53.1z M59.2,56.4l-1,3.2h-0.1l-1-3.2h-0.5
				l1.2,3.5h0.9l1.1-3.5H59.2z M60.1,56.8h0.5v-0.4h-0.5V56.8z M60.1,59.9h0.5v-2.5h-0.5V59.9z M63.3,59.5c-0.2,0-0.7,0.1-1,0.1
				c-0.5,0-0.7-0.3-0.7-0.9h1.8v-0.2c0-0.8-0.4-1.2-1.2-1.2c-0.7,0-1.1,0.3-1.1,1.3c0,0.8,0.2,1.3,1.2,1.3c0.3,0,0.8-0.1,1-0.2V59.5
				z M61.6,58.5c0-0.6,0.2-0.8,0.7-0.8s0.7,0.2,0.7,0.8H61.6z M64.2,56.8v0.6h-0.5v0.3h0.5v1.4c0,0.6,0.1,0.8,0.6,0.8
				c0.1,0,0.2,0,0.4-0.1v-0.3c-0.2,0-0.3,0.1-0.3,0.1l0,0c-0.2,0-0.2-0.1-0.2-0.6v-1.4h0.6v-0.3h-0.6v-0.6L64.2,56.8L64.2,56.8z
				 M67.6,59.5c-0.2,0-0.6,0.1-0.8,0.1c-0.6,0-0.7-0.2-0.7-1s0.1-1,0.7-1c0.2,0,0.7,0.1,0.8,0.1v-0.3c-0.1,0-0.5-0.1-0.8-0.1
				c-1,0-1.2,0.4-1.2,1.3s0.2,1.3,1.2,1.3c0.3,0,0.7-0.1,0.8-0.1V59.5z M69.2,57.3c-0.8,0-1.2,0.3-1.2,1.2c0,1,0.3,1.3,1.2,1.3
				c0.9,0,1.2-0.4,1.2-1.3C70.4,57.7,69.9,57.3,69.2,57.3z M69.2,59.6c-0.6,0-0.7-0.3-0.7-1.1s0.2-1,0.7-1c0.4,0,0.7,0.2,0.7,1
				C69.9,59.3,69.8,59.6,69.2,59.6z M70.9,59.9h0.5v-2.1c0.2,0,0.4-0.1,0.6-0.1c0.5,0,0.6,0.3,0.6,1V60h0.5v-1.3
				c0-0.3,0-0.6-0.1-0.8c0.3-0.1,0.5-0.1,0.8-0.1c0.5,0,0.6,0.3,0.6,1v1.3h0.5v-1.3c0-0.8-0.2-1.2-1.1-1.2c-0.3,0-0.6,0-1,0.2
				c-0.2-0.1-0.4-0.2-0.7-0.2c-0.4,0-0.7,0.1-1.1,0.2v2.1H70.9z M75.4,56.4v3.5c0.3,0,0.5,0,0.8,0c1.1,0,1.4-0.4,1.4-1.3
				c0-0.8-0.2-1.2-1.1-1.2c-0.3,0-0.5,0.1-0.6,0.1v-1L75.4,56.4L75.4,56.4z M75.9,57.7c0.2,0,0.4-0.1,0.6-0.1c0.5,0,0.6,0.3,0.6,1
				s-0.1,1-0.8,1c0,0,0,0-0.1,0s-0.2,0-0.3,0C75.9,59.6,75.9,57.7,75.9,57.7z M78.3,57.7c0.4,0,0.7-0.1,0.9-0.1
				c0.3,0,0.5,0.1,0.5,0.5v0.2L79,58.4c-0.6,0.1-0.9,0.3-0.9,0.8s0.3,0.8,0.8,0.8s1-0.1,1.3-0.2v-1.6c0-0.5-0.3-0.8-0.9-0.8
				c-0.3,0-0.6,0-1,0.1V57.7z M79.7,59.5c-0.2,0.1-0.5,0.1-0.8,0.1c-0.2,0-0.4-0.2-0.4-0.5s0.1-0.4,0.5-0.5l0.7-0.1
				C79.7,58.5,79.7,59.5,79.7,59.5z M80.8,59.9h0.5v-2.1c0.2,0,0.4-0.1,0.6-0.1c0.5,0,0.7,0.3,0.7,1V60h0.5v-1.3
				c0-0.8-0.3-1.2-1.2-1.2c-0.4,0-0.7,0.1-1.1,0.2V59.9z M84.2,59.9v-1.1h0.4l0.9,1.1H86l-1.1-1.4l1.1-1.1h-0.5l-0.9,0.9h-0.4v-1.9
				h-0.5v3.5H84.2z"/>
		</g>
	</g>
</g>
<g id="Group_3_">
	<g id="Group_4_">
		<g id="SALESAPP_5_">
			<g transform="translate(4295.18 -9186.28)">
				<path id="path6_fill_2_" class="st3" d="M13.9,52c0.6,0.1,2,0.3,3.1,0.3c0.1,0,0.3,0,0.4,0c1.3-0.1,3.3-0.3,3.5-2.2
					c0-0.1,0-0.2,0-0.3c0-0.6-0.2-1.4-1-2c-0.3-0.2-1.4-0.8-2.4-1.4c-0.8-0.5-1.1-0.7-1.1-1c0,0,0-0.1,0-0.1c0-0.3,0.4-0.6,1.5-0.6
					c1.1,0,1.6,0,2.8,0.2l0.3-1.4c-1-0.2-1.9-0.2-3.1-0.2c-2.5,0-3.7,1.1-3.7,2c0,0.1,0,0.2,0,0.3c0,1.2,0.7,2,2,2.7
					c0.8,0.5,1.8,1,2.2,1.3c0.3,0.3,0.4,0.5,0.4,0.7c0,0.5-0.4,0.7-1.3,0.7c-0.1,0-0.2,0-0.3,0c-0.8,0-1.7-0.1-2.9-0.3L13.9,52z"/>
			</g>
			<g transform="translate(4295.18 -9186.28)">
				<path id="path7_fill_2_" class="st3" d="M25.1,43.3l-3.4,8.9H24l0.8-2.1h3.5l0.8,2.1h2.3l-3.4-8.9H25.1z M27.7,48.7h-2.3
					l1.2-3.2L27.7,48.7z"/>
			</g>
			<g transform="translate(4295.18 -9186.28)">
				<path id="path8_fill_2_" class="st3" d="M39.5,52.2v-1.5h-4.8v-7.5h-2.3v8.9H39.5z"/>
			</g>
			<g transform="translate(4295.18 -9186.28)">
				<path id="path9_fill_1_" class="st3" d="M40.6,52.2h7.5v-1.5h-5.2v-2.4h4.4v-1.5h-4.4v-2.2h5.2v-1.5h-7.5V52.2z"/>
			</g>
			<g transform="translate(4295.18 -9186.28)">
				<path id="path10_fill_1_" class="st3" d="M49.1,52c0.6,0.1,2,0.3,3.1,0.3c0.1,0,0.3,0,0.4,0c1.3-0.1,3.3-0.3,3.5-2.2
					c0-0.1,0-0.2,0-0.3c0-0.6-0.2-1.4-1-2c-0.3-0.2-1.4-0.8-2.4-1.4c-0.8-0.5-1.1-0.7-1.1-1c0,0,0-0.1,0-0.1c0-0.3,0.4-0.6,1.5-0.6
					c1.1,0,1.6,0,2.8,0.2l0.3-1.4c-1-0.2-1.9-0.2-3.1-0.2c-2.5,0-3.7,1.1-3.7,2c0,0.1,0,0.2,0,0.3c0,1.2,0.7,2,2,2.7
					c0.8,0.5,1.8,1,2.2,1.3c0.3,0.3,0.4,0.5,0.4,0.7c0,0.5-0.4,0.7-1.3,0.7c-0.1,0-0.2,0-0.3,0c-0.8,0-1.7-0.1-2.9-0.3L49.1,52z"/>
			</g>
		</g>
		<g id="SALESAPP_4_">
			<g transform="translate(4338.05 -9186.16)">
				<path id="path11_fill_1_" class="st4" d="M60.2,43.3l-3.4,8.9h2.3l0.8-2.1h3.5l0.8,2.1h2.3l-3.4-8.9H60.2z M62.8,48.7h-2.3
					l1.2-3.2L62.8,48.7z"/>
			</g>
			<g transform="translate(4338.05 -9186.16)">
				<path id="path12_fill_1_" class="st4" d="M72.1,49.4c2.6,0,3.8-1.3,3.8-3.1c0-1.8-1.2-2.9-3.8-2.9h-4.4v8.9h2.3v-2.9H72.1z
					 M69.9,47.9v-3.1h2.2c1.1,0,1.5,0.3,1.5,1.4c0,1.2-0.4,1.7-1.5,1.7H69.9z"/>
			</g>
			<g transform="translate(4338.05 -9186.16)">
				<path id="path13_fill_1_" class="st4" d="M82,49.4c2.6,0,3.8-1.3,3.8-3.1c0-1.8-1.2-2.9-3.8-2.9h-4.4v8.9h2.3v-2.9H82z
					 M79.8,47.9v-3.1H82c1.1,0,1.5,0.3,1.5,1.4c0,1.2-0.4,1.7-1.5,1.7H79.8z"/>
			</g>
		</g>
	</g>
	<g id="DÃ_xA0_nh_cho_cÃ_xA1_n_bá_xBB__x99__Vietcombank_2_">
		<g transform="translate(4280 -9176.37)">
			<path id="path14_fill_1_" class="st6" d="M16.5,58.1c1.1,0,1.4-0.9,1.4-1.8s-0.3-1.7-1.4-1.7H15v3.5H16.5z M15.5,57.8V55h1.1
				c0.7,0,0.9,0.7,0.9,1.4s-0.2,1.5-0.9,1.5L15.5,57.8z M19,54.5l0.7,0.6h0.4l-0.6-0.6H19z M18.7,55.9c0.4,0,0.7-0.1,0.9-0.1
				c0.3,0,0.5,0.2,0.5,0.5v0.2l-0.7,0.1c-0.6,0.1-0.9,0.3-0.9,0.8c0,0.5,0.3,0.8,0.8,0.8c0.6,0,1-0.1,1.3-0.2v-1.6
				c0-0.5-0.3-0.8-0.9-0.8c-0.3,0-0.6,0-1,0.1L18.7,55.9z M20,57.8c-0.2,0-0.5,0.1-0.8,0.1c-0.2,0-0.4-0.2-0.4-0.5
				c0-0.3,0.1-0.4,0.5-0.5l0.7-0.1V57.8z M21.1,58.1h0.5V56c0.2,0,0.4-0.1,0.6-0.1c0.5,0,0.7,0.3,0.7,1v1.3h0.5v-1.3
				c0-0.8-0.3-1.2-1.2-1.2c-0.4,0-0.7,0.1-1.1,0.2V58.1z M24.5,54.6H24v3.5h0.5V56c0.2,0,0.4-0.1,0.6-0.1c0.5,0,0.6,0.3,0.6,1v1.3
				h0.5v-1.3c0-0.8-0.2-1.2-1.1-1.2c-0.3,0-0.5,0.1-0.6,0.1V54.6z M30.6,57.8c-0.2,0-0.6,0.1-0.8,0.1c-0.6,0-0.7-0.2-0.7-1
				c0-0.8,0.1-1,0.7-1c0.2,0,0.7,0.1,0.8,0.1l0-0.3c-0.1,0-0.5-0.1-0.8-0.1c-1,0-1.2,0.4-1.2,1.3s0.2,1.3,1.2,1.3
				c0.3,0,0.7-0.1,0.8-0.1L30.6,57.8z M31.6,54.6h-0.5v3.5h0.5V56c0.2,0,0.4-0.1,0.6-0.1c0.5,0,0.6,0.3,0.6,1v1.3h0.5v-1.3
				c0-0.8-0.2-1.2-1.1-1.2c-0.3,0-0.5,0.1-0.6,0.1V54.6z M35,55.6c-0.8,0-1.2,0.3-1.2,1.2c0,1,0.3,1.3,1.2,1.3
				c0.9,0,1.2-0.4,1.2-1.3C36.2,55.9,35.8,55.6,35,55.6z M35,57.9c-0.6,0-0.7-0.3-0.7-1.1c0-0.8,0.2-0.9,0.7-0.9
				c0.4,0,0.7,0.2,0.7,1C35.7,57.6,35.6,57.9,35,57.9z M40.5,57.8c-0.2,0-0.6,0.1-0.8,0.1c-0.6,0-0.7-0.2-0.7-1c0-0.8,0.1-1,0.7-1
				c0.2,0,0.7,0.1,0.8,0.1l0-0.3c-0.1,0-0.5-0.1-0.8-0.1c-1,0-1.2,0.4-1.2,1.3s0.2,1.3,1.2,1.3c0.3,0,0.7-0.1,0.8-0.1L40.5,57.8z
				 M42,54.5l-0.6,0.6h0.4l0.7-0.6H42z M41.1,55.9c0.4,0,0.7-0.1,0.9-0.1c0.3,0,0.5,0.2,0.5,0.5v0.2l-0.7,0.1
				c-0.6,0.1-0.9,0.3-0.9,0.8c0,0.5,0.3,0.8,0.8,0.8c0.6,0,1-0.1,1.3-0.2v-1.6c0-0.5-0.3-0.8-0.9-0.8c-0.3,0-0.6,0-1,0.1L41.1,55.9z
				 M42.5,57.8c-0.2,0-0.5,0.1-0.8,0.1c-0.2,0-0.4-0.2-0.4-0.5c0-0.3,0.1-0.4,0.5-0.5l0.7-0.1V57.8z M43.6,58.1h0.5V56
				c0.2,0,0.4-0.1,0.6-0.1c0.5,0,0.7,0.3,0.7,1v1.3h0.5v-1.3c0-0.8-0.3-1.2-1.2-1.2c-0.4,0-0.7,0.1-1.1,0.2V58.1z M48.3,54.6v3.5
				c0.3,0,0.5,0,0.8,0c1.1,0,1.4-0.4,1.4-1.3c0-0.8-0.2-1.2-1.1-1.2c-0.3,0-0.5,0.1-0.6,0.1v-1.1H48.3z M48.8,56
				c0.2,0,0.4-0.1,0.6-0.1c0.5,0,0.6,0.3,0.6,1c0,0.7-0.1,1-0.8,1c0,0,0,0-0.1,0c-0.1,0-0.2,0-0.3,0V56z M51.3,55.2h0.4l0.4-0.4
				l0.4,0.4H53l-0.7-0.7H52L51.3,55.2z M52.2,55.6c-0.8,0-1.2,0.3-1.2,1.2c0,1,0.3,1.3,1.2,1.3c0.9,0,1.2-0.4,1.2-1.3
				C53.4,55.9,52.9,55.6,52.2,55.6z M52.2,57.9c-0.6,0-0.7-0.3-0.7-1.1c0-0.8,0.2-0.9,0.7-0.9c0.4,0,0.7,0.2,0.7,1
				C52.9,57.6,52.8,57.9,52.2,57.9z M52,58.6v0.4h0.4v-0.4H52z M58.1,54.6l-1,3.2H57l-1-3.2h-0.5l1.2,3.5h0.9l1.1-3.5H58.1z
				 M59,55.1h0.5v-0.4H59V55.1z M59,58.1h0.5v-2.5H59V58.1z M62.2,57.7c-0.2,0.1-0.7,0.1-1,0.1c-0.5,0-0.7-0.3-0.7-0.9h1.8v-0.2
				c0-0.8-0.4-1.2-1.2-1.2c-0.7,0-1.1,0.3-1.1,1.3c0,0.8,0.2,1.3,1.2,1.3c0.3,0,0.8-0.1,1-0.2L62.2,57.7z M60.5,56.7
				c0-0.6,0.2-0.8,0.7-0.8c0.5,0,0.7,0.2,0.7,0.8H60.5z M63.1,55v0.6h-0.5v0.3h0.5v1.4c0,0.6,0.1,0.8,0.6,0.8c0.1,0,0.2,0,0.4,0
				l0-0.3c-0.2,0-0.3,0.1-0.3,0.1c0,0,0,0,0,0c-0.2,0-0.2-0.1-0.2-0.6v-1.4h0.6v-0.3h-0.6V55H63.1z M66.5,57.8
				c-0.2,0-0.6,0.1-0.8,0.1c-0.6,0-0.7-0.2-0.7-1c0-0.8,0.1-1,0.7-1c0.2,0,0.7,0.1,0.8,0.1l0-0.3c-0.1,0-0.5-0.1-0.8-0.1
				c-1,0-1.2,0.4-1.2,1.3s0.2,1.3,1.2,1.3c0.3,0,0.7-0.1,0.8-0.1L66.5,57.8z M68.1,55.6c-0.8,0-1.2,0.3-1.2,1.2c0,1,0.3,1.3,1.2,1.3
				c0.9,0,1.2-0.4,1.2-1.3C69.3,55.9,68.8,55.6,68.1,55.6z M68.1,57.9c-0.6,0-0.7-0.3-0.7-1.1c0-0.8,0.2-0.9,0.7-0.9
				c0.4,0,0.7,0.2,0.7,1C68.8,57.6,68.7,57.9,68.1,57.9z M69.8,58.1h0.5V56c0.2,0,0.4-0.1,0.6-0.1c0.5,0,0.6,0.3,0.6,1v1.3H72v-1.3
				c0-0.3,0-0.6-0.1-0.8c0.3-0.1,0.5-0.1,0.8-0.1c0.5,0,0.6,0.3,0.6,1v1.3h0.5v-1.3c0-0.8-0.2-1.2-1.1-1.2c-0.3,0-0.6,0-1,0.2
				c-0.2-0.1-0.4-0.2-0.7-0.2c-0.4,0-0.7,0.1-1.1,0.2V58.1z M74.4,54.6v3.5c0.3,0,0.5,0,0.8,0c1.1,0,1.4-0.4,1.4-1.3
				c0-0.8-0.2-1.2-1.1-1.2c-0.3,0-0.5,0.1-0.6,0.1v-1.1H74.4z M74.8,56c0.2,0,0.4-0.1,0.6-0.1c0.5,0,0.6,0.3,0.6,1
				c0,0.7-0.1,1-0.8,1c0,0,0,0-0.1,0c-0.1,0-0.2,0-0.3,0V56z M77.3,55.9c0.4,0,0.7-0.1,0.9-0.1c0.3,0,0.5,0.2,0.5,0.5v0.2l-0.8,0.1
				C77.3,56.7,77,57,77,57.4c0,0.5,0.3,0.8,0.8,0.8c0.5,0,1-0.1,1.3-0.2v-1.6c0-0.5-0.3-0.8-0.9-0.8c-0.3,0-0.6,0-1,0.1L77.3,55.9z
				 M78.6,57.8c-0.2,0-0.5,0.1-0.8,0.1c-0.2,0-0.4-0.2-0.4-0.5c0-0.3,0.1-0.4,0.5-0.5l0.7-0.1V57.8z M79.7,58.1h0.5V56
				c0.2,0,0.4-0.1,0.6-0.1c0.5,0,0.7,0.3,0.7,1v1.3H82v-1.3c0-0.8-0.3-1.2-1.2-1.2c-0.4,0-0.7,0.1-1.1,0.2V58.1z M83.1,58.1V57h0.4
				l0.9,1.1h0.5l-1.1-1.4l1.1-1.1h-0.5l-0.9,0.9h-0.4v-1.9h-0.5v3.5H83.1z"/>
		</g>
	</g>
</g>
</svg>
