<svg width="39" height="38" viewBox="0 0 39 38" version="1.1" xmlns="http://www.w3.org/2000/svg" xmlns:xlink="http://www.w3.org/1999/xlink">
<title>logo</title>
<desc>Created using Figma</desc>
<g id="Canvas" transform="translate(-4888 2539)">
<g id="logo">
<g id="Vector">
<use xlink:href="#path0_fill" transform="translate(4888 -2539)" fill="#FFFFFF"/>
</g>
<g id="Vector">
<use xlink:href="#path1_fill" transform="translate(4898.91 -2539)" fill="#FFFFFF"/>
</g>
</g>
</g>
<defs>
<path id="path0_fill" d="M 38.677 7.95727C 38.677 5.35897 37.5467 3.41026 35.9319 2.2735C 35.7705 2.11111 35.609 2.11111 35.4475 1.94872C 35.609 1.94872 36.7393 2.59829 37.3852 4.05983C 37.7082 4.7094 37.8697 5.84615 37.5467 7.47009C 37.5467 7.47009 37.3852 7.79487 37.3852 8.11966L 37.3852 8.28205C 36.5778 10.7179 35.1246 13.8034 33.3483 16.8889C 31.5721 19.9744 29.6343 22.5726 27.8581 24.359C 27.0507 25.1709 26.5663 25.3333 26.0818 25.4957C 25.5974 25.6581 25.4359 25.4957 25.4359 25.4957C 24.9515 25.3333 24.4671 25.0085 23.9826 24.6838C 21.7219 22.8974 18.9768 19.812 16.2317 15.9145C 11.8718 9.74359 9.44968 3.89744 10.4185 2.11111C 10.4185 2.11111 11.0645 0.48718 13.8096 2.41985e-09C 6.05867 0.974359 2.66764 3.41026 1.37582 4.7094C 0.406962 5.84615 -0.238939 7.30769 0.0840149 9.4188C 0.0840149 9.4188 0.0840149 9.5812 0.0840149 9.90598C 0.0840149 10.0684 0.0840124 10.2308 0.24549 10.3932C 0.729921 12.5043 1.69878 15.265 2.9906 18.0256C 3.31355 18.6752 3.79799 19.3248 4.12094 19.9744C 5.08981 21.7607 6.22014 23.547 7.51196 25.3333C 10.4185 29.3932 13.6481 32.641 17.0391 35.2393C 17.3621 35.4017 17.5235 35.7265 17.8465 35.8889C 18.4924 36.3761 19.1383 36.7009 19.6227 37.0256C 20.1072 37.3504 20.5916 37.5128 21.076 37.6752C 21.2375 37.6752 21.399 37.6752 21.5605 37.8376C 21.8834 37.8376 22.3679 38 22.6908 38C 24.3056 38 25.7589 37.188 26.7277 36.0513C 26.7277 36.0513 26.8892 35.8889 27.0507 35.7265C 27.5351 35.2393 28.181 34.265 28.9884 33.1282C 31.0876 30.0427 33.1868 26.4701 34.9631 22.4103C 36.9008 17.8632 38.3541 13.3162 39 9.4188C 38.677 8.93162 38.677 8.44444 38.677 7.95727Z"/>
<path id="path1_fill" d="M 25.3473 3.73504C 24.7014 2.59829 23.0867 1.78632 22.7637 1.62393C 20.1801 0.487179 16.9505 0.324786 14.5284 0.162393C 12.9136 0 11.4603 2.41985e-09 9.68405 2.41985e-09C 8.06928 2.41985e-09 6.29303 0 4.67826 0.162393C 4.51678 0.162393 1.44871 0.649573 0.318371 2.4359C -0.327537 3.24786 0.156904 4.87179 0.479859 5.68376C 1.6102 8.93162 3.7094 12.3419 3.7094 12.3419C 4.67826 12.1795 5.97008 12.1795 7.10042 12.0171C 8.06928 12.0171 9.19962 11.8547 10.4914 11.8547C 14.3669 11.8547 17.9194 12.1795 20.3415 12.8291C 20.9874 12.6667 21.4719 12.8291 21.7948 12.9915C 22.2793 13.1538 22.6022 13.4786 22.7637 13.9658C 22.7637 13.9658 27.1236 6.65812 25.3473 3.73504Z"/>
</defs>
</svg>
