<svg width="164" height="56" viewBox="0 0 164 56" version="1.1" xmlns="http://www.w3.org/2000/svg" xmlns:xlink="http://www.w3.org/1999/xlink">
<title>logo</title>
<desc>Created using Figma</desc>
<g id="Canvas" transform="translate(-7277 3796)">
<g id="logo">
<g id="Group">
<g id="Vector">
<use xlink:href="#path0_fill" transform="translate(7387.44 -3795.56)" fill="url(#paint0_linear)"/>
</g>
<g id="Vector">
<use xlink:href="#path1_fill" transform="translate(7397.43 -3796)" fill="url(#paint1_linear)"/>
</g>
</g>
<g id="Vector">
<use xlink:href="#path2_fill" transform="translate(7277 -3761.36)" fill="#004522"/>
</g>
</g>
</g>
<defs>
<linearGradient id="paint0_linear" x1="0" y1="0" x2="1" y2="0" gradientUnits="userSpaceOnUse" gradientTransform="matrix(-29.6723 -20.5715 20.7768 -29.3791 22.363 37.2333)">
<stop offset="0" stop-color="#006840"/>
<stop offset="0.4" stop-color="#007A48"/>
<stop offset="1" stop-color="#86C440"/>
</linearGradient>
<linearGradient id="paint1_linear" x1="0" y1="0" x2="1" y2="0" gradientUnits="userSpaceOnUse" gradientTransform="matrix(17.5587 12.1732 -12.2947 17.3851 10.2952 -8.42053)">
<stop offset="0" stop-color="#006840"/>
<stop offset="0.3" stop-color="#007A48"/>
<stop offset="1" stop-color="#86C440"/>
</linearGradient>
<path id="path0_fill" fill-rule="evenodd" d="M 13.4779 -1.62596e-08C 10.8605 0.511483 9.89618 1.70494 9.9995 3.37579C 10.1373 5.76271 12.7546 10.2638 14.0289 12.2756C 16.233 15.7878 18.8159 18.9931 21.7088 21.8915C 24.0507 24.1761 25.5316 24.6876 28.0112 21.2777C 30.1464 18.4816 32.1095 15.7196 33.8314 12.2415C 34.5891 10.7071 35.2779 9.0703 35.8634 7.19487C 36.5177 5.01254 36.2766 3.103 34.1414 1.67085C 36.2078 2.65971 37.1032 4.50105 37.2409 6.54699C 37.3787 8.52472 36.7588 10.6389 36.3111 12.2074C 35.1746 16.1288 33.7281 20.0842 31.9029 23.6305C 30.5253 26.3243 28.7689 29.5296 27.0125 31.9166C 23.1208 37.2019 19.4014 35.4969 15.0276 31.9166C 12.2725 29.6319 9.58622 26.7676 7.31323 23.6305C 5.0058 20.4593 2.4573 15.7878 0.941971 12.1733C -1.12438 7.22896 0.494263 4.70565 3.04277 3.103C 5.90122 1.46625 10.1028 0.477384 13.4779 -1.62596e-08Z"/>
<path id="path1_fill" fill-rule="evenodd" d="M 3.38248 11.6959C 7.41187 11.0821 17.9158 10.4343 21.6008 12.3438C 22.8406 12.9917 22.8751 13.8441 22.7373 14.7989C 23.1162 14.151 23.4606 13.4691 23.805 12.753C 24.5626 11.2185 25.2514 9.58179 25.8369 7.70635C 26.4912 5.52402 26.2501 3.61448 24.1149 2.18233C 23.3228 1.77314 22.3929 1.46625 21.5664 1.22756C 19.1212 0.545582 16.4349 0.238692 13.7487 0.0681978C 12.6811 0 11.5101 0 10.3048 0C 8.16953 0 5.82767 0.136396 3.4858 0.443285C 0.868419 0.954769 -0.0958818 2.14823 0.00743593 3.81907C 0.110754 5.86501 2.03935 9.44539 3.38248 11.6959Z"/>
<path id="path2_fill" fill-rule="evenodd" d="M 113.271 20.4593C 115.372 20.2206 117.163 19.1295 117.782 15.9924C 118.161 13.9805 118.127 10.7071 117.541 8.79751C 117.266 7.91094 116.887 7.16077 116.302 6.68338C 115.303 5.86501 114.201 5.72861 113.236 5.69452C 111.618 5.62632 110.722 5.89911 109.551 6.85388C 109.31 7.02437 109.138 7.12667 109.138 6.78568L 109.104 0.0340978L 105.315 0.102297L 105.315 19.4364C 106.9 20.4934 111.342 20.6639 113.271 20.4593ZM 12.0885 20.0842C 12.8806 20.0842 12.7084 20.1524 13.225 19.5046C 16.4967 15.0376 19.5962 5.55812 19.5618 0.272792C 18.0464 0.204594 16.4967 0.443286 14.9469 0.818373C 13.466 9.51359 12.1573 11.7982 9.78103 16.2311C 7.40472 11.7982 6.13047 9.51359 4.61514 0.818373C 3.06538 0.443286 1.51561 0.204594 0.000284333 0.272792C -0.0341549 5.55812 3.06538 15.0717 6.3371 19.5046C 6.81925 20.1524 6.64706 20.0842 7.4736 20.0842L 12.0885 20.0842ZM 120.503 6.37649L 120.882 9.75228C 122.363 9.61589 123.603 9.2067 125.152 9.1044C 127.529 9.03621 129.01 8.96801 128.941 10.6389C 127.184 10.6389 125.394 10.6389 123.568 10.6389C 121.33 10.673 119.504 11.6959 119.746 16.1629C 120.055 21.5505 126.496 21.1413 129.423 18.9931L 129.423 20.1865L 132.832 20.1865C 132.729 14.6966 133.142 8.93391 132.144 7.39946C 130.249 4.50105 124.016 5.59222 120.503 6.37649ZM 39.9842 19.641C 39.8465 18.5498 39.7432 17.4245 39.6054 16.3334C 38.0556 16.6062 35.4038 17.0153 33.854 16.9471C 32.0632 16.879 31.3744 16.0265 31.3744 13.5032C 31.9599 14.151 32.752 14.5943 33.7507 14.5943C 36.0926 14.6284 38.2967 14.6625 40.6041 14.5602C 40.7075 10.332 41.0863 6.64928 36.8158 5.72861C 35.0939 5.35353 32.7864 5.35353 31.1334 5.86501C 29.3425 6.41059 28.4471 7.22897 27.9305 9.03621C 26.9662 12.3438 27.2417 17.2881 29.3769 19.1636C 31.8566 21.3118 36.8503 20.5616 39.9842 19.641ZM 33.0964 9.00211L 34.9905 9.00211C 35.9204 9.00211 36.7125 9.75228 36.7125 10.7071L 36.7125 11.4572L 31.4089 11.4572L 31.4089 10.7071C 31.4089 9.78638 32.1665 9.00211 33.0964 9.00211ZM 153.703 20.2547L 153.806 14.0487C 153.806 13.6737 154.15 14.1851 154.254 14.3215C 155.493 16.4016 156.63 17.936 158.49 19.7774C 159.006 20.2888 159.11 20.2547 160.039 20.2547L 164 20.2547C 161.107 17.9019 159.523 15.9924 157.973 13.1281C 157.663 12.4802 157.663 12.5484 158.111 11.9346C 158.696 11.2867 159.42 10.4002 160.212 9.51359L 163.587 5.59222C 163.587 5.55812 163.621 5.52402 163.621 5.48992L 160.039 5.48992C 159.385 5.48992 159.419 5.38762 158.937 5.89911C 157.56 7.36536 156.01 9.0703 154.736 10.4343C 154.564 10.6048 154.391 10.7411 154.254 10.8434C 153.737 11.2185 153.84 11.1162 153.84 10.5707L 153.806 -5.20308e-07L 149.983 0.0340978L 149.949 20.2547L 153.703 20.2547ZM 65.0904 19.7433L 64.746 16.4357C 63.0241 16.5721 61.1988 17.0494 59.3735 16.8449C 57.5482 16.6403 57.3072 15.6855 57.3072 14.2192C 57.3072 13.3327 57.2727 12.3097 57.3072 11.4572C 57.3761 10.2638 57.7204 9.47949 59.3735 9.2749C 61.1988 9.0703 63.0241 9.54769 64.746 9.68408L 65.0904 6.37649C 58.5125 4.84204 54.4487 5.59222 53.5189 10.6389C 53.3122 11.6959 53.4155 15.174 53.6911 16.1629C 54.8275 20.5957 58.8225 21.2095 65.0904 19.7433ZM 44.4613 5.66041C 43.6692 5.66041 42.8771 5.66041 42.0506 5.66041C 42.0506 6.81978 42.0506 7.97914 42.0162 9.1385C 42.8427 9.1385 43.6004 9.1385 44.4269 9.1385C 44.4269 10.332 44.4269 11.5595 44.4269 12.753C 44.4269 14.0146 44.4269 15.174 44.4269 16.197C 44.4269 17.6632 44.7369 18.959 45.5634 19.6069C 45.9078 19.8797 46.4244 20.0501 47.0443 20.1183C 48.5252 20.2888 50.3849 20.2206 51.6591 19.8115C 51.6247 18.8226 51.5903 17.7996 51.5214 16.8108C 50.0405 16.9471 48.2497 17.2881 48.2497 16.538C 48.2497 13.9805 48.2497 11.73 48.2497 9.1726C 49.4206 9.1726 50.5571 9.1726 51.728 9.1726C 51.728 8.01324 51.728 6.85388 51.728 5.69452C 50.5571 5.69452 49.4206 5.69452 48.2497 5.69452C 48.2497 4.53515 48.2497 3.37579 48.2497 2.21643C 46.9754 2.21643 45.7011 2.21643 44.4269 2.21643C 44.4613 3.37579 44.4613 4.50105 44.4613 5.66041ZM 21.0427 20.2547L 24.7621 20.3229L 24.8998 5.72861L 21.0082 5.76271L 21.0427 20.2547ZM 71.9094 5.48992L 75.25 5.48992C 77.8674 5.48992 80.0026 7.60405 80.0026 10.1956L 80.0026 15.7537C 80.0026 18.3452 77.8674 20.4593 75.25 20.4593L 71.9094 20.4593C 69.292 20.4593 67.1568 18.3452 67.1568 15.7537L 67.1568 10.1956C 67.1224 7.60405 69.292 5.48992 71.9094 5.48992ZM 72.6326 9.00211C 71.7028 9.00211 70.9107 9.75228 70.9107 10.7071L 70.9107 15.2422C 70.9107 16.1629 71.6683 16.9471 72.6326 16.9471L 74.5268 16.9471C 75.4566 16.9471 76.2487 16.197 76.2487 15.2422L 76.2487 10.7071C 76.2487 9.78638 75.4911 9.00211 74.5268 9.00211L 72.6326 9.00211ZM 86.2361 20.2547C 86.2706 16.538 86.305 12.8212 86.3394 9.1044C 87.2693 9.1044 88.1992 9.1044 89.129 9.1044C 89.8867 9.1044 90.6099 9.58179 90.6099 10.3661L 90.6099 10.8775L 90.6099 20.2547L 94.3982 20.2547L 94.5015 9.1044C 95.5347 9.1044 96.5679 9.1044 97.5666 9.1044C 98.4621 9.1044 99.0475 9.61589 99.082 10.4684L 99.082 20.2547L 102.801 20.2547L 102.939 9.71819C 102.974 7.46766 101.734 5.62632 99.1508 5.66041C 98.3243 5.66041 97.5322 5.66042 96.7057 5.69452C 95.4659 5.69452 94.8115 5.93321 94.0538 6.71748C 93.5028 7.29716 93.7783 7.29716 93.2617 6.75158C 92.5041 5.96731 91.6087 5.69452 90.4377 5.69452C 89.8522 5.69452 89.3012 5.69452 88.7158 5.69452C 87.6826 5.72861 86.9938 6.0696 86.2017 6.85388C 85.5818 7.46766 85.6507 7.67225 85.6507 6.71748C 85.6507 6.41059 85.6507 6.1037 85.6507 5.79681C 84.583 5.79681 83.5154 5.79681 82.4478 5.79681C 82.4478 10.6389 82.4478 15.4468 82.4478 20.2888L 86.2361 20.2888L 86.2361 20.2547ZM 139.066 20.2547C 139.1 16.538 139.135 12.8212 139.169 9.1044C 140.134 9.1044 141.063 9.1044 142.028 9.1044C 142.854 9.1044 143.543 9.61589 143.543 10.4343C 143.543 13.7078 143.543 16.9812 143.543 20.2206C 144.817 20.2206 146.092 20.2206 147.366 20.2206C 147.4 16.9812 147.435 13.7078 147.469 10.4684C 147.504 7.87684 146.47 5.62632 143.405 5.62632C 142.82 5.62632 142.234 5.62632 141.649 5.62632C 140.616 5.66041 139.961 5.96731 139.204 6.71748C 138.549 7.33126 138.584 7.67225 138.584 6.68338L 138.584 5.72861L 135.312 5.72861C 135.312 10.5707 135.312 15.4127 135.346 20.2547C 136.552 20.2547 137.792 20.2547 139.066 20.2547ZM 124.877 13.9464C 126.255 13.9464 127.632 13.9464 129.044 13.9464C 129.044 14.6625 129.044 15.3786 129.044 16.0947C 129.044 16.9812 126.427 17.0153 124.739 16.9812C 123.499 16.9471 123.672 16.9812 123.603 15.9242C 123.568 15.515 123.603 15.1399 123.603 14.7307C 123.603 13.9123 123.775 13.9464 124.877 13.9464ZM 114.029 11.3549L 114.029 13.3668L 114.029 15.3786C 114.029 16.2993 113.271 17.0835 112.307 17.0835C 111.652 17.0835 111.032 17.0835 110.378 17.0835C 109.035 17.0835 109.035 17.1176 109.035 15.2081L 109.035 13.4009L 109.035 10.9116C 109.035 9.00211 109.035 9.03621 110.378 9.03621C 111.032 9.03621 111.652 9.03621 112.307 9.03621C 113.236 9.03621 114.029 9.78638 114.029 10.7412L 114.029 11.3549Z"/>
</defs>
</svg>
