<svg width="16" height="16" viewBox="0 0 16 16" version="1.1" xmlns="http://www.w3.org/2000/svg" xmlns:xlink="http://www.w3.org/1999/xlink">
<title>Vector</title>
<desc>Created using Figma</desc>
<g id="Canvas" transform="translate(-9153 -1055)">
<g id="Vector">
<use xlink:href="#path0_fill" transform="translate(9153 1055)" fill="#31AE27"/>
</g>
</g>
<defs>
<path id="path0_fill" d="M 15.422 11.6123L 12.1519 9.93156C 11.6952 9.69407 11.1289 9.82194 10.8 10.2239L 9.5943 11.7584C 8.4251 11.119 7.54821 10.5344 6.5069 9.4931C 5.41078 8.39698 4.82618 7.50182 4.22332 6.36917L 5.73961 5.1817C 6.14152 4.87113 6.2694 4.3048 6.03191 3.82981L 4.35119 0.577992C 4.05889 0.0116633 3.32814 -0.171026 2.79835 0.176079L 0.715727 1.56451C 0.240742 1.89334 -0.033293 2.4414 0.00324432 3.026C 0.0397817 3.6106 0.112861 4.3596 0.25901 4.8894C 0.861877 7.20952 2.32336 9.62098 4.35119 11.6488C 6.37901 13.6766 8.79048 15.1381 11.1106 15.741C 11.6404 15.8689 12.3711 15.942 12.974 15.9968C 13.5586 16.0333 14.1249 15.7593 14.4355 15.266L 15.7874 13.1651C 16.171 12.6171 15.9883 11.9046 15.422 11.6123Z"/>
</defs>
</svg>
