<svg width="170" height="37" viewBox="0 0 170 37" version="1.1" xmlns="http://www.w3.org/2000/svg" xmlns:xlink="http://www.w3.org/1999/xlink">
<title>logo</title>
<desc>Created using Figma</desc>
<g id="Canvas" transform="translate(-4525 1816)">
<g id="logo">
<g id="SALESAPP">
<use xlink:href="#path0_fill" transform="translate(4525 -1816)" fill="#227E1D" fill-opacity="0.993122"/>
<use xlink:href="#path1_fill" transform="translate(4525 -1816)" fill="#227E1D" fill-opacity="0.993122"/>
<use xlink:href="#path2_fill" transform="translate(4525 -1816)" fill="#227E1D" fill-opacity="0.993122"/>
<use xlink:href="#path3_fill" transform="translate(4525 -1816)" fill="#227E1D" fill-opacity="0.993122"/>
<use xlink:href="#path4_fill" transform="translate(4525 -1816)" fill="#227E1D" fill-opacity="0.993122"/>
</g>
<g id="SALESAPP">
<use xlink:href="#path5_fill" transform="translate(4626.19 -1815.74)" fill="#8CC540"/>
<use xlink:href="#path6_fill" transform="translate(4626.19 -1815.74)" fill="#8CC540"/>
<use xlink:href="#path7_fill" transform="translate(4626.19 -1815.74)" fill="#8CC540"/>
</g>
<g id="D&#195;&#160;nh cho c&#195;&#161;n b&#225;&#187;&#153; Vietcombank">
<use xlink:href="#path8_fill" transform="translate(4525 -1792)" fill="#7D8B98"/>
</g>
</g>
</g>
<defs>
<path id="path0_fill" d="M 0 20.3245C 1.33577 20.5594 4.63069 21 7.3616 21C 7.65844 21 7.98496 21 8.25212 20.9706C 11.2502 20.8531 16.0887 20.3538 16.4449 15.8014C 16.4449 15.5958 16.4746 15.3608 16.4746 15.1259C 16.4746 13.7161 16.059 11.807 14.0405 10.5734C 13.239 10.0741 10.7456 8.63497 8.34117 7.31329C 6.38203 6.22657 5.81804 5.75664 5.81804 4.9049C 5.81804 4.84615 5.81804 4.78741 5.81804 4.72867C 5.87741 3.99441 6.70856 3.37762 9.29105 3.37762C 11.9032 3.37762 13.0609 3.46573 15.9402 3.84755L 16.6527 0.528671C 14.2779 0.176224 12.3188 0 9.29105 0C 3.32459 0 0.712413 2.46713 0.563994 4.6993C 0.53431 4.9049 0.53431 5.08112 0.53431 5.28671C 0.53431 8.10629 2.25597 9.78042 5.22436 11.3958C 7.21318 12.4825 9.46916 13.628 10.33 14.3916C 11.0424 15.0378 11.1908 15.5664 11.1611 16.0364C 11.1315 17.1231 10.3003 17.5343 8.01465 17.6224C 7.80686 17.6224 7.59907 17.6224 7.3616 17.6224C 5.49152 17.6224 3.26523 17.358 0.653045 17.035L 0 20.3245Z"/>
<path id="path1_fill" d="M 26.1093 0.264336L 18.0946 20.7944L 23.4971 20.7944L 25.3672 16.007L 33.5006 16.007L 35.4003 20.7944L 40.8028 20.7944L 32.8178 0.264336L 26.1093 0.264336ZM 32.1351 12.6587L 26.7327 12.6587L 29.4636 5.31608L 32.1351 12.6587Z"/>
<path id="path2_fill" d="M 59.8673 20.7944L 59.8673 17.4462L 48.7358 17.4462L 48.7358 0.264336L 43.4224 0.264336L 43.4224 20.7944L 59.8673 20.7944Z"/>
<path id="path3_fill" d="M 62.4387 20.7944L 79.9225 20.7944L 79.9225 17.4462L 67.7521 17.4462L 67.7521 11.9538L 77.9633 11.9538L 77.9633 8.60559L 67.7521 8.60559L 67.7521 3.61259L 79.9225 3.61259L 79.9225 0.264336L 62.4387 0.264336L 62.4387 20.7944Z"/>
<path id="path4_fill" d="M 82.3264 20.3245C 83.6622 20.5594 86.9571 21 89.688 21C 89.9848 21 90.3113 21 90.5785 20.9706C 93.5766 20.8531 98.4151 20.3538 98.7713 15.8014C 98.7713 15.5958 98.8009 15.3608 98.8009 15.1259C 98.8009 13.7161 98.3854 11.807 96.3669 10.5734C 95.5654 10.0741 93.0719 8.63497 90.6676 7.31329C 88.7084 6.22657 88.1444 5.75664 88.1444 4.9049C 88.1444 4.84615 88.1444 4.78741 88.1444 4.72867C 88.2038 3.99441 89.0349 3.37762 91.6174 3.37762C 94.2296 3.37762 95.3873 3.46573 98.2666 3.84755L 98.979 0.528671C 96.6043 0.176224 94.6452 0 91.6174 0C 85.651 0 83.0388 2.46713 82.8904 4.6993C 82.8607 4.9049 82.8607 5.08112 82.8607 5.28671C 82.8607 8.10629 84.5824 9.78042 87.5508 11.3958C 89.5396 12.4825 91.7955 13.628 92.6564 14.3916C 93.3688 15.0378 93.5172 15.5664 93.4875 16.0364C 93.4578 17.1231 92.6267 17.5343 90.341 17.6224C 90.1333 17.6224 89.9255 17.6224 89.688 17.6224C 87.8179 17.6224 85.5916 17.358 82.9794 17.035L 82.3264 20.3245Z"/>
<path id="path5_fill" d="M 8.01465 0L 0 20.5301L 5.40246 20.5301L 7.27255 15.7427L 15.4059 15.7427L 17.3057 20.5301L 22.7082 20.5301L 14.7232 0L 8.01465 0ZM 14.0405 12.3944L 8.63801 12.3944L 11.3689 5.05175L 14.0405 12.3944Z"/>
<path id="path6_fill" d="M 35.7171 13.8923C 41.8023 13.8923 44.5333 10.8671 44.5333 6.66713C 44.5333 2.40839 41.6242 0 35.7171 0L 25.3278 0L 25.3278 20.5301L 30.6412 20.5301L 30.6412 13.8923L 35.7171 13.8923ZM 30.6412 10.5441L 30.6412 3.34825L 35.7171 3.34825C 38.3887 3.34825 39.1605 4.08252 39.1605 6.66713C 39.1605 9.33986 38.2106 10.5441 35.7171 10.5441L 30.6412 10.5441Z"/>
<path id="path7_fill" d="M 58.9946 13.8923C 65.0798 13.8923 67.8108 10.8671 67.8108 6.66713C 67.8108 2.40839 64.9017 0 58.9946 0L 48.6053 0L 48.6053 20.5301L 53.9187 20.5301L 53.9187 13.8923L 58.9946 13.8923ZM 53.9187 10.5441L 53.9187 3.34825L 58.9946 3.34825C 61.6662 3.34825 62.438 4.08252 62.438 6.66713C 62.438 9.33986 61.4881 10.5441 58.9946 10.5441L 53.9187 10.5441Z"/>
<path id="path8_fill" d="M 4.968 11C 7.572 11 8.4 8.744 8.4 6.692C 8.4 4.64 7.572 2.612 4.968 2.612L 1.212 2.612L 1.212 11L 4.968 11ZM 2.352 10.208L 2.352 3.404L 4.968 3.404C 6.66 3.404 7.224 5.024 7.224 6.692C 7.224 8.36 6.648 10.22 4.968 10.22L 2.352 10.208ZM 10.7788 2.324L 12.4708 3.824L 13.4668 3.824L 11.9308 2.324L 10.7788 2.324ZM 10.0228 5.78C 10.9228 5.684 11.6188 5.612 12.2188 5.612C 12.9868 5.612 13.3468 5.972 13.3468 6.8L 13.3468 7.316L 11.5588 7.484C 10.0468 7.616 9.43481 8.264 9.43481 9.284C 9.43481 10.46 10.2148 11.108 11.4388 11.108C 12.7708 11.108 13.8148 10.808 14.4868 10.592L 14.4868 6.836C 14.4868 5.612 13.7668 4.892 12.2188 4.892C 11.5108 4.892 10.7668 4.976 9.89081 5.072L 10.0228 5.78ZM 13.3468 10.136C 12.9028 10.256 12.1828 10.412 11.4748 10.412C 10.9108 10.4 10.5868 9.944 10.5868 9.284C 10.5868 8.624 10.8508 8.252 11.6668 8.168L 13.3468 8.024L 13.3468 10.136ZM 15.9212 11L 17.0492 11L 17.0492 5.852C 17.4212 5.732 17.9972 5.588 18.5972 5.588C 19.7972 5.588 20.2172 6.236 20.2172 7.88L 20.2172 11L 21.3692 11L 21.3692 7.88C 21.3692 5.876 20.6372 4.892 18.5972 4.892C 17.6732 4.892 16.8812 5.072 15.9212 5.444L 15.9212 11ZM 24.0701 2.612L 22.9421 2.612L 22.9421 11L 24.0701 11L 24.0701 5.84C 24.4421 5.72 25.0181 5.576 25.6181 5.576C 26.7941 5.576 27.0461 6.212 27.0461 7.868L 27.0461 11L 28.1981 11L 28.1981 7.868C 28.1981 5.864 27.6941 4.88 25.6181 4.88C 25.0181 4.88 24.4421 5.024 24.0701 5.132L 24.0701 2.612ZM 38.6095 10.112C 38.2015 10.196 37.2295 10.412 36.7615 10.424C 35.2615 10.496 34.9855 9.836 34.9855 8.012C 34.9855 6.176 35.2615 5.516 36.7615 5.576C 37.2535 5.6 38.3935 5.792 38.6215 5.792L 38.6455 5.156C 38.3695 5.12 37.3735 4.916 36.7855 4.892C 34.4095 4.784 33.8335 5.78 33.8335 8.012C 33.8335 10.244 34.4095 11.216 36.7855 11.108C 37.3855 11.084 38.3575 10.892 38.6455 10.844L 38.6095 10.112ZM 41.0037 2.612L 39.8757 2.612L 39.8757 11L 41.0037 11L 41.0037 5.84C 41.3757 5.72 41.9517 5.576 42.5517 5.576C 43.7277 5.576 43.9797 6.212 43.9797 7.868L 43.9797 11L 45.1317 11L 45.1317 7.868C 45.1317 5.864 44.6277 4.88 42.5517 4.88C 41.9517 4.88 41.3757 5.024 41.0037 5.132L 41.0037 2.612ZM 49.2763 4.892C 47.3083 4.892 46.3843 5.708 46.3843 7.88C 46.3843 10.208 47.0203 11.108 49.2763 11.108C 51.5443 11.108 52.1203 10.064 52.1203 7.904C 52.1203 5.768 51.0763 4.892 49.2763 4.892ZM 49.2763 10.412C 47.8123 10.412 47.5123 9.788 47.5123 7.88C 47.5123 6.056 47.9923 5.6 49.2763 5.6C 50.3443 5.6 50.9923 6.176 50.9923 7.904C 50.9923 9.68 50.7403 10.412 49.2763 10.412ZM 62.4103 10.112C 62.0023 10.196 61.0303 10.412 60.5623 10.424C 59.0623 10.496 58.7863 9.836 58.7863 8.012C 58.7863 6.176 59.0623 5.516 60.5623 5.576C 61.0543 5.6 62.1943 5.792 62.4223 5.792L 62.4463 5.156C 62.1703 5.12 61.1743 4.916 60.5863 4.892C 58.2103 4.784 57.6343 5.78 57.6343 8.012C 57.6343 10.244 58.2103 11.216 60.5863 11.108C 61.1863 11.084 62.1583 10.892 62.4463 10.844L 62.4103 10.112ZM 66.1605 2.336L 64.6365 3.824L 65.6205 3.824L 67.3245 2.336L 66.1605 2.336ZM 63.9525 5.78C 64.8525 5.684 65.5485 5.612 66.1485 5.612C 66.9165 5.612 67.2765 5.972 67.2765 6.8L 67.2765 7.316L 65.4885 7.484C 63.9765 7.616 63.3645 8.264 63.3645 9.284C 63.3645 10.46 64.1445 11.108 65.3685 11.108C 66.7005 11.108 67.7445 10.808 68.4165 10.592L 68.4165 6.836C 68.4165 5.612 67.6965 4.892 66.1485 4.892C 65.4405 4.892 64.6965 4.976 63.8205 5.072L 63.9525 5.78ZM 67.2765 10.136C 66.8325 10.256 66.1125 10.412 65.4045 10.412C 64.8405 10.4 64.5165 9.944 64.5165 9.284C 64.5165 8.624 64.7805 8.252 65.5965 8.168L 67.2765 8.024L 67.2765 10.136ZM 69.8509 11L 70.9789 11L 70.9789 5.852C 71.3509 5.732 71.9269 5.588 72.5269 5.588C 73.7269 5.588 74.1469 6.236 74.1469 7.88L 74.1469 11L 75.2989 11L 75.2989 7.88C 75.2989 5.876 74.5669 4.892 72.5269 4.892C 71.6029 4.892 70.8109 5.072 69.8509 5.444L 69.8509 11ZM 81.1946 2.612L 81.1946 11C 81.9026 11.06 82.4786 11.096 83.1146 11.096C 85.8146 11.096 86.4506 10.028 86.4506 7.868C 86.4506 5.876 85.9466 4.88 83.8706 4.88C 83.2706 4.88 82.6946 5.024 82.3226 5.132L 82.3226 2.612L 81.1946 2.612ZM 82.3226 5.84C 82.6946 5.732 83.2706 5.588 83.8706 5.588C 85.0466 5.588 85.2986 6.236 85.2986 7.892C 85.2986 9.584 85.0226 10.364 83.2706 10.4C 83.2346 10.4 83.1866 10.4 83.1386 10.4C 82.8986 10.4 82.5746 10.388 82.3226 10.376L 82.3226 5.84ZM 88.3917 3.932L 89.3877 3.932L 90.4557 2.912L 91.5117 3.932L 92.5197 3.932L 90.7317 2.228L 90.1677 2.228L 88.3917 3.932ZM 90.4677 4.892C 88.4997 4.892 87.5757 5.708 87.5757 7.88C 87.5757 10.208 88.2117 11.108 90.4677 11.108C 92.7357 11.108 93.3117 10.064 93.3117 7.904C 93.3117 5.768 92.2677 4.892 90.4677 4.892ZM 90.4677 10.412C 89.0037 10.412 88.7037 9.788 88.7037 7.88C 88.7037 6.056 89.1837 5.6 90.4677 5.6C 91.5357 5.6 92.1837 6.176 92.1837 7.904C 92.1837 9.68 91.9317 10.412 90.4677 10.412ZM 90.0117 12.032L 90.0117 12.956L 90.8637 12.956L 90.8637 12.032L 90.0117 12.032ZM 104.802 2.612L 102.366 10.208L 102.042 10.208L 99.5577 2.612L 98.4057 2.612L 101.178 11L 103.242 11L 105.954 2.612L 104.802 2.612ZM 106.954 3.68L 108.082 3.68L 108.082 2.72L 106.954 2.72L 106.954 3.68ZM 106.954 11L 108.082 11L 108.082 5L 106.954 5L 106.954 11ZM 114.533 10.064C 113.993 10.184 112.805 10.412 112.169 10.412C 110.933 10.412 110.525 9.716 110.501 8.336L 114.881 8.336L 114.881 7.784C 114.881 5.756 113.909 4.892 112.085 4.892C 110.393 4.892 109.337 5.672 109.337 8C 109.337 9.884 109.913 11.096 112.145 11.108C 112.949 11.108 113.981 10.904 114.665 10.748L 114.533 10.064ZM 110.501 7.628C 110.525 6.128 111.017 5.6 112.085 5.6C 113.201 5.6 113.681 6.116 113.705 7.628L 110.501 7.628ZM 116.644 3.512L 116.644 5.012L 115.396 5.012L 115.396 5.72L 116.644 5.72L 116.644 9.08C 116.644 10.532 116.872 11.108 118.132 11.108C 118.336 11.108 118.564 11.084 119.056 10.988L 119.176 10.268C 118.816 10.388 118.564 10.424 118.408 10.424C 118.372 10.424 118.336 10.424 118.3 10.424C 117.856 10.4 117.784 10.1 117.784 9.08L 117.784 5.72L 119.164 5.72L 119.164 5.012L 117.784 5.012L 117.784 3.512L 116.644 3.512ZM 124.766 10.112C 124.358 10.196 123.386 10.412 122.918 10.424C 121.418 10.496 121.142 9.836 121.142 8.012C 121.142 6.176 121.418 5.516 122.918 5.576C 123.41 5.6 124.55 5.792 124.778 5.792L 124.802 5.156C 124.526 5.12 123.53 4.916 122.942 4.892C 120.566 4.784 119.99 5.78 119.99 8.012C 119.99 10.244 120.566 11.216 122.942 11.108C 123.542 11.084 124.514 10.892 124.802 10.844L 124.766 10.112ZM 128.624 4.892C 126.656 4.892 125.732 5.708 125.732 7.88C 125.732 10.208 126.368 11.108 128.624 11.108C 130.892 11.108 131.468 10.064 131.468 7.904C 131.468 5.768 130.424 4.892 128.624 4.892ZM 128.624 10.412C 127.16 10.412 126.86 9.788 126.86 7.88C 126.86 6.056 127.34 5.6 128.624 5.6C 129.692 5.6 130.34 6.176 130.34 7.904C 130.34 9.68 130.088 10.412 128.624 10.412ZM 132.827 11L 133.955 11L 133.955 5.84C 134.327 5.732 134.903 5.588 135.503 5.588C 136.667 5.588 136.919 6.212 136.919 7.868L 136.919 11L 138.083 11L 138.083 7.868C 138.083 7.04 137.999 6.404 137.759 5.936C 138.455 5.684 138.959 5.588 139.619 5.588C 140.783 5.588 141.035 6.212 141.035 7.868L 141.035 11L 142.187 11L 142.187 7.868C 142.187 5.876 141.683 4.88 139.619 4.88C 138.839 4.88 138.167 4.988 137.207 5.348C 136.835 5.036 136.259 4.88 135.503 4.88C 134.651 4.88 133.823 5.036 132.827 5.432L 132.827 11ZM 143.691 2.612L 143.691 11C 144.399 11.06 144.975 11.096 145.611 11.096C 148.311 11.096 148.947 10.028 148.947 7.868C 148.947 5.876 148.443 4.88 146.367 4.88C 145.767 4.88 145.191 5.024 144.819 5.132L 144.819 2.612L 143.691 2.612ZM 144.819 5.84C 145.191 5.732 145.767 5.588 146.367 5.588C 147.543 5.588 147.795 6.236 147.795 7.892C 147.795 9.584 147.519 10.364 145.767 10.4C 145.731 10.4 145.683 10.4 145.635 10.4C 145.395 10.4 145.071 10.388 144.819 10.376L 144.819 5.84ZM 150.66 5.78C 151.56 5.684 152.268 5.612 152.868 5.612C 153.624 5.612 153.996 5.972 153.996 6.8L 153.996 7.316L 152.196 7.484C 150.696 7.616 150.072 8.264 150.072 9.284C 150.072 10.46 150.852 11.108 152.088 11.108C 153.408 11.108 154.452 10.808 155.124 10.592L 155.124 6.836C 155.124 5.612 154.404 4.892 152.868 4.892C 152.16 4.892 151.416 4.976 150.528 5.072L 150.66 5.78ZM 153.996 10.136C 153.54 10.256 152.82 10.412 152.124 10.412C 151.56 10.4 151.236 9.944 151.236 9.284C 151.236 8.624 151.488 8.252 152.316 8.168L 153.996 8.024L 153.996 10.136ZM 156.617 11L 157.744 11L 157.744 5.852C 158.117 5.732 158.692 5.588 159.292 5.588C 160.492 5.588 160.913 6.236 160.913 7.88L 160.913 11L 162.065 11L 162.065 7.88C 162.065 5.876 161.333 4.892 159.292 4.892C 158.368 4.892 157.576 5.072 156.617 5.444L 156.617 11ZM 164.729 11L 164.729 8.276L 165.641 8.276L 167.837 11L 169.109 11L 166.421 7.736L 169.133 5L 167.849 5L 165.641 7.208L 164.729 7.208L 164.729 2.6L 163.601 2.6L 163.601 11L 164.729 11Z"/>
</defs>
</svg>
