<svg width="18" height="20" viewBox="0 0 18 20" version="1.1" xmlns="http://www.w3.org/2000/svg" xmlns:xlink="http://www.w3.org/1999/xlink">
<title>Vector</title>
<desc>Created using Figma</desc>
<g id="Canvas" transform="translate(-4822 1773)">
<g id="Vector">
<use xlink:href="#path0_stroke" transform="translate(4823 -1772)" fill="url(#paint0_linear)"/>
</g>
</g>
<defs>
<linearGradient id="paint0_linear" x1="0" y1="0" x2="1" y2="0" gradientUnits="userSpaceOnUse" gradientTransform="matrix(22.8075 -2.69221e-07 -1.6556e-07 20.8225 -3.35404 -2.10355)">
<stop offset="0" stop-color="#227E1D" stop-opacity="0.993122"/>
<stop offset="0.98895" stop-color="#8CC540"/>
</linearGradient>
<path id="path0_stroke" d="M 13.5357 13.9258C 13.1973 13.4893 12.5692 13.4097 12.1327 13.7481C 11.6962 14.0865 11.6166 14.7146 11.955 15.1511L 13.5357 13.9258ZM 14.6382 18.6126C 14.9766 19.0491 15.6047 19.1287 16.0412 18.7904C 16.4777 18.452 16.5573 17.8239 16.2189 17.3874L 14.6382 18.6126ZM 13.7578 7.61538C 13.7578 11.2989 10.8723 14.2308 7.37888 14.2308L 7.37888 16.2308C 12.0359 16.2308 15.7578 12.3436 15.7578 7.61538L 13.7578 7.61538ZM 7.37888 14.2308C 3.88543 14.2308 1 11.2989 1 7.61538L -1 7.61538C -1 12.3436 2.72185 16.2308 7.37888 16.2308L 7.37888 14.2308ZM 1 7.61538C 1 3.93184 3.88543 1 7.37888 1L 7.37888 -1C 2.72185 -1 -1 2.88721 -1 7.61538L 1 7.61538ZM 7.37888 1C 10.8723 1 13.7578 3.93184 13.7578 7.61538L 15.7578 7.61538C 15.7578 2.88721 12.0359 -1 7.37888 -1L 7.37888 1ZM 11.955 15.1511L 14.6382 18.6126L 16.2189 17.3874L 13.5357 13.9258L 11.955 15.1511Z"/>
</defs>
</svg>
