<svg width="21" height="20" viewBox="0 0 21 20" version="1.1" xmlns="http://www.w3.org/2000/svg" xmlns:xlink="http://www.w3.org/1999/xlink">
<title>Vector</title>
<desc>Created using Figma</desc>
<g id="Canvas" transform="translate(-8548 3703)">
<g id="Vector">
<use xlink:href="#path0_fill" transform="translate(8547.6 -3703.61)" fill="#31AE27"/>
</g>
</g>
<defs>
<path id="path0_fill" d="M 11.3265 17.3295C 11.036 17.1774 10.6894 17.1774 10.3989 17.3295L 5.93958 19.6642C 5.20459 20.049 4.34768 19.4231 4.49073 18.6059L 5.35281 13.681C 5.40993 13.3547 5.30175 13.0213 5.06393 12.7906L 1.45832 9.29438C 0.862627 8.71675 1.18899 7.70677 2.01005 7.58695L 6.99462 6.85954C 7.32008 6.81204 7.60137 6.60755 7.74694 6.31262L 9.96598 1.81678C 10.3328 1.07358 11.3926 1.07358 11.7594 1.81678L 13.9785 6.31262C 14.124 6.60755 14.4053 6.81204 14.7308 6.85954L 19.7153 7.58695C 20.5364 7.70677 20.8628 8.71675 20.2671 9.29438L 16.6615 12.7906C 16.4236 13.0213 16.3155 13.3547 16.3726 13.681L 17.2347 18.6059C 17.3777 19.4231 16.5208 20.049 15.7858 19.6642L 11.3265 17.3295Z"/>
</defs>
</svg>
