<?xml version="1.0" encoding="utf-8"?>
<!-- Generator: Adobe Illustrator 19.1.0, SVG Export Plug-In . SVG Version: 6.00 Build 0)  -->
<svg version="1.1" id="Layer_1" xmlns="http://www.w3.org/2000/svg" xmlns:xlink="http://www.w3.org/1999/xlink" x="0px" y="0px"
	 viewBox="0 0 20 20" style="enable-background:new 0 0 20 20;" xml:space="preserve">
<style type="text/css">
	.st0{filter:url(#Adobe_OpacityMaskFilter);}
	.st1{fill:#FFFFFF;}
	.st2{mask:url(#mask0_outline_ins_1_);}
	.st3{fill:#31AE27;}
</style>
<g id="Canvas" transform="translate(-9261 3737)">
	<g id="Vector">
		<defs>
			<filter id="Adobe_OpacityMaskFilter" filterUnits="userSpaceOnUse" x="9261.612" y="-3736.354" width="18.776" height="18.708">
				<feColorMatrix  type="matrix" values="1 0 0 0 0  0 1 0 0 0  0 0 1 0 0  0 0 0 1 0"/>
			</filter>
		</defs>
		<mask maskUnits="userSpaceOnUse" x="9261.612" y="-3736.354" width="18.776" height="18.708" id="mask0_outline_ins_1_">
			<g transform="translate(9260 -3738)" class="st0">
				<path id="path0_fill_1_" class="st1" d="M9271.415-3721.042c-0.258-0.143-0.572-0.143-0.83,0l-3.614,1.995
					c-0.629,0.347-1.381-0.185-1.263-0.893l0.721-4.34c0.045-0.27-0.042-0.546-0.233-0.742l-3.048-3.115
					c-0.488-0.5-0.207-1.344,0.484-1.45l4.134-0.636c0.283-0.043,0.526-0.225,0.648-0.485l1.808-3.863c0.31-0.66,1.247-0.66,1.557,0
					l1.808,3.863c0.122,0.26,0.365,0.441,0.647,0.485l4.135,0.636c0.691,0.106,0.973,0.95,0.484,1.45l-3.048,3.115
					c-0.191,0.196-0.278,0.471-0.233,0.742l0.721,4.34c0.118,0.708-0.634,1.24-1.263,0.893L9271.415-3721.042z"/>
			</g>
		</mask>
		<g class="st2">
			<g transform="translate(9260 -3738)">
				<path id="path1_stroke_2x" class="st3" d="M9270.585-3721.042l-0.623-1.128L9270.585-3721.042z M9266.971-3719.047l-0.623-1.128
					L9266.971-3719.047z M9266.429-3724.28l1.271,0.211L9266.429-3724.28z M9263.147-3728.137l-0.921,0.901L9263.147-3728.137z
					 M9267.766-3730.223l-0.195-1.274L9267.766-3730.223z M9273.586-3730.708l1.168-0.546L9273.586-3730.708z M9278.368-3729.587
					l-0.195,1.274L9278.368-3729.587z M9275.805-3725.021l0.922,0.901L9275.805-3725.021z M9276.292-3719.94l-1.271,0.211
					L9276.292-3719.94z M9271.415-3721.042l0.623-1.128L9271.415-3721.042z M9265.708-3719.94l-1.271-0.211L9265.708-3719.94z
					 M9266.195-3725.021l-0.922,0.901L9266.195-3725.021z M9263.632-3729.587l-0.196-1.274L9263.632-3729.587z M9268.414-3730.708
					l1.167,0.546L9268.414-3730.708z M9271.778-3734.57l-1.167,0.546L9271.778-3734.57z M9275.029-3719.047l0.623-1.128
					L9275.029-3719.047z M9269.962-3722.17l-3.614,1.995l1.246,2.257l3.614-1.995L9269.962-3722.17z M9266.979-3719.729l0.721-4.34
					l-2.543-0.422l-0.721,4.34L9266.979-3719.729z M9267.116-3725.923l-3.047-3.115l-1.843,1.802l3.047,3.115L9267.116-3725.923z
					 M9263.827-3728.313l4.135-0.636l-0.392-2.548l-4.135,0.636L9263.827-3728.313z M9269.581-3730.161l1.808-3.863l-2.334-1.093
					l-1.809,3.863L9269.581-3730.161z M9270.611-3734.024l1.808,3.863l2.335-1.093l-1.809-3.863L9270.611-3734.024z
					 M9274.038-3728.949l4.135,0.636l0.392-2.548l-4.135-0.636L9274.038-3728.949z M9277.931-3729.038l-3.047,3.115l1.843,1.802
					l3.047-3.115L9277.931-3729.038z M9274.3-3724.069l0.721,4.34l2.543-0.422l-0.721-4.34L9274.3-3724.069z M9275.652-3720.175
					l-3.614-1.995l-1.246,2.257l3.614,1.995L9275.652-3720.175z M9271.208-3719.913c-0.13,0.071-0.286,0.071-0.416,0l1.246-2.257
					c-0.646-0.357-1.43-0.357-2.076,0L9271.208-3719.913z M9266.348-3720.175c0.314-0.174,0.69,0.092,0.632,0.447l-2.543-0.422
					c-0.294,1.771,1.585,3.1,3.157,2.232L9266.348-3720.175z M9267.7-3724.069c0.111-0.676-0.104-1.364-0.584-1.854l-1.843,1.802
					c-0.096-0.098-0.139-0.236-0.116-0.371L9267.7-3724.069z M9264.069-3729.038c0.244,0.25,0.104,0.672-0.242,0.725l-0.392-2.548
					c-1.729,0.266-2.432,2.375-1.209,3.625L9264.069-3729.038z M9267.962-3728.949c0.708-0.109,1.315-0.563,1.619-1.212
					l-2.335-1.093c0.061-0.13,0.183-0.221,0.324-0.242L9267.962-3728.949z M9271.389-3734.024c-0.154,0.33-0.623,0.33-0.777,0
					l2.334-1.093c-0.772-1.65-3.118-1.65-3.891,0L9271.389-3734.024z M9272.419-3730.161c0.304,0.649,0.911,1.104,1.619,1.212
					l0.392-2.548c0.142,0.022,0.264,0.113,0.324,0.242L9272.419-3730.161z M9278.173-3728.313c-0.346-0.053-0.486-0.475-0.242-0.725
					l1.843,1.802c1.223-1.25,0.52-3.359-1.209-3.625L9278.173-3728.313z M9274.884-3725.923c-0.479,0.49-0.696,1.178-0.584,1.854
					l2.543-0.422c0.022,0.135-0.021,0.273-0.116,0.371L9274.884-3725.923z M9275.021-3719.729c-0.059-0.354,0.317-0.62,0.632-0.447
					l-1.246,2.257c1.572,0.868,3.451-0.461,3.157-2.232L9275.021-3719.729z"/>
			</g>
		</g>
	</g>
</g>
</svg>
