<svg width="22" height="22" viewBox="0 0 22 22" version="1.1" xmlns="http://www.w3.org/2000/svg" xmlns:xlink="http://www.w3.org/1999/xlink">
<title>Frame 2</title>
<desc>Created using Figma</desc>
<g id="Canvas" transform="translate(-9267 3948)">
<clipPath id="clip-0" clip-rule="evenodd">
<path d="M 9267 -3948L 9289 -3948L 9289 -3926L 9267 -3926L 9267 -3948Z" fill="#FFFFFF"/>
</clipPath>
<g id="Frame 2" clip-path="url(#clip-0)">
<g id="Group">
<g id="notifications">
<g id="Vector">
<mask id="mask0_outline_ins">
<use xlink:href="#path0_fill" fill="white" transform="translate(9270 -3947)"/>
</mask>
<g mask="url(#mask0_outline_ins)">
<use xlink:href="#path1_stroke_2x" transform="translate(9270 -3947)" fill="#31AE27"/>
</g>
</g>
</g>
</g>
</g>
</g>
<defs>
<path id="path0_fill" d="M 8.5 20C 9.6 20 10.5 19.1 10.5 18L 6.5 18C 6.5 19.1 7.4 20 8.5 20ZM 15 14L 15 8.5C 15 5.4 12.9 2.9 10 2.2L 10 1.5C 10 0.7 9.3 0 8.5 0C 7.7 0 7 0.7 7 1.5L 7 2.2C 4.1 2.9 2 5.4 2 8.5L 2 14L 0 16L 0 17L 17 17L 17 16L 15 14Z"/>
<path id="path1_stroke_2x" d="M 10.5 18L 11.9 18L 11.9 16.6L 10.5 16.6L 10.5 18ZM 6.5 18L 6.5 16.6L 5.1 16.6L 5.1 18L 6.5 18ZM 15 14L 13.6 14L 13.6 14.5799L 14.0101 14.9899L 15 14ZM 10 2.2L 8.6 2.2L 8.6 3.30228L 9.6715 3.56092L 10 2.2ZM 7 2.2L 7.3285 3.56092L 8.4 3.30228L 8.4 2.2L 7 2.2ZM 2 14L 2.98995 14.9899L 3.4 14.5799L 3.4 14L 2 14ZM 0 16L -0.989949 15.0101L -1.4 15.4201L -1.4 16L 0 16ZM 0 17L -1.4 17L -1.4 18.4L 0 18.4L 0 17ZM 17 17L 17 18.4L 18.4 18.4L 18.4 17L 17 17ZM 17 16L 18.4 16L 18.4 15.4201L 17.9899 15.0101L 17 16ZM 8.5 21.4C 10.3732 21.4 11.9 19.8732 11.9 18L 9.1 18C 9.1 18.3268 8.8268 18.6 8.5 18.6L 8.5 21.4ZM 10.5 16.6L 6.5 16.6L 6.5 19.4L 10.5 19.4L 10.5 16.6ZM 5.1 18C 5.1 19.8732 6.6268 21.4 8.5 21.4L 8.5 18.6C 8.1732 18.6 7.9 18.3268 7.9 18L 5.1 18ZM 16.4 14L 16.4 8.5L 13.6 8.5L 13.6 14L 16.4 14ZM 16.4 8.5C 16.4 4.72526 13.8294 1.68413 10.3285 0.839085L 9.6715 3.56092C 11.9706 4.11587 13.6 6.07474 13.6 8.5L 16.4 8.5ZM 11.4 2.2L 11.4 1.5L 8.6 1.5L 8.6 2.2L 11.4 2.2ZM 11.4 1.5C 11.4 -0.0731986 10.0732 -1.4 8.5 -1.4L 8.5 1.4C 8.49444 1.4 8.49739 1.39865 8.50955 1.40398C 8.5228 1.40979 8.54144 1.42134 8.56005 1.43995C 8.57866 1.45856 8.59021 1.4772 8.59602 1.49045C 8.60135 1.50261 8.6 1.50556 8.6 1.5L 11.4 1.5ZM 8.5 -1.4C 6.9268 -1.4 5.6 -0.0731986 5.6 1.5L 8.4 1.5C 8.4 1.50556 8.39865 1.50261 8.40398 1.49045C 8.40979 1.4772 8.42134 1.45856 8.43995 1.43995C 8.45856 1.42134 8.4772 1.40979 8.49045 1.40398C 8.50261 1.39865 8.50556 1.4 8.5 1.4L 8.5 -1.4ZM 5.6 1.5L 5.6 2.2L 8.4 2.2L 8.4 1.5L 5.6 1.5ZM 6.6715 0.839085C 3.17061 1.68413 0.6 4.72526 0.6 8.5L 3.4 8.5C 3.4 6.07474 5.02939 4.11587 7.3285 3.56092L 6.6715 0.839085ZM 0.6 8.5L 0.6 14L 3.4 14L 3.4 8.5L 0.6 8.5ZM 1.01005 13.0101L -0.989949 15.0101L 0.989949 16.9899L 2.98995 14.9899L 1.01005 13.0101ZM -1.4 16L -1.4 17L 1.4 17L 1.4 16L -1.4 16ZM 0 18.4L 17 18.4L 17 15.6L 0 15.6L 0 18.4ZM 18.4 17L 18.4 16L 15.6 16L 15.6 17L 18.4 17ZM 17.9899 15.0101L 15.9899 13.0101L 14.0101 14.9899L 16.0101 16.9899L 17.9899 15.0101Z"/>
</defs>
</svg>
