<svg width="22" height="22" viewBox="0 0 22 22" version="1.1" xmlns="http://www.w3.org/2000/svg" xmlns:xlink="http://www.w3.org/1999/xlink">
<title>Frame 2.3</title>
<desc>Created using Figma</desc>
<g id="Canvas" transform="translate(-9387 3948)">
<clipPath id="clip-0" clip-rule="evenodd">
<path d="M 9387 -3948L 9409 -3948L 9409 -3926L 9387 -3926L 9387 -3948Z" fill="#FFFFFF"/>
</clipPath>
<g id="Frame 2.3" clip-path="url(#clip-0)">
<g id="unlocked">
<g id="Group">
<g id="Group">
<g id="Vector">
<use xlink:href="#path0_fill" transform="translate(9390 -3947)" fill="#31AE27"/>
</g>
<g id="Vector">
<use xlink:href="#path1_fill" transform="translate(9396.19 -3935.96)" fill="#31AE27"/>
</g>
</g>
</g>
</g>
</g>
</g>
<defs>
<path id="path0_fill" d="M 2.96296 19.8519L 13.037 19.8519C 14.6708 19.8519 16 18.4874 16 16.8536L 16 10.3351C 16 8.70133 14.6708 7.37215 13.037 7.37215L 13.037 4.9523C 13.037 2.15556 10.8895 0 8.14815 0L 8.04919 0C 5.24444 0 2.96296 2.21985 2.96296 4.97007C 2.96296 5.29719 3.22844 5.55378 3.55556 5.55378C 3.88267 5.55378 4.14815 5.30163 4.14815 4.97452C 4.14815 2.91319 5.93452 1.18519 8.04919 1.18519L 8.14815 1.18519C 10.2252 1.18519 11.8519 2.82015 11.8519 4.9523L 11.8519 7.40741L 2.96296 7.40741C 1.32919 7.40741 0 8.70133 0 10.3351L 0 16.8536C 0 18.4874 1.32919 19.8519 2.96296 19.8519ZM 14.8148 16.8889C 14.8148 17.8705 14.0187 18.6667 13.037 18.6667L 2.96296 18.6667C 1.98133 18.6667 1.18519 17.8705 1.18519 16.8889L 1.18519 10.3704C 1.18519 9.38874 1.98133 8.59259 2.96296 8.59259L 13.037 8.59259C 14.0187 8.59259 14.8148 9.38874 14.8148 10.3704L 14.8148 16.8889Z"/>
<path id="path1_fill" d="M 0.925926 3.39615L 0.925926 4.66667C 0.925926 5.13719 1.30726 5.55378 1.77778 5.55378L 1.85185 5.55378C 2.32237 5.55378 2.7037 5.13719 2.7037 4.66667L 2.7037 3.39615C 3.256 3.08504 3.62963 2.49393 3.62963 1.81481C 3.62963 0.812445 2.81719 1.53718e-07 1.81481 1.53718e-07C 0.812444 1.53718e-07 0 0.812445 0 1.81481C 0 2.49393 0.37363 3.08504 0.925926 3.39615Z"/>
</defs>
</svg>
