<svg width="22" height="22" viewBox="0 0 22 22" version="1.1" xmlns="http://www.w3.org/2000/svg" xmlns:xlink="http://www.w3.org/1999/xlink">
<title>Frame 2.1</title>
<desc>Created using Figma</desc>
<g id="Canvas" transform="translate(-9307 3948)">
<clipPath id="clip-0" clip-rule="evenodd">
<path d="M 9307 -3948L 9329 -3948L 9329 -3926L 9307 -3926L 9307 -3948Z" fill="#FFFFFF"/>
</clipPath>
<g id="Frame 2.1" clip-path="url(#clip-0)">
<g id="email-envelope-outline-shape-with-rounded-corners 2.1">
<g id="Group">
<g id="Vector">
<use xlink:href="#path0_fill" transform="translate(9309 -3943)" fill="#31AE27"/>
</g>
</g>
</g>
</g>
</g>
<defs>
<path id="path0_fill" d="M 15.75 0L 2.25 0C 1.00744 0 0 0.970125 0 2.16667L 0 10.8333C 0 12.0299 1.00744 13 2.25 13L 15.75 13C 16.9926 13 18 12.0299 18 10.8333L 18 2.16667C 18 0.970125 16.9926 0 15.75 0ZM 12.0465 5.78165L 16.8091 1.85138C 16.8421 1.95295 16.875 2.05451 16.875 2.16667L 16.875 10.8333C 16.875 10.9085 16.8453 10.9751 16.83 11.046L 12.0465 5.78165ZM 15.75 1.08333C 15.8247 1.08333 15.8906 1.11086 15.9609 1.1246L 9 6.8703L 2.03906 1.1246C 2.10938 1.11086 2.17529 1.08333 2.25 1.08333L 15.75 1.08333ZM 1.16951 11.0449C 1.15411 10.974 1.125 10.9085 1.125 10.8333L 1.125 2.16667C 1.125 2.05451 1.1585 1.95295 1.19148 1.85138L 5.95241 5.7806L 1.16951 11.0449ZM 2.25 11.9167C 2.1363 11.9167 2.03302 11.8849 1.9292 11.8542L 6.80713 6.48622L 8.63416 7.99378C 8.73907 8.08163 8.86982 8.125 9 8.125C 9.13018 8.125 9.26093 8.08163 9.36584 7.99381L 11.1929 6.48626L 16.0708 11.8543C 15.9675 11.8849 15.8643 11.9167 15.75 11.9167L 2.25 11.9167Z"/>
</defs>
</svg>
