<svg width="22" height="22" viewBox="0 0 22 22" version="1.1" xmlns="http://www.w3.org/2000/svg" xmlns:xlink="http://www.w3.org/1999/xlink">
<title>Frame 2.2</title>
<desc>Created using Figma</desc>
<g id="Canvas" transform="translate(-9347 3948)">
<clipPath id="clip-0" clip-rule="evenodd">
<path d="M 9347 -3948L 9369 -3948L 9369 -3926L 9347 -3926L 9347 -3948Z" fill="#FFFFFF"/>
</clipPath>
<g id="Frame 2.2" clip-path="url(#clip-0)">
<g id="history">
<g id="Group">
<g id="Group">
<g id="Group">
<g id="Vector">
<use xlink:href="#path0_fill" transform="translate(9357.95 -3940.48)" fill="#30A926"/>
<use xlink:href="#path1_stroke" transform="translate(9357.95 -3940.48)" fill="#FFFFFF"/>
</g>
<g id="Vector">
<use xlink:href="#path2_fill" transform="translate(9348 -3945)" fill="#30A926"/>
<use xlink:href="#path3_stroke" transform="translate(9348 -3945)" fill="#FFFFFF"/>
</g>
</g>
</g>
</g>
</g>
</g>
</g>
<defs>
<path id="path0_fill" d="M 3.15802e-07 3.15802e-07L 3.15802e-07 4.52378L 3.87235 6.82189L 4.52378 5.72261L 1.35714 3.84521L 1.35714 3.15802e-07L 3.15802e-07 3.15802e-07Z"/>
<path id="path1_stroke" d="M 3.15802e-07 3.15802e-07L 3.15802e-07 -0.15L -0.15 -0.15L -0.15 3.15802e-07L 3.15802e-07 3.15802e-07ZM 3.15802e-07 4.52378L -0.15 4.52378L -0.15 4.60919L -0.0765534 4.65278L 3.15802e-07 4.52378ZM 3.87235 6.82189L 3.7958 6.95088L 3.92488 7.02749L 4.0014 6.89836L 3.87235 6.82189ZM 4.52378 5.72261L 4.65283 5.79908L 4.72928 5.67006L 4.60028 5.59358L 4.52378 5.72261ZM 1.35714 3.84521L 1.20714 3.84521L 1.20714 3.93066L 1.28065 3.97424L 1.35714 3.84521ZM 1.35714 3.15802e-07L 1.50714 3.15802e-07L 1.50714 -0.15L 1.35714 -0.15L 1.35714 3.15802e-07ZM -0.15 3.15802e-07L -0.15 4.52378L 0.15 4.52378L 0.15 3.15802e-07L -0.15 3.15802e-07ZM -0.0765534 4.65278L 3.7958 6.95088L 3.94891 6.6929L 0.076554 4.39479L -0.0765534 4.65278ZM 4.0014 6.89836L 4.65283 5.79908L 4.39474 5.64613L 3.74331 6.74542L 4.0014 6.89836ZM 4.60028 5.59358L 1.43364 3.71618L 1.28065 3.97424L 4.44729 5.85163L 4.60028 5.59358ZM 1.50714 3.84521L 1.50714 3.15802e-07L 1.20714 3.15802e-07L 1.20714 3.84521L 1.50714 3.84521ZM 1.35714 -0.15L 3.15802e-07 -0.15L 3.15802e-07 0.15L 1.35714 0.15L 1.35714 -0.15Z"/>
<path id="path2_fill" d="M 10.8526 0C 6.35143 0 2.71429 3.64618 2.71429 8.14286L 0 8.14286L 3.52403 11.6669L 3.58735 11.7981L 7.23811 8.14286L 4.52382 8.14286C 4.52382 4.64597 7.36025 1.80954 10.8571 1.80954C 14.354 1.80954 17.1905 4.64597 17.1905 8.14286C 17.1905 11.6397 14.354 14.4762 10.8571 14.4762C 9.10643 14.4762 7.52761 13.7614 6.38311 12.6169L 5.10286 13.8971C 6.57311 15.3719 8.60429 16.2857 10.8526 16.2857C 15.3538 16.2857 19 12.6395 19 8.14286C 19 3.64618 15.3538 0 10.8526 0Z"/>
<path id="path3_stroke" d="M 2.71429 8.14286L 2.71429 8.29286L 2.86429 8.29286L 2.86429 8.14286L 2.71429 8.14286ZM 0 8.14286L 0 7.99286L -0.362132 7.99286L -0.106066 8.24892L 0 8.14286ZM 3.52403 11.6669L 3.65912 11.6017L 3.64807 11.5788L 3.6301 11.5608L 3.52403 11.6669ZM 3.58735 11.7981L 3.45227 11.8633L 3.54414 12.0536L 3.69348 11.9041L 3.58735 11.7981ZM 7.23811 8.14286L 7.34424 8.24886L 7.59993 7.99286L 7.23811 7.99286L 7.23811 8.14286ZM 4.52382 8.14286L 4.37382 8.14286L 4.37382 8.29286L 4.52382 8.29286L 4.52382 8.14286ZM 6.38311 12.6169L 6.48918 12.5108L 6.38311 12.4048L 6.27704 12.5108L 6.38311 12.6169ZM 5.10286 13.8971L 4.99679 13.7911L 4.89089 13.897L 4.99663 14.003L 5.10286 13.8971ZM 10.8526 -0.15C 6.26842 -0.15 2.56429 3.5635 2.56429 8.14286L 2.86429 8.14286C 2.86429 3.72886 6.43443 0.15 10.8526 0.15L 10.8526 -0.15ZM 2.71429 7.99286L 0 7.99286L 0 8.29286L 2.71429 8.29286L 2.71429 7.99286ZM -0.106066 8.24892L 3.41797 11.773L 3.6301 11.5608L 0.106066 8.03679L -0.106066 8.24892ZM 3.38895 11.7321L 3.45227 11.8633L 3.72244 11.7329L 3.65912 11.6017L 3.38895 11.7321ZM 3.69348 11.9041L 7.34424 8.24886L 7.13198 8.03686L 3.48122 11.6921L 3.69348 11.9041ZM 7.23811 7.99286L 4.52382 7.99286L 4.52382 8.29286L 7.23811 8.29286L 7.23811 7.99286ZM 4.67382 8.14286C 4.67382 4.72881 7.44309 1.95954 10.8571 1.95954L 10.8571 1.65954C 7.27741 1.65954 4.37382 4.56312 4.37382 8.14286L 4.67382 8.14286ZM 10.8571 1.95954C 14.2712 1.95954 17.0405 4.72881 17.0405 8.14286L 17.3405 8.14286C 17.3405 4.56312 14.4369 1.65954 10.8571 1.65954L 10.8571 1.95954ZM 17.0405 8.14286C 17.0405 11.5569 14.2712 14.3262 10.8571 14.3262L 10.8571 14.6262C 14.4369 14.6262 17.3405 11.7226 17.3405 8.14286L 17.0405 8.14286ZM 10.8571 14.3262C 9.14822 14.3262 7.60699 13.6287 6.48918 12.5108L 6.27704 12.723C 7.44822 13.8942 9.06464 14.6262 10.8571 14.6262L 10.8571 14.3262ZM 6.27704 12.5108L 4.99679 13.7911L 5.20892 14.0032L 6.48918 12.723L 6.27704 12.5108ZM 4.99663 14.003C 6.4938 15.5048 8.56273 16.4357 10.8526 16.4357L 10.8526 16.1357C 8.64585 16.1357 6.65242 15.239 5.20908 13.7912L 4.99663 14.003ZM 10.8526 16.4357C 15.4366 16.4357 19.15 12.7224 19.15 8.14286L 18.85 8.14286C 18.85 12.5566 15.271 16.1357 10.8526 16.1357L 10.8526 16.4357ZM 19.15 8.14286C 19.15 3.56328 15.4366 -0.15 10.8526 -0.15L 10.8526 0.15C 15.271 0.15 18.85 3.72907 18.85 8.14286L 19.15 8.14286Z"/>
</defs>
</svg>
