<svg width="22" height="22" viewBox="0 0 22 22" version="1.1" xmlns="http://www.w3.org/2000/svg" xmlns:xlink="http://www.w3.org/1999/xlink">
<title>Frame</title>
<desc>Created using Figma</desc>
<g id="Canvas" transform="translate(-8869 4595)">
<clipPath id="clip-0" clip-rule="evenodd">
<path d="M 8869 -4595L 8891 -4595L 8891 -4573L 8869 -4573L 8869 -4595Z" fill="#FFFFFF"/>
</clipPath>
<g id="Frame" clip-path="url(#clip-0)">
<g id="Vector">
<mask id="mask0_outline_ins">
<use xlink:href="#path0_fill" fill="white" transform="translate(8869.5 -4594.5)"/>
</mask>
<g mask="url(#mask0_outline_ins)">
<use xlink:href="#path1_stroke_2x" transform="translate(8869.5 -4594.5)" fill="#31AE27"/>
</g>
</g>
</g>
</g>
<defs>
<path id="path0_fill" d="M 10.9833 17.6801C 10.6825 17.5141 10.3175 17.5141 10.0167 17.6801L 5.81034 20.002C 5.07863 20.4059 4.2037 19.7872 4.34059 18.9627L 5.17927 13.9113C 5.23149 13.5968 5.1306 13.2762 4.90765 13.0483L 1.36118 9.42253C 0.791966 8.8406 1.11942 7.85871 1.92398 7.73491L 6.73616 6.99451C 7.06575 6.9438 7.34837 6.73213 7.48976 6.43012L 9.59433 1.93458C 9.95388 1.16656 11.0461 1.16656 11.4057 1.93458L 13.5102 6.43012C 13.6516 6.73213 13.9343 6.9438 14.2638 6.99451L 19.076 7.73491C 19.8806 7.85871 20.208 8.8406 19.6388 9.42253L 16.0923 13.0483C 15.8694 13.2762 15.7685 13.5968 15.8207 13.9113L 16.6594 18.9627C 16.7963 19.7872 15.9214 20.4059 15.1897 20.002L 10.9833 17.6801Z"/>
<path id="path1_stroke_2x" d="M 10.0167 17.6801L 9.29186 16.3669L 10.0167 17.6801ZM 6.73616 6.99451L 6.50805 5.51195L 6.73616 6.99451ZM 9.59433 1.93458L 8.23583 1.2986L 9.59433 1.93458ZM 13.5102 6.43012L 12.1517 7.0661L 13.5102 6.43012ZM 16.0923 13.0483L 17.1647 14.0971L 16.0923 13.0483ZM 10.9833 17.6801L 10.2584 18.9933L 10.9833 17.6801ZM 4.34059 18.9627L 2.86085 18.7171L 4.34059 18.9627ZM 4.90765 13.0483L 3.83534 14.0971L 4.90765 13.0483ZM 1.92398 7.73491L 1.69587 6.25236L 1.92398 7.73491ZM 14.2638 6.99451L 14.4919 5.51195L 14.2638 6.99451ZM 15.8207 13.9113L 14.341 14.157L 15.8207 13.9113ZM 15.1897 20.002L 15.9145 18.6888L 15.1897 20.002ZM 9.29186 16.3669L 5.08546 18.6888L 6.53523 21.3152L 10.7416 18.9933L 9.29186 16.3669ZM 5.82034 19.2084L 6.65902 14.157L 3.69953 13.6656L 2.86085 18.7171L 5.82034 19.2084ZM 5.97997 11.9994L 2.43349 8.37366L 0.288861 10.4714L 3.83534 14.0971L 5.97997 11.9994ZM 2.15209 9.21747L 6.96427 8.47706L 6.50805 5.51195L 1.69587 6.25236L 2.15209 9.21747ZM 8.84826 7.0661L 10.9528 2.57056L 8.23583 1.2986L 6.13125 5.79415L 8.84826 7.0661ZM 10.0472 2.57056L 12.1517 7.0661L 14.8687 5.79415L 12.7642 1.2986L 10.0472 2.57056ZM 14.0357 8.47706L 18.8479 9.21747L 19.3041 6.25236L 14.4919 5.51195L 14.0357 8.47706ZM 18.5665 8.37366L 15.02 11.9994L 17.1647 14.0971L 20.7111 10.4714L 18.5665 8.37366ZM 14.341 14.157L 15.1797 19.2084L 18.1392 18.7171L 17.3005 13.6656L 14.341 14.157ZM 15.9145 18.6888L 11.7081 16.3669L 10.2584 18.9933L 14.4648 21.3152L 15.9145 18.6888ZM 10.7416 18.9933C 10.5912 19.0764 10.4088 19.0764 10.2584 18.9933L 11.7081 16.3669C 10.9562 15.9518 10.0438 15.9518 9.29186 16.3669L 10.7416 18.9933ZM 5.08546 18.6888C 5.45132 18.4868 5.88878 18.7962 5.82034 19.2084L 2.86085 18.7171C 2.51862 20.7783 4.70594 22.325 6.53523 21.3152L 5.08546 18.6888ZM 6.65902 14.157C 6.78957 13.3707 6.53733 12.5692 5.97997 11.9994L 3.83534 14.0971C 3.72386 13.9832 3.67342 13.8229 3.69953 13.6656L 6.65902 14.157ZM 2.43349 8.37366C 2.7181 8.66462 2.55437 9.15557 2.15209 9.21747L 1.69587 6.25236C -0.31553 6.56184 -1.13416 9.01658 0.288861 10.4714L 2.43349 8.37366ZM 6.96427 8.47706C 7.78824 8.35029 8.4948 7.82113 8.84826 7.0661L 6.13125 5.79415C 6.20195 5.64314 6.34326 5.53731 6.50805 5.51195L 6.96427 8.47706ZM 10.9528 2.57056C 10.7731 2.95457 10.2269 2.95457 10.0472 2.57056L 12.7642 1.2986C 11.8653 -0.621443 9.13469 -0.621443 8.23583 1.2986L 10.9528 2.57056ZM 12.1517 7.0661C 12.5052 7.82113 13.2118 8.35029 14.0357 8.47706L 14.4919 5.51195C 14.6567 5.53731 14.7981 5.64314 14.8687 5.79415L 12.1517 7.0661ZM 18.8479 9.21747C 18.4456 9.15557 18.2819 8.66462 18.5665 8.37366L 20.7111 10.4714C 22.1342 9.01658 21.3155 6.56184 19.3041 6.25236L 18.8479 9.21747ZM 15.02 11.9994C 14.4627 12.5692 14.2104 13.3707 14.341 14.157L 17.3005 13.6656C 17.3266 13.8229 17.2761 13.9832 17.1647 14.0971L 15.02 11.9994ZM 15.1797 19.2084C 15.1112 18.7962 15.5487 18.4868 15.9145 18.6888L 14.4648 21.3152C 16.2941 22.325 18.4814 20.7783 18.1392 18.7171L 15.1797 19.2084Z"/>
</defs>
</svg>
