<svg width="22" height="22" viewBox="0 0 22 22" version="1.1" xmlns="http://www.w3.org/2000/svg" xmlns:xlink="http://www.w3.org/1999/xlink">
<title>Frame 2.4</title>
<desc>Created using Figma</desc>
<g id="Canvas" transform="translate(-9432 3948)">
<clipPath id="clip-0" clip-rule="evenodd">
<path d="M 9432 -3948L 9454 -3948L 9454 -3926L 9432 -3926L 9432 -3948Z" fill="#FFFFFF"/>
</clipPath>
<g id="Frame 2.4" clip-path="url(#clip-0)">
<g id="logout">
<g id="Group">
<g id="Group">
<g id="Vector">
<use xlink:href="#path0_fill" transform="translate(9439.25 -3938.67)" fill="#31AE27"/>
<use xlink:href="#path1_stroke" transform="translate(9439.25 -3938.67)" fill="#31AE27"/>
</g>
</g>
</g>
<g id="Group">
<g id="Group">
<g id="Vector">
<use xlink:href="#path2_fill" transform="translate(9434 -3945)" fill="#31AE27"/>
<use xlink:href="#path3_stroke" transform="translate(9434 -3945)" fill="#31AE27"/>
</g>
</g>
</g>
</g>
</g>
</g>
<defs>
<path id="path0_fill" d="M 12.5321 1.45479L 10.6062 0.0969816C 10.2572 -0.149007 9.77489 0.101481 9.77489 0.527998L 9.77489 1.35846L 0.527379 1.35846C 0.236145 1.35846 2.57492e-07 1.59457 2.57492e-07 1.88584C 2.57492e-07 2.17711 0.236145 2.41318 0.527379 2.41318L 9.77482 2.41318L 9.77482 3.24361C 9.77482 3.67294 10.2597 3.91875 10.6061 3.67463L 12.532 2.31682C 12.8261 2.10961 12.8321 1.66671 12.5321 1.45479Z"/>
<path id="path1_stroke" d="M 12.5321 1.45479L 12.6475 1.29144L 12.6474 1.29133L 12.5321 1.45479ZM 10.6062 0.0969816L 10.7214 -0.0664799L 10.7214 -0.0664863L 10.6062 0.0969816ZM 9.77489 1.35846L 9.77489 1.55846L 9.97489 1.55846L 9.97489 1.35846L 9.77489 1.35846ZM 9.77482 2.41318L 9.97482 2.41318L 9.97482 2.21318L 9.77482 2.21318L 9.77482 2.41318ZM 10.6061 3.67463L 10.7213 3.8381L 10.7213 3.83809L 10.6061 3.67463ZM 12.532 2.31682L 12.4168 2.15332L 12.4168 2.15336L 12.532 2.31682ZM 12.6474 1.29133L 10.7214 -0.0664799L 10.4909 0.260443L 12.4169 1.61825L 12.6474 1.29133ZM 10.7214 -0.0664863C 10.2398 -0.405938 9.57489 -0.06051 9.57489 0.527998L 9.97489 0.527998C 9.97489 0.263473 10.2746 0.107924 10.4909 0.26045L 10.7214 -0.0664863ZM 9.57489 0.527998L 9.57489 1.35846L 9.97489 1.35846L 9.97489 0.527998L 9.57489 0.527998ZM 9.77489 1.15846L 0.527379 1.15846L 0.527379 1.55846L 9.77489 1.55846L 9.77489 1.15846ZM 0.527379 1.15846C 0.125696 1.15846 -0.2 1.4841 -0.2 1.88584L 0.2 1.88584C 0.2 1.70503 0.346593 1.55846 0.527379 1.55846L 0.527379 1.15846ZM -0.2 1.88584C -0.2 2.28759 0.125714 2.61318 0.527379 2.61318L 0.527379 2.21318C 0.346576 2.21318 0.2 2.06663 0.2 1.88584L -0.2 1.88584ZM 0.527379 2.61318L 9.77482 2.61318L 9.77482 2.21318L 0.527379 2.21318L 0.527379 2.61318ZM 9.57482 2.41318L 9.57482 3.24361L 9.97482 3.24361L 9.97482 2.41318L 9.57482 2.41318ZM 9.57482 3.24361C 9.57482 3.83702 10.244 4.17447 10.7213 3.8381L 10.4908 3.51115C 10.2753 3.66303 9.97482 3.50886 9.97482 3.24361L 9.57482 3.24361ZM 10.7213 3.83809L 12.6473 2.48028L 12.4168 2.15336L 10.4908 3.51117L 10.7213 3.83809ZM 12.6472 2.48032C 13.0528 2.19456 13.0619 1.58418 12.6475 1.29144L 12.4167 1.61813C 12.6023 1.74924 12.5995 2.02466 12.4168 2.15332L 12.6472 2.48032Z"/>
<path id="path2_fill" d="M 15.1338 11.5988C 14.8817 11.453 14.5591 11.5391 14.4132 11.7912C 13.1744 13.9328 10.8588 15.3705 8.21261 15.3705C 4.26576 15.3705 1.05472 12.1595 1.05472 8.21262C 1.05472 4.26576 4.26576 1.05472 8.21261 1.05472C 10.8606 1.05472 13.1751 2.49378 14.4132 4.63395C 14.559 4.88609 14.8817 4.97212 15.1337 4.8264C 15.3858 4.68057 15.472 4.35794 15.3262 4.10583C 13.9014 1.64285 11.2405 -2.25306e-08 8.21261 -2.25306e-08C 3.67348 -2.25306e-08 0 3.67309 0 8.21262C 0 12.7517 3.67309 16.4252 8.21261 16.4252C 11.2418 16.4252 13.9021 14.7812 15.3262 12.3193C 15.472 12.0672 15.3859 11.7446 15.1338 11.5988Z"/>
<path id="path3_stroke" d="M 15.1338 11.5988L 15.2339 11.4257L 15.2339 11.4256L 15.1338 11.5988ZM 14.4132 11.7912L 14.2401 11.6911L 14.2401 11.6911L 14.4132 11.7912ZM 14.4132 4.63395L 14.5863 4.53382L 14.5863 4.53381L 14.4132 4.63395ZM 15.1337 4.8264L 15.2338 4.99953L 15.2339 4.99952L 15.1337 4.8264ZM 15.3262 4.10583L 15.4993 4.00571L 15.4993 4.00569L 15.3262 4.10583ZM 15.3262 12.3193L 15.4993 12.4195L 15.4993 12.4194L 15.3262 12.3193ZM 15.2339 11.4256C 14.8863 11.2246 14.4413 11.3433 14.2401 11.6911L 14.5863 11.8914C 14.6769 11.7349 14.8772 11.6814 15.0336 11.7719L 15.2339 11.4256ZM 14.2401 11.6911C 13.0356 13.7733 10.7846 15.1705 8.21261 15.1705L 8.21261 15.5705C 10.933 15.5705 13.3132 14.0923 14.5863 11.8913L 14.2401 11.6911ZM 8.21261 15.1705C 4.37622 15.1705 1.25472 12.049 1.25472 8.21262L 0.854724 8.21262C 0.854724 12.2699 4.1553 15.5705 8.21261 15.5705L 8.21261 15.1705ZM 1.25472 8.21262C 1.25472 4.37622 4.37622 1.25472 8.21261 1.25472L 8.21261 0.854724C 4.1553 0.854724 0.854724 4.1553 0.854724 8.21262L 1.25472 8.21262ZM 8.21261 1.25472C 10.7863 1.25472 13.0363 2.6532 14.24 4.7341L 14.5863 4.53381C 13.314 2.33435 10.9348 0.854724 8.21261 0.854724L 8.21261 1.25472ZM 14.24 4.73408C 14.4412 5.08191 14.8863 5.2005 15.2338 4.99953L 15.0336 4.65326C 14.8771 4.74374 14.6768 4.69027 14.5863 4.53382L 14.24 4.73408ZM 15.2339 4.99952C 15.5816 4.79837 15.7004 4.3534 15.4993 4.00571L 15.153 4.20596C 15.2436 4.36248 15.1901 4.56276 15.0336 4.65327L 15.2339 4.99952ZM 15.4993 4.00569C 14.0401 1.48318 11.3145 -0.2 8.21261 -0.2L 8.21261 0.2C 11.1665 0.2 13.7627 1.80252 15.1531 4.20598L 15.4993 4.00569ZM 8.21261 -0.2C 3.56303 -0.2 -0.2 3.56263 -0.2 8.21262L 0.2 8.21262C 0.2 3.78356 3.78393 0.2 8.21261 0.2L 8.21261 -0.2ZM -0.2 8.21262C -0.2 12.8622 3.56263 16.6252 8.21261 16.6252L 8.21261 16.2252C 3.78356 16.2252 0.2 12.6413 0.2 8.21262L -0.2 8.21262ZM 8.21261 16.6252C 11.3158 16.6252 14.0408 14.9409 15.4993 12.4195L 15.1531 12.2192C 13.7634 14.6216 11.1678 16.2252 8.21261 16.2252L 8.21261 16.6252ZM 15.4993 12.4194C 15.7004 12.0717 15.5816 11.6268 15.2339 11.4257L 15.0336 11.7719C 15.1901 11.8624 15.2436 12.0627 15.1531 12.2192L 15.4993 12.4194Z"/>
</defs>
</svg>
