<?xml version="1.0" encoding="utf-8"?>
<!-- Generator: Adobe Illustrator 22.1.0, SVG Export Plug-In . SVG Version: 6.00 Build 0)  -->
<svg version="1.1" id="Layer_1" xmlns="http://www.w3.org/2000/svg" xmlns:xlink="http://www.w3.org/1999/xlink" x="0px" y="0px"
	 viewBox="0 0 32 64" style="enable-background:new 0 0 32 64;" xml:space="preserve">
<style type="text/css">
	.st0{fill-rule:evenodd;clip-rule:evenodd;fill:#EC1C24;}
	.st1{fill-rule:evenodd;clip-rule:evenodd;fill:#005AA9;}
	.st2{fill-rule:evenodd;clip-rule:evenodd;fill:#ED3237;}
	.st3{fill-rule:evenodd;clip-rule:evenodd;fill:#FFFFFF;}
</style>
<g>
	<path class="st0" d="M13.4,5.8c0-0.1-0.1-0.2-0.1-0.3c0-0.1,0-0.2,0-0.2c0-0.4,0.1-0.6,0.3-0.8c0.2-0.2,0.4-0.3,0.7-0.3
		c0.2,0,0.4,0,0.5,0.1c0.1,0.1,0.2,0.2,0.3,0.2c0.1,0.1,0.1,0.2,0.2,0.3c0,0.1,0.1,0.2,0.1,0.2l1.4,4.7h0l1.4-4.7
		c0-0.1,0-0.1,0.1-0.2c0-0.1,0.1-0.2,0.2-0.3c0.1-0.1,0.2-0.2,0.3-0.2c0.1-0.1,0.3-0.1,0.5-0.1c0.2,0,0.5,0.1,0.7,0.3
		c0.2,0.2,0.3,0.4,0.3,0.8c0,0.1,0,0.1,0,0.2c0,0.1-0.1,0.2-0.1,0.3l-2,5.5c0,0.1-0.1,0.3-0.1,0.4c-0.1,0.1-0.1,0.2-0.2,0.2
		c-0.1,0.1-0.2,0.1-0.4,0.1c-0.2,0-0.4,0-0.6,0s-0.5,0-0.6,0c-0.2,0-0.3-0.1-0.4-0.1c-0.1-0.1-0.2-0.1-0.2-0.2
		c-0.1-0.1-0.1-0.2-0.1-0.4L13.4,5.8L13.4,5.8z M20.7,5.2c0-0.3,0.1-0.6,0.2-0.8c0.1-0.2,0.4-0.3,0.7-0.3c0.3,0,0.6,0.1,0.7,0.3
		c0.1,0.2,0.2,0.4,0.2,0.8v0.3h0c0.3-0.4,0.6-0.7,1-0.9c0.4-0.2,0.9-0.4,1.5-0.4c0.3,0,0.6,0,0.9,0.1c0.3,0.1,0.6,0.2,0.8,0.4
		c0.2,0.2,0.4,0.5,0.6,0.8c0.2,0.4,0.2,0.8,0.2,1.3v4c0,0.3-0.1,0.5-0.2,0.7c-0.1,0.2-0.4,0.3-0.8,0.3c-0.4,0-0.7-0.1-0.8-0.3
		c-0.1-0.2-0.2-0.5-0.2-0.7V7.3c0-0.4-0.1-0.8-0.3-1c-0.2-0.3-0.5-0.4-1-0.4c-0.2,0-0.4,0-0.6,0.1c-0.2,0.1-0.4,0.2-0.5,0.3
		c-0.2,0.1-0.3,0.3-0.4,0.5c-0.1,0.2-0.1,0.4-0.1,0.7V11c0,0.3-0.1,0.5-0.2,0.7c-0.1,0.2-0.4,0.3-0.8,0.3c-0.4,0-0.7-0.1-0.8-0.3
		c-0.1-0.2-0.2-0.5-0.2-0.7V5.2z"/>
	<path class="st1" d="M0,16.9c0-0.6,0.1-1,0.4-1.4c0.2-0.4,0.6-0.7,1-0.9c0.4-0.2,0.8-0.4,1.3-0.5c0.5-0.1,1-0.2,1.4-0.2
		c0.5,0,1,0,1.5,0.1c0.5,0.1,0.9,0.2,1.3,0.4c0.4,0.2,0.7,0.4,0.9,0.6c0.2,0.3,0.4,0.5,0.4,0.8c0,0.3-0.1,0.6-0.3,0.8
		c-0.2,0.2-0.5,0.4-0.8,0.4c-0.3,0-0.5-0.1-0.6-0.2c-0.2-0.1-0.3-0.3-0.5-0.4c-0.2-0.2-0.4-0.3-0.6-0.4c-0.2-0.1-0.6-0.2-1-0.2
		c-0.5,0-0.8,0.1-1.1,0.2c-0.3,0.1-0.4,0.3-0.4,0.6c0,0.3,0.1,0.5,0.4,0.6c0.3,0.1,0.6,0.2,1,0.3l1.1,0.3c0.4,0.1,0.8,0.2,1.2,0.3
		c0.4,0.1,0.8,0.3,1.1,0.5c0.3,0.2,0.6,0.5,0.8,0.8c0.2,0.3,0.3,0.7,0.3,1.2c0,0.6-0.1,1-0.4,1.4c-0.2,0.4-0.6,0.7-1,1
		c-0.4,0.3-0.8,0.5-1.3,0.6C5.5,24,5,24,4.5,24c-0.6,0-1.2-0.1-1.7-0.2c-0.5-0.1-1-0.3-1.4-0.5c-0.4-0.2-0.7-0.5-1-0.8
		C0.1,22.3,0,21.9,0,21.6c0-0.3,0.1-0.6,0.3-0.8s0.5-0.3,0.8-0.3c0.3,0,0.5,0.1,0.7,0.3c0.2,0.2,0.4,0.4,0.6,0.6
		c0.2,0.2,0.5,0.4,0.8,0.6c0.3,0.2,0.7,0.3,1.2,0.3c0.5,0,0.9-0.1,1.1-0.3c0.3-0.2,0.4-0.4,0.4-0.7c0-0.3-0.1-0.6-0.4-0.7
		c-0.3-0.1-0.7-0.2-1.1-0.4l-1.6-0.4c-0.4-0.1-0.8-0.2-1.1-0.4c-0.3-0.1-0.6-0.3-0.9-0.5c-0.3-0.2-0.5-0.5-0.6-0.8
		C0.1,17.7,0,17.3,0,16.9z"/>
	<g>
		<path class="st1" d="M15.5,18.2c0.2-1.3,1-2.5,2-3.2c-0.1-0.2-0.3-0.3-0.4-0.4c-0.3-0.3-0.7-0.5-1.1-0.6c-0.4-0.1-0.8-0.2-1.2-0.2
			c-0.4,0-0.7,0-1,0.1c-0.3,0.1-0.6,0.2-0.8,0.3c-0.2,0.1-0.5,0.3-0.6,0.5c-0.2,0.2-0.3,0.3-0.5,0.5h0v-3.7c0-0.4-0.1-0.8-0.4-1
			c-0.2-0.2-0.6-0.3-1-0.3c-0.4,0-0.7,0.1-1,0.3C9.1,10.7,9,11,9,11.4v11.1c0,0.4,0.1,0.7,0.3,0.9c0.2,0.3,0.5,0.4,1.1,0.4
			s0.9-0.1,1.1-0.4c0.2-0.3,0.3-0.6,0.3-0.9v-4.5c0-0.3,0.1-0.6,0.2-0.9c0.1-0.3,0.3-0.5,0.5-0.7c0.2-0.2,0.4-0.3,0.7-0.4
			c0.2-0.1,0.5-0.1,0.7-0.1c0.6,0,1,0.2,1.3,0.5c0.3,0.3,0.4,0.8,0.4,1.4V18.2z"/>
		<path class="st1" d="M15.5,19.7v2.9c0,0.4,0.1,0.7,0.3,0.9c0.2,0.3,0.5,0.4,1.1,0.4c0.5,0,0.9-0.1,1.1-0.4
			c0.1-0.1,0.1-0.2,0.1-0.2C16.7,22.6,15.7,21.3,15.5,19.7z"/>
	</g>
	<path class="st1" d="M17.7,17.4l0.2,0.5c0.1,0.2,0.1,0.3,0.2,0.5l0.9,2.8c0.1,0.2,0.5,0.2,0.5-0.1c0-0.1-0.1-0.2-0.1-0.3h3.2
		c0.5,0,0.4,0,0.6-0.5c0.2-0.5,0.4-1,0.6-1.5c0.2-0.5-0.1-0.5-0.4-0.5l-1-0.1c0.1,0.3,0.6,0.8-0.2,1.1c-0.3,0.1-0.9,0.4-1.2,0.6
		C21,20,20.9,20,20.8,20.1c-0.5,0.2-0.6-0.1-0.8-0.4l-0.9-1.8c-0.2,0-0.4,0-0.6,0c0-0.2-0.1-0.4-0.2-0.6c0-0.1-0.1-0.2-0.1-0.3
		c-0.1-0.1-0.1-0.1-0.2-0.2c-0.2-0.1-0.3-0.1-0.5-0.2c-0.1,0-0.5-0.2-0.6-0.2c-0.3,0-0.5,0.4,0,0.6C17,17.1,17.7,17.4,17.7,17.4z"/>
	<path class="st1" d="M19.2,17.6c0,0.1,0.2,0.5,0.3,0.6l0.6,1.2c0.1,0.1,0.1,0.2,0.2,0.3c0.1,0.2,0.1,0.2,0.3,0.2
		c0.1,0,1.3-0.6,1.6-0.7c0.6-0.3,0.4-0.4,0.2-0.9l-0.6-1.1c-0.4-0.8-0.3-0.9-1.2-0.4c-0.1,0.1-0.2,0.1-0.3,0.1l-0.9,0.4
		C19.3,17.4,19.2,17.4,19.2,17.6z"/>
	<path class="st1" d="M21.2,22.1c0,0.2,0,0.3,0.2,0.5c0.4,0.4,1,0,1-0.4v-0.1c0-0.2-0.3-0.5-0.5-0.5h-0.1
		C21.5,21.6,21.2,21.8,21.2,22.1z"/>
	<path class="st1" d="M19.4,22.1c0,0.2,0,0.3,0.2,0.5c0.3,0.3,0.9,0.1,1-0.4c0-0.3-0.2-0.6-0.5-0.6h-0.1
		C19.6,21.6,19.4,21.8,19.4,22.1z"/>
	<path class="st1" d="M31.7,16.5c-0.2-0.6-0.5-1.2-0.9-1.6c-0.4-0.4-0.8-0.7-1.4-1c-0.5-0.2-1.1-0.3-1.6-0.3c-0.7,0-1.3,0.1-1.8,0.4
		c-0.5,0.3-0.9,0.7-1.1,1.3h0v-0.4c0-0.9-0.4-1.3-1.2-1.3c-0.7,0-1.1,0.3-1.2,0.9c1.3,0.6,2.3,1.8,2.6,3.2c0-0.1,0-0.1,0-0.2
		c0.1-0.4,0.2-0.7,0.4-0.9c0.2-0.3,0.4-0.5,0.7-0.6c0.3-0.2,0.6-0.2,1-0.2c0.4,0,0.7,0.1,0.9,0.3c0.3,0.2,0.5,0.4,0.7,0.6
		c0.2,0.3,0.3,0.6,0.4,0.9c0.1,0.4,0.1,0.7,0.1,1.1c0,0.3,0,0.7-0.1,1c-0.1,0.4-0.2,0.7-0.3,1c-0.2,0.3-0.4,0.5-0.7,0.7
		c-0.3,0.2-0.6,0.3-1.1,0.3c-0.4,0-0.8-0.1-1-0.3c-0.3-0.2-0.5-0.4-0.7-0.7c-0.2-0.3-0.3-0.6-0.3-0.9c-0.3,1.6-1.3,2.8-2.7,3.5V26
		c0,0.4,0.1,0.8,0.4,1c0.2,0.2,0.6,0.3,1,0.3c0.4,0,0.7-0.1,1-0.3c0.2-0.2,0.4-0.6,0.4-1v-3.6h0c0.2,0.4,0.6,0.8,1,1
		c0.5,0.2,1,0.4,1.6,0.4c0.7,0,1.3-0.1,1.9-0.4c0.5-0.3,1-0.7,1.3-1.1c0.3-0.5,0.6-1,0.8-1.6c0.2-0.6,0.3-1.2,0.3-1.9
		C32,17.9,31.9,17.1,31.7,16.5z"/>
</g>
<path class="st2" d="M13.4,37.2c0-0.1-0.1-0.2-0.1-0.3c0-0.1,0-0.2,0-0.2c0-0.4,0.1-0.6,0.3-0.8c0.2-0.2,0.4-0.3,0.7-0.3
	c0.2,0,0.4,0,0.5,0.1c0.1,0.1,0.2,0.2,0.3,0.2c0.1,0.1,0.1,0.2,0.2,0.3c0,0.1,0.1,0.2,0.1,0.2l1.4,4.7h0l1.4-4.7
	c0-0.1,0-0.1,0.1-0.2c0-0.1,0.1-0.2,0.2-0.3c0.1-0.1,0.2-0.2,0.3-0.2s0.3-0.1,0.5-0.1c0.2,0,0.5,0.1,0.7,0.3
	c0.2,0.2,0.3,0.4,0.3,0.8c0,0.1,0,0.1,0,0.2c0,0.1-0.1,0.2-0.1,0.3l-2,5.5c0,0.1-0.1,0.3-0.1,0.4c-0.1,0.1-0.1,0.2-0.2,0.2
	c-0.1,0.1-0.2,0.1-0.4,0.1c-0.2,0-0.4,0-0.6,0s-0.5,0-0.6,0c-0.2,0-0.3-0.1-0.4-0.1c-0.1-0.1-0.2-0.1-0.2-0.2
	c-0.1-0.1-0.1-0.2-0.1-0.4L13.4,37.2L13.4,37.2z M20.7,36.6c0-0.3,0.1-0.6,0.2-0.8c0.1-0.2,0.4-0.3,0.7-0.3c0.3,0,0.6,0.1,0.7,0.3
	c0.1,0.2,0.2,0.4,0.2,0.8v0.3h0c0.3-0.4,0.6-0.7,1-0.9c0.4-0.2,0.9-0.4,1.5-0.4c0.3,0,0.6,0,0.9,0.1c0.3,0.1,0.6,0.2,0.8,0.4
	c0.2,0.2,0.4,0.5,0.6,0.8c0.2,0.4,0.2,0.8,0.2,1.3v4c0,0.3-0.1,0.5-0.2,0.7c-0.1,0.2-0.4,0.3-0.8,0.3c-0.4,0-0.7-0.1-0.8-0.3
	c-0.1-0.2-0.2-0.5-0.2-0.7v-3.6c0-0.4-0.1-0.8-0.3-1c-0.2-0.3-0.5-0.4-1-0.4c-0.2,0-0.4,0-0.6,0.1c-0.2,0.1-0.4,0.2-0.5,0.3
	c-0.2,0.1-0.3,0.3-0.4,0.5c-0.1,0.2-0.1,0.4-0.1,0.7v3.4c0,0.3-0.1,0.5-0.2,0.7c-0.1,0.2-0.4,0.3-0.8,0.3c-0.4,0-0.7-0.1-0.8-0.3
	c-0.1-0.2-0.2-0.5-0.2-0.7V36.6z"/>
<path class="st3" d="M0,48.3c0-0.6,0.1-1,0.4-1.4c0.2-0.4,0.6-0.7,1-0.9c0.4-0.2,0.8-0.4,1.3-0.5c0.5-0.1,1-0.2,1.4-0.2
	c0.5,0,1,0,1.5,0.1c0.5,0.1,0.9,0.2,1.3,0.4c0.4,0.2,0.7,0.4,0.9,0.6c0.2,0.3,0.4,0.5,0.4,0.8c0,0.3-0.1,0.6-0.3,0.8
	c-0.2,0.2-0.5,0.4-0.8,0.4c-0.3,0-0.5-0.1-0.6-0.2c-0.2-0.1-0.3-0.3-0.5-0.4c-0.2-0.2-0.4-0.3-0.6-0.4c-0.2-0.1-0.6-0.2-1-0.2
	c-0.5,0-0.8,0.1-1.1,0.2c-0.3,0.1-0.4,0.3-0.4,0.6c0,0.3,0.1,0.5,0.4,0.6c0.3,0.1,0.6,0.2,1,0.3l1.1,0.3c0.4,0.1,0.8,0.2,1.2,0.3
	c0.4,0.1,0.8,0.3,1.1,0.5c0.3,0.2,0.6,0.5,0.8,0.8c0.2,0.3,0.3,0.7,0.3,1.2c0,0.6-0.1,1-0.4,1.4c-0.2,0.4-0.6,0.7-1,1
	c-0.4,0.3-0.8,0.5-1.3,0.6c-0.5,0.1-1,0.2-1.5,0.2c-0.6,0-1.2-0.1-1.7-0.2c-0.5-0.1-1-0.3-1.4-0.5c-0.4-0.2-0.7-0.5-1-0.8
	C0.1,53.6,0,53.3,0,53c0-0.3,0.1-0.6,0.3-0.8c0.2-0.2,0.5-0.3,0.8-0.3c0.3,0,0.5,0.1,0.7,0.3c0.2,0.2,0.4,0.4,0.6,0.6
	c0.2,0.2,0.5,0.4,0.8,0.6c0.3,0.2,0.7,0.3,1.2,0.3c0.5,0,0.9-0.1,1.1-0.3c0.3-0.2,0.4-0.4,0.4-0.7c0-0.3-0.1-0.6-0.4-0.7
	c-0.3-0.1-0.7-0.2-1.1-0.4l-1.6-0.4C2.4,51,2,50.9,1.7,50.8c-0.3-0.1-0.6-0.3-0.9-0.5c-0.3-0.2-0.5-0.5-0.6-0.8
	C0.1,49.1,0,48.7,0,48.3z"/>
<g>
	<path class="st3" d="M15.5,49.6c0.2-1.3,1-2.5,2-3.2c-0.1-0.2-0.3-0.3-0.4-0.4c-0.3-0.3-0.7-0.5-1.1-0.6c-0.4-0.1-0.8-0.2-1.2-0.2
		c-0.4,0-0.7,0-1,0.1c-0.3,0.1-0.6,0.2-0.8,0.3c-0.2,0.1-0.5,0.3-0.6,0.5c-0.2,0.2-0.3,0.3-0.5,0.5h0v-3.7c0-0.4-0.1-0.8-0.4-1
		c-0.2-0.2-0.6-0.3-1-0.3c-0.4,0-0.7,0.1-1,0.3c-0.2,0.2-0.4,0.6-0.4,1V54c0,0.4,0.1,0.7,0.3,0.9c0.2,0.3,0.5,0.4,1.1,0.4
		s0.9-0.1,1.1-0.4c0.2-0.3,0.3-0.6,0.3-0.9v-4.5c0-0.3,0.1-0.6,0.2-0.9c0.1-0.3,0.3-0.5,0.5-0.7c0.2-0.2,0.4-0.3,0.7-0.4
		c0.2-0.1,0.5-0.1,0.7-0.1c0.6,0,1,0.2,1.3,0.5c0.3,0.3,0.4,0.8,0.4,1.4V49.6z"/>
	<path class="st3" d="M15.5,51.1V54c0,0.4,0.1,0.7,0.3,0.9c0.2,0.3,0.5,0.4,1.1,0.4c0.5,0,0.9-0.1,1.1-0.4c0.1-0.1,0.1-0.2,0.1-0.2
		C16.7,54,15.7,52.6,15.5,51.1z"/>
</g>
<path class="st3" d="M17.7,48.8l0.2,0.5c0.1,0.2,0.1,0.3,0.2,0.5l0.9,2.8c0.1,0.2,0.5,0.2,0.5-0.1c0-0.1-0.1-0.2-0.1-0.3h3.2
	c0.5,0,0.4,0,0.6-0.5c0.2-0.5,0.4-1,0.6-1.5c0.2-0.5-0.1-0.5-0.4-0.5l-1-0.1c0.1,0.3,0.6,0.8-0.2,1.1c-0.3,0.1-0.9,0.4-1.2,0.6
	c-0.1,0.1-0.2,0.1-0.3,0.1c-0.5,0.2-0.6-0.1-0.8-0.4l-0.9-1.8c-0.2,0-0.4,0-0.6,0c0-0.2-0.1-0.4-0.2-0.6c0-0.1-0.1-0.2-0.1-0.3
	c-0.1-0.1-0.1-0.1-0.2-0.2c-0.2-0.1-0.3-0.1-0.5-0.2c-0.1,0-0.5-0.2-0.6-0.2c-0.3,0-0.5,0.4,0,0.6C17,48.5,17.7,48.8,17.7,48.8z"/>
<path class="st3" d="M19.2,48.9c0,0.1,0.2,0.5,0.3,0.6l0.6,1.2c0.1,0.1,0.1,0.2,0.2,0.3c0.1,0.2,0.1,0.2,0.3,0.2
	c0.1,0,1.3-0.6,1.6-0.7c0.6-0.3,0.4-0.4,0.2-0.9l-0.6-1.1c-0.4-0.8-0.3-0.9-1.2-0.4c-0.1,0.1-0.2,0.1-0.3,0.1l-0.9,0.4
	C19.3,48.8,19.2,48.8,19.2,48.9z"/>
<path class="st3" d="M21.2,53.4c0,0.2,0,0.3,0.2,0.5c0.4,0.4,1,0,1-0.4v-0.1c0-0.2-0.3-0.5-0.5-0.5h-0.1
	C21.5,53,21.2,53.2,21.2,53.4z"/>
<path class="st3" d="M19.4,53.5c0,0.2,0,0.3,0.2,0.5c0.3,0.3,0.9,0.1,1-0.4c0-0.3-0.2-0.6-0.5-0.6h-0.1C19.6,53,19.4,53.2,19.4,53.5
	z"/>
<path class="st3" d="M31.7,47.9c-0.2-0.6-0.5-1.2-0.9-1.6c-0.4-0.4-0.8-0.7-1.4-1c-0.5-0.2-1.1-0.3-1.6-0.3c-0.7,0-1.3,0.1-1.8,0.4
	c-0.5,0.3-0.9,0.7-1.1,1.3h0v-0.4c0-0.9-0.4-1.3-1.2-1.3c-0.7,0-1.1,0.3-1.2,0.9c1.3,0.6,2.3,1.8,2.6,3.2c0-0.1,0-0.1,0-0.2
	c0.1-0.4,0.2-0.7,0.4-0.9c0.2-0.3,0.4-0.5,0.7-0.6c0.3-0.2,0.6-0.2,1-0.2c0.4,0,0.7,0.1,0.9,0.3c0.3,0.2,0.5,0.4,0.7,0.6
	c0.2,0.3,0.3,0.6,0.4,0.9c0.1,0.4,0.1,0.7,0.1,1.1c0,0.3,0,0.7-0.1,1c-0.1,0.4-0.2,0.7-0.3,1c-0.2,0.3-0.4,0.5-0.7,0.7
	c-0.3,0.2-0.6,0.3-1.1,0.3c-0.4,0-0.8-0.1-1-0.3c-0.3-0.2-0.5-0.4-0.7-0.7c-0.2-0.3-0.3-0.6-0.3-0.9c-0.3,1.6-1.3,2.8-2.7,3.5v2.7
	c0,0.4,0.1,0.8,0.4,1c0.2,0.2,0.6,0.3,1,0.3c0.4,0,0.7-0.1,1-0.3c0.2-0.2,0.4-0.6,0.4-1v-3.6h0c0.2,0.4,0.6,0.8,1,1
	c0.5,0.2,1,0.4,1.6,0.4c0.7,0,1.3-0.1,1.9-0.4c0.5-0.3,1-0.7,1.3-1.1c0.3-0.5,0.6-1,0.8-1.6c0.2-0.6,0.3-1.2,0.3-1.9
	C32,49.3,31.9,48.5,31.7,47.9z"/>
</svg>
