<?xml version="1.0" encoding="utf-8"?>
<!-- Generator: Adobe Illustrator 19.1.0, SVG Export Plug-In . SVG Version: 6.00 Build 0)  -->
<svg version="1.1" id="Layer_1" xmlns="http://www.w3.org/2000/svg" xmlns:xlink="http://www.w3.org/1999/xlink" x="0px" y="0px"
	 viewBox="-289 365 32 64" style="enable-background:new -289 365 32 64;" xml:space="preserve">
<style type="text/css">
	.st0{fill:#2188C9;stroke:#2188C9;stroke-width:0.5;stroke-miterlimit:10;}
	.st1{fill:none;stroke:#0c2c63;stroke-width:1.2;stroke-miterlimit:10;}
	.st2{fill:none;stroke:#2188C9;stroke-width:1.2;stroke-miterlimit:10;}
	.st3{fill:none;stroke:#FFFFFF;stroke-width:1.2;stroke-miterlimit:10;}
</style>
<g>
	<path class="st0" d="M-267.4,377.3c0-0.3,0-0.6,0-0.9c0.2,0,0.4,0,0.6,0c0,0.3,0,0.6,0,0.9c0.2,0,0.5,0.1,0.7,0.1
		c0.2,0,0.3,0.1,0.5,0.2c0,0,0,0.1,0,0.1c-0.1,0.2-0.1,0.4-0.2,0.6c-0.2-0.1-0.5-0.2-0.7-0.3c-0.3-0.1-0.6-0.1-0.9,0
		c-0.3,0.1-0.5,0.3-0.6,0.6c-0.1,0.3,0,0.6,0.3,0.8c0.2,0.1,0.5,0.3,0.7,0.4c0.3,0.1,0.7,0.3,0.9,0.5c0.5,0.4,0.7,0.9,0.7,1.5
		c-0.1,0.6-0.4,1-1,1.3c-0.2,0.1-0.3,0.1-0.5,0.2c0,0.3,0,0.6,0,1c-0.2,0-0.4,0-0.6,0c0-0.3,0-0.6,0-0.9c-0.2,0-0.4-0.1-0.6-0.1
		c-0.3-0.1-0.5-0.1-0.8-0.3c-0.1,0-0.1-0.1,0-0.1c0.1-0.2,0.1-0.4,0.2-0.5c0.1,0,0.1,0.1,0.1,0.1c0.4,0.2,0.8,0.3,1.3,0.3
		c0.2,0,0.4,0,0.5-0.1c0.7-0.3,0.8-1.1,0.2-1.6c-0.2-0.2-0.5-0.3-0.8-0.4c-0.4-0.1-0.7-0.3-1-0.6c-0.7-0.6-0.6-1.7,0.1-2.2
		c0.2-0.2,0.5-0.3,0.8-0.4C-267.4,377.3-267.4,377.3-267.4,377.3z"/>
	<path class="st1" d="M-266.8,387.1v3.7c0,1.5-1.3,2.8-2.8,2.8h-10.3c-1.5,0-2.8-1.3-2.8-2.8v-19.6c0-1.5,1.3-2.8,2.8-2.8h10.3
		c1.5,0,2.8,1.3,2.8,2.8v1.9 M-282.7,372.1h15.9 M-282.7,388h15.9 M-277.1,390.8h4.7"/>
	<path class="st2" d="M-271.7,386.5L-271.7,386.5c-0.5,0-0.8-0.1-0.9-0.4c0-0.1-0.1-0.3,0.1-0.6l0.7-0.9c0.1-0.1,0.1-0.2,0.1-0.2
		c-1.1-1.1-1.7-2.6-1.7-4.2c0-3.4,2.7-6.1,6.1-6.1c3.4,0,6.1,2.7,6.1,6.1c0,3.4-2.7,6.1-6.1,6.1c-0.7,0-1.3-0.1-1.9-0.3
		c0,0,0,0-0.1,0c-0.2,0.1-0.5,0.2-0.7,0.3c-0.1,0-0.2,0-0.2,0.1l-0.1,0C-270.8,386.4-271.2,386.5-271.7,386.5z"/>
</g>
<g>
	<path class="st0" d="M-267.4,409.3c0-0.3,0-0.6,0-0.9c0.2,0,0.4,0,0.6,0c0,0.3,0,0.6,0,0.9c0.2,0,0.5,0.1,0.7,0.1
		c0.2,0,0.3,0.1,0.5,0.2c0,0,0,0.1,0,0.1c-0.1,0.2-0.1,0.4-0.2,0.6c-0.2-0.1-0.5-0.2-0.7-0.3c-0.3-0.1-0.6-0.1-0.9,0
		c-0.3,0.1-0.5,0.3-0.6,0.6c-0.1,0.3,0,0.6,0.3,0.8c0.2,0.1,0.5,0.3,0.7,0.4c0.3,0.1,0.7,0.3,0.9,0.5c0.5,0.4,0.7,0.9,0.7,1.5
		c-0.1,0.6-0.4,1-1,1.3c-0.2,0.1-0.3,0.1-0.5,0.2c0,0.3,0,0.6,0,1c-0.2,0-0.4,0-0.6,0c0-0.3,0-0.6,0-0.9c-0.2,0-0.4-0.1-0.6-0.1
		c-0.3-0.1-0.5-0.1-0.8-0.3c-0.1,0-0.1-0.1,0-0.1c0.1-0.2,0.1-0.4,0.2-0.5c0.1,0,0.1,0.1,0.1,0.1c0.4,0.2,0.8,0.3,1.3,0.3
		c0.2,0,0.4,0,0.5-0.1c0.7-0.3,0.8-1.1,0.2-1.6c-0.2-0.2-0.5-0.3-0.8-0.4c-0.4-0.1-0.7-0.3-1-0.6c-0.7-0.6-0.6-1.7,0.1-2.2
		c0.2-0.2,0.5-0.3,0.8-0.4C-267.4,409.3-267.4,409.3-267.4,409.3z"/>
	<path class="st3" d="M-266.8,419.1v3.7c0,1.5-1.3,2.8-2.8,2.8h-10.3c-1.5,0-2.8-1.3-2.8-2.8v-19.6c0-1.5,1.3-2.8,2.8-2.8h10.3
		c1.5,0,2.8,1.3,2.8,2.8v1.9 M-282.7,404.1h15.9 M-282.7,420h15.9 M-277.1,422.8h4.7"/>
	<path class="st2" d="M-271.7,418.5L-271.7,418.5c-0.5,0-0.8-0.1-0.9-0.4c0-0.1-0.1-0.3,0.1-0.6l0.7-0.9c0.1-0.1,0.1-0.2,0.1-0.2
		c-1.1-1.1-1.7-2.6-1.7-4.2c0-3.4,2.7-6.1,6.1-6.1c3.4,0,6.1,2.7,6.1,6.1c0,3.4-2.7,6.1-6.1,6.1c-0.7,0-1.3-0.1-1.9-0.3
		c0,0,0,0-0.1,0c-0.2,0.1-0.5,0.2-0.7,0.3c-0.1,0-0.2,0-0.2,0.1l-0.1,0C-270.8,418.4-271.2,418.5-271.7,418.5z"/>
</g>
</svg>
