<svg xmlns="http://www.w3.org/2000/svg" width="85.362" height="70.983" viewBox="0 0 85.362 70.983">
  <g id="_2icon-70" data-name="2icon-70" transform="translate(3.824 1.971)">
    <path id="Path_25" data-name="Path 25" d="M40.7,5.873.314,26.81l4.339,2.217V50.679a5.149,5.149,0,1,0,5.149,0V31.662l5.149,2.63v13.1c0,7.167,19.7,7.723,25.744,7.723a98.654,98.654,0,0,0,12.852-.81,14.022,14.022,0,0,1-2.182-4.948,88.6,88.6,0,0,1-10.67.608c-10.169,0-16.917-1.442-19.6-2.574,2.688-1.133,9.438-2.574,19.6-2.574a89.193,89.193,0,0,1,10.348.568,14.038,14.038,0,0,1,1.187-5.058A101.592,101.592,0,0,0,40.7,39.667c-4.07,0-14.327.264-20.6,2.62V32.462c1.565-1.146,8.768-3.092,20.6-3.092,8.586,0,14.7,1.025,18.021,2.026v-5.33c-6.2-1.63-14.463-1.845-18.021-1.845-5.131,0-20.088.42-24.482,4.938L11.568,26.78,40.7,11.676l29.128,15.1-.03.02H81.047Z" transform="translate(-0.314 -5.873)" fill="#434a54" stroke="#fff" stroke-width="3.5"/>
    <path id="Path_26" data-name="Path 26" d="M93.47,45.769v5.149a9.138,9.138,0,0,0-7.723,9.01,8.8,8.8,0,0,0,9.01,9.01h2.574a3.862,3.862,0,0,1,0,7.723H88.321v5.149H93.47V86.96h5.149V81.811a9.138,9.138,0,0,0,7.723-9.01,8.8,8.8,0,0,0-9.01-9.01H94.757a3.862,3.862,0,1,1,0-7.723h9.01V50.918H98.618V45.769Z" transform="translate(-29.265 -19.698)" fill="#434a54" stroke="#fff" stroke-width="3.5"/>
  </g>
</svg>
