<?xml version="1.0" encoding="utf-8"?>
<!-- Generator: Adobe Illustrator 19.1.0, SVG Export Plug-In . SVG Version: 6.00 Build 0)  -->
<svg version="1.1" id="Layer_1" xmlns="http://www.w3.org/2000/svg" xmlns:xlink="http://www.w3.org/1999/xlink" x="0px" y="0px"
	 viewBox="-289 365 32 64" style="enable-background:new -289 365 32 64;" xml:space="preserve">
<style type="text/css">
	.st0{fill:#0c2c63;}
	.st1{fill:#2188C9;}
	.st2{fill:#FFFFFF;}
</style>
<g>
	<g>
		<path class="st0" d="M-279.3,375.4l10.7,5.8l0.4,0.2l0.5-0.1c0.2-0.1,0.5-0.1,1-0.3c1.5-0.4,3.9-1.1,6-1.6c0.1,0,0.2-0.1,0.5-0.1
			c0.6,0,1.3,0.1,1.7,0.4c0.1,0.1,0.1,0.1,0.2,0.1l0,0l0,0.1c0,0,0,0.2-0.1,0.4c-0.3,0.7-1.4,1.4-1.9,1.5l-18.5,5
			c-0.1,0-0.2,0-0.2,0c-1.5,0-3.7-0.5-5.2-1l7.8-2.1l1.6-0.4l-0.9-1.4l-4-6L-279.3,375.4 M-279.4,374c-0.1,0-0.3,0.1-0.4,0.1
			l-1.2,1.3c-0.1,0.2-0.2,0.4,0,0.6l4.4,6.5l-9.5,2.5c-0.4,0.1-0.5,0.4-0.4,0.6c0.2,1,5.2,2.3,7.6,2.3c0.2,0,0.3,0,0.4,0
			c0,0,0,0,0.1,0l18.5-5c0.7-0.2,2.1-1,2.7-2.2c0.2-0.4,0.3-0.9,0.2-1.2c-0.1-0.4-0.3-0.7-0.7-0.9c-0.6-0.4-1.6-0.5-2.4-0.5
			c-0.3,0-0.6,0-0.9,0.1c-2.6,0.7-6.1,1.6-7,1.9l-11.2-6C-279.3,374-279.3,374-279.4,374L-279.4,374z"/>
	</g>
	<path class="st1" d="M-286.2,384.6c-0.2,0-0.4,0-0.5-0.2l-2.2-3.2c-0.1-0.2-0.1-0.4,0.1-0.6l0.9-0.8c0.1-0.1,0.4-0.1,0.5-0.1l5,3
		c0.2,0.1,0.2,0.2,0.2,0.4c0,0.2-0.1,0.3-0.3,0.4L-286.2,384.6L-286.2,384.6z"/>
</g>
<g>
	<g>
		<path class="st2" d="M-279.3,407.4l10.7,5.8l0.4,0.2l0.5-0.1c0.2-0.1,0.5-0.1,1-0.3c1.5-0.4,3.9-1.1,6-1.6c0.1,0,0.2-0.1,0.5-0.1
			c0.6,0,1.3,0.1,1.7,0.4c0.1,0.1,0.1,0.1,0.2,0.1l0,0l0,0.1c0,0,0,0.2-0.1,0.4c-0.3,0.7-1.4,1.4-1.9,1.5l-18.5,5
			c-0.1,0-0.2,0-0.2,0c-1.5,0-3.7-0.5-5.2-1l7.8-2.1l1.6-0.4l-0.9-1.4l-4-6L-279.3,407.4 M-279.4,406c-0.1,0-0.3,0.1-0.4,0.1
			l-1.2,1.3c-0.1,0.2-0.2,0.4,0,0.6l4.4,6.5l-9.5,2.5c-0.4,0.1-0.5,0.4-0.4,0.6c0.2,1,5.2,2.3,7.6,2.3c0.2,0,0.3,0,0.4,0
			c0,0,0,0,0.1,0l18.5-5c0.7-0.2,2.1-1,2.7-2.2c0.2-0.4,0.3-0.9,0.2-1.2c-0.1-0.4-0.3-0.7-0.7-0.9c-0.6-0.4-1.6-0.5-2.4-0.5
			c-0.3,0-0.6,0-0.9,0.1c-2.6,0.7-6.1,1.6-7,1.9l-11.2-6C-279.3,406-279.3,406-279.4,406L-279.4,406z"/>
	</g>
	<path class="st1" d="M-286.2,416.6c-0.2,0-0.4,0-0.5-0.2l-2.2-3.2c-0.1-0.2-0.1-0.4,0.1-0.6l0.9-0.8c0.1-0.1,0.4-0.1,0.5-0.1l5,3
		c0.2,0.1,0.2,0.2,0.2,0.4c0,0.2-0.1,0.3-0.3,0.4L-286.2,416.6L-286.2,416.6z"/>
</g>
</svg>
