<svg xmlns="http://www.w3.org/2000/svg" width="65.68" height="25.008" viewBox="0 0 65.68 25.008">
  <g id="globalsign" transform="translate(-1500.007 -932.006)">
    <path id="Path_142" data-name="Path 142" d="M14.2.321a11.407,11.407,0,0,1,3.6.971A10.072,10.072,0,0,1,18.8,1.8c.123.072.445.062.3.316-.117.2-.249.491-.642.262A11.245,11.245,0,0,0,11.806.922,11.585,11.585,0,0,0,5.1,3.68,11.536,11.536,0,0,0,1.485,9.03a11.358,11.358,0,0,0,.335,8.3,11.411,11.411,0,0,0,8.813,7.057,11.335,11.335,0,0,0,9.472-2.37,11.4,11.4,0,0,0,4.371-7.74,11.169,11.169,0,0,0-.433-5.057c-.131-.382.107-.433.327-.52.306-.122.259.175.3.308a12.506,12.506,0,0,1-5.326,14.364,11.975,11.975,0,0,1-5.023,1.775,12.459,12.459,0,0,1-12.508-6.3A12.608,12.608,0,0,1,.341,14.529C.324,14.42.327,14.307.32,14.2c-.1-.126.023-.294-.08-.42V11.688c.087-.135.023-.285.043-.427a8.982,8.982,0,0,1,.959-3.722A12.421,12.421,0,0,1,7.558,1.231,8.758,8.758,0,0,1,11.449.283,1.649,1.649,0,0,0,12.021.24h1.755C13.9.343,14.07.225,14.2.321Z" transform="translate(1499.766 931.766)" fill="#c7c8c9"/>
    <path id="Path_144" data-name="Path 144" d="M32.385.319A.746.746,0,0,0,32.39.24h.585C32.8.4,32.582.3,32.385.319Z" transform="translate(1478.813 931.766)" fill="#d9d9da"/>
    <path id="Path_145" data-name="Path 145" d="M.24,31.915l.08,0c-.013.143.059.3-.08.42Z" transform="translate(1499.766 911.12)" fill="#e7e6e7"/>
    <path id="Path_146" data-name="Path 146" d="M39.54.321c-.142-.015-.3.059-.42-.081h.418A.631.631,0,0,0,39.54.321Z" transform="translate(1474.423 931.766)" fill="#e1e1e1"/>
    <path id="Path_147" data-name="Path 147" d="M.24,39.12c.14.118.066.277.081.42-.027,0-.054,0-.081,0Z" transform="translate(1499.766 906.422)" fill="#e1e1e1"/>
    <path id="Path_148" data-name="Path 148" d="M14.695,3.786a11.59,11.59,0,0,1,5.743,1.408c.241.132.3.233.191.508A3.923,3.923,0,0,0,21.2,9.827a4.089,4.089,0,0,0,4.019,1.594c.318-.046.483-.021.592.336A11.377,11.377,0,1,1,12.684,4,9.137,9.137,0,0,1,14.695,3.786Z" transform="translate(1497.591 929.456)" fill="#2188c9"/>
    <path id="Path_149" data-name="Path 149" d="M89.849,17.115c.12,0,.2.007.285,0,.342-.032.55,0,.632.451a1.778,1.778,0,0,0,2.115,1.122,1.991,1.991,0,0,0,1-.388.94.94,0,0,0-.113-1.627,5.693,5.693,0,0,0-1.623-.48,5.124,5.124,0,0,1-1.179-.39,1.57,1.57,0,0,1-.208-2.733,3,3,0,0,1,3.091-.19,1.833,1.833,0,0,1,1.02,1.614c0,.052.012.142-.008.15a2.05,2.05,0,0,1-.657.042c-.147.011-.147-.1-.156-.195-.088-.972-1.153-1.35-2.048-1.191a2.068,2.068,0,0,0-.436.133.956.956,0,0,0-.66.874.9.9,0,0,0,.608.862,6.8,6.8,0,0,0,1.635.452,3.241,3.241,0,0,1,1.275.477,1.691,1.691,0,0,1-.181,2.861,3.4,3.4,0,0,1-3.275.079C90.266,18.706,90.007,18.2,89.849,17.115Z" transform="translate(1441.356 923.748)" fill="#020202"/>
    <path id="Path_150" data-name="Path 150" d="M148.544,18.554a2.468,2.468,0,0,1-2.2,1.234,2.016,2.016,0,0,1-2.288-2.236c-.027-1.363.006-2.726-.013-4.09-.006-.406.26-.261.447-.277.2-.018.392-.061.384.291-.026,1.21-.012,2.42-.008,3.63a3.719,3.719,0,0,0,.039.581c.147.91.444,1.242,1.233,1.4a1.751,1.751,0,0,0,1.928-.831,3.223,3.223,0,0,0,.413-1.716c0-1,.02-2-.01-3-.011-.366.16-.359.42-.358s.42-.014.415.353c-.024,1.905-.021,3.811,0,5.717,0,.327-.094.383-.392.381-.282,0-.407-.059-.368-.363A6.372,6.372,0,0,0,148.544,18.554Z" transform="translate(1406.032 923.336)" fill="#020202"/>
    <path id="Path_151" data-name="Path 151" d="M59.39,8.8c-.891-1.106-1.76-2.188-2.635-3.266a.214.214,0,0,1,0-.322c.187-.224.359-.46.55-.708.6.478,1.213.939,1.8,1.432.229.194.335.192.535-.047.982-1.171,1.988-2.321,2.984-3.477a.349.349,0,0,1,.082.052c.565.731.566.732.045,1.492Q61.2,6.2,59.656,8.448C59.58,8.56,59.492,8.663,59.39,8.8Z" transform="translate(1462.977 930.353)" fill="#010201"/>
    <path id="Path_152" data-name="Path 152" d="M125.013,16.017a3.2,3.2,0,0,1,1.769-3.137,3.072,3.072,0,0,1,3.171.4,2.018,2.018,0,0,1,.586.94c.214.774.2.6-.479.629a.236.236,0,0,1-.266-.2,1.649,1.649,0,0,0-1.642-1.332,2.044,2.044,0,0,0-2,1.242,3.289,3.289,0,0,0,.446,3.578,1.852,1.852,0,0,0,1.94.534,1.8,1.8,0,0,0,1.311-1.47c.109-.538.492-.259.72-.257.254,0,.109.267.071.414a2.483,2.483,0,0,1-2.21,2.059,2.892,2.892,0,0,1-3.158-1.846A3.621,3.621,0,0,1,125.013,16.017Z" transform="translate(1418.439 923.701)" fill="#020202"/>
    <path id="Path_153" data-name="Path 153" d="M93.733,41.65c0,.96,0,.954-.963,1.088a2.973,2.973,0,0,1-1.317-.108,1.642,1.642,0,0,1-1.215-1.523,1.743,1.743,0,0,1,1.028-1.752,3.224,3.224,0,0,1,2.081-.146c.263.056.242.209.16.4-.067.157-.008.413-.346.3a2.093,2.093,0,0,0-1.069-.066,1.052,1.052,0,0,0-.937,1.091,1.083,1.083,0,0,0,.984,1.1c.15.02.3,0,.455.014.323.026.3-.187.307-.406s-.054-.352-.3-.314c-.32.049-.349-.127-.355-.39-.008-.306.166-.3.372-.29.042,0,.084,0,.125,0C93.733,40.649,93.733,40.649,93.733,41.65Z" transform="translate(1441.104 906.432)" fill="#0f68b3"/>
    <path id="Path_154" data-name="Path 154" d="M163.693,14.3a2.516,2.516,0,0,1,2.153-1.376c.2-.008.355,0,.288.238-.058.2.23.564-.26.59a2.086,2.086,0,0,0-1.977,1.454,2.148,2.148,0,0,0-.128.775c.007,1.057-.015,2.114.012,3.17.01.385-.216.3-.423.3s-.43.1-.425-.292q.031-2.919,0-5.839c0-.339.163-.311.377-.3.193.009.428-.078.391.285C163.667,13.634,163.693,13.969,163.693,14.3Z" transform="translate(1393.719 923.498)" fill="#020202"/>
    <path id="Path_155" data-name="Path 155" d="M138.835,39.055a4.934,4.934,0,0,1,.5.04c.482.085.507.157.339.627-.066.185-.134.192-.3.13a1.449,1.449,0,0,0-.778-.092c-.166.03-.341.091-.365.288s.129.269.271.329c.256.107.523.186.775.3a1.013,1.013,0,0,1,.681,1,1.063,1.063,0,0,1-.792.969,2.594,2.594,0,0,1-1.637-.039c-.42-.134-.112-.382-.1-.571.014-.291.2-.175.353-.116a1.813,1.813,0,0,0,.819.115c.2-.017.4-.055.449-.293s-.14-.34-.329-.413c-.155-.06-.315-.109-.472-.165q-1.021-.364-.889-1.176a1.182,1.182,0,0,1,1.225-.919c.083,0,.167,0,.25,0C138.835,39.062,138.835,39.058,138.835,39.055Z" transform="translate(1410.419 906.465)" fill="#0f68b3"/>
    <path id="Path_156" data-name="Path 156" d="M160.758,42.273a1.552,1.552,0,0,1,.7-.375.952.952,0,0,1,1.163.8,8.97,8.97,0,0,1,.056,1.623c.008.319-.243.188-.4.2s-.341.041-.332-.23c.013-.4,0-.807,0-1.211,0-.349-.142-.6-.518-.635-.329-.029-.582.265-.59.663s-.015.78,0,1.169c.013.3-.189.251-.361.246s-.377.076-.373-.234c.011-.71,0-1.42,0-2.129,0-.112-.011-.231.16-.224C160.5,41.946,160.785,41.84,160.758,42.273Z" transform="translate(1395.559 904.621)" fill="#1268b3"/>
    <path id="Path_157" data-name="Path 157" d="M100.466,54.815a1.489,1.489,0,0,1-.892-.117,1.128,1.128,0,0,0-1.189.092.547.547,0,0,0-.039.942,1.143,1.143,0,0,0,1.616-.252c-.3,0-.553,0-.809,0-.119,0-.24-.033-.237-.175s.126-.168.244-.169c.445,0,.89,0,1.335,0,.214,0,.224.123.195.272A.845.845,0,0,1,100.2,56,2.4,2.4,0,0,1,97.958,56a.768.768,0,0,1-.01-1.449,2.4,2.4,0,0,1,2.244,0,1.111,1.111,0,0,1,.206.14C100.425,54.715,100.435,54.758,100.466,54.815Z" transform="translate(1436.408 896.543)" fill="#1568b3"/>
    <path id="Path_158" data-name="Path 158" d="M107.638,55.318c-.084.285-.16.493-.206.708-.05.234-.175.3-.41.3-.255-.007-.274-.105-.206-.309.158-.474.308-.95.457-1.426.03-.094.043-.2.161-.217s.2.062.267.16l.613.952c.211-.325.387-.6.57-.873.074-.109.12-.271.3-.238.156.028.159.174.2.289.139.436.287.87.408,1.311.028.1.22.284-.028.328-.175.031-.434.132-.527-.165-.077-.246-.146-.5-.237-.81-.165.26-.292.47-.429.674-.17.252-.348.244-.512-.005C107.927,55.8,107.808,55.594,107.638,55.318Z" transform="translate(1430.318 896.484)" fill="#1168b3"/>
    <path id="Path_159" data-name="Path 159" d="M134.233,40.482c0,.529-.016,1.059.006,1.587.012.284-.115.321-.348.312-.206-.009-.374.015-.37-.291q.023-1.608,0-3.217c0-.307.165-.281.37-.29.234-.01.36.029.347.312C134.217,39.423,134.233,39.953,134.233,40.482Z" transform="translate(1412.888 906.773)" fill="#1b69b4"/>
    <path id="Path_160" data-name="Path 160" d="M102.868,40.5c0,.514-.01,1.028,0,1.541.007.238-.034.361-.313.338-.22-.018-.389.012-.382-.316q.033-1.582,0-3.166c-.007-.327.16-.3.381-.318.277-.022.321.1.314.337C102.857,39.442,102.868,39.97,102.868,40.5Z" transform="translate(1433.32 906.778)" fill="#0e67b2"/>
    <path id="Path_161" data-name="Path 161" d="M80.7,27.557V5.445h.041V27.557Z" transform="translate(1447.318 928.373)" fill="#a7a4a4"/>
    <path id="Path_162" data-name="Path 162" d="M147.282,43.347c0,.305-.014.611,0,.916.016.259-.051.361-.337.362s-.379-.081-.369-.374c.022-.637.019-1.277,0-1.915-.008-.269.1-.322.339-.321s.392.031.368.333C147.263,42.679,147.282,43.014,147.282,43.347Z" transform="translate(1404.377 904.535)" fill="#0f68b3"/>
    <path id="Path_163" data-name="Path 163" d="M147.264,39.139a.384.384,0,0,1-.384.4.369.369,0,0,1-.432-.387.359.359,0,0,1,.394-.383A.391.391,0,0,1,147.264,39.139Z" transform="translate(1404.463 906.648)" fill="#1f6ab4"/>
    <path id="Path_164" data-name="Path 164" d="M94.5,57.579c.18-.092.021-.517.3-.419.191.068-.011.345-.052.523a2.539,2.539,0,0,1-.184.547.217.217,0,0,1-.314.11c-.137-.093-.01-.149.048-.243.124-.2-.085-.383-.107-.582-.014-.126-.234-.295-.014-.369s.177.186.237.307C94.435,57.5,94.421,57.565,94.5,57.579Z" transform="translate(1438.599 894.68)" fill="#266cb5"/>
    <path id="Path_165" data-name="Path 165" d="M27.153,28.839q-2.212,0-4.424,0c-.568,0-.682-.115-.683-.687q0-3.13,0-6.261c0-.549.136-.7.691-.676.357.018.4-.126.4-.43a10.465,10.465,0,0,1,.076-2.2,4.067,4.067,0,0,1,8.044.725c.02.528.022,1.057.016,1.585,0,.221.045.317.3.322.712.013.775.091.775.806q0,3.047,0,6.094c0,.626-.1.727-.727.727Q29.386,28.841,27.153,28.839Z" transform="translate(1485.554 921.914)" fill="#fff"/>
    <g id="Group_57" data-name="Group 57" transform="translate(1559.914 936.323)">
      <path id="Path_166" data-name="Path 166" d="M173.422,16.283c.723.008,1.447,0,2.17,0s1.419-.016,2.128.008c.307.01.379-.1.357-.378a6.78,6.78,0,0,0-.178-1.149,2.786,2.786,0,0,0-5.351-.221,4.812,4.812,0,0,0-.236,1.8c.045,1.509.838,3.217,3.112,3.1a2.6,2.6,0,0,0,2.551-2.038c.02-.086.079-.189-.017-.269-.177-.146-.729.031-.819.26a1.9,1.9,0,0,1-1.3,1.293,2.15,2.15,0,0,1-2.7-2.142C173.12,16.306,173.223,16.281,173.422,16.283Zm-.281-.842a2.275,2.275,0,0,1,2-2.11,2.129,2.129,0,0,1,2.1,2.1c.024.229-.144.157-.249.158-.6.006-1.2,0-1.793,0s-1.2,0-1.793,0C173.3,15.588,173.151,15.668,173.141,15.44Z" transform="translate(-172.308 -12.64)" fill="#020202"/>
      <path id="Path_167" data-name="Path 167" d="M174.96,16.88c.6.007,1.2,0,1.793,0s1.2,0,1.793,0c.1,0,.273.071.249-.158a2.129,2.129,0,0,0-2.1-2.1,2.275,2.275,0,0,0-2,2.11C174.708,16.958,174.859,16.879,174.96,16.88Z" transform="translate(-173.866 -13.931)" fill="#fff"/>
    </g>
    <g id="Group_58" data-name="Group 58" transform="translate(1537.086 936.319)">
      <path id="Path_168" data-name="Path 168" d="M112.408,17.12a.712.712,0,0,0-.813.285,1.905,1.905,0,0,1-1.308,1.283,2.156,2.156,0,0,1-2.7-2.161c-.018-.218.076-.253.264-.251.738.008,1.476,0,2.213,0,.7,0,1.393-.019,2.088.008.332.013.389-.1.373-.4a4.579,4.579,0,0,0-.28-1.464,2.556,2.556,0,0,0-2.292-1.78,2.593,2.593,0,0,0-2.713,1.392,4.386,4.386,0,0,0-.148,3.781,2.451,2.451,0,0,0,1.9,1.576,3.908,3.908,0,0,0,1.206.026,2.492,2.492,0,0,0,2.246-2.079C112.466,17.262,112.512,17.18,112.408,17.12Zm-4.784-1.814a2.42,2.42,0,0,1,1.259-1.808,1.969,1.969,0,0,1,2.723,1.442c0,.014,0,.028.006.041.14.605.14.605-.467.605H109.6c-.584,0-1.168-.011-1.752.005C107.61,15.6,107.57,15.529,107.624,15.306Z" transform="translate(-106.74 -12.629)" fill="#020202"/>
      <path id="Path_169" data-name="Path 169" d="M109.465,16.881c.584-.016,1.168-.005,1.752-.005h1.544c.606,0,.606,0,.467-.605,0-.014,0-.028-.006-.041a1.969,1.969,0,0,0-2.723-1.442A2.419,2.419,0,0,0,109.24,16.6C109.186,16.819,109.225,16.887,109.465,16.881Z" transform="translate(-108.356 -13.919)" fill="#fff"/>
    </g>
    <g id="Group_59" data-name="Group 59" transform="translate(1552.21 946.502)">
      <path id="Path_170" data-name="Path 170" d="M152.933,42.27c.015-.292-.13-.457-.327-.321-.394.271-.687-.036-1.023-.068a1.211,1.211,0,0,0-.249,0,1.253,1.253,0,0,0-1.095.944,1.343,1.343,0,0,0,.44,1.462,1.252,1.252,0,0,0,1.5-.063c.08.731-.448,1.056-1.281.794-.144-.046-.305-.222-.4.1-.088.287.016.381.253.44a2.774,2.774,0,0,0,.742.083c.915-.024,1.337-.382,1.4-1.292C152.946,43.66,152.9,42.962,152.933,42.27Zm-1.356,1.724a.8.8,0,0,1,0-1.586c.425-.009.634.25.633.784S151.984,44,151.577,43.994Z" transform="translate(-150.18 -41.875)" fill="#1068b3"/>
      <path id="Path_171" data-name="Path 171" d="M152.894,43.406a.8.8,0,0,0,0,1.586c.408,0,.629-.278.63-.8S153.319,43.4,152.894,43.406Z" transform="translate(-151.5 -42.873)" fill="#fcfcfe"/>
    </g>
    <g id="Group_60" data-name="Group 60" transform="translate(1540.147 945.349)">
      <path id="Path_172" data-name="Path 172" d="M118.157,40.228a1.13,1.13,0,0,0-.91-.511,1.41,1.41,0,0,0-.994.361c0-.415-.01-.763,0-1.11.009-.248,0-.41-.336-.4-.31.006-.359.116-.355.39.014,1.015,0,2.031,0,3.046,0,.131-.139.333.124.357.215.019.493.105.49-.285a1.3,1.3,0,0,0,1.791.011A1.58,1.58,0,0,0,118.157,40.228Zm-1.207,1.646a.681.681,0,0,1-.7-.759c-.008-.533.253-.853.694-.853a.813.813,0,0,1,0,1.612Z" transform="translate(-115.533 -38.563)" fill="#0f68b3"/>
      <path id="Path_173" data-name="Path 173" d="M118.294,43.44c-.442,0-.7.321-.694.853a.681.681,0,0,0,.7.759.812.812,0,0,0,0-1.612Z" transform="translate(-116.88 -41.742)" fill="#fdfdfe"/>
    </g>
    <g id="Group_61" data-name="Group 61" transform="translate(1536.759 946.498)">
      <path id="Path_174" data-name="Path 174" d="M107.261,41.866a1.33,1.33,0,0,0-1.46,1.353,1.292,1.292,0,0,0,1.388,1.368,1.344,1.344,0,0,0,1.466-1.354A1.3,1.3,0,0,0,107.261,41.866Zm-.065,2.217a.794.794,0,0,1-.7-.844.776.776,0,0,1,.722-.859c.431,0,.7.327.7.857S107.623,44.1,107.2,44.083Z" transform="translate(-105.801 -41.866)" fill="#1068b3"/>
      <path id="Path_175" data-name="Path 175" d="M108.522,43.346a.776.776,0,0,0-.722.859.794.794,0,0,0,.7.844c.426.012.717-.329.72-.845S108.953,43.342,108.522,43.346Z" transform="translate(-107.104 -42.83)" fill="#fdfdfe"/>
    </g>
    <g id="Group_62" data-name="Group 62" transform="translate(1543.346 946.499)">
      <path id="Path_176" data-name="Path 176" d="M127.081,44.155c.007-.18,0-.361,0-.542h-.008c0-.25.015-.5,0-.75a.951.951,0,0,0-.695-.936,2.1,2.1,0,0,0-1.229.072c-.16.055-.261.115-.185.329s.179.19.344.132a1.051,1.051,0,0,1,.81-.041c.131.059.255.157.218.315-.033.142-.186.089-.285.094a1.921,1.921,0,0,0-.878.228.808.808,0,0,0,.4,1.532,1.079,1.079,0,0,0,.669-.189c.106-.075.144-.105.243.033.13.182.367.1.539.058C127.162,44.452,127.076,44.272,127.081,44.155Zm-1.285-.069a.345.345,0,0,1-.368-.319c-.034-.27.284-.47.738-.5.182-.012.25.043.243.226A.609.609,0,0,1,125.8,44.086Z" transform="translate(-124.723 -41.866)" fill="#1168b3"/>
      <path id="Path_177" data-name="Path 177" d="M127.481,45.888c-.455.029-.772.229-.738.5a.345.345,0,0,0,.368.319.609.609,0,0,0,.614-.592C127.731,45.931,127.663,45.876,127.481,45.888Z" transform="translate(-126.038 -44.487)" fill="#f7f8fc"/>
    </g>
    <g id="Group_63" data-name="Group 63" transform="translate(1540.154 950.829)">
      <path id="Path_178" data-name="Path 178" d="M118.517,54.715a2.358,2.358,0,0,0-2.683.018.7.7,0,0,0,.028,1.144,2.109,2.109,0,0,0,1.294.413,2.19,2.19,0,0,0,1.324-.383A.7.7,0,0,0,118.517,54.715ZM117.2,55.987c-.537,0-.987-.313-.986-.691s.451-.695.986-.69.988.339.971.711C118.155,55.671,117.7,55.984,117.2,55.987Z" transform="translate(-115.553 -54.305)" fill="#1368b3"/>
      <path id="Path_179" data-name="Path 179" d="M118.437,55.167c-.535,0-.985.311-.986.69s.45.694.986.691c.5,0,.955-.315.971-.671C119.425,55.506,118.968,55.171,118.437,55.167Z" transform="translate(-116.79 -54.867)" fill="#fdfefe"/>
    </g>
    <g id="Group_64" data-name="Group 64" transform="translate(1531.723 951.446)">
      <path id="Path_180" data-name="Path 180" d="M92.237,56.781a.408.408,0,0,0-.429-.372c-.075,0-.167.069-.193-.069-.02-.11.039-.3-.163-.259-.167.033-.077.208-.092.32a2.585,2.585,0,0,0,0,.325c.039.181-.112.475.072.594a.6.6,0,0,0,.632-.02A.475.475,0,0,0,92.237,56.781Zm-.427.358c-.155,0-.21-.1-.2-.25s.04-.263.2-.25a.217.217,0,0,1,.191.269C91.982,57.02,91.95,57.137,91.81,57.138Z" transform="translate(-91.336 -56.075)" fill="#1e6ab4"/>
      <path id="Path_181" data-name="Path 181" d="M92.306,57.69c-.157-.013-.2.117-.2.25s.049.251.2.25.172-.118.184-.231A.217.217,0,0,0,92.306,57.69Z" transform="translate(-91.839 -57.127)" fill="#f3f4fa"/>
    </g>
    <path id="Path_182" data-name="Path 182" d="M31.471,23.409c-.848,0-1.7-.011-2.544.006-.277.006-.366-.081-.351-.354a20.317,20.317,0,0,1,.062-2.288,2.915,2.915,0,0,1,3.121-2.562A3,3,0,0,1,34.4,21.124c.028.652,0,1.307.021,1.959.008.253-.064.337-.325.332C33.223,23.4,32.347,23.409,31.471,23.409Z" transform="translate(1481.297 920.056)" fill="#2188c9"/>
    <path id="Path_183" data-name="Path 183" d="M34.679,41.685c-.772,0-.774,0-.712-.76.017-.207.054-.413.068-.62.032-.451.134-.869-.277-1.282A1.037,1.037,0,0,1,34,37.516a1.112,1.112,0,0,1,1.505.143,1.075,1.075,0,0,1,0,1.5.686.686,0,0,0-.221.687c.075.464.079.94.16,1.4.062.356-.033.488-.392.435A2.58,2.58,0,0,0,34.679,41.685Z" transform="translate(1478.07 907.618)" fill="#2188c9"/>
  </g>
</svg>
