<svg xmlns="http://www.w3.org/2000/svg" width="32" height="32" viewBox="0 0 32 32">
  <g id="head_ic3" transform="translate(-3742 -350)">
    <rect id="Rectangle_147" data-name="Rectangle 147" width="32" height="32" transform="translate(3742 350)" fill="none"/>
    <path id="Path_212" data-name="Path 212" d="M16,3A13,13,0,1,0,29,16,13.016,13.016,0,0,0,16,3Zm0,2.167A10.833,10.833,0,1,1,5.167,16,10.817,10.817,0,0,1,16,5.167ZM14.686,9.5l.218,8.667H17.1L17.314,9.5ZM16,20.128a1.257,1.257,0,0,0-1.435,1.3c0,.8.538,1.28,1.435,1.28a1.3,1.3,0,1,0,0-2.577Z" transform="translate(3742 348)" fill="#738ba4" opacity="0.85"/>
  </g>
</svg>
