<svg xmlns="http://www.w3.org/2000/svg" width="20" height="20" viewBox="0 0 20 20">
  <g id="ic_nav6" transform="translate(-219 -387)">
    <rect id="Rectangle_76" data-name="Rectangle 76" width="20" height="20" transform="translate(219 387)" fill="none"/>
    <g id="Group_76" data-name="Group 76" transform="translate(-6 -31)">
      <path id="Path_188" data-name="Path 188" d="M3.385,5A1.384,1.384,0,0,0,2,6.385V18.846H20V6.385A1.384,1.384,0,0,0,18.615,5Zm.692,2.077.692.692.692-.692.692.692.692-.692.692.692.692-.692.692.692.692-.692.692.692L11,7.077l.692.692.692-.692.692.692.692-.692.692.692.692-.692.692.692.692-.692.692.692.692-.692.692.692v9.692H3.385V7.769ZM14.525,9.154v.7a1.631,1.631,0,0,0-1.418,1.61c0,.822.481,1.332,1.463,1.537l.7.15c.661.142.93.339.93.683,0,.407-.414.691-1,.691-.635,0-1.075-.28-1.128-.717H12.982a1.678,1.678,0,0,0,1.543,1.574v.691h1.258v-.694A1.678,1.678,0,0,0,17.324,13.7c0-.836-.467-1.3-1.55-1.531l-.649-.139c-.631-.134-.888-.325-.888-.657,0-.411.374-.672.937-.672a.9.9,0,0,1,.994.71h1.06a1.677,1.677,0,0,0-1.445-1.551v-.7ZM5.462,10.538a.692.692,0,1,0,0,1.385h4.846a.692.692,0,1,0,0-1.385Zm0,2.769a.692.692,0,1,0,0,1.385H7.538a.692.692,0,1,0,0-1.385Z" transform="translate(224 416)" fill="#ed2124"/>
    </g>
  </g>
</svg>
