<svg xmlns="http://www.w3.org/2000/svg" width="20" height="20" viewBox="0 0 20 20">
  <g id="ic_nav3" transform="translate(-222 -295)">
    <rect id="Rectangle_73" data-name="Rectangle 73" width="20" height="20" transform="translate(222 295)" fill="none"/>
    <g id="Group_78" data-name="Group 78" transform="translate(-32 -8)">
      <g id="Group_73" data-name="Group 73" transform="translate(-15 34)">
        <path id="Path_184" data-name="Path 184" d="M9.5,1a2.235,2.235,0,0,0-1.666.75H6.711a.75.75,0,0,0-.728.932L6.5,4.75h6l.517-2.068a.75.75,0,0,0-.728-.932H11.166A2.235,2.235,0,0,0,9.5,1Zm-3,5.25A8.725,8.725,0,0,0,2,13.75a4.754,4.754,0,0,0,1.083,3.259A1.48,1.48,0,0,0,4.2,17.5H14.8a1.479,1.479,0,0,0,1.116-.491A4.75,4.75,0,0,0,17,13.75a8.727,8.727,0,0,0-4.5-7.5Z" transform="translate(269 270)" fill="#ed2124"/>
      </g>
      <path id="Path_190" data-name="Path 190" d="M20,0a.666.666,0,0,0-.667.667V.789A2,2,0,0,0,18,2.667c0,1.369,1.3,1.8,1.809,1.971.858.257.858.49.858.7A.667.667,0,0,1,20,6a.87.87,0,0,1-.762-.344.667.667,0,0,0-1.143.686,2.036,2.036,0,0,0,1.238.9v.1a.667.667,0,0,0,1.333,0V7.211A2,2,0,0,0,22,5.333a2.115,2.115,0,0,0-1.789-1.966c-.877-.292-.878-.538-.878-.7A.667.667,0,0,1,20,2a.871.871,0,0,1,.762.344A.667.667,0,0,0,21.9,1.658a2.036,2.036,0,0,0-1.238-.9v-.1A.666.666,0,0,0,20,0Z" transform="translate(244 312)" fill="#fff"/>
    </g>
  </g>
</svg>
