<svg xmlns="http://www.w3.org/2000/svg" width="32" height="32" viewBox="0 0 32 32">
  <g id="menu2_ic8" transform="translate(-517 -808)">
    <g id="Group_284" data-name="Group 284" transform="translate(-474.896 -1165.212)">
      <path id="Path_17" data-name="Path 17" d="M1654.259,694.261l-10.688,2.991c0,14.4,10.688,17.009,10.688,17.009s10.688-2.609,10.688-17.009Z" transform="translate(-650.675 1282.951)" fill="#ed2124" stroke="#ed2124" stroke-width="2"/>
      <path id="Path_18" data-name="Path 18" d="M1685.668,746.148a13.241,13.241,0,0,1-4.7-2.8,14.276,14.276,0,0,1-3.413-4.779,19.69,19.69,0,0,1-1.564-7.63l9.672-2.654,9.671,2.654a19.632,19.632,0,0,1-1.595,7.7,14.247,14.247,0,0,1-3.462,4.784A13.069,13.069,0,0,1,1685.668,746.148Z" transform="translate(-682.082 1249.992)" fill="#f5fbff" stroke="#fff" stroke-width="1"/>
      <path id="Path_19" data-name="Path 19" d="M1701.516,762.083a12.8,12.8,0,0,1-4.333-2.6,13.7,13.7,0,0,1-3.307-4.581,18.721,18.721,0,0,1-1.522-7.118l9.159-2.484,9.159,2.484a18.671,18.671,0,0,1-1.552,7.183,13.661,13.661,0,0,1-3.355,4.585A12.664,12.664,0,0,1,1701.516,762.083Z" transform="translate(-697.928 1233.511)" fill="#738ba4"/>
      <path id="Path_20" data-name="Path 20" d="M2014.255,762.083a14.351,14.351,0,0,0,4.681-2.53,13.821,13.821,0,0,0,3.7-4.585,17.226,17.226,0,0,0,1.71-7.183l-10.092-2.484v16.78Z" transform="translate(-1011.601 1233.511)" fill="#738ba4"/>
      <g id="Group_6" data-name="Group 6" transform="translate(998.458 1982.907)">
        <path id="Path_21" data-name="Path 21" d="M1857.1,976.309l-3.69-2.979a.879.879,0,0,1-.132-1.236h0a.879.879,0,0,1,1.236-.132l2.421,1.955a.879.879,0,0,0,1.193-.082l4.5-4.786a.879.879,0,0,1,1.242-.039h0a.879.879,0,0,1,.039,1.242l-5.612,5.975A.879.879,0,0,1,1857.1,976.309Z" transform="translate(-1853.088 -968.771)" fill="#f5fbff"/>
      </g>
    </g>
    <rect id="Rectangle_157" data-name="Rectangle 157" width="32" height="32" transform="translate(517 808)" fill="none"/>
  </g>
</svg>
