<svg xmlns="http://www.w3.org/2000/svg" width="32" height="32" viewBox="0 0 32 32">
  <g id="menu2_ic2" transform="translate(-559 -654)">
    <g id="Group_95" data-name="Group 95" transform="translate(198 212)">
      <g id="Group_76" data-name="Group 76" transform="translate(365.4 452.1)">
        <path id="Path_188" data-name="Path 188" d="M16.286,8.462v.863A2,2,0,0,0,14.544,11.3c0,1.009.591,1.635,1.8,1.888l.862.184c.812.174,1.142.417,1.142.838,0,.5-.509.848-1.229.848-.779,0-1.32-.344-1.385-.88h-1.34a2.06,2.06,0,0,0,1.894,1.932v.848H17.83V16.11a2.06,2.06,0,0,0,1.893-2.07c0-1.027-.573-1.6-1.9-1.879l-.8-.171c-.775-.165-1.091-.4-1.091-.807,0-.5.459-.825,1.15-.825a1.1,1.1,0,0,1,1.22.872h1.3a2.059,2.059,0,0,0-1.775-1.9V8.462Zm-11.128,1.7a.85.85,0,1,0,0,1.7h5.95a.85.85,0,1,0,0-1.7Zm0,3.4a.85.85,0,1,0,0,1.7h2.55a.85.85,0,1,0,0-1.7Z" transform="translate(-4.308 -8.462)" fill="#ed2124"/>
      </g>
      <g id="Group_94" data-name="Group 94" transform="translate(362 447)">
        <path id="Path_188-2" data-name="Path 188" d="M3.7,5A1.7,1.7,0,0,0,2,6.7V22H24.1V6.7A1.7,1.7,0,0,0,22.4,5Zm.85,2.55.85.85.85-.85.85.85.85-.85.85.85.85-.85.85.85.85-.85.85.85.85-.85.85.85.85-.85.85.85.85-.85.85.85.85-.85L19,8.4l.85-.85.85.85.85-.85.85.85V20.3H3.7V8.4Z" transform="translate(-2 -5)" fill="#738ba4"/>
      </g>
    </g>
    <rect id="Rectangle_158" data-name="Rectangle 158" width="32" height="32" transform="translate(559 654)" fill="none"/>
  </g>
</svg>
