<svg xmlns="http://www.w3.org/2000/svg" width="32" height="32" viewBox="0 0 32 32">
  <g id="menu1_ic8" transform="translate(-1828 -1610)">
    <rect id="Rectangle_102" data-name="Rectangle 102" width="32" height="32" transform="translate(1828 1610)" fill="none"/>
    <g id="Group_122" data-name="Group 122" transform="translate(59 -12)">
      <path id="Path_215" data-name="Path 215" d="M15.95,2a1.114,1.114,0,0,0-.525.109L12.782,3.406,10.137,2.113a1.074,1.074,0,0,0-1.415.451L7.29,5.191l-2.9.508a1.075,1.075,0,0,0-.88,1.2L3.9,9.861,1.849,11.975a1.076,1.076,0,0,0-.008,1.486L3.9,15.634l-.411,2.914a1.074,1.074,0,0,0,.865,1.207l2.941.55L8.67,22.9a1.071,1.071,0,0,0,1.409.468l2.7-1.283h0l2.643,1.293a1.075,1.075,0,0,0,1.415-.449l1.432-2.626,2.9-.51a1.075,1.075,0,0,0,.88-1.2l-.382-2.964,2.045-2.116a1.073,1.073,0,0,0,.008-1.484L21.668,9.861l.411-2.914a1.076,1.076,0,0,0-.867-1.207l-2.939-.55-1.379-2.6a1.217,1.217,0,0,0-.43-.441A1.088,1.088,0,0,0,15.95,2Zm-.485,2.479,1.155,2.179a1.073,1.073,0,0,0,.764.554l2.422.447-.34,2.418a1.069,1.069,0,0,0,.29.9l1.7,1.786-1.331,1.377-.365.378a1.072,1.072,0,0,0-.29.9l.321,2.441-2.4.422a1.075,1.075,0,0,0-.762.554L15.446,21l-2.194-1.073a1.073,1.073,0,0,0-.943,0l-2.223,1.062L8.942,18.833a1.069,1.069,0,0,0-.762-.554l-2.423-.447.34-2.414a1.073,1.073,0,0,0-.292-.9l-1.7-1.784,1.7-1.753a1.077,1.077,0,0,0,.292-.9L5.775,7.638,8.18,7.216a1.071,1.071,0,0,0,.762-.554l1.173-2.168L12.31,5.566a1.075,1.075,0,0,0,.943,0Z" transform="translate(1772.453 1623.997)" fill="#738ba4"/>
      <path id="Path_216" data-name="Path 216" d="M14.881,7.551l-6.453,8.6,1.289.968,6.453-8.6Zm-5.269.483a1.612,1.612,0,1,0,1.612,1.612A1.613,1.613,0,0,0,9.612,8.034Zm5.374,5.374A1.612,1.612,0,1,0,16.6,15.02,1.613,1.613,0,0,0,14.986,13.408Z" transform="translate(1772.986 1624.898)" fill="#ed2124"/>
    </g>
  </g>
</svg>
