<svg xmlns="http://www.w3.org/2000/svg" width="292.427" height="160" viewBox="0 0 292.427 160">
  <g id="pics" transform="translate(-1038 -281)">
    <g id="Group_31" data-name="Group 31" transform="translate(-196.285 -380.058)">
      <ellipse id="Ellipse_1" data-name="Ellipse 1" cx="146.213" cy="24.019" rx="146.213" ry="24.019" transform="translate(1234.285 773.021)" fill="#ebfaff"/>
      <g id="Group_30" data-name="Group 30" transform="translate(1251.242 661.058)">
        <g id="Group_5" data-name="Group 5" transform="translate(80.167 16.324)">
          <path id="Path_14" data-name="Path 14" d="M2247.671,1414.493h-36.96l4.806-21.9h27.347Z" transform="translate(-2157.49 -1299.058)" fill="#0c336b"/>
          <g id="Group_4" data-name="Group 4">
            <path id="Rectangle_6" data-name="Rectangle 6" d="M36.866,0h69.67A36.866,36.866,0,0,1,143.4,36.866V89.833a0,0,0,0,1,0,0H0a0,0,0,0,1,0,0V36.866A36.866,36.866,0,0,1,36.866,0Z" fill="#0c336b"/>
            <g id="Group_3" data-name="Group 3" transform="translate(7.038 7.249)">
              <g id="Group_2" data-name="Group 2">
                <g id="Group_1" data-name="Group 1">
                  <rect id="Rectangle_7" data-name="Rectangle 7" width="129.326" height="77.266" fill="#f3fcff"/>
                </g>
              </g>
            </g>
            <rect id="Rectangle_8" data-name="Rectangle 8" width="35.338" height="27.795" transform="translate(86.475 48.609)" fill="#caf0ff"/>
            <rect id="Rectangle_9" data-name="Rectangle 9" width="42.787" height="12.098" transform="translate(37.812 48.609)" fill="#caf0ff"/>
            <rect id="Rectangle_10" data-name="Rectangle 10" width="42.787" height="12.098" transform="translate(37.812 63.929)" fill="#caf0ff"/>
            <rect id="Rectangle_11" data-name="Rectangle 11" width="100.223" height="14.023" transform="translate(21.59 18.623)" fill="#caf0ff"/>
            <rect id="Rectangle_12" data-name="Rectangle 12" width="100.223" height="5.776" transform="translate(21.59 37.18)" fill="#caf0ff"/>
            <path id="Path_15" data-name="Path 15" d="M1926.239,1372.793v7.907a6.9,6.9,0,0,0,6.9,6.9h129.608a6.9,6.9,0,0,0,6.9-6.9v-7.907Z" transform="translate(-1926.239 -1282.96)" fill="#4073bc"/>
          </g>
          <path id="Path_16" data-name="Path 16" d="M2191.99,1505.026h-70.251a6.257,6.257,0,0,1,6.257-6.256h57.739a6.256,6.256,0,0,1,6.256,6.256Z" transform="translate(-2085.163 -1385.369)" fill="#4073bc"/>
          <circle id="Ellipse_2" data-name="Ellipse 2" cx="2.635" cy="2.635" r="2.635" transform="translate(69.066 94.6)" fill="#08bfff"/>
        </g>
        <g id="Group_7" data-name="Group 7" transform="translate(42.939 6.212)">
          <path id="Path_17" data-name="Path 17" d="M1712.92,694.261l-69.349,19.408c0,93.433,69.349,110.362,69.349,110.362s69.349-16.929,69.349-110.362Z" transform="translate(-1643.571 -694.261)" fill="#0c336b"/>
          <path id="Path_18" data-name="Path 18" d="M1739.294,845.29a86.6,86.6,0,0,1-30.737-18.328,93.525,93.525,0,0,1-22.328-31.308c-6.417-14.45-9.856-31.249-10.235-49.983l63.283-17.384,63.283,17.384c-.384,18.926-3.889,35.876-10.434,50.428a93.346,93.346,0,0,1-22.653,31.338A85.467,85.467,0,0,1,1739.294,845.29Z" transform="translate(-1669.928 -721.921)" fill="#f5fbff"/>
          <path id="Path_19" data-name="Path 19" d="M1752.6,855.865a84.082,84.082,0,0,1-28.489-17.122,90.178,90.178,0,0,1-21.747-30.183c-6.1-13.577-9.46-29.345-10.011-46.893l60.223-16.364,60.223,16.364c-.556,17.734-3.987,33.648-10.205,47.325a90.01,90.01,0,0,1-22.06,30.209A83.2,83.2,0,0,1,1752.6,855.865Z" transform="translate(-1683.227 -735.752)" fill="#74b349"/>
          <path id="Path_20" data-name="Path 20" d="M2014.274,855.865a83.2,83.2,0,0,0,27.934-16.666,90,90,0,0,0,22.06-30.209c6.219-13.677,9.649-29.591,10.205-47.325L2014.251,745.3V855.857Z" transform="translate(-1944.902 -735.752)" fill="#a9e07e"/>
          <g id="Group_6" data-name="Group 6" transform="translate(39.198 38.823)">
            <path id="Path_21" data-name="Path 21" d="M1877.058,1013.752l-22.02-17.779a5.244,5.244,0,0,1-.786-7.374h0a5.244,5.244,0,0,1,7.375-.786l14.449,11.666a5.244,5.244,0,0,0,7.117-.49l26.826-28.563a5.244,5.244,0,0,1,7.412-.232h0a5.244,5.244,0,0,1,.233,7.413l-33.488,35.657A5.244,5.244,0,0,1,1877.058,1013.752Z" transform="translate(-1853.088 -968.771)" fill="#f5fbff"/>
          </g>
        </g>
        <g id="Group_10" data-name="Group 10" transform="translate(0 47.244)">
          <g id="Group_8" data-name="Group 8" transform="translate(12.567)">
            <path id="Path_22" data-name="Path 22" d="M1435.565,1096.322h-43.471v-24.015A14.423,14.423,0,0,1,1406.5,1057.9h14.659a14.422,14.422,0,0,1,14.406,14.406Zm-35.127-8.344h26.784v-15.671a6.069,6.069,0,0,0-6.063-6.062H1406.5a6.069,6.069,0,0,0-6.062,6.063Z" transform="translate(-1392.094 -1057.901)" fill="#caf0ff"/>
          </g>
          <g id="Group_9" data-name="Group 9" transform="translate(12.567 6.194)">
            <path id="Path_23" data-name="Path 23" d="M1457.411,1091.008h-14.659a6.069,6.069,0,0,0-6.062,6.063v2.15a6.069,6.069,0,0,1,6.063-6.063h14.659a6.069,6.069,0,0,1,6.063,6.063v-2.15A6.069,6.069,0,0,0,1457.411,1091.008Z" transform="translate(-1428.347 -1091.008)" fill="#08bfff"/>
            <rect id="Rectangle_13" data-name="Rectangle 13" width="43.471" height="2.15" transform="translate(0 30.077)" fill="#e4ebf9"/>
          </g>
          <rect id="Rectangle_14" data-name="Rectangle 14" width="68.604" height="66.825" rx="28.793" transform="translate(0 21.912)" fill="#264eab"/>
          <path id="Path_24" data-name="Path 24" d="M1491.3,1311.6a5.074,5.074,0,1,0-6.986,4.7v5.936a1.912,1.912,0,0,0,3.823,0V1316.3A5.073,5.073,0,0,0,1491.3,1311.6Z" transform="translate(-1451.922 -1260.012)" fill="#fff"/>
        </g>
        <g id="Group_18" data-name="Group 18" transform="translate(39.758 61.309)">
          <g id="Group_14" data-name="Group 14" transform="translate(0 28.375)">
            <g id="Group_13" data-name="Group 13" transform="translate(3.631)">
              <rect id="Rectangle_15" data-name="Rectangle 15" width="8.849" height="6.871" fill="#cad0e0"/>
              <g id="Group_12" data-name="Group 12" transform="translate(2.468 2.463)">
                <g id="Group_11" data-name="Group 11">
                  <rect id="Rectangle_16" data-name="Rectangle 16" width="1.399" height="1.946" fill="#113b84"/>
                  <rect id="Rectangle_17" data-name="Rectangle 17" width="1.399" height="1.946" transform="translate(2.514)" fill="#113b84"/>
                </g>
              </g>
            </g>
            <rect id="Rectangle_18" data-name="Rectangle 18" width="16.111" height="39.426" rx="8.056" transform="translate(0 6.871)" fill="#fff"/>
            <rect id="Rectangle_19" data-name="Rectangle 19" width="10.175" height="24.934" rx="5.087" transform="translate(2.968 16.887)" fill="#a9e07e"/>
          </g>
          <g id="Group_17" data-name="Group 17" transform="translate(3.845)">
            <path id="Path_25" data-name="Path 25" d="M1757.268,1181.657c1.905-1.48,1.2-11.433,1.2-11.433s.857-2.991.387-3.945a1.756,1.756,0,0,0-1.723-1.175,2.267,2.267,0,0,0-1.882.856,2.907,2.907,0,0,0-.291,2.015,14.4,14.4,0,0,0,.984,2.449c.008.908-2.832,9.364-3.134,9.417C1752.811,1179.841,1755.363,1183.138,1757.268,1181.657Z" transform="translate(-1725.284 -1159.112)" fill="#fdc78b"/>
            <path id="Path_26" data-name="Path 26" d="M1691.979,1193.63c-1.653-.293-5.075.076-3.834,3.59,1.5,4.258,12.419,6.739,12.419,6.739h0a8.385,8.385,0,0,0,2.853.266,1.713,1.713,0,0,0,.9-.262l.035-.016a1.032,1.032,0,0,0,.539-.617c1.388-2.6.977-10.932.977-10.932l-2.892.229a53.233,53.233,0,0,1-1.854,6.567S1693.632,1193.923,1691.979,1193.63Z" transform="translate(-1672.501 -1181.299)" fill="#08bfff"/>
            <path id="Path_27" data-name="Path 27" d="M1661.414,1508.6l-1.281,2.481c.549.685,5.959,2.9,6.243,2.823s-2.588-3.648-2.588-3.648Z" transform="translate(-1649.944 -1438.345)" fill="#0c336b"/>
            <path id="Path_28" data-name="Path 28" d="M1712.139,1521.153l-.073,2.958h6.858c.22-.2-3.826-2.958-3.826-2.958Z" transform="translate(-1692.162 -1448.549)" fill="#0c336b"/>
            <path id="Path_29" data-name="Path 29" d="M1668.082,1327.141l-.024-.166-.006-.084h-.006l-1.554-10.715,4.375-8.808-13.675.252c-2.372,5.075-.129,8.618,1.8,13.137a21.621,21.621,0,0,1,1.821,5.6h-.017s-.9,2.294.742,7.091,5.167,13.915,5.167,13.915h2.958l-1.588-20.224Z" transform="translate(-1646.723 -1274.76)" fill="#113b84"/>
            <path id="Path_30" data-name="Path 30" d="M1683.853,1319.965a105.847,105.847,0,0,0-4.2-12.6l-4.857,9.548,3.118,10.253a13.2,13.2,0,0,0-4.372,5.029c-2.5,4.409-6.563,12.818-6.563,12.818l2.373,1.656,12.76-13.693a7.9,7.9,0,0,0,1.75-2.969A22.655,22.655,0,0,0,1683.853,1319.965Z" transform="translate(-1655.513 -1274.76)" fill="#0c336b"/>
            <path id="Path_31" data-name="Path 31" d="M1653.127,1190.21s-5.219-1.609-7.278,1,2.611,12.82,2.611,12.82l-.332,8.516a23.949,23.949,0,0,0,7.085.777,29.481,29.481,0,0,0,7.07-1.344s-.5-10.738-1.666-15.612a7.651,7.651,0,0,0-3.248-5.077A7.129,7.129,0,0,0,1653.127,1190.21Z" transform="translate(-1637.908 -1179.123)" fill="#08bfff"/>
            <path id="Path_32" data-name="Path 32" d="M1605.978,1258.462c1.326,2.016,12.147,2.121,12.147,2.121s2.055.759,3.044.366,1.3-.921,1.342-1.575a1.345,1.345,0,0,0-.753-1.52,4.211,4.211,0,0,0-1.615-.063l.463.012s.135-.729-.785-.709c-1.637.035-2.163.775-2.541.749-.906-.064-9.111-3.374-9.14-3.679C1608.14,1254.162,1604.653,1256.446,1605.978,1258.462Z" transform="translate(-1605.678 -1231.509)" fill="#fdc78b"/>
            <path id="Path_33" data-name="Path 33" d="M1661.035,1142.528s-.753.191-2.179-.933a5.159,5.159,0,0,1-2.233-3.3,2.4,2.4,0,0,1,.307-1.742,2.349,2.349,0,0,1,.982-2.735c2.51-1.805,4.816.309,7.451-.1,3.03-.472-.352,3.055-.352,3.055Z" transform="translate(-1647.078 -1133.08)" fill="#113b84"/>
            <path id="Path_34" data-name="Path 34" d="M1674.4,1179.338s-1.164,2.3-1.124,2.4a2.06,2.06,0,0,0,1.685.889,5.365,5.365,0,0,0,2.538-.354,4.3,4.3,0,0,1-.554-1.175,6.824,6.824,0,0,1,.554-1.4Z" transform="translate(-1660.625 -1170.684)" fill="#fdc78b"/>
            <path id="Path_35" data-name="Path 35" d="M1679.975,1181.1a6.831,6.831,0,0,1,.554-1.4l-3.1-.366s-.2.39-.426.856a2.639,2.639,0,0,0,2.405,1.158,2.813,2.813,0,0,0,.582-.149A.459.459,0,0,1,1679.975,1181.1Z" transform="translate(-1663.659 -1170.684)" fill="#ffb164"/>
            <path id="Path_36" data-name="Path 36" d="M1671.645,1149.293s.538.37.724,2.557-.37,4.223-2.389,4.509-3.1-2.288-3.1-2.288a1.481,1.481,0,0,1-1.127-.185,1.268,1.268,0,0,1-.454-1.514.826.826,0,0,1,1.178-.269c.5.32.605.976.791,1.262s.269.353.269.151-.05-1.043.185-1.312,2.221-1.128,2.978-2.12S1671.645,1149.293,1671.645,1149.293Z" transform="translate(-1654.078 -1146.246)" fill="#fdc78b"/>
            <g id="Group_15" data-name="Group 15" transform="translate(30.519 1.804)">
              <rect id="Rectangle_20" data-name="Rectangle 20" width="10.338" height="5.527" transform="translate(0 3.103) rotate(-17.465)" fill="#f5fbff"/>
            </g>
            <g id="Group_16" data-name="Group 16" transform="translate(33.55 3.456)">
              <path id="Path_37" data-name="Path 37" d="M1787.276,1155.72l-2.028-.9a.411.411,0,0,1-.209-.542h0a.411.411,0,0,1,.542-.209l1.331.589a.411.411,0,0,0,.529-.182l1.449-2.707a.411.411,0,0,1,.556-.168h0a.411.411,0,0,1,.168.556l-1.808,3.379A.41.41,0,0,1,1787.276,1155.72Z" transform="translate(-1785.004 -1151.555)" fill="#0c336b"/>
            </g>
            <path id="Path_38" data-name="Path 38" d="M1767.782,1165.153s1.305-.929,1.805-.395-1.023,1.767-1.023,1.767Z" transform="translate(-1737.454 -1158.697)" fill="#fdc78b"/>
            <path id="Path_39" data-name="Path 39" d="M1617.152,1196.262c.423-1.625.325-5.065-3.276-4.105-4.364,1.164-7.7,11.848-7.7,11.848h0a8.388,8.388,0,0,0-.491,2.823,1.714,1.714,0,0,0,.19.915c.005.012.009.025.014.036a1.032,1.032,0,0,0,.572.586c2.485,1.589,10.821,1.837,10.821,1.837v-2.9a53.159,53.159,0,0,1-6.4-2.367S1616.729,1197.887,1617.152,1196.262Z" transform="translate(-1605.682 -1180.969)" fill="#08bfff"/>
          </g>
        </g>
        <g id="Group_22" data-name="Group 22" transform="translate(218.024 94.03)">
          <g id="Group_19" data-name="Group 19" transform="translate(2.541 11.246)">
            <path id="Path_40" data-name="Path 40" d="M2802.58,1407.621c1.488,1.653,11.364.243,11.364.243s1.978.406,2.824-.09a1.61,1.61,0,0,0,1-1.622c-.049-.6-.272-1.145-.9-1.281a3.876,3.876,0,0,0-1.48.167l.424-.053s.022-.683-.814-.537c-1.487.259-1.863,1.007-2.211,1.035-.835.068-8.772-1.807-8.841-2.081C2803.952,1403.4,2801.092,1405.968,2802.58,1407.621Z" transform="translate(-2795.693 -1396.795)" fill="#fdc78b"/>
            <path id="Path_41" data-name="Path 41" d="M2767.69,1369.778c0-.01.006-.021.01-.032a2.435,2.435,0,0,1,2.909-1.563c1.36.466,3.644,4.22,3.644,4.22h0c.9,1.269,1.489,2.214,1.637,2.291a.144.144,0,0,1,.034.032,60.03,60.03,0,0,0,8.883,1.825l.588,2.876s-7.89.955-10.348-.16c-1.456-.6-3.264-2.373-4.791-4.345h0a14.037,14.037,0,0,1-2.4-3.767l-.009-.021-.015-.04c-.046-.115-.083-.224-.112-.327l-.015-.048c0-.007,0-.013,0-.02a2.509,2.509,0,0,1-.057-.264c0-.019,0-.037-.006-.055a1.413,1.413,0,0,1,.028-.537C2767.676,1369.821,2767.684,1369.8,2767.69,1369.778Z" transform="translate(-2767.63 -1368.087)" fill="#5b4bbc"/>
          </g>
          <g id="Group_20" data-name="Group 20" transform="translate(16.462 11.644)">
            <path id="Path_42" data-name="Path 42" d="M2875.311,1379.08h-10.086a.489.489,0,0,1-.467-.636l2.483-7.886a.489.489,0,0,1,.467-.342h9.748a.489.489,0,0,1,.472.617l-2.145,7.886A.489.489,0,0,1,2875.311,1379.08Z" transform="translate(-2860.488 -1370.216)" fill="#113b84"/>
            <path id="Path_43" data-name="Path 43" d="M2878.421,1381.156h-9.569l2.4-7.623h9.242Z" transform="translate(-2863.836 -1372.912)" fill="#36d4ff"/>
            <path id="Path_44" data-name="Path 44" d="M2856.844,1413.778h-14.806l.432-.879h14.764Z" transform="translate(-2842.038 -1404.914)" fill="#113b84"/>
          </g>
          <path id="Path_45" data-name="Path 45" d="M2790.046,1419.513l-14.335,5.9.056,1-2.112,4.536s-.169,6.108,4.563,4.964c3.5-.846,7.42-5.193,8.953-6.567,2.89-2.588,4.18-3.191,4.491-3.311a16.519,16.519,0,0,0,3.011,2.351c3.963,2.476,10.806,7.669,10.806,7.669l3.552-1.221-13.508-14.928C2793.921,1418.226,2790.046,1419.513,2790.046,1419.513Z" transform="translate(-2769.987 -1398.263)" fill="#0c336b"/>
          <path id="Path_46" data-name="Path 46" d="M2796.013,1330.2s1.251,4.872-.732,5.664c-1.55.619-3.378-1.013-3.378-1.013S2793.581,1329.455,2796.013,1330.2Z" transform="translate(-2784.821 -1325.984)" fill="#fdc78b"/>
          <path id="Path_47" data-name="Path 47" d="M2795.277,1350.343a3.208,3.208,0,0,1-.732-2.078s-1.347-1.045-1.978.074c-.077.193-.141.363-.192.5-.01.039-.02.077-.029.119a1.156,1.156,0,0,0-.023.34A4.1,4.1,0,0,0,2795.277,1350.343Z" transform="translate(-2785.159 -1340.367)" fill="#ffb164"/>
          <path id="Path_48" data-name="Path 48" d="M2783.02,1351.061a25.736,25.736,0,0,0-1.218,3.691,2.689,2.689,0,0,0,1.968.579c1.805-.113,1.812-.518,1.812-.518s-.113-1.054-.131-2.255a4,4,0,0,1,.131-1.333Z" transform="translate(-2776.61 -1343.001)" fill="#fdc78b"/>
          <path id="Path_49" data-name="Path 49" d="M2776.89,1316.854a4.056,4.056,0,0,1-5.337-4.459c.338-1.824,1.216-1.959,1.216-1.959s.654-3.346,4.793-2.229a3.4,3.4,0,0,1,1.681,5.88A15.224,15.224,0,0,0,2776.89,1316.854Z" transform="translate(-2768.23 -1307.978)" fill="#113b84"/>
          <path id="Path_50" data-name="Path 50" d="M2805.75,1339.349s.271,1.679.473,1.752,0-2.292,0-2.292Z" transform="translate(-2796.077 -1333.041)" fill="#113b84"/>
          <path id="Path_51" data-name="Path 51" d="M2802.539,1344.518s-.116-.839-.69-.552-.2.964.2,1.115S2802.539,1344.518,2802.539,1344.518Z" transform="translate(-2792.666 -1337.185)" fill="#fdc78b"/>
          <path id="Path_52" data-name="Path 52" d="M2782.892,1476.587l0-.01-.111-.014-.118-.026,0,.011-20.441-2.6-.05.512-5.561-.512s-2.124,10.528,7.995,10.888a9.538,9.538,0,0,0,4.075-.526,55.63,55.63,0,0,1,6.14-1.431,20.541,20.541,0,0,1,5.43-.1l-.006.015s1.781,1.411,6.451,1.253,13.658-.813,13.658-.813l.8-2.608Z" transform="translate(-2755.98 -1442.896)" fill="#113b84"/>
          <path id="Path_53" data-name="Path 53" d="M2986.557,1499.581l.732-2.621a18.115,18.115,0,0,1,1.811-1.717,19.9,19.9,0,0,1,1.694-1.206l-1.482,6.476A14.225,14.225,0,0,1,2986.557,1499.581Z" transform="translate(-2943.057 -1459.228)" fill="#113b84"/>
          <path id="Path_54" data-name="Path 54" d="M2761.526,1366.531s-3.5-1.379-5.293,1.627c-.864,1.45-.344,11.09-.344,11.09l-1.84,10.882s3.926,3.213,6.576.955c4.756-4.054,7.771-3.682,7.771-3.682a79.171,79.171,0,0,1-.748-14.355c.246-3.1-1.191-3.734-2.018-4.534A10.254,10.254,0,0,0,2761.526,1366.531Z" transform="translate(-2754.048 -1355.319)" fill="#08bfff"/>
          <g id="Group_21" data-name="Group 21" transform="translate(8.563 13.689)">
            <path id="Path_55" data-name="Path 55" d="M2839.662,1414.987c1.681,1.457,10.909-1.325,10.909-1.325a16.435,16.435,0,0,0,3.2-.642c.9-.383,1.058-.748.935-1.34s-.835-.179-1.475-.169c-1.476.022-1.07-.394-1.07-.394a.94.94,0,0,0,.529-.393c.18-.305-.277-.666-1.089-.418-1.444.44-1.725,1.229-2.066,1.3-.82.17-8.927-.712-9.03-.976C2840.5,1410.631,2837.982,1413.531,2839.662,1414.987Z" transform="translate(-2831.739 -1404.784)" fill="#fdc78b"/>
            <path id="Path_56" data-name="Path 56" d="M2799.843,1383.124c0-.011,0-.022.006-.033a2.435,2.435,0,0,1,2.694-1.91c1.407.3,4.136,3.739,4.136,3.739h0c1.054,1.148,1.751,2.014,1.907,2.072a.142.142,0,0,1,.038.028,60.057,60.057,0,0,0,9.04.716l.938,2.782s-7.712,1.921-10.289,1.117c-1.518-.411-3.531-1.953-5.29-3.722h0a14.043,14.043,0,0,1-2.841-3.442l-.011-.02-.02-.038c-.06-.109-.109-.212-.152-.311l-.021-.046c0-.006,0-.013-.007-.02a2.455,2.455,0,0,1-.089-.255c0-.018-.008-.036-.012-.054a1.4,1.4,0,0,1-.038-.536C2799.834,1383.169,2799.84,1383.147,2799.843,1383.124Z" transform="translate(-2799.821 -1381.145)" fill="#08bfff"/>
          </g>
        </g>
        <g id="Group_25" data-name="Group 25" transform="translate(157.824 74.256)">
          <g id="Group_24" data-name="Group 24">
            <rect id="Rectangle_21" data-name="Rectangle 21" width="62.217" height="40.763" transform="translate(0 20.962)" fill="#0b9cff"/>
            <path id="Path_57" data-name="Path 57" d="M2432.273,1314.326l31.109,19.573,31.109-19.573Z" transform="translate(-2432.273 -1293.364)" fill="#95cc6f"/>
            <path id="Path_58" data-name="Path 58" d="M2432.273,1229.28l31.109-19.573,31.109,19.573Z" transform="translate(-2432.273 -1208.318)" fill="#95cc6f"/>
            <path id="Path_59" data-name="Path 59" d="M2517.153,1227.506l-24.333,15.31-24.334-15.31v-25.225h48.667Z" transform="translate(-2461.711 -1202.281)" fill="#fff"/>
            <g id="Group_23" data-name="Group 23" transform="translate(12.181 6.551)">
              <rect id="Rectangle_22" data-name="Rectangle 22" width="37.259" height="2.178" fill="#caf0ff"/>
              <rect id="Rectangle_23" data-name="Rectangle 23" width="37.259" height="2.177" transform="translate(0 5.523)" fill="#caf0ff"/>
              <rect id="Rectangle_24" data-name="Rectangle 24" width="37.259" height="2.177" transform="translate(0 11.046)" fill="#caf0ff"/>
              <rect id="Rectangle_25" data-name="Rectangle 25" width="37.259" height="2.177" transform="translate(0 16.569)" fill="#caf0ff"/>
              <path id="Path_60" data-name="Path 60" d="M2531.867,1357.558l3.461-2.177h-37.8l3.461,2.177Z" transform="translate(-2497.5 -1333.289)" fill="#caf0ff"/>
              <path id="Path_61" data-name="Path 61" d="M2564.059,1389.922l3.461-2.177h-18.554l3.461,2.177Z" transform="translate(-2539.315 -1359.598)" fill="#caf0ff"/>
            </g>
          </g>
          <path id="Path_62" data-name="Path 62" d="M2463.382,1418.943l-31.109,21.191h62.218Z" transform="translate(-2432.273 -1378.409)" fill="#137aea"/>
        </g>
        <g id="Group_27" data-name="Group 27" transform="translate(197.046 72.884)">
          <g id="Group_26" data-name="Group 26">
            <path id="Path_63" data-name="Path 63" d="M2658.833,1154.593l-16.911,5.717c0,27.523,16.911,32.51,16.911,32.51s16.91-4.987,16.91-32.51Z" transform="translate(-2641.922 -1154.593)" fill="#ffdc4e"/>
            <path id="Path_64" data-name="Path 64" d="M2670.156,1201.88a20.025,20.025,0,0,1-6.769-5.147c-4.661-5.315-7.255-13.159-7.546-22.767l14.306-4.837,14.307,4.838C2683.846,1194.513,2673.1,1200.6,2670.156,1201.88Z" transform="translate(-2653.237 -1166.41)" fill="#fff"/>
            <path id="Path_65" data-name="Path 65" d="M2678.24,1208.154a19.026,19.026,0,0,1-5.419-4.338c-4.154-4.736-6.578-11.736-7.043-20.3l12.448-4.209,12.45,4.209C2689.78,1200.439,2681.711,1206.376,2678.24,1208.154Z" transform="translate(-2661.314 -1174.682)" fill="#ffdc4e"/>
          </g>
          <path id="Path_66" data-name="Path 66" d="M2744.761,1183.515l-12.45-4.209s.277,13.747.454,28.614C2736.432,1205.883,2743.9,1199.762,2744.761,1183.515Z" transform="translate(-2715.4 -1174.682)" fill="#f4c738"/>
        </g>
        <g id="Group_28" data-name="Group 28" transform="translate(169.485 0)">
          <path id="Path_67" data-name="Path 67" d="M2518.609,738.324s-2.241-8.461-6.33-9.129a.787.787,0,0,0-.322.014,2.07,2.07,0,0,1,.554.3c3.132,1.681,2.109,11.021,1.956,12.285.591,1.415,1.149,2.708,1.506,3.572-2.819.448-8,6.594-8,6.594s10.89-.495,12.794-2.278a4.3,4.3,0,0,0,.416-.549C2522.319,746.978,2520.605,742.026,2518.609,738.324Z" transform="translate(-2491.925 -716.439)" fill="#fdc78b"/>
          <path id="Path_68" data-name="Path 68" d="M2487.394,670.854a6.5,6.5,0,0,1-2.176-5.084c.1-3.11,1.647-3.134,1.647-3.134s1.637-2.451,5.17-1.243c4.438,1.517,1.9,8.688-.027,9.77S2487.394,670.854,2487.394,670.854Z" transform="translate(-2473.422 -661.058)" fill="#113b84"/>
          <path id="Path_69" data-name="Path 69" d="M2464.384,847.153l-.555,1.936,8.259,3.129v-4.357Z" transform="translate(-2456.037 -812.337)" fill="#0c336b"/>
          <path id="Path_70" data-name="Path 70" d="M2515.573,847.153l.554,1.936-8.259,3.129v-4.357Z" transform="translate(-2491.837 -812.337)" fill="#0c336b"/>
          <path id="Path_71" data-name="Path 71" d="M2428.448,847.7c-2.186-.81-4.966-1.058-5.965,1.62-1.029,2.758.32,5.933,7.841,7.373,5.382,1.03,17.4,1.944,17.4,1.944l.545-2.889S2429.914,848.248,2428.448,847.7Z" transform="translate(-2422.18 -812.337)" fill="#0c336b"/>
          <path id="Path_72" data-name="Path 72" d="M2555.045,891.84a12.624,12.624,0,0,1,4.411,1.072c2.068.99,2.248,1.836,2.18,1.989-.164.367-1.092.779-2.812.879a16.282,16.282,0,0,1-4.594-.869A3.585,3.585,0,0,0,2555.045,891.84Z" transform="translate(-2529.524 -848.664)" fill="#113b84"/>
          <path id="Path_73" data-name="Path 73" d="M2474.259,847.7c2.187-.81,4.966-1.058,5.965,1.62,1.029,2.758-.32,5.933-7.841,7.373-5.382,1.03-17.4,1.944-17.4,1.944l-.545-2.889S2472.794,848.248,2474.259,847.7Z" transform="translate(-2448.405 -812.337)" fill="#29427b"/>
          <path id="Path_74" data-name="Path 74" d="M2428.781,891.84a12.627,12.627,0,0,0-4.411,1.072c-2.068.99-2.248,1.836-2.179,1.989.164.367,1.092.779,2.812.879a16.285,16.285,0,0,0,4.594-.869A3.586,3.586,0,0,1,2428.781,891.84Z" transform="translate(-2422.179 -848.664)" fill="#113b84"/>
          <path id="Path_75" data-name="Path 75" d="M2476.854,727.543c-1.256-1.042-7.1-1.181-9.088,0-3.554,1.7-1.938,12.431-1.938,12.431a98.961,98.961,0,0,0-1.727,10.068,20.675,20.675,0,0,0,7.868,1.637c.113,0,.227-.007.34-.011s.227.009.341.011a20.675,20.675,0,0,0,7.868-1.637,99.042,99.042,0,0,0-1.727-10.068S2480.214,729.346,2476.854,727.543Z" transform="translate(-2456.258 -714.426)" fill="#fff"/>
          <path id="Path_76" data-name="Path 76" d="M2500.5,710.464l-1.059.05-1.06-.05s-1.3,3.331-1.215,3.406a3.676,3.676,0,0,0,2.059.852c.054,0,.1.007.156.01v.008l.061,0,.061,0v-.008c.052,0,.1-.005.156-.01a3.677,3.677,0,0,0,2.058-.852C2501.8,713.8,2500.5,710.464,2500.5,710.464Z" transform="translate(-2483.132 -701.221)" fill="#fdc78b"/>
          <path id="Path_77" data-name="Path 77" d="M2501.838,713.064a2.316,2.316,0,0,0,1.7-.629c-.344-.931-.751-1.971-.751-1.971l-1.059.05-1.06-.05s-.364.929-.694,1.817A2.415,2.415,0,0,0,2501.838,713.064Z" transform="translate(-2485.417 -701.221)" fill="#ffb164"/>
          <path id="Path_78" data-name="Path 78" d="M2494,687.821a.732.732,0,0,0-1.155-.311c-.54.38-.159.855-.531,1.226-.272.27.031-2.721-.9-2.8a5.341,5.341,0,0,1-3.406,1.169c-1,.039-1.2,1.152-1.2,1.392s-.11.36-.308.02-.056-.626-.6-1.006a.732.732,0,0,0-1.155.311,1.74,1.74,0,0,0,.532,1.866c.684.42.964.093.964.093s1.088,2.888,3.131,2.741c2.043.148,3.131-2.741,3.131-2.741s.28.327.964-.093A1.739,1.739,0,0,0,2494,687.821Z" transform="translate(-2472.979 -681.282)" fill="#fdc78b"/>
          <path id="Path_79" data-name="Path 79" d="M2524.158,728.08a5.569,5.569,0,0,1,4.666,2.392,33.652,33.652,0,0,1,3.13,6.734,33.792,33.792,0,0,1-4.134,1.486S2528.626,729.865,2524.158,728.08Z" transform="translate(-2505.079 -715.539)" fill="#ff5c73"/>
          <path id="Path_80" data-name="Path 80" d="M2440.348,738.324s2.24-8.461,6.33-9.129a.788.788,0,0,1,.323.014,2.075,2.075,0,0,0-.555.3c-3.132,1.681-2.109,11.021-1.956,12.285-.591,1.415-1.149,2.708-1.506,3.572,2.819.448,8,6.594,8,6.594s-10.89-.495-12.794-2.278a4.283,4.283,0,0,1-.416-.549C2436.639,746.978,2438.352,742.026,2440.348,738.324Z" transform="translate(-2434.561 -716.439)" fill="#fdc78b"/>
          <path id="Path_81" data-name="Path 81" d="M2460.229,727.846a5.57,5.57,0,0,0-4.666,2.392,33.64,33.64,0,0,0-3.129,6.734,30.905,30.905,0,0,0,4.071,1.53S2455.836,729.608,2460.229,727.846Z" transform="translate(-2446.774 -715.349)" fill="#ff5c73"/>
          <path id="Path_82" data-name="Path 82" d="M2477.129,798.651a1.526,1.526,0,0,1-1.584,1.459h-15.5a1.526,1.526,0,0,1-1.584-1.459v-9.663a1.526,1.526,0,0,1,1.584-1.459h15.5a1.525,1.525,0,0,1,1.584,1.459Z" transform="translate(-2451.672 -763.868)" fill="#8d53e8"/>
          <path id="Path_83" data-name="Path 83" d="M2504.442,814.966a1.064,1.064,0,1,1-1.056-1.188A1.128,1.128,0,0,1,2504.442,814.966Z" transform="translate(-2487.334 -785.206)" fill="#d7c9f2"/>
        </g>
        <g id="Group_29" data-name="Group 29" transform="translate(152.601 67.205)">
          <path id="Path_84" data-name="Path 84" d="M2388.81,1178.16a13.662,13.662,0,0,0-.519-4.075c-.542-1.125-1.973-3.436-3.673-3.912-.943-.264-1.778-3.992.334-5.123s5.617.2,5.617.2,4.135-2.567,6.977,6.642c2.45,7.94,7.433,11.286,6.977,13.894s-.777,2.914-2.848,2.341S2388.81,1178.16,2388.81,1178.16Z" transform="translate(-2370.736 -1164.593)" fill="#113b84"/>
          <path id="Path_85" data-name="Path 85" d="M2361.375,1306.663c-1.76,1.469-11.632-1.41-11.632-1.41s-2.078.126-2.869-.5a1.659,1.659,0,0,1-.788-1.8c.138-.608.444-1.129,1.1-1.176a1.942,1.942,0,0,1,1.062.27s2.663.871,3.014.95c.842.191,9.215-.564,9.326-.834C2360.591,1302.158,2363.135,1305.193,2361.375,1306.663Z" transform="translate(-2340.176 -1276.104)" fill="#fdc78b"/>
          <path id="Path_86" data-name="Path 86" d="M2375.284,1243.487c.062-1.594.614-3.856,2.489-3.805,4.29.116,3.746,12.893,3.746,12.893h0a7.968,7.968,0,0,1-.33,2.7,1.628,1.628,0,0,1-.425.78l-.022.029a.98.98,0,0,1-.682.375c-2.7.762-10.348-1.3-10.348-1.3l.8-2.639a50.554,50.554,0,0,0,6.472-.393S2375.222,1245.082,2375.284,1243.487Z" transform="translate(-2359.42 -1225.633)" fill="#08bfff"/>
          <path id="Path_87" data-name="Path 87" d="M2408.151,1330.941c4.785,5.076,1.815,9.212.8,13.5s-.743,5.232-.743,5.232,1.146,1.893.423,6.388-2.453,13.1-2.453,13.1l-2.618.45-1.7-18.362-.538-19.369Z" transform="translate(-2385.119 -1299.82)" fill="#0c336b"/>
          <path id="Path_88" data-name="Path 88" d="M2412.119,1350.11l-6.889-19.628,9.307-2.218c4,3.053,1.817,8.585,2.165,12.982s.894,5.208.894,5.208,1.671,1.452,2.358,5.952,1.674,13.223,1.674,13.223l-2.354,1.23Z" transform="translate(-2388.293 -1297.644)" fill="#113b84"/>
          <path id="Path_89" data-name="Path 89" d="M2400.38,1535.265l-2.648.125a17.622,17.622,0,0,0-2.024,1.346,19.384,19.384,0,0,0-1.514,1.346h6.472A13.872,13.872,0,0,0,2400.38,1535.265Z" transform="translate(-2379.322 -1465.917)" fill="#0c336b"/>
          <path id="Path_90" data-name="Path 90" d="M2472.357,1523.5l-2.378,1.172a17.6,17.6,0,0,0-1.319,2.042,19.454,19.454,0,0,0-.851,1.838l5.935-2.582A13.846,13.846,0,0,0,2472.357,1523.5Z" transform="translate(-2439.164 -1456.356)" fill="#0c336b"/>
          <path id="Path_91" data-name="Path 91" d="M2387.4,1242.435a6.533,6.533,0,0,0-3.49,4.651,3.868,3.868,0,0,0,2.392,4.257Z" transform="translate(-2370.922 -1227.872)" fill="#08bfff"/>
          <path id="Path_92" data-name="Path 92" d="M2400.185,1225.918a5.731,5.731,0,0,1,5.152,1.419c2.234,2.188-.508,10.473-.508,10.473l2.288,9.372a32.133,32.133,0,0,1-6.912,1.42,33.25,33.25,0,0,1-5.751,0s-1.563-11.723-1.061-16.409c.339-3.159.615-2.5,1.132-3.554C2396.009,1225.617,2400.185,1225.918,2400.185,1225.918Z" transform="translate(-2378.59 -1214.339)" fill="#08bfff"/>
          <path id="Path_93" data-name="Path 93" d="M2387.82,1294.658c1.6-.614,3.363.5,3.949.92l.032-.129c.814.288,9.218.52,9.359.265,0,0,2.171,3.313.251,4.567s-10.237-2.3-10.237-2.3l.092-.37c-.593.449-2.358.467-2.489-.037-.138-.533,1.364.094.805-.7s-2.524.581-3.038.38C2386.067,1297.074,2385.862,1295.408,2387.82,1294.658Z" transform="translate(-2372.841 -1270.177)" fill="#fdc78b"/>
          <path id="Path_94" data-name="Path 94" d="M2415.563,1234.984c.248-1.576,1.639-4.536,4.413-2.332,3.359,2.67,2.208,13.243,2.208,13.243h0a7.965,7.965,0,0,1-.644,2.646,1.63,1.63,0,0,1-.513.725l-.026.026a.98.98,0,0,1-.721.293c-2.768.441-10.124-2.507-10.124-2.507l1.1-2.527a50.569,50.569,0,0,0,6.474.368S2415.314,1236.561,2415.563,1234.984Z" transform="translate(-2392.297 -1219.279)" fill="#36d4ff"/>
          <path id="Path_95" data-name="Path 95" d="M2321.961,1275.773l6.955,7.843h-6.845l-7.371-7.959Z" transform="translate(-2314.7 -1254.877)" fill="#0b9cff"/>
          <path id="Path_96" data-name="Path 96" d="M2346.184,1305.015s.582-1.051,1.5-.788-.285,2.3-.285,2.3S2346.195,1306.066,2346.184,1305.015Z" transform="translate(-2340.294 -1278.069)" fill="#fdc78b"/>
          <path id="Path_97" data-name="Path 97" d="M2416.824,1210.542l.353,4.2s2.74.327,3.545-.863-1.679-3.812-1.679-3.812Z" transform="translate(-2397.718 -1201.562)" fill="#fdc78b"/>
          <path id="Path_98" data-name="Path 98" d="M2419.484,1205.241a5.5,5.5,0,0,1-2.509,1.526l-.151-1.8,1.452-1.755Z" transform="translate(-2397.718 -1195.983)" fill="#ffb164"/>
          <path id="Path_99" data-name="Path 99" d="M2398.323,1184.743s-.719,5.733,1.655,6.348c1.855.481,3.941-1.742,3.941-1.742S2400.987,1183.543,2398.323,1184.743Z" transform="translate(-2382.595 -1180.84)" fill="#fdc78b"/>
          <path id="Path_100" data-name="Path 100" d="M2416.832,1194.13a1.079,1.079,0,1,0,.941-1.116A1.034,1.034,0,0,0,2416.832,1194.13Z" transform="translate(-2397.718 -1187.689)" fill="#fdc78b"/>
          <path id="Path_101" data-name="Path 101" d="M2428.682,1210.07s2.425,3.779,1.8,5.682.8.971,2.387.215,3.917.459,4.924,2.561-.93-4.443-3.959-5.782A44.552,44.552,0,0,1,2428.682,1210.07Z" transform="translate(-2407.357 -1201.562)" fill="#113b84"/>
        </g>
        <path id="Path_102" data-name="Path 102" d="M2890.491,1381.1l-2.326.717c-.989,3.45.951,4.075.951,4.075s2.3-.625,3.289-4.075Z" transform="translate(-2644.822 -1273.389)" fill="#f5fbff"/>
      </g>
    </g>
  </g>
</svg>
