<svg xmlns="http://www.w3.org/2000/svg" width="24" height="24" viewBox="0 0 24 24">
  <g id="reload" transform="translate(-876 -471)">
    <path id="Path_103" data-name="Path 103" d="M0,12A12,12,0,1,1,12,24,12,12,0,0,1,0,12Z" transform="translate(875.995 471)" fill="#264eab"/>
    <path id="Path_104" data-name="Path 104" d="M92.078,46.447a1.233,1.233,0,0,0-1.706-.285,1.184,1.184,0,0,0-.514,1.565,5.748,5.748,0,1,1-5.771-3.2v1.489a.172.172,0,0,0,.088.145.188.188,0,0,0,.185,0l4.768-2.81a.206.206,0,0,0,.107-.166c0-.091-.107-.155-.107-.155l-4.752-2.794a.248.248,0,0,0-.2-.04c-.1.037-.084.168-.084.168v1.6a8.3,8.3,0,1,0,7.991,4.484Z" transform="translate(802.31 432.755)" fill="#f7f7f7"/>
  </g>
</svg>
