<svg xmlns="http://www.w3.org/2000/svg" width="40" height="40" viewBox="0 0 40 40">
  <g id="l_service7" transform="translate(-83 -280)">
    <rect id="Rectangle_151" data-name="Rectangle 151" width="40" height="40" transform="translate(83 280)" fill="none"/>
    <g id="Group_4669" data-name="Group 4669" transform="translate(-3 -0.779)">
      <rect id="Rectangle_3637" data-name="Rectangle 3637" width="6.286" height="20.952" rx="1" transform="translate(110.714 290.106)" fill="#e0562b"/>
      <g id="_004-gift-1" data-name="004-gift-1" transform="translate(117 287.78) rotate(90)">
        <path id="Path_5541" data-name="Path 5541" d="M11.547,0h3.938L0,15.27v-4.3Z" transform="translate(0.605 6.005)" fill="#fad869"/>
        <path id="Path_5542" data-name="Path 5542" d="M5.343,1.077S5.319.12,4.468.015,2.333.359,2.491,1.249s-.82.307-1.276.54S-.025,2.552,0,3.37A1.359,1.359,0,0,0,1.216,4.642c.41,0-.343,1.735,0,2.08a2.763,2.763,0,0,0,2.2.3c.419-.271.386-1.066.386-1.066s.791,1.168,1.541,1.225S6.44,6.244,6.7,5.956s-.1-1.5-.757-1.7,1.561-.054,1.8-.34.069-1.98-.731-2.13A5.632,5.632,0,0,1,5.343,1.077Z" transform="translate(3.005 8.505)" fill="#fad869"/>
        <g id="Group_4664" data-name="Group 4664" transform="translate(0 5.238)">
          <g id="Group_4663" data-name="Group 4663" transform="translate(0)">
            <path id="Path_5538" data-name="Path 5538" d="M25.35,0H.51a.5.5,0,0,0-.5.5V12.365a.506.506,0,0,0,0,.146v3.746a.5.5,0,0,0,.5.5H5.083a.5.5,0,0,0,0-1.01H1.729l5.339-5.339a1.913,1.913,0,0,0,1.094.471h0q.087.008.173.008a1.92,1.92,0,0,0,1.674-2.854,1.911,1.911,0,0,0,.96-.989l0-.005a1.92,1.92,0,0,0-1.7-2.666l3.363-3.363,0,0h2.4L13.186,2.867a.5.5,0,0,0,.714.714l2.567-2.567,0,0h8.374V15.752H9.042a.5.5,0,0,0,0,1.01H25.35a.5.5,0,0,0,.5-.5V.5A.5.5,0,0,0,25.35,0ZM1.015,15.038v-2.4l2.8-2.8a1.929,1.929,0,0,0,1.379,1.018Zm2.8-8.388A.909.909,0,0,1,4.18,5.516l0,0a.9.9,0,0,1,1.187.233l.009.014.732,1.008-1.185.384-.016.006A.9.9,0,0,1,3.815,6.65ZM6.424,8.992a.906.906,0,0,1-1.789.184v0a.9.9,0,0,1,.588-1.053l.017-.005,1.185-.385V8.975C6.423,8.981,6.424,8.986,6.424,8.992ZM6.93,6.175,6.2,5.167l-.011-.014a.906.906,0,0,1,1.339-1.2l0,0a.9.9,0,0,1,.143,1.2l-.011.014Zm2.293,3a.909.909,0,0,1-.962.7h0a.9.9,0,0,1-.823-.886c0-.006,0-.011,0-.017V7.73l1.184.386.018.005A.9.9,0,0,1,9.223,9.176Zm.452-3.661a.909.909,0,0,1,.369,1.135l0,0a.9.9,0,0,1-1.1.506l-.016-.006L7.747,6.769,8.48,5.762l.01-.015A.9.9,0,0,1,9.675,5.515Zm-1.1-1.863a1.936,1.936,0,0,0-.384-.459l0,0A1.919,1.919,0,0,0,5.025,4.41a1.91,1.91,0,0,0-1.354.233l0,0a1.919,1.919,0,0,0,.179,3.388,1.9,1.9,0,0,0-.206.554L1.015,11.213V1.01h10.2Z" stroke="#000" stroke-width="0.25"/>
          </g>
        </g>
        <g id="Group_4666" data-name="Group 4666" transform="translate(6.619 20.99)">
          <g id="Group_4665" data-name="Group 4665" transform="translate(0 0)">
            <path id="Path_5539" data-name="Path 5539" d="M.862.148a.5.5,0,0,0-.714,0,.5.5,0,0,0,0,.714.5.5,0,0,0,.714,0,.5.5,0,0,0,0-.714Z" stroke="#000" stroke-width="0.25"/>
          </g>
        </g>
        <g id="Group_4668" data-name="Group 4668" transform="translate(11.648 9.348)">
          <g id="Group_4667" data-name="Group 4667" transform="translate(0 0)">
            <path id="Path_5540" data-name="Path 5540" d="M.862.148a.5.5,0,0,0-.714,0A.5.5,0,0,0,.5,1.01a.5.5,0,0,0,.5-.5A.508.508,0,0,0,.862.148Z" stroke="#000" stroke-width="0.25"/>
          </g>
        </g>
        <g id="Union_22" data-name="Union 22" transform="translate(2.326 0)">
          <path d="M 20.42819976806641 4.065400123596191 C 20.20829963684082 4.065400123596191 20.02939987182617 3.886500120162964 20.02939987182617 3.666599988937378 L 20.02939987182617 1.047600030899048 L 20.02939987182617 0.9226000905036926 L 19.90439987182617 0.9226000905036926 L 1.047599792480469 0.9226000905036926 L 0.9225998520851135 0.9226000905036926 L 0.9225998520851135 1.047600030899048 L 0.9225998520851135 3.666599988937378 C 0.9225998520851135 3.886500120162964 0.743699848651886 4.065400123596191 0.5237998366355896 4.065400123596191 C 0.3038998246192932 4.065400123596191 0.1249998286366463 3.886500120162964 0.1249998286366463 3.666599988937378 L 0.1249998286366463 0.5238000750541687 C 0.1249998286366463 0.3039000630378723 0.3038998246192932 0.1250000596046448 0.5237998366355896 0.1250000596046448 L 20.42819976806641 0.1250000596046448 C 20.64809989929199 0.1250000596046448 20.82699966430664 0.3039000630378723 20.82699966430664 0.5238000750541687 L 20.82699966430664 3.666599988937378 C 20.82699966430664 3.886500120162964 20.64809989929199 4.065400123596191 20.42819976806641 4.065400123596191 Z" stroke="none"/>
          <path d="M 20.42819976806641 3.940400123596191 C 20.57917022705078 3.940400123596191 20.70199966430664 3.817569971084595 20.70199966430664 3.666599988937378 L 20.70199966430664 0.5238000750541687 C 20.70199966430664 0.3728300631046295 20.57917022705078 0.2500000596046448 20.42819976806641 0.2500000596046448 L 0.5237998366355896 0.2500000596046448 C 0.3728298246860504 0.2500000596046448 0.2499998360872269 0.3728300631046295 0.2499998360872269 0.5238000750541687 L 0.2499998360872269 3.666599988937378 C 0.2499998360872269 3.817569971084595 0.3728298246860504 3.940400123596191 0.5237998366355896 3.940400123596191 C 0.6747698187828064 3.940400123596191 0.7975998520851135 3.817569971084595 0.7975998520851135 3.666599988937378 L 0.7975998520851135 1.047600030899048 L 0.7975998520851135 0.7976000905036926 L 1.047599792480469 0.7976000905036926 L 19.90439987182617 0.7976000905036926 L 20.15439987182617 0.7976000905036926 L 20.15439987182617 1.047600030899048 L 20.15439987182617 3.666599988937378 C 20.15439987182617 3.817569971084595 20.27722930908203 3.940400123596191 20.42819976806641 3.940400123596191 M 20.42819976806641 4.190400123596191 C 20.13839912414551 4.190400123596191 19.90439987182617 3.95550012588501 19.90439987182617 3.666599988937378 L 19.90439987182617 1.047600030899048 L 1.047599792480469 1.047600030899048 L 1.047599792480469 3.666599988937378 C 1.047599792480469 3.95550012588501 0.8126998543739319 4.190400123596191 0.5237998366355896 4.190400123596191 C 0.2339998334646225 4.190400123596191 -1.678466787780053e-07 3.95550012588501 -1.678466787780053e-07 3.666599988937378 L -1.678466787780053e-07 0.5238000750541687 C -1.678466787780053e-07 0.2349000573158264 0.2339998334646225 6.179809730610941e-08 0.5237998366355896 6.179809730610941e-08 L 20.42819976806641 6.179809730610941e-08 C 20.71710014343262 6.179809730610941e-08 20.95199966430664 0.2349000573158264 20.95199966430664 0.5238000750541687 L 20.95199966430664 3.666599988937378 C 20.95199966430664 3.95550012588501 20.71710014343262 4.190400123596191 20.42819976806641 4.190400123596191 Z" stroke="none"/>
        </g>
        <circle id="Ellipse_290" data-name="Ellipse 290" cx="4" cy="4" r="4" transform="translate(15 10)" fill="#fad869"/>
        <g id="surface1" transform="translate(9.637 23) rotate(-90)">
          <path id="Path_5634" data-name="Path 5634" d="M9.181,5a4.181,4.181,0,1,0,4.181,4.181A4.188,4.188,0,0,0,9.181,5Zm0,.76A3.421,3.421,0,1,1,5.76,9.181,3.416,3.416,0,0,1,9.181,5.76ZM8.8,6.9v.451a1.137,1.137,0,0,0,.38,2.209.38.38,0,1,1-.38.38h-.76a1.144,1.144,0,0,0,.76,1.069v.451h.76v-.451A1.137,1.137,0,0,0,9.181,8.8a.38.38,0,1,1,.38-.38h.76a1.144,1.144,0,0,0-.76-1.069V6.9Z"/>
        </g>
      </g>
    </g>
  </g>
</svg>
