<svg xmlns="http://www.w3.org/2000/svg" width="40" height="40" viewBox="0 0 40 40">
  <g id="l_service2" transform="translate(-51 -98)">
    <g id="Group_1271" data-name="Group 1271" transform="translate(30 -425)">
      <path id="Path_1264" data-name="Path 1264" d="M6848.25,125.112l2.685-.746h6.587l2.666-.939v4.46l-3.179,2.5h-6.074l-3.368,1.119Z" transform="translate(-6805.959 414.673)" fill="#e0562b"/>
      <path id="Path_1265" data-name="Path 1265" d="M6847.936,126.316l3-1.95h6.587l2.666-.939V128.9l-3.179,1.481h-6.074l-3.368,1.119Z" transform="translate(-6819.888 416.816)" fill="#eea849"/>
      <g id="_006-money-exchange" data-name="006-money-exchange" transform="translate(26 528)">
        <g id="Group_1176" data-name="Group 1176" transform="translate(27.997 24)">
          <g id="Group_1175" data-name="Group 1175">
            <rect id="Rectangle_3410" data-name="Rectangle 3410" width="1" height="3.5" stroke="#000" stroke-linejoin="round" stroke-width="0.25"/>
          </g>
        </g>
        <g id="Group_1178" data-name="Group 1178" transform="translate(27.997 28.5)">
          <g id="Group_1177" data-name="Group 1177">
            <rect id="Rectangle_3411" data-name="Rectangle 3411" width="1" height="1.5" stroke="#000" stroke-linejoin="round" stroke-width="0.25"/>
          </g>
        </g>
        <g id="Group_1180" data-name="Group 1180" transform="translate(5.997 14)">
          <g id="Group_1179" data-name="Group 1179">
            <path id="Path_1260" data-name="Path 1260" d="M98,224a2,2,0,1,0,2,2A2,2,0,0,0,98,224Zm0,3a1,1,0,1,1,1-1A1,1,0,0,1,98,227Z" transform="translate(-96 -224)" stroke="#000" stroke-linejoin="round" stroke-width="0.25"/>
          </g>
        </g>
        <g id="Group_1182" data-name="Group 1182" transform="translate(0)">
          <g id="Group_1181" data-name="Group 1181" transform="translate(0)">
            <path id="Path_1261" data-name="Path 1261" d="M14.283,11.56a.5.5,0,0,0-.5.025,5.466,5.466,0,0,1-1.735.755V7.5a.5.5,0,0,0,.5-.5V0h-1V6.5h-7.5V0h-1V7a.5.5,0,0,0,.5.5V8.865L.118,14.75a.5.5,0,0,0,.155.665,2.46,2.46,0,0,0,1.275.415V20a.494.494,0,0,0,.765.415A5.5,5.5,0,0,1,3.578,19.8,2.5,2.5,0,0,0,6.048,22h3.5a2.5,2.5,0,0,0,2.5-2.5v-.135a6.37,6.37,0,0,0,2.275-.95A.5.5,0,0,0,14.548,18V12A.5.5,0,0,0,14.283,11.56ZM4.548,7.5h6.5v1h-6.5ZM1.253,14.795,4.333,9.5h6.715v3H7.7a5.37,5.37,0,0,0,1.25-1.2l-.8-.6a4.525,4.525,0,0,1-3.6,1.8.5.5,0,0,0-.385.18L2.818,14.295A1.5,1.5,0,0,1,1.253,14.795ZM9.548,21h-3.5a1.5,1.5,0,0,1-1.5-1.44,5.314,5.314,0,0,1,.8-.06h5.7A1.5,1.5,0,0,1,9.548,21Zm4-3.275a5.41,5.41,0,0,1-2.8.775h-5.4a6.435,6.435,0,0,0-2.8.64V15.675a2.545,2.545,0,0,0,1.04-.74l1.2-1.435h5.96a6.44,6.44,0,0,0,2.8-.64Z" transform="translate(-0.051)" stroke="#000" stroke-linejoin="round" stroke-width="0.25"/>
          </g>
        </g>
        <g id="Group_1184" data-name="Group 1184" transform="translate(0.997 2)">
          <g id="Group_1183" data-name="Group 1183">
            <rect id="Rectangle_3412" data-name="Rectangle 3412" width="1" height="5.5" stroke="#000" stroke-linejoin="round" stroke-width="0.25"/>
          </g>
        </g>
        <g id="Group_1186" data-name="Group 1186" transform="translate(0.997)">
          <g id="Group_1185" data-name="Group 1185">
            <rect id="Rectangle_3413" data-name="Rectangle 3413" width="1" height="1" stroke="#000" stroke-linejoin="round" stroke-width="0.25"/>
          </g>
        </g>
        <g id="Group_1188" data-name="Group 1188" transform="translate(1.643 22.148)">
          <g id="Group_1187" data-name="Group 1187" transform="translate(0 0)">
            <rect id="Rectangle_3414" data-name="Rectangle 3414" width="2.12" height="1" transform="translate(0 1.499) rotate(-45)" stroke="#000" stroke-linejoin="round" stroke-width="0.25"/>
          </g>
        </g>
        <g id="Group_1190" data-name="Group 1190" transform="translate(6.997 24)">
          <g id="Group_1189" data-name="Group 1189">
            <rect id="Rectangle_3415" data-name="Rectangle 3415" width="1" height="2" stroke="#000" stroke-linejoin="round" stroke-width="0.25"/>
          </g>
        </g>
        <g id="Group_1192" data-name="Group 1192" transform="translate(4.05 23.284)">
          <g id="Group_1191" data-name="Group 1191" transform="translate(0 0)">
            <rect id="Rectangle_3416" data-name="Rectangle 3416" width="2.235" height="1" transform="translate(0 1.999) rotate(-63.43)" stroke="#000" stroke-linejoin="round" stroke-width="0.25"/>
          </g>
        </g>
        <g id="Group_1194" data-name="Group 1194" transform="translate(15.497 8)">
          <g id="Group_1193" data-name="Group 1193">
            <path id="Path_1262" data-name="Path 1262" d="M262.43,135.25a.5.5,0,0,0-.155-.665,2.465,2.465,0,0,0-1.275-.42V130a.494.494,0,0,0-.765-.415,5.5,5.5,0,0,1-1.255.615,2.5,2.5,0,0,0-2.48-2.2H253a2.5,2.5,0,0,0-2.5,2.5v.135a6.37,6.37,0,0,0-2.275.95A.5.5,0,0,0,248,132v6a.494.494,0,0,0,.765.415,5.466,5.466,0,0,1,1.735-.755v4.84a.5.5,0,0,0-.5.5v7h1v-6.5h7.5V150h1v-7a.5.5,0,0,0-.5-.5v-1.365ZM253,129h3.5a1.5,1.5,0,0,1,1.5,1.44,5.312,5.312,0,0,1-.8.06h-5.7A1.5,1.5,0,0,1,253,129Zm-4,8.14v-4.865a5.41,5.41,0,0,1,2.8-.775h5.4a6.435,6.435,0,0,0,2.8-.64v3.47a2.5,2.5,0,0,0-1.04.735l-1.2,1.435h-5.96A6.44,6.44,0,0,0,249,137.14Zm9,5.36h-6.5v-1H258Zm.215-2H251.5v-3h3.35a5.371,5.371,0,0,0-1.25,1.2l.8.6a4.525,4.525,0,0,1,3.6-1.8.5.5,0,0,0,.385-.18l1.345-1.615a1.5,1.5,0,0,1,1.565-.5Z" transform="translate(-248 -128)" stroke="#000" stroke-linejoin="round" stroke-width="0.25"/>
          </g>
        </g>
        <g id="Group_1196" data-name="Group 1196" transform="translate(19.997 12)">
          <g id="Group_1195" data-name="Group 1195">
            <path id="Path_1263" data-name="Path 1263" d="M322,192a2,2,0,1,0,2,2A2,2,0,0,0,322,192Zm0,3a1,1,0,1,1,1-1A1,1,0,0,1,322,195Z" transform="translate(-320 -192)" stroke="#000" stroke-linejoin="round" stroke-width="0.25"/>
          </g>
        </g>
        <g id="Group_1198" data-name="Group 1198" transform="translate(26.144 5.646)">
          <g id="Group_1197" data-name="Group 1197" transform="translate(0 0)">
            <rect id="Rectangle_3417" data-name="Rectangle 3417" width="2.12" height="1" transform="translate(0 1.499) rotate(-45)" stroke="#000" stroke-linejoin="round" stroke-width="0.25"/>
          </g>
        </g>
        <g id="Group_1200" data-name="Group 1200" transform="translate(21.997 4)">
          <g id="Group_1199" data-name="Group 1199">
            <rect id="Rectangle_3418" data-name="Rectangle 3418" width="1" height="2" stroke="#000" stroke-linejoin="round" stroke-width="0.25"/>
          </g>
        </g>
        <g id="Group_1202" data-name="Group 1202" transform="translate(24.052 4.282)">
          <g id="Group_1201" data-name="Group 1201" transform="translate(0 0)">
            <rect id="Rectangle_3419" data-name="Rectangle 3419" width="2.235" height="1" transform="translate(0 1.999) rotate(-63.43)" stroke="#000" stroke-linejoin="round" stroke-width="0.25"/>
          </g>
        </g>
        <g id="Group_1204" data-name="Group 1204" transform="translate(19.497 24.5)">
          <g id="Group_1203" data-name="Group 1203">
            <rect id="Rectangle_3420" data-name="Rectangle 3420" width="1" height="1" stroke="#000" stroke-linejoin="round" stroke-width="0.25"/>
          </g>
        </g>
        <g id="Group_1206" data-name="Group 1206" transform="translate(9.497 4.5)">
          <g id="Group_1205" data-name="Group 1205">
            <rect id="Rectangle_3421" data-name="Rectangle 3421" width="1" height="1" stroke="#000" stroke-linejoin="round" stroke-width="0.25"/>
          </g>
        </g>
      </g>
    </g>
    <rect id="Rectangle_3609" data-name="Rectangle 3609" width="40" height="40" transform="translate(51 98)" fill="none"/>
  </g>
</svg>
