<svg xmlns="http://www.w3.org/2000/svg" width="40" height="40" viewBox="0 0 40 40">
  <g id="l_service3" transform="translate(-83 -280)">
    <rect id="Rectangle_151" data-name="Rectangle 151" width="40" height="40" transform="translate(83 280)" fill="none"/>
    <g id="Group_297" data-name="Group 297" transform="translate(88.02 286.95)">
      <path id="Path_855" data-name="Path 855" d="M22.356,21.754,20.1,19.5l-1,1.044L22.356,23.8Z" transform="translate(-10.763 -11.01)" fill="#fad869"/>
      <path id="Path_856" data-name="Path 856" d="M12.336,25.282,4.2,17.1,1.9,19.4,12.336,29.832Z" transform="translate(-0.743 -9.612)" fill="#e0562b"/>
      <line id="Line_11" data-name="Line 11" x2="4.467" transform="translate(19.274 2.645)" fill="none" stroke="#000" stroke-miterlimit="10" stroke-width="1.25"/>
      <rect id="Rectangle_150" data-name="Rectangle 150" width="12.44" height="17.073" transform="translate(15.225 4.274)" fill="#fad869"/>
      <circle id="Ellipse_1" data-name="Ellipse 1" cx="1.127" cy="1.127" r="1.127" transform="translate(20.36 21.806)"/>
      <line id="Line_12" data-name="Line 12" x1="2.004" transform="translate(17.813 0.6)" fill="none" stroke="#000" stroke-miterlimit="10" stroke-width="1.264"/>
      <path id="Path_853" data-name="Path 853" d="M34.988.6H34.07A1.675,1.675,0,0,0,32.4,2.27V23.392a1.675,1.675,0,0,0,1.67,1.67H46.176a1.675,1.675,0,0,0,1.67-1.67V2.27A1.675,1.675,0,0,0,46.176.6H40" transform="translate(-18.511)" fill="none" stroke="#000" stroke-miterlimit="10" stroke-width="1.25"/>
      <path id="Path_854" data-name="Path 854" d="M11.593,24.268,1.032,13.707a1.336,1.336,0,0,1,0-1.92L8.087,4.732a1.336,1.336,0,0,1,1.92,0l1.712,1.712" transform="translate(0 -2.17)" fill="none" stroke="#000" stroke-miterlimit="10" stroke-width="1.25"/>
    </g>
  </g>
</svg>
