<svg xmlns="http://www.w3.org/2000/svg" width="40" height="40" viewBox="0 0 40 40">
  <g id="l_service5" transform="translate(-83 -280)">
    <rect id="Rectangle_151" data-name="Rectangle 151" width="40" height="40" transform="translate(83 280)" fill="none"/>
    <g id="Group_304" data-name="Group 304" transform="translate(87.3 288.3)">
      <g id="Group_302" data-name="Group 302" transform="translate(1.071 0.885)">
        <path id="Path_857" data-name="Path 857" d="M25.241,10.559H1.5V1.935A.831.831,0,0,1,2.335,1.1h22.21a.732.732,0,0,1,.742.742v8.717Z" transform="translate(-1.5 -1.1)" fill="#e0562b"/>
      </g>
      <g id="Group_303" data-name="Group 303" transform="translate(1.071 0.7)">
        <path id="Path_858" data-name="Path 858" d="M22.324,1.39a1.516,1.516,0,0,1,1.487,1.518V21.216a1.516,1.516,0,0,1-1.487,1.518H2.862a1.516,1.516,0,0,1-1.487-1.518V2.908A1.516,1.516,0,0,1,2.862,1.39H22.324m0-.69H2.862A2.186,2.186,0,0,0,.7,2.908V21.216a2.186,2.186,0,0,0,2.162,2.208H22.324a2.186,2.186,0,0,0,2.162-2.208V2.908A2.158,2.158,0,0,0,22.324.7Z" transform="translate(-0.7 -0.7)" fill="#e0562b"/>
      </g>
      <path id="Path_859" data-name="Path 859" d="M39.1,25.2l-4.4,4.266L36.277,31l4.359-4.312Z" transform="translate(-18.194 -13.108)" fill="#fad869"/>
      <path id="Path_860" data-name="Path 860" d="M52.4,7.4l-7.6,7.79,1.716,1.947,7.975-8.022Z" transform="translate(-23.588 -3.593)" fill="#fff"/>
      <path id="Path_861" data-name="Path 861" d="M45.342,7.1,47.2,8.955,33.1,23.1H31.2V20.871l5.935-5.75Z" transform="translate(-16.294 -3.432)" fill="none" stroke="#000" stroke-miterlimit="10" stroke-width="1.25"/>
      <line id="Line_13" data-name="Line 13" x1="1.994" y1="1.947" transform="translate(20.915 11.621)" fill="none" stroke="#000" stroke-miterlimit="10" stroke-width="1.25"/>
      <line id="Line_14" data-name="Line 14" x2="2.04" y2="2.04" transform="translate(16.036 16.362)" fill="none" stroke="#000" stroke-miterlimit="10" stroke-width="1.25"/>
      <line id="Line_15" data-name="Line 15" x1="0.927" y2="0.927" transform="translate(13.943 19.712)" fill="none" stroke="#000" stroke-miterlimit="10" stroke-width="1.25"/>
      <path id="Path_862" data-name="Path 862" d="M59.724,13.1l.974.974-4.5,4.5" transform="translate(-29.702 -6.635)" fill="none" stroke="#000" stroke-miterlimit="10" stroke-width="1.25"/>
      <line id="Line_16" data-name="Line 16" y1="1.437" x2="1.437" transform="translate(29.929 3.111)" fill="none" stroke="#000" stroke-miterlimit="10" stroke-width="1.25"/>
      <line id="Line_17" data-name="Line 17" x2="2.875" transform="translate(3.158 13.942)" fill="none" stroke="#000" stroke-miterlimit="10" stroke-width="1.25"/>
      <line id="Line_18" data-name="Line 18" x2="5.425" transform="translate(7.161 13.942)" fill="none" stroke="#000" stroke-miterlimit="10" stroke-width="1.25"/>
      <line id="Line_19" data-name="Line 19" x2="11.917" transform="translate(3.158 15.94)" fill="none" stroke="#000" stroke-miterlimit="10" stroke-width="1.25"/>
      <line id="Line_20" data-name="Line 20" x2="10.757" transform="translate(3.158 17.892)" fill="none" stroke="#000" stroke-miterlimit="10" stroke-width="1.25"/>
      <line id="Line_21" data-name="Line 21" x2="4.405" transform="translate(3.158 19.898)" fill="none" stroke="#000" stroke-miterlimit="10" stroke-width="1.25"/>
      <line id="Line_22" data-name="Line 22" x2="2.55" transform="translate(8.554 19.898)" fill="none" stroke="#000" stroke-miterlimit="10" stroke-width="1.25"/>
      <line id="Line_23" data-name="Line 23" x1="2.921" transform="translate(5.626 0.7)" fill="none" stroke="#000" stroke-miterlimit="10" stroke-width="1.25"/>
      <path id="Path_863" data-name="Path 863" d="M36.928,5.615V2.555A1.86,1.86,0,0,0,35.073.7H22.6" transform="translate(-11.706 0)" fill="none" stroke="#000" stroke-miterlimit="10" stroke-width="1.25"/>
      <path id="Path_864" data-name="Path 864" d="M3.164.7h-.6A1.865,1.865,0,0,0,.7,2.559V21.841A1.865,1.865,0,0,0,2.56,23.7H23.433a1.865,1.865,0,0,0,1.86-1.859V13.571" transform="translate(0 0)" fill="none" stroke="#000" stroke-miterlimit="10" stroke-width="1.25"/>
      <line id="Line_24" data-name="Line 24" x1="19.428" transform="translate(0.7 10.643)" fill="none" stroke="#000" stroke-miterlimit="10" stroke-width="1.25"/>
    </g>
  </g>
</svg>
