<svg xmlns="http://www.w3.org/2000/svg" width="207" height="50" viewBox="0 0 207 50">
  <g id="logo" transform="translate(-1742 -2294)">
    <rect id="Rectangle_4447" data-name="Rectangle 4447" width="207" height="50" transform="translate(1742 2294)" fill="none"/>
    <g id="logo-2" data-name="logo" transform="translate(1522.663 2267.358)">
      <g id="Group_9404" data-name="Group 9404" transform="translate(252.637 43.309)">
        <path id="Path_8702" data-name="Path 8702" d="M1028.633,89.921a7.291,7.291,0,0,1,3.337,1.363,4.057,4.057,0,0,1,1.529,3.2,4.455,4.455,0,0,1-1.014,2.756,5.768,5.768,0,0,1-2.768,1.915,17.785,17.785,0,0,1-5.382.6h-10.113v-.522h.806a2.27,2.27,0,0,0,1.927-.771,4.046,4.046,0,0,0,.362-2.122V83.886a3.557,3.557,0,0,0-.456-2.258,2.443,2.443,0,0,0-1.832-.628h-.806v-.527h9.259a20,20,0,0,1,4.155.344,6.851,6.851,0,0,1,3.616,1.814,4.2,4.2,0,0,1,1.251,2.993,3.883,3.883,0,0,1-.978,2.6,5.842,5.842,0,0,1-2.893,1.7Zm-8.281-.771a11.3,11.3,0,0,0,1.334.148c.5.036,1.049.053,1.654.053a10.236,10.236,0,0,0,3.468-.451,3.625,3.625,0,0,0,1.778-1.369,3.533,3.533,0,0,0-.919-4.908,7.16,7.16,0,0,0-4.469-1.2,11.912,11.912,0,0,0-2.845.314Zm0,9.217a17.709,17.709,0,0,0,3.622.385,6.99,6.99,0,0,0,4.357-1.162,3.487,3.487,0,0,0,1.5-2.863,3.908,3.908,0,0,0-.676-2.164,4.483,4.483,0,0,0-2.211-1.636,10.546,10.546,0,0,0-3.794-.6c-.652,0-1.209.012-1.672.03a9.165,9.165,0,0,0-1.126.1Z" transform="translate(-933.352 -80.033)" fill="#930b33"/>
        <path id="Path_8703" data-name="Path 8703" d="M1178.179,90.667h-8.3l-1.446,3.041a4.43,4.43,0,0,0-.539,1.677.948.948,0,0,0,.462.777,4.428,4.428,0,0,0,2.016.433v.533h-6.746v-.533a3.833,3.833,0,0,0,1.737-.551,8.559,8.559,0,0,0,1.784-2.774l7.54-15.874h.552l7.457,16.046a7.4,7.4,0,0,0,1.636,2.513,3.611,3.611,0,0,0,2.045.64v.533h-8.453v-.533a3.421,3.421,0,0,0,1.731-.379.961.961,0,0,0,.451-.794,5.462,5.462,0,0,0-.634-1.98Zm-.445-1.055-3.634-7.795-3.729,7.795Z" transform="translate(-1061.458 -77.395)" fill="#930b33"/>
        <path id="Path_8704" data-name="Path 8704" d="M1322.8,80.472h5.809l13.1,14.469V83.815a3.559,3.559,0,0,0-.439-2.217,2.5,2.5,0,0,0-1.849-.6h-.747v-.527h7.457V81h-.753a2.306,2.306,0,0,0-1.932.741,3.95,3.95,0,0,0-.344,2.075v16.26h-.569l-14.126-15.53V96.423a3.625,3.625,0,0,0,.427,2.217,2.523,2.523,0,0,0,1.85.6h.759v.527h-7.457v-.527h.741a2.308,2.308,0,0,0,1.944-.741,3.945,3.945,0,0,0,.349-2.075V83.009a9.237,9.237,0,0,0-1.417-1.3,5.439,5.439,0,0,0-1.417-.581A5.608,5.608,0,0,0,1322.8,81Z" transform="translate(-1197.944 -80.033)" fill="#930b33"/>
        <path id="Path_8705" data-name="Path 8705" d="M1502.592,89.067l7.9,7.066a14.185,14.185,0,0,0,3.313,2.383,7.838,7.838,0,0,0,2.75.723v.522h-10.19v-.522a2.385,2.385,0,0,0,1.316-.279.776.776,0,0,0,.409-.622,1.245,1.245,0,0,0-.154-.611,5.468,5.468,0,0,0-.984-1.008l-7.4-6.586v6.212a5.812,5.812,0,0,0,.207,1.938,1.352,1.352,0,0,0,.664.611,3.2,3.2,0,0,0,1.441.344h.723v.522h-9.135v-.522h.759a2.433,2.433,0,0,0,1.932-.7,3.989,3.989,0,0,0,.379-2.193V83.886a5.874,5.874,0,0,0-.208-1.944,1.354,1.354,0,0,0-.652-.6,3.173,3.173,0,0,0-1.452-.344h-.759v-.527h9.135V81h-.723a3.408,3.408,0,0,0-1.441.326,1.32,1.32,0,0,0-.682.682,5.977,5.977,0,0,0-.189,1.879v5.9l2.163-1.808a45.078,45.078,0,0,0,5.679-5.163,1.8,1.8,0,0,0,.427-.99.7.7,0,0,0-.338-.575,1.858,1.858,0,0,0-1.12-.255h-.492v-.527h7.872V81a5.466,5.466,0,0,0-1.262.172,7.211,7.211,0,0,0-1.393.6,13.48,13.48,0,0,0-2.021,1.446q-.347.276-3.207,2.911Z" transform="translate(-1344.27 -80.033)" fill="#930b33"/>
        <path id="Path_8706" data-name="Path 8706" d="M468.429,98.56h-8.7v-.966a9.528,9.528,0,0,0,1.909-.267c.5-.136.759-.3.759-.5a2.073,2.073,0,0,0-.03-.3,1.824,1.824,0,0,0-.089-.314l-1.737-4.31h-7.315c-.273.634-.5,1.186-.67,1.654s-.326.9-.462,1.3a8.036,8.036,0,0,0-.267.948,3.339,3.339,0,0,0-.071.6c0,.362.308.646.925.836a7.9,7.9,0,0,0,2.093.356v.966h-7.86v-.966a6.127,6.127,0,0,0,.954-.154,3.389,3.389,0,0,0,.942-.344,3.612,3.612,0,0,0,.919-.765,5.292,5.292,0,0,0,.628-1.108q1.574-3.619,3.474-8.127t3.379-8.038h1.18l6.965,16.586a3.055,3.055,0,0,0,.5.853,2.931,2.931,0,0,0,1.666.954,4.373,4.373,0,0,0,.907.142Zm-8.411-7.86-3.171-7.457-3.1,7.457Z" transform="translate(-446.918 -78.821)" fill="#930b33"/>
        <path id="Path_8707" data-name="Path 8707" d="M621.187,89.98c-.237.03-.551.071-.949.13a3.907,3.907,0,0,0-.966.249,1.261,1.261,0,0,0-.623.575,1.951,1.951,0,0,0-.184.877v1.494c0,1.079.006,1.814.018,2.193s.036.688.053.937a23.764,23.764,0,0,1-3.9,1.245,17.773,17.773,0,0,1-3.811.433,10.893,10.893,0,0,1-3.853-.694,9.632,9.632,0,0,1-3.237-1.962,9.338,9.338,0,0,1-2.223-3.13,9.969,9.969,0,0,1-.824-4.12,10.368,10.368,0,0,1,.788-4.072,9.538,9.538,0,0,1,2.229-3.26,9.789,9.789,0,0,1,3.331-2.1,11.259,11.259,0,0,1,4.143-.753,10.778,10.778,0,0,1,3.076.391,11.523,11.523,0,0,1,2.312.948l.6-.925h1.18l.13,6.728h-1.2a18.029,18.029,0,0,0-.765-2.187,7.7,7.7,0,0,0-1.18-1.938,5.393,5.393,0,0,0-1.76-1.358,5.6,5.6,0,0,0-2.478-.51,6.391,6.391,0,0,0-2.81.593,6.007,6.007,0,0,0-2.152,1.755,8,8,0,0,0-1.381,2.8,13.415,13.415,0,0,0-.486,3.752,12.281,12.281,0,0,0,.474,3.45,8.656,8.656,0,0,0,1.393,2.8,6.5,6.5,0,0,0,2.282,1.9,6.86,6.86,0,0,0,3.106.694,7.242,7.242,0,0,0,2.359-.368,4.285,4.285,0,0,0,1.512-.776,9.387,9.387,0,0,0,.124-1.423c.006-.474.006-.883.006-1.215V92.073a2.818,2.818,0,0,0-.166-1.014,1.146,1.146,0,0,0-.705-.646,5.418,5.418,0,0,0-1.316-.3c-.551-.065-.99-.107-1.3-.13V89h9.152Z" transform="translate(-578.768 -77.929)" fill="#930b33"/>
        <path id="Path_8708" data-name="Path 8708" d="M786.939,100.164h-5.619q-1.867-2.7-3.379-4.665c-1-1.31-2.1-2.661-3.272-4.049h-2.134v6.094a2.039,2.039,0,0,0,.16.836,1.111,1.111,0,0,0,.694.551,5.175,5.175,0,0,0,.925.172c.444.053.812.089,1.12.095v.966H766.6V99.2c.237-.018.575-.047,1.026-.095a3.823,3.823,0,0,0,.937-.172,1.244,1.244,0,0,0,.634-.516,1.664,1.664,0,0,0,.2-.871v-13.9a2.2,2.2,0,0,0-.142-.842,1.058,1.058,0,0,0-.688-.557,7.419,7.419,0,0,0-.96-.219,8.988,8.988,0,0,0-1-.13v-.966h9.638a11.934,11.934,0,0,1,2.49.255,7.059,7.059,0,0,1,2.1.806,4.227,4.227,0,0,1,1.458,1.417,3.912,3.912,0,0,1,.539,2.1,4.859,4.859,0,0,1-.368,1.968,4.013,4.013,0,0,1-1.085,1.476,6.426,6.426,0,0,1-1.594,1.008,12.33,12.33,0,0,1-2.045.723c1.031,1.263,1.891,2.318,2.573,3.177s1.517,1.9,2.507,3.13a5.765,5.765,0,0,0,2.211,1.832,3.789,3.789,0,0,0,.948.267,7.009,7.009,0,0,0,.96.107ZM779.2,85.825a3.62,3.62,0,0,0-1.091-2.768,4.307,4.307,0,0,0-3.076-1.026h-2.5v8.251h1.927a4.925,4.925,0,0,0,3.385-1.2,4.141,4.141,0,0,0,1.357-3.26Z" transform="translate(-721.029 -80.425)" fill="#930b33"/>
        <path id="Path_8709" data-name="Path 8709" d="M932.975,98.881h-9.4v-.871c.267-.012.646-.035,1.144-.071a5.268,5.268,0,0,0,1.061-.142,1.5,1.5,0,0,0,.706-.433,1.188,1.188,0,0,0,.225-.765V82.5a4.631,4.631,0,0,0-.166-1.3,1.251,1.251,0,0,0-.765-.48,9.047,9.047,0,0,0-1.108-.279,8.323,8.323,0,0,0-1.1-.148v-.865h9.4V80.3a10.568,10.568,0,0,0-1.091.089,8.6,8.6,0,0,0-1.1.2,1.161,1.161,0,0,0-.747.474,1.409,1.409,0,0,0-.19.729V96.462a1.229,1.229,0,0,0,.207.717,1.405,1.405,0,0,0,.729.492,8.259,8.259,0,0,0,1.008.213,8.389,8.389,0,0,0,1.186.124Z" transform="translate(-855.625 -79.142)" fill="#930b33"/>
      </g>
      <path id="Path_8710" data-name="Path 8710" d="M247.906,38.934a1.3,1.3,0,0,0-1.3-1.292H221.641a1.3,1.3,0,0,0-1.3,1.292V63.6a1.3,1.3,0,0,0,1.3,1.286h24.967a1.292,1.292,0,0,0,1.3-1.286Z" fill="#fff" stroke="#a5a7a7" stroke-miterlimit="10" stroke-width="0.766"/>
      <path id="Path_8711" data-name="Path 8711" d="M287.783,120.741H302.6a1.819,1.819,0,0,0,1.82-1.8V104.3Z" transform="translate(-57.831 -57.154)" fill="#0d301f"/>
      <path id="Path_8712" data-name="Path 8712" d="M254.542,48.592a1.81,1.81,0,0,0-1.826-1.8h-5.448L229.61,64.259v5.364a1.8,1.8,0,0,0,1.82,1.8l5.365.006,17.741-17.54Z" transform="translate(-7.951 -7.844)" fill="#930b33"/>
      <path id="Path_8713" data-name="Path 8713" d="M231.436,46.79a1.794,1.794,0,0,0-1.826,1.8V63.144L246.16,46.79Z" transform="translate(-7.951 -7.844)" fill="#0d301f"/>
      <path id="Path_8714" data-name="Path 8714" d="M292.191,198.652a10.316,10.316,0,0,1,1.82-.528,2.481,2.481,0,0,0,2.158-2.478c-.024-.51-.794.142-.794.142a7.618,7.618,0,0,0-2.152.6,2.73,2.73,0,0,0-1.031,2.264Z" transform="translate(-61.611 -135.313)" fill="#fac800" stroke="#940f33" stroke-miterlimit="10" stroke-width="0.766"/>
      <path id="Path_8715" data-name="Path 8715" d="M316.622,173.948s.356,2.217-1.423,2.916a17.474,17.474,0,0,0-2.069.836,2.379,2.379,0,0,1,.913-2.46,9.191,9.191,0,0,1,1.843-.794,1.454,1.454,0,0,0,.735-.5Z" transform="translate(-79.516 -116.875)" fill="#fac800" stroke="#940f33" stroke-miterlimit="10" stroke-width="0.766"/>
      <path id="Path_8716" data-name="Path 8716" d="M330.42,154.737a2.262,2.262,0,0,1-.136,2.881c-.267.356-1.6,1.209-1.932,1.606a2.857,2.857,0,0,1,.136-2.6,7.61,7.61,0,0,1,1.31-1.185,3.027,3.027,0,0,0,.622-.706Z" transform="translate(-92.395 -100.403)" fill="#fac800" stroke="#940f33" stroke-miterlimit="10" stroke-width="0.766"/>
      <path id="Path_8717" data-name="Path 8717" d="M331.417,134.237s-1.037.6-.35,2.312a14.456,14.456,0,0,1,.9,2.015,2.276,2.276,0,0,0,.86-2.679,3.452,3.452,0,0,0-1.411-1.648Z" transform="translate(-94.744 -82.825)" fill="#fac800" stroke="#940f33" stroke-miterlimit="10" stroke-width="0.766"/>
      <path id="Path_8718" data-name="Path 8718" d="M315.863,117.854a2.31,2.31,0,0,0,.492,2.092c.356.415,1.956.9,2.65,1.4,0,0,.842-2.721-3.142-3.5Z" transform="translate(-81.845 -68.778)" fill="#fac800" stroke="#940f33" stroke-miterlimit="10" stroke-width="0.766"/>
      <path id="Path_8719" data-name="Path 8719" d="M300.735,104.3s3.462.249,2.993,3.379a10.739,10.739,0,0,0-1.417-.735c-.279-.136-1.66-.569-1.577-1.855a7.8,7.8,0,0,0,0-.788Z" transform="translate(-68.934 -57.154)" fill="#fac800" stroke="#940f33" stroke-miterlimit="10" stroke-width="0.766"/>
      <path id="Path_8720" data-name="Path 8720" d="M296.24,82.145a2.215,2.215,0,0,0-.646,2.59,3.721,3.721,0,0,0,1.132,1.346s.4-1.12.646-1.938c.095-.326.338-1.624-.468-2.128a.479.479,0,0,0-.664.13Z" transform="translate(-64.373 -37.977)" fill="#fac800" stroke="#940f33" stroke-miterlimit="10" stroke-width="0.766"/>
      <path id="Path_8721" data-name="Path 8721" d="M298.536,67.989s-1-2.9,2.584-3.693a1.688,1.688,0,0,1-.51,2.282c-.356.332-1.844,1.079-2.075,1.411Z" transform="translate(-66.942 -22.854)" fill="#fac800" stroke="#940f33" stroke-miterlimit="10" stroke-width="0.766"/>
      <path id="Path_8722" data-name="Path 8722" d="M317.051,48.827s-3.711-.089-3.557,3.2a9.813,9.813,0,0,0,2.952-1.387,2.644,2.644,0,0,0,.6-1.814Z" transform="translate(-79.873 -9.59)" fill="#fac800" stroke="#940f33" stroke-miterlimit="10" stroke-width="0.766"/>
    </g>
  </g>
</svg>
