<svg xmlns="http://www.w3.org/2000/svg" width="38.807" height="38.807" viewBox="0 0 38.807 38.807">
  <g id="r_service2" transform="translate(-83.403 -280.404)">
    <rect id="Rectangle_151" data-name="Rectangle 151" width="38.808" height="38.808" transform="translate(83.403 280.404)" fill="none"/>
    <g id="Group_4048" data-name="Group 4048" transform="translate(312.403 197.404)">
      <g id="Group_587" data-name="Group 587" transform="translate(-222 92)">
        <rect id="Rectangle_151-2" data-name="Rectangle 151" width="1.786" height="1.786" transform="translate(12.957 8.65)" fill="none"/>
        <g id="train">
          <rect id="Rectangle_3577" data-name="Rectangle 3577" width="23.3" height="2.611" transform="translate(0.35 18.728)" fill="#fad869"/>
          <path id="Path_1974" data-name="Path 1974" d="M98.24,390.321l-2.258,2.239H88.76l2.258-2.239Z" transform="translate(-84.548 -373.832)" fill="#fad869"/>
          <path id="Path_1977" data-name="Path 1977" d="M115.538,64.759a13.638,13.638,0,0,0-5.948,5.209,23.564,23.564,0,0,0-6.443,1.529A35.139,35.139,0,0,1,115.538,64.759Z" transform="translate(-98.213 -63.25)" fill="#fad869"/>
          <path id="Path_1978" data-name="Path 1978" d="M293.582,259.544h-7.229l-2.939,3.988h10.168" transform="translate(-269.932 -249.072)" fill="#e0562b"/>
          <ellipse id="Ellipse_257" data-name="Ellipse 257" cx="1.215" cy="1.895" rx="1.215" ry="1.895" transform="translate(6.573 10.175)" fill="#fad869"/>
          <path id="Path_1979" data-name="Path 1979" d="M66.637,257.009c-.954,0-1.7,1.046-1.7,2.381s.747,2.381,1.7,2.381,1.7-1.046,1.7-2.381S67.59,257.009,66.637,257.009Zm0,3.79c-.344,0-.729-.6-.729-1.409,0-.873.425-1.409.729-1.409.344,0,.729.6.729,1.409S66.981,260.8,66.637,260.8Z" transform="translate(-58.853 -247.32)" stroke="#000" stroke-width="0.5"/>
          <path id="Path_1980" data-name="Path 1980" d="M23.274,48.792h.37a.353.353,0,0,0,.356-.35V32.309a.351.351,0,0,0-.026-.139.358.358,0,0,0-.37-.215l-2.637.293-.014,0A32.847,32.847,0,0,0,14.6,34.082a37.237,37.237,0,0,0-6.009,2.973A31.566,31.566,0,0,0,2.38,42.019a3.79,3.79,0,0,0-.929,3.689,3.937,3.937,0,0,0,2.772,2.737,10.073,10.073,0,0,0,1.427.294L4.014,50.331H.356a.353.353,0,0,0-.356.35v2.611a.353.353,0,0,0,.356.35H3.945a.353.353,0,0,0,.356-.35h0a.353.353,0,0,0-.356-.35H.713V51.031H23.287v1.911H7.791a.353.353,0,0,0-.356.35h0a.353.353,0,0,0,.356.35H23.644a.353.353,0,0,0,.356-.35V50.681a.353.353,0,0,0-.356-.35H22.462A2.569,2.569,0,0,0,23.274,48.792ZM8.957,37.655a36.511,36.511,0,0,1,5.884-2.915,38.053,38.053,0,0,1,4-1.308v1.9A2.587,2.587,0,0,1,16.367,37.9a46.937,46.937,0,0,0-9.673,1.282Q7.781,38.381,8.957,37.655ZM2.138,45.521A3.1,3.1,0,0,1,2.9,42.5a29.134,29.134,0,0,1,2.134-2c2.868-1.29,8.35-1.743,11.372-1.9a3.293,3.293,0,0,0,3.154-3.263V33.252c.657-.158,1.173-.26,1.5-.309l2.233-.248v9.38h-1a.353.353,0,0,0-.356.35h0a.353.353,0,0,0,.356.35h1v3.289h-9.3l2.469-3.289H18.44a.353.353,0,0,0,.356-.35h0a.353.353,0,0,0-.356-.35H16.279a.359.359,0,0,0-.287.142L13,46.206a.345.345,0,0,0,.014.433.37.37,0,0,0,.283.124h9.992v1.329H6.461a7.833,7.833,0,0,1-2.044-.321A3.237,3.237,0,0,1,2.138,45.521Zm13.96,4.81a1.918,1.918,0,0,1-1.891-1.539H17.99A1.918,1.918,0,0,1,16.1,50.332ZM6.608,48.792h6.345l-1.581,1.539H5.026Zm5.776,1.539,1.187-1.155a2.585,2.585,0,0,0,.728,1.155Zm5.516,0a2.614,2.614,0,0,0,.48-.592,2.613,2.613,0,0,0,.48.592Zm.87-1.539h3.782a1.931,1.931,0,0,1-3.782,0Z" transform="translate(0 -31.953)" stroke="#000" stroke-width="0.6"/>
        </g>
      </g>
    </g>
  </g>
</svg>
