<svg xmlns="http://www.w3.org/2000/svg" width="40" height="40" viewBox="0 0 40 40">
  <g id="r_service7" transform="translate(-83 -280)">
    <rect id="Rectangle_151" data-name="Rectangle 151" width="40" height="40" transform="translate(83 280)" fill="none"/>
    <g id="Group_4679" data-name="Group 4679" transform="translate(0 0)">
      <path id="Union_21" data-name="Union 21" d="M9.426,10.079l-.065-.2H3.542L0,5.9,6.306,0,9.058,2.135,15.5,0l3.716,10.079Z" transform="translate(91.654 289.146)" fill="#fad869"/>
      <ellipse id="Ellipse_289" data-name="Ellipse 289" cx="3.114" cy="3.114" rx="3.114" ry="3.114" transform="translate(109.772 288)" fill="#fad869"/>
      <g id="_003-payment" data-name="003-payment" transform="translate(91 288)">
        <g id="Group_4604" data-name="Group 4604">
          <g id="Group_4603" data-name="Group 4603">
            <path id="Path_5528" data-name="Path 5528" d="M6.986,0,0,6.986,2.923,9.909,3.2,9.632a3.748,3.748,0,0,0,.262-5L4.63,3.461a3.718,3.718,0,0,0,1.641.766L6.42,3.46A2.939,2.939,0,0,1,5.187,2.9l1.8-1.8L8.273,2.392l.553-.553ZM2.9,8.785l-1.8-1.8,1.8-1.8A2.968,2.968,0,0,1,2.9,8.785Z" stroke="#000" stroke-width="0.5"/>
          </g>
        </g>
        <g id="Group_4606" data-name="Group 4606" transform="translate(13.24 7.135)">
          <g id="Group_4605" data-name="Group 4605" transform="translate(0 0)">
            <rect id="Rectangle_3609" data-name="Rectangle 3609" width="0.718" height="0.718" transform="translate(0 0.228) rotate(-18.475)" stroke="#000" stroke-width="0.25"/>
          </g>
        </g>
        <g id="Group_4608" data-name="Group 4608" transform="translate(6.913 0.116)">
          <g id="Group_4607" data-name="Group 4607">
            <path id="Path_5529" data-name="Path 5529" d="M150.457,2.374l-9.371,3.131,2.119,6.284.741-.25-.8-2.386a3.749,3.749,0,0,0,2.095-4.211l1.569-.524a3.752,3.752,0,0,0,3.409,2.193,3.717,3.717,0,0,0,.806-.089l1.762,5.271.741-.248Zm-7.568,6.034L142.077,6l2.412-.806A2.966,2.966,0,0,1,142.889,8.408Zm4.662-4.239,2.412-.806.806,2.412A2.966,2.966,0,0,1,147.551,4.169Z" transform="translate(-141.086 -2.374)" stroke="#000" stroke-width="0.5"/>
          </g>
        </g>
        <g id="Group_4610" data-name="Group 4610" transform="translate(12.958 8.241)">
          <g id="Group_4609" data-name="Group 4609">
            <path id="Path_5530" data-name="Path 5530" d="M266.414,168.906a3.128,3.128,0,0,0-1.232.757l.556.549a2.342,2.342,0,0,1,.923-.565,1.873,1.873,0,0,1,2.147.508l.65-.434A2.621,2.621,0,0,0,266.414,168.906Z" transform="translate(-265.182 -168.737)" stroke="#000" stroke-width="0.25"/>
          </g>
        </g>
        <g id="Group_4612" data-name="Group 4612" transform="translate(15.72 12.19)">
          <g id="Group_4611" data-name="Group 4611">
            <rect id="Rectangle_3610" data-name="Rectangle 3610" width="0.782" height="0.782" stroke="#000" stroke-width="0.25"/>
          </g>
        </g>
        <g id="Group_4614" data-name="Group 4614" transform="translate(9.445 12.19)">
          <g id="Group_4613" data-name="Group 4613">
            <rect id="Rectangle_3611" data-name="Rectangle 3611" width="0.782" height="0.782" stroke="#000" stroke-width="0.25"/>
          </g>
        </g>
        <g id="Group_4616" data-name="Group 4616" transform="translate(7.876 12.19)">
          <g id="Group_4615" data-name="Group 4615">
            <rect id="Rectangle_3612" data-name="Rectangle 3612" width="0.782" height="0.782" stroke="#000" stroke-width="0.25"/>
          </g>
        </g>
        <g id="Group_4618" data-name="Group 4618" transform="translate(4.738 12.19)">
          <g id="Group_4617" data-name="Group 4617">
            <rect id="Rectangle_3613" data-name="Rectangle 3613" width="0.782" height="0.782" stroke="#000" stroke-width="0.25"/>
          </g>
        </g>
        <g id="Group_4620" data-name="Group 4620" transform="translate(14.152 12.19)">
          <g id="Group_4619" data-name="Group 4619">
            <rect id="Rectangle_3614" data-name="Rectangle 3614" width="0.782" height="0.782" stroke="#000" stroke-width="0.25"/>
          </g>
        </g>
        <g id="Group_4622" data-name="Group 4622" transform="translate(6.307 12.19)">
          <g id="Group_4621" data-name="Group 4621">
            <rect id="Rectangle_3615" data-name="Rectangle 3615" width="0.782" height="0.782" stroke="#000" stroke-width="0.25"/>
          </g>
        </g>
        <g id="Group_4624" data-name="Group 4624" transform="translate(12.583 12.19)">
          <g id="Group_4623" data-name="Group 4623">
            <rect id="Rectangle_3616" data-name="Rectangle 3616" width="0.782" height="0.782" stroke="#000" stroke-width="0.25"/>
          </g>
        </g>
        <g id="Group_4626" data-name="Group 4626" transform="translate(20.441 12.19)">
          <g id="Group_4625" data-name="Group 4625">
            <rect id="Rectangle_3617" data-name="Rectangle 3617" width="0.782" height="0.782" stroke="#000" stroke-width="0.25"/>
          </g>
        </g>
        <g id="Group_4628" data-name="Group 4628" transform="translate(17.289 12.19)">
          <g id="Group_4627" data-name="Group 4627">
            <rect id="Rectangle_3618" data-name="Rectangle 3618" width="0.782" height="0.782" stroke="#000" stroke-width="0.25"/>
          </g>
        </g>
        <g id="Group_4630" data-name="Group 4630" transform="translate(18.858 12.19)">
          <g id="Group_4629" data-name="Group 4629">
            <rect id="Rectangle_3619" data-name="Rectangle 3619" width="0.782" height="0.782" stroke="#000" stroke-width="0.25"/>
          </g>
        </g>
        <g id="Group_4632" data-name="Group 4632" transform="translate(11.014 12.19)">
          <g id="Group_4631" data-name="Group 4631">
            <rect id="Rectangle_3620" data-name="Rectangle 3620" width="0.782" height="0.782" stroke="#000" stroke-width="0.25"/>
          </g>
        </g>
        <g id="Group_4634" data-name="Group 4634" transform="translate(4.738 22.655)">
          <g id="Group_4633" data-name="Group 4633">
            <rect id="Rectangle_3621" data-name="Rectangle 3621" width="0.782" height="0.782" stroke="#000" stroke-width="0.25"/>
          </g>
        </g>
        <g id="Group_4636" data-name="Group 4636" transform="translate(20.441 22.655)">
          <g id="Group_4635" data-name="Group 4635">
            <rect id="Rectangle_3622" data-name="Rectangle 3622" width="0.782" height="0.782" stroke="#000" stroke-width="0.25"/>
          </g>
        </g>
        <g id="Group_4638" data-name="Group 4638" transform="translate(18.858 22.655)">
          <g id="Group_4637" data-name="Group 4637">
            <rect id="Rectangle_3623" data-name="Rectangle 3623" width="0.782" height="0.782" stroke="#000" stroke-width="0.25"/>
          </g>
        </g>
        <g id="Group_4640" data-name="Group 4640" transform="translate(17.289 22.655)">
          <g id="Group_4639" data-name="Group 4639">
            <rect id="Rectangle_3624" data-name="Rectangle 3624" width="0.782" height="0.782" stroke="#000" stroke-width="0.25"/>
          </g>
        </g>
        <g id="Group_4642" data-name="Group 4642" transform="translate(14.152 22.655)">
          <g id="Group_4641" data-name="Group 4641">
            <rect id="Rectangle_3625" data-name="Rectangle 3625" width="0.782" height="0.782" stroke="#000" stroke-width="0.25"/>
          </g>
        </g>
        <g id="Group_4644" data-name="Group 4644" transform="translate(15.72 22.655)">
          <g id="Group_4643" data-name="Group 4643">
            <rect id="Rectangle_3626" data-name="Rectangle 3626" width="0.782" height="0.782" stroke="#000" stroke-width="0.25"/>
          </g>
        </g>
        <g id="Group_4646" data-name="Group 4646" transform="translate(6.307 22.655)">
          <g id="Group_4645" data-name="Group 4645">
            <rect id="Rectangle_3627" data-name="Rectangle 3627" width="0.782" height="0.782" stroke="#000" stroke-width="0.25"/>
          </g>
        </g>
        <g id="Group_4648" data-name="Group 4648" transform="translate(12.583 22.655)">
          <g id="Group_4647" data-name="Group 4647">
            <rect id="Rectangle_3628" data-name="Rectangle 3628" width="0.782" height="0.782" stroke="#000" stroke-width="0.25"/>
          </g>
        </g>
        <g id="Group_4650" data-name="Group 4650" transform="translate(9.445 22.655)">
          <g id="Group_4649" data-name="Group 4649">
            <rect id="Rectangle_3629" data-name="Rectangle 3629" width="0.782" height="0.782" stroke="#000" stroke-width="0.25"/>
          </g>
        </g>
        <g id="Group_4652" data-name="Group 4652" transform="translate(7.876 22.655)">
          <g id="Group_4651" data-name="Group 4651">
            <rect id="Rectangle_3630" data-name="Rectangle 3630" width="0.782" height="0.782" stroke="#000" stroke-width="0.25"/>
          </g>
        </g>
        <g id="Group_4654" data-name="Group 4654" transform="translate(11.014 22.655)">
          <g id="Group_4653" data-name="Group 4653">
            <rect id="Rectangle_3631" data-name="Rectangle 3631" width="0.782" height="0.782" stroke="#000" stroke-width="0.25"/>
          </g>
        </g>
        <g id="Group_4656" data-name="Group 4656" transform="translate(2.767 10.67)">
          <g id="Group_4655" data-name="Group 4655">
            <path id="Path_5536" data-name="Path 5536" d="M13.872,4.492c.611-.05,6.635-.1,6.635-.1l-.125,5.517-7.2-.115s-2.116-1.585-1.894-2.916A3.607,3.607,0,0,1,13.872,4.492Z" transform="translate(0.515 0.167)" fill="#e0562b"/>
            <path id="Path_5531" data-name="Path 5531" d="M76.493,221.674v-4.169H56.872v14.33H76.493v-3.908h1.57v-6.253Zm-.785,9.38H57.657v-.782h.392v-.782h-.392v-9.64h.392v-.782h-.392v-.782H75.708v3.387H71.522a3.127,3.127,0,1,0,0,6.253h4.186Zm1.57-3.908H71.522a2.345,2.345,0,1,1,0-4.69h5.755Z" transform="translate(-56.872 -217.505)" stroke="#000" stroke-width="0.5"/>
          </g>
        </g>
        <g id="Group_4658" data-name="Group 4658" transform="translate(18.486 0.162)">
          <g id="Group_4657" data-name="Group 4657">
            <path id="Path_5532" data-name="Path 5532" d="M381.395,3.327a3.257,3.257,0,1,0,3.257,3.257A3.261,3.261,0,0,0,381.395,3.327Zm0,5.732a2.475,2.475,0,1,1,2.475-2.475A2.478,2.478,0,0,1,381.395,9.059Z" transform="translate(-378.138 -3.327)" stroke="#000" stroke-width="0.25"/>
          </g>
        </g>
        <g id="Group_4660" data-name="Group 4660" transform="translate(20.823 1.619)">
          <g id="Group_4659" data-name="Group 4659">
            <path id="Path_5533" data-name="Path 5533" d="M428.136,35.281a.557.557,0,0,0-.083-.164.59.59,0,0,0-.126-.124,1.015,1.015,0,0,0-.156-.093,1.57,1.57,0,0,0-.173-.071q-.09-.031-.18-.057l.066-.666a.892.892,0,0,1,.11.039l.1.042q.045.02.083.033a.207.207,0,0,0,.068.013.139.139,0,0,0,.078-.022.247.247,0,0,0,.065-.068l.143-.208a1.291,1.291,0,0,0-.248-.179,1.107,1.107,0,0,0-.349-.121l.038-.37h-.214a.142.142,0,0,0-.107.043.161.161,0,0,0-.047.1l-.021.212a.972.972,0,0,0-.386.073.921.921,0,0,0-.284.185.781.781,0,0,0-.175.254.735.735,0,0,0-.06.29.748.748,0,0,0,.067.335.655.655,0,0,0,.173.22.872.872,0,0,0,.24.137q.133.051.268.088l-.069.709a.71.71,0,0,1-.15-.057q-.066-.035-.121-.068t-.1-.057a.2.2,0,0,0-.092-.023.165.165,0,0,0-.082.022.183.183,0,0,0-.061.053l-.18.261a1.226,1.226,0,0,0,.331.215,1.635,1.635,0,0,0,.412.125l-.038.386h.214a.143.143,0,0,0,.107-.042.158.158,0,0,0,.047-.095l.023-.234a1.153,1.153,0,0,0,.386-.093.915.915,0,0,0,.285-.2.812.812,0,0,0,.176-.277.928.928,0,0,0,.06-.335A.686.686,0,0,0,428.136,35.281Zm-1.062-.622a.572.572,0,0,1-.185-.115.239.239,0,0,1-.07-.179.259.259,0,0,1,.017-.093.221.221,0,0,1,.054-.08.311.311,0,0,1,.1-.061.6.6,0,0,1,.145-.038Zm.231,1.261.06-.619a.553.553,0,0,1,.181.107.222.222,0,0,1,.068.171A.323.323,0,0,1,427.3,35.919Z" transform="translate(-426.162 -33.265)" stroke="#000" stroke-width="0.25"/>
          </g>
        </g>
        <g id="Group_4662" data-name="Group 4662" transform="translate(15.856 16.379)">
          <g id="Group_4661" data-name="Group 4661">
            <path id="Path_5534" data-name="Path 5534" d="M326.028,335.3a1.433,1.433,0,1,0,1.433,1.433A1.435,1.435,0,0,0,326.028,335.3Zm0,2.084a.651.651,0,1,1,.651-.651A.652.652,0,0,1,326.028,337.387Z" transform="translate(-324.595 -335.303)" stroke="#000" stroke-width="0.25"/>
          </g>
        </g>
      </g>
    </g>
  </g>
</svg>
