<svg xmlns="http://www.w3.org/2000/svg" width="40" height="40" viewBox="0 0 40 40">
  <g id="r_service6" transform="translate(-83 -280)">
    <rect id="Rectangle_151" data-name="Rectangle 151" width="40" height="40" transform="translate(83 280)" fill="none"/>
    <g id="shopping-cart" transform="translate(90 287)">
      <path id="Path_8656" data-name="Path 8656" d="M359.532,431.965h-2.948a2.085,2.085,0,1,0,2.948,0Zm0,0" transform="translate(-337.879 -410.009)" fill="#e0562b"/>
      <path id="Path_8657" data-name="Path 8657" d="M164.751,431.965H161.8a2.085,2.085,0,1,0,2.948,0Zm0,0" transform="translate(-152.999 -410.009)" fill="#e0562b"/>
      <path id="Path_8659" data-name="Path 8659" d="M139.168,50.688h7.864v4.987h-7.864Zm0,0" transform="translate(-132.094 -48.111)" fill="#fad869"/>
      <path id="Path_8660" data-name="Path 8660" d="M301.759,15.611v1.481h-7.865V10.039h7.865Zm0,0" transform="translate(-278.956 -9.529)" fill="#e0562b"/>
      <path id="Path_8661" data-name="Path 8661" d="M25.864,7.191a.579.579,0,0,0-.443-.206H23.308v-.9a.51.51,0,0,0-1.021,0v.9H15.443V1.021h6.844V2a.51.51,0,1,0,1.021,0V.51A.51.51,0,0,0,22.8,0H14.933a.51.51,0,0,0-.51.51V2.066H7.068a.51.51,0,0,0-.51.51V6.984H4.9L4.42,3.676a.51.51,0,0,0-.5-.435H.51a.51.51,0,1,0,0,1.021H3.475L5.569,18.729a.593.593,0,0,0,.017.078,6.8,6.8,0,0,0,.759,2.255,2.769,2.769,0,0,0,1.581,1.26,2.595,2.595,0,1,0,4.755.144h5.081a2.6,2.6,0,1,0,4.821,0h.9a.51.51,0,0,0,0-1.021H8.853c-1.133-.032-1.741-.621-2.133-2.219H23.484a.579.579,0,0,0,.57-.479L25.991,7.663A.58.58,0,0,0,25.864,7.191ZM21.286,24.543a1.575,1.575,0,0,1-2.359-2.077h2.491a1.575,1.575,0,0,1-.132,2.077Zm-9.9,0a1.575,1.575,0,0,1-2.359-2.077h2.49A1.577,1.577,0,0,1,11.386,24.543ZM23.966,12.526H19.01V8.142h5.722ZM12.09,13.684h5.9v4.384h-5.9Zm-1.021,4.384H6.644l-.631-4.384h5.056Zm1.021-5.542V8.142h5.9v4.384ZM7.579,3.087h6.844v3.9H7.579Zm3.49,5.056v4.384H5.846L5.215,8.142ZM23,18.067H19.01V13.684h4.753Zm0,0"/>
      <path id="Path_8662" data-name="Path 8662" d="M439.419,69.624a.51.51,0,1,0-.063.644A.515.515,0,0,0,439.419,69.624Zm0,0" transform="translate(-416.197 -65.87)"/>
    </g>
  </g>
</svg>
