<svg xmlns="http://www.w3.org/2000/svg" width="30" height="30" viewBox="0 0 30 30">
    <g fill="none" fill-rule="evenodd">
        <rect width="30" height="30" fill="#ED1C24" rx="10"/>
        <path fill="#FFF" fill-rule="nonzero" d="M18.985 6h-8.678A1.31 1.31 0 0 0 9 7.307v15.386c0 .72.587 1.307 1.307 1.307h8.678a1.31 1.31 0 0 0 1.308-1.307V7.307A1.31 1.31 0 0 0 18.985 6zm-4.339 16.674a1.1 1.1 0 1 1 .002-2.2 1.1 1.1 0 0 1-.002 2.2zm3.79-3.714a.19.19 0 0 1-.19.19h-7.219a.19.19 0 0 1-.19-.19V8.596a.19.19 0 0 1 .19-.19h7.238a.19.19 0 0 1 .19.19V18.96h-.02z"/>
    </g>
</svg>
