<svg id="menu5-8" xmlns="http://www.w3.org/2000/svg" width="30" height="30" viewBox="0 0 30 30">
  <g id="caidat_doimatkhau" data-name="caidat/doimatkhau">
    <g id="icbg_orange">
      <rect id="icbg_orange-2" data-name="icbg_orange" width="30" height="30" rx="10" fill="#ed1c24"/>
    </g>
    <g id="Group_2305" transform="translate(8 8)">
      <path id="Path_5597" d="M6.476,4.942v-1.7A3.238,3.238,0,0,0,0,3.238v1.7" transform="translate(3.787)" fill="none" stroke="#fff" stroke-linecap="round" stroke-linejoin="round" stroke-miterlimit="10" stroke-width="2"/>
      <path id="Combined_Shape" data-name="Combined Shape" d="M11.045,10H3A3,3,0,0,1,0,7V3A3,3,0,0,1,3,0h8.045a3,3,0,0,1,3,3V7A3,3,0,0,1,11.045,10ZM6.9,3.7A1.5,1.5,0,1,0,8.4,5.2,1.5,1.5,0,0,0,6.9,3.7Z" transform="translate(0 4.942)" fill="#fff"/>
    </g>
  </g>
</svg>
