<svg xmlns="http://www.w3.org/2000/svg" width="30" height="30" viewBox="0 0 30 30">
  <g id="menu5-7" transform="translate(-23 -498)">
    <rect id="Rectangle_1" data-name="Rectangle 1" width="30" height="30" rx="10" transform="translate(23 498)" fill="#ed1c24"/>
    <g id="atm" transform="translate(24 499.299)">
      <path id="Path_3" data-name="Path 3" d="M21.94,8.753H20.005a.277.277,0,0,0-.293.293v1.231a.277.277,0,0,0,.293.293H21.94a.277.277,0,0,0,.293-.293V9.046A.277.277,0,0,0,21.94,8.753Zm-3.753,0H16.253a.277.277,0,0,0-.293.293v1.231a.277.277,0,0,0,.293.293h1.935a.277.277,0,0,0,.293-.293V9.046A.277.277,0,0,0,18.188,8.753ZM21.94,11.8H20.005a.277.277,0,0,0-.293.293v1.231a.277.277,0,0,0,.293.293H21.94a.277.277,0,0,0,.293-.293V12.1A.314.314,0,0,0,21.94,11.8Zm-3.753,0H16.253a.277.277,0,0,0-.293.293v1.231a.277.277,0,0,0,.293.293h1.935a.277.277,0,0,0,.293-.293V12.1A.314.314,0,0,0,18.188,11.8Zm4.4-6.8a.554.554,0,0,1,.586.586v.645H24.52a1.166,1.166,0,0,1,1.173,1.114V20.187A1.127,1.127,0,0,1,24.52,21.3H14.9a1.166,1.166,0,0,1-1.173-1.114,1.182,1.182,0,0,1,.176-.645q3.606-5.277-1.407-7.916V7.345a1.127,1.127,0,0,1,1.173-1.114h1.349V5.586A.588.588,0,0,1,15.608,5Z" transform="translate(-3.516)" fill="#fff" fill-rule="evenodd"/>
      <g id="Group_4" data-name="Group 4" transform="translate(4 13.092)">
        <path id="Path_4" data-name="Path 4" d="M7.284,21.028a1.055,1.055,0,1,1-1.055,1.055A1.051,1.051,0,0,1,7.284,21.028Zm0-1.055a2.052,2.052,0,0,0,0,4.1,2.078,2.078,0,0,0,2.052-2.052A2,2,0,0,0,7.284,19.973Zm0-1.173a3.278,3.278,0,0,1,3.284,3.284c0,1.114-1.29,3.46-2.4,5.336-.235.352-.352.7-.88.7s-.645-.352-.88-.762C5.29,25.543,4,23.2,4,22.084A3.278,3.278,0,0,1,7.284,18.8Z" transform="translate(-4 -18.8)" fill="#fff"/>
      </g>
    </g>
  </g>
</svg>
