<svg xmlns="http://www.w3.org/2000/svg" width="30" height="30" viewBox="0 0 30 30">
    <g fill="none" fill-rule="evenodd">
        <rect width="30" height="30" fill="#ED1C24" rx="10"/>
        <g fill="#FFF">
            <path d="M17.981 10.748l.205.215a.601.601 0 0 1-.063.89.707.707 0 0 1-.446.158h-1.188c-.323 0-.585.243-.585.543v4.698a1.664 1.664 0 0 1-.04.347v.114c-.02.073-.045.144-.074.214 0 .045-.042.082-.062.12-.03.06-.065.12-.102.177l-.088.114c-.04.05-.083.098-.13.145l-.114.101-.156.12-.129.082-.177.088-.149.057-.197.057-.156.032c-.11.009-.222.009-.333 0h-1.554l3.856 4.028a2.003 2.003 0 0 0 2.918 0l4.072-4.287a.594.594 0 0 0 .082-.657.683.683 0 0 0-.618-.372h-1.798V12.49c0-.997-.87-1.806-1.941-1.806h-.998c-.1 0-.035.063-.035.063"/>
            <path d="M18.016 10.685l-3.818-4.014c-.324-.34-.76-.593-1.244-.643-.689-.068-1.307.177-1.712.603L7.169 10.92a.6.6 0 0 0 .062.89.708.708 0 0 0 .447.158h1.82v5.24c0 .998.868 1.806 1.94 1.806h.998l-.197-.214a.598.598 0 0 1-.115-.676.682.682 0 0 1 .625-.373h1.215c.321 0 .583-.243.583-.543v-4.716c0-.117.014-.233.041-.347a.636.636 0 0 1 0-.114c.018-.073.04-.144.068-.215a.705.705 0 0 1 .067-.12.936.936 0 0 1 .103-.177l.088-.113c.038-.051.082-.1.129-.145l.115-.101c.049-.043.1-.084.156-.12l.129-.082.177-.089.148-.063.197-.057h.157c.11-.01.222-.01.332 0h1.527c.086 0 .035-.063.035-.063"/>
        </g>
    </g>
</svg>
