<svg id="check" xmlns="http://www.w3.org/2000/svg" width="18.898" height="16" viewBox="0 0 18.898 16">
  <g id="check-2" data-name="check">
    <g id="Group_40" data-name="Group 40" transform="translate(0 0)">
      <path id="Path_117" data-name="Path 117" d="M15.772,45.185a.3.3,0,0,0-.137-.034.358.358,0,0,0-.261.114l-.727.727a.341.341,0,0,0-.1.25v2.886a1.823,1.823,0,0,1-1.818,1.818H3.273a1.751,1.751,0,0,1-1.284-.534,1.751,1.751,0,0,1-.534-1.284V39.673a1.751,1.751,0,0,1,.534-1.284,1.751,1.751,0,0,1,1.284-.534h9.455a2.019,2.019,0,0,1,.511.068.365.365,0,0,0,.1.023.359.359,0,0,0,.261-.114l.557-.557a.353.353,0,0,0,.1-.329.344.344,0,0,0-.2-.261,3.128,3.128,0,0,0-1.329-.284H3.273a3.152,3.152,0,0,0-2.313.96A3.153,3.153,0,0,0,0,39.674v9.454a3.152,3.152,0,0,0,.96,2.312,3.152,3.152,0,0,0,2.313.96h9.454A3.279,3.279,0,0,0,16,49.128V45.514A.33.33,0,0,0,15.772,45.185Z" transform="translate(0 -36.401)" fill="#264eab"/>
      <path id="Path_118" data-name="Path 118" d="M89.079,56.479l-1.25-1.25a.906.906,0,0,0-1.3,0l-7.352,7.352-2.988-2.989a.906.906,0,0,0-1.3,0l-1.25,1.25a.906.906,0,0,0,0,1.3l4.886,4.886a.906.906,0,0,0,1.3,0l9.25-9.25a.905.905,0,0,0,0-1.3Z" transform="translate(-70.454 -54.217)" fill="#264eab"/>
    </g>
  </g>
</svg>
