<svg xmlns="http://www.w3.org/2000/svg" width="20" height="20" viewBox="0 0 20 20">
  <g id="ic_nav5" transform="translate(-219 -353)">
    <rect id="Rectangle_75" data-name="Rectangle 75" width="20" height="20" transform="translate(219 353)" fill="none"/>
    <g id="Group_75" data-name="Group 75" transform="translate(41 5)">
      <path id="Path_186" data-name="Path 186" d="M20.452,0a.817.817,0,0,0-.817.817v.15A2.449,2.449,0,0,0,18,3.27c0,1.679,1.594,2.209,2.218,2.417,1.052.316,1.052.6,1.052.853a.818.818,0,0,1-.817.817,1.067,1.067,0,0,1-.934-.421.817.817,0,0,0-1.4.841,2.5,2.5,0,0,0,1.518,1.1v.117a.817.817,0,1,0,1.635,0v-.15a2.449,2.449,0,0,0,1.635-2.3,2.593,2.593,0,0,0-2.194-2.411c-1.076-.358-1.076-.659-1.076-.859a.818.818,0,0,1,.817-.817,1.068,1.068,0,0,1,.934.421.817.817,0,0,0,1.4-.841A2.5,2.5,0,0,0,21.27.934V.817A.817.817,0,0,0,20.452,0Z" transform="translate(174.096 353.598)" fill="#ed2124"/>
      <path id="Path_187" data-name="Path 187" d="M10.722,2a.78.78,0,0,0-.817.735V6.408H5.817A.78.78,0,0,0,5,7.143a.78.78,0,0,0,.817.735H9.9v3.673a.822.822,0,0,0,1.635,0V7.878h4.087a.78.78,0,0,0,.817-.735.78.78,0,0,0-.817-.735H11.539V2.735A.78.78,0,0,0,10.722,2Zm-4.9,11.755a.739.739,0,1,0,0,1.469h9.809a.739.739,0,1,0,0-1.469Z" transform="translate(174 349)" fill="#ed2124"/>
    </g>
  </g>
</svg>
