<svg xmlns="http://www.w3.org/2000/svg" width="32" height="32" viewBox="0 0 32 32">
  <g id="menu3_ic5" transform="translate(-9101 -1767)">
    <rect id="Rectangle_155" data-name="Rectangle 155" width="32" height="32" transform="translate(9101 1767)" fill="none"/>
    <g id="Group_264" data-name="Group 264" transform="translate(-45 -27.726)">
      <path id="Path_282" data-name="Path 282" d="M5.025,6.538V8.326h8.943V6.538Zm0,3.577V11.9H8.6V10.115Zm5.366,0V11.9h3.577V10.115ZM5.025,13.692v1.789H8.6V13.692Zm5.366,0v1.789h3.577V13.692ZM5.025,17.269v1.789H8.6V17.269Zm5.366,0v1.789h3.577V17.269Z" transform="translate(9144.553 1797.828)" fill="#ed2124"/>
      <path id="Path_283" data-name="Path 283" d="M2,2V19.886a3.593,3.593,0,0,0,3.577,3.577H19.886a3.593,3.593,0,0,0,3.577-3.577V7.366H18.1V2ZM3.789,3.789h12.52v16.1a3.548,3.548,0,0,0,.5,1.789H5.577a1.774,1.774,0,0,1-1.789-1.789ZM18.1,9.154h3.577V19.886a1.789,1.789,0,0,1-3.577,0Z" transform="translate(9144 1797)" fill="#738ba4"/>
    </g>
  </g>
</svg>
