<svg xmlns="http://www.w3.org/2000/svg" width="32.2" height="32" viewBox="0 0 32.2 32">
  <g id="menu2_ic7" transform="translate(-1002.8 -480)">
    <rect id="Rectangle_100" data-name="Rectangle 100" width="32" height="32" transform="translate(1003 480)" fill="none"/>
    <g id="Group_121" data-name="Group 121" transform="translate(629 -1)">
      <path id="Path_203" data-name="Path 203" d="M3.042,7.962A2.038,2.038,0,0,0,1,10v8.8a2.038,2.038,0,0,0,2.042,2.042H18.749A2.038,2.038,0,0,0,20.791,18.8V10a2.038,2.038,0,0,0-2.042-2.042ZM18.749,19.9Z" transform="translate(373 482.158)" fill="#738ba4" stroke="#738ba4" stroke-width="0.4"/>
      <path id="Path_204" data-name="Path 204" d="M15.608,2.5a.609.609,0,0,0-.452.2.636.636,0,0,0,0,.921l2.172,2.172H10.351a.658.658,0,0,0,0,1.316h6.977L15.156,9.279a.636.636,0,0,0,0,.921.636.636,0,0,0,.921,0l3.291-3.291a.636.636,0,0,0,0-.921L16.077,2.7A.663.663,0,0,0,15.608,2.5ZM5.963,5.791a.658.658,0,1,0,.658.658A.658.658,0,0,0,5.963,5.791Z" transform="translate(371.139 478.5)" fill="#ed2124"/>
    </g>
    <path id="Path_284" data-name="Path 284" d="M20.149-1a.716.716,0,0,0-.716.716v.131A2.146,2.146,0,0,0,18,1.865c0,1.471,1.4,1.936,1.943,2.118.922.276.922.526.922.747a.717.717,0,0,1-.716.716.935.935,0,0,1-.818-.369.716.716,0,0,0-1.228.737,2.187,2.187,0,0,0,1.33.962v.1a.716.716,0,0,0,1.432,0V6.747A2.146,2.146,0,0,0,22.3,4.73a2.272,2.272,0,0,0-1.922-2.112c-.943-.314-.943-.578-.943-.753a.717.717,0,0,1,.716-.716.936.936,0,0,1,.818.369A.716.716,0,0,0,22.2.781a2.187,2.187,0,0,0-1.33-.962v-.1A.716.716,0,0,0,20.149-1Z" transform="translate(993 492.242)" fill="#fff"/>
  </g>
</svg>
