<svg id="menu1_ic1" xmlns="http://www.w3.org/2000/svg" width="32" height="32" viewBox="0 0 32 32">
  <rect id="Rectangle_98" data-name="Rectangle 98" width="32" height="32" fill="none"/>
  <g id="Group_118" data-name="Group 118" transform="translate(2 5)">
    <path id="Path_201" data-name="Path 201" d="M3,7.9a1,1,0,0,0-1,1v7a2,2,0,0,0,2,2H20a2,2,0,0,0,2-2v-7a1,1,0,0,0-1-1Z" transform="translate(-2 -1.9)" fill="#738ba4"/>
    <path id="Path_202" data-name="Path 202" d="M4,4A2,2,0,0,0,2,6,1,1,0,0,0,3,7H21a1,1,0,0,0,1-1,2,2,0,0,0-2-2Z" transform="translate(-2 -4)" fill="#ed2124"/>
  </g>
</svg>
