<svg xmlns="http://www.w3.org/2000/svg" width="32.5" height="32" viewBox="0 0 32.5 32">
  <g id="menu3_ic4" transform="translate(-8607.5 -1659)">
    <g id="Group_172" data-name="Group 172" transform="translate(1572 54)">
      <path id="Path_237" data-name="Path 237" d="M11.856,4.255l-.984.5H3.4A.442.442,0,0,0,3,5.2V8.745a.444.444,0,0,0,.443.443h.443V20.275a.444.444,0,0,0,.443.443H21.182a.444.444,0,0,0,.443-.443V9.188h.443a.444.444,0,0,0,.443-.443V5.2a.444.444,0,0,0-.443-.443H14.641l-.984-.5-.9-.152ZM3.887,5.641h8.426V8.3h-7.9a.451.451,0,0,0-.18,0H3.887Zm9.313,0h8.426V8.3H13.2ZM4.774,9.188h7.539V19.832H4.774Zm8.426,0h7.539V19.832H13.2Z" transform="translate(7033 1607.281)" fill="#738ba4" stroke="#738ba4" stroke-width="1"/>
      <path id="Path_236" data-name="Path 236" d="M13.606.594l-.8.36,1.053,2.425L11.4,2.146l-.388.8,1.857.929h3.77L18.5,2.95l-.388-.8L15.657,3.379,16.71.954l-.8-.36-1.15,2.633Z" transform="translate(7030.99 1607.406)" fill="#ed2124" stroke="#ed2124" stroke-width="1"/>
    </g>
    <rect id="Rectangle_95" data-name="Rectangle 95" width="32" height="32" transform="translate(8608 1659)" fill="none"/>
  </g>
</svg>
