<svg xmlns="http://www.w3.org/2000/svg" width="32" height="32" viewBox="0 0 32 32">
  <g id="menu2_ic4" transform="translate(-141 -739)">
    <rect id="Rectangle_153" data-name="Rectangle 153" width="32" height="32" transform="translate(141 739)" fill="none"/>
    <g id="Group_229" data-name="Group 229" transform="translate(-735 -161)">
      <path id="Path_196" data-name="Path 196" d="M20.133,7.642A2,2,0,0,0,18.165,6H14.8A2.889,2.889,0,0,0,15,5,3,3,0,0,0,9,5a2.94,2.94,0,0,0,.188,1H5.835A2,2,0,0,0,3.867,7.643L2.017,17.821,2,19a2,2,0,0,0,2,2H20a2,2,0,0,0,2-2V18ZM11,5a1,1,0,1,1,1,1A1,1,0,0,1,11,5Zm1.525,13.01v.754a.455.455,0,1,1-.91,0v-.753A2.359,2.359,0,0,1,9.5,15.983a.729.729,0,0,1,.729-.845h.238a.717.717,0,0,1,.717.57c.17.963.773.916.877.916.133,0,.788-.025.788-1.038,0-2.024-3.14-1.126-3.14-4.159a2.3,2.3,0,0,1,2.031-2.442V8.142a.455.455,0,0,1,.455-.455H12.2a.454.454,0,0,1,.455.455v.867a2.319,2.319,0,0,1,1.828,1.9.744.744,0,0,1-.717.913h-.234a.754.754,0,0,1-.727-.629c-.143-.688-.517-.814-.695-.814-.122,0-.685.032-.685,1.055,0,1.786,3.14,1.229,3.14,4.139A2.272,2.272,0,0,1,12.525,18.01Z" transform="translate(874 902)" fill="#738ba4"/>
      <g id="Group_163" data-name="Group 163" transform="translate(882.78 904)">
        <path id="Path_197" data-name="Path 197" d="M12.63,6.279a3.091,3.091,0,0,0,.21-1.07,3.209,3.209,0,1,0-6.418,0,3.145,3.145,0,0,0,.2,1.07ZM8.561,5.209a1.07,1.07,0,1,1,1.07,1.07A1.071,1.071,0,0,1,8.561,5.209Z" transform="translate(-6.421 -2)" fill="#ed2124"/>
      </g>
    </g>
  </g>
</svg>
