<svg xmlns="http://www.w3.org/2000/svg" width="64.655" height="25.008" viewBox="0 0 64.655 25.008">
  <g id="norton" transform="translate(-1361 -394)">
    <g id="norton-2" data-name="norton" transform="translate(1361 394)">
      <path id="Path_123" data-name="Path 123" d="M200.7,46.789q1.152,0,2.294.008l3.062,5.908V46.789h1.837v9.365h-2.018L202.536,49.5v6.651H200.7Zm0,0" transform="translate(-175.778 -40.979)" fill="#1b1918" fill-rule="evenodd"/>
      <path id="Path_124" data-name="Path 124" d="M400.143,65.121a3.6,3.6,0,1,1-3.6,3.6,3.6,3.6,0,0,1,3.6-3.6Zm0,1.811a1.785,1.785,0,1,1-1.785,1.785,1.785,1.785,0,0,1,1.785-1.785Zm0,0" transform="translate(-347.307 -57.035)" fill="#1b1918" fill-rule="evenodd"/>
      <path id="Path_125" data-name="Path 125" d="M266.8,65.121a3.6,3.6,0,1,1-3.6,3.6,3.6,3.6,0,0,1,3.6-3.6Zm0,1.811a1.785,1.785,0,1,1-1.785,1.785,1.785,1.785,0,0,1,1.785-1.785Zm0,0" transform="translate(-230.52 -57.035)" fill="#1b1918" fill-rule="evenodd"/>
      <path id="Path_126" data-name="Path 126" d="M325.918,52.738V59.62h2.043V56.374a2.021,2.021,0,0,1,.137-.738,2.323,2.323,0,0,1,1.056-1.34.878.878,0,0,1,.626-.161h1.286v3.726c.065,2.046,2.167,2.1,3.7,1.682l-.259-1.371c-.876.2-1.5.262-1.5-.837v-3.2h1.475V52.686h-1.423v-1.94h-1.63l-.466,1.94h-1.131a2.239,2.239,0,0,0-1.335.416,2.1,2.1,0,0,0-.794,1.085l-.6-1.423-1.19-.026Zm0,0" transform="translate(-285.448 -44.445)" fill="#1b1918" fill-rule="evenodd"/>
      <path id="Path_127" data-name="Path 127" d="M458.551,65.558V72.5h1.938v-4.6c0-.643,1.549-1.218,2.195-.428a.581.581,0,0,1,.155.514v4.477h1.972V67.685a2.493,2.493,0,0,0-.594-1.5,2.09,2.09,0,0,0-2.206-.706,3.57,3.57,0,0,0-1.865,1.157l-.412-1.063-1.184-.017Zm0,0" transform="translate(-401.611 -57.3)" fill="#1b1918" fill-rule="evenodd"/>
      <path id="Path_128" data-name="Path 128" d="M509.251,66.532h.234v-.161h-.63v.161h.234v.748h.162Zm1.073-.161h-.234l-.138.716h0l-.14-.716h-.236v.909h.151v-.76h0l.141.76h.159l.145-.76h0v.76h.151Zm0,0" transform="translate(-445.669 -58.13)" fill="#1b1918" fill-rule="evenodd"/>
      <path id="Path_129" data-name="Path 129" d="M10.829,48.638a10.829,10.829,0,1,1,10.829-10.83,10.844,10.844,0,0,1-10.829,10.83Zm0-18.232a7.4,7.4,0,1,0,5.236,2.167,7.359,7.359,0,0,0-5.236-2.167Zm0,0" transform="translate(0 -23.63)" fill="#fcba00" fill-rule="evenodd"/>
      <rect id="Rectangle_50" data-name="Rectangle 50" width="0.845" height="0.844" transform="translate(22.626 1.683)" fill="#fcba00"/>
      <rect id="Rectangle_51" data-name="Rectangle 51" width="0.845" height="0.846" transform="translate(22.626)" fill="#fcba00"/>
      <rect id="Rectangle_52" data-name="Rectangle 52" width="0.789" height="0.825" transform="translate(20.25 2.521)" fill="#fcba00"/>
      <rect id="Rectangle_53" data-name="Rectangle 53" width="0.795" height="0.788" transform="translate(18.687 4.14)" fill="#1b1918"/>
      <rect id="Rectangle_54" data-name="Rectangle 54" width="0.884" height="0.794" transform="translate(21.039 3.345)" fill="#1b1918"/>
      <rect id="Rectangle_55" data-name="Rectangle 55" width="0.792" height="0.755" transform="translate(17.895 3.385)" fill="#1b1918"/>
      <rect id="Rectangle_56" data-name="Rectangle 56" width="0.789" height="0.788" transform="translate(20.25 4.14)" fill="#1b1918"/>
      <rect id="Rectangle_57" data-name="Rectangle 57" width="0.835" height="0.837" transform="translate(21.791 0.846)" fill="#1b1918"/>
      <rect id="Rectangle_58" data-name="Rectangle 58" width="1.541" height="0.838" transform="translate(20.25 1.683)" fill="#1b1918"/>
      <rect id="Rectangle_59" data-name="Rectangle 59" width="0.768" height="1.619" transform="translate(19.482 2.521)" fill="#1b1918"/>
      <path id="Path_130" data-name="Path 130" d="M62.55,39.687v.795h-.8v-.795H60.436v.573h-.707v.706h.79v.787h-.79v-.787H58.89V42.2H58.1v.787h-.527v.791H56.99a44.418,44.418,0,0,0-2.774,5.211c-1.776-2.472-3.155-3.452-4.241-3.807-.587-.177-1.293.461-.319,1.466a18.118,18.118,0,0,1,3.618,6.117c.359.856,1.97.988,2.295.117a26.355,26.355,0,0,1,2.865-5.613v-.881h.631V45.6h.663v-.921h.793v-.887h-.8V42.98h.8v.807H61.3l0-.8h.629v-.964h.706v-.663h.68V39.687Zm0,0" transform="translate(-43.068 -34.759)" fill="#1b1918" fill-rule="evenodd"/>
      <path id="Path_131" data-name="Path 131" d="M271.344,143.215l-.223.352a2.445,2.445,0,0,0,.714.378,2.822,2.822,0,0,0,.916.149,1.952,1.952,0,0,0,1.256-.372,1.258,1.258,0,0,0,.45-1.011,1.222,1.222,0,0,0-.429-.982,3.516,3.516,0,0,0-1.08-.562,2.818,2.818,0,0,1-.842-.423.743.743,0,0,1-.274-.612.755.755,0,0,1,.247-.61,1.214,1.214,0,0,1,.8-.222,2.357,2.357,0,0,1,1.187.3l.177-.388a2.693,2.693,0,0,0-.529-.222,3.032,3.032,0,0,0-.855-.105,1.757,1.757,0,0,0-1.135.333,1.138,1.138,0,0,0-.407.913,1.215,1.215,0,0,0,.391.95,3.152,3.152,0,0,0,.986.542,3.574,3.574,0,0,1,.882.438.826.826,0,0,1,.335.7.806.806,0,0,1-.315.671,1.369,1.369,0,0,1-.84.234,2.361,2.361,0,0,1-.866-.16,2.8,2.8,0,0,1-.551-.294Zm0,0" transform="translate(-237.455 -121.641)" fill="#9b9d9f" fill-rule="evenodd"/>
      <path id="Path_132" data-name="Path 132" d="M300.641,151.109h.551l.99,3.209.946-3.209h.535l-1.288,4.066a1.2,1.2,0,0,1-1.22,1.013,1.356,1.356,0,0,1-.4-.067l.067-.4a1.561,1.561,0,0,0,.3.037.835.835,0,0,0,.833-.7Zm0,0" transform="translate(-263.31 -132.345)" fill="#9b9d9f" fill-rule="evenodd"/>
      <path id="Path_133" data-name="Path 133" d="M334.193,150.574c.738,0,.923.618.923,1.22v2.569h-.536V151.8c0-.394-.059-.767-.551-.767A1.547,1.547,0,0,0,333,151.6v2.762h-.537V151.8c0-.394-.059-.767-.552-.767a1.615,1.615,0,0,0-1.035.574v2.755h-.536V150.64h.306l.156.61a1.812,1.812,0,0,1,1.273-.677.837.837,0,0,1,.841.655,1.8,1.8,0,0,1,1.281-.655Zm0,0" transform="translate(-289.317 -131.877)" fill="#9b9d9f" fill-rule="evenodd"/>
      <path id="Path_134" data-name="Path 134" d="M377.723,152.391a2.871,2.871,0,0,0-1.549.581.569.569,0,0,0-.127.4.55.55,0,0,0,.633.61,1.77,1.77,0,0,0,1.043-.417Zm0-.544c0-.544-.164-.82-.752-.82a2.264,2.264,0,0,0-1.057.335l-.2-.365a2.213,2.213,0,0,1,1.3-.424c.9,0,1.244.5,1.244,1.31v2.48h-.306s-.157-.454-.163-.454a1.7,1.7,0,0,1-1.162.514A1.032,1.032,0,0,1,375.5,153.4a.97.97,0,0,1,.521-.908,5.376,5.376,0,0,1,1.7-.461c0-.008,0-.186,0-.186Zm0,0" transform="translate(-328.877 -131.877)" fill="#9b9d9f" fill-rule="evenodd"/>
      <path id="Path_135" data-name="Path 135" d="M407.3,150.64h.3l.157.633a1.806,1.806,0,0,1,1.347-.7c.79,0,1,.618,1,1.22v2.569h-.535V151.8c0-.394-.091-.767-.626-.767a1.626,1.626,0,0,0-1.109.6v2.733H407.3Zm0,0" transform="translate(-356.725 -131.877)" fill="#9b9d9f" fill-rule="evenodd"/>
      <path id="Path_136" data-name="Path 136" d="M435.875,143.987V143.6h.573l.157-1.065h.364V143.6h.834v.387h-.834v2.421c0,.357.06.558.417.558a1.541,1.541,0,0,0,.433-.075l.081.372a1.312,1.312,0,0,1-.536.12.818.818,0,0,1-.93-.939v-2.457Zm0,0" transform="translate(-381.751 -124.836)" fill="#9b9d9f" fill-rule="evenodd"/>
      <path id="Path_137" data-name="Path 137" d="M458.474,152.264c-.029-.848-.313-1.281-.871-1.281-.507,0-.857.4-.9,1.281Zm-.781,1.727a1.674,1.674,0,0,0,1.021-.372l.23.312a1.767,1.767,0,0,1-1.3.492c-.931,0-1.519-.745-1.519-1.921,0-1.154.581-1.928,1.466-1.928.908,0,1.43.67,1.43,1.958v.119h-2.331c.037.871.327,1.34,1,1.34Zm0,0" transform="translate(-399.49 -131.877)" fill="#9b9d9f" fill-rule="evenodd"/>
      <path id="Path_138" data-name="Path 138" d="M484.75,152.532c0-.916.372-1.958,1.511-1.958a1.687,1.687,0,0,1,1.138.387l-.223.357a1.511,1.511,0,0,0-.916-.312c-.849,0-.945.9-.945,1.533,0,.6.119,1.451.975,1.451a1.32,1.32,0,0,0,.924-.372l.253.305a1.6,1.6,0,0,1-1.206.5c-1.109,0-1.511-1-1.511-1.891Zm0,0" transform="translate(-424.557 -131.877)" fill="#9b9d9f" fill-rule="evenodd"/>
      <path id="Path_139" data-name="Path 139" d="M228.91,151.109h.551l.99,3.209.946-3.209h.536l-1.288,4.066a1.2,1.2,0,0,1-1.22,1.013,1.36,1.36,0,0,1-.4-.067l.067-.4a1.56,1.56,0,0,0,.3.037.836.836,0,0,0,.834-.7Zm0,0" transform="translate(-200.486 -132.345)" fill="#9b9d9f" fill-rule="evenodd"/>
      <path id="Path_140" data-name="Path 140" d="M203.823,141.816c.009.075.016.154.02.232s.007.162.007.235c0,.048,0,.1,0,.144s-.007.094-.013.139-.012.09-.02.133-.018.086-.029.128-.023.081-.036.12-.028.076-.045.112-.034.07-.052.1-.039.065-.061.1h0a.964.964,0,0,1-.068.084.83.83,0,0,1-.077.075.958.958,0,0,1-.084.065.851.851,0,0,1-.093.054.822.822,0,0,1-.1.044.92.92,0,0,1-.107.031.946.946,0,0,1-.115.018,1.089,1.089,0,0,1-.122.006l-.082,0c-.027,0-.053-.005-.079-.009l-.076-.016-.058-.017h0l-.009,0-.068-.026-.065-.028c-.021-.01-.042-.02-.062-.032s-.04-.022-.059-.034h0l-.054-.036-.05-.037-.047-.039-.043-.04-.039-.04-.035-.039-.031-.037-.028-.035,0-.006v-1.933l0,0,0,0c.03-.029.061-.056.092-.082s.065-.051.1-.075h0c.033-.023.067-.045.1-.065s.073-.041.112-.059.078-.034.118-.048a1.125,1.125,0,0,1,.121-.034,1.079,1.079,0,0,1,.126-.02,1.146,1.146,0,0,1,.13-.007c.028,0,.056,0,.084,0s.057.006.086.01.058.01.086.017.057.015.086.024a.635.635,0,0,1,.085.033.657.657,0,0,1,.083.045.836.836,0,0,1,.08.056.975.975,0,0,1,.077.067.759.759,0,0,1,.072.08.947.947,0,0,1,.065.094,1.008,1.008,0,0,1,.058.107c.018.038.035.078.051.121a.944.944,0,0,1,.038.142c.012.059.022.124.031.194Zm.532.862c.011-.068.019-.138.024-.212s.008-.15.008-.228c0-.063,0-.134-.005-.208s-.008-.144-.015-.214-.013-.125-.022-.181a1.361,1.361,0,0,0-.026-.135c-.011-.044-.023-.085-.036-.126s-.027-.079-.042-.117-.031-.073-.048-.108-.035-.067-.053-.1-.039-.062-.059-.091-.041-.056-.063-.082-.044-.051-.067-.075-.047-.046-.071-.066-.05-.042-.075-.061-.051-.037-.077-.054-.051-.034-.078-.049-.052-.029-.079-.041l-.081-.036-.08-.03c-.027-.009-.054-.017-.081-.024l-.081-.019-.08-.014-.078-.01c-.025,0-.051,0-.076-.006l-.073,0c-.051,0-.1,0-.148.006s-.1.011-.141.02a1.351,1.351,0,0,0-.132.033,1.178,1.178,0,0,0-.124.046c-.04.018-.078.037-.115.058s-.073.044-.108.069-.068.051-.1.079-.063.059-.094.09l0,0,0,0h-.041v-1.963h-.515v5.138h.382l.113-.365,0-.008,0-.007h.038l0,.005,0,0a.234.234,0,0,0,.017.024h0l.021.028.006.008h0l.02.025.032.037c.011.013.023.026.036.038l.043.038.048.038.053.037h0c.018.012.038.024.059.035s.043.023.066.034.047.021.073.032l.071.026h0l.009,0c.027.009.055.017.085.024s.06.012.091.017.064.008.1.01.068,0,.1,0a1.477,1.477,0,0,0,.283-.027c.046-.009.092-.021.137-.034s.087-.029.13-.046h0a1.368,1.368,0,0,0,.13-.062,1.274,1.274,0,0,0,.237-.166,1.379,1.379,0,0,0,.108-.1l0,0a1.341,1.341,0,0,0,.1-.116,1.537,1.537,0,0,0,.089-.134c.028-.048.054-.1.079-.149s.048-.107.069-.164.039-.117.055-.18.029-.128.04-.2Zm0,0" transform="translate(-176.407 -121.596)" fill="#9b9d9f" fill-rule="evenodd"/>
    </g>
  </g>
</svg>
