<svg xmlns="http://www.w3.org/2000/svg" width="60" height="64.752" viewBox="0 0 60 64.752">
  <g id="quick_access2" transform="translate(-1486 -166)">
    <g id="Group_125" data-name="Group 125" transform="translate(90 -4)">
      <circle id="Ellipse_23" data-name="Ellipse 23" cx="30" cy="30" r="30" transform="translate(1396 170)" fill="#738ba4"/>
      <path id="Path_218" data-name="Path 218" d="M22.6,0C17.853,0,14,2.565,14,5.728c0,4.091,8.6,10.024,8.6,10.024s8.6-5.933,8.6-10.024C31.21,2.565,27.357,0,22.6,0Z" transform="translate(1403 219)" fill="#738ba4"/>
    </g>
    <path id="Path_217" data-name="Path 217" d="M22.737,0a5.263,5.263,0,0,0-5.263,5.263c0,3.759,5.263,9.211,5.263,9.211S28,9.022,28,5.263A5.263,5.263,0,0,0,22.737,0Zm0,3.382a1.881,1.881,0,1,1-1.881,1.881A1.882,1.882,0,0,1,22.737,3.382Zm-11.883.481L3.828,6.674A1.314,1.314,0,0,0,3,7.895V26.316a1.317,1.317,0,0,0,1.8,1.223l6.132-2.454,7.895,2.632,7.026-2.809a1.319,1.319,0,0,0,.828-1.223V13.929c-.911,1.158-1.715,2.022-2.056,2.375l-.576.6v5.9l-3.947,1.578V15.5a31.637,31.637,0,0,1-2.632-3.377V24.491l-5.263-1.753V7.088L15.4,8.152a8.7,8.7,0,0,1-.563-2.889c0-.024.005-.046.005-.069ZM9.579,7.206V22.792l-3.947,1.58V8.786Z" transform="translate(1501 181)" fill="#fff" opacity="0.85"/>
  </g>
</svg>
