<svg xmlns="http://www.w3.org/2000/svg" xmlns:xlink="http://www.w3.org/1999/xlink" width="598.656" height="499" viewBox="0 0 598.656 499"><defs><style>.a,.b{fill:#6c63ff;}.a,.e{opacity:0.1;}.c{fill:url(#a);}.d{fill:#4c4981;}.f{fill:#ae6e79;}.g{fill:#444053;}.h{fill:#fff;}.i{fill:#002d6f;}.j{fill:#ad0000;}</style><linearGradient id="a" x1="0.5" y1="1" x2="0.5" gradientUnits="objectBoundingBox"><stop offset="0" stop-color="gray" stop-opacity="0.251"/><stop offset="0.54" stop-color="gray" stop-opacity="0.122"/><stop offset="1" stop-color="gray" stop-opacity="0.102"/></linearGradient></defs><g transform="translate(-0.004)"><ellipse class="a" cx="61.161" cy="6.029" rx="61.161" ry="6.029" transform="translate(364.33 486.942)"/><path class="a" d="M360.151,40.885c26.937-10.013,59.729-1.4,87.734,11.158C535.839,91.5,599.916,166.391,650.826,242.693c18.433,27.628,35.941,56.473,42.871,87.316,14.109,62.777-22.691,127.766-85.277,150.54-21.283,7.752-44.666,10.931-68.084,12.7-41.643,3.155-84.758,1.9-126.066-9.78-29.459-8.349-57.326-21.778-84.054-36.615C255.571,405.4,187.4,351.56,138.319,285.8c-21.528-28.845-39.74-61.364-40.265-94.645s21.164-66.725,56.849-72.384c14.754-2.338,30.36.1,45.584,2.6,22.416,3.691,45.137,7.574,67.3,5.963,22.893-1.676,52.669-10.621,56.843-32.477C329.046,71.388,333.25,50.886,360.151,40.885Z" transform="translate(-98.04 -33.586)"/><path class="b" d="M341.691,800.395s28.779-1.735,25.386,18.433a4.912,4.912,0,0,1-2.558,5.182s-.048-1.5-2.952-.99a13,13,0,0,1-3.125.155,6.519,6.519,0,0,1-3.823-1.58h0s-8.092-3.34-11.235-16.566c0,0-2.332-2.88-2.236-3.626L346,803.478s-1.658,3.506-.352,6.417c0,0,.155-6.285,1.091-6.142.185.03,2.522,1.193,2.522,1.193s-2.856,6.1-.7,10.537c0,0-.817-7.52,1.592-10.1l3.423,2s-3.34,6.3-1.073,11.444c0,0-.6-7.89,1.789-10.961l3.1,2.385s-3.137,6.214-1.222,10.484c0,0,.244-9.19,1.89-9.881,0,0,2.713,2.385,3.125,3.375,0,0-2.147,4.508-.817,6.888,0,0,.817-6.119,1.491-6.148,0,0,2.7,4.055,2.982,6.834a14.757,14.757,0,0,0-2.332-7.222,8.14,8.14,0,0,1,4.139,2.141s-.423-2.868-4.8-3.119c0,0-2.23-3.071-2.833-3.262,0,0,4.359-.364,7,.811,0,0-2.326-2.707-7.8-1.479l-3.059-2.493s5.743-.787,8.17.083c0,0-2.8-2.385-8.993-.65l-3.328-1.992s4.89-1.056,7.806-.674c0,0-3.077-1.658-8.784.137l-2.385-1.067s3.578-.7,4.634-.817,1.1-.4,1.1-.4a12.415,12.415,0,0,0-6.733.745S341.6,800.741,341.691,800.395Z" transform="translate(-196.17 -341.922)"/><ellipse class="a" cx="20.371" cy="3.441" rx="20.371" ry="3.441" transform="translate(144.972 480.406)"/><path class="b" d="M277.2,777.656s16.226-.978,14.312,10.394a2.761,2.761,0,0,1-1.437,2.922s-.03-.841-1.664-.555a7.239,7.239,0,0,1-1.759.083,3.614,3.614,0,0,1-2.159-.889h0s-4.556-1.89-6.345-9.345c0,0-1.312-1.628-1.264-2.045l2.743,1.193a4.928,4.928,0,0,0-.2,3.62s.089-3.548.6-3.465c.107,0,1.425.686,1.425.686s-1.61,3.441-.394,5.963c0,0-.465-4.24.895-5.7l1.926,1.127s-1.878,3.578-.6,6.452c0,0-.328-4.449,1.008-6.178l1.747,1.36s-1.789,3.5-.686,5.91c0,0,.137-5.182,1.067-5.57a10.625,10.625,0,0,1,1.759,1.9s-1.193,2.54-.459,3.882c0,0,.459-3.447.841-3.465a11.4,11.4,0,0,1,1.676,3.852,8.349,8.349,0,0,0-1.312-4.073,4.55,4.55,0,0,1,2.332,1.193s-.233-1.616-2.707-1.759a10.542,10.542,0,0,0-1.592-1.837,9.971,9.971,0,0,1,3.948.453s-1.312-1.527-4.4-.835l-1.723-1.407s3.238-.441,4.61.048c0,0-1.58-1.348-5.075-.364l-1.873-1.127a17.037,17.037,0,0,1,4.4-.376s-1.729-.936-4.95.078l-1.342-.6s2.022-.4,2.612-.459.626-.227.626-.227a7.031,7.031,0,0,0-3.8.423A15.715,15.715,0,0,1,277.2,777.656Z" transform="translate(-170.228 -332.75)"/><ellipse class="a" cx="11.486" cy="1.944" rx="11.486" ry="1.944" transform="translate(106.657 457.262)"/><path class="b" d="M946.576,795.982s19.59-1.193,17.294,12.523a3.363,3.363,0,0,1-1.741,3.53s-.036-1.02-2.01-.674a8.836,8.836,0,0,1-2.129.1,4.383,4.383,0,0,1-2.6-1.073h0s-5.51-2.272-7.651-11.277c0,0-1.586-1.962-1.521-2.463l3.3,1.407a5.943,5.943,0,0,0-.239,4.371s.107-4.282.739-4.174c.131,0,1.718.823,1.718.823s-1.944,4.174-.477,7.156c0,0-.555-5.117,1.085-6.87l2.326,1.354s-2.272,4.294-.728,7.794c0,0-.4-5.367,1.193-7.46l2.111,1.646s-2.135,4.228-.835,7.156c0,0,.173-6.25,1.294-6.727a12.857,12.857,0,0,1,2.123,2.3s-1.461,3.071-.555,4.693c0,0,.555-4.174,1.014-4.174,0,0,1.837,2.761,2.028,4.651a10.027,10.027,0,0,0-1.58-4.914,5.541,5.541,0,0,1,2.815,1.455s-.286-1.95-3.274-2.123a12.707,12.707,0,0,0-1.92-2.218,12.061,12.061,0,0,1,4.771.549s-1.586-1.837-5.313-1l-2.081-1.7s3.906-.537,5.564.054c0,0-1.908-1.628-6.125-.441L952.91,798.9a20.644,20.644,0,0,1,5.313-.459s-2.093-1.127-5.964.1l-1.622-.728s2.439-.483,3.155-.555.751-.274.751-.274a8.468,8.468,0,0,0-4.58.507S946.517,796.209,946.576,795.982Z" transform="translate(-440.413 -340.146)"/><ellipse class="a" cx="13.865" cy="2.344" rx="13.865" ry="2.344" transform="translate(505.788 470.769)"/><path class="c" d="M818.113,489.366a42.543,42.543,0,0,1-.65-6.357c0-2.558-3.477-4.824-3.477-4.824s-2.147-4.968-3.578-5.7-5.85-7.234-5.85-7.234a5.909,5.909,0,0,0-1.33-3.507,50.4,50.4,0,0,1-3.62-5.462h0c-.6-.728-.3-1.24-1.193-5.48-.048-.221-.1-.435-.167-.638a.838.838,0,0,0-.1-.274,7.157,7.157,0,0,0,1.688-7.413,2.983,2.983,0,0,0-.847-1.312c-1.008-.823-2.618-.483-3.656-1.264l1.1-4.878c.262-1.193.4-2.7-.644-3.345a5.408,5.408,0,0,0-1.229-.411c-1.789-.6-2.827-2.487-3.292-4.306a14.752,14.752,0,0,1-.358-5.367c.2-1.729.71-3.411.895-5.146a14.134,14.134,0,0,0-2.189-9.148,7.042,7.042,0,0,0-2.892-2.731c-1.1-.495-2.385-.6-3.417-1.193-2.218-1.413-2.105-4.771-3.876-6.7s-4.908-1.92-7.49-1.258-5.152,1.789-7.8,1.509c-1.706-.191-3.3-.966-5.015-1.145a5.285,5.285,0,0,0-1.467.066v-.054a3.182,3.182,0,0,0-2.725,2.129,3.253,3.253,0,0,0-.083.871c0,.7.167,1.425.179,2.093a1.992,1.992,0,0,1-.483,1.473c-.34.364-.841.555-1.193.93a1.491,1.491,0,0,0-.435,1.1c0,1.061,1.324,2,2.212,2.427h.036c-.239.239-.477.489-.7.745a15.707,15.707,0,0,0-3.948,10.43,15.922,15.922,0,0,0,9.685,14.539l-.125.388a22.233,22.233,0,0,1-.877,2.254,4.467,4.467,0,0,0-3.745.417c-1.705,1.193-5.039,1.1-5.928.877s-10.138-1.389-10.883-1.1-2.218-1.02-3.178.734-1.407,2.7-2.385,3.143-2.666,1.825-2.439,2.117-2.445,2.045-2.445,2.045-2.3,2.385-3.626,2.7a21.292,21.292,0,0,0-4.145,2.123l-3.262,2.552s-2.439.37-1.7-1.312-1.336-3.8-1.336-3.8S710,437.27,710,435.535s-3.405-9.136-3.405-9.136l-.417-.042-.191-.543c-.626-1.759-1.437-3.918-2.057-5.182-1.193-2.415-1.926-2.666-1.926-2.666s-14.36-10.782-23.687-7.5,17.026,13.078,19.393,14.1c.829.358,1.425,1.515,1.843,2.868a12.271,12.271,0,0,0-5.1,4.586s5.7,12.636,5.85,15.779,3.924,11.927,3.924,11.927,1.407,6.506,9.029,6.136c0,0,10.513,1.932,12.809,0s4.365-3.447,5.48-3.667a4.325,4.325,0,0,0,2.069-1.461s-3.477,21.916-5.182,23.818-16.775,26.507-11.366,30.908a108.067,108.067,0,0,0,13.543,8.945c.459.227,1.837-2.069,3.8-3.7v1.27c.036,8.754,1.193,22.065,2.791,25.046,2.385,4.383,1.407,12.857,1.407,12.857a10.137,10.137,0,0,0,4,.96c.072.286.155.6.233.895,1.306,4.932,3.423,12.559,4.5,14.586,1.628,3.071,2.809,12.792,2.809,12.792s.966,9.541.6,10.883c-.143.507.483,4.478,1.467,9.541h0c-.6,6.852-1.729,20.061-1.92,24.838h0v.346a1.476,1.476,0,0,1,0,.161v.292h0a4.452,4.452,0,0,0,.036.9,2.922,2.922,0,0,1-.1,1.36,23.747,23.747,0,0,1-1.6,3.828,18.235,18.235,0,0,0-.716,1.849,3.341,3.341,0,0,0-1.729,2.457c-.74,2.851-1.849,10.734-1.849,10.734s-.447,4.824-1.33,5.922-1.789,7.961,4.514,8.838,9.029-3.339,9.029-3.339l-.221-19.131v-.036a2.892,2.892,0,0,0,.328-.519V648c.042-.089.089-.185.131-.292l.054-.143.1-.233a.354.354,0,0,1,0-.083,12.642,12.642,0,0,0,.537-5.7v-.805a2.268,2.268,0,0,1,.036-.394v-.072l.036-.233v-.1a.44.44,0,0,1,.048-.239.256.256,0,0,1,0-.06c.06-.274.131-.6.209-.859v-.066l.089-.286h0c.089-.3.191-.6.3-.918v-.06a.837.837,0,0,1,.1-.28v-.036c.107-.292.221-.6.328-.847l.03-.078.1-.239.03-.072.227-.531h0l1.747,5.4s.966,4.019.447,4.967.6,4.9,1.33,4.968l-.686,4.968a75.989,75.989,0,0,0-.662,8.259c-.048.316-.1.6-.131.787-.477,2.546.668,6.494.668,6.494,5.844,6.912,12.809.537,12.809.537s.811-3.656,0-4.383-.447-3.363-.447-3.363.37-6.506.441-11.253-3.882-8.945-3.882-8.945l-.221.2c-.722-1.861-1.545-4.031-1.372-5,.3-1.682-.817-19.435-.817-19.435a105.26,105.26,0,0,0,.262-14.312h0c.1-.805.185-1.6.274-2.385.447-3.817.811-7.078.954-8.79h0v-.2c.036-.459.054-.787.048-.942,0-.6,0-1.276.06-2.022.137-2.052.459-4.336.459-4.336l1.55-9.428A29.469,29.469,0,0,1,774.723,570l.2-.322h0c.066-.113.131-.239.2-.37l.03-.054c.066-.125.137-.256.2-.394l.03-.054c.239-.471.495-1.014.763-1.61,0-.048.042-.089.06-.137l.2-.453a.466.466,0,0,1,.078-.179c.03-.06.125-.3.191-.453a1.719,1.719,0,0,0,.078-.185c.078-.179.161-.364.239-.555l.113-.274c.054-.137.113-.274.173-.411l.143-.364c.042-.089.078-.179.113-.268l.161-.411c0-.06.054-.125.078-.185.423-1.056.829-2.1,1.193-3.047h0c.113-.3.227-.6.328-.859,3.793.233,6.369.441,6.369.441s1.193-8.546.811-14.169a52.654,52.654,0,0,1,.936-11.33c.054-.292.1-.555.149-.793l.1.083c1.855,1.461,3.184-3.363,3.184-3.363s-.5-4.5-1.193-9.959l-.072-.543a28,28,0,0,0,3.238.495s.6-.054,1.413-.155a39.12,39.12,0,0,0,7.12,3.22l3.942-7.275a29.607,29.607,0,0,1,2.594-4.311c1.193-1.461,5.4-6.136,5.331-7.013a24.688,24.688,0,0,1,2.886-8.188C817.594,494.286,818.185,489.73,818.113,489.366Zm-16.435,5.552c-1.556.656-3.036,4.312-3.107,5.409s-1.706,5.916-3.405,6.5c-1.568.537-4.562,3.292-5.039,3.733-.489.042-1.044.107-1.622.2-.65-4.61-1.294-8.426-1.706-9.2-1.193-2.195,1.306-9.208,1.306-9.208s.244-7.084,1.789-8.766,1.193-5.922,1.193-5.922.37-1.753.519-2.552,2.2,0,2.218,0h0s4,2.189,4.592,5.474,4.961,8.987,4.961,8.987-.668,1.974,0,2.982S803.234,494.262,801.678,494.918Z" transform="translate(-331.468 -178.303)"/><path class="d" d="M707,453.942a11.927,11.927,0,0,1,11.927-5.617v8.534h-5.182l-4.055-1.026Z" transform="translate(-343.851 -199.77)"/><path class="e" d="M707,453.942a11.927,11.927,0,0,1,11.927-5.617v8.534h-5.182l-4.055-1.026Z" transform="translate(-343.851 -199.77)"/><path class="f" d="M707.225,439.487l-6.351,4.449s-.054-.889-.215-2.105c-.316-2.3-1.026-5.755-2.558-6.423-2.332-1.026-28.29-10.794-19.083-14.08s23.335,7.484,23.335,7.484.728.25,1.89,2.654c.6,1.264,1.413,3.417,2.028,5.176C706.837,438.228,707.225,439.487,707.225,439.487Z" transform="translate(-331.761 -188.672)"/><path class="d" d="M713.515,431.85l.722-.34,2.027,2.314-1.658,3.536-2.827-1.133.656-2.827Z" transform="translate(-287.315 -174.183)"/><path class="g" d="M792.352,811s-1.825-.215-2.552,2.63-1.825,10.734-1.825,10.734-.435,4.812-1.312,5.91-1.747,7.949,4.449,8.82,8.9-3.333,8.9-3.333l-.221-19.125Z" transform="translate(-375.759 -346.216)"/><path class="g" d="M826.41,812.44s3.9,4.174,3.828,8.909-.441,11.229-.441,11.229-.358,2.63.441,3.357,0,4.377,0,4.377-6.858,6.363-12.619-.537c0,0-1.121-3.942-.656-6.482s1.765-13.96,1.765-13.96Z" transform="translate(-388.193 -346.799)"/><path class="f" d="M824.655,663.493s-3.936,11.008-5.618,13.561a29.2,29.2,0,0,0-2.839,7.156l-1.533,9.4a52.471,52.471,0,0,0-.513,6.345c.071,2.117-3.793,32.96-3.793,32.96l-6.124,7.806s-2.7,5.468-2.26,7.752-.292,5.91-1.193,7c0,0-.143,7.156-.364,8.748s.805,6.13,0,6.93-11.521.441-11.814-.877,1.312-7.657,1.312-7.657l.948-6.124s1.9-3.351,1.461-4.449.8-3.644.871-3.864,2.046-3.793,1.682-5.176,2.3-30.807,2.3-30.807l7.508-52.722Z" transform="translate(-376.777 -285.056)"/><path class="e" d="M824.655,663.5s-.6,1.658-1.413,3.834c-1.3,3.435-3.173,8.164-4.2,9.726a29.581,29.581,0,0,0-2.844,7.156l-1.533,9.41a52.892,52.892,0,0,0-.507,6.345c0,.835-.561,6.16-1.276,12.3-1.1,9.38-2.517,20.663-2.517,20.663l-6.124,7.806s-.31.6-.7,1.539c-.769,1.789-1.855,4.693-1.562,6.19.435,2.26-.292,5.9-1.193,7,0,0-.149,7.156-.364,8.748s.805,6.125,0,6.93-11.521.441-11.814-.871,1.312-7.657,1.312-7.657l.948-6.13s1.9-3.352,1.455-4.449.805-3.644.877-3.864,2.045-3.793,1.682-5.176c-.28-1.056,1.193-18.332,1.879-26.525.233-2.576.382-4.252.382-4.252l6.458-45.358.525-3.656.525-3.709Z" transform="translate(-376.777 -285.064)"/><path class="f" d="M816.646,775.619c.066.805-10.287,1.974-11.766,1.1s0-11.742,0-11.742l.674-4.956c-.722-.078-1.819-4.013-1.312-4.962s-.435-4.956-.435-4.956l-1.717-5.367-1.05-3.286c-1.706-3.763-4.174-14.5-5.707-22.512-.966-5.033-1.58-9-1.443-9.506.364-1.312-.6-10.865-.6-10.865s-1.193-9.7-2.767-12.762c-1.067-2.028-3.149-9.643-4.437-14.557-.656-2.523-1.109-4.335-1.109-4.335s11.02-.924,17.705-1.246c3.071-.149,5.23-.167,4.979.083s-.316,1.586-.3,3.518c.03,5,.728,13.805,1.467,16.173,1.02,3.28,2.039,13.12,1.6,14.074s-.292,7.293-.292,7.293a32.8,32.8,0,0,1,1.288,7.913,106.986,106.986,0,0,1-.25,14.247s1.091,17.723.8,19.4,2.332,6.93,2.332,7.949.727,7.949.727,7.949S816.6,774.82,816.646,775.619Z" transform="translate(-375.328 -287.509)"/><path class="f" d="M829.218,472.024l-1.252,1.354-.817.883-4.771,5.129-12.326,1.389-6.56-1.753-1.622-.435s0-3.292.292-7.24c.417-5.063,1.413-11.211,3.793-12.887a9.475,9.475,0,0,0,2.773-3.512A19.763,19.763,0,0,0,809.921,452c.048-.131.084-.256.125-.388a32.946,32.946,0,0,0,1.157-5.409s1.574-.871,3.763-1.884c5.707-2.666,15.564-6.345,12.135,1.884a32.17,32.17,0,0,0-1.288,3.7c-.054.185-.1.37-.143.549-1.145,4.58-.388,7.359.465,8.891h0a5.563,5.563,0,0,0,.495.757,3.979,3.979,0,0,0,.829.841l1.419,9.011.119.745Z" transform="translate(-382.146 -196.926)"/><path class="e" d="M832.561,446.947c-.65,1.562.316-1.276,0,0-2.6,1.849-8.724,7.114-12.165,7.114-2.326,0-3.023-.423-5.015-1.324a32.539,32.539,0,0,0,1.282-5.79S837.3,435.569,832.561,446.947Z" transform="translate(-387.599 -197.223)"/><path class="f" d="M831.477,423.538a15.91,15.91,0,0,1-14.235,15.809c-.549.054-1.1.089-1.664.089a15.9,15.9,0,1,1,15.9-15.9Z" transform="translate(-381.262 -183.398)"/><path class="e" d="M830.148,525.863l-2.266,5.91s-1.843.077-4.717.167c-9.7.31-31.081.7-32.035-1.789a6.337,6.337,0,0,1-.334-1.962c-.125-3.8,1.646-9.631,1.646-9.631s1.02-11.67,1.02-12.177-.877-8.683-.877-8.683l1.753-6.56,4.884-3.429s2.189,3.357,3.5,3.644a9.1,9.1,0,0,1,3.065,1.9s4.3,2.624,5.689,1.163,12.177-7.878,12.177-7.878l5.689,6.274Z" transform="translate(-377.673 -215.247)"/><path class="h" d="M830.16,527.383l-2.266,5.9s-1.843.083-4.717.173h-.28c-1.24.042-2.66.083-4.174.113-7.711.179-18.332.227-23.883-.6-2.087-.3-3.453-.728-3.679-1.312a5.265,5.265,0,0,1-.263-1.085c-.036-.274-.06-.6-.071-.877-.125-3.8,1.646-9.631,1.646-9.631s1.02-11.67,1.02-12.177-.877-8.683-.877-8.683l1.753-6.56,3.357-2.35,1.527-1.073a22.876,22.876,0,0,0,1.676,2.206,4.459,4.459,0,0,0,1.825,1.437,9.128,9.128,0,0,1,3.065,1.9s4.3,2.624,5.689,1.163c1.056-1.115,7.615-5.128,10.645-6.959.93-.567,1.532-.918,1.532-.918l.763.847,4.926,5.427Z" transform="translate(-377.685 -215.86)"/><path class="e" d="M723.206,450.275l-6.351,4.449s-.054-.889-.215-2.105a12.855,12.855,0,0,0,5.594-5.188C722.818,449.016,723.206,450.275,723.206,450.275Z" transform="translate(-347.742 -199.46)"/><path class="i" d="M741.605,465.769l-1.384-.37s-2.266,2.385-3.578,2.7a20.882,20.882,0,0,0-4.079,2.111l-3.214,2.552s-2.385.37-1.676-1.312-1.312-3.793-1.312-3.793-4.085-8.385-4.085-10.138-3.375-9.112-3.375-9.112-4.234,8.241-11.963,5.618c0,0,5.618,12.613,5.761,15.749s3.864,11.885,3.864,11.885,1.39,6.494,8.9,6.13c0,0,10.358,1.926,12.619,0s4.3-3.441,5.367-3.662a4.427,4.427,0,0,0,2.039-1.455V474Z" transform="translate(-343.826 -199.855)"/><path class="e" d="M743.3,491.33s1.825,6.786.656,7.514Z" transform="translate(-358.504 -217.18)"/><path class="e" d="M823.169,561.6c-9.7.31-31.081.7-32.035-1.789a6.341,6.341,0,0,1-.334-1.962l31.7,1.67Z" transform="translate(-377.677 -244.032)"/><path class="e" d="M823.214,663.493s-.6,1.658-1.413,3.834c-4.025-.245-9.357-.5-14.419-.537-1.789,0-3.542,0-5.2.06a39.174,39.174,0,0,0-8.5.942,22.536,22.536,0,0,1-7.573.978c-.656-2.522-1.109-4.335-1.109-4.335s11.02-.924,17.705-1.246l.525-3.709Z" transform="translate(-375.336 -285.056)"/><path class="g" d="M826.875,596.314l-1.24,2.624s-.173.781-.394,2.022a51.684,51.684,0,0,0-.918,11.33,89.63,89.63,0,0,1-.805,14.145s-26.835-2.26-34.707,0-11.748,0-11.748,0,.954-8.456-1.384-12.833c-1.592-2.982-2.713-16.292-2.749-25.046,0-4.037.2-7.1.71-7.717,1.6-1.968,8.456-21.659,8.456-21.659l1.563.083,4.174.221,23.734,1.252,3.727.2.394,1.193Z" transform="translate(-370.464 -244.569)"/><path class="d" d="M875.782,599.738l.221,2.338s-11.754-3.828-11.158-8.534,0-4.174,0-4.174l9.446.8Z" transform="translate(-407.557 -256.747)"/><path class="e" d="M875.782,599.738l.221,2.338s-11.754-3.828-11.158-8.534,0-4.174,0-4.174l9.446.8Z" transform="translate(-407.557 -256.747)"/><path class="e" d="M755.243,493.206a10.472,10.472,0,0,0,4.139,2.153,2.7,2.7,0,0,1-1.193-.6c-.841-.6-1.64-1.246-2.451-1.878a7.691,7.691,0,0,0-2.278-1.574A12.562,12.562,0,0,0,755.243,493.206Z" transform="translate(-362.605 -217.172)"/><path class="e" d="M754.559,497.668a5.261,5.261,0,0,1,.906,1.437,8.688,8.688,0,0,1-.066,4.514l-1.884-4.544c-.328-.775-.656-1.55-1.05-2.29-.173-.316-1.258-1.634-1.133-1.908C751.667,494.1,754.208,497.232,754.559,497.668Z" transform="translate(-361.742 -218.563)"/><path class="e" d="M839.81,540.754a6.071,6.071,0,0,0,3.429-1.6c-1.938.245-3.775,1.008-5.683,1.407a8.445,8.445,0,0,1-5.3-.489A13.023,13.023,0,0,0,839.81,540.754Z" transform="translate(-394.413 -236.483)"/><path class="e" d="M829.3,515.547a1.33,1.33,0,0,1-.984-.245q-2.183-1.252-4.306-2.612a28.589,28.589,0,0,1-4.216-2.91C822.682,512.392,825.378,514.6,829.3,515.547Z" transform="translate(-389.379 -224.628)"/><path class="e" d="M839.826,544.415a9.083,9.083,0,0,0,2.278-.185A3.054,3.054,0,0,0,843.976,543a1.074,1.074,0,0,0-.793.125,13.381,13.381,0,0,1-7.323.877A10.575,10.575,0,0,0,839.826,544.415Z" transform="translate(-395.866 -238.027)"/><path class="e" d="M806.786,601.742a23.921,23.921,0,0,1-4.657.912,28.143,28.143,0,0,1-3.685-.072l-5.963-.376-2.982-.191c-.352,0-1.789,0-1.079-.71.358-.346,2.349-.125,2.862-.143q1.485-.048,2.982-.054c1.974,0,3.954,0,5.928.119C802.4,601.337,804.579,601.5,806.786,601.742Z" transform="translate(-376.638 -261.494)"/><path class="e" d="M798.512,606.745a24.067,24.067,0,0,0-3.363.692,22.386,22.386,0,0,1-3.518.137,19.62,19.62,0,0,1-6.78-1.384C789.4,606.423,793.962,606.56,798.512,606.745Z" transform="translate(-375.276 -263.545)"/><path class="e" d="M784.935,612.231a9.773,9.773,0,0,1,1.3.358c2.517.716,5.194.083,7.752-.549a4.549,4.549,0,0,1-2.94,1.634,13.633,13.633,0,0,1-5.725.209c-.6-.119-2.093-.334-2.385-.954C782.448,612.016,784.374,612.141,784.935,612.231Z" transform="translate(-374.471 -265.906)"/><path class="e" d="M807.461,619.362a19.464,19.464,0,0,1,2.23.6c2.833.7,5.773-.262,8.617-.912a40.114,40.114,0,0,1,10.43-.966,10.333,10.333,0,0,0-2.236.734c-.805.245-1.622.471-2.439.674-1.6.394-3.232.716-4.872.948a50.1,50.1,0,0,1-10,.435c-1.527-.083-4.174.072-5.48-.7A6.041,6.041,0,0,1,807.461,619.362Z" transform="translate(-382.888 -268.332)"/><path class="e" d="M796.1,467.133s.143,6.715-.948,9.78c-.346.954-.883,2.713-1.467,4.687-.638,2.189-1.336,4.64-1.873,6.56s-.894,3.208-.894,3.208-2.463,20.061-3.1,29.62a2.327,2.327,0,0,1-.036.5c-.036.537-.1,1.1-.185,1.676-1.419,9.494-9.607,24.134-12.356,25.3a8.182,8.182,0,0,0-2.314,1.592c0-4.037.2-7.1.71-7.717,1.6-1.968,8.456-21.659,8.456-21.659l1.562.083c-.036-.274-.06-.6-.071-.877-.125-3.8,1.646-9.631,1.646-9.631s1.02-11.67,1.02-12.177-.877-8.683-.877-8.683l1.753-6.56,3.357-2.35c.417-5.063,1.413-11.211,3.793-12.887a9.475,9.475,0,0,0,2.773-3.512c.471.066-.388-.352-.388-.352Z" transform="translate(-370.464 -206.043)"/><path class="i" d="M785.062,462.962a4.342,4.342,0,0,0-3.691.417c-1.682,1.193-4.962,1.091-5.838.877s-9.989-1.389-10.734-1.1-2.189-1.02-3.137.734-1.383,2.7-2.332,3.131-2.63,1.825-2.385,2.117-2.385,2.04-2.385,2.04l5.319,17.294s-3.429,21.874-5.1,23.77-16.554,26.472-11.229,30.849a105.968,105.968,0,0,0,13.346,8.945c.6.292,2.7-3.644,5.612-4.884s11.963-17.652,12.523-26.984,3.137-30.115,3.137-30.115,3.137-11.378,4.228-14.443.948-9.78.948-9.78Z" transform="translate(-358.14 -205.635)"/><path class="e" d="M852.891,561.313l-1.24,2.624s-.173.781-.393,2.022a1.115,1.115,0,0,1-.6-.268c-1.825-1.461-12.523-12.469-13.054-22.243-.376-7.21-.2-13.424-.077-16.191.036-.871.071-1.4.071-1.509h0s8.313-10.066,7.365-13.632-3.137-22.661-3.137-22.661l-.322-2.5-.555-4.234-1.324-10.245,1.372.322a3.977,3.977,0,0,0,.829.841l1.419,9.011,4.926,5.427.8,33.037-2.266,5.9s-1.843.083-4.717.173h-.28Z" transform="translate(-396.48 -209.567)"/><path class="i" d="M858.023,506.483s-2.039-.805-2.183,0-.513,2.546-.513,2.546.364,4.234-1.193,5.91-1.789,8.748-1.789,8.748-2.457,7-1.294,9.19c.423.793,1.079,4.771,1.735,9.541.417,2.982.829,6.256,1.193,9.249.662,5.439,1.157,9.941,1.157,9.941s-1.318,4.812-3.143,3.351-12.523-12.47-13.048-22.243c-.358-6.864-.215-12.827-.1-15.767.048-1.246.1-1.95.1-1.95s8.313-10.066,7.365-13.638-3.137-22.661-3.137-22.661l-.382-2.952-.411-3.173-.1-.7-1.318-10.138h0c.233.054,8.414,1.9,9.494,2.982s7.752,2.624,7.752,2.624a5.832,5.832,0,0,1,4.139,4.246c.066.2.113.417.161.638.877,4.234.6,4.741,1.193,5.474S858.023,506.483,858.023,506.483Z" transform="translate(-397.02 -209.273)"/><path class="e" d="M859.444,599.5c-2.982-.6-7.407-1.974-7.305-5.015.089-2.845,3.512-3.87,6.107-4.234C858.663,593.22,859.074,596.506,859.444,599.5Z" transform="translate(-402.437 -257.11)"/><path class="f" d="M868.988,597.548c-.119.256-.6.477-1.276.674a34.4,34.4,0,0,1-4.848.793s-10.138-.8-9.995-5.4c.107-3.3,4.687-4.174,7.258-4.371a16.722,16.722,0,0,1,1.711-.072S869.423,596.606,868.988,597.548Z" transform="translate(-402.731 -256.674)"/><path class="e" d="M873.53,597.548c-.119.256-.6.477-1.276.674-2.642-3.536-6.327-8.074-8.134-8.474l.549-.507a16.724,16.724,0,0,1,1.711-.072S873.966,596.606,873.53,597.548Z" transform="translate(-407.274 -256.674)"/><path class="i" d="M871.277,497.69l2.982.441a51.832,51.832,0,0,0,3.578,5.468,5.964,5.964,0,0,1,1.312,3.5s4.377,6.488,5.761,7.216,3.5,5.689,3.5,5.689,3.429,2.26,3.429,4.813a42.856,42.856,0,0,0,.656,6.345,18,18,0,0,1-1.968,7.156,24.439,24.439,0,0,0-2.845,8.158c.078.894-4.085,5.546-5.248,7a29.64,29.64,0,0,0-2.552,4.306l-3.864,7.293s-8.17-12.034-11.158-12.69c0,0,3.351-3.208,5.027-3.793s3.286-5.367,3.357-6.488,1.533-4.741,3.059-5.367,2.338-1.312,1.682-2.338,0-2.982,0-2.982-4.306-5.689-4.89-8.945-4.52-5.468-4.52-5.468l-2.26-5.546Z" transform="translate(-407.572 -219.748)"/><path class="e" d="M891.966,541.83a9.464,9.464,0,0,1,5.886-2.23A7.175,7.175,0,0,0,894,541.109a9.079,9.079,0,0,0-1.067,1.36c-.346.495-3.161,4.073-3.578,3.507C888.656,545.146,891.4,542.313,891.966,541.83Z" transform="translate(-417.414 -236.665)"/><path class="e" d="M882.73,529.695a2.523,2.523,0,0,0,2.081-1.473,8.257,8.257,0,0,0,.65-2.588,38.613,38.613,0,0,1,.9-4.431,2.051,2.051,0,0,0-.125-1.789,6.043,6.043,0,0,0-.644-1.324,7.94,7.94,0,0,0-.912,2.785c-.274.99-.525,1.986-.763,2.982C883.792,524.334,882.8,529.695,882.73,529.695Z" transform="translate(-414.786 -227.982)"/><path class="e" d="M849.216,455.676a6.142,6.142,0,0,1-1.008,1.038c-1.193.948-2.773,1.747-2.922,3.244a3.489,3.489,0,0,1-.179,1.437c-.382.656-1.318.6-2.063.471a3.578,3.578,0,0,1-1.747-.644c-.781-.668-.853-1.861-1.449-2.7a3.679,3.679,0,0,0-2.982-1.318c-1.115-.036-2.224.215-3.339.262a9.179,9.179,0,0,1-2.141-.143,6.784,6.784,0,0,1-.692-.143,8.9,8.9,0,0,1-1.455-.495,6.413,6.413,0,0,1-.71-.334,9.422,9.422,0,0,1-2.057-1.431,5.115,5.115,0,0,1-1.908-3.87c.054-.912.465-1.753.6-2.654.447-2.576-1.264-5.009-3.119-6.852-.74-.733-1.527-1.443-2.266-2.189a10.907,10.907,0,0,1-2.666-3.8,11.331,11.331,0,0,1-.477-4.771,32.907,32.907,0,0,0,.137-4.9c-.549-5.8-5.5-10.239-10.448-12.654l-.221-.113a15.892,15.892,0,1,1,21.379,23.257c-.054.185-.1.37-.143.549-1.145,4.58-.388,7.359.465,8.891h0c.233.054,8.414,1.9,9.494,2.982s7.752,2.624,7.752,2.624a5.832,5.832,0,0,1,4.168,4.264Z" transform="translate(-383.853 -183.405)"/><path class="g" d="M804.048,404.121c.328-.376.823-.567,1.157-.93,1.032-1.121,0-2.952.376-4.431.406-1.64,2.421-2.356,4.1-2.183s3.256.948,4.938,1.139c2.612.292,5.141-.841,7.687-1.5s5.623-.7,7.377,1.252,1.634,5.272,3.817,6.685c1.008.65,2.278.722,3.369,1.193a6.924,6.924,0,0,1,2.851,2.725,14.276,14.276,0,0,1,2.159,9.13c-.185,1.729-.686,3.411-.889,5.14a14.965,14.965,0,0,0,.358,5.367c.459,1.789,1.455,3.721,3.238,4.294a5.462,5.462,0,0,1,1.193.411c1.032.644.895,2.159.632,3.34l-1.062,4.9c1.02.775,2.606.441,3.578,1.258a2.981,2.981,0,0,1,.835,1.312,7.156,7.156,0,0,1-2.141,7.836c-1.193.948-2.773,1.747-2.922,3.238a3.363,3.363,0,0,1-.179,1.437c-.376.656-1.318.6-2.063.471a3.577,3.577,0,0,1-1.741-.644c-.787-.668-.853-1.861-1.449-2.7a3.691,3.691,0,0,0-2.982-1.318c-1.121-.036-2.224.215-3.345.268a9.888,9.888,0,0,1-7.031-2.54A5.133,5.133,0,0,1,824,445.388c.054-.906.465-1.753.6-2.654.441-2.57-1.264-5.009-3.119-6.852s-4.031-3.542-4.938-5.993c-1.133-3.035-.036-6.423-.34-9.643-.549-5.8-5.492-10.239-10.448-12.66C804.644,407.019,802.766,405.582,804.048,404.121Z" transform="translate(-382.851 -178.621)"/><path class="e" d="M843.017,454.728c-.787-.674-.853-1.861-1.449-2.7a3.7,3.7,0,0,0-2.982-1.324c-1.121-.036-2.23.215-3.346.268a9.857,9.857,0,0,1-7.055-2.546,5.114,5.114,0,0,1-1.908-3.87c.054-.912.465-1.759.6-2.654.447-2.576-1.264-5.015-3.119-6.858s-4.025-3.542-4.938-5.993c-1.127-3.029,0-6.417-.334-9.643-.555-5.8-5.5-10.239-10.448-12.66-1.157-.567-3.035-2-1.753-3.465.322-.376.817-.567,1.151-.93,1.032-1.115,0-2.952.382-4.425a2.433,2.433,0,0,1,.376-.817,3.181,3.181,0,0,0-2.69,2.129c-.364,1.479.656,3.31-.376,4.431-.334.364-.829.555-1.157.924-1.282,1.461.6,2.9,1.753,3.465,4.956,2.421,9.9,6.864,10.448,12.66.3,3.226-.793,6.613.34,9.649.906,2.445,3.083,4.174,4.938,5.993s3.578,4.276,3.119,6.852a22.845,22.845,0,0,0-.6,2.654,5.121,5.121,0,0,0,1.914,3.87,9.834,9.834,0,0,0,7.049,2.546c1.121-.054,2.224-.3,3.346-.268a3.709,3.709,0,0,1,2.982,1.324c.6.841.662,2.034,1.449,2.7a3.579,3.579,0,0,0,1.741.638c.745.137,1.688.185,2.063-.465a1.609,1.609,0,0,0,.167-.859,3.43,3.43,0,0,1-1.664-.626Z" transform="translate(-382.819 -179.148)"/><path class="j" d="M656.016,271.75H614.767V231.1h41.279Zm-.6-61.286H615.364c0-63.164,60.04-59.473,60.04-99.434a39.823,39.823,0,0,0-40.026-39.645c-22.011,0-40.02,19.011-40.02,40.271H555.33A79.91,79.91,0,0,1,635.377,31.61c44.213,0,80.047,35.274,80.047,79.421,0,49.967-60.034,55.656-60.034,99.434Z" transform="translate(-282.628 -31.61)"/><path class="a" d="M361.629,372.021H350.99V361.514h10.639Zm-.161-15.8H351.151c0-16.28,15.475-15.332,15.475-25.643a10.269,10.269,0,0,0-10.317-10.227,10.537,10.537,0,0,0-10.293,10.376H335.7a20.638,20.638,0,1,1,41.276-.161c-.033,12.881-15.508,14.348-15.508,25.631Z" transform="translate(-193.972 -143.987)"/><path class="a" d="M496.677,494.448H486.038V483.97h10.639Zm-.155-15.8H486.2c0-16.286,15.475-15.332,15.475-25.643a10.263,10.263,0,0,0-10.317-10.221,10.537,10.537,0,0,0-10.346,10.388H470.7a20.638,20.638,0,1,1,41.276-.161C511.991,465.895,496.521,467.368,496.521,478.651Z" transform="translate(-248.466 -193.415)"/><path class="a" d="M583.668,289.3h-7.711v-7.579h7.711Zm-.113-11.456h-7.478c0-11.8,11.217-11.11,11.217-18.576a7.442,7.442,0,0,0-7.478-7.407,7.633,7.633,0,0,0-7.478,7.526H564.86a14.956,14.956,0,1,1,29.912-.119C594.76,268.6,583.555,269.667,583.555,277.843Z" transform="translate(-286.474 -117.493)"/><path class="a" d="M810.027,320.619h-4.359v-4.294h4.359Zm-.066-6.47h-4.252c0-6.667,6.339-6.279,6.339-10.5a4.174,4.174,0,0,0-4.222-4.174,4.317,4.317,0,0,0-4.228,4.252H799.37a8.456,8.456,0,0,1,16.906-.066C816.3,308.9,809.961,309.527,809.961,314.148Z" transform="translate(-381.137 -138.115)"/><path class="a" d="M921.8,648.089h-4.359V643.8H921.8Zm-.066-6.47h-4.228c0-6.673,6.345-6.28,6.345-10.5a4.2,4.2,0,0,0-4.228-4.174,4.312,4.312,0,0,0-4.228,4.252H911.17a8.456,8.456,0,0,1,16.906-.066c.024,5.266-6.315,5.868-6.315,10.49Z" transform="translate(-426.266 -270.301)"/></g></svg>