<svg xmlns="http://www.w3.org/2000/svg" width="198.852" height="71.063" viewBox="0 0 198.852 71.063">
  <g id="download_iosaa" transform="translate(-16.148 -11.376)">
    <text id="Available_on_the" data-name="Available on the" transform="translate(100 35.439)" font-size="14" font-family="Muli-Black, Muli" font-weight="800"><tspan x="0" y="0">Available on the</tspan></text>
    <text id="App_Store" data-name="App Store" transform="translate(100 38.439)" font-size="23" font-family="MyanmarText-Bold, Myanmar Text" font-weight="700" letter-spacing="0.025em"><tspan x="0" y="25">App Store</tspan></text>
    <g id="Group_2160" data-name="Group 2160" transform="translate(16.166 11.378)">
      <path id="Path_453" data-name="Path 453" d="M110.8,28.037a14.848,14.848,0,0,0-7.254,12.615,14.858,14.858,0,0,0,8.926,13.2,35.092,35.092,0,0,1-4.626,9.363c-2.666,4.051-5.62,8.137-10.107,8.137-4.264,0-5.8-2.7-10.72-2.7-5.285,0-6.781,2.7-10.822,2.7-4.486,0-7.663-4.3-10.468-8.314a41.008,41.008,0,0,1-6.856-21.4A22.544,22.544,0,0,1,61.65,29.822a16.48,16.48,0,0,1,13.64-8.315c4.3-.139,8.128,2.954,10.747,2.954,2.517,0,7.227-2.954,12.55-2.954a14.628,14.628,0,0,1,12.213,6.53ZM85.675,20.671c-.762-3.828,1.347-7.655,3.316-10.1a14.007,14.007,0,0,1,9.921-4.96,14.293,14.293,0,0,1-3.651,10.32C93.042,18.887,89.214,21.108,85.675,20.671Z" transform="translate(-58.871 -5.613)" fill="#707070"/>
    </g>
  </g>
</svg>
