<svg xmlns="http://www.w3.org/2000/svg" xmlns:xlink="http://www.w3.org/1999/xlink" width="60" height="60" viewBox="0 0 60 60">
  <defs>
    <linearGradient id="linear-gradient" x1="0.5" y1="1" x2="0.5" gradientUnits="objectBoundingBox">
      <stop offset="0" stop-color="#002d6f"/>
      <stop offset="1" stop-color="#7998c6"/>
    </linearGradient>
  </defs>
  <g id="icon_loiich4" transform="translate(-1167 -2871)">
    <rect id="Rectangle_1860" data-name="Rectangle 1860" width="60" height="60" rx="30" transform="translate(1167 2871)" fill="url(#linear-gradient)"/>
    <g id="Group_7118" data-name="Group 7118" transform="translate(1182.507 2886.922)">
      <path id="Path_12877" data-name="Path 12877" d="M17.5,2a4.79,4.79,0,0,0-2.9.988,8.4,8.4,0,0,1,1.691,5.051V9.247a8.4,8.4,0,0,1-.652,3.25A4.829,4.829,0,0,0,22.33,8.039V6.831A4.831,4.831,0,0,0,17.5,2Z" transform="translate(3.033)" fill="#fff"/>
      <path id="Path_12878" data-name="Path 12878" d="M10.039,15.285h0A6.039,6.039,0,0,1,4,9.247V8.039A6.039,6.039,0,0,1,10.039,2h0a6.039,6.039,0,0,1,6.039,6.039V9.247A6.039,6.039,0,0,1,10.039,15.285Z" transform="translate(0.831)" fill="#fff"/>
      <path id="Path_12879" data-name="Path 12879" d="M24.752,14.7A17.591,17.591,0,0,0,17.7,13a15.25,15.25,0,0,0-4.067.6c.454.094.909.19,1.365.306a8.4,8.4,0,0,1,6.271,7.551h3.678a1.208,1.208,0,0,0,1.208-1.208V16.89A2.406,2.406,0,0,0,24.752,14.7Z" transform="translate(2.832 2.285)" fill="#fff"/>
      <path id="Path_12880" data-name="Path 12880" d="M20.532,23.454H1.208A1.208,1.208,0,0,1,0,22.247v-.574a6.017,6.017,0,0,1,4.506-5.844A25.942,25.942,0,0,1,10.87,15a25.942,25.942,0,0,1,6.364.829,6.017,6.017,0,0,1,4.506,5.844v.574A1.208,1.208,0,0,1,20.532,23.454Z" transform="translate(0 2.701)" fill="#fff"/>
    </g>
  </g>
</svg>
