<svg xmlns="http://www.w3.org/2000/svg" xmlns:xlink="http://www.w3.org/1999/xlink" width="186.756" height="126.347" viewBox="0 0 186.756 126.347"><defs><style>.a{fill:url(#a);}.b{fill:none;}.c{fill:url(#b);}.d,.g,.l,.m{fill:#fff;}.d{opacity:0.5;}.e{opacity:0.82;fill:url(#c);}.f{fill:url(#d);}.g{opacity:0.47;}.h{fill:url(#e);}.i{fill:url(#f);}.j{fill:url(#g);}.k{fill:url(#h);}.m{opacity:0.37;}.n{fill:url(#i);}.o{fill:url(#j);}.p{clip-path:url(#k);}</style><linearGradient id="a" x1="0.601" y1="0.249" x2="0.134" y2="0.861" gradientUnits="objectBoundingBox"><stop offset="0" stop-color="#53d8ff"/><stop offset="1" stop-color="#3840f7"/></linearGradient><linearGradient id="b" x1="0.464" y1="-1.925" x2="1.646" y2="-0.968" xlink:href="#a"/><linearGradient id="c" y1="0.5" x2="1" y2="0.5" gradientUnits="objectBoundingBox"><stop offset="0" stop-color="#a737d5"/><stop offset="1" stop-color="#ef497a"/></linearGradient><linearGradient id="d" x1="1.052" y1="0.193" x2="2.855" y2="0.911" xlink:href="#a"/><linearGradient id="e" x1="0.222" y1="-0.127" x2="0.838" y2="1.261" xlink:href="#a"/><linearGradient id="f" x1="1.844" y1="0.881" x2="3.085" y2="0.074" xlink:href="#c"/><linearGradient id="g" x1="3.59" y1="-0.023" x2="2.21" y2="1.314" gradientUnits="objectBoundingBox"><stop offset="0" stop-color="#cb236d"/><stop offset="1" stop-color="#4c246d"/></linearGradient><linearGradient id="h" x1="-0.154" y1="0.555" x2="1.272" y2="0.481" gradientUnits="objectBoundingBox"><stop offset="0" stop-color="#fdf53f"/><stop offset="1" stop-color="#d93c65"/></linearGradient><linearGradient id="i" x1="0.274" y1="-0.121" x2="0.707" y2="0.812" xlink:href="#g"/><linearGradient id="j" x1="0.601" y1="0.249" x2="0.134" y2="0.861" gradientUnits="objectBoundingBox"><stop offset="0" stop-color="#f5d645"/><stop offset="1" stop-color="#f98c29"/></linearGradient><clipPath id="k"><path class="a" d="M385.269,181.4a1.712,1.712,0,0,0-.975-1.459l-27.174-12.906a1.709,1.709,0,0,0-1.466,0L328.48,179.945a1.712,1.712,0,0,0-.975,1.459c-.8,15.722,2.828,28.84,10.8,39.008a48.206,48.206,0,0,0,17.357,13.844,1.713,1.713,0,0,0,1.447,0,48.208,48.208,0,0,0,17.357-13.844C382.441,210.244,386.073,197.126,385.269,181.4Z" transform="translate(-327.396 -166.874)"/></clipPath></defs><g transform="translate(-55 -143)"><g transform="translate(55 143)"><g transform="translate(0)"><rect class="b" width="186.116" height="124.078" transform="translate(0.639 2.269)"/><rect class="b" width="186.116" height="124.078" transform="translate(0.639 2.107)"/><rect class="b" width="186.116" height="124.078" transform="translate(0 2.107)"/><rect class="b" width="186.116" height="124.078"/></g></g><g transform="translate(63.384 152.946)"><g transform="translate(5.419 27.075)"><path class="c" d="M124,250.13S114.236,208.893,94,186.394a2.569,2.569,0,0,0-4.391,1.032C86.011,200.547,79.117,240.344,124,250.13Z" transform="translate(-86.945 -185.538)"/><path class="d" d="M143.644,295.6a.112.112,0,0,1-.146.17c-4.165-3.1-20.265-18.317-26.208-48.646a.078.078,0,0,1,.152-.039C119.463,254.115,127.726,280.038,143.644,295.6Z" transform="translate(-110.695 -233.667)"/></g><g transform="translate(0 64.405)"><path class="e" d="M62.111,357.732a.214.214,0,0,1,.134-.4,41.147,41.147,0,0,1,26.728,14.812,108.665,108.665,0,0,1,15.136,23.98,1,1,0,0,1-1.011,1.392c-4.493-.447-17.01-2.359-22.245-10C74.6,378.394,71.4,363.468,62.111,357.732Z" transform="translate(-62.008 -357.335)"/><path class="d" d="M111.546,388.176s11.818,4.46,30.392,32.2C141.938,420.379,121.794,393.486,111.546,388.176Z" transform="translate(-100.782 -381.475)"/></g><g transform="translate(129.444)"><path class="f" d="M659.012,61.119a.29.29,0,0,0-.557.064c-.66,4.63-2.468,21.229,4.2,28.77,7.793,8.811,13.462,10.847,11.642,25.55-1.8,14.548-6.662,40.346-4.572,48.04a.387.387,0,0,0,.306.281h0a.385.385,0,0,0,.452-.4,103.173,103.173,0,0,1,.952-21.035c1.739-10.195,9.252-35.58,5.757-55.385C673.918,68.443,661.829,68.027,659.012,61.119Z" transform="translate(-657.728 -60.935)"/><path class="g" d="M677.492,98.405c.654.515,1.27,1.069,1.868,1.645s1.176,1.171,1.735,1.785,1.1,1.247,1.624,1.889c.263.322.512.654.768.981s.5.667.743,1a44.354,44.354,0,0,1,2.671,4.211l.305.544.289.553c.189.371.392.734.566,1.112l.538,1.126.5,1.145c.085.19.162.383.236.578l.226.582.226.582.2.59c.132.394.279.784.4,1.183l.359,1.2c.063.2.11.4.161.6l.152.606.152.605c.047.2.085.407.128.611.082.408.169.815.247,1.223l.192,1.233c.071.41.109.824.153,1.238l.065.62c.02.207.048.413.055.621.044.83.1,1.659.086,2.49a36.332,36.332,0,0,1-.319,4.961.12.12,0,0,1-.239-.024v0a39.432,39.432,0,0,0-.4-9.81l-.216-1.209c-.084-.4-.178-.8-.266-1.2-.046-.2-.087-.4-.137-.6l-.161-.592-.16-.592c-.054-.2-.1-.4-.169-.59a43.057,43.057,0,0,0-1.672-4.611,49.289,49.289,0,0,0-4.774-8.564c-.236-.335-.466-.674-.706-1.006s-.482-.663-.731-.989q-.738-.984-1.518-1.936c-1.038-1.27-2.128-2.506-3.289-3.67l0,0a.078.078,0,0,1,.1-.117Z" transform="translate(-673.098 -90.25)"/></g><g transform="translate(21.373 3.952)"><path class="h" d="M176.335,129.889s3.893-29.675-3.828-49.6a1.814,1.814,0,0,0-3.158-.42C163.686,87.627,149.154,112.173,176.335,129.889Z" transform="translate(-160.371 -79.121)"/><path class="d" d="M201.672,160.682a.079.079,0,0,1-.139.076c-1.973-3.089-8.786-17.175-5.1-38.69a.055.055,0,0,1,.11.012C196.11,127.229,195.065,146.417,201.672,160.682Z" transform="translate(-187.753 -112.7)"/></g><g transform="translate(142.79 34.666)"><path class="i" d="M719.86,289.005a.457.457,0,0,1-.376-.4c-.224-2.19-1.278-14.305,2.061-20.738,3.68-7.089,9.616-13.686,6.716-30.575-1.643-9.568-.612-14.784-.089-16.593a.307.307,0,0,1,.574-.047c1.507,3.228,7.793,16.822,8.773,21.027,1.115,4.785,1.852,14.092-5.687,18.345-7.42,4.186-14.12,14.816-11.442,28.446a.458.458,0,0,1-.53.538Z" transform="translate(-719.149 -220.473)"/><path class="j" d="M726.606,437.624a.549.549,0,0,1-.442-.426c-.414-1.943-1.989-11.257,4.386-16.97,6.648-5.958,11.5-6.351,12.8-10.083a.238.238,0,0,1,.457.022c.743,3.344,2.578,14.9-6.263,19.356-8.773,4.421-10.153,6.449-10.3,7.635a.546.546,0,0,1-.64.465Z" transform="translate(-724.268 -368.803)"/><path class="g" d="M745.831,424.886a10.284,10.284,0,0,1-.626,1.778,12.906,12.906,0,0,1-.9,1.66,12.32,12.32,0,0,1-1.144,1.517,12.1,12.1,0,0,1-2.933,2.435,13.169,13.169,0,0,1-1.726.834l-.449.168-.428.156c-.143.049-.282.107-.421.165s-.28.112-.414.179a10.955,10.955,0,0,0-1.575.871,11.234,11.234,0,0,0-4.341,5.616,17.47,17.47,0,0,0-.893,3.547c-.088.608-.151,1.22-.191,1.835s-.055,1.233-.057,1.852h0a.1.1,0,0,1-.2.007c-.046-.621-.077-1.245-.073-1.871s.033-1.251.087-1.876a17.136,17.136,0,0,1,.272-1.866,14.709,14.709,0,0,1,.487-1.831,12.274,12.274,0,0,1,1.731-3.39,10.852,10.852,0,0,1,2.76-2.652,11.7,11.7,0,0,1,1.674-.937c.143-.071.292-.129.439-.192s.294-.125.445-.177l.871-.317a12.215,12.215,0,0,0,3.132-1.767,13.533,13.533,0,0,0,1.348-1.21,14.718,14.718,0,0,0,1.178-1.389,14.24,14.24,0,0,0,1.8-3.193l0,0a.081.081,0,0,1,.154.049Z" transform="translate(-727.216 -380.39)"/></g><g transform="translate(28.183 31.178)"><g transform="translate(0 0)"><path class="k" d="M307.516,276.385a2.093,2.093,0,0,1-2.031,2.138H194.191a2.093,2.093,0,0,1-2.031-2.138l-.912-63.756a5.1,5.1,0,0,1,5.24-5.134l108.745-3.071a3.7,3.7,0,0,1,2.785,1.167,4.111,4.111,0,0,1,1.116,2.929Z" transform="translate(-191.248 -204.423)"/><g transform="translate(1.407 3.46)"><path class="l" d="M200.167,367.434a.157.157,0,0,1-.153-.159l-.072-5.17a.158.158,0,0,1,.151-.164h0a.157.157,0,0,1,.153.159l.072,5.17a.158.158,0,0,1-.151.164Z" transform="translate(-199.561 -329.372)"/><path class="l" d="M198.618,244.942a.157.157,0,0,1-.153-.159l-.276-19.8a4.3,4.3,0,0,1,1.147-3.135,5.278,5.278,0,0,1,3.619-1.314l34.728-.981h0a.161.161,0,0,1,0,.322l-34.736.981a4.963,4.963,0,0,0-3.407,1.224,3.982,3.982,0,0,0-1.053,2.9l.276,19.8a.157.157,0,0,1-.151.164Z" transform="translate(-198.189 -219.551)"/></g><path class="m" d="M217.2,289c.116-5.269.073-51.932-.214-55.962s5.675-4.786,14.83-5.239,86.394-2.249,88.382-2.419c4.47-.382,5.4,6.652,4.948,21.921-.336,11.471-.893,30.369-1.149,39.059a4.672,4.672,0,0,1-4.545,4.648c-18.587.054-89.825.269-94.567.417C219.429,291.6,217.155,291.092,217.2,289Z" transform="translate(-211.487 -220.576)"/></g></g><g transform="translate(50.554 15.696)"><path class="n" d="M366.679,153.38a6.85,6.85,0,0,0-3.9-5.74l-29.069-13.806a6.857,6.857,0,0,0-5.884,0L298.757,147.64a6.85,6.85,0,0,0-3.9,5.74c-2.727,42.147,24.3,57.5,33.156,61.383a6.864,6.864,0,0,0,5.51,0C342.381,210.884,369.405,195.527,366.679,153.38Z" transform="translate(-294.664 -133.171)"/><path class="l" d="M418.972,148.345a.383.383,0,0,1-.164-.728l6.869-3.262a.382.382,0,1,1,.328.691l-6.868,3.262A.381.381,0,0,1,418.972,148.345Z" transform="translate(-391.662 -141.895)"/><path class="l" d="M304.239,187.369a.383.383,0,0,1-.382-.37c-.092-2.74-.044-5.6.144-8.491a4.862,4.862,0,0,1,2.77-4.072l19.555-9.287a.383.383,0,1,1,.328.691L307.1,175.127a4.1,4.1,0,0,0-2.334,3.43c-.186,2.87-.234,5.7-.143,8.416a.383.383,0,0,1-.37.4Z" transform="translate(-301.824 -158.171)"/><g transform="translate(7.112 7.323)"><path class="o" d="M385.269,181.4a1.712,1.712,0,0,0-.975-1.459l-27.174-12.906a1.709,1.709,0,0,0-1.466,0L328.48,179.945a1.712,1.712,0,0,0-.975,1.459c-.8,15.722,2.828,28.84,10.8,39.008a48.206,48.206,0,0,0,17.357,13.844,1.713,1.713,0,0,0,1.447,0,48.208,48.208,0,0,0,17.357-13.844C382.441,210.244,386.073,197.126,385.269,181.4Z" transform="translate(-327.396 -166.874)"/></g></g></g></g></svg>