<svg xmlns="http://www.w3.org/2000/svg" width="106.675" height="23.166" viewBox="0 0 106.675 23.166"><defs><style>.a{fill:#e4081c;}.b{fill:#004d9d;}</style></defs><g transform="translate(2044.367 1285.778)"><path class="a" d="M-1927.827-1271.111c0-3.914-.012-7.49.007-11.067.006-1.187-.947-1.893-1.417-2.961h6.394c0,.053.045.166.011.2-1.483,1.342-1.618,3.05-1.588,4.933.088,5.594.011,11.191.051,16.786.007.972-.087,1.306-1.224,1.083a9.95,9.95,0,0,1-6.172-3.662c-2.991-3.775-6.035-7.508-9.269-11.521v8.073c0,1.208.033,2.417-.008,3.623-.045,1.327,1.287,1.866,1.671,3.035h-6.395c0-.092-.062-.254-.009-.31,1.38-1.442,1.394-3.215,1.365-5.06q-.094-6.1.006-12.2a5.4,5.4,0,0,0-1.122-3.8,1.888,1.888,0,0,1-.595-1.27c2.18,0,4.335.005,6.491,0,.551,0,.728.446.993.775q5,6.2,9.993,12.411C-1928.448-1271.807-1928.235-1271.578-1927.827-1271.111Z" transform="translate(-74.512 -0.539)"/><path class="b" d="M-1774.261-1285.048c2.8,0,5.255.039,7.706-.023.78-.02.927.424,1.127.963,2.029,5.454,4.079,10.9,6.091,16.36a11.124,11.124,0,0,0,3.151,5.194h-10.363c2.553-2.174.365-4.284-.042-6.432-.069-.361-.429-.308-.7-.308-1.851-.005-3.7.011-5.552-.013a.787.787,0,0,0-.878.618c-.259.8-.547,1.594-.823,2.39-.467,1.348-.842,2.681,1.08,3.777h-6.99c3.056-5.123,4.2-11,6.379-16.473.3-.744.508-1.522.778-2.278A2.947,2.947,0,0,0-1774.261-1285.048Zm4.178,6.118-.252.019c-.32.943-.673,1.877-.95,2.832a14.4,14.4,0,0,0-1.013,3.513l3.712.065a1.19,1.19,0,0,1,.12,0c.5.057.633-.116.455-.606C-1768.714-1275.044-1769.395-1276.989-1770.083-1278.931Z" transform="translate(-200.158 -0.663)"/><path class="b" d="M-1834.4-1262.557h-9.1c1.367-1.322,1.416-2.908,1.41-4.527-.016-4.71-.006-9.421-.007-14.131a4.456,4.456,0,0,0-1.57-3.886c1.1,0,1.925-.021,2.744,0,3.255.1,6.526-.28,9.764.23a5.783,5.783,0,0,1,5.044,4.82,6.066,6.066,0,0,1-3.337,6.84c-1.835.928-4.5,1.334-5.781.88,2.7-2.213,3.459-4.312,2.585-7.1a3.087,3.087,0,0,0-2.433-2.255c-.562-.122-.9-.049-.893.681.029,4.871.008,9.743.034,14.614A5.4,5.4,0,0,0-1834.4-1262.557Z" transform="translate(-152.214 -0.61)"/><path class="a" d="M-2031.171-1268.511c1.728-4.647,3.341-9.056,5.017-13.441a2.728,2.728,0,0,0-.524-2.474c-.341-.625-.271-.836.473-.814,1.166.036,2.337.052,3.5,0,.848-.041,1.046.162.74,1.006-1.612,4.454-3.173,8.926-4.757,13.39-.94,2.648-1.915,5.283-2.819,7.944-.236.694-.551.834-1.223.655-3.251-.866-5.689-2.557-6.927-5.893-2.107-5.675-4.4-11.282-6.678-17.1,2.286,0,4.51-.009,6.733.006.687,0,.635.661.782,1.064,1.73,4.752,3.431,9.516,5.142,14.276C-2031.577-1269.525-2031.425-1269.162-2031.171-1268.511Z" transform="translate(0 -0.528)"/><path class="b" d="M-1684.853-1284.909h7.559c-.022.5-.355.763-.575,1.081q-3.6,5.212-7.231,10.4a2.66,2.66,0,0,0-.522,1.673c.035,1.73.02,3.462.021,5.193a5.089,5.089,0,0,0,1.586,4.093h-9.492c1.342-1.1,1.272-2.573,1.452-4.045a13.759,13.759,0,0,0-3.405-11.205,37.2,37.2,0,0,1-2.7-3.994,11.655,11.655,0,0,0-2.865-3.255c2.836,0,5.389.013,7.942-.009.589-.005.719.444.941.795,1.4,2.209,2.795,4.417,4.151,6.651.376.619.585.607.969.023.839-1.277,1.782-2.488,2.579-3.79C-1683.533-1282.788-1683.661-1283.627-1684.853-1284.909Z" transform="translate(-260.397 -0.738)"/></g></svg>