<svg xmlns="http://www.w3.org/2000/svg" width="20" height="20" viewBox="0 0 20 20">
  <g id="youtube_ic" transform="translate(-1069 -3910)">
    <path id="youtube_ic-2" data-name="youtube_ic" d="M5.62,2,7.066,7.225V9.731H8.319V7.225L9.783,2H8.521L8,4.378Q7.774,5.419,7.711,5.86H7.673q-.092-.617-.285-1.491L6.882,2Zm5.624,1.973a1.861,1.861,0,0,0-1.027.252,1.469,1.469,0,0,0-.577.806A4.777,4.777,0,0,0,9.457,6.5v.821a5.248,5.248,0,0,0,.16,1.446,1.4,1.4,0,0,0,.544.8,1.866,1.866,0,0,0,1.054.258,1.853,1.853,0,0,0,1.037-.254,1.422,1.422,0,0,0,.552-.8,5.039,5.039,0,0,0,.17-1.451V6.5A4.955,4.955,0,0,0,12.8,5.036a1.478,1.478,0,0,0-.554-.806A1.746,1.746,0,0,0,11.244,3.973Zm2.393.111V8.3A1.98,1.98,0,0,0,13.9,9.454a.955.955,0,0,0,.829.369,1.3,1.3,0,0,0,1.217-.783h.027l.111.691h.995V4.084H15.81V8.569a.621.621,0,0,1-.225.258.556.556,0,0,1-.317.1.287.287,0,0,1-.277-.16,1.261,1.261,0,0,1-.084-.54V4.084Zm-2.422.764a.38.38,0,0,1,.374.281,2.734,2.734,0,0,1,.105.89V7.777a2.767,2.767,0,0,1-.105.9.38.38,0,0,1-.372.277.372.372,0,0,1-.369-.277,2.847,2.847,0,0,1-.1-.9V6.018a2.741,2.741,0,0,1,.105-.89A.373.373,0,0,1,11.216,4.847ZM4.956,10.8A1.961,1.961,0,0,0,3,12.756V19.6a1.961,1.961,0,0,0,1.956,1.956H18.644A1.961,1.961,0,0,0,20.6,19.6V12.756A1.961,1.961,0,0,0,18.644,10.8Zm6.892,1.956h1.033v2.511h.008a1.131,1.131,0,0,1,.4-.439,1,1,0,0,1,.554-.166.842.842,0,0,1,.6.2,1.227,1.227,0,0,1,.315.653,6.312,6.312,0,0,1,.1,1.253v.754h0a3.6,3.6,0,0,1-.258,1.566.845.845,0,0,1-.8.5,1.11,1.11,0,0,1-.552-.139.909.909,0,0,1-.374-.382h-.023l-.109.451h-.886ZM5.431,13h3.18v.865H7.545v5.66H6.5v-5.66H5.431Zm11.353,1.667a1.5,1.5,0,0,1,.848.2,1.094,1.094,0,0,1,.416.63,4.565,4.565,0,0,1,.12,1.182V17.5h-1.8v.242a6.257,6.257,0,0,0,.027.687.66.66,0,0,0,.113.334.318.318,0,0,0,.264.105.334.334,0,0,0,.33-.187,1.606,1.606,0,0,0,.1-.621l.926.053a1.544,1.544,0,0,1,.008.172,1.262,1.262,0,0,1-.363.987,1.469,1.469,0,0,1-1.022.327,1.221,1.221,0,0,1-1.113-.5,2.906,2.906,0,0,1-.319-1.539v-.833a2.89,2.89,0,0,1,.33-1.568A1.261,1.261,0,0,1,16.784,14.663Zm-8.494.092H9.365v3.5a1.058,1.058,0,0,0,.071.454.241.241,0,0,0,.233.136.475.475,0,0,0,.269-.086.526.526,0,0,0,.189-.218V14.755H11.2v4.767H10.36l-.092-.584h-.025a1.1,1.1,0,0,1-1.027.663.8.8,0,0,1-.7-.311,1.668,1.668,0,0,1-.227-.972Zm8.472.634a.311.311,0,0,0-.254.1.649.649,0,0,0-.109.33,6.361,6.361,0,0,0-.027.7v.342h.785v-.342a5.835,5.835,0,0,0-.031-.7.649.649,0,0,0-.113-.334A.311.311,0,0,0,16.761,15.389Zm-3.405.034a.409.409,0,0,0-.286.124.683.683,0,0,0-.187.319v2.706a.476.476,0,0,0,.183.187.5.5,0,0,0,.244.063.33.33,0,0,0,.271-.124.878.878,0,0,0,.145-.42,6.084,6.084,0,0,0,.042-.817v-.613a8.046,8.046,0,0,0-.034-.863,1.008,1.008,0,0,0-.124-.433A.292.292,0,0,0,13.356,15.423Z" transform="translate(1067 3908)" fill="#fff"/>
    <rect id="Rectangle_1891" data-name="Rectangle 1891" width="20" height="20" transform="translate(1069 3910)" fill="none"/>
  </g>
</svg>
