<svg xmlns="http://www.w3.org/2000/svg" width="85.302" height="15.333" viewBox="0 0 85.302 15.333">
  <g id="logo-qr-white" transform="translate(-928 -4588)">
    <path id="Path_12963" data-name="Path 12963" d="M10.55,7.3h4.8l4,11.044,3.421-9.16a.993.993,0,0,0-.137-.773c-.181-.369-.382-.742-.582-1.1h3.577c-.2.742-.519,1.556-.783,2.32L20.216,22.481a7.686,7.686,0,0,1-3.749-1.715,6.237,6.237,0,0,1-1.512-2.594l-3.867-9.78A6.827,6.827,0,0,0,10.55,7.3Zm19.112,5.165v7.89c0,.318.083.369.3.637l.933,1.171h-4.5c.242-.382.5-.751.761-1.111a1.2,1.2,0,0,0,.277-.773V9.257L26.155,7.3h4.672l7.556,9.319V9.184a1.117,1.117,0,0,0-.264-.773c-.245-.369-.509-.742-.773-1.1h4.5l-.917,1.168a.764.764,0,0,0-.274.637V22.536a6.447,6.447,0,0,1-4.714-2.349Z" transform="translate(917.45 4580.797)" fill="#fff" fill-rule="evenodd"/>
    <path id="Path_12964" data-name="Path 12964" d="M112.53,20.03V9.846a3.578,3.578,0,0,0-.22-1.426,2.307,2.307,0,0,0-.761-.888V7.5h6.684a5.86,5.86,0,0,1,3.024.668,3.587,3.587,0,0,1,1.512,1.591,4.4,4.4,0,0,1,.382,1.766q0,3.552-4.137,4.354l-1.435.134a7.024,7.024,0,0,0-.834-.089,3.342,3.342,0,0,0,2.228-3.348q0-2.9-2.368-2.9v9.834a3.156,3.156,0,0,0,1.034,2.677v.089H111.55v-.045A2.445,2.445,0,0,0,112.53,20.03Z" transform="translate(848.595 4580.661)" fill="#fff"/>
    <path id="Path_12965" data-name="Path 12965" d="M144.194,18.916l3.078-8.733a4.675,4.675,0,0,0,.29-1.33,1.625,1.625,0,0,0-.834-1.308V7.5h5.547L156.7,19.244a7.927,7.927,0,0,0,.761,1.709,6.432,6.432,0,0,0,1.108,1.238v.089h-6.9v-.089a1.464,1.464,0,0,0,.933-1.273,2.794,2.794,0,0,0-.178-.955l-.71-2.136h-4.526l-.665,1.884a7,7,0,0,0-.318,1.273,1.089,1.089,0,0,0,.21.637,2.724,2.724,0,0,0,.637.614v.089H142.38v-.089a4.01,4.01,0,0,0,1.057-1.273c.111-.232.226-.5.341-.808S144.029,19.4,144.194,18.916Zm3.651-3.208h3.119l-1.591-4.478Z" transform="translate(827.578 4580.661)" fill="#fff"/>
    <path id="Path_12966" data-name="Path 12966" d="M188.853,15.582l-4.3-6.384a8.489,8.489,0,0,0-.812-1.041A4.86,4.86,0,0,0,183,7.575V7.53h5.5l3.367,5.347,1.91-2.718a3.437,3.437,0,0,0,.442-.955,1.632,1.632,0,0,0,.08-.656,1.273,1.273,0,0,0-.78-.987V7.53h5.226l-5.637,8.052v4.23c0,.14.022.274.029.385a4.058,4.058,0,0,0,.156.745,2.381,2.381,0,0,0,.843,1.273V22.3h-6.276v-.089a2.113,2.113,0,0,0,.99-2.113Z" transform="translate(799.886 4580.64)" fill="#fff"/>
    <path id="Path_12967" data-name="Path 12967" d="M232.11,10.657a3.5,3.5,0,0,1,.137-.955,4.013,4.013,0,0,1,.4-.9,3.539,3.539,0,0,1,1.416-1.324A4.494,4.494,0,0,1,236.206,7a3.364,3.364,0,0,1,.936.118,3.74,3.74,0,0,1,.869.376,3.329,3.329,0,0,1,1.273,1.324,4.7,4.7,0,0,1,.372.936,4.322,4.322,0,0,1,.124,1.06,4.242,4.242,0,0,1-.341,1.591,3.74,3.74,0,0,1-.983,1.384l.532.509a6.761,6.761,0,0,0,.675.567,4.138,4.138,0,0,0,.8.458,2.607,2.607,0,0,0,.907.239,3.272,3.272,0,0,1-.878.532,2.591,2.591,0,0,1-.971.181,2.206,2.206,0,0,1-.869-.181,4.455,4.455,0,0,1-.831-.449c-.274-.185-.525-.379-.748-.56l-.592-.5h-.162a2.17,2.17,0,0,0-.239.032l-.353.029a3.4,3.4,0,0,1-1.855-.535,3.635,3.635,0,0,1-1.3-1.445,4.218,4.218,0,0,1-.347-.955,4.642,4.642,0,0,1-.121-1.06Zm2.1.019a3.249,3.249,0,0,0,.086.729,6.232,6.232,0,0,0,.2.672,2.546,2.546,0,0,0,.637,1.047,1.391,1.391,0,0,0,1.025.411,1.273,1.273,0,0,0,1.165-.621,3.084,3.084,0,0,0,.379-1.591c0-.165-.022-.436-.051-.8a5.68,5.68,0,0,0-.153-.745,3.5,3.5,0,0,0-.216-.611,1.773,1.773,0,0,0-.637-.8,1.639,1.639,0,0,0-.955-.271,1.216,1.216,0,0,0-.468.092,1.289,1.289,0,0,0-.395.261,1.792,1.792,0,0,0-.477.805,3.711,3.711,0,0,0-.153,1.069v.353Zm8.342.08a1.512,1.512,0,0,0,.617-.239,1.337,1.337,0,0,0,.426-.493,1.763,1.763,0,0,0,.121-.318,1.362,1.362,0,0,0,.035-.318,1.3,1.3,0,0,0-.274-.847,1.018,1.018,0,0,0-.837-.337h-.073Zm0,.586v2.066a1.1,1.1,0,0,0,.477,1.044v.045h-2.992V14.45a1.087,1.087,0,0,0,.455-1.028V8.371a2.5,2.5,0,0,0-.083-.722.923.923,0,0,0-.372-.468V7.159h3.631a2.565,2.565,0,0,1,1.092.223,1.757,1.757,0,0,1,.764.672,1.591,1.591,0,0,1,.213.493,2.116,2.116,0,0,1,.076.576,1.836,1.836,0,0,1-.271.9,2.244,2.244,0,0,1-1.034.863l1.442,2.425a4.7,4.7,0,0,0,.936,1.123l-1.273.092H245a1.076,1.076,0,0,1-1.133-.7Z" transform="translate(766.413 4581.005)" fill="#fff" fill-rule="evenodd"/>
  </g>
</svg>
