<?xml version="1.0" encoding="utf-8"?>
<!-- Generator: Adobe Illustrator 19.1.0, SVG Export Plug-In . SVG Version: 6.00 Build 0)  -->
<svg version="1.1" id="Layer_1" xmlns="http://www.w3.org/2000/svg" xmlns:xlink="http://www.w3.org/1999/xlink" x="0px" y="0px"
	 viewBox="0 0 32 32" style="enable-background:new 0 0 32 32;" xml:space="preserve">
<style type="text/css">
	.st0{fill:none;stroke:#FFFFFF;stroke-width:1.3307;stroke-miterlimit:10;}
	.st1{fill:none;stroke:#2AB9EC;stroke-width:1.3307;stroke-miterlimit:10;}
</style>
<g>
	<path class="st0" d="M3.58,9.585v13.242c0,1.47,1.192,2.661,2.661,2.661H16"/>
	<path class="st0" d="M28.42,9.585v13.242c0,1.47-1.192,2.661-2.661,2.661H16"/>
	<path class="st1" d="M7.186,6.511H7.184c-0.261,0-0.507,0.091-0.692,0.258C6.304,6.937,6.201,7.162,6.201,7.4v13.329
		c0,0.489,0.444,0.887,0.989,0.889c2.299,0.005,6.153,0.436,8.81,2.939V10.607c0-0.166-0.047-0.321-0.136-0.45
		C13.683,6.996,9.491,6.516,7.186,6.511L7.186,6.511z M7.186,6.511"/>
	<path class="st1" d="M25.799,20.729V7.4c0-0.239-0.103-0.463-0.291-0.631c-0.185-0.167-0.431-0.258-0.692-0.258h-0.002
		c-2.304,0.005-6.497,0.485-8.678,3.646C16.047,10.286,16,10.441,16,10.607v13.949c2.658-2.502,6.51-2.933,8.81-2.938
		C25.355,21.616,25.799,21.218,25.799,20.729L25.799,20.729z M25.799,20.729"/>
</g>
</svg>
