<?xml version="1.0" encoding="utf-8"?>
<!-- Generator: Adobe Illustrator 19.1.0, SVG Export Plug-In . SVG Version: 6.00 Build 0)  -->
<svg version="1.1" id="Layer_1" xmlns="http://www.w3.org/2000/svg" xmlns:xlink="http://www.w3.org/1999/xlink" x="0px" y="0px"
	 viewBox="0 0 32 32" style="enable-background:new 0 0 32 32;" xml:space="preserve">
<style type="text/css">
	.st0{fill:#FFFFFF;}
	.st1{fill:#27B8EB;stroke:#27B8EB;stroke-width:0.1523;stroke-miterlimit:10;}
</style>
<g>
	<g>
		<path class="st0" d="M8.9,26.24H8.82c-0.8,0-1.28-0.2-1.48-0.64c-0.08-0.16-0.2-0.56,0.12-1l1.08-1.48
			c0.12-0.16,0.2-0.28,0.24-0.36c-1.8-1.88-2.8-4.36-2.8-6.96c0-5.52,4.48-10.04,10.04-10.04c5.52,0,10,4.48,10,10.04
			c0,5.52-4.48,10-10,10c-1.08,0-2.16-0.16-3.16-0.52c-0.04,0-0.08,0.04-0.08,0.04c-0.4,0.2-0.76,0.32-1.12,0.44
			c-0.12,0.04-0.24,0.08-0.36,0.12l-0.16,0.04C10.42,26.16,9.7,26.24,8.9,26.24z M16.02,6.801c-4.998,0-9.03,4.074-9.03,9.03
			c0,2.394,0.924,4.662,2.646,6.384l0.084,0.084l0.042,0.126c0.168,0.378,0.21,0.756,0.084,1.134
			c-0.126,0.336-0.294,0.588-0.462,0.798l-0.672,0.882c0.63,0,1.218-0.084,1.722-0.21l0.21-0.042
			c0.084-0.042,0.21-0.042,0.294-0.084c0.336-0.126,0.672-0.252,0.966-0.378c0.168-0.084,0.462-0.168,0.756-0.21h0.252l0.126,0.042
			c0.966,0.336,1.974,0.504,2.982,0.504c4.998,0,9.03-4.032,9.03-9.03C25.05,10.875,20.976,6.801,16.02,6.801z"/>
	</g>
	<path class="st1" d="M16.163,12.217c0-0.396,0-0.792,0-1.158c0.244,0,0.487,0,0.731,0c0,0.366,0,0.762,0,1.127
		c0.305,0.061,0.579,0.091,0.853,0.152c0.213,0.061,0.427,0.152,0.64,0.274c0.03,0,0.061,0.061,0.061,0.091
		c-0.091,0.244-0.183,0.487-0.274,0.731c-0.274-0.183-0.579-0.274-0.914-0.335c-0.396-0.061-0.762-0.091-1.158,0.03
		c-0.396,0.122-0.64,0.396-0.701,0.792c-0.061,0.396,0.061,0.762,0.396,0.975c0.305,0.183,0.609,0.335,0.914,0.487
		c0.396,0.183,0.823,0.366,1.188,0.609c0.67,0.457,0.944,1.127,0.823,1.919c-0.091,0.762-0.548,1.28-1.249,1.554
		c-0.183,0.091-0.396,0.122-0.64,0.213c0,0.396,0,0.792,0,1.219c-0.274,0-0.518,0-0.792,0c0-0.396,0-0.792,0-1.158
		c-0.274-0.03-0.548-0.061-0.792-0.122c-0.335-0.061-0.64-0.183-0.944-0.366c-0.061-0.03-0.091-0.091-0.061-0.152
		c0.091-0.213,0.152-0.457,0.244-0.67c0.061,0.03,0.122,0.061,0.183,0.091c0.518,0.274,1.036,0.427,1.615,0.396
		c0.213,0,0.427-0.061,0.64-0.122c0.884-0.366,1.005-1.432,0.244-2.011c-0.305-0.244-0.64-0.396-1.005-0.518
		c-0.427-0.183-0.853-0.396-1.249-0.701c-0.884-0.731-0.792-2.102,0.091-2.773c0.274-0.213,0.609-0.366,0.975-0.457
		C16.041,12.248,16.071,12.217,16.163,12.217z"/>
</g>
</svg>
