<svg xmlns="http://www.w3.org/2000/svg" xmlns:xlink="http://www.w3.org/1999/xlink" width="38.994" height="38.994" viewBox="0 0 38.994 38.994">
  <defs>
    <clipPath id="clip-ic-social-twitter">
      <rect width="38.994" height="38.994"/>
    </clipPath>
  </defs>
  <g id="ic-social-twitter" clip-path="url(#clip-ic-social-twitter)">
    <g id="surface1">
      <path id="Path_10510" data-name="Path 10510" d="M27.5,8a19.5,19.5,0,1,0,19.5,19.5A19.5,19.5,0,0,0,27.5,8Zm15.6,19.5A15.6,15.6,0,1,1,27.5,11.9,15.6,15.6,0,0,1,43.095,27.5Z" transform="translate(-8 -8)" fill="#fff"/>
      <path id="Path_10511" data-name="Path 10511" d="M41.667,32.16v.524a10.786,10.786,0,0,1-10.85,10.85A11.116,11.116,0,0,1,25,41.817h.928a8.552,8.552,0,0,0,4.762-1.591,3.855,3.855,0,0,1-3.575-2.646,5.743,5.743,0,0,1,.663.133,2.92,2.92,0,0,0,1.061-.133,3.813,3.813,0,0,1-3.044-3.7,6.591,6.591,0,0,0,1.718.53A4.347,4.347,0,0,1,25.8,31.1a3.027,3.027,0,0,1,.53-1.851,10.737,10.737,0,0,0,7.8,3.966c0-.265-.133-.53-.133-.922a3.846,3.846,0,0,1,3.84-3.84,3.6,3.6,0,0,1,2.779,1.194,6.432,6.432,0,0,0,2.381-.928,3.887,3.887,0,0,1-1.718,2.116,7.291,7.291,0,0,0,2.248-.663A9.066,9.066,0,0,1,41.667,32.16Z" transform="translate(-14.764 -16.534)" fill="#fff"/>
    </g>
  </g>
</svg>
