<svg xmlns="http://www.w3.org/2000/svg" xmlns:xlink="http://www.w3.org/1999/xlink" viewBox="0 0 88 40">
  <defs>
    <style>
      .cls-1 {
        clip-path: url(#clip-verified-2);
      }

      .cls-2, .cls-5 {
        fill: #1b1918;
      }

      .cls-2, .cls-3, .cls-6 {
        fill-rule: evenodd;
      }

      .cls-3, .cls-4 {
        fill: #fcba00;
      }

      .cls-6 {
        fill: #9b9d9f;
      }
    </style>
    <clipPath id="clip-verified-2">
      <rect width="88" height="40"/>
    </clipPath>
  </defs>
  <g id="verified-2" class="cls-1">
    <g id="Group_706" data-name="Group 706" transform="translate(0 3)">
      <path id="Path_1470" data-name="Path 1470" class="cls-2" d="M200.7,46.789q1.566,0,3.119.011l4.162,8.033V46.789h2.5V59.522h-2.743L203.2,50.479v9.043h-2.5Zm0,0" transform="translate(-166.817 -38.89)"/>
      <path id="Path_1471" data-name="Path 1471" class="cls-2" d="M401.436,65.121a4.889,4.889,0,1,1-4.888,4.889,4.889,4.889,0,0,1,4.888-4.889Zm0,2.462a2.427,2.427,0,1,1-2.427,2.427,2.427,2.427,0,0,1,2.427-2.427Zm0,0" transform="translate(-329.602 -54.127)"/>
      <path id="Path_1472" data-name="Path 1472" class="cls-2" d="M268.092,65.121A4.889,4.889,0,1,1,263.2,70.01a4.889,4.889,0,0,1,4.889-4.889Zm0,2.462a2.427,2.427,0,1,1-2.427,2.427,2.427,2.427,0,0,1,2.427-2.427Zm0,0" transform="translate(-218.769 -54.127)"/>
      <path id="Path_1473" data-name="Path 1473" class="cls-2" d="M325.918,53.454v9.356H328.7V58.4a2.748,2.748,0,0,1,.186-1,3.158,3.158,0,0,1,1.435-1.822,1.193,1.193,0,0,1,.851-.219h1.748v5.065c.088,2.781,2.946,2.852,5.03,2.286l-.352-1.864c-1.192.276-2.04.356-2.04-1.138v-4.35h2v-1.97h-1.935V50.746h-2.216l-.633,2.638h-1.537a3.045,3.045,0,0,0-1.815.566,2.859,2.859,0,0,0-1.08,1.474l-.809-1.935-1.618-.035Zm0,0" transform="translate(-270.897 -42.179)"/>
      <path id="Path_1474" data-name="Path 1474" class="cls-2" d="M458.551,65.607v9.445h2.635V68.8c0-.874,2.106-1.656,2.984-.582a.789.789,0,0,1,.211.7V75h2.681V68.5a3.389,3.389,0,0,0-.808-2.035,2.842,2.842,0,0,0-3-.96,4.854,4.854,0,0,0-2.536,1.573l-.56-1.446-1.609-.024Zm0,0" transform="translate(-381.138 -54.379)"/>
      <path id="Path_1475" data-name="Path 1475" class="cls-2" d="M509.393,66.589h.318v-.218h-.856v.218h.318v1.017h.22Zm1.459-.218h-.319l-.187.974h0l-.191-.974h-.321v1.236h.205V66.574h0l.192,1.033h.216l.2-1.033h0v1.033h.206Zm0,0" transform="translate(-422.95 -55.166)"/>
      <path id="Path_1476" data-name="Path 1476" class="cls-3" d="M14.723,56.425A14.723,14.723,0,1,1,29.446,41.7,14.743,14.743,0,0,1,14.723,56.425Zm0-24.787a10.061,10.061,0,1,0,7.118,2.946,10.005,10.005,0,0,0-7.118-2.946Zm0,0" transform="translate(0 -22.425)"/>
      <rect id="Rectangle_216" data-name="Rectangle 216" class="cls-4" width="1.149" height="1.147" transform="translate(30.761 2.288)"/>
      <rect id="Rectangle_217" data-name="Rectangle 217" class="cls-4" width="1.149" height="1.15" transform="translate(30.761)"/>
      <rect id="Rectangle_218" data-name="Rectangle 218" class="cls-4" width="1.073" height="1.121" transform="translate(27.531 3.427)"/>
      <rect id="Rectangle_219" data-name="Rectangle 219" class="cls-5" width="1.081" height="1.072" transform="translate(25.406 5.628)"/>
      <rect id="Rectangle_220" data-name="Rectangle 220" class="cls-5" width="1.202" height="1.08" transform="translate(28.604 4.548)"/>
      <rect id="Rectangle_221" data-name="Rectangle 221" class="cls-5" width="1.076" height="1.027" transform="translate(24.33 4.602)"/>
      <rect id="Rectangle_222" data-name="Rectangle 222" class="cls-5" width="1.073" height="1.072" transform="translate(27.531 5.628)"/>
      <rect id="Rectangle_223" data-name="Rectangle 223" class="cls-5" width="1.135" height="1.138" transform="translate(29.626 1.15)"/>
      <rect id="Rectangle_224" data-name="Rectangle 224" class="cls-5" width="2.095" height="1.14" transform="translate(27.531 2.288)"/>
      <rect id="Rectangle_225" data-name="Rectangle 225" class="cls-5" width="1.044" height="2.201" transform="translate(26.487 3.427)"/>
      <path id="Path_1477" data-name="Path 1477" class="cls-2" d="M67.359,39.687v1.08H66.278v-1.08H64.485v.779h-.961v.96H64.6V42.5H63.523v-1.07h-1.14V43.1H61.3v1.07h-.716V45.25H59.8a60.39,60.39,0,0,0-3.771,7.084c-2.414-3.361-4.289-4.693-5.766-5.175-.8-.24-1.757.627-.434,1.993a24.633,24.633,0,0,1,4.919,8.316c.488,1.163,2.679,1.343,3.12.16A35.831,35.831,0,0,1,61.765,50V48.8h.857V47.719h.9V46.467H64.6V45.261H63.512v-1.1H64.6v1.1h1.066l0-1.087h.855v-1.31h.96v-.9H68.4V39.687Zm0,0" transform="translate(-40.872 -32.987)"/>
      <path id="Path_1478" data-name="Path 1478" class="cls-6" d="M271.424,144.771l-.3.479a3.324,3.324,0,0,0,.97.514,3.837,3.837,0,0,0,1.246.2,2.654,2.654,0,0,0,1.708-.505,1.71,1.71,0,0,0,.612-1.374,1.661,1.661,0,0,0-.584-1.335,4.78,4.78,0,0,0-1.469-.764,3.83,3.83,0,0,1-1.144-.575,1.011,1.011,0,0,1-.372-.832,1.026,1.026,0,0,1,.336-.829,1.651,1.651,0,0,1,1.093-.3,3.2,3.2,0,0,1,1.613.408l.24-.527a3.66,3.66,0,0,0-.719-.3,4.122,4.122,0,0,0-1.162-.143,2.389,2.389,0,0,0-1.544.453,1.547,1.547,0,0,0-.553,1.241,1.652,1.652,0,0,0,.532,1.292,4.285,4.285,0,0,0,1.341.737,4.859,4.859,0,0,1,1.2.6,1.122,1.122,0,0,1,.456.952,1.1,1.1,0,0,1-.428.912,1.862,1.862,0,0,1-1.142.318,3.21,3.21,0,0,1-1.178-.218,3.8,3.8,0,0,1-.749-.4Zm0,0" transform="translate(-225.35 -115.44)"/>
      <path id="Path_1479" data-name="Path 1479" class="cls-6" d="M300.641,151.109h.749l1.346,4.363,1.287-4.363h.728L303,156.637a1.627,1.627,0,0,1-1.659,1.377,1.842,1.842,0,0,1-.547-.092l.091-.546a2.122,2.122,0,0,0,.4.05,1.135,1.135,0,0,0,1.133-.951Zm0,0" transform="translate(-249.887 -125.599)"/>
      <path id="Path_1480" data-name="Path 1480" class="cls-6" d="M335.579,150.574c1,0,1.255.84,1.255,1.659v3.493h-.729v-3.483c0-.535-.081-1.043-.749-1.043a2.1,2.1,0,0,0-1.406.77v3.756h-.73v-3.483c0-.536-.081-1.043-.75-1.043a2.2,2.2,0,0,0-1.407.78v3.746h-.729v-5.062h.415l.212.83a2.464,2.464,0,0,1,1.731-.92,1.138,1.138,0,0,1,1.143.891,2.453,2.453,0,0,1,1.741-.891Zm0,0" transform="translate(-274.569 -125.154)"/>
      <path id="Path_1481" data-name="Path 1481" class="cls-6" d="M378.521,153.044a3.9,3.9,0,0,0-2.106.789.773.773,0,0,0-.172.546.748.748,0,0,0,.86.83,2.406,2.406,0,0,0,1.418-.566Zm0-.739c0-.739-.223-1.114-1.023-1.114a3.077,3.077,0,0,0-1.437.456l-.273-.5a3.009,3.009,0,0,1,1.771-.576c1.225,0,1.691.678,1.691,1.781v3.371h-.415s-.213-.618-.221-.618a2.31,2.31,0,0,1-1.58.7,1.4,1.4,0,0,1-1.529-1.388,1.319,1.319,0,0,1,.708-1.235,7.308,7.308,0,0,1,2.309-.626v-.253Zm0,0" transform="translate(-312.111 -125.154)"/>
      <path id="Path_1482" data-name="Path 1482" class="cls-6" d="M407.3,150.664h.414l.213.861a2.455,2.455,0,0,1,1.832-.951c1.074,0,1.356.84,1.356,1.659v3.493h-.727v-3.483c0-.535-.123-1.043-.851-1.043a2.21,2.21,0,0,0-1.508.811v3.715H407.3Zm0,0" transform="translate(-338.54 -125.154)"/>
      <path id="Path_1483" data-name="Path 1483" class="cls-6" d="M435.875,144.509v-.526h.779l.213-1.447h.5v1.447H438.5v.526h-1.133V147.8c0,.485.081.758.567.758a2.1,2.1,0,0,0,.588-.1l.11.506a1.783,1.783,0,0,1-.729.163,1.112,1.112,0,0,1-1.265-1.276v-3.341Zm0,0" transform="translate(-362.291 -118.472)"/>
      <path id="Path_1484" data-name="Path 1484" class="cls-6" d="M459.317,152.872c-.04-1.153-.425-1.741-1.184-1.741-.689,0-1.165.546-1.225,1.741Zm-1.062,2.348a2.275,2.275,0,0,0,1.388-.505l.313.425a2.4,2.4,0,0,1-1.761.669c-1.265,0-2.065-1.012-2.065-2.612,0-1.569.789-2.621,1.994-2.621,1.234,0,1.944.911,1.944,2.662v.162H456.9c.051,1.184.445,1.821,1.356,1.821Zm0,0" transform="translate(-379.125 -125.154)"/>
      <path id="Path_1485" data-name="Path 1485" class="cls-6" d="M484.75,153.236c0-1.245.506-2.662,2.055-2.662a2.293,2.293,0,0,1,1.548.526l-.3.486a2.055,2.055,0,0,0-1.245-.424c-1.155,0-1.285,1.224-1.285,2.084,0,.81.162,1.973,1.325,1.973a1.794,1.794,0,0,0,1.256-.505l.344.415a2.174,2.174,0,0,1-1.639.678c-1.508,0-2.055-1.356-2.055-2.571Zm0,0" transform="translate(-402.915 -125.154)"/>
      <path id="Path_1486" data-name="Path 1486" class="cls-6" d="M228.91,151.109h.749l1.347,4.363,1.286-4.363h.728l-1.751,5.528a1.627,1.627,0,0,1-1.659,1.377,1.848,1.848,0,0,1-.547-.092l.091-.546a2.12,2.12,0,0,0,.4.05,1.136,1.136,0,0,0,1.134-.951Zm0,0" transform="translate(-190.265 -125.599)"/>
      <path id="Path_1487" data-name="Path 1487" class="cls-6" d="M204.688,142.888c.013.1.022.209.028.315s.01.22.01.32c0,.066,0,.131-.005.2s-.009.127-.017.189-.017.122-.028.181-.024.118-.039.174-.031.111-.049.163-.038.1-.061.152-.046.095-.071.14-.053.088-.082.129h0a1.308,1.308,0,0,1-.093.115,1.144,1.144,0,0,1-.1.1,1.3,1.3,0,0,1-.115.088,1.162,1.162,0,0,1-.126.074,1.126,1.126,0,0,1-.135.059,1.251,1.251,0,0,1-.146.042,1.289,1.289,0,0,1-.156.025,1.488,1.488,0,0,1-.166.009c-.038,0-.075,0-.111,0s-.072-.007-.108-.012-.069-.013-.1-.022-.053-.015-.079-.023l-.005,0h0l-.012,0-.093-.035c-.03-.012-.059-.025-.088-.038s-.057-.028-.084-.043-.055-.03-.08-.046h0c-.026-.016-.05-.032-.073-.049s-.046-.034-.069-.051-.043-.035-.063-.053-.04-.036-.059-.055l-.053-.055c-.017-.018-.033-.036-.048-.053l-.042-.05-.037-.048-.005-.008v-2.628l0,0,0,0c.04-.039.083-.076.125-.112s.088-.07.134-.1l0,0c.045-.032.092-.061.14-.088s.1-.055.152-.081.106-.046.16-.065a1.533,1.533,0,0,1,.165-.046,1.464,1.464,0,0,1,.171-.028,1.559,1.559,0,0,1,.176-.009c.038,0,.076,0,.115,0s.077.008.117.014.078.014.117.023.078.02.117.033a.866.866,0,0,1,.115.045.9.9,0,0,1,.113.061,1.162,1.162,0,0,1,.109.076,1.327,1.327,0,0,1,.1.091,1.029,1.029,0,0,1,.1.108,1.291,1.291,0,0,1,.089.127,1.375,1.375,0,0,1,.079.146c.025.051.048.106.07.164a1.286,1.286,0,0,1,.052.192c.017.08.03.169.042.263Zm.723,1.172c.015-.092.025-.188.032-.288s.011-.2.011-.311c0-.086,0-.183-.007-.283s-.011-.2-.02-.291-.018-.169-.03-.246a1.852,1.852,0,0,0-.036-.184c-.015-.059-.032-.116-.049-.172s-.037-.108-.057-.159-.042-.1-.065-.146-.047-.091-.073-.133-.053-.084-.08-.123-.055-.076-.085-.112-.059-.07-.091-.1-.063-.062-.1-.09-.068-.057-.1-.083-.069-.051-.1-.074-.07-.046-.106-.066-.071-.039-.107-.056-.073-.034-.11-.049-.073-.028-.109-.041-.073-.023-.11-.033-.074-.019-.11-.026l-.109-.018-.105-.013c-.034,0-.069-.007-.1-.008s-.066,0-.1,0c-.069,0-.137,0-.2.009s-.129.015-.191.027a1.833,1.833,0,0,0-.179.045,1.6,1.6,0,0,0-.169.063c-.054.024-.106.05-.157.079s-.1.06-.147.094-.093.069-.137.107-.086.08-.127.123l0,0,0,0h-.056v-2.669h-.7v6.986h.52l.153-.5,0-.01,0-.01h.052l0,.007,0,.007a.322.322,0,0,0,.022.033h0l.029.038.008.011h0l.028.034.044.05c.015.017.032.035.049.051s.037.034.058.052.042.034.066.051.047.034.072.05h0c.025.017.052.033.08.048s.058.031.09.046.064.029.1.043.063.024.1.036h0l.012,0c.037.012.075.023.115.032s.081.016.123.023.088.011.133.013.093,0,.142,0a2,2,0,0,0,.385-.037c.063-.012.125-.028.187-.047s.119-.039.177-.063l.005,0a1.849,1.849,0,0,0,.177-.084,1.73,1.73,0,0,0,.322-.226,1.873,1.873,0,0,0,.147-.142l0,0a1.837,1.837,0,0,0,.13-.158,2.1,2.1,0,0,0,.121-.182c.038-.065.074-.132.108-.2s.065-.146.094-.224.054-.159.075-.244.04-.174.054-.266h0Zm0,0" transform="translate(-167.415 -115.398)"/>
    </g>
  </g>
</svg>
