<svg xmlns="http://www.w3.org/2000/svg" xmlns:xlink="http://www.w3.org/1999/xlink" viewBox="0 0 90 40">
  <defs>
    <style>
      .cls-1 {
        clip-path: url(#clip-verified-3);
      }

      .cls-2 {
        fill: #c7c8c9;
      }

      .cls-3 {
        fill: #d9d9da;
      }

      .cls-4 {
        fill: #e7e6e7;
      }

      .cls-5 {
        fill: #e1e1e1;
      }

      .cls-6 {
        fill: #2188c9;
      }

      .cls-7 {
        fill: #020202;
      }

      .cls-8 {
        fill: #010201;
      }

      .cls-9 {
        fill: #0f68b3;
      }

      .cls-10 {
        fill: #1268b3;
      }

      .cls-11 {
        fill: #1568b3;
      }

      .cls-12 {
        fill: #1168b3;
      }

      .cls-13 {
        fill: #1b69b4;
      }

      .cls-14 {
        fill: #0e67b2;
      }

      .cls-15 {
        fill: #a7a4a4;
      }

      .cls-16 {
        fill: #1f6ab4;
      }

      .cls-17 {
        fill: #266cb5;
      }

      .cls-18 {
        fill: #fff;
      }

      .cls-19 {
        fill: #1068b3;
      }

      .cls-20 {
        fill: #fcfcfe;
      }

      .cls-21 {
        fill: #fdfdfe;
      }

      .cls-22 {
        fill: #f7f8fc;
      }

      .cls-23 {
        fill: #1368b3;
      }

      .cls-24 {
        fill: #fdfefe;
      }

      .cls-25 {
        fill: #1e6ab4;
      }

      .cls-26 {
        fill: #f3f4fa;
      }
    </style>
    <clipPath id="clip-verified-3">
      <rect width="90" height="40"/>
    </clipPath>
  </defs>
  <g id="verified-3" class="cls-1">
    <g id="Group_715" data-name="Group 715" transform="translate(-0.226 2.772)">
      <path id="Path_1489" data-name="Path 1489" class="cls-2" d="M19.21.35A15.5,15.5,0,0,1,24.1,1.67a13.69,13.69,0,0,1,1.366.692c.167.1.605.084.406.429-.159.275-.339.667-.872.356A15.284,15.284,0,0,0,15.96,1.167,15.746,15.746,0,0,0,6.849,4.916a15.68,15.68,0,0,0-4.916,7.271,15.437,15.437,0,0,0,.455,11.275,15.509,15.509,0,0,0,11.979,9.592,15.407,15.407,0,0,0,12.874-3.221,15.492,15.492,0,0,0,5.941-10.52,15.181,15.181,0,0,0-.589-6.874c-.178-.52.145-.588.445-.707.416-.165.352.239.407.419a17,17,0,0,1-7.239,19.524,16.276,16.276,0,0,1-6.827,2.412,16.934,16.934,0,0,1-17-8.565,17.136,17.136,0,0,1-2-5.861c-.023-.149-.019-.3-.028-.452-.129-.172.031-.4-.109-.57V15.8c.119-.184.032-.388.059-.581A12.208,12.208,0,0,1,1.6,10.16a16.883,16.883,0,0,1,8.585-8.573A11.9,11.9,0,0,1,15.476.3,2.241,2.241,0,0,0,16.253.24h2.385C18.809.381,19.037.22,19.21.35Z" transform="translate(-0.013 -0.012)"/>
      <path id="Path_1491" data-name="Path 1491" class="cls-3" d="M32.385.347A1.014,1.014,0,0,0,32.392.24h.8C32.944.454,32.653.317,32.385.347Z" transform="translate(-16.946 -0.012)"/>
      <path id="Path_1492" data-name="Path 1492" class="cls-4" d="M.24,31.916l.108,0c-.018.194.08.409-.108.571Z" transform="translate(-0.013 -16.696)"/>
      <path id="Path_1493" data-name="Path 1493" class="cls-5" d="M39.691.35C39.5.33,39.28.43,39.12.24h.568A.856.856,0,0,0,39.691.35Z" transform="translate(-20.494 -0.012)"/>
      <path id="Path_1494" data-name="Path 1494" class="cls-5" d="M.24,39.12c.19.16.09.377.11.571-.037,0-.073,0-.11,0Z" transform="translate(-0.013 -20.493)"/>
      <path id="Path_1495" data-name="Path 1495" class="cls-6" d="M18.688,3.787A15.753,15.753,0,0,1,26.493,5.7c.328.179.411.317.26.69A5.332,5.332,0,0,0,27.524,12a5.557,5.557,0,0,0,5.463,2.166c.432-.062.656-.028.8.457A15.464,15.464,0,1,1,15.955,4.083,12.419,12.419,0,0,1,18.688,3.787Z" transform="translate(-1.771 -1.878)"/>
      <path id="Path_1496" data-name="Path 1496" class="cls-7" d="M89.849,18.758c.164,0,.276.009.388,0,.465-.043.748,0,.859.613.195,1.074,1.553,1.741,2.874,1.525a2.706,2.706,0,0,0,1.353-.527,1.278,1.278,0,0,0-.154-2.211,7.737,7.737,0,0,0-2.207-.653,6.965,6.965,0,0,1-1.6-.53,2.134,2.134,0,0,1-.283-3.715A4.082,4.082,0,0,1,95.28,13a2.491,2.491,0,0,1,1.387,2.194c.006.07.016.193-.011.2a2.786,2.786,0,0,1-.893.057c-.2.016-.2-.142-.212-.265-.12-1.322-1.568-1.835-2.783-1.618a2.811,2.811,0,0,0-.593.18,1.3,1.3,0,0,0-.9,1.188,1.222,1.222,0,0,0,.826,1.172,9.248,9.248,0,0,0,2.223.615,4.4,4.4,0,0,1,1.732.648,2.3,2.3,0,0,1-.246,3.889,4.628,4.628,0,0,1-4.452.107C90.416,20.921,90.063,20.231,89.849,18.758Z" transform="translate(-47.217 -6.491)"/>
      <path id="Path_1497" data-name="Path 1497" class="cls-7" d="M150.162,20.487a3.354,3.354,0,0,1-2.995,1.677c-2.042-.019-3.068-.977-3.11-3.039-.036-1.852.008-3.706-.018-5.558-.008-.551.353-.354.608-.376.277-.024.533-.083.522.4-.036,1.644-.016,3.289-.011,4.934a5.058,5.058,0,0,0,.053.79c.2,1.237.6,1.688,1.676,1.9a2.38,2.38,0,0,0,2.62-1.129,4.38,4.38,0,0,0,.561-2.333c0-1.361.026-2.723-.014-4.083-.015-.5.218-.488.571-.486s.571-.019.565.48c-.032,2.59-.028,5.18,0,7.77,0,.444-.128.521-.533.517-.383,0-.553-.08-.5-.493A8.665,8.665,0,0,0,150.162,20.487Z" transform="translate(-75.764 -6.825)"/>
      <path id="Path_1498" data-name="Path 1498" class="cls-8" d="M60.363,11.09c-1.211-1.5-2.393-2.974-3.581-4.439a.29.29,0,0,1,0-.438c.254-.3.487-.625.747-.962.821.65,1.649,1.276,2.44,1.946.311.264.455.261.727-.063,1.334-1.591,2.7-3.155,4.056-4.726a.475.475,0,0,1,.112.07c.769.994.769,1,.062,2.028q-2.1,3.057-4.2,6.113C60.621,10.77,60.5,10.911,60.363,11.09Z" transform="translate(-29.744 -1.153)"/>
      <path id="Path_1499" data-name="Path 1499" class="cls-7" d="M125.015,17.24c.043-1.845.611-3.4,2.4-4.264a4.176,4.176,0,0,1,4.311.544,2.742,2.742,0,0,1,.8,1.278c.291,1.051.272.812-.652.856a.32.32,0,0,1-.361-.274,2.241,2.241,0,0,0-2.231-1.811,2.778,2.778,0,0,0-2.713,1.688,4.47,4.47,0,0,0,.607,4.864,2.517,2.517,0,0,0,2.636.726,2.452,2.452,0,0,0,1.782-2c.149-.731.669-.352.979-.35.345,0,.148.363.1.562a3.375,3.375,0,0,1-3,2.8,3.93,3.93,0,0,1-4.293-2.509A4.922,4.922,0,0,1,125.015,17.24Z" transform="translate(-65.738 -6.53)"/>
      <path id="Path_1500" data-name="Path 1500" class="cls-9" d="M94.99,42.564c0,1.3,0,1.3-1.309,1.479a4.041,4.041,0,0,1-1.79-.147,2.231,2.231,0,0,1-1.651-2.07,2.37,2.37,0,0,1,1.4-2.382,4.382,4.382,0,0,1,2.828-.2c.357.076.328.283.218.541-.091.213-.011.561-.471.413a2.844,2.844,0,0,0-1.452-.089,1.43,1.43,0,0,0-1.273,1.483,1.473,1.473,0,0,0,1.337,1.5c.2.027.414,0,.619.019.44.035.406-.254.417-.552s-.073-.478-.408-.427c-.435.066-.474-.173-.483-.53-.01-.415.225-.407.505-.395.057,0,.114,0,.17,0C94.99,41.2,94.99,41.2,94.99,42.564Z" transform="translate(-47.42 -20.485)"/>
      <path id="Path_1501" data-name="Path 1501" class="cls-7" d="M163.967,14.8a3.42,3.42,0,0,1,2.926-1.87c.277-.01.483,0,.391.324-.079.276.313.766-.354.8a2.835,2.835,0,0,0-2.687,1.976,2.919,2.919,0,0,0-.175,1.054c.01,1.436-.02,2.873.017,4.308.014.523-.294.411-.575.406s-.584.135-.578-.4q.042-3.968,0-7.936c0-.461.222-.423.513-.409.263.012.582-.106.532.388C163.931,13.889,163.967,14.345,163.967,14.8Z" transform="translate(-85.715 -6.694)"/>
      <path id="Path_1502" data-name="Path 1502" class="cls-9" d="M139.383,39.055a6.708,6.708,0,0,1,.677.054c.655.116.689.213.461.852-.09.252-.182.261-.405.176a1.97,1.97,0,0,0-1.058-.125c-.226.041-.464.123-.5.392-.03.248.176.365.369.447.347.146.711.253,1.053.408a1.376,1.376,0,0,1,.926,1.359,1.445,1.445,0,0,1-1.077,1.316,3.525,3.525,0,0,1-2.225-.053c-.57-.183-.152-.519-.14-.777.018-.4.273-.238.48-.158a2.464,2.464,0,0,0,1.113.156c.269-.024.55-.074.61-.4s-.19-.462-.447-.561c-.211-.081-.428-.148-.641-.224q-1.388-.495-1.208-1.6a1.607,1.607,0,0,1,1.665-1.249c.113,0,.227,0,.34,0C139.383,39.064,139.383,39.06,139.383,39.055Z" transform="translate(-72.219 -20.459)"/>
      <path id="Path_1503" data-name="Path 1503" class="cls-10" d="M160.991,42.414a2.11,2.11,0,0,1,.946-.509,1.294,1.294,0,0,1,1.581,1.082,12.194,12.194,0,0,1,.077,2.207c.011.433-.331.256-.537.278s-.464.056-.452-.313c.018-.548.006-1.1,0-1.646,0-.474-.194-.82-.7-.864-.447-.039-.792.36-.8.9s-.02,1.06,0,1.589c.018.412-.256.341-.491.335s-.512.1-.506-.318c.015-.964,0-1.93,0-2.894,0-.153-.015-.314.218-.3C160.637,41.969,161.028,41.824,160.991,42.414Z" transform="translate(-84.228 -21.948)"/>
      <path id="Path_1504" data-name="Path 1504" class="cls-11" d="M101.553,55.008a2.023,2.023,0,0,1-1.212-.159,1.533,1.533,0,0,0-1.616.125.744.744,0,0,0-.053,1.281,1.554,1.554,0,0,0,2.2-.343c-.4,0-.752,0-1.1,0-.162,0-.326-.045-.322-.238s.171-.229.332-.229c.6,0,1.21.007,1.814,0,.291-.006.3.167.265.369a1.148,1.148,0,0,1-.664.8,3.255,3.255,0,0,1-3.05.012,1.044,1.044,0,0,1-.014-1.969,3.26,3.26,0,0,1,3.049,0,1.51,1.51,0,0,1,.281.19C101.5,54.873,101.511,54.931,101.553,55.008Z" transform="translate(-51.216 -28.477)"/>
      <path id="Path_1505" data-name="Path 1505" class="cls-12" d="M107.945,55.66c-.115.388-.217.671-.28.962-.068.318-.238.411-.557.4-.346-.009-.372-.143-.28-.42.214-.644.418-1.291.621-1.939.04-.128.059-.268.219-.3.177-.031.277.085.363.218l.833,1.294c.287-.442.526-.818.775-1.187.1-.149.163-.368.411-.323.212.038.217.236.267.393.189.592.389,1.182.555,1.782.037.135.3.386-.038.446-.238.043-.59.18-.716-.225-.1-.335-.2-.673-.322-1.1-.224.353-.4.639-.583.917-.23.343-.473.331-.7-.007C108.339,56.31,108.177,56.034,107.945,55.66Z" transform="translate(-56.137 -28.524)"/>
      <path id="Path_1506" data-name="Path 1506" class="cls-13" d="M134.489,41.165c0,.719-.022,1.44.009,2.157.017.386-.157.436-.473.424-.28-.012-.509.02-.5-.4q.031-2.186,0-4.372c-.006-.417.224-.382.5-.395.318-.014.489.039.472.424C134.467,39.726,134.489,40.446,134.489,41.165Z" transform="translate(-70.223 -20.209)"/>
      <path id="Path_1507" data-name="Path 1507" class="cls-14" d="M103.116,41.189c0,.7-.014,1.4.006,2.095.009.323-.046.491-.425.459-.3-.025-.529.016-.519-.43q.045-2.151,0-4.3c-.009-.444.218-.407.518-.432.376-.03.436.133.426.459C103.1,39.754,103.116,40.471,103.116,41.189Z" transform="translate(-53.712 -20.206)"/>
      <path id="Path_1508" data-name="Path 1508" class="cls-15" d="M80.7,35.5V5.445h.055V35.5Z" transform="translate(-42.399 -2.754)"/>
      <path id="Path_1509" data-name="Path 1509" class="cls-9" d="M147.535,43.825c0,.415-.019.831.006,1.245.022.352-.069.491-.459.492s-.515-.11-.5-.508c.03-.866.026-1.735,0-2.6-.01-.366.131-.438.46-.436s.532.042.5.452C147.508,42.918,147.535,43.373,147.535,43.825Z" transform="translate(-77.102 -22.018)"/>
      <path id="Path_1510" data-name="Path 1510" class="cls-16" d="M147.558,39.27a.522.522,0,0,1-.522.55.5.5,0,0,1-.588-.526.487.487,0,0,1,.536-.52A.531.531,0,0,1,147.558,39.27Z" transform="translate(-77.032 -20.311)"/>
      <path id="Path_1511" data-name="Path 1511" class="cls-17" d="M94.648,57.738c.245-.124.029-.7.408-.569.26.092-.016.468-.07.711a3.45,3.45,0,0,1-.25.743.3.3,0,0,1-.427.15c-.186-.126-.013-.2.066-.33.169-.273-.115-.521-.145-.791-.019-.171-.318-.4-.019-.5s.24.252.322.417C94.563,57.629,94.544,57.719,94.648,57.738Z" transform="translate(-49.445 -29.982)"/>
      <path id="Path_1512" data-name="Path 1512" class="cls-18" d="M28.988,33.683q-3.007,0-6.014,0c-.772,0-.928-.157-.928-.933q0-4.255,0-8.51c0-.747.185-.958.939-.919.485.025.542-.171.547-.584a14.223,14.223,0,0,1,.1-3,5.528,5.528,0,0,1,10.933.985c.027.717.03,1.437.021,2.155,0,.3.061.431.4.438.968.018,1.053.124,1.053,1.1q0,4.141,0,8.283c0,.851-.137.988-.988.988Q32.023,33.686,28.988,33.683Z" transform="translate(-11.499 -7.974)"/>
      <g id="Group_707" data-name="Group 707" transform="translate(81.653 6.096)">
        <path id="Path_1513" data-name="Path 1513" class="cls-7" d="M173.822,17.591c.983.011,1.966,0,2.95,0,.964,0,1.929-.022,2.893.01.418.014.515-.131.485-.514a9.212,9.212,0,0,0-.241-1.562,3.786,3.786,0,0,0-7.273-.3,6.54,6.54,0,0,0-.321,2.451c.061,2.051,1.139,4.373,4.23,4.212a3.533,3.533,0,0,0,3.467-2.77c.027-.117.107-.257-.024-.365-.24-.2-.99.043-1.113.353a2.585,2.585,0,0,1-1.764,1.757c-2.153.555-3.547-1.068-3.675-2.911C173.411,17.622,173.552,17.588,173.822,17.591Zm-.382-1.145a3.093,3.093,0,0,1,2.717-2.867,2.893,2.893,0,0,1,2.851,2.856c.033.311-.2.213-.338.214-.813.008-1.625,0-2.438,0s-1.625,0-2.438,0C173.658,16.647,173.453,16.755,173.44,16.446Z" transform="translate(-172.308 -12.64)"/>
        <path id="Path_1514" data-name="Path 1514" class="cls-18" d="M175.055,17.691c.813.009,1.625,0,2.438,0s1.625,0,2.438,0c.142,0,.371.1.338-.214a2.893,2.893,0,0,0-2.851-2.856,3.092,3.092,0,0,0-2.717,2.867C174.712,17.8,174.917,17.69,175.055,17.691Z" transform="translate(-173.567 -13.683)"/>
      </g>
      <g id="Group_708" data-name="Group 708" transform="translate(50.625 6.091)">
        <path id="Path_1515" data-name="Path 1515" class="cls-7" d="M114.444,18.733a.968.968,0,0,0-1.1.388,2.59,2.59,0,0,1-1.778,1.744c-2.026.52-3.5-.927-3.664-2.938-.025-.3.1-.344.359-.342,1,.01,2.006,0,3.008,0,.946,0,1.893-.027,2.837.011.451.018.529-.139.507-.547a6.223,6.223,0,0,0-.38-1.99,3.474,3.474,0,0,0-3.116-2.42,3.525,3.525,0,0,0-3.687,1.891,5.962,5.962,0,0,0-.2,5.139,3.331,3.331,0,0,0,2.58,2.142,5.312,5.312,0,0,0,1.64.036,3.387,3.387,0,0,0,3.053-2.826C114.523,18.926,114.586,18.815,114.444,18.733Zm-6.5-2.466a3.289,3.289,0,0,1,1.711-2.458,2.676,2.676,0,0,1,3.7,1.96c0,.018,0,.038.009.056.19.822.19.822-.634.822h-2.1c-.794,0-1.588-.015-2.382.007C107.922,16.663,107.869,16.57,107.942,16.267Z" transform="translate(-106.74 -12.629)"/>
        <path id="Path_1516" data-name="Path 1516" class="cls-18" d="M109.554,17.7c.793-.022,1.588-.007,2.382-.007h2.1c.824,0,.824,0,.634-.822,0-.018,0-.038-.009-.056a2.676,2.676,0,0,0-3.7-1.96,3.288,3.288,0,0,0-1.711,2.458C109.174,17.613,109.228,17.706,109.554,17.7Z" transform="translate(-108.046 -13.672)"/>
      </g>
      <g id="Group_709" data-name="Group 709" transform="translate(71.182 19.931)">
        <path id="Path_1517" data-name="Path 1517" class="cls-19" d="M153.921,42.412c.021-.4-.176-.621-.444-.437-.536.368-.933-.049-1.39-.092a1.646,1.646,0,0,0-.338,0,1.7,1.7,0,0,0-1.488,1.283,1.826,1.826,0,0,0,.6,1.987,1.7,1.7,0,0,0,2.042-.086c.109.993-.61,1.436-1.741,1.079-.2-.062-.415-.3-.55.137-.12.389.022.518.345.6a3.77,3.77,0,0,0,1.008.113c1.244-.032,1.818-.52,1.908-1.757C153.939,44.3,153.873,43.353,153.921,42.412Zm-1.843,2.343a1.088,1.088,0,0,1,0-2.156c.578-.012.861.339.86,1.066C152.933,44.376,152.632,44.759,152.079,44.755Z" transform="translate(-150.18 -41.875)"/>
        <path id="Path_1518" data-name="Path 1518" class="cls-20" d="M153.141,43.406a1.088,1.088,0,0,0,0,2.156c.554,0,.855-.378.856-1.089C154,43.745,153.719,43.394,153.141,43.406Z" transform="translate(-151.247 -42.681)"/>
      </g>
      <g id="Group_710" data-name="Group 710" transform="translate(54.786 18.364)">
        <path id="Path_1519" data-name="Path 1519" class="cls-9" d="M119.1,40.826a1.537,1.537,0,0,0-1.237-.695,1.916,1.916,0,0,0-1.351.491c0-.565-.014-1.037,0-1.509.013-.336.006-.558-.456-.549-.422.008-.488.158-.483.53.018,1.38,0,2.76.006,4.14,0,.178-.189.452.168.485.292.026.67.143.666-.388a1.773,1.773,0,0,0,2.434.015A2.148,2.148,0,0,0,119.1,40.826Zm-1.641,2.237a.926.926,0,0,1-.948-1.032c-.01-.724.344-1.159.944-1.16a1.1,1.1,0,0,1,0,2.191Z" transform="translate(-115.533 -38.564)"/>
        <path id="Path_1520" data-name="Path 1520" class="cls-21" d="M118.543,43.44c-.6,0-.954.436-.944,1.16a.926.926,0,0,0,.948,1.032,1.1,1.1,0,0,0,0-2.191Z" transform="translate(-116.621 -41.132)"/>
      </g>
      <g id="Group_711" data-name="Group 711" transform="translate(50.181 19.926)">
        <path id="Path_1521" data-name="Path 1521" class="cls-19" d="M107.786,41.866A1.807,1.807,0,0,0,105.8,43.7a1.757,1.757,0,0,0,1.886,1.859,1.827,1.827,0,0,0,1.993-1.84A1.76,1.76,0,0,0,107.786,41.866ZM107.7,44.88a1.079,1.079,0,0,1-.951-1.147,1.054,1.054,0,0,1,.981-1.167c.586-.006.953.444.948,1.165C108.672,44.432,108.277,44.9,107.7,44.88Z" transform="translate(-105.801 -41.866)"/>
        <path id="Path_1522" data-name="Path 1522" class="cls-21" d="M108.781,43.346a1.055,1.055,0,0,0-.981,1.167,1.079,1.079,0,0,0,.951,1.147c.579.016.974-.448.979-1.149C109.733,43.79,109.367,43.34,108.781,43.346Z" transform="translate(-106.854 -42.645)"/>
      </g>
      <g id="Group_712" data-name="Group 712" transform="translate(59.135 19.927)">
        <path id="Path_1523" data-name="Path 1523" class="cls-12" d="M127.927,44.977c.009-.245,0-.491,0-.736h-.011c0-.34.02-.681,0-1.02a1.292,1.292,0,0,0-.945-1.272,2.859,2.859,0,0,0-1.671.1c-.218.074-.354.156-.252.447s.243.259.468.179a1.428,1.428,0,0,1,1.1-.056c.178.08.346.214.3.429-.045.194-.252.121-.388.127a2.611,2.611,0,0,0-1.194.309,1.1,1.1,0,0,0,.548,2.082,1.466,1.466,0,0,0,.91-.257c.144-.1.2-.143.33.045.177.247.5.141.732.079C128.039,45.381,127.921,45.136,127.927,44.977Zm-1.747-.094a.469.469,0,0,1-.5-.433c-.046-.367.386-.639,1-.679.247-.016.34.058.331.307A.828.828,0,0,1,126.18,44.883Z" transform="translate(-124.723 -41.866)"/>
        <path id="Path_1524" data-name="Path 1524" class="cls-22" d="M127.747,45.889c-.618.04-1.05.311-1,.679a.469.469,0,0,0,.5.433.828.828,0,0,0,.834-.8C128.087,45.947,127.994,45.873,127.747,45.889Z" transform="translate(-125.785 -43.984)"/>
      </g>
      <g id="Group_713" data-name="Group 713" transform="translate(54.795 25.813)">
        <path id="Path_1525" data-name="Path 1525" class="cls-23" d="M119.582,54.862a3.2,3.2,0,0,0-3.646.025.954.954,0,0,0,.038,1.555,2.867,2.867,0,0,0,1.759.561,2.977,2.977,0,0,0,1.8-.521A.955.955,0,0,0,119.582,54.862Zm-1.79,1.729c-.73,0-1.342-.425-1.341-.939s.613-.944,1.34-.938,1.343.46,1.32.966C119.089,56.162,118.474,56.587,117.792,56.591Z" transform="translate(-115.553 -54.305)"/>
        <path id="Path_1526" data-name="Path 1526" class="cls-24" d="M118.791,55.167c-.727-.006-1.339.423-1.34.938s.611.944,1.341.939c.682,0,1.3-.429,1.319-.911C120.134,55.627,119.512,55.172,118.791,55.167Z" transform="translate(-116.553 -54.759)"/>
      </g>
      <g id="Group_714" data-name="Group 714" transform="translate(43.335 26.651)">
        <path id="Path_1527" data-name="Path 1527" class="cls-25" d="M92.561,57.034a.555.555,0,0,0-.583-.505c-.1,0-.228.094-.262-.094-.027-.149.053-.406-.221-.352-.228.045-.1.283-.125.435a3.512,3.512,0,0,0,0,.442c.053.246-.153.645.1.807a.815.815,0,0,0,.858-.027A.645.645,0,0,0,92.561,57.034Zm-.581.486c-.211,0-.286-.142-.278-.34,0-.181.055-.358.269-.34a.3.3,0,0,1,.26.365C92.214,57.359,92.171,57.518,91.98,57.52Z" transform="translate(-91.336 -56.075)"/>
        <path id="Path_1528" data-name="Path 1528" class="cls-26" d="M92.377,57.691c-.214-.018-.266.159-.269.34-.008.2.067.341.278.34.191,0,.234-.161.25-.314A.3.3,0,0,0,92.377,57.691Z" transform="translate(-91.743 -56.926)"/>
      </g>
      <path id="Path_1529" data-name="Path 1529" class="cls-6" d="M32.512,25.279c-1.153,0-2.306-.015-3.457.009-.377.008-.5-.11-.477-.481a27.615,27.615,0,0,1,.084-3.11A3.962,3.962,0,0,1,32.9,18.214,4.083,4.083,0,0,1,36.5,22.172c.038.886,0,1.776.028,2.663.01.344-.087.458-.442.451C34.893,25.266,33.7,25.279,32.512,25.279Z" transform="translate(-14.939 -9.475)"/>
      <path id="Path_1530" data-name="Path 1530" class="cls-6" d="M35.093,43.265c-1.049,0-1.051,0-.968-1.034.023-.282.073-.561.093-.842.043-.612.183-1.182-.376-1.743a1.409,1.409,0,0,1,.334-2.048,1.511,1.511,0,0,1,2.046.195,1.461,1.461,0,0,1,0,2.044.932.932,0,0,0-.3.934c.1.631.107,1.278.218,1.908.085.484-.044.663-.533.591A3.506,3.506,0,0,0,35.093,43.265Z" transform="translate(-17.547 -19.527)"/>
    </g>
  </g>
</svg>
