<?xml version="1.0" encoding="utf-8"?>
<!-- Generator: Adobe Illustrator 19.1.0, SVG Export Plug-In . SVG Version: 6.00 Build 0)  -->
<svg version="1.1" id="Layer_1" xmlns="http://www.w3.org/2000/svg" xmlns:xlink="http://www.w3.org/1999/xlink" x="0px" y="0px"
	 viewBox="0 0 32 64" style="enable-background:new 0 0 32 64;" xml:space="preserve">
<style type="text/css">
	.st0{fill:#FFFFFF;}
	.st1{fill:#27B8EB;}
	.st2{fill:#243772;}
</style>
<g id="Layer_2">
	<g id="Layer_1-2">
		<path class="st0" d="M20.101,17.791c0,0.283,0.283,0.566,0.566,0.566l0,0h2.357c0.283,0,0.566-0.283,0.566-0.566
			s-0.283-0.566-0.566-0.566h-2.357C20.384,17.131,20.101,17.414,20.101,17.791L20.101,17.791z"/>
		<path class="st0" d="M8.882,18.357h7.071c0.283,0,0.566-0.283,0.566-0.566s-0.283-0.566-0.566-0.566H8.882
			c-0.283,0-0.566,0.283-0.566,0.566S8.599,18.357,8.882,18.357z"/>
		<path class="st0" d="M23.024,24.297h-2.357c-0.283,0-0.566,0.283-0.566,0.566s0.283,0.566,0.566,0.566h2.357
			c0.283,0,0.566-0.283,0.566-0.566S23.307,24.297,23.024,24.297z"/>
		<path class="st0" d="M8.882,25.428h5.091c0.283,0,0.566-0.283,0.566-0.566s-0.283-0.566-0.566-0.566H8.882
			c-0.283,0-0.566,0.283-0.566,0.566S8.599,25.428,8.882,25.428z"/>
		<path class="st0" d="M8.316,21.28c0-0.283,0.283-0.566,0.566-0.566c0.283,0,0.566,0.283,0.566,0.566
			c0,0.283-0.283,0.566-0.566,0.566C8.599,21.846,8.316,21.563,8.316,21.28z M10.673,21.28c0,0.283,0.189,0.566,0.566,0.66
			c0.283,0,0.566-0.189,0.66-0.566c0-0.377-0.283-0.66-0.66-0.66l0,0C10.956,20.714,10.673,20.997,10.673,21.28z M13.596,20.714
			c-0.283,0-0.566,0.283-0.566,0.566c0,0.283,0.283,0.566,0.566,0.566c0.283,0,0.566-0.283,0.566-0.566l0,0
			C14.161,20.997,13.879,20.714,13.596,20.714z M15.953,20.714c-0.283,0-0.566,0.283-0.566,0.566c0,0.283,0.283,0.566,0.566,0.566
			c0.283,0,0.566-0.283,0.566-0.566l0,0C16.519,20.997,16.236,20.714,15.953,20.714z M18.31,20.714
			c-0.283,0-0.566,0.283-0.566,0.566c0,0.283,0.283,0.566,0.566,0.566c0.283,0,0.566-0.283,0.566-0.566l0,0
			C18.876,20.997,18.593,20.714,18.31,20.714z M20.667,21.94c0.283,0,0.566-0.283,0.566-0.566c0-0.283-0.283-0.566-0.566-0.566
			s-0.566,0.283-0.566,0.566l0,0C20.101,21.657,20.384,21.846,20.667,21.94L20.667,21.94z M23.024,20.714
			c-0.283,0-0.566,0.283-0.566,0.566c0,0.283,0.283,0.566,0.566,0.566c0.283,0,0.566-0.283,0.566-0.566l0,0
			C23.59,20.997,23.401,20.714,23.024,20.714L23.024,20.714z"/>
		<path class="st0" d="M11.239,9.494h0.283l0.943,4.714h6.977l0.943-4.714h0.283c0.283,0,0.566-0.283,0.566-0.566
			s-0.283-0.566-0.566-0.566h-1.414l-1.886-2.734l0,0c-0.189-0.283-0.566-0.377-0.849-0.189s-0.377,0.566-0.189,0.849
			c0,0,0,0,0,0.094l0,0l1.509,1.98h-3.771l1.509-1.98l0,0c0.189-0.283,0.189-0.66-0.094-0.849c-0.283-0.189-0.66-0.189-0.849,0.094
			c0,0,0,0,0,0.094l0,0l-1.98,2.64h-1.414c-0.283,0-0.566,0.283-0.566,0.566C10.673,9.212,10.956,9.494,11.239,9.494L11.239,9.494z
			 M18.498,13.077h-5.091l-0.754-3.583h6.6L18.498,13.077z"/>
		<path class="st0" d="M14.821,11.286c0,0.283,0.283,0.566,0.566,0.566h1.226c0.283,0,0.566-0.283,0.566-0.566
			c0-0.283-0.283-0.566-0.566-0.566h-1.131C15.01,10.72,14.821,10.909,14.821,11.286C14.727,11.286,14.727,11.286,14.821,11.286z"/>
		<path class="st0" d="M26.89,1.858H4.356v27.719c0,0.283,0.189,0.566,0.377,0.566c0.283,0,0.66-0.094,0.943-0.283l1.509-0.66
			c0.189-0.094,0.377-0.094,0.66-0.094c0.189,0,0.377,0,0.66,0.094l1.509,0.66c0.377,0.189,0.849,0.189,1.226,0l1.414-0.66
			c0.377-0.189,0.849-0.189,1.226,0l1.509,0.66c0.377,0.189,0.849,0.189,1.226,0l1.509-0.66c0.377-0.189,0.849-0.189,1.226,0
			l1.509,0.66c0.377,0.189,0.849,0.189,1.226,0l1.509-0.66c0.377-0.189,0.849-0.189,1.226,0l1.509,0.66
			c0.283,0.094,0.66,0.189,0.943,0.283c0.189,0,0.377-0.283,0.377-0.566V1.858H26.89z M26.23,28.54l-0.849-0.377
			c-0.754-0.283-1.697-0.283-2.451,0l-1.509,0.66h-0.094l-1.509-0.66c-0.754-0.283-1.697-0.283-2.451,0l-1.509,0.66h-0.094
			l-1.509-0.66c-0.754-0.283-1.697-0.283-2.451,0l-1.509,0.66l0,0l-1.509-0.66C8.41,27.974,8.033,27.88,7.562,27.88
			c-0.377,0-0.849,0.094-1.226,0.283L5.487,28.54V3.083h20.459V28.54H26.23z"/>
	</g>
</g>
<g id="Layer_2_1_">
	<g id="Layer_1-2_1_">
		<path class="st1" d="M20.101,49.791c0,0.283,0.283,0.566,0.566,0.566l0,0h2.357c0.283,0,0.566-0.283,0.566-0.566
			c0-0.283-0.283-0.566-0.566-0.566h-2.357C20.384,49.131,20.101,49.414,20.101,49.791L20.101,49.791z"/>
		<path class="st1" d="M8.882,50.357h7.071c0.283,0,0.566-0.283,0.566-0.566c0-0.283-0.283-0.566-0.566-0.566H8.882
			c-0.283,0-0.566,0.283-0.566,0.566C8.316,50.074,8.599,50.357,8.882,50.357z"/>
		<path class="st1" d="M23.024,56.297h-2.357c-0.283,0-0.566,0.283-0.566,0.566c0,0.283,0.283,0.566,0.566,0.566h2.357
			c0.283,0,0.566-0.283,0.566-0.566C23.59,56.58,23.307,56.297,23.024,56.297z"/>
		<path class="st1" d="M8.882,57.428h5.091c0.283,0,0.566-0.283,0.566-0.566c0-0.283-0.283-0.566-0.566-0.566H8.882
			c-0.283,0-0.566,0.283-0.566,0.566C8.316,57.145,8.599,57.428,8.882,57.428z"/>
		<path class="st2" d="M8.316,53.28c0-0.283,0.283-0.566,0.566-0.566c0.283,0,0.566,0.283,0.566,0.566
			c0,0.283-0.283,0.566-0.566,0.566C8.599,53.846,8.316,53.563,8.316,53.28z M10.673,53.28c0,0.283,0.189,0.566,0.566,0.66
			c0.283,0,0.566-0.189,0.66-0.566c0-0.377-0.283-0.66-0.66-0.66l0,0C10.956,52.714,10.673,52.997,10.673,53.28z M13.596,52.714
			c-0.283,0-0.566,0.283-0.566,0.566c0,0.283,0.283,0.566,0.566,0.566c0.283,0,0.566-0.283,0.566-0.566l0,0
			C14.161,52.997,13.879,52.714,13.596,52.714z M15.953,52.714c-0.283,0-0.566,0.283-0.566,0.566c0,0.283,0.283,0.566,0.566,0.566
			c0.283,0,0.566-0.283,0.566-0.566l0,0C16.519,52.997,16.236,52.714,15.953,52.714z M18.31,52.714
			c-0.283,0-0.566,0.283-0.566,0.566c0,0.283,0.283,0.566,0.566,0.566c0.283,0,0.566-0.283,0.566-0.566l0,0
			C18.876,52.997,18.593,52.714,18.31,52.714z M20.667,53.94c0.283,0,0.566-0.283,0.566-0.566c0-0.283-0.283-0.566-0.566-0.566
			s-0.566,0.283-0.566,0.566l0,0C20.101,53.657,20.384,53.846,20.667,53.94L20.667,53.94z M23.024,52.714
			c-0.283,0-0.566,0.283-0.566,0.566c0,0.283,0.283,0.566,0.566,0.566c0.283,0,0.566-0.283,0.566-0.566l0,0
			C23.59,52.997,23.401,52.714,23.024,52.714L23.024,52.714z"/>
		<path class="st1" d="M11.239,41.494h0.283l0.943,4.714h6.977l0.943-4.714h0.283c0.283,0,0.566-0.283,0.566-0.566
			s-0.283-0.566-0.566-0.566h-1.414l-1.886-2.734l0,0c-0.189-0.283-0.566-0.377-0.849-0.189c-0.283,0.189-0.377,0.566-0.189,0.849
			c0,0,0,0,0,0.094l0,0l1.509,1.98h-3.771l1.509-1.98l0,0c0.189-0.283,0.189-0.66-0.094-0.849c-0.283-0.189-0.66-0.189-0.849,0.094
			c0,0,0,0,0,0.094l0,0l-1.98,2.64h-1.414c-0.283,0-0.566,0.283-0.566,0.566S10.956,41.494,11.239,41.494L11.239,41.494z
			 M18.498,45.077h-5.091l-0.754-3.583h6.6L18.498,45.077z"/>
		<path class="st2" d="M14.821,43.286c0,0.283,0.283,0.566,0.566,0.566h1.226c0.283,0,0.566-0.283,0.566-0.566
			c0-0.283-0.283-0.566-0.566-0.566h-1.131C15.01,42.72,14.821,42.909,14.821,43.286C14.727,43.286,14.727,43.286,14.821,43.286z"/>
		<path class="st2" d="M26.89,33.858H4.356v27.719c0,0.283,0.189,0.566,0.377,0.566c0.283,0,0.66-0.094,0.943-0.283l1.509-0.66
			c0.189-0.094,0.377-0.094,0.66-0.094c0.189,0,0.377,0,0.66,0.094l1.509,0.66c0.377,0.189,0.849,0.189,1.226,0l1.414-0.66
			c0.377-0.189,0.849-0.189,1.226,0l1.509,0.66c0.377,0.189,0.849,0.189,1.226,0l1.509-0.66c0.377-0.189,0.849-0.189,1.226,0
			l1.509,0.66c0.377,0.189,0.849,0.189,1.226,0l1.509-0.66c0.377-0.189,0.849-0.189,1.226,0l1.509,0.66
			c0.283,0.094,0.66,0.189,0.943,0.283c0.189,0,0.377-0.283,0.377-0.566V33.858H26.89z M26.23,60.54l-0.849-0.377
			c-0.754-0.283-1.697-0.283-2.451,0l-1.509,0.66h-0.094l-1.509-0.66c-0.754-0.283-1.697-0.283-2.451,0l-1.509,0.66h-0.094
			l-1.509-0.66c-0.754-0.283-1.697-0.283-2.451,0l-1.509,0.66l0,0l-1.509-0.66C8.41,59.974,8.033,59.88,7.562,59.88
			c-0.377,0-0.849,0.094-1.226,0.283L5.487,60.54V35.083h20.459V60.54H26.23z"/>
	</g>
</g>
</svg>
