<?xml version="1.0" encoding="utf-8"?>
<!-- Generator: Adobe Illustrator 19.1.0, SVG Export Plug-In . SVG Version: 6.00 Build 0)  -->
<svg version="1.1" id="Layer_1" xmlns="http://www.w3.org/2000/svg" xmlns:xlink="http://www.w3.org/1999/xlink" x="0px" y="0px"
	 viewBox="-37 46.3 23.1 9.4" style="enable-background:new -37 46.3 23.1 9.4;" xml:space="preserve">
<style type="text/css">
	.st0{fill:#ED1C24;}
	.st1{fill:#005BAA;}
	.st2{fill:#FFFFFF;}
</style>
<g>
	<polygon class="st0" points="-35,48.5 -32.8,48.5 -31.2,51.8 -28.9,46.3 -27.8,48.1 -31.2,55.6 	"/>
	<path class="st1" d="M-28.5,46.3l1.1,1.8c0,0,1.8-0.2,1.8,0.9s-1.7,1-1.7,1l-0.7,1.7l1.1,0c0,0,1.4-0.1,1.4,1.1s-1.5,1.1-1.5,1.1
		l-3.2,0l-0.8,1.8h4.2c0,0,3.1-0.1,3.1-2.6c0,0,0.2-1.8-1.7-2.2c0,0,1.5-0.3,1.5-2.1c0-1.8-1.9-2.4-2.7-2.4S-28.5,46.3-28.5,46.3z"
		/>
	<path class="st0" d="M-34.6,48.5H-37l0,0.1c1.8,0.4,3.1,1.5,3.6,2.8L-34,49C-34,48.6-34.3,48.5-34.6,48.5z"/>
	<path class="st1" d="M-19.1,55.6c0-0.5,0.1-1.4,0.2-1.9l0.5-2.2c-0.4-0.1-1-0.2-1.6-0.2c-2.3,0-3.3,1.5-3.3,2.9
		c0,0.9,0.6,1.5,1.4,1.5c0.5,0,1-0.2,1.4-0.8h0c0,0.2,0,0.5,0,0.7H-19.1L-19.1,55.6z M-20.3,53.2c-0.2,1-0.6,1.3-0.9,1.3
		c-0.3,0-0.4-0.2-0.4-0.6c0-0.6,0.5-1.5,1.2-1.5c0.1,0,0.2,0,0.3,0L-20.3,53.2L-20.3,53.2z M-17.1,55.6h-1.6l0.6-2.8
		c0.1-0.6,0.2-1,0.3-1.4h1.4l-0.1,0.7h0c0.4-0.5,1-0.7,1.5-0.7c0.8,0,1.2,0.5,1.2,1.2c0,0.2,0,0.5-0.1,0.7l-0.5,2.5H-16l0.5-2.3
		c0-0.1,0-0.3,0-0.4c0-0.2-0.1-0.4-0.3-0.4c-0.4,0-0.8,0.5-0.9,1.3L-17.1,55.6z"/>
	<polygon class="st0" points="-14,46.4 -23,50.6 -14,50.6 	"/>
	<path class="st2" d="M-18,50.3c0.2,0,0.3-0.1,0.3-0.3c0-0.2-0.1-0.3-0.3-0.3c-0.2,0-0.3,0.1-0.3,0.3S-18.2,50.3-18,50.3L-18,50.3
		L-18,50.3z M-17.6,48.8l0.5,1.5h0.5l0.5-1.5h-0.6l-0.1,0.6c0,0.1,0,0.2-0.1,0.3h0c0-0.1,0-0.2-0.1-0.3l-0.2-0.6H-17.6L-17.6,48.8z
		 M-15.8,50.3h0.5v-0.8c0,0,0-0.1,0-0.1c0-0.1,0.1-0.1,0.2-0.1c0.1,0,0.2,0.1,0.2,0.3v0.8h0.5v-0.9c0-0.4-0.2-0.6-0.5-0.6
		c-0.2,0-0.4,0.1-0.4,0.2h0l0-0.2h-0.5c0,0.1,0,0.3,0,0.5L-15.8,50.3L-15.8,50.3z"/>
</g>
</svg>
