<?xml version="1.0" encoding="utf-8"?>
<!-- Generator: Adobe Illustrator 19.1.0, SVG Export Plug-In . SVG Version: 6.00 Build 0)  -->
<svg version="1.0" id="Layer_1" xmlns="http://www.w3.org/2000/svg" xmlns:xlink="http://www.w3.org/1999/xlink" x="0px" y="0px"
	 viewBox="0 0 520.684 201.398" style="enable-background:new 0 0 520.684 201.398;" xml:space="preserve">
<style type="text/css">
	.st0{fill-rule:evenodd;clip-rule:evenodd;fill:#ffffff;}
	.st1{fill-rule:evenodd;clip-rule:evenodd;fill:#FCBA00;}
	.st2{fill-rule:evenodd;clip-rule:evenodd;fill:#ffffff;}
</style>
<g>
	<path class="st0" d="M200.699,46.789c6.184,0,12.332,0.016,18.473,0.066l24.656,47.582V46.789h14.793v75.422l-16.25,0.004
		l-26.879-53.567v53.563h-14.793V46.789z M200.699,46.789"/>
	<path class="st0" d="M425.504,65.121c15.996,0,28.961,12.969,28.961,28.961c0,15.996-12.965,28.961-28.961,28.961
		c-15.992,0-28.957-12.965-28.957-28.961C396.547,78.09,409.512,65.121,425.504,65.121L425.504,65.121z M425.504,79.707
		c7.941,0,14.379,6.437,14.379,14.375c0,7.941-6.438,14.375-14.379,14.375c-7.938,0-14.375-6.434-14.375-14.375
		C411.129,86.144,417.566,79.707,425.504,79.707L425.504,79.707z M425.504,79.707"/>
	<path class="st0" d="M292.164,65.121c15.996,0,28.961,12.969,28.961,28.961c0,15.996-12.965,28.961-28.961,28.961
		c-15.992,0-28.961-12.965-28.961-28.961C263.203,78.09,276.172,65.121,292.164,65.121L292.164,65.121z M292.164,79.707
		c7.941,0,14.375,6.437,14.375,14.375c0,7.941-6.434,14.375-14.375,14.375c-7.937,0-14.375-6.434-14.375-14.375
		C277.789,86.144,284.227,79.707,292.164,79.707L292.164,79.707z M292.164,79.707"/>
	<path class="st0" d="M325.918,66.789c0,18.473,0,36.945,0,55.422c5.484,0,10.973,0,16.457,0c0-8.715,0-17.43,0-26.141
		c0-2.304,0.352-3.73,1.102-5.941c1.511-4.457,4.054-8.238,8.503-10.793c2.27-1.305,2.528-1.297,5.043-1.297
		c3.45,0,6.903,0,10.356,0c0,10,0,20.004,0,30.004c0.523,16.473,17.453,16.891,29.793,13.543c-0.695-3.684-1.391-7.363-2.086-11.043
		c-7.059,1.637-12.082,2.109-12.082-6.738c0-8.59,0-17.176,0-25.766c3.957,0,7.918,0,11.875,0c0-3.887,0-7.777,0-11.668
		c-3.82,0-7.641,0-11.461,0c0-5.207,0-10.414,0-15.625c-4.375,0-8.75,0-13.125,0c-1.25,5.211-2.5,10.418-3.75,15.625
		c-3.035,0-6.07,0-9.105,0c-3.977,0-7.442,1.043-10.75,3.352c-2.848,1.984-5.063,4.82-6.395,8.734
		c-1.598-3.82-3.195-7.641-4.793-11.461C332.305,66.93,329.109,66.859,325.918,66.789L325.918,66.789z M325.918,66.789"/>
	<path class="st0" d="M458.551,66.508c0,18.648,0,37.297,0,55.945c5.203,0,10.406,0,15.609,0c0-12.34,0-24.68,0-37.019
		c0-5.18,12.477-9.809,17.676-3.45c1.375,1.68,1.25,2.125,1.25,4.141c0,12.016,0,24.035,0,36.051c5.293,0,10.59,0,15.883,0
		c0-12.844,0-25.692,0-38.539c0-4.375-2.082-8.649-4.785-12.055c-3.946-4.98-9.606-7.207-17.766-5.688
		c-5.512,1.028-9.91,4.196-15.02,9.317c-1.105-2.856-2.21-5.711-3.316-8.563C464.906,66.602,461.727,66.555,458.551,66.508
		L458.551,66.508z M458.551,66.508"/>
	<path class="st0" d="M512.043,67.664h1.883v-1.293h-5.071v1.293h1.883v6.027h1.305V67.664z M520.684,66.371h-1.887l-1.109,5.77
		h-0.02l-1.129-5.77h-1.902v7.32h1.215v-6.117h0.019l1.137,6.117h1.277l1.164-6.117h0.016v6.117h1.219V66.371z M520.684,66.371"/>
	<path class="st1" d="M87.211,201.398C39.137,201.394,0.008,162.273,0,114.184c0.008-48.079,39.137-87.2,87.211-87.204
		c48.078,0.004,87.211,39.125,87.211,87.204C174.422,162.273,135.289,201.394,87.211,201.398L87.211,201.398z M87.211,54.57
		c-15.91,0-30.883,6.199-42.156,17.461c-11.262,11.266-17.469,26.238-17.469,42.153c0,15.918,6.207,30.894,17.473,42.168
		c11.261,11.246,26.238,17.457,42.152,17.457c15.926,0,30.894-6.211,42.168-17.469c11.246-11.262,17.453-26.238,17.453-42.156
		c0-15.915-6.207-30.887-17.457-42.161C118.098,60.769,103.121,54.57,87.211,54.57L87.211,54.57z M87.211,54.57"/>
	<rect x="182.211" y="13.551" class="st1" width="6.805" height="6.797"/>
	<rect x="182.211" class="st1" width="6.805" height="6.812"/>
	<rect x="163.078" y="20.301" class="st1" width="6.355" height="6.641"/>
	<rect x="150.492" y="33.34" class="st0" width="6.402" height="6.348"/>
	<rect x="169.434" y="26.941" class="st0" width="7.121" height="6.398"/>
	<rect x="144.117" y="27.258" class="st0" width="6.375" height="6.082"/>
	<rect x="163.078" y="33.34" class="st0" width="6.355" height="6.348"/>
	<rect x="175.488" y="6.812" class="st0" width="6.723" height="6.738"/>
	<rect x="163.078" y="13.551" class="st0" width="12.41" height="6.75"/>
	<rect x="156.895" y="20.301" class="st0" width="6.184" height="13.039"/>
	<path class="st0" d="M156.895,39.687v6.399h-6.403v-6.399h-10.625v4.614h-5.695v5.687h6.359v6.336h-6.359v-6.336h-6.754v9.942
		h-6.395v6.339h-4.242v6.372h-4.66c-5.242,7.793-18.367,32.07-22.34,41.964c-14.301-19.906-25.406-27.8-34.152-30.656
		c-4.727-1.422-10.41,3.715-2.57,11.805c18,19.793,23.671,36.18,29.14,49.258c2.891,6.89,15.867,7.957,18.481,0.945
		c5.539-14.844,13.566-31.512,23.074-45.203V93.66h5.078v-6.394h5.34v-7.418h6.383v-7.141h-6.45v-6.5h6.45v6.5h6.312l-0.019-6.438
		h5.066v-7.761h5.688v-5.34h5.476V39.687H156.895z M156.895,39.687"/>
	<path class="st2" d="M272.914,173.738l-1.793,2.836c1.375,1.078,3.317,2.215,5.746,3.043c2.11,0.723,4.59,1.203,7.379,1.203
		c4.387,0,7.793-1.093,10.117-2.992c2.375-1.945,3.625-4.766,3.625-8.141c0-3.582-1.32-6.043-3.457-7.906
		c-2.195-1.918-5.281-3.25-8.699-4.523c-3.141-1.156-5.336-2.172-6.777-3.406c-1.532-1.317-2.203-2.836-2.203-4.93
		c0-2.039,0.589-3.719,1.992-4.91c1.355-1.149,3.445-1.789,6.476-1.789c2.481,0,4.5,0.39,6.164,0.933
		c1.344,0.438,2.454,0.973,3.391,1.485l1.422-3.122c-1.32-0.703-2.668-1.324-4.262-1.785c-1.824-0.527-4-0.847-6.883-0.847
		c-4.047,0-7.09,1-9.144,2.683c-2.192,1.793-3.278,4.379-3.278,7.352c0,3.472,1.204,5.851,3.149,7.652
		c2,1.848,4.816,3.133,7.941,4.363c3.043,1.2,5.434,2.204,7.102,3.528c1.762,1.398,2.699,3.105,2.699,5.64
		c0,2.332-0.906,4.153-2.535,5.403c-1.613,1.234-3.926,1.883-6.762,1.883c-2.699,0-4.996-0.52-6.976-1.289
		C275.641,175.437,274.184,174.594,272.914,173.738L272.914,173.738z M272.914,173.738"/>
	<path class="st2" d="M300.641,151.109h4.437l7.973,25.844l7.621-25.844h4.312l-10.375,32.743c-1.675,5.335-4.492,8.156-9.828,8.156
		c-1.086,0-2.34-0.239-3.238-0.543l0.539-3.235c0.66,0.118,1.438,0.297,2.398,0.297c3.598,0,5.692-2.152,6.711-5.636
		L300.641,151.109z M300.641,151.109"/>
	<path class="st2" d="M361.395,150.574c5.945,0,7.437,4.973,7.437,9.828v20.692h-4.316v-20.633c0-3.172-0.477-6.176-4.438-6.176
		c-2.703,0-5.519,1.684-8.328,4.563v22.246h-4.324v-20.633c0-3.172-0.477-6.176-4.442-6.176c-2.757,0-5.629,1.922-8.332,4.621
		v22.188h-4.316v-29.985h2.461l1.258,4.914c2.757-2.933,6.172-5.449,10.254-5.449c3.898,0,5.574,2.16,6.773,5.278
		C353.902,152.793,357.508,150.574,361.395,150.574L361.395,150.574z M361.395,150.574"/>
	<path class="st2" d="M393.375,165.207c-6.535,1.254-10.855,2.637-12.473,4.676c-0.777,0.961-1.019,1.855-1.019,3.234
		c0,3.059,1.5,4.914,5.094,4.914c3.418,0,6.355-1.797,8.398-3.355V165.207z M393.375,160.828c0-4.379-1.32-6.601-6.059-6.601
		c-3.062,0-5.812,1.261-8.511,2.699l-1.617-2.938c2.816-1.914,6.046-3.414,10.492-3.414c7.254,0,10.015,4.016,10.015,10.551v19.969
		h-2.461c0,0-1.261-3.66-1.312-3.66c-2.106,2.097-5.469,4.14-9.36,4.14c-5.214,0-9.058-3.301-9.058-8.219
		c0-3.3,1.324-5.632,4.195-7.316c2.758-1.613,7.742-2.812,13.676-3.711C393.375,162.262,393.375,160.828,393.375,160.828
		L393.375,160.828z M393.375,160.828"/>
	<path class="st2" d="M407.301,151.109h2.453l1.262,5.098c2.761-3.117,6.296-5.633,10.851-5.633c6.36,0,8.035,4.973,8.035,9.828
		v20.692h-4.308v-20.633c0-3.172-0.731-6.176-5.043-6.176c-3.055,0-6.239,1.922-8.93,4.801v22.008h-4.32V151.109z M407.301,151.109"
		/>
	<path class="st2" d="M435.875,154.227v-3.118h4.617l1.262-8.574h2.934v8.574h6.714v3.118h-6.714v19.496
		c0,2.875,0.48,4.492,3.359,4.492c1.258,0,2.098-0.238,3.484-0.602l0.653,2.996c-1.137,0.543-2.754,0.965-4.317,0.965
		c-5.277,0-7.492-2.64-7.492-7.558v-19.789H435.875z M435.875,154.227"/>
	<path class="st2" d="M475.012,164.184c-0.235-6.832-2.52-10.313-7.012-10.313c-4.082,0-6.898,3.234-7.254,10.313H475.012z
		 M468.719,178.09c3.476,0,5.64-1.25,8.219-2.992l1.851,2.515c-2.871,2.457-5.512,3.961-10.43,3.961
		c-7.496,0-12.23-5.996-12.23-15.472c0-9.293,4.676-15.528,11.809-15.528c7.312,0,11.515,5.395,11.515,15.77v0.957h-18.769
		C460.984,174.316,463.32,178.09,468.719,178.09L468.719,178.09z M468.719,178.09"/>
	<path class="st2" d="M484.75,166.344c0-7.375,2.996-15.77,12.172-15.77c3.84,0,6.715,1.078,9.168,3.113l-1.793,2.879
		c-1.863-1.433-4.438-2.511-7.375-2.511c-6.84,0-7.613,7.25-7.613,12.347c0,4.797,0.957,11.688,7.851,11.688
		c3.18,0,5.395-1.196,7.438-2.992l2.035,2.457c-2.035,2.16-5.164,4.019-9.711,4.019C487.988,181.574,484.75,173.539,484.75,166.344
		L484.75,166.344z M484.75,166.344"/>
	<path class="st2" d="M228.91,151.109h4.438l7.976,25.844l7.617-25.844h4.313l-10.375,32.743c-1.676,5.335-4.492,8.156-9.828,8.156
		c-1.082,0-2.34-0.239-3.239-0.543l0.54-3.235c0.66,0.118,1.437,0.297,2.398,0.297c3.598,0,5.695-2.152,6.715-5.636L228.91,151.109z
		 M228.91,151.109"/>
	<path class="st2" d="M220.789,162.836c0.074,0.601,0.129,1.238,0.164,1.867c0.039,0.652,0.059,1.301,0.059,1.895
		c0,0.39-0.012,0.777-0.032,1.156c-0.023,0.383-0.054,0.754-0.101,1.117c-0.043,0.367-0.098,0.723-0.164,1.074
		c-0.067,0.352-0.141,0.696-0.231,1.032c-0.086,0.335-0.183,0.656-0.293,0.968c-0.109,0.309-0.226,0.61-0.359,0.899
		c-0.129,0.285-0.27,0.562-0.418,0.828c-0.152,0.265-0.316,0.523-0.488,0.765l-0.008,0.008c-0.172,0.239-0.356,0.465-0.551,0.68
		c-0.195,0.215-0.398,0.418-0.617,0.605c-0.219,0.188-0.445,0.364-0.68,0.524c-0.238,0.16-0.484,0.305-0.746,0.437
		c-0.254,0.133-0.519,0.25-0.797,0.352c-0.277,0.098-0.566,0.18-0.863,0.246s-0.605,0.117-0.926,0.148
		c-0.32,0.036-0.648,0.051-0.984,0.051c-0.223,0-0.445-0.008-0.66-0.023c-0.215-0.016-0.426-0.043-0.637-0.074
		c-0.207-0.036-0.41-0.079-0.609-0.129c-0.157-0.039-0.313-0.086-0.465-0.137l-0.031-0.012l-0.008-0.004l-0.074-0.023
		c-0.192-0.067-0.375-0.137-0.551-0.207c-0.176-0.07-0.348-0.149-0.52-0.227c-0.168-0.082-0.336-0.164-0.496-0.254
		c-0.164-0.089-0.324-0.179-0.473-0.273h-0.003v-0.004c-0.153-0.094-0.297-0.191-0.434-0.289c-0.141-0.098-0.273-0.199-0.406-0.301
		c-0.129-0.101-0.254-0.207-0.375-0.316c-0.121-0.106-0.239-0.215-0.348-0.324c-0.105-0.11-0.211-0.215-0.312-0.325
		c-0.102-0.105-0.196-0.211-0.286-0.312c-0.089-0.102-0.171-0.199-0.25-0.297c-0.078-0.098-0.152-0.191-0.222-0.285l-0.032-0.047
		v-15.566l0.024-0.028l0.027-0.023c0.239-0.231,0.489-0.453,0.742-0.664c0.258-0.215,0.524-0.414,0.793-0.602l0.02-0.012
		c0.266-0.187,0.543-0.359,0.828-0.523c0.289-0.168,0.59-0.328,0.899-0.477c0.312-0.144,0.628-0.273,0.949-0.386
		c0.32-0.11,0.644-0.2,0.976-0.274c0.332-0.074,0.668-0.129,1.012-0.164c0.344-0.039,0.691-0.054,1.043-0.054
		c0.227,0,0.453,0.007,0.68,0.027c0.226,0.015,0.457,0.047,0.691,0.082c0.234,0.039,0.465,0.082,0.692,0.137
		c0.23,0.054,0.46,0.121,0.691,0.195c0.23,0.07,0.457,0.16,0.683,0.266c0.227,0.101,0.45,0.222,0.668,0.359
		c0.219,0.133,0.434,0.285,0.645,0.449c0.211,0.164,0.418,0.344,0.621,0.539c0.203,0.196,0.399,0.406,0.582,0.641
		c0.184,0.23,0.36,0.484,0.527,0.754c0.165,0.265,0.321,0.554,0.465,0.863c0.149,0.305,0.285,0.629,0.414,0.973
		c0.118,0.312,0.219,0.699,0.309,1.14C220.641,161.75,220.723,162.277,220.789,162.836L220.789,162.836z M225.074,169.781
		c0.086-0.547,0.149-1.113,0.192-1.707c0.043-0.59,0.066-1.207,0.066-1.84c0-0.507-0.016-1.082-0.043-1.675
		c-0.027-0.571-0.066-1.161-0.117-1.723c-0.047-0.508-0.106-1.004-0.176-1.457c-0.062-0.414-0.133-0.789-0.211-1.09
		c-0.09-0.352-0.187-0.687-0.293-1.016c-0.105-0.328-0.219-0.64-0.336-0.941c-0.121-0.301-0.25-0.59-0.386-0.867
		c-0.137-0.274-0.278-0.539-0.43-0.789c-0.152-0.258-0.313-0.5-0.473-0.731c-0.164-0.23-0.328-0.453-0.504-0.664
		c-0.172-0.211-0.351-0.414-0.539-0.605c-0.183-0.188-0.375-0.367-0.574-0.535c-0.199-0.172-0.402-0.336-0.605-0.489
		c-0.204-0.156-0.411-0.3-0.618-0.437c-0.207-0.137-0.414-0.27-0.625-0.391c-0.211-0.117-0.422-0.23-0.632-0.332
		c-0.215-0.105-0.434-0.203-0.649-0.293c-0.215-0.086-0.43-0.168-0.648-0.242c-0.215-0.074-0.434-0.137-0.653-0.195
		c-0.218-0.059-0.437-0.11-0.652-0.153c-0.219-0.039-0.438-0.078-0.648-0.109c-0.219-0.031-0.426-0.059-0.625-0.078
		c-0.204-0.024-0.407-0.039-0.61-0.047c-0.195-0.012-0.39-0.016-0.586-0.016c-0.41,0-0.812,0.016-1.195,0.051
		c-0.387,0.035-0.766,0.09-1.133,0.16c-0.363,0.074-0.719,0.16-1.059,0.266c-0.343,0.105-0.675,0.23-1,0.371
		c-0.32,0.145-0.628,0.297-0.929,0.465c-0.297,0.172-0.59,0.355-0.871,0.555c-0.282,0.199-0.551,0.41-0.813,0.636
		c-0.261,0.231-0.511,0.473-0.754,0.727l-0.023,0.027l-0.027,0.027h-0.333v-15.808h-4.144v41.379h3.078l0.906-2.938l0.02-0.062
		l0.019-0.059h0.309l0.023,0.043l0.028,0.039c0.035,0.059,0.078,0.125,0.133,0.196v0.003c0.05,0.071,0.109,0.145,0.171,0.227
		l0.047,0.063l0.004,0.003c0.055,0.063,0.11,0.133,0.164,0.2c0.082,0.097,0.168,0.195,0.258,0.297
		c0.09,0.101,0.188,0.207,0.293,0.304c0.106,0.102,0.219,0.203,0.344,0.309c0.121,0.101,0.25,0.203,0.39,0.304
		c0.133,0.098,0.278,0.2,0.426,0.297h0.004l0.008,0.008c0.148,0.098,0.309,0.195,0.473,0.285c0.168,0.094,0.343,0.184,0.531,0.27
		c0.183,0.09,0.379,0.172,0.586,0.254c0.183,0.074,0.375,0.14,0.57,0.211v-0.004l0.07,0.023c0.219,0.074,0.446,0.137,0.684,0.192
		c0.234,0.054,0.481,0.097,0.731,0.136c0.253,0.036,0.519,0.063,0.789,0.078c0.273,0.02,0.55,0.028,0.839,0.028
		c0.387,0,0.77-0.016,1.149-0.055c0.375-0.035,0.754-0.09,1.129-0.164c0.371-0.074,0.738-0.168,1.105-0.277
		c0.356-0.106,0.703-0.231,1.047-0.371l0.031-0.012c0.36-0.149,0.711-0.313,1.047-0.496c0.34-0.184,0.668-0.387,0.988-0.61
		c0.317-0.222,0.626-0.464,0.922-0.726c0.301-0.262,0.59-0.543,0.868-0.844l0.027-0.027c0.269-0.289,0.527-0.602,0.773-0.934
		c0.25-0.34,0.493-0.699,0.715-1.078c0.227-0.383,0.438-0.781,0.637-1.203c0.199-0.422,0.383-0.863,0.558-1.324
		c0.168-0.461,0.317-0.942,0.446-1.446c0.129-0.503,0.234-1.031,0.32-1.574H225.074z M225.074,169.781"/>
</g>
</svg>
