<?xml version="1.0" encoding="utf-8"?>
<!-- Generator: Adobe Illustrator 19.1.0, SVG Export Plug-In . SVG Version: 6.00 Build 0)  -->
<svg version="1.1" id="Layer_1" xmlns="http://www.w3.org/2000/svg" xmlns:xlink="http://www.w3.org/1999/xlink" x="0px" y="0px"
	 viewBox="0 0 32 32" style="enable-background:new 0 0 32 32;" xml:space="preserve">
<style type="text/css">
	.st0{fill:#FFFFFF;}
</style>
<path class="st0" d="M26.194,26.8c-11.28,0-20.4-9.12-20.4-20.4c0-0.72,0.48-1.2,1.2-1.2h4.2c0.72,0,1.2,0.48,1.2,1.2
	c0,1.44,0.24,2.88,0.72,4.32c0.12,0.36,0,0.84-0.24,1.2l-2.76,2.64c1.68,3.36,4.56,6.12,7.92,7.92l2.64-2.64
	c0.36-0.36,0.84-0.48,1.2-0.24c1.32,0.48,2.76,0.72,4.32,0.72c0.72,0,1.2,0.48,1.2,1.2v4.08C27.394,26.32,26.914,26.8,26.194,26.8z"
	/>
</svg>
