<svg xmlns="http://www.w3.org/2000/svg" width="74" height="74" viewBox="0 0 74 74">
  <g id="check2" transform="translate(-1.059 -1.059)">
    <circle id="Ellipse_1" data-name="Ellipse 1" cx="35" cy="35" r="35" transform="translate(3.059 3.059)" fill="none" stroke="#009d3b" stroke-miterlimit="10" stroke-width="4" stroke-dasharray="400"/>
    <g id="Group_2" data-name="Group 2" transform="translate(19.57 23.969)">
      <path id="Path_4" data-name="Path 4" d="M51.69,47.283c3.542-4.449,7.2-9.049,10.775-13.6A7.6,7.6,0,0,1,63.1,33c.4-.4.856-.849.842-1.183a1.39,1.39,0,0,0-.583-.807,1.469,1.469,0,0,0-.863-.423c-.433,0-.9.519-1.358,1.021-.167.185-.333.367-.5.532L58.22,34.526C53.343,39.332,48.3,44.3,43.438,49.282a4.291,4.291,0,0,1-2.924,1.6,4.231,4.231,0,0,1-2.5-1.014c-2.4-1.777-4.958-3.434-7.436-5.036-.979-.633-1.959-1.267-2.931-1.909-.5-.33-1.028-.649-1.493-.93-.137-.084-.272-.164-.4-.243a.926.926,0,0,0-.869.482c-.167.314-.145.438.467,1.028.117.113.232.226.337.339q2.606,2.823,5.23,5.628c2.781,2.982,5.657,6.066,8.445,9.14a2.742,2.742,0,0,0,1.777,1.122c.605,0,1.269-.513,2.219-1.717C46.13,54.267,48.957,50.717,51.69,47.283Z" transform="translate(-24.798 -30.588)" fill="#009d3b" stroke="#009d3b" stroke-width="2" stroke-dasharray="400"/>
    </g>
  </g>
</svg>
