<svg xmlns="http://www.w3.org/2000/svg" xmlns:xlink="http://www.w3.org/1999/xlink" width="200" height="80" viewBox="0 0 200 80">
  <defs>
    <clipPath id="clip-logo">
      <rect width="200" height="80"/>
    </clipPath>
  </defs>
  <g id="logo" clip-path="url(#clip-logo)">
    <rect width="200" height="80" fill="#fff"/>
    <g id="Group_1" data-name="Group 1" transform="translate(0 -0.435)">
      <path id="Path_1" data-name="Path 1" d="M100,44.8c-.693.394-5.665,4.609-15.56,4.609-8.336.006-17.239-4.267-20.032-4.183a5.3,5.3,0,0,0-2.39.43c-1.168.489-2.305-.227-1.671-1.424a15.99,15.99,0,0,1,9.438-7.762c2.57-.776,4.92-1.036,6.135.315,2.68,2.972,7.52,6.642,12.223,7.125.38.038,2.088.183,2.108-.3.019-.3-.563-.49-1.154-.532-4.8-.349-13.467-5.49-18.226-15.449-1.785-3.737-3.2-7.361-6.316-8.939-.687-.332-.71-1.6.741-1.95,1.01-.24,7.4-.856,14.714,2.993,3.356,1.766,3.827,3.351,3.84,4.733-.031,10.436,5.248,14.58,7.289,15.8,1.139.68,2.2.97,2.314.613.092-.3-.209-.5-.47-.658-6.33-3.842-8-9.754-8.05-15.776-.049-5.955,2.159-11.106,3.722-15.329A9.926,9.926,0,0,0,89,3.678c-.468-1.738-.086-2.243.83-2.243,1,0,2.335,1.622,2.786,2.179A26.36,26.36,0,0,1,95.9,8.937a35.389,35.389,0,0,1,3.515,14.984c0,4.952-1.277,5.523-3.359,6.552s-3.065,2.349-3.067,3.884a4.055,4.055,0,0,0,3.066,3.8c1.532.449,2.5.28,2.421-.117-.065-.315-.741-.393-.94-.446-2.079-.565-3.46-1.633-3.46-3.232,0-2,2.462-3.461,5.925-3.461s5.927,1.464,5.927,3.461c0,1.6-1.38,2.668-3.46,3.233-.2.053-.875.13-.94.445-.08.4.89.567,2.422.117a4.053,4.053,0,0,0,3.066-3.8c0-1.533-.989-2.858-3.068-3.884s-3.357-1.6-3.357-6.55A35.433,35.433,0,0,1,104.1,8.938a26.6,26.6,0,0,1,3.287-5.323c.451-.557,1.787-2.18,2.788-2.18.917,0,1.3.505.828,2.243a9.922,9.922,0,0,0,.34,5.442c1.562,4.226,3.773,9.375,3.722,15.33-.047,6.023-1.721,11.934-8.049,15.776-.263.158-.564.361-.469.657.111.358,1.173.07,2.31-.611,2.042-1.225,7.323-5.367,7.292-15.8.012-1.383.482-2.968,3.838-4.734,7.312-3.848,13.707-3.231,14.717-2.991,1.448.344,1.425,1.619.739,1.948-3.116,1.578-4.531,5.2-6.316,8.939-4.76,9.959-13.423,15.1-18.226,15.451-.592.04-1.174.235-1.155.533.02.48,1.729.336,2.11.3,4.7-.482,9.541-4.151,12.221-7.125,1.218-1.35,3.565-1.091,6.137-.314a15.979,15.979,0,0,1,9.436,7.762c.634,1.2-.5,1.912-1.669,1.424a5.348,5.348,0,0,0-2.392-.431c-2.793-.082-11.695,4.189-20.033,4.186-9.893,0-14.863-4.218-15.555-4.612" fill="#d49d04"/>
      <path id="Path_2" data-name="Path 2" d="M136.542,66.345c0-1.1,1.178-1.681,2.472-1.681,2.2,0,1.956,1.757,3.531,1.757A1.039,1.039,0,0,0,143.7,65.31c0-1.213-1.611-2.017-4.118-2.1a10.341,10.341,0,0,0-4.507.682,1.8,1.8,0,0,0-1.391,1.784V77.588c0,.628.3.628,1.433.628s1.428,0,1.428-.628V66.345m-72.4,2.118c.008-4.523-3.935-5.238-6.793-5.238A14.466,14.466,0,0,0,52,64.238c-.962.426-1.043.957-1.043,1.836L50.967,77.6c0,.627.31.627,1.43.627s1.432,0,1.432-.627l0-10.642c0-.941.333-2.238,3.6-2.238,3.086,0,3.86,1.826,3.86,3.742l.005,9.138c0,.627.308.627,1.427.627s1.433,0,1.433-.627Zm63.928,9.118c0,.627.31.627,1.425.627s1.433,0,1.433-.627l.012-13.573c.011-1-1.363-.748-2.063-.29-.785.51-.81.767-.81,1.756Zm-15.148-8.01c.425-1.08,3.142-8.186,3.286-8.587.041-.114.157-.114.2,0,.194.5,2.938,7.48,3.345,8.561.089.236.122.43-.191.43h-6.411C112.766,69.979,112.859,69.742,112.926,69.571Zm7.907,2.622c.974,2.313,2.316,5.536,2.316,5.536.168.411.017.512,1.706.512,1.794,0,1.9-.058,1.549-.855-.1-.215-7.211-17.307-7.606-18.241s-.567-1-2.047-1c-1.465,0-1.657.039-2.062,1-.413.981-7.556,18.149-7.644,18.364-.3.732-.033.732,1.181.732,1.136,0,1.268-.036,1.485-.521l2.2-5.512c.132-.333.175-.468.566-.468,1.508,0,5.8,0,7.785-.007C120.643,71.732,120.684,71.842,120.833,72.193Zm10.331-13.03a1.732,1.732,0,1,0-1.369,1.7A1.538,1.538,0,0,0,131.164,59.163ZM144.628,77.6c0,.627.309.627,1.425.627s1.433,0,1.433-.627l.012-19.458c.011-1-1.363-.747-2.064-.289-.783.511-.81.766-.81,1.755Zm9.144-18.428a1.732,1.732,0,1,0-1.371,1.7A1.54,1.54,0,0,0,153.772,59.169Zm-3.091,18.419c0,.627.309.627,1.425.627s1.433,0,1.433-.627l.011-13.574c.012-1-1.362-.747-2.062-.289-.784.51-.811.766-.811,1.756Zm19.16-9.111c.008-4.523-3.934-5.238-6.793-5.238a14.445,14.445,0,0,0-5.35,1.012c-.962.425-1.043.957-1.043,1.837l.007,11.526c0,.627.31.627,1.429.627s1.433,0,1.433-.627l0-10.642c0-.939.333-2.238,3.6-2.238,3.085,0,3.859,1.826,3.859,3.743l.006,9.137c0,.627.308.627,1.426.627s1.434,0,1.434-.627ZM200,74.222c-.113-5.011-9.467-4.092-9.469-7.584,0-1.366,1.4-2,2.925-2,2.19,0,2.915.732,3.373,1.8a1.5,1.5,0,0,0,1.482.953,1.091,1.091,0,0,0,1.162-1.138c0-1.108-1.541-3.061-5.748-3.089-3.486-.023-5.845,1.305-5.848,4.058,0,5.157,9.361,4.058,9.345,7.632-.006,1.478-1.382,2.162-3.382,2.182a3.428,3.428,0,0,1-3.636-2.185,1.557,1.557,0,0,0-1.521-1.065,1.186,1.186,0,0,0-1.248,1.281c0,1.051,1.829,3.493,6.272,3.493C197.347,78.564,200.063,77.1,200,74.222ZM19.974,77.588c0,.627.309.627,1.425.627s1.433,0,1.433-.627l.011-13.574c.012-1-1.362-.747-2.063-.289-.784.51-.81.766-.81,1.756Zm52.966.976A10.3,10.3,0,0,0,77.967,77.5a1.555,1.555,0,0,0,1.074-1.733V67.584c0-3.117-2.592-4.413-5.561-4.407-4.846.012-6.775,2.091-6.852,3.438a1.13,1.13,0,0,0,1.224,1.26,1.558,1.558,0,0,0,1.488-.962,3.558,3.558,0,0,1,3.739-2.255c1.656,0,3.138.76,3.133,2.73v.869c0,.266,0,.322-.233.349-4.365.7-10.033,2.072-10.033,6.081C65.946,77.18,68.937,78.56,72.94,78.564Zm3.274-3.474C76.214,76.6,74.245,77,72.791,77c-2.57,0-3.848-1.1-3.848-2.547,0-2.64,3.409-3.592,6.964-4.34.188-.04.305-.06.305.21ZM23.065,59.169a1.541,1.541,0,0,0-1.948-1,1.528,1.528,0,0,0-1.371,1.7,1.544,1.544,0,0,0,1.95,1A1.527,1.527,0,0,0,23.065,59.169Zm77.214,18.444c0,.628.307.622,1.43.625s1.429,0,1.429-.625v-9.7c0-3.857-3.62-4.657-5.764-4.657-2.5,0-3.932.718-4.906,1.795-1.041-1.133-2.432-1.795-4.869-1.795a11.861,11.861,0,0,0-4.783,1.053A1.528,1.528,0,0,0,81.758,66v11.61c0,.628.311.628,1.43.628s1.428,0,1.428-.628l0-10.814c0-1.613,1.293-2.056,2.99-2.057,2.112,0,3.406.994,3.406,3.485v9.386c0,.628.308.628,1.432.628s1.425,0,1.425-.628v-9.57a3,3,0,0,1,3.269-3.311c2.209,0,3.152,1.442,3.152,3.354ZM28.33,68.442a4.263,4.263,0,0,1,4.307-3.783c2.255-.018,4.234,1.353,4.338,3.368.03.579-.123.652-.813.652H28.548C28.336,68.678,28.309,68.584,28.33,68.442ZM39.821,73.82a.523.523,0,0,0-.559-.515c-.331,0-.5.116-.694.459a6.13,6.13,0,0,1-5.089,2.817c-3.342.03-5.27-2.371-5.184-6.081,0-.126.051-.236.243-.24s5.23-.009,10.308,0c.974,0,.989-.644.989-1.177,0-3.072-2.862-5.91-6.967-5.91-4.261,0-7.534,2.324-7.534,7.67,0,5.69,4.252,7.708,7.876,7.708C37.591,78.552,39.821,75.165,39.821,73.82Zm134.887-5.378a4.265,4.265,0,0,1,4.308-3.783c2.255-.018,4.233,1.353,4.338,3.368.03.579-.123.652-.813.652h-7.614C174.716,68.678,174.688,68.584,174.708,68.442ZM186.2,73.82a.523.523,0,0,0-.56-.515c-.329,0-.493.116-.691.459a6.134,6.134,0,0,1-5.091,2.817c-3.342.03-5.27-2.371-5.184-6.081a.217.217,0,0,1,.244-.24c.193-.005,5.229-.009,10.308,0,.974,0,.989-.644.989-1.177,0-3.072-2.863-5.91-6.967-5.91-4.26,0-7.534,2.324-7.534,7.67,0,5.69,4.252,7.708,7.875,7.708C183.97,78.552,186.2,75.165,186.2,73.82ZM7.642,77.233c.391.935.481,1.008,1.973,1.008,1.435,0,1.466-.058,1.884-1.017s5.865-14.653,7.311-18.235c.321-.8.182-.864-1.1-.864-1.124,0-1.227.066-1.441.551,0,0-6.1,15.607-6.235,15.968-.033.1-.164.109-.219-.013-.2-.442-6.391-16-6.391-16-.15-.4-.187-.542-1.861-.542-1.824,0-1.7.175-1.341,1.073C.307,59.378,7.25,76.3,7.642,77.233ZM42.585,63.428c-.669.011-1.581,0-1.581,0-.452,0-.455.249-.455.759,0,.485,0,.739.453.739h1.583c.326,0,.338.035.334.374-.008.715,0,9.341,0,9.341,0,3.4,1.819,3.807,3.618,3.834,1.779.026,2.946-.5,2.926-1.128-.012-.364-.254-.53-.667-.482a5.73,5.73,0,0,1-.885.122c-.943,0-2.13-.254-2.13-2.322V65.33c0-.361,0-.4.359-.4h2.576c.451,0,.468-.254.468-.739,0-.5-.017-.761-.468-.761h-2.59c-.346,0-.343-.035-.344-.336V59.95a.615.615,0,0,0-.69-.656,2.973,2.973,0,0,0-1.128.581,1.81,1.81,0,0,0-1.044,1.878v1.315C42.917,63.429,42.9,63.422,42.585,63.428Z" fill="#016392" fill-rule="evenodd"/>
    </g>
  </g>
</svg>
