<?xml version="1.0" encoding="utf-8"?>
<!-- Generator: Adobe Illustrator 19.1.0, SVG Export Plug-In . SVG Version: 6.00 Build 0)  -->
<svg version="1.1" id="Layer_1" xmlns="http://www.w3.org/2000/svg" xmlns:xlink="http://www.w3.org/1999/xlink" x="0px" y="0px"
	 viewBox="0 0 64.529 24.564" style="enable-background:new 0 0 64.529 24.564;" xml:space="preserve">
<style type="text/css">
	.st0{fill:#FFFFFF;}
	.st1{fill:#F1F1F1;}
	.st2{fill:#0083CA;}
	.st3{fill:#FEFEFE;}
	.st4{fill:#FBFDFD;}
	.st5{fill:#FDFDFE;}
	.st6{fill:#FCFDFE;}
	.st7{fill:#FDFEFE;}
	.st8{fill:#FBFCFD;}
	.st9{fill:#007EC7;}
	.st10{fill:#0078C5;}
	.st11{fill:#F8FAFC;}
	.st12{fill:#0079C5;}
	.st13{fill:#007EC8;}
	.st14{fill:#A5C9E7;}
	.st15{fill:#F7FAFC;}
	.st16{fill:#007AC6;}
	.st17{fill:#007CC7;}
	.st18{fill:#007BC6;}
	.st19{fill:#007BC7;}
	.st20{fill:#017DC7;}
	.st21{fill:#0479C6;}
	.st22{fill:#0077C5;}
	.st23{fill:#0084CA;}
	.st24{fill:#0184CA;}
	.st25{fill:#0284CA;}
	.st26{fill:#0177C5;}
	.st27{fill:#A0C7E6;}
	.st28{fill:#0077C4;}
	.st29{fill:#FCFDFD;}
	.st30{fill:#FAFBFD;}
	.st31{fill:#EDF4FA;}
	.st32{fill:#EEF4FA;}
	.st33{fill:#2E94D1;}
	.st34{fill:#0384CB;}
	.st35{fill:#0485CB;}
</style>
<g>
	<path class="st0" d="M64.529,17.847c-0.105,0.251-0.16,0.519-0.308,0.756c-0.529,0.849-1.262,1.316-2.286,1.316
		c-13.247-0.004-26.494-0.002-39.741-0.007c-0.182,0-0.307,0.039-0.424,0.186c-0.282,0.356-0.592,0.686-0.918,1.005
		c-0.839,0.821-1.782,1.492-2.814,2.045c-1.253,0.671-2.592,1.078-3.988,1.316c-0.14,0.024-0.282,0.04-0.424,0.059
		c-0.141,0.047-0.293-0.023-0.432,0.04c-0.048,0-0.096,0-0.144,0c-0.08-0.039-0.16-0.039-0.24,0c-0.352,0-0.704,0-1.055,0
		c-0.096-0.039-0.192-0.039-0.288,0c-0.064,0-0.128,0-0.192,0c-0.105-0.05-0.218-0.013-0.326-0.025
		c-0.92-0.029-1.793-0.282-2.661-0.563c-0.918-0.297-1.774-0.724-2.589-1.23c-0.562-0.349-1.086-0.756-1.587-1.194
		c-0.709-0.618-1.32-1.319-1.875-2.074c-0.832-1.132-1.425-2.379-1.819-3.726c-0.204-0.699-0.381-1.401-0.393-2.135
		C0.013,13.509,0.05,13.396,0,13.29c0-0.096,0-0.192,0-0.288c0.039-0.096,0.039-0.192,0-0.288c0-0.288,0-0.576,0-0.864
		c0.039-0.096,0.039-0.192,0-0.288c0-0.096,0-0.192,0-0.288c0.05-0.106,0.013-0.218,0.025-0.326c0.016-0.873,0.255-1.7,0.514-2.525
		C0.981,7.019,1.69,5.761,2.595,4.606c0.841-1.073,1.84-1.979,2.982-2.713c1.461-0.94,3.057-1.552,4.779-1.822
		c0.197-0.031,0.396-0.038,0.595-0.046c0.123-0.014,0.25,0.029,0.37-0.025c0.064,0,0.128,0,0.192,0c0.096,0.039,0.192,0.039,0.288,0
		c0.32,0,0.64,0,0.96,0c0.096,0.039,0.192,0.039,0.288,0c0.048,0,0.096,0,0.144,0c0.14,0.063,0.291-0.007,0.432,0.04
		c1.189,0.146,2.339,0.452,3.442,0.909c0.997,0.413,1.922,0.963,2.775,1.631c0.775,0.607,1.476,1.288,2.076,2.07
		C22,4.755,22.093,4.787,22.224,4.786c0.903-0.005,1.807-0.003,2.71-0.003c12.311,0,24.623,0.003,36.934-0.007
		c0.721-0.001,1.344,0.214,1.858,0.685c0.408,0.373,0.712,0.838,0.757,1.422c0.003,0.033,0.007,0.062,0.045,0.073
		C64.529,10.587,64.529,14.217,64.529,17.847z"/>
	<path class="st1" d="M13.626,0.04C13.481,0.036,13.331,0.089,13.194,0c0.144,0,0.288,0,0.432,0
		C13.625,0.013,13.626,0.027,13.626,0.04z"/>
	<path class="st1" d="M13.194,24.564c0.137-0.089,0.287-0.036,0.432-0.04c0,0.013,0,0.027-0.001,0.04
		C13.481,24.564,13.337,24.564,13.194,24.564z"/>
	<path class="st1" d="M10.938,0.04c0-0.013,0-0.027,0.001-0.04c0.128,0,0.256,0,0.384,0C11.203,0.098,11.067,0.031,10.938,0.04z"/>
	<path class="st1" d="M0.04,13.626l-0.02,0.001L0,13.625c0-0.112,0-0.224,0-0.336C0.094,13.392,0.036,13.513,0.04,13.626z"/>
	<path class="st1" d="M0,10.939c0.013-0.001,0.027-0.002,0.04-0.001C0.036,11.051,0.094,11.172,0,11.275C0,11.163,0,11.051,0,10.939
		z"/>
	<path class="st1" d="M10.939,24.564c0-0.013,0-0.027-0.001-0.04c0.113,0.004,0.234-0.054,0.336,0.04
		C11.163,24.564,11.051,24.564,10.939,24.564z"/>
	<path class="st0" d="M0,12.714c0.07,0.096,0.077,0.192,0,0.288C0,12.906,0,12.81,0,12.714z"/>
	<path class="st0" d="M13.05,0c-0.096,0.08-0.192,0.068-0.288,0C12.858,0,12.954,0,13.05,0z"/>
	<path class="st0" d="M11.802,0c-0.096,0.068-0.192,0.08-0.288,0C11.61,0,11.706,0,11.802,0z"/>
	<path class="st0" d="M0,11.562c0.077,0.096,0.07,0.192,0,0.288C0,11.754,0,11.658,0,11.562z"/>
	<path class="st0" d="M11.466,24.564c0.096-0.083,0.192-0.063,0.288,0C11.658,24.564,11.562,24.564,11.466,24.564z"/>
	<path class="st0" d="M12.81,24.564c0.08-0.062,0.16-0.077,0.24,0C12.97,24.564,12.89,24.564,12.81,24.564z"/>
	<path class="st2" d="M21.894,5.081c0.08-0.003,0.16-0.007,0.239-0.007c13.255,0,26.51,0.005,39.765-0.009
		c1.122-0.001,2.128,0.783,2.314,1.886c0.017,0.102,0.027,0.206,0.027,0.309c0.001,3.398,0.003,6.795,0,10.193
		c-0.001,1.142-1.028,2.175-2.16,2.175c-13.399,0.001-26.798,0.001-40.196,0.001c-0.032,0-0.064-0.002-0.096-0.004
		c-0.038-0.141,0.07-0.221,0.137-0.313c0.918-1.273,1.574-2.669,1.947-4.194c0.275-1.124,0.402-2.269,0.333-3.424
		c-0.136-2.277-0.833-4.368-2.142-6.247C21.987,5.34,21.839,5.252,21.894,5.081z"/>
	<path class="st3" d="M21.894,5.081c0.506,0.737,0.995,1.485,1.338,2.314c1.758,4.24,1.32,8.245-1.302,12.012
		c-0.05,0.071-0.096,0.145-0.143,0.217c-1.321,1.681-2.961,2.943-4.939,3.76c-1.704,0.704-3.481,0.994-5.316,0.879
		C6.135,23.925,1.652,20.066,0.54,14.76C-0.833,8.198,3.333,1.894,9.702,0.584c4.912-1.011,8.978,0.551,12.144,4.443
		C21.861,5.046,21.878,5.063,21.894,5.081z"/>
	<path class="st4" d="M27.299,13.72c-0.022-0.11-0.021-0.22,0.001-0.329c0.072-0.052,0.155-0.027,0.233-0.027
		c11.215-0.001,22.43-0.001,33.645,0c0.077,0,0.16-0.029,0.23,0.031c0,0.107,0.001,0.214,0.001,0.322
		c-0.072,0.052-0.155,0.027-0.233,0.027c-11.214,0.001-22.428,0.001-33.643,0C27.455,13.744,27.373,13.765,27.299,13.72z"/>
	<path class="st3" d="M44.434,12.085c-0.002-1.51-0.002-3.02-0.009-4.531c-0.001-0.146,0.056-0.172,0.183-0.168
		c0.247,0.008,0.496,0.015,0.743-0.002c0.163-0.011,0.219,0.059,0.262,0.199c0.258,0.83,0.524,1.657,0.818,2.487
		c0.004-0.063,0.011-0.125,0.011-0.188c0.001-0.759,0.004-1.518-0.003-2.277c-0.001-0.155,0.02-0.223,0.202-0.221
		C47.24,7.388,47.24,7.38,47.24,7.976c0,1.303-0.004,2.605,0.005,3.908c0.001,0.2-0.056,0.27-0.254,0.249
		c-0.221-0.024-0.497,0.087-0.651-0.044c-0.141-0.12-0.157-0.389-0.223-0.593c-0.275-0.858-0.549-1.718-0.823-2.576
		c-0.138,0.028-0.072,0.139-0.073,0.208c-0.005,0.911-0.003,1.822-0.003,2.732c0,0.254-0.001,0.259-0.264,0.252
		C44.78,12.107,44.604,12.145,44.434,12.085z"/>
	<path class="st3" d="M27.253,12.129c-0.004-0.622-0.011-1.245-0.011-1.867c0-0.121-0.013-0.207-0.165-0.185
		c-0.108,0.016-0.138-0.043-0.134-0.14c0.005-0.104,0.008-0.208-0.001-0.311c-0.009-0.105,0.029-0.151,0.133-0.137
		c0.148,0.019,0.167-0.062,0.166-0.186c-0.005-0.567,0.003-1.134-0.006-1.7c-0.003-0.16,0.03-0.223,0.206-0.218
		c0.431,0.013,0.862,0,1.293,0.006c0.809,0.011,1.208,0.41,1.213,1.213c0.004,0.71,0.001,1.421,0.001,2.131
		c0,0.924-0.168,1.15-1.034,1.396c-0.35,0.068-0.704,0.022-1.056,0.027C27.657,12.161,27.452,12.198,27.253,12.129z"/>
	<path class="st3" d="M54.329,9.584c0.52,0.216,0.634,0.619,0.62,1.09c-0.002,0.08,0,0.16,0,0.24
		c-0.004,0.761-0.341,1.15-1.096,1.201c-0.493,0.034-0.99,0.009-1.485,0.017c-0.125,0.002-0.144-0.061-0.142-0.164
		c0.004-0.184,0.001-0.368,0.001-0.551c0-1.262,0.005-2.525-0.005-3.787c-0.002-0.206,0.059-0.256,0.254-0.245
		c0.525,0.031,1.055-0.05,1.578,0.049c0.516,0.098,0.757,0.378,0.805,0.897c0.004,0.048,0.007,0.096,0.008,0.144
		C54.879,8.923,54.829,9.343,54.329,9.584z"/>
	<path class="st3" d="M37.846,9.764c0-0.719,0.007-1.439-0.005-2.158c-0.003-0.185,0.053-0.237,0.228-0.22
		c0.15,0.015,0.305,0.015,0.455,0c0.176-0.017,0.211,0.056,0.208,0.217c-0.009,0.543,0.001,1.087-0.006,1.631
		c-0.002,0.146,0.022,0.229,0.194,0.211c0.259-0.028,0.6,0.112,0.757-0.058c0.126-0.135,0.039-0.47,0.042-0.717
		c0.003-0.36,0.007-0.72-0.002-1.079c-0.004-0.149,0.028-0.221,0.195-0.205c0.229,0.022,0.527-0.094,0.671,0.043
		c0.146,0.139,0.043,0.439,0.044,0.668c0.005,1.263-0.003,2.526,0.007,3.789c0.002,0.203-0.057,0.269-0.254,0.247
		c-0.142-0.016-0.289-0.017-0.431,0c-0.2,0.024-0.237-0.064-0.233-0.243c0.011-0.519-0.003-1.039,0.008-1.559
		c0.004-0.172-0.051-0.225-0.216-0.209c-0.251,0.025-0.579-0.106-0.736,0.053c-0.145,0.147-0.036,0.471-0.041,0.717
		c-0.006,0.336-0.01,0.672,0.002,1.007c0.006,0.17-0.028,0.255-0.22,0.233c-0.212-0.025-0.49,0.087-0.624-0.044
		c-0.134-0.132-0.039-0.409-0.041-0.622C37.842,10.899,37.846,10.331,37.846,9.764z"/>
	<path class="st3" d="M43.862,9.755c0,0.408,0.005,0.816-0.001,1.223c-0.01,0.697-0.35,1.078-1.04,1.177
		c-0.183,0.026-0.367,0.027-0.55,0.006c-0.732-0.084-1.094-0.489-1.096-1.229c-0.002-0.783-0.002-1.567,0-2.35
		c0.002-0.779,0.434-1.218,1.214-1.238c0.248-0.007,0.494,0,0.734,0.082c0.45,0.155,0.705,0.468,0.727,0.939
		c0.021,0.463,0.005,0.927,0.005,1.391C43.856,9.755,43.859,9.755,43.862,9.755z"/>
	<path class="st3" d="M58.658,9.757c0-0.408-0.004-0.815,0.001-1.223c0.008-0.719,0.417-1.148,1.136-1.187
		c0.223-0.012,0.446-0.014,0.668,0.038c0.516,0.122,0.828,0.429,0.857,0.956c0.054,0.949,0.052,1.901-0.001,2.851
		c-0.026,0.467-0.3,0.763-0.739,0.901c-0.359,0.113-0.726,0.112-1.09,0.021c-0.525-0.131-0.814-0.497-0.829-1.062
		c-0.012-0.431-0.002-0.863-0.002-1.295C58.659,9.757,58.659,9.757,58.658,9.757z"/>
	<path class="st3" d="M48.7,11.178c0.073,0.235,0.221,0.324,0.491,0.295c0.216-0.023,0.365-0.124,0.372-0.359
		c0.008-0.271,0.002-0.543,0.011-0.814c0.005-0.137-0.08-0.142-0.17-0.127c-0.197,0.032-0.236-0.057-0.232-0.238
		c0.011-0.446,0.002-0.447,0.452-0.446c0.216,0,0.431,0.005,0.647-0.002c0.116-0.003,0.15,0.041,0.149,0.154
		c-0.006,0.479,0.009,0.959-0.009,1.438c-0.023,0.611-0.357,0.972-0.963,1.067c-0.149,0.023-0.302,0.03-0.453,0.026
		c-0.807-0.022-1.214-0.442-1.216-1.249c-0.001-0.783-0.002-1.566,0-2.348c0.002-0.789,0.422-1.215,1.21-1.229
		c0.136-0.002,0.273-0.007,0.407,0.011c0.669,0.09,1.01,0.493,1.022,1.195c0.008,0.458,0.008,0.458-0.445,0.458
		c-0.396,0-0.396,0-0.4-0.407c-0.005-0.466-0.216-0.654-0.608-0.545c-0.151,0.042-0.259,0.121-0.267,0.293
		C48.696,9.291,48.693,10.235,48.7,11.178z"/>
	<path class="st3" d="M56.859,7.389c0.175,0.022,0.449-0.093,0.585,0.047c0.122,0.124,0.1,0.39,0.139,0.594
		c0.244,1.277,0.484,2.555,0.733,3.83c0.038,0.193,0.041,0.304-0.209,0.274c-0.205-0.024-0.458,0.056-0.608-0.039
		c-0.159-0.1-0.113-0.381-0.149-0.582c-0.029-0.156-0.077-0.216-0.24-0.206c-0.239,0.014-0.479,0.01-0.719,0.001
		c-0.121-0.005-0.17,0.035-0.182,0.156c-0.012,0.118-0.062,0.234-0.067,0.352c-0.009,0.245-0.105,0.333-0.365,0.321
		c-0.511-0.024-0.512-0.007-0.417-0.507c0.255-1.348,0.514-2.696,0.76-4.046c0.03-0.164,0.09-0.211,0.246-0.199
		C56.517,7.398,56.67,7.389,56.859,7.389z"/>
	<path class="st3" d="M32.483,12.127c-0.047-0.225-0.103-0.449-0.137-0.676c-0.017-0.114-0.063-0.147-0.169-0.142
		c-0.119,0.006-0.239,0.001-0.358,0.001c-0.58,0-0.579,0-0.681,0.584c-0.014,0.078-0.034,0.155-0.051,0.233
		c-0.27,0.046-0.54,0.072-0.808-0.011c0.287-1.521,0.577-3.042,0.859-4.565c0.024-0.132,0.075-0.169,0.202-0.166
		c0.328,0.007,0.655,0.006,0.983,0.001c0.102-0.002,0.159,0.021,0.18,0.134c0.282,1.506,0.567,3.012,0.85,4.518
		c0.006,0.03-0.006,0.063-0.009,0.094C33.056,12.176,32.769,12.187,32.483,12.127z"/>
	<path class="st3" d="M36.566,10.107c0,0.608-0.005,1.215,0.004,1.823c0.002,0.156-0.04,0.216-0.2,0.202
		c-0.159-0.013-0.32-0.013-0.479,0c-0.171,0.015-0.214-0.051-0.213-0.216c0.006-1.191-0.002-2.383,0.009-3.574
		c0.002-0.22-0.056-0.309-0.277-0.273c-0.062,0.01-0.128,0.002-0.192,0.002c-0.487,0-0.552-0.085-0.468-0.58
		c0.018-0.106,0.076-0.103,0.15-0.103c0.816,0,1.631,0.002,2.447-0.002c0.112-0.001,0.149,0.032,0.156,0.148
		c0.032,0.536,0.036,0.536-0.488,0.536c-0.448,0-0.448,0-0.448,0.453C36.566,9.052,36.566,9.58,36.566,10.107z"/>
	<path class="st5" d="M40.786,17.414c0.092,0.12,0.078,0.017,0.079-0.039c0.001-0.328,0-0.655,0-0.983
		c0-0.304,0.009-0.608-0.003-0.911c-0.007-0.171,0.086-0.168,0.209-0.171c0.129-0.004,0.184,0.028,0.183,0.172
		c-0.006,0.831-0.001,1.662-0.006,2.493c-0.001,0.083,0.065,0.222-0.07,0.242c-0.138,0.02-0.292,0.061-0.401-0.115
		c-0.315-0.509-0.647-1.008-0.973-1.511c-0.108-0.167-0.217-0.333-0.334-0.511c-0.069,0.079-0.039,0.161-0.039,0.233
		c-0.003,0.575-0.006,1.151,0.002,1.726c0.002,0.146-0.036,0.198-0.187,0.192c-0.136-0.006-0.219-0.01-0.217-0.189
		c0.009-0.831,0.002-1.662,0.007-2.493c0-0.082-0.06-0.219,0.089-0.229c0.124-0.009,0.266-0.061,0.364,0.097
		c0.248,0.401,0.506,0.795,0.764,1.189c0.157,0.24,0.32,0.476,0.48,0.713C40.777,17.336,40.802,17.363,40.786,17.414z"/>
	<path class="st3" d="M56.858,16.104c0,0.637-0.006,1.275,0.004,1.912c0.002,0.167-0.043,0.215-0.212,0.217
		c-0.179,0.002-0.187-0.08-0.186-0.217c0.004-0.799-0.002-1.599,0.007-2.398c0.001-0.1-0.091-0.262,0.087-0.299
		c0.167-0.035,0.306-0.006,0.418,0.178c0.388,0.633,0.802,1.251,1.206,1.875c0.022,0.033,0.046,0.064,0.071,0.099
		c0.079-0.045,0.04-0.116,0.04-0.171c0.003-0.592,0.005-1.183,0-1.775c-0.001-0.137,0.007-0.218,0.186-0.219
		c0.183,0,0.204,0.074,0.203,0.227c-0.006,0.807,0,1.615-0.007,2.422c-0.001,0.089,0.077,0.234-0.072,0.262
		c-0.149,0.028-0.3,0.041-0.411-0.142c-0.311-0.512-0.646-1.009-0.972-1.512c-0.104-0.16-0.208-0.319-0.312-0.478
		C56.891,16.092,56.874,16.098,56.858,16.104z"/>
	<path class="st5" d="M28.841,16.7c0.365,0.204,0.503,0.461,0.45,0.807c-0.06,0.389-0.26,0.614-0.658,0.688
		c-0.394,0.074-0.796,0.018-1.194,0.03c-0.11,0.003-0.102-0.075-0.102-0.148c0-0.87,0.001-1.74-0.001-2.61
		c0-0.108,0.027-0.16,0.148-0.157c0.327,0.01,0.655-0.006,0.981,0.02c0.334,0.027,0.623,0.146,0.725,0.516
		C29.285,16.198,29.201,16.416,28.841,16.7z"/>
	<path class="st3" d="M53.539,16.747c0.017-0.315,0.055-0.622,0.213-0.903c0.32-0.571,1.053-0.743,1.596-0.376
		c0.244,0.165,0.425,0.093,0.494-0.197c0.009-0.039,0.012-0.079,0.019-0.118c0.025-0.154,0.146-0.086,0.229-0.094
		c0.105-0.01,0.108,0.059,0.101,0.141c-0.023,0.254-0.113,0.47-0.354,0.584c-0.107,0.051-0.137,0.084-0.088,0.209
		c0.172,0.438,0.157,0.897,0.066,1.345c-0.127,0.619-0.541,0.939-1.13,0.926c-0.546-0.012-0.97-0.386-1.084-0.971
		C53.565,17.114,53.558,16.93,53.539,16.747z"/>
	<path class="st6" d="M50.206,18.227c-0.374-0.002-0.374-0.002-0.374-0.38c0-0.263-0.006-0.525,0.002-0.788
		c0.004-0.136-0.042-0.179-0.178-0.177c-0.366,0.008-0.732,0.007-1.098,0c-0.126-0.002-0.166,0.041-0.163,0.164
		c0.007,0.294,0.002,0.589,0.002,0.883c0,0.33-0.08,0.377-0.416,0.244c-0.038-0.04-0.028-0.09-0.028-0.136c0-0.847,0-1.694,0-2.54
		c0-0.047-0.01-0.097,0.029-0.136c0.339-0.129,0.415-0.083,0.415,0.252c0,0.255,0.005,0.511-0.002,0.766
		c-0.003,0.125,0.02,0.189,0.168,0.185c0.367-0.01,0.735-0.009,1.102,0c0.147,0.004,0.172-0.062,0.169-0.187
		c-0.006-0.255-0.002-0.511-0.002-0.766c0-0.333,0.059-0.371,0.395-0.254c0.036,0.04,0.027,0.09,0.027,0.137
		c0,0.863,0.001,1.726-0.001,2.588C50.253,18.134,50.283,18.201,50.206,18.227z"/>
	<path class="st7" d="M50.81,16.412c0-0.304,0.007-0.608-0.003-0.911c-0.005-0.144,0.033-0.194,0.185-0.194
		c0.156,0,0.207,0.042,0.204,0.202c-0.009,0.591-0.01,1.183-0.001,1.775c0.007,0.479,0.322,0.731,0.795,0.652
		c0.313-0.052,0.494-0.225,0.504-0.545c0.02-0.615,0.018-1.23,0.021-1.846c0.001-0.136-0.011-0.242,0.19-0.241
		c0.19,0.001,0.207,0.086,0.2,0.233c-0.003,0.063-0.042,0.156,0.053,0.184c0.073,0.021,0.138-0.031,0.194-0.076
		c0.108-0.087,0.147-0.211,0.148-0.341c0.001-0.158,0.098-0.151,0.209-0.15c0.163,0.002,0.123,0.114,0.112,0.203
		c-0.043,0.368-0.194,0.545-0.572,0.64c-0.119,0.03-0.15,0.082-0.148,0.195c0.005,0.352,0.005,0.704,0.001,1.055
		c-0.006,0.628-0.408,1.016-1.05,1.016c-0.656,0-1.038-0.369-1.043-1.013C50.808,16.972,50.81,16.692,50.81,16.412z"/>
	<path class="st7" d="M44.039,17.847c-0.393,0.447-0.897,0.505-1.424,0.351c-0.513-0.15-0.729-0.565-0.79-1.069
		c-0.048-0.4-0.042-0.799,0.108-1.181c0.19-0.483,0.64-0.726,1.204-0.656c0.511,0.063,0.807,0.353,0.877,0.866
		c-0.199,0.024-0.356,0.054-0.461-0.215c-0.175-0.449-0.897-0.459-1.176-0.042c-0.249,0.372-0.246,1.337,0.006,1.709
		c0.238,0.352,0.805,0.457,1.159,0.216c0.071-0.048,0.114-0.105,0.11-0.197c-0.005-0.12-0.009-0.24,0.001-0.36
		c0.012-0.142-0.051-0.184-0.182-0.174c-0.103,0.008-0.208-0.006-0.311,0.003c-0.134,0.012-0.18-0.034-0.179-0.173
		c0-0.137,0.061-0.158,0.174-0.152c0.295,0.016,0.591-0.025,0.885,0.022C44.082,17.147,44.083,17.497,44.039,17.847z"/>
	<path class="st7" d="M36.163,16.777c-0.01-0.303,0.02-0.587,0.15-0.853c0.21-0.431,0.554-0.652,1.034-0.64
		c0.469,0.011,0.815,0.233,0.986,0.671c0.212,0.54,0.211,1.097,0.001,1.637c-0.174,0.449-0.527,0.668-1.008,0.672
		c-0.482,0.004-0.821-0.226-1.024-0.657C36.177,17.341,36.151,17.055,36.163,16.777z"/>
	<path class="st7" d="M29.744,16.786c-0.016-0.308,0.022-0.6,0.155-0.871c0.207-0.42,0.546-0.638,1.016-0.631
		c0.468,0.007,0.82,0.222,0.994,0.659c0.218,0.547,0.216,1.111,0.002,1.659c-0.172,0.439-0.52,0.654-0.99,0.662
		c-0.481,0.008-0.826-0.215-1.031-0.646C29.765,17.353,29.726,17.069,29.744,16.786z"/>
	<path class="st3" d="M61.493,16.157c-0.202,0.032-0.355,0.047-0.458-0.215c-0.163-0.416-0.842-0.461-1.134-0.099
		c-0.054,0.067-0.102,0.146-0.127,0.228c-0.138,0.453-0.155,0.913,0.003,1.362c0.173,0.49,0.802,0.683,1.237,0.399
		c0.072-0.047,0.122-0.102,0.113-0.194c-0.003-0.032-0.001-0.064,0-0.096c0.003-0.44,0.003-0.446-0.434-0.44
		c-0.159,0.002-0.267-0.012-0.237-0.213c0.012-0.081,0.042-0.112,0.119-0.112c0.272,0.001,0.543,0.003,0.815-0.001
		c0.098-0.001,0.12,0.046,0.119,0.132c-0.003,0.287,0.002,0.575-0.002,0.862c-0.003,0.169-0.139,0.243-0.26,0.317
		c-0.796,0.486-1.748,0.074-1.919-0.843c-0.081-0.435-0.078-0.876,0.086-1.298c0.187-0.481,0.641-0.723,1.204-0.653
		C61.125,15.354,61.425,15.648,61.493,16.157z"/>
	<path class="st7" d="M33.529,16.763c-0.02-0.294,0.011-0.576,0.134-0.845c0.281-0.616,1.092-0.842,1.65-0.458
		c0.193,0.132,0.32,0.317,0.369,0.541c0.016,0.074,0.154,0.212-0.025,0.25c-0.129,0.027-0.302,0.077-0.346-0.16
		c-0.055-0.293-0.249-0.455-0.549-0.482c-0.327-0.029-0.611,0.105-0.725,0.397c-0.198,0.508-0.198,1.033-0.001,1.541
		c0.114,0.295,0.378,0.423,0.697,0.398c0.314-0.024,0.479-0.16,0.58-0.479c0.049-0.154,0.229-0.234,0.368-0.167
		c0.093,0.044,0.035,0.108,0.023,0.163c-0.097,0.453-0.385,0.721-0.848,0.789c-0.506,0.075-0.934-0.124-1.157-0.537
		C33.54,17.415,33.507,17.093,33.529,16.763z"/>
	<path class="st8" d="M46.247,15.689c-0.226-0.098-0.463-0.025-0.694-0.042c-0.116-0.009-0.213,0.01-0.213-0.166
		c0-0.169,0.084-0.17,0.208-0.169c0.612,0.003,1.225,0.004,1.838,0c0.125-0.001,0.206,0.003,0.207,0.171
		c0.001,0.178-0.099,0.156-0.214,0.165c-0.231,0.018-0.468-0.056-0.694,0.042c0.045,0.406,0.012,0.813,0.018,1.22
		c0.006,0.376,0.004,0.752-0.001,1.127c-0.001,0.064,0.042,0.146-0.046,0.191c-0.127,0-0.253,0-0.38,0
		c-0.067-0.018-0.049-0.073-0.049-0.117c0-0.785-0.002-1.57,0-2.354C46.227,15.731,46.239,15.711,46.247,15.689z"/>
	<path class="st9" d="M27.299,13.72c11.266,0,22.532-0.001,33.798-0.001c0.104,0,0.208-0.002,0.312-0.003
		c-0.067,0.087-0.162,0.052-0.245,0.052c-11.206,0.002-22.411,0.002-33.617,0C27.463,13.768,27.369,13.801,27.299,13.72z"/>
	<path class="st10" d="M61.408,13.394c-0.104-0.001-0.208-0.002-0.312-0.002c-11.161,0-22.323,0-33.484,0
		c-0.104,0-0.208-0.001-0.312-0.001c0.067-0.086,0.162-0.051,0.245-0.052c11.207-0.002,22.413-0.002,33.62,0
		C61.248,13.339,61.344,13.302,61.408,13.394z"/>
	<path class="st7" d="M32.184,7.155c-0.137,0.014-0.272-0.038-0.411-0.074c-0.204-0.053-0.385-0.083-0.582,0.078
		c-0.132,0.108-0.26-0.085-0.384-0.15c-0.127-0.067-0.022-0.154,0.017-0.218c0.16-0.262,0.471-0.372,0.822-0.295
		c0.124,0.027,0.247,0.063,0.37,0.099c0.123,0.036,0.236,0.013,0.348-0.041c0.061-0.03,0.079-0.148,0.165-0.109
		c0.122,0.056,0.237,0.132,0.346,0.211c0.066,0.048-0.002,0.103-0.025,0.146C32.709,7.06,32.485,7.171,32.184,7.155z"/>
	<path class="st7" d="M43.573,7.161c-0.199,0-0.397-0.005-0.596,0.001C42.792,7.168,42.737,7,42.623,6.91
		c-0.059-0.047-0.116-0.145-0.186-0.03c-0.245,0.405-0.633,0.258-1.035,0.278c0.24-0.246,0.45-0.458,0.655-0.674
		c0.058-0.061,0.129-0.044,0.198-0.055c0.462-0.074,0.836,0.052,1.11,0.45c0.059,0.086,0.169,0.138,0.256,0.206
		C43.606,7.11,43.589,7.135,43.573,7.161z"/>
	<path class="st6" d="M56.368,7.157c0.017-0.047,0.018-0.055,0.022-0.061c0.463-0.689,0.463-0.689,1.362-0.657
		c-0.228,0.205-0.438,0.365-0.613,0.558C56.916,7.243,56.648,7.14,56.368,7.157z"/>
	<path class="st11" d="M36.72,15.087c0.166-0.186,0.303-0.357,0.46-0.508c0.086-0.083,0.214-0.078,0.301,0.009
		c0.149,0.15,0.282,0.316,0.44,0.495c-0.195,0.056-0.333,0.033-0.433-0.121c-0.106-0.164-0.211-0.195-0.323-0.006
		C37.07,15.119,36.927,15.137,36.72,15.087z"/>
	<path class="st11" d="M31.5,15.082c-0.234,0.079-0.366-0.006-0.465-0.159c-0.091-0.141-0.174-0.136-0.26,0.002
		c-0.099,0.159-0.235,0.23-0.459,0.163c0.146-0.203,0.304-0.382,0.486-0.534c0.062-0.051,0.187-0.049,0.263,0.034
		C31.207,14.744,31.344,14.904,31.5,15.082z"/>
	<path class="st12" d="M48.7,11.178c-0.048-0.106-0.03-0.219-0.03-0.329c-0.002-0.731-0.001-1.463,0-2.194
		c0-0.102-0.015-0.207,0.028-0.306c0.058,0.047,0.046,0.114,0.046,0.176c0,0.825,0.001,1.651,0,2.476
		C48.744,11.063,48.757,11.129,48.7,11.178z"/>
	<path class="st12" d="M52.157,12.074c0-1.541,0-3.081,0-4.622c0.008,0,0.016,0,0.023,0c0,1.544,0,3.087,0,4.631
		C52.173,12.08,52.165,12.077,52.157,12.074z"/>
	<path class="st13" d="M37.764,12.074c0-1.541,0-3.081,0-4.622c0.008,0,0.016,0,0.024,0c0,1.544,0,3.088,0,4.631
		C37.78,12.081,37.772,12.077,37.764,12.074z"/>
	<path class="st14" d="M44.434,12.085c0.183,0.003,0.367-0.003,0.55,0.011c0.168,0.013,0.218-0.049,0.217-0.216
		c-0.007-0.98-0.004-1.961-0.004-2.942c0-0.053,0-0.106,0-0.176c0.099,0.033,0.1,0.093,0.097,0.156
		c-0.083,0.06-0.043,0.147-0.043,0.221c-0.003,0.924-0.006,1.849,0.002,2.773c0.001,0.174-0.041,0.259-0.225,0.229
		C44.831,12.109,44.622,12.209,44.434,12.085z"/>
	<path class="st15" d="M31.107,18.677c-0.001,0.172-0.077,0.244-0.221,0.242c-0.134-0.002-0.208-0.079-0.208-0.206
		c-0.001-0.139,0.077-0.22,0.223-0.216C31.033,18.501,31.1,18.574,31.107,18.677z"/>
	<path class="st16" d="M47.983,15.363c0,0.938-0.001,1.875-0.001,2.813c-0.075,0.029-0.052-0.032-0.052-0.061
		c-0.001-0.898-0.001-1.796,0-2.694c0-0.022,0.007-0.044,0.015-0.064C47.945,15.354,47.969,15.36,47.983,15.363z"/>
	<path class="st17" d="M50.206,18.227c0.004-0.821,0.008-1.642,0.013-2.462c0.001-0.135,0.006-0.271,0.008-0.406
		c0.095-0.017,0.05,0.059,0.05,0.088c0.003,0.867,0.003,1.733,0.002,2.6C50.279,18.114,50.298,18.194,50.206,18.227z"/>
	<path class="st16" d="M38.968,18.178c0-0.939,0-1.878,0-2.818c0.007,0,0.015,0,0.022,0c0,0.939,0,1.878,0,2.818
		C38.983,18.178,38.975,18.178,38.968,18.178z"/>
	<path class="st17" d="M27.257,18.167c0-0.933,0-1.866,0-2.799c0.008,0,0.016,0,0.024,0c0,0.936,0,1.872,0,2.808
		C27.273,18.174,27.265,18.17,27.257,18.167z"/>
	<path class="st17" d="M30.027,8.412c0,0.901,0,1.802,0,2.703c-0.008,0-0.016,0-0.024,0c0-0.904,0-1.808,0-2.713
		C30.011,8.405,30.019,8.409,30.027,8.412z"/>
	<path class="st17" d="M58.62,8.412c0,0.901,0,1.802,0,2.703c-0.008,0-0.016,0-0.024,0c0-0.904,0-1.808,0-2.713
		C58.605,8.406,58.612,8.409,58.62,8.412z"/>
	<path class="st18" d="M46.247,15.689c0.005,0.695,0.01,1.389,0.017,2.084c0.001,0.152,0.008,0.303,0.013,0.455
		c-0.067-0.021-0.074-0.075-0.074-0.133c0-0.766-0.001-1.533,0.002-2.299C46.204,15.759,46.232,15.724,46.247,15.689z"/>
	<path class="st19" d="M46.656,18.227c0.004-0.751,0.008-1.502,0.013-2.253c0.001-0.095,0.01-0.19,0.015-0.286
		c0.064,0.057,0.044,0.133,0.044,0.202c0.001,0.71,0.002,1.42-0.001,2.13C46.728,18.095,46.759,18.187,46.656,18.227z"/>
	<path class="st20" d="M40.786,17.414c-0.018-0.032-0.036-0.063-0.054-0.095c0.059-0.094,0.048-0.198,0.048-0.302
		c0-0.554,0-1.109,0.026-1.663C40.797,16.041,40.883,16.729,40.786,17.414z"/>
	<path class="st21" d="M27.253,12.129c0.554,0.001,1.108,0.001,1.662,0.002c0.025,0.01,0.065,0.045,0.054,0.045
		c-0.567-0.007-1.136,0.055-1.701-0.028C27.262,12.146,27.258,12.135,27.253,12.129z"/>
	<path class="st10" d="M44.039,17.847c0-0.35,0-0.7,0.001-1.05c0.013,0,0.027-0.001,0.04-0.001
		C44.074,17.146,44.146,17.5,44.039,17.847z"/>
	<path class="st22" d="M32.483,12.127c0.287,0.002,0.573,0.003,0.86,0.005C33.055,12.218,32.769,12.228,32.483,12.127z"/>
	<path class="st22" d="M30.278,12.117c0.269,0.004,0.539,0.007,0.808,0.011C30.816,12.216,30.546,12.233,30.278,12.117z"/>
	<path class="st2" d="M21.495,11.065c0.102,0.597,0.125,1.201,0.082,1.804c-0.195,2.742-1.337,5.008-3.469,6.749
		c-5.39,4.399-13.662,1.399-14.995-5.431c-1-5.123,2.271-9.99,7.395-11.003c3.914-0.774,8.007,1.145,9.919,4.644
		c0.079,0.144,0.07,0.2-0.08,0.282c-0.261,0.144-0.442,0.39-0.651,0.598c-2.671,2.654-5.341,5.31-8.003,7.973
		c-0.157,0.157-0.226,0.132-0.367-0.009c-1.417-1.421-2.841-2.835-4.264-4.25c-0.454-0.452-0.954-0.451-1.407-0.001
		c-0.238,0.237-0.479,0.471-0.713,0.711c-0.388,0.398-0.39,0.902,0.006,1.298c1.965,1.959,3.931,3.916,5.9,5.87
		c0.419,0.416,0.906,0.407,1.333-0.016c3.034-3.016,6.066-6.033,9.097-9.051c0.061-0.061,0.101-0.143,0.151-0.215
		C21.45,11.033,21.472,11.049,21.495,11.065z"/>
	<path class="st23" d="M28.162,11.415c-0.086-0.414-0.022-0.833-0.034-1.249c-0.004-0.126,0.113-0.076,0.183-0.087
		c0.115-0.018,0.277,0.061,0.337-0.04c0.078-0.133,0.022-0.31,0.025-0.468c0.001-0.062-0.044-0.078-0.096-0.08
		c-0.064-0.001-0.129-0.01-0.191,0c-0.207,0.032-0.281-0.04-0.267-0.258c0.02-0.326,0.01-0.653,0.003-0.98
		c-0.003-0.129,0.03-0.195,0.173-0.182c0.158,0.015,0.318-0.016,0.475,0.029c0.151,0.044,0.259,0.121,0.262,0.295
		c-0.011,0.913-0.004,1.825-0.004,2.738c-0.026,0.232-0.183,0.29-0.385,0.288c-0.033-0.027-0.074-0.025-0.113-0.026
		c-0.342-0.01-0.341-0.011-0.343-0.363c-0.002-0.28,0.009-0.56-0.019-0.838c-0.023-0.03-0.035,0.025-0.012,0.003
		C28.209,10.601,28.197,11.008,28.162,11.415z"/>
	<path class="st17" d="M29.027,11.131c-0.068-0.054-0.048-0.13-0.049-0.199c-0.001-0.78-0.001-1.561,0-2.341
		c0-0.069-0.018-0.146,0.052-0.198c0.047,0.064,0.03,0.138,0.03,0.208c0.001,0.774,0.001,1.548,0,2.322
		C29.061,10.994,29.077,11.068,29.027,11.131z"/>
	<path class="st17" d="M28.162,11.415c0-0.411,0-0.822,0-1.233c0.016,0,0.032,0,0.048-0.001c0,0.301,0.014,0.602-0.005,0.901
		c-0.014,0.226,0.053,0.327,0.286,0.29c0.054-0.009,0.112-0.005,0.151,0.048C28.482,11.442,28.322,11.452,28.162,11.415z"/>
	<path class="st24" d="M53.114,10.721c0-0.199,0.003-0.399-0.001-0.598c-0.002-0.101,0.033-0.147,0.139-0.14
		c0.103,0.007,0.208-0.002,0.311,0.005c0.355,0.026,0.482,0.154,0.497,0.51c0.007,0.175,0.008,0.351-0.002,0.526
		c-0.014,0.27-0.116,0.372-0.377,0.403c-0.566,0.066-0.566,0.066-0.566-0.491C53.114,10.865,53.114,10.793,53.114,10.721z"/>
	<path class="st25" d="M53.114,8.685c0-0.072-0.02-0.152,0.004-0.214c0.053-0.137-0.165-0.398,0.187-0.401
		c0.502-0.005,0.648,0.087,0.664,0.444c0.003,0.056,0.002,0.112,0.002,0.168c0,0.503-0.238,0.698-0.745,0.625
		c-0.101-0.014-0.114-0.062-0.113-0.142C53.115,9.004,53.114,8.845,53.114,8.685z"/>
	<path class="st23" d="M42.974,9.757c0,0.424,0.009,0.847-0.003,1.27c-0.009,0.341-0.198,0.487-0.535,0.444
		c-0.223-0.028-0.357-0.152-0.359-0.376c-0.006-0.895-0.008-1.79,0.001-2.685c0.002-0.244,0.173-0.377,0.434-0.383
		c0.257-0.006,0.436,0.117,0.447,0.364c0.019,0.454,0.005,0.91,0.005,1.366C42.967,9.757,42.97,9.757,42.974,9.757z"/>
	<path class="st23" d="M60.45,9.763c0,0.416,0.004,0.831-0.002,1.247c-0.004,0.324-0.145,0.465-0.446,0.467
		c-0.308,0.001-0.455-0.149-0.456-0.483c-0.003-0.823-0.002-1.646,0-2.47c0.001-0.333,0.15-0.495,0.449-0.497
		c0.3-0.003,0.45,0.155,0.454,0.49C60.454,8.932,60.45,9.348,60.45,9.763z"/>
	<path class="st24" d="M56.379,10.508c0.112-0.654,0.224-1.308,0.336-1.963c0.035-0.029-0.008-0.127,0.089-0.1
		c0.119,0.68,0.238,1.361,0.356,2.041c0.007,0.039,0.055,0.089-0.019,0.116c-0.183-0.055-0.371-0.01-0.556-0.025
		C56.51,10.572,56.424,10.601,56.379,10.508z"/>
	<path class="st26" d="M56.379,10.508c0.149,0.085,0.311,0.03,0.467,0.048c0.099,0.011,0.208-0.039,0.294,0.047
		c-0.213,0.004-0.425,0.009-0.638,0.011C56.434,10.614,56.346,10.629,56.379,10.508z"/>
	<path class="st27" d="M56.804,8.445c-0.058,0.008-0.053,0.072-0.089,0.1c-0.003-0.038-0.01-0.077-0.007-0.114
		c0.003-0.042-0.005-0.111,0.057-0.103C56.816,8.335,56.81,8.399,56.804,8.445z"/>
	<path class="st24" d="M31.382,10.555c0.123-0.711,0.245-1.422,0.368-2.133c0.019-0.001,0.038-0.001,0.057-0.002
		c0.125,0.712,0.249,1.424,0.374,2.135C31.914,10.593,31.648,10.592,31.382,10.555z"/>
	<path class="st28" d="M31.382,10.555c0.266,0,0.532,0,0.799,0C31.914,10.656,31.648,10.653,31.382,10.555z"/>
	<path class="st24" d="M27.729,17.381c0-0.504,0-0.504,0.512-0.504c0.458,0,0.602,0.091,0.66,0.414
		c0.057,0.321-0.12,0.57-0.447,0.604c-0.189,0.019-0.382,0.002-0.572,0.014c-0.136,0.009-0.161-0.055-0.154-0.17
		C27.735,17.62,27.729,17.5,27.729,17.381z"/>
	<path class="st24" d="M27.729,16.085c0-0.443,0-0.443,0.453-0.441c0.087,0,0.176,0,0.261,0.013
		c0.267,0.041,0.389,0.177,0.391,0.425c0.002,0.238-0.151,0.432-0.395,0.46c-0.196,0.023-0.397,0.007-0.595,0.013
		c-0.1,0.003-0.118-0.053-0.116-0.136C27.731,16.308,27.729,16.196,27.729,16.085z"/>
	<path class="st23" d="M53.945,16.779c-0.009-0.249,0.009-0.495,0.115-0.725c0.129-0.279,0.343-0.428,0.657-0.43
		c0.315-0.002,0.547,0.137,0.654,0.427c0.176,0.478,0.176,0.967,0.002,1.447c-0.107,0.294-0.342,0.435-0.65,0.435
		c-0.296,0-0.518-0.136-0.649-0.408C53.961,17.288,53.934,17.037,53.945,16.779z"/>
	<path class="st23" d="M36.554,16.763c-0.015-0.254,0.001-0.491,0.107-0.713c0.132-0.277,0.345-0.426,0.66-0.426
		c0.315,0,0.545,0.144,0.654,0.43c0.177,0.47,0.17,0.955,0.008,1.428c-0.1,0.292-0.332,0.444-0.641,0.45
		c-0.318,0.006-0.546-0.144-0.681-0.434C36.55,17.26,36.538,17.007,36.554,16.763z"/>
	<path class="st23" d="M31.665,16.771c0.01,0.247,0,0.485-0.096,0.711c-0.121,0.286-0.334,0.443-0.644,0.45
		c-0.308,0.007-0.552-0.128-0.668-0.414c-0.198-0.491-0.199-0.997,0-1.488c0.111-0.274,0.342-0.406,0.646-0.407
		c0.317-0.001,0.528,0.151,0.657,0.429C31.667,16.283,31.677,16.53,31.665,16.771z"/>
	<path class="st6" d="M16.713,7.076C16.608,7.215,16.499,7.35,16.4,7.493c-0.073,0.105-0.126,0.161-0.259,0.056
		c-0.121-0.096-0.086-0.154-0.014-0.247c0.196-0.252,0.381-0.512,0.578-0.763c0.04-0.052,0.063-0.179,0.171-0.107
		c0.092,0.061,0.221,0.104,0.194,0.266c-0.039,0.235-0.065,0.472-0.102,0.754c0.183-0.16,0.285-0.33,0.397-0.488
		c0.089-0.127,0.147-0.055,0.229-0.002c0.096,0.061,0.108,0.112,0.035,0.206c-0.207,0.263-0.402,0.536-0.608,0.8
		c-0.04,0.052-0.063,0.181-0.171,0.1c-0.082-0.06-0.209-0.091-0.185-0.246c0.038-0.243,0.061-0.489,0.091-0.734
		C16.741,7.084,16.727,7.08,16.713,7.076z"/>
	<path class="st5" d="M8.514,7.178C8.444,6.953,8.315,6.83,8.21,6.696C8.126,6.588,8.162,6.541,8.252,6.469
		C8.35,6.392,8.404,6.396,8.477,6.5C8.667,6.767,8.87,7.024,9.061,7.29c0.038,0.053,0.157,0.111,0.054,0.195
		C9.031,7.554,8.96,7.669,8.807,7.592c-0.217-0.11-0.447-0.197-0.73-0.32c0.156,0.212,0.265,0.377,0.392,0.527
		C8.567,7.915,8.486,7.956,8.41,8.02C8.327,8.088,8.273,8.101,8.201,7.998c-0.189-0.267-0.392-0.525-0.583-0.79
		C7.573,7.147,7.455,7.085,7.564,6.991C7.65,6.917,7.728,6.82,7.876,6.898C8.065,6.997,8.268,7.071,8.514,7.178z"/>
	<path class="st5" d="M6.401,9.455c-0.153-0.081-0.304-0.167-0.46-0.242C5.833,9.16,5.78,9.115,5.853,8.982
		c0.066-0.12,0.116-0.135,0.235-0.068c0.277,0.158,0.565,0.297,0.844,0.451C6.995,9.4,7.134,9.401,7.072,9.534
		C7.025,9.636,6.996,9.76,6.828,9.75c-0.229-0.014-0.46-0.004-0.694,0.023c0.138,0.162,0.323,0.225,0.49,0.314
		c0.107,0.057,0.104,0.111,0.055,0.207c-0.052,0.1-0.095,0.154-0.217,0.087c-0.286-0.159-0.58-0.303-0.865-0.463
		C5.537,9.884,5.394,9.883,5.456,9.75c0.047-0.102,0.079-0.221,0.245-0.217c0.23,0.007,0.46-0.017,0.691-0.028
		C6.395,9.488,6.398,9.472,6.401,9.455z"/>
	<path class="st29" d="M11.127,6.617c-0.141-0.003-0.317-0.122-0.402-0.339c-0.106-0.271-0.174-0.558,0.027-0.819
		c0.158-0.205,0.385-0.238,0.627-0.198c0.089,0.015,0.166,0.061,0.221,0.133c0.046,0.06,0.133,0.152,0.076,0.197
		c-0.073,0.058-0.203,0.129-0.298,0.015C11.29,5.5,11.192,5.48,11.082,5.536c-0.116,0.059-0.133,0.179-0.12,0.291
		c0.015,0.125,0.043,0.252,0.089,0.37c0.06,0.154,0.192,0.176,0.339,0.136c0.065-0.018,0.119-0.051,0.102-0.134
		c-0.013-0.065-0.026-0.133-0.117-0.11c-0.106,0.026-0.149-0.018-0.15-0.12c-0.001-0.106,0.08-0.101,0.149-0.115
		c0.054-0.011,0.111-0.017,0.163-0.034c0.158-0.054,0.225,0.003,0.255,0.165C11.867,6.395,11.672,6.621,11.127,6.617z"/>
	<path class="st29" d="M13.219,5.854c-0.033,0.444-0.264,0.689-0.621,0.659c-0.346-0.029-0.571-0.323-0.546-0.715
		c0.027-0.429,0.271-0.683,0.63-0.657C13.032,5.165,13.249,5.454,13.219,5.854z"/>
	<path class="st29" d="M5.841,11.56c-0.426,0.005-0.776-0.264-0.789-0.607c-0.012-0.328,0.247-0.592,0.583-0.596
		c0.421-0.005,0.784,0.275,0.788,0.608C6.428,11.299,6.177,11.556,5.841,11.56z"/>
	<path class="st29" d="M9.54,5.764c0.08,0.007,0.082,0.076,0.111,0.119C9.69,5.942,9.675,5.986,9.61,6.016
		C9.502,6.067,9.397,6.127,9.286,6.17C9.177,6.213,9.165,6.266,9.217,6.369c0.051,0.1,0.103,0.096,0.185,0.049
		c0.069-0.04,0.146-0.064,0.214-0.105c0.083-0.049,0.127-0.025,0.17,0.055c0.045,0.084,0.027,0.129-0.059,0.163
		c-0.074,0.03-0.14,0.077-0.215,0.105C9.396,6.68,9.404,6.744,9.454,6.838c0.048,0.09,0.088,0.145,0.198,0.076
		c0.087-0.055,0.186-0.092,0.278-0.14c0.082-0.043,0.138-0.043,0.188,0.055c0.052,0.103,0.006,0.139-0.076,0.177
		C9.847,7.099,9.653,7.191,9.463,7.293C9.37,7.343,9.326,7.323,9.282,7.23C9.128,6.907,8.968,6.585,8.807,6.265
		C8.766,6.184,8.772,6.139,8.86,6.098c0.202-0.094,0.401-0.197,0.601-0.296C9.489,5.788,9.518,5.774,9.54,5.764z"/>
	<path class="st29" d="M15.642,6.622c0.142-0.161,0.296-0.313,0.424-0.484c0.139-0.186,0.272-0.058,0.362,0.017
		c0.1,0.083-0.045,0.14-0.093,0.192c-0.216,0.234-0.444,0.457-0.66,0.691c-0.095,0.102-0.17,0.152-0.322,0.078
		c-0.158-0.077-0.145-0.18-0.127-0.31c0.044-0.323,0.083-0.647,0.13-0.97c0.009-0.062-0.04-0.201,0.101-0.151
		c0.094,0.033,0.26,0.035,0.229,0.217c-0.034,0.204-0.067,0.408-0.1,0.612C15.577,6.564,15.528,6.635,15.642,6.622z"/>
	<path class="st29" d="M13.98,6.137c0.103-0.201,0.224-0.396,0.303-0.606c0.07-0.186,0.182-0.182,0.334-0.145
		c0.101,0.024,0.11,0.064,0.06,0.148c-0.194,0.33-0.388,0.66-0.572,0.995c-0.064,0.116-0.15,0.098-0.244,0.077
		c-0.091-0.021-0.177-0.03-0.19-0.167c-0.033-0.357-0.092-0.711-0.13-1.067c-0.006-0.058-0.082-0.188,0.063-0.175
		c0.1,0.009,0.26-0.027,0.274,0.157c0.019,0.258,0.038,0.516,0.057,0.774C13.95,6.13,13.965,6.133,13.98,6.137z"/>
	<path class="st8" d="M6.421,8.212C6.457,8.24,6.496,8.268,6.533,8.297C6.722,8.445,6.92,8.582,7.096,8.743
		c0.129,0.118,0.199,0.081,0.278-0.042c0.043-0.067,0.1-0.125,0.145-0.191c0.057-0.085,0.109-0.063,0.177-0.012
		C7.767,8.552,7.791,8.602,7.719,8.67c-0.006,0.005-0.01,0.013-0.015,0.019c-0.151,0.185-0.273,0.475-0.46,0.525
		c-0.178,0.048-0.361-0.24-0.547-0.372C6.554,8.74,6.421,8.625,6.282,8.517C6.233,8.479,6.2,8.437,6.253,8.379
		C6.304,8.323,6.329,8.239,6.421,8.212z"/>
	<path class="st30" d="M7.187,7.331c0.037,0.03,0.069,0.051,0.096,0.078c0.254,0.253,0.503,0.509,0.761,0.757
		c0.092,0.088,0.062,0.142-0.015,0.21C7.965,8.433,7.921,8.513,7.821,8.408C7.575,8.148,7.317,7.9,7.065,7.645
		c-0.036-0.036-0.101-0.073-0.05-0.137C7.063,7.448,7.123,7.396,7.187,7.331z"/>
	<path class="st31" d="M14.741,6.653c-0.014,0.096-0.066,0.163-0.169,0.158c-0.094-0.004-0.171-0.053-0.174-0.158
		c-0.003-0.104,0.063-0.162,0.164-0.159C14.658,6.497,14.725,6.548,14.741,6.653z"/>
	<path class="st32" d="M10.602,6.695c-0.017,0.109-0.085,0.168-0.192,0.171c-0.092,0.002-0.145-0.054-0.149-0.148
		c-0.004-0.11,0.07-0.159,0.16-0.171C10.523,6.532,10.579,6.598,10.602,6.695z"/>
	<path class="st33" d="M15.642,6.622c-0.015,0.036-0.051,0.094-0.071,0.075c-0.059-0.056-0.018-0.124,0.014-0.184
		C15.598,6.552,15.598,6.599,15.642,6.622z"/>
	<path class="st34" d="M12.901,5.774c-0.004,0.32-0.105,0.481-0.272,0.475c-0.167-0.006-0.252-0.163-0.243-0.449
		c0.002-0.055,0.009-0.111,0.021-0.165c0.028-0.125,0.082-0.226,0.232-0.228c0.149-0.002,0.208,0.095,0.236,0.222
		C12.889,5.69,12.898,5.753,12.901,5.774z"/>
	<path class="st35" d="M5.861,11.236c-0.143-0.014-0.28-0.052-0.405-0.124c-0.099-0.056-0.153-0.139-0.126-0.256
		c0.03-0.13,0.126-0.171,0.25-0.17c0.145,0,0.283,0.034,0.41,0.103c0.111,0.061,0.194,0.143,0.153,0.286
		C6.101,11.219,5.987,11.239,5.861,11.236z"/>
</g>
</svg>
