<?xml version="1.0" encoding="utf-8"?>
<!-- Generator: Adobe Illustrator 19.1.0, SVG Export Plug-In . SVG Version: 6.00 Build 0)  -->
<svg version="1.1" id="Layer_1" xmlns="http://www.w3.org/2000/svg" xmlns:xlink="http://www.w3.org/1999/xlink" x="0px" y="0px"
	 viewBox="0 0 32 32" style="enable-background:new 0 0 32 32;" xml:space="preserve">
<style type="text/css">
	.st0{fill:#FFFFFF;}
</style>
<path class="st0" d="M27.271,17.052l-10.962,3.392c-0.103,0.035-0.206,0.035-0.309,0.035c-0.102,0-0.205,0-0.308-0.035L4.73,17.052
	c-0.549-0.142-0.823-0.743-0.685-1.308c0.136-0.565,0.719-0.883,1.267-0.707l10.654,3.287l10.654-3.287
	c0.548-0.176,1.131,0.142,1.336,0.707C28.128,16.309,27.819,16.875,27.271,17.052z M27.237,12.493l-10.963,3.392
	c-0.102,0.036-0.205,0.036-0.308,0.036s-0.205,0-0.308-0.036L4.695,12.493c-0.411-0.106-0.719-0.53-0.685-1.025
	c0-0.494,0.274-0.883,0.72-1.025l10.962-3.392c0.171-0.071,0.377-0.071,0.582,0l10.963,3.392c0.411,0.142,0.719,0.566,0.719,1.025
	C27.956,11.963,27.682,12.352,27.237,12.493z M5.312,19.561l10.654,3.286l10.654-3.286c0.548-0.177,1.131,0.141,1.336,0.706
	c0.172,0.566-0.137,1.131-0.685,1.308l-10.962,3.392c-0.103,0.035-0.206,0.035-0.309,0.035c-0.102,0-0.205,0-0.308-0.035
	L4.73,21.575c-0.549-0.142-0.857-0.742-0.685-1.308C4.181,19.702,4.764,19.384,5.312,19.561z"/>
</svg>
