<?xml version="1.0" encoding="utf-8"?>
<!-- Generator: Adobe Illustrator 19.1.0, SVG Export Plug-In . SVG Version: 6.00 Build 0)  -->
<svg version="1.1" id="Layer_1" xmlns="http://www.w3.org/2000/svg" xmlns:xlink="http://www.w3.org/1999/xlink" width="32" height="32" x="0px" y="0px" viewBox="5.7 17.1 32 32" style="enable-background:new 5.7 17.1 32 32;" xml:space="preserve">
    <style type="text/css">
    .st0 {
        fill: #28B8EB;
    }
    
    .st1 {
        fill: #24346E;
    }
    </style>
    <g>
        <path class="st0" d="M24.1,33.5h-1.6v1.6h1.6V33.5z M27.3,33.5h-1.6v1.6h1.6V33.5z M22.5,38.4h1.6v-1.6h-1.6V38.4z M24.1,30.3h-1.6
		v1.6h1.6V30.3z M30.5,30.3h-1.6v1.6h1.6V30.3z M30.5,33.5h-1.6v1.6h1.6V33.5z M27.3,30.3h-1.6v1.6h1.6V30.3z M17.7,36.8h-1.6v1.6
		h1.6V36.8z M14.5,33.5h-1.6v1.6h1.6V33.5z M17.7,33.5h-1.6v1.6h1.6V33.5z M12.9,38.4h1.6v-1.6h-1.6V38.4z M20.9,30.3h-1.6v1.6h1.6
		V30.3z M20.9,33.5h-1.6v1.6h1.6V33.5z M20.9,36.8h-1.6v1.6h1.6V36.8z M27.3,36.8h-1.6v1.6h1.6V36.8z" />
        <path class="st1" d="M24.1,23.8h-4.8v1.6h4.8V23.8z M27.3,23h-1.6v3.2h1.6V23z M28.9,23.8v1.6h3.2v16.2H11.3V25.4h3.2v-1.6H9.7
		v19.5h24V23.8H28.9z M17.7,23h-1.6v3.2h1.6V23z" />
    </g>
</svg>
