<?xml version="1.0" encoding="utf-8"?>
<!-- Generator: Adobe Illustrator 16.0.0, SVG Export Plug-In . SVG Version: 6.00 Build 0)  -->
<!DOCTYPE svg PUBLIC "-//W3C//DTD SVG 1.1//EN" "http://www.w3.org/Graphics/SVG/1.1/DTD/svg11.dtd">
<svg version="1.1" id="Layer_1" xmlns="http://www.w3.org/2000/svg" xmlns:xlink="http://www.w3.org/1999/xlink" x="0px" y="0px"
	 width="32px" height="32px" viewBox="0 0 32 32" enable-background="new 0 0 32 32" xml:space="preserve">
<path fill="#37A3DC" d="M6.089,16.579l-1.359,4.309c-0.076,0.243-0.025,0.484,0.1,0.672c0.126,0.186,0.353,0.293,0.554,0.293h0.101
	c0.227,0,0.453-0.134,0.58-0.349l1.813-2.676h4.557h1.359l-2.039,8.112c-0.051,0.214,0,0.455,0.126,0.643
	c0.126,0.186,0.352,0.294,0.554,0.294h0.151c0.226,0,0.453-0.108,0.579-0.32l6.017-8.729h3.877c1.058,0,4.258-1.125,4.258-2.25
	s-3.2-2.249-4.258-2.249h-3.851l-6.018-8.728c-0.126-0.187-0.353-0.321-0.579-0.321h-0.151c-0.227,0-0.428,0.107-0.554,0.295
	c-0.126,0.187-0.176,0.428-0.126,0.643l2.04,8.111h-1.359H7.902l-1.838-2.677c-0.126-0.214-0.353-0.348-0.58-0.348H5.384
	c-0.227,0-0.428,0.107-0.554,0.294c-0.125,0.188-0.176,0.428-0.125,0.669L6.089,16.579z"/>
</svg>
