<?xml version="1.0" encoding="utf-8"?>
<!-- Generator: Adobe Illustrator 19.1.0, SVG Export Plug-In . SVG Version: 6.00 Build 0)  -->
<svg version="1.1" id="Layer_1" xmlns="http://www.w3.org/2000/svg" xmlns:xlink="http://www.w3.org/1999/xlink" x="0px" y="0px"
	 viewBox="0 0 189.143 72.263" enable-background="new 0 0 189.143 72.263" xml:space="preserve">
<g>
	<path fill="#C7C8C9" d="M40.326,0.473c3.606,0.335,7.039,1.321,10.337,2.789c0.985,0.438,1.958,0.917,2.887,1.462
		c0.352,0.206,1.279,0.178,0.859,0.907c-0.335,0.581-0.716,1.41-1.843,0.753c-5.906-3.445-12.36-4.696-19.106-4.186
		c-7.237,0.546-13.662,3.237-19.254,7.923c-4.94,4.141-8.398,9.281-10.389,15.365c-2.63,8.035-2.42,16.069,0.962,23.826
		c4.857,11.139,13.312,18.071,25.314,20.269c10.025,1.837,19.215-0.427,27.205-6.806c7.129-5.692,11.423-13.105,12.555-22.23
		c0.61-4.922,0.374-9.799-1.245-14.525c-0.376-1.098,0.307-1.243,0.94-1.494c0.88-0.349,0.744,0.504,0.861,0.885
		c2.588,8.444,2.174,16.75-1.249,24.891c-2.925,6.957-7.734,12.33-14.048,16.366c-4.399,2.812-9.247,4.446-14.427,5.097
		c-7.116,0.894-13.943-0.173-20.362-3.333c-6.689-3.293-11.894-8.247-15.563-14.766c-2.175-3.865-3.559-8.005-4.23-12.385
		c-0.048-0.314-0.041-0.637-0.059-0.956C0.198,39.962,0.537,39.48,0.24,39.12c0-2,0-4,0-6c0.251-0.388,0.067-0.819,0.124-1.227
		c0.01-3.797,1.206-7.305,2.755-10.69c3.79-8.28,9.864-14.334,18.141-18.116c3.533-1.615,7.204-2.83,11.176-2.723
		c0.547-0.059,1.111,0.127,1.643-0.124c1.68,0,3.36,0,5.04,0C39.48,0.537,39.962,0.198,40.326,0.473z"/>
	<path fill="#D9D9DA" d="M32.385,0.467c0.009-0.075,0.014-0.151,0.015-0.227c0.56,0,1.12,0,1.68,0
		C33.566,0.693,32.951,0.402,32.385,0.467z"/>
	<path fill="#E7E6E7" d="M0.24,31.92c0.076-0.001,0.153-0.003,0.229-0.007c-0.037,0.41,0.169,0.865-0.229,1.207
		C0.24,32.72,0.24,32.32,0.24,31.92z"/>
	<path fill="#E1E1E1" d="M40.326,0.473c-0.409-0.043-0.867,0.169-1.206-0.233c0.4,0,0.8,0,1.2,0
		C40.317,0.318,40.319,0.396,40.326,0.473z"/>
	<path fill="#E1E1E1" d="M0.24,39.12c0.402,0.339,0.191,0.797,0.233,1.206c-0.078-0.005-0.155-0.007-0.233-0.006
		C0.24,39.92,0.24,39.52,0.24,39.12z"/>
	<path fill="#2188C9" d="M35.508,3.791c6.36,0.01,11.59,1.371,16.494,4.044c0.693,0.378,0.868,0.669,0.549,1.458
		c-1.716,4.242-1.186,8.278,1.629,11.848c2.918,3.7,6.836,5.261,11.544,4.577c0.912-0.132,1.387-0.059,1.699,0.965
		c5.731,18.817-5.94,38.202-25.258,41.891C25.025,71.848,7.949,60.521,4.325,43.473C0.499,25.474,11.731,8.192,29.732,4.416
		C31.885,3.964,34.073,3.737,35.508,3.791z"/>
	<path fill="#ffffff" d="M89.849,25.68c0.346,0,0.584,0.019,0.819-0.003c0.982-0.091,1.581,0,1.816,1.295
		c0.412,2.269,3.282,3.678,6.074,3.222c1.022-0.167,2.021-0.417,2.86-1.113c1.699-1.41,1.575-3.562-0.326-4.672
		c-1.435-0.837-3.084-1.006-4.663-1.38c-1.162-0.276-2.315-0.571-3.385-1.121c-3.176-1.632-3.569-5.865-0.598-7.85
		c2.783-1.86,5.87-1.972,8.879-0.546c1.863,0.883,2.758,2.582,2.93,4.636c0.012,0.148,0.034,0.407-0.024,0.431
		c-0.61,0.253-1.257,0.07-1.888,0.12c-0.422,0.033-0.423-0.3-0.447-0.56c-0.253-2.793-3.313-3.878-5.882-3.42
		c-0.427,0.076-0.852,0.212-1.253,0.381c-1.108,0.468-1.838,1.24-1.897,2.511c-0.059,1.277,0.753,1.983,1.745,2.477
		c1.472,0.732,3.106,0.956,4.697,1.299c1.291,0.278,2.57,0.576,3.661,1.37c2.881,2.098,2.675,6.411-0.52,8.218
		c-3.035,1.716-6.268,1.726-9.407,0.227C91.048,30.25,90.302,28.793,89.849,25.68z"/>
	<path fill="#ffffff" d="M156.977,28.629c-1.625,2.43-3.645,3.568-6.329,3.543c-4.316-0.041-6.484-2.064-6.571-6.422
		c-0.077-3.914,0.017-7.831-0.037-11.746c-0.016-1.165,0.746-0.749,1.285-0.795c0.585-0.051,1.126-0.176,1.104,0.837
		c-0.076,3.474-0.034,6.951-0.024,10.427c0.002,0.557,0.024,1.121,0.113,1.669c0.421,2.614,1.275,3.568,3.541,4.012
		c2.322,0.455,4.344-0.414,5.537-2.386c0.918-1.516,1.184-3.191,1.185-4.929c0-2.877,0.056-5.755-0.029-8.629
		c-0.031-1.05,0.46-1.031,1.207-1.027c0.733,0.004,1.206-0.041,1.193,1.015c-0.068,5.473-0.059,10.947-0.005,16.42
		c0.009,0.939-0.27,1.101-1.126,1.093c-0.809-0.008-1.169-0.169-1.057-1.042C157.037,30.095,156.977,29.503,156.977,28.629z"/>
	<path fill="#ffffff" d="M64.463,20.756c-2.559-3.177-5.056-6.285-7.568-9.381c-0.277-0.341-0.294-0.584-0.008-0.926
		c0.537-0.642,1.03-1.32,1.579-2.033c1.735,1.373,3.485,2.697,5.157,4.112c0.658,0.557,0.961,0.551,1.536-0.134
		c2.82-3.363,5.71-6.667,8.572-9.987c0.111,0.068,0.193,0.093,0.236,0.148c1.624,2.101,1.626,2.103,0.13,4.285
		c-2.954,4.307-5.909,8.613-8.868,12.917C65.009,20.079,64.756,20.377,64.463,20.756z"/>
	<path fill="#ffffff" d="M125.025,22.39c0.091-3.899,1.292-7.191,5.081-9.011c2.868-1.378,6.998-0.837,9.109,1.149
		c0.8,0.753,1.389,1.637,1.683,2.701c0.615,2.222,0.574,1.715-1.377,1.808c-0.449,0.021-0.648-0.189-0.763-0.579
		c-0.691-2.357-2.177-3.752-4.715-3.826c-2.692-0.078-4.552,1.232-5.732,3.566c-1.673,3.309-1.082,7.887,1.282,10.278
		c1.564,1.581,3.425,2.154,5.571,1.535c2.114-0.611,3.343-2.143,3.765-4.222c0.314-1.545,1.414-0.743,2.069-0.739
		c0.73,0.004,0.313,0.768,0.203,1.188c-0.919,3.533-3.297,5.736-6.348,5.914c-4.484,0.262-7.619-1.562-9.071-5.303
		C125.228,25.423,124.928,23.946,125.025,22.39z"/>
	<path fill="#0F68B3" d="M100.283,46.413c0,2.756-0.002,2.74-2.766,3.126c-1.292,0.181-2.553,0.075-3.782-0.31
		c-2.108-0.661-3.363-2.266-3.489-4.374c-0.134-2.233,0.96-4.117,2.952-5.033c1.936-0.89,3.941-0.853,5.976-0.419
		c0.754,0.161,0.694,0.599,0.461,1.143c-0.192,0.45-0.024,1.185-0.995,0.873c-0.982-0.316-2.019-0.403-3.069-0.189
		c-1.72,0.351-2.707,1.467-2.691,3.133c0.017,1.683,1.126,2.939,2.825,3.164c0.43,0.057,0.874,0.006,1.308,0.041
		c0.929,0.075,0.857-0.537,0.882-1.166c0.026-0.651-0.155-1.011-0.863-0.903c-0.919,0.14-1.001-0.365-1.02-1.121
		c-0.022-0.878,0.476-0.861,1.068-0.834c0.12,0.005,0.24,0.001,0.359,0.001C100.283,43.538,100.283,43.538,100.283,46.413z"/>
	<path fill="#ffffff" d="M165.12,16.881c1.443-2.383,3.347-3.845,6.183-3.952c0.586-0.022,1.02,0.008,0.826,0.685
		c-0.166,0.583,0.662,1.619-0.748,1.695c-2.79,0.151-4.695,1.559-5.678,4.175c-0.266,0.709-0.374,1.455-0.369,2.227
		c0.021,3.035-0.043,6.071,0.035,9.104c0.029,1.106-0.621,0.869-1.215,0.859c-0.572-0.01-1.234,0.286-1.222-0.84
		c0.059-5.59,0.056-11.181-0.001-16.771c-0.01-0.975,0.469-0.893,1.084-0.865c0.555,0.025,1.23-0.223,1.124,0.819
		C165.045,14.963,165.12,15.926,165.12,16.881z"/>
	<path fill="#0F68B3" d="M141.691,39.055c0.477,0.035,0.962,0.031,1.431,0.114c1.384,0.245,1.455,0.451,0.974,1.8
		c-0.19,0.532-0.385,0.551-0.856,0.372c-0.711-0.27-1.471-0.405-2.235-0.265c-0.478,0.087-0.98,0.26-1.048,0.828
		c-0.064,0.525,0.371,0.772,0.779,0.944c0.734,0.308,1.503,0.534,2.226,0.863c1.36,0.618,2.028,1.636,1.957,2.871
		c-0.075,1.306-0.885,2.329-2.275,2.782c-1.573,0.513-3.133,0.391-4.702-0.112c-1.205-0.386-0.321-1.097-0.296-1.641
		c0.039-0.836,0.576-0.503,1.014-0.334c0.758,0.293,1.547,0.399,2.353,0.329c0.569-0.05,1.163-0.157,1.289-0.843
		c0.13-0.708-0.402-0.977-0.944-1.186c-0.446-0.172-0.904-0.313-1.355-0.473c-1.956-0.697-2.807-1.825-2.552-3.377
		c0.251-1.528,1.625-2.561,3.519-2.64c0.239-0.01,0.479-0.001,0.719-0.001C141.69,39.074,141.69,39.065,141.691,39.055z"/>
	<path fill="#1268B3" d="M161.975,43.004c0.698-0.525,1.244-0.964,2-1.076c1.721-0.254,2.983,0.577,3.341,2.287
		c0.322,1.544,0.122,3.108,0.162,4.663c0.023,0.916-0.699,0.54-1.135,0.588c-0.466,0.051-0.98,0.118-0.955-0.662
		c0.038-1.158,0.013-2.318,0.005-3.478c-0.007-1.002-0.409-1.732-1.487-1.825c-0.944-0.082-1.673,0.76-1.696,1.905
		c-0.023,1.119-0.043,2.24,0.005,3.358c0.037,0.87-0.542,0.721-1.037,0.708c-0.471-0.013-1.083,0.217-1.07-0.673
		c0.031-2.038,0.009-4.078,0.009-6.116c0-0.323-0.032-0.664,0.461-0.644C161.226,42.065,162.052,41.759,161.975,43.004z"/>
	<path fill="#1568B3" d="M106.132,55.823c-0.927,0.105-1.726,0.084-2.561-0.336c-1.141-0.575-2.343-0.464-3.414,0.265
		c-1.075,0.732-1.1,1.888-0.112,2.707c1.315,1.09,3.513,0.824,4.642-0.724c-0.855,0-1.589,0.005-2.323-0.002
		c-0.342-0.004-0.689-0.096-0.681-0.502c0.008-0.405,0.362-0.483,0.701-0.484c1.278-0.005,2.557,0.014,3.834-0.01
		c0.616-0.012,0.644,0.352,0.559,0.78c-0.161,0.809-0.71,1.35-1.403,1.697c-2.134,1.07-4.306,1.094-6.446,0.026
		c-0.85-0.425-1.51-1.062-1.488-2.132c0.021-1.009,0.646-1.619,1.458-2.029c2.137-1.079,4.297-1.06,6.444-0.006
		c0.213,0.104,0.408,0.252,0.593,0.402C106.014,55.538,106.044,55.661,106.132,55.823z"/>
	<path fill="#1168B3" d="M109.239,57.1c-0.242,0.819-0.459,1.417-0.591,2.033c-0.144,0.673-0.502,0.869-1.177,0.852
		c-0.732-0.019-0.787-0.302-0.592-0.887c0.453-1.36,0.884-2.728,1.312-4.097c0.085-0.271,0.124-0.566,0.462-0.624
		c0.375-0.065,0.586,0.179,0.767,0.46c0.556,0.864,1.112,1.728,1.76,2.735c0.607-0.933,1.112-1.728,1.638-2.508
		c0.212-0.314,0.344-0.778,0.868-0.683c0.448,0.081,0.458,0.499,0.564,0.83c0.4,1.252,0.823,2.498,1.172,3.765
		c0.079,0.285,0.631,0.815-0.08,0.942c-0.502,0.09-1.246,0.38-1.513-0.475c-0.221-0.708-0.418-1.423-0.68-2.326
		c-0.474,0.747-0.839,1.351-1.233,1.937c-0.487,0.725-1,0.7-1.472-0.015C110.071,58.474,109.729,57.891,109.239,57.1z"/>
	<path fill="#1B69B4" d="M135.566,44.041c0,1.52-0.046,3.042,0.018,4.559c0.035,0.816-0.331,0.922-1,0.895
		c-0.592-0.025-1.075,0.043-1.062-0.836c0.044-3.079,0.044-6.16,0-9.239c-0.013-0.881,0.474-0.808,1.064-0.834
		c0.672-0.03,1.033,0.083,0.998,0.896C135.52,40.999,135.566,42.521,135.566,44.041z"/>
	<path fill="#0E67B2" d="M104.16,44.099c0,1.476-0.03,2.953,0.013,4.427c0.02,0.683-0.098,1.038-0.898,0.971
		c-0.631-0.052-1.117,0.034-1.097-0.909c0.064-3.03,0.064-6.064,0-9.094c-0.02-0.938,0.46-0.861,1.095-0.912
		c0.795-0.063,0.921,0.281,0.901,0.969C104.13,41.066,104.16,42.583,104.16,44.099z"/>
	<path fill="#A7A4A4" d="M80.702,68.955c0-21.17,0-42.34,0-63.51c0.039,0,0.078,0,0.117,0c0,21.17,0,42.34,0,63.51
		C80.779,68.955,80.741,68.955,80.702,68.955z"/>
	<path fill="#0F68B3" d="M148.598,45.84c0,0.877-0.041,1.756,0.013,2.63c0.046,0.744-0.146,1.038-0.969,1.039
		c-0.839,0.002-1.089-0.233-1.06-1.074c0.063-1.831,0.055-3.667,0.003-5.499c-0.022-0.773,0.276-0.926,0.973-0.921
		c0.706,0.005,1.125,0.088,1.058,0.956C148.541,43.923,148.598,44.884,148.598,45.84z"/>
	<path fill="#1F6AB4" d="M148.793,39.822c-0.041,0.706-0.428,1.127-1.103,1.163c-0.728,0.039-1.225-0.336-1.242-1.111
		c-0.016-0.732,0.477-1.083,1.133-1.099C148.242,38.759,148.684,39.132,148.793,39.822z"/>
	<path fill="#266CB5" d="M95.283,58.411c0.518-0.263,0.061-1.486,0.862-1.202c0.55,0.195-0.033,0.99-0.148,1.502
		c-0.121,0.537-0.289,1.077-0.528,1.57c-0.159,0.329-0.552,0.554-0.903,0.317c-0.394-0.266-0.028-0.429,0.139-0.698
		c0.357-0.577-0.244-1.101-0.307-1.671c-0.04-0.361-0.672-0.847-0.041-1.06c0.603-0.203,0.508,0.533,0.681,0.881
		C95.102,58.18,95.063,58.371,95.283,58.411z"/>
	<path fill="#FFFFFF" d="M36.718,54.086c-4.236,0-8.472,0.004-12.708-0.002c-1.631-0.002-1.96-0.331-1.962-1.972
		c-0.005-5.994-0.005-11.988,0-17.983c0.001-1.578,0.39-2.024,1.985-1.943c1.024,0.052,1.145-0.362,1.156-1.235
		c0.025-2.111-0.252-4.236,0.219-6.331c1.285-5.72,6.631-9.724,12.31-9.223c6.024,0.532,10.571,5.283,10.793,11.305
		c0.056,1.516,0.063,3.036,0.045,4.553c-0.008,0.635,0.128,0.911,0.852,0.925c2.046,0.037,2.225,0.262,2.226,2.314
		c0.001,5.834,0.002,11.669-0.001,17.503c-0.001,1.799-0.29,2.087-2.087,2.088C45.27,54.089,40.994,54.087,36.718,54.086z"/>
	<g>
		<path fill="#ffffff" d="M175.507,23.102c2.078,0.023,4.155,0.009,6.233,0.009c2.038,0,4.077-0.047,6.113,0.022
			c0.883,0.03,1.088-0.277,1.024-1.086c-0.088-1.116-0.234-2.22-0.51-3.3c-0.928-3.631-3.688-5.954-7.2-6.097
			c-4.003-0.164-6.835,1.754-8.17,5.461c-0.608,1.688-0.73,3.416-0.678,5.18c0.129,4.335,2.406,9.24,8.939,8.901
			c3.671-0.19,6.506-2.287,7.327-5.853c0.057-0.247,0.226-0.543-0.05-0.772c-0.508-0.42-2.093,0.09-2.352,0.746
			c-0.704,1.778-1.743,3.201-3.728,3.713c-4.549,1.173-7.495-2.257-7.765-6.151C174.639,23.168,174.936,23.096,175.507,23.102z
			 M174.7,20.683c-0.121-2.793,2.876-5.954,5.742-6.059c3.222-0.118,5.651,2.483,6.025,6.035c0.069,0.657-0.414,0.45-0.714,0.453
			c-1.717,0.016-3.434,0.008-5.151,0.008s-3.434,0.01-5.151-0.01C175.161,21.107,174.728,21.336,174.7,20.683z"/>
	</g>
	<g>
		<path fill="#ffffff" d="M123.02,25.528c-0.632-0.366-2.059,0.134-2.334,0.819c-0.713,1.776-1.766,3.175-3.758,3.686
			c-4.281,1.098-7.394-1.959-7.743-6.208c-0.052-0.627,0.219-0.727,0.758-0.722c2.119,0.022,4.238,0.009,6.357,0.009
			c1.999,0,4-0.056,5.996,0.024c0.954,0.038,1.117-0.294,1.072-1.155c-0.076-1.447-0.273-2.871-0.804-4.206
			c-1.181-2.975-3.278-4.871-6.584-5.113c-3.389-0.248-6.153,0.878-7.792,3.997c-1.854,3.528-1.853,7.193-0.424,10.86
			c0.97,2.491,2.838,3.986,5.451,4.526c1.145,0.237,2.322,0.198,3.465,0.076c3.442-0.366,5.519-2.451,6.451-5.972
			C123.187,25.935,123.32,25.702,123.02,25.528z M109.28,20.317c0.531-2.212,1.434-4.168,3.616-5.194
			c3.226-1.517,6.907,0.452,7.82,4.141c0.01,0.039,0.009,0.08,0.018,0.118c0.402,1.738,0.402,1.738-1.34,1.738
			c-1.478,0-2.956,0-4.434,0c-1.678,0-3.356-0.031-5.033,0.015C109.238,21.154,109.125,20.958,109.28,20.317z"/>
	</g>
	<g>
		<path fill="#1068B3" d="M158.086,43.009c0.044-0.84-0.372-1.313-0.939-0.923c-1.132,0.777-1.972-0.104-2.938-0.195
			c-0.236-0.022-0.479-0.022-0.714,0.005c-1.555,0.178-2.712,1.18-3.145,2.711c-0.461,1.627,0.036,3.281,1.263,4.199
			c1.208,0.904,2.664,0.842,4.316-0.182c0.23,2.099-1.288,3.034-3.679,2.281c-0.415-0.131-0.877-0.638-1.163,0.289
			c-0.253,0.823,0.046,1.095,0.728,1.264c0.7,0.173,1.409,0.258,2.131,0.239c2.629-0.068,3.841-1.098,4.033-3.712
			C158.124,47.002,157.983,44.998,158.086,43.009z M154.192,47.961c-1.097-0.008-2.005-1.047-1.987-2.274
			c0.019-1.286,0.862-2.258,1.979-2.281c1.221-0.025,1.82,0.717,1.817,2.252C155.997,47.161,155.362,47.969,154.192,47.961z"/>
	</g>
	<g>
		<path fill="#0F68B3" d="M123.07,43.344c-0.616-0.94-1.523-1.383-2.615-1.468c-1.046-0.081-1.953,0.334-2.854,1.038
			c0-1.193-0.029-2.192,0.01-3.189c0.027-0.711,0.013-1.179-0.964-1.161c-0.891,0.016-1.032,0.334-1.021,1.119
			c0.039,2.916,0.006,5.833,0.012,8.749c0.001,0.376-0.4,0.956,0.356,1.024c0.617,0.055,1.416,0.302,1.408-0.819
			c1.881,1.376,3.759,1.371,5.143,0.032C123.835,47.42,124.087,44.898,123.07,43.344z M119.603,48.072
			c-1.208,0.017-1.984-0.827-2.003-2.18c-0.022-1.53,0.726-2.449,1.994-2.451c1.213-0.003,2.037,0.928,2.047,2.31
			C121.652,47.124,120.834,48.054,119.603,48.072z"/>
	</g>
	<g>
		<path fill="#1068B3" d="M109.995,41.866c-2.488-0.032-4.173,1.529-4.194,3.886c-0.021,2.361,1.553,3.913,3.986,3.928
			c2.486,0.016,4.193-1.56,4.212-3.889C114.02,43.432,112.455,41.898,109.995,41.866z M109.809,48.235
			c-1.112-0.031-1.991-1.091-2.009-2.423c-0.019-1.399,0.868-2.455,2.073-2.466c1.239-0.012,2.013,0.939,2.004,2.462
			C111.869,47.289,111.034,48.27,109.809,48.235z"/>
	</g>
	<g>
		<path fill="#1168B3" d="M131.495,48.44c0.019-0.518,0.005-1.037,0.005-1.556c-0.008,0-0.015,0-0.023,0
			c0-0.719,0.042-1.44-0.009-2.155c-0.1-1.416-0.823-2.384-1.996-2.688c-1.193-0.31-2.373-0.187-3.531,0.208
			c-0.46,0.157-0.749,0.329-0.532,0.944c0.218,0.615,0.514,0.547,0.989,0.379c0.755-0.267,1.539-0.475,2.327-0.119
			c0.377,0.17,0.731,0.452,0.625,0.906c-0.095,0.409-0.533,0.255-0.819,0.269c-0.891,0.042-1.748,0.212-2.523,0.654
			c-1.047,0.597-1.476,1.614-1.207,2.745c0.228,0.962,1.183,1.625,2.365,1.655c0.699,0.017,1.355-0.139,1.922-0.543
			c0.304-0.216,0.413-0.303,0.698,0.096c0.373,0.523,1.055,0.297,1.547,0.166C131.73,49.294,131.482,48.775,131.495,48.44z
			 M127.803,48.241c-0.499-0.013-0.974-0.247-1.057-0.916c-0.097-0.776,0.815-1.35,2.121-1.434c0.522-0.034,0.718,0.123,0.699,0.649
			C129.532,47.463,128.828,48.214,127.803,48.241z"/>
	</g>
	<g>
		<path fill="#1368B3" d="M124.067,55.482c-1.854-1.591-5.896-1.564-7.705,0.052c-1.103,0.986-1.081,2.364,0.081,3.287
			c1.109,0.881,2.423,1.149,3.717,1.186c1.428-0.019,2.704-0.291,3.802-1.101C125.269,57.944,125.296,56.537,124.067,55.482z
			 M120.284,59.135c-1.542,0.009-2.836-0.898-2.833-1.985c0.003-1.09,1.295-1.995,2.832-1.983c1.524,0.012,2.837,0.973,2.789,2.042
			C123.026,58.229,121.726,59.127,120.284,59.135z"/>
	</g>
	<g>
		<path fill="#1E6AB4" d="M93.924,58.101c-0.138-0.661-0.516-1.069-1.231-1.068c-0.214,0-0.481,0.198-0.554-0.198
			c-0.057-0.315,0.112-0.859-0.468-0.744c-0.481,0.096-0.22,0.598-0.265,0.92c-0.038,0.274-0.008,0.558-0.008,0.933
			c0.113,0.519-0.323,1.363,0.208,1.706c0.431,0.278,1.237,0.356,1.814-0.057C93.924,59.232,94.047,58.691,93.924,58.101z
			 M92.697,59.128c-0.445,0.003-0.604-0.301-0.588-0.718c0.006-0.382,0.116-0.756,0.568-0.719c0.398,0.033,0.595,0.361,0.549,0.772
			C93.191,58.788,93.1,59.125,92.697,59.128z"/>
	</g>
	<path fill="#2188C9" d="M36.896,33.154c-2.436,0-4.872-0.031-7.306,0.018c-0.796,0.016-1.05-0.233-1.007-1.016
		c0.119-2.188-0.189-4.391,0.177-6.572c0.785-4.674,4.423-7.652,8.965-7.36c4.006,0.257,7.404,3.967,7.592,8.365
		c0.08,1.873,0.003,3.753,0.059,5.628c0.022,0.727-0.184,0.967-0.934,0.954C41.927,33.127,39.411,33.154,36.896,33.154z"/>
	<path fill="#2188C9" d="M36.837,49.92c-2.217,0-2.222,0-2.046-2.184c0.048-0.595,0.154-1.185,0.196-1.78
		c0.091-1.294,0.386-2.497-0.795-3.683c-1.192-1.197-0.679-3.248,0.705-4.328c1.304-1.017,3.164-0.839,4.323,0.412
		c1.139,1.23,1.203,3.148-0.007,4.319c-0.626,0.606-0.767,1.157-0.635,1.973c0.215,1.334,0.226,2.701,0.46,4.031
		c0.179,1.023-0.094,1.402-1.126,1.248C37.561,49.876,37.196,49.92,36.837,49.92z"/>
</g>
</svg>
