<?xml version="1.0" encoding="iso-8859-1"?>
<!-- Generator: Adobe Illustrator 19.0.0, SVG Export Plug-In . SVG Version: 6.00 Build 0)  -->
<svg xmlns="http://www.w3.org/2000/svg" xmlns:xlink="http://www.w3.org/1999/xlink" version="1.1" id="Capa_1" x="0px" y="0px" viewBox="0 0 490 490" style="enable-background:new 0 0 490 490;" xml:space="preserve" width="512px" height="512px">
<path d="M459.516,196.496c-18.514-84.537-83.68-150.809-167.863-170.777C284.734,10.564,269.446,0,251.725,0h-13.449  c-16.679,0-31.21,9.354-38.63,23.088C107.563,39.446,35.233,110.979,17.891,202.947C7.049,210.942,0,223.796,0,238.27v13.449  c0,14.479,7.048,27.334,17.889,35.331c17.309,91.721,89.755,163.482,181.746,179.839C207.052,480.637,221.589,490,238.276,490  h13.449c17.718,0,33.003-10.56,39.924-25.713c84.276-19.999,149.366-86.321,167.863-170.782  C477.177,287.832,490,271.251,490,251.719V238.27C490,218.748,477.18,202.17,459.516,196.496z M437.596,194.398h-52.595  c-5.357,0-10.551,0.951-15.425,2.783c-13.166-36-40.511-64.779-75.775-79.777c1.164-3.939,1.799-8.104,1.799-12.416V48.283  C365.566,68.179,419.682,123.762,437.596,194.398z M251.725,341.12h-13.449c-13.779,0-26.088,6.389-34.137,16.355  c-33.866-10.633-61.528-36.442-74.512-69.461c11.605-7.903,19.242-21.22,19.242-36.294V238.27c0-15.066-7.635-28.379-19.237-36.282  c12.973-32.977,40.649-58.835,74.514-69.464c8.049,9.96,20.355,16.345,34.13,16.345h13.449c12.315,0,23.454-5.106,31.43-13.304  c32.868,13.112,58.003,40.165,68.633,74.046c-6.842,7.894-10.662,17.965-10.662,28.66v13.449c0,10.937,4.029,20.942,10.667,28.633  c-10.592,33.824-35.717,60.925-68.641,74.07C275.176,346.225,264.039,341.12,251.725,341.12z M20.851,251.719V238.27  c0-12.696,10.329-23.021,23.025-23.021h61.118c12.695,0,23.025,10.325,23.025,23.021v13.449c0,12.696-10.33,23.03-23.025,23.03  H43.876C31.18,274.749,20.851,264.415,20.851,251.719z M215.251,43.871c0-12.696,10.329-23.02,23.025-23.02h13.449  c12.696,0,23.025,10.323,23.025,23.02v61.118c0,12.695-10.329,23.03-23.025,23.03h-13.449c-12.696,0-23.025-10.334-23.025-23.03  V43.871z M194.4,45.412v59.576c0,2.91,0.291,5.752,0.834,8.505c-38.743,13.048-70.268,43.121-85.144,81.211  c-1.673-0.194-3.371-0.306-5.096-0.306H43.876c-0.936,0-1.863,0.04-2.785,0.098C59.951,119.938,119.206,62.217,194.4,45.412z   M41.097,295.503c0.92,0.058,1.845,0.097,2.779,0.097h61.118c1.723,0,3.419-0.11,5.091-0.305  c14.885,38.14,46.409,68.151,85.151,81.193c-0.544,2.755-0.835,5.601-0.835,8.513v59.579  C119.276,427.762,59.945,369.878,41.097,295.503z M274.749,446.119c0,12.696-10.329,23.03-23.025,23.03h-13.449  c-12.696,0-23.025-10.334-23.025-23.03v-61.118c0-12.696,10.329-23.03,23.025-23.03h13.449c12.696,0,23.025,10.334,23.025,23.03  V446.119z M295.6,441.715v-56.713c0-4.316-0.636-8.484-1.802-12.427c35.312-15.027,62.661-43.839,75.799-79.772  c4.796,1.804,9.985,2.798,15.405,2.798h52.595C419.7,366.182,365.638,421.794,295.6,441.715z M469.149,251.719  c0,12.696-10.329,23.03-23.025,23.03h-61.123c-12.696,0-23.025-10.333-23.025-23.03V238.27c0-7.118,3.217-13.726,8.833-18.123  c4.083-3.207,8.99-4.898,14.192-4.898h61.123c12.696,0,23.025,10.325,23.025,23.021V251.719z" fill="#FFFFFF"/>
<g>
</g>
<g>
</g>
<g>
</g>
<g>
</g>
<g>
</g>
<g>
</g>
<g>
</g>
<g>
</g>
<g>
</g>
<g>
</g>
<g>
</g>
<g>
</g>
<g>
</g>
<g>
</g>
<g>
</g>
</svg>
