<?xml version="1.0" encoding="utf-8"?>
<!-- Generator: Adobe Illustrator 19.1.0, SVG Export Plug-In . SVG Version: 6.00 Build 0)  -->
<svg version="1.1" id="Layer_1" xmlns="http://www.w3.org/2000/svg" xmlns:xlink="http://www.w3.org/1999/xlink" x="0px" y="0px"
	 viewBox="0 0 32 32" style="enable-background:new 0 0 32 32;" xml:space="preserve">
<style type="text/css">
	.st0{fill:none;stroke:#FFFFFF;stroke-width:0.8;}
</style>
<path class="st0" d="M26.766,17.28h-5.18c-0.466,0-0.828-0.374-0.828-0.857v-0.857c0-0.482,0.362-0.856,0.828-0.856h5.18
	c0.466,0,0.829,0.374,0.829,0.856v0.857C27.595,16.905,27.233,17.28,26.766,17.28z M21.407,13.872
	c-0.588-1.602-1.81-2.864-3.36-3.472c0.008-0.062,0.017-0.123,0.017-0.188l0-5.138c4.291,0.868,7.649,4.336,8.491,8.778h-4.969
	C21.525,13.853,21.467,13.866,21.407,13.872z M16.407,27.991h-0.829c-0.466,0-0.829-0.375-0.829-0.857v-5.355
	c0-0.482,0.362-0.857,0.829-0.857h0.829c0.466,0,0.829,0.375,0.829,0.857v5.355C17.236,27.616,16.873,27.991,16.407,27.991z
	 M16.407,11.069h-0.829c-0.466,0-0.829-0.375-0.829-0.857V4.857C14.75,4.375,15.112,4,15.579,4h0.829
	c0.466,0,0.829,0.375,0.829,0.857v5.355C17.236,10.694,16.873,11.069,16.407,11.069z M13.939,10.399
	c-1.548,0.607-2.771,1.868-3.36,3.472c-0.06-0.01-0.118-0.02-0.18-0.02H5.427c0.84-4.435,4.195-7.906,8.494-8.777l0,0.001v5.136
	C13.921,10.276,13.932,10.337,13.939,10.399z M11.228,15.566v0.857c0,0.482-0.362,0.857-0.829,0.857h-5.18
	c-0.466,0-0.828-0.374-0.828-0.857v-0.857c0-0.482,0.362-0.856,0.828-0.856h5.18C10.865,14.71,11.228,15.084,11.228,15.566z
	 M10.577,18.117L10.577,18.117c0.587,1.6,1.806,2.866,3.362,3.476c-0.008,0.062-0.018,0.122-0.018,0.186v5.137
	c-4.301-0.871-7.654-4.346-8.493-8.78C7.218,18.111,9.037,18.156,10.577,18.117z M21.407,18.119L21.407,18.119
	c0.059,0.009,0.118,0.019,0.179,0.019h4.969c-0.84,4.436-4.192,7.909-8.491,8.78v-5.137c0-0.064-0.011-0.125-0.017-0.188
	C19.596,20.985,20.819,19.723,21.407,18.119z"/>
</svg>
