<?xml version="1.0" encoding="utf-8"?>
<!-- Generator: Adobe Illustrator 19.1.0, SVG Export Plug-In . SVG Version: 6.00 Build 0)  -->
<svg version="1.1" id="Layer_1" xmlns="http://www.w3.org/2000/svg" xmlns:xlink="http://www.w3.org/1999/xlink" x="0px" y="0px"
	 viewBox="33 16.8 98.2 33.2" style="enable-background:new 33 16.8 98.2 33.2;" xml:space="preserve">
<style type="text/css">
	.st0{fill:#FFFFFF;}
</style>
<g>
	<path class="st0" d="M102.316,45.088l-0.037,0.182c0.163,0.024,0.245,0.105,0.245,0.241c0,0.028-0.007,0.086-0.02,0.17
		l-0.337,1.642c-0.033,0.159-0.072,0.266-0.115,0.325c-0.044,0.059-0.137,0.088-0.277,0.088l-0.03,0.175h1.641l0.04-0.175
		c-0.097-0.016-0.163-0.041-0.199-0.076c-0.037-0.035-0.056-0.086-0.056-0.156c0-0.033,0.015-0.14,0.047-0.322l0.446-2.199
		L102.316,45.088L102.316,45.088z M106.016,45.993c-0.157,0.035-0.353,0.077-0.587,0.129c-0.233,0.052-0.456,0.12-0.669,0.206
		c-0.212,0.085-0.399,0.205-0.562,0.361c-0.162,0.155-0.261,0.35-0.298,0.583c-0.014,0.078-0.02,0.129-0.02,0.151
		c0,0.118,0.033,0.22,0.097,0.303c0.066,0.085,0.155,0.148,0.267,0.191c0.113,0.043,0.239,0.064,0.379,0.064
		c0.183,0,0.371-0.037,0.562-0.111c0.192-0.074,0.364-0.181,0.513-0.322c0.015,0.11,0.028,0.187,0.039,0.234
		c0.011,0.046,0.034,0.089,0.067,0.128h1.169l0.035-0.175c-0.144,0-0.216-0.054-0.216-0.161c0-0.03,0.007-0.086,0.019-0.168
		l0.323-1.549c0.012-0.074,0.019-0.134,0.019-0.181c-0.004-0.123-0.034-0.236-0.089-0.338c-0.056-0.102-0.156-0.187-0.3-0.255
		c-0.144-0.068-0.339-0.102-0.586-0.102c-0.204,0-0.378,0.012-0.524,0.036c-0.145,0.024-0.292,0.055-0.442,0.093
		c-0.149,0.038-0.248,0.057-0.297,0.057c-0.069,0-0.13-0.026-0.182-0.08l-0.345,1.042l0.158,0.05
		c0.06-0.144,0.153-0.273,0.278-0.384c0.125-0.112,0.262-0.199,0.412-0.26c0.149-0.06,0.289-0.091,0.419-0.091
		c0.123,0,0.22,0.028,0.294,0.084c0.073,0.056,0.11,0.139,0.11,0.249C106.06,45.842,106.045,45.915,106.016,45.993L106.016,45.993z
		 M105.944,46.355c-0.024,0.179-0.073,0.349-0.147,0.508c-0.074,0.158-0.161,0.286-0.263,0.382
		c-0.101,0.096-0.202,0.143-0.302,0.143c-0.066,0-0.127-0.022-0.181-0.065c-0.057-0.056-0.086-0.123-0.086-0.202
		c0-0.11,0.051-0.224,0.152-0.343c0.085-0.098,0.202-0.187,0.351-0.268C105.618,46.429,105.776,46.379,105.944,46.355
		L105.944,46.355z M105.944,43.754c0.016-0.175,0.083-0.312,0.202-0.413c0.119-0.101,0.252-0.151,0.398-0.151
		c0.141,0.029,0.211,0.099,0.211,0.211c0,0.083-0.04,0.174-0.12,0.272c-0.08,0.099-0.18,0.178-0.299,0.236
		c-0.12,0.053-0.232,0.126-0.335,0.218c-0.102,0.093-0.153,0.191-0.153,0.294c0,0.04,0.006,0.075,0.018,0.106
		c0.073-0.06,0.17-0.09,0.294-0.09c0.041,0,0.094,0.003,0.159,0.01c-0.007-0.026-0.01-0.044-0.01-0.056
		c0-0.06,0.032-0.11,0.097-0.148c0.065-0.039,0.179-0.093,0.34-0.161c0.161-0.069,0.29-0.137,0.385-0.205
		c0.095-0.067,0.159-0.153,0.191-0.256c0.032-0.086,0.048-0.165,0.048-0.237c0-0.097-0.026-0.181-0.078-0.248
		c-0.053-0.068-0.125-0.118-0.216-0.151s-0.194-0.049-0.306-0.049c-0.138,0-0.266,0.019-0.385,0.055
		c-0.006,0.002-0.045,0.011-0.117,0.028c-0.072,0.018-0.121,0.03-0.149,0.035c-0.028,0.006-0.056,0.009-0.084,0.009
		c-0.051,0-0.09-0.017-0.12-0.051l-0.072,0.739h0.101V43.754z M109.169,45.496c0-0.003-0.003-0.054-0.007-0.155
		c-0.004-0.101-0.011-0.178-0.022-0.231c-0.01-0.052-0.025-0.096-0.049-0.128l-1.18,0.106l-0.048,0.182
		c0.17,0,0.255,0.075,0.255,0.226c0,0.043-0.007,0.106-0.02,0.185l-0.345,1.692c-0.017,0.081-0.037,0.144-0.059,0.192
		c-0.022,0.048-0.061,0.088-0.119,0.121c-0.057,0.033-0.139,0.05-0.245,0.05l-0.038,0.175h1.685l0.038-0.175
		c-0.153,0-0.231-0.08-0.231-0.237c0-0.028,0.009-0.087,0.025-0.176l0.197-1.013c0.022-0.118,0.07-0.231,0.146-0.337
		c0.075-0.105,0.16-0.19,0.253-0.253c0.094-0.062,0.177-0.094,0.248-0.094c0.109,0,0.163,0.067,0.163,0.202
		c0,0.034-0.005,0.076-0.015,0.126l-0.268,1.369c-0.023,0.103-0.044,0.18-0.063,0.231c-0.019,0.051-0.051,0.095-0.096,0.129
		c-0.045,0.036-0.109,0.053-0.191,0.053l-0.024,0.175h1.647l0.036-0.175c-0.166,0-0.249-0.075-0.249-0.223
		c0-0.038,0.009-0.101,0.025-0.19l0.34-1.642c0.01-0.049,0.015-0.099,0.015-0.149c0-0.175-0.059-0.31-0.175-0.41
		c-0.116-0.1-0.269-0.149-0.46-0.149c-0.174,0-0.364,0.044-0.568,0.132C109.566,45.191,109.365,45.322,109.169,45.496
		L109.169,45.496z M113.805,44.077l-0.048,0.186c0.162,0,0.243,0.078,0.243,0.236c0,0.035-0.006,0.078-0.019,0.131l-0.533,2.693
		c-0.032,0.117-0.07,0.208-0.117,0.278c-0.046,0.068-0.138,0.113-0.275,0.136l-0.03,0.175h1.65l0.035-0.175
		c-0.161-0.027-0.24-0.111-0.24-0.252c0-0.037,0.011-0.108,0.034-0.211l0.207-1.002c0.02-0.118,0.064-0.226,0.132-0.324
		c0.068-0.097,0.147-0.175,0.237-0.231c0.091-0.056,0.175-0.084,0.253-0.084c0.07,0,0.126,0.023,0.167,0.071
		c0.043,0.047,0.064,0.118,0.064,0.215c0,0.058-0.007,0.113-0.02,0.166l-0.234,1.188c-0.026,0.123-0.068,0.231-0.126,0.324
		c-0.059,0.093-0.162,0.14-0.311,0.14l-0.038,0.175h1.655l0.03-0.176c-0.138,0-0.206-0.053-0.206-0.16
		c0-0.055,0.009-0.121,0.028-0.202l0.323-1.605c0.015-0.071,0.023-0.15,0.023-0.237c0-0.187-0.054-0.329-0.162-0.425
		s-0.253-0.143-0.433-0.143c-0.123,0-0.257,0.022-0.4,0.067c-0.145,0.045-0.292,0.112-0.442,0.2
		c-0.15,0.089-0.288,0.193-0.415,0.311l0.316-1.55L113.805,44.077L113.805,44.077z M116.705,46.507
		c0.059-0.233,0.156-0.442,0.29-0.626c0.133-0.184,0.292-0.339,0.476-0.464c0.184-0.124,0.38-0.218,0.587-0.281
		s0.415-0.094,0.624-0.094c0.029-0.003,0.073-0.005,0.133-0.005c0.231,0,0.442,0.044,0.633,0.131
		c0.165,0.076,0.301,0.185,0.407,0.326l0.712-0.976h0.62l-0.585,0.806c-0.019,0.035-0.029,0.072-0.029,0.111
		c0,0.03,0.01,0.056,0.029,0.075h-0.735c0.012,0.017,0.024,0.034,0.035,0.051c0.111,0.175,0.167,0.384,0.167,0.628
		c0,0.126-0.013,0.246-0.038,0.362c-0.052,0.237-0.147,0.45-0.281,0.638c-0.135,0.188-0.297,0.345-0.485,0.471
		s-0.39,0.221-0.604,0.285c-0.215,0.064-0.429,0.096-0.642,0.096c-0.186,0-0.36-0.025-0.523-0.073
		c-0.164-0.049-0.308-0.122-0.434-0.219c-0.125-0.097-0.223-0.219-0.294-0.366c-0.072-0.147-0.107-0.315-0.107-0.504
		C116.662,46.771,116.676,46.647,116.705,46.507L116.705,46.507z M117.838,46.447c-0.031,0.161-0.048,0.313-0.048,0.453
		c0,0.207,0.034,0.366,0.102,0.479c0.068,0.112,0.154,0.17,0.258,0.17c0.101,0,0.202-0.042,0.302-0.126
		c0.099-0.083,0.191-0.209,0.275-0.377s0.151-0.368,0.201-0.599c0.025-0.121,0.037-0.244,0.037-0.368
		c0-0.197-0.037-0.35-0.113-0.457c-0.076-0.109-0.171-0.162-0.289-0.162c-0.096,0-0.194,0.038-0.292,0.113
		c-0.099,0.076-0.187,0.187-0.265,0.336C117.927,46.057,117.872,46.236,117.838,46.447L117.838,46.447z M122.288,45.496
		c0-0.003-0.002-0.054-0.006-0.155c-0.005-0.101-0.012-0.178-0.022-0.231c-0.01-0.052-0.026-0.096-0.05-0.128l-1.18,0.106
		l-0.047,0.182c0.17,0,0.254,0.075,0.254,0.226c0,0.043-0.007,0.106-0.019,0.185l-0.345,1.692c-0.018,0.081-0.038,0.144-0.059,0.192
		c-0.022,0.048-0.061,0.088-0.118,0.121c-0.057,0.033-0.139,0.05-0.245,0.05l-0.039,0.175h1.685l0.039-0.175
		c-0.154,0-0.231-0.08-0.231-0.237c0-0.028,0.009-0.087,0.025-0.176l0.197-1.013c0.023-0.118,0.07-0.231,0.147-0.337
		c0.075-0.105,0.16-0.19,0.253-0.253c0.094-0.062,0.177-0.094,0.248-0.094c0.109,0,0.163,0.067,0.163,0.202
		c0,0.034-0.005,0.076-0.015,0.126l-0.268,1.369c-0.023,0.103-0.044,0.18-0.064,0.231c-0.019,0.051-0.051,0.095-0.096,0.129
		c-0.045,0.036-0.109,0.053-0.191,0.053l-0.024,0.175h1.647l0.037-0.175c-0.167,0-0.25-0.075-0.25-0.223
		c0-0.038,0.009-0.101,0.025-0.19l0.341-1.642c0.009-0.049,0.014-0.099,0.014-0.149c0-0.175-0.058-0.31-0.174-0.41
		c-0.117-0.1-0.269-0.149-0.46-0.149c-0.174,0-0.364,0.044-0.569,0.132C122.685,45.191,122.485,45.322,122.288,45.496
		L122.288,45.496z M41.142,48.047c0.022,0.003,0.055,0.005,0.101,0.005c0.049,0,0.117-0.004,0.204-0.013
		c0.086-0.009,0.165-0.017,0.236-0.025c0.072-0.009,0.135-0.015,0.193-0.02c0.057-0.006,0.113-0.009,0.165-0.009
		c0.15,0,0.237,0.034,0.264,0.101l0.696-1.267l-0.164-0.041c-0.054,0.114-0.123,0.218-0.209,0.311
		c-0.086,0.093-0.184,0.174-0.295,0.242c-0.11,0.068-0.227,0.12-0.35,0.157c-0.123,0.036-0.245,0.055-0.364,0.055
		c-0.192,0-0.368-0.05-0.528-0.148c-0.159-0.098-0.287-0.257-0.383-0.475c-0.097-0.218-0.145-0.497-0.145-0.836
		c0.013-0.268,0.086-0.517,0.218-0.749c0.133-0.231,0.3-0.415,0.503-0.552c0.202-0.136,0.405-0.205,0.609-0.205
		c0.235,0,0.44,0.097,0.617,0.292c0.176,0.195,0.295,0.493,0.356,0.897l0.145-0.05l0.033-1.681
		c-0.073,0.094-0.173,0.141-0.297,0.141c-0.059,0-0.205-0.023-0.438-0.071c-0.233-0.047-0.437-0.07-0.613-0.07
		c-0.434,0.02-0.803,0.112-1.109,0.275c-0.306,0.163-0.547,0.352-0.722,0.569c-0.174,0.216-0.301,0.416-0.38,0.597
		c-0.078,0.182-0.135,0.341-0.169,0.477c-0.015,0.146-0.023,0.268-0.023,0.368c0,0.38,0.07,0.688,0.21,0.924
		s0.311,0.409,0.512,0.517c0.202,0.11,0.377,0.178,0.527,0.205C40.688,47.994,40.889,48.021,41.142,48.047L41.142,48.047z
		 M43.906,44.077l-0.048,0.186c0.162,0,0.243,0.078,0.243,0.236c0,0.035-0.006,0.078-0.018,0.131l-0.533,2.693
		c-0.032,0.117-0.07,0.208-0.117,0.278c-0.046,0.068-0.138,0.113-0.276,0.136l-0.029,0.175h1.65l0.035-0.175
		c-0.161-0.027-0.241-0.111-0.241-0.252c0-0.037,0.011-0.108,0.034-0.211l0.207-1.002c0.02-0.118,0.064-0.226,0.132-0.324
		c0.068-0.097,0.147-0.175,0.237-0.231c0.091-0.056,0.174-0.084,0.253-0.084c0.07,0,0.126,0.023,0.167,0.071
		c0.043,0.047,0.064,0.118,0.064,0.215c0,0.058-0.007,0.113-0.02,0.166l-0.234,1.188c-0.026,0.123-0.068,0.231-0.126,0.324
		c-0.059,0.093-0.162,0.14-0.311,0.14l-0.038,0.175h1.655l0.03-0.176c-0.138,0-0.206-0.053-0.206-0.16
		c0-0.055,0.008-0.121,0.028-0.202l0.322-1.605c0.015-0.071,0.023-0.15,0.023-0.237c0-0.187-0.054-0.329-0.162-0.425
		c-0.108-0.096-0.253-0.143-0.433-0.143c-0.123,0-0.257,0.022-0.401,0.067c-0.144,0.045-0.292,0.112-0.441,0.2
		c-0.15,0.089-0.288,0.193-0.415,0.311l0.316-1.55L43.906,44.077L43.906,44.077z M46.963,46.507
		c-0.029,0.14-0.043,0.264-0.043,0.371c0,0.19,0.036,0.358,0.107,0.505c0.072,0.147,0.17,0.268,0.295,0.366
		c0.125,0.097,0.269,0.17,0.433,0.219c0.163,0.048,0.338,0.073,0.523,0.073c0.213,0,0.427-0.031,0.643-0.096
		c0.214-0.064,0.416-0.159,0.604-0.285s0.35-0.283,0.485-0.471c0.134-0.188,0.228-0.4,0.281-0.638
		c0.025-0.116,0.038-0.236,0.038-0.362c0-0.244-0.056-0.454-0.167-0.628c-0.112-0.175-0.263-0.305-0.453-0.393
		c-0.191-0.088-0.401-0.131-0.633-0.131c-0.06,0-0.105,0.002-0.133,0.005c-0.209,0-0.417,0.031-0.624,0.094
		c-0.207,0.063-0.403,0.155-0.587,0.281c-0.184,0.125-0.343,0.28-0.477,0.464C47.119,46.066,47.022,46.274,46.963,46.507
		L46.963,46.507z M48.096,46.447c0.034-0.21,0.089-0.39,0.167-0.538c0.078-0.147,0.166-0.26,0.265-0.336
		c0.099-0.075,0.196-0.112,0.292-0.112c0.117,0,0.213,0.054,0.289,0.161c0.076,0.109,0.113,0.261,0.113,0.458
		c0,0.123-0.012,0.246-0.038,0.368c-0.049,0.231-0.117,0.432-0.2,0.599c-0.084,0.168-0.176,0.294-0.275,0.377
		c-0.1,0.084-0.201,0.126-0.302,0.126c-0.104,0-0.19-0.057-0.258-0.17s-0.102-0.273-0.102-0.48
		C48.048,46.759,48.064,46.608,48.096,46.447L48.096,46.447z M55.006,47.005l-0.115-0.085c-0.105,0.122-0.213,0.226-0.323,0.308
		c-0.11,0.082-0.218,0.142-0.323,0.182c-0.105,0.04-0.205,0.06-0.299,0.06c-0.126,0-0.239-0.033-0.338-0.097
		c-0.099-0.065-0.176-0.157-0.231-0.278c-0.056-0.121-0.083-0.261-0.083-0.423c0-0.052,0.001-0.092,0.004-0.12
		c0.032-0.226,0.099-0.42,0.202-0.582c0.102-0.162,0.223-0.284,0.363-0.366c0.139-0.082,0.276-0.123,0.414-0.123
		c0.161,0,0.291,0.057,0.392,0.172c0.101,0.116,0.151,0.291,0.151,0.527l0.187-0.05l-0.029-1.188
		c-0.057,0.078-0.155,0.117-0.293,0.117c-0.059,0-0.174-0.012-0.343-0.038c-0.17-0.025-0.304-0.038-0.405-0.038
		c-0.256,0-0.506,0.058-0.751,0.174c-0.245,0.117-0.455,0.279-0.633,0.489c-0.177,0.21-0.3,0.446-0.368,0.711
		c-0.022,0.109-0.033,0.225-0.033,0.348c0,0.224,0.046,0.43,0.138,0.617c0.092,0.188,0.233,0.342,0.422,0.463
		c0.189,0.121,0.423,0.194,0.702,0.218c0.039,0.003,0.096,0.005,0.172,0.005c0.098,0,0.221-0.008,0.368-0.024
		c0.147-0.015,0.244-0.022,0.29-0.022c0.102,0,0.154,0.028,0.154,0.086L55.006,47.005L55.006,47.005z M56.925,47.407
		c-0.029,0.18-0.044,0.292-0.044,0.333c0,0.067,0.012,0.124,0.035,0.171h1.262l0.038-0.175c-0.16,0-0.24-0.078-0.24-0.233
		c0-0.041,0.012-0.118,0.034-0.231l0.461-2.29l-1.368,0.106l-0.048,0.182c0.166,0.024,0.25,0.103,0.25,0.236
		c0,0.052-0.008,0.11-0.024,0.175l-0.186,0.962c-0.026,0.109-0.08,0.217-0.162,0.324c-0.082,0.107-0.173,0.195-0.276,0.263
		c-0.102,0.068-0.189,0.102-0.264,0.102c-0.105,0-0.159-0.065-0.159-0.196c0-0.039,0.006-0.083,0.015-0.131l0.393-2.023
		l-1.358,0.106l-0.048,0.182c0.148,0,0.222,0.06,0.222,0.18c0,0.047-0.011,0.107-0.034,0.182l-0.307,1.549
		c-0.017,0.094-0.025,0.168-0.025,0.221c0,0.191,0.056,0.335,0.168,0.43c0.113,0.096,0.262,0.143,0.447,0.143
		c0.196,0,0.406-0.051,0.63-0.154C56.561,47.719,56.757,47.581,56.925,47.407L56.925,47.407z M60.486,45.042
		c0.028-0.003,0.073-0.005,0.133-0.005c0.231,0,0.442,0.044,0.633,0.131c0.19,0.088,0.341,0.218,0.453,0.393
		c0.111,0.175,0.167,0.384,0.167,0.628c0,0.126-0.013,0.246-0.038,0.362c-0.052,0.237-0.147,0.45-0.281,0.638
		c-0.135,0.188-0.297,0.345-0.485,0.471s-0.39,0.221-0.604,0.285c-0.215,0.064-0.429,0.096-0.642,0.096
		c-0.186,0-0.36-0.025-0.523-0.073c-0.164-0.049-0.308-0.122-0.434-0.219c-0.125-0.097-0.223-0.219-0.295-0.366
		c-0.071-0.147-0.107-0.315-0.107-0.505c0-0.107,0.014-0.231,0.043-0.371c0.059-0.233,0.156-0.442,0.29-0.626
		c0.133-0.184,0.292-0.339,0.476-0.464c0.184-0.125,0.38-0.218,0.587-0.281C60.069,45.074,60.277,45.042,60.486,45.042
		L60.486,45.042z M59.641,46.447c-0.031,0.161-0.048,0.312-0.048,0.453c0,0.207,0.034,0.366,0.102,0.48
		c0.068,0.112,0.154,0.17,0.258,0.17c0.101,0,0.202-0.042,0.302-0.126c0.099-0.083,0.191-0.209,0.275-0.377s0.151-0.368,0.201-0.599
		c0.025-0.121,0.037-0.244,0.037-0.368c0-0.197-0.037-0.35-0.114-0.458c-0.076-0.107-0.172-0.161-0.289-0.161
		c-0.096,0-0.194,0.038-0.292,0.112c-0.099,0.076-0.187,0.189-0.265,0.336C59.73,46.057,59.675,46.236,59.641,46.447L59.641,46.447z
		 M61.35,44.629l0.187-0.276l-0.826-0.589l-1.069,0.538l0.067,0.327l0.884-0.276L61.35,44.629L61.35,44.629z M60.336,49.335
		c0.007-0.039,0.01-0.068,0.01-0.084c0-0.101-0.035-0.179-0.104-0.235c-0.068-0.056-0.154-0.084-0.256-0.084
		c-0.117,0-0.227,0.036-0.329,0.105c-0.101,0.071-0.165,0.17-0.193,0.298c-0.01,0.045-0.015,0.089-0.015,0.131
		c0,0.112,0.034,0.199,0.102,0.262c0.067,0.064,0.15,0.095,0.248,0.095c0.078,0,0.153-0.018,0.226-0.055
		c0.074-0.037,0.139-0.091,0.194-0.165C60.276,49.529,60.315,49.44,60.336,49.335L60.336,49.335z M64.823,47.005l-0.115-0.085
		c-0.105,0.122-0.213,0.226-0.323,0.308c-0.11,0.082-0.218,0.142-0.323,0.182c-0.105,0.04-0.206,0.06-0.299,0.06
		c-0.126,0-0.239-0.033-0.338-0.097c-0.099-0.065-0.176-0.157-0.232-0.278c-0.055-0.121-0.083-0.261-0.083-0.423
		c0-0.052,0.002-0.092,0.005-0.12c0.032-0.226,0.099-0.42,0.202-0.582c0.102-0.162,0.223-0.284,0.363-0.366
		c0.139-0.082,0.276-0.123,0.414-0.123c0.161,0,0.291,0.057,0.392,0.172c0.101,0.116,0.151,0.291,0.151,0.527l0.187-0.05
		l-0.03-1.188c-0.057,0.078-0.154,0.117-0.292,0.117c-0.06,0-0.174-0.012-0.343-0.038c-0.17-0.025-0.305-0.038-0.405-0.038
		c-0.256,0-0.506,0.058-0.751,0.174c-0.245,0.117-0.455,0.279-0.633,0.489c-0.178,0.21-0.3,0.446-0.368,0.711
		c-0.022,0.109-0.033,0.225-0.033,0.348c0,0.224,0.046,0.43,0.138,0.617c0.092,0.188,0.233,0.342,0.422,0.463
		c0.189,0.121,0.423,0.194,0.702,0.218c0.038,0.003,0.096,0.005,0.172,0.005c0.098,0,0.22-0.008,0.368-0.024
		c0.147-0.015,0.244-0.022,0.29-0.022c0.102,0,0.154,0.028,0.154,0.086L64.823,47.005L64.823,47.005z M69.861,44.941
		c-0.046,0.054-0.12,0.081-0.221,0.081c-0.046,0-0.159-0.013-0.339-0.041c-0.18-0.027-0.338-0.04-0.472-0.04
		c-0.279,0-0.533,0.042-0.759,0.126c-0.226,0.084-0.41,0.199-0.55,0.347c-0.141,0.148-0.233,0.312-0.274,0.495
		c-0.013,0.062-0.019,0.126-0.019,0.191c0,0.2,0.066,0.35,0.2,0.447c0.133,0.099,0.289,0.168,0.469,0.21
		c0.179,0.042,0.36,0.088,0.544,0.137s0.276,0.12,0.276,0.214c0,0.049-0.017,0.105-0.052,0.166
		c-0.022,0.042-0.068,0.083-0.137,0.123c-0.07,0.041-0.154,0.074-0.252,0.1c-0.097,0.026-0.197,0.038-0.298,0.038
		c-0.214,0-0.394-0.063-0.54-0.189c-0.146-0.127-0.218-0.329-0.218-0.61l-0.187,0.044l-0.149,1.183
		c0.093-0.06,0.199-0.091,0.316-0.091c0.057,0,0.12,0.006,0.186,0.018c0.068,0.011,0.147,0.027,0.236,0.048
		c0.09,0.02,0.172,0.036,0.245,0.048c0.074,0.01,0.149,0.017,0.224,0.017c0.301,0,0.567-0.047,0.798-0.142
		c0.232-0.094,0.422-0.215,0.569-0.362c0.147-0.148,0.256-0.302,0.327-0.461c0.071-0.161,0.106-0.309,0.106-0.444
		c-0.02-0.189-0.101-0.337-0.242-0.443c-0.141-0.105-0.313-0.187-0.513-0.244c-0.201-0.057-0.377-0.108-0.529-0.152
		c-0.151-0.044-0.227-0.099-0.227-0.162c0-0.02,0.003-0.037,0.01-0.051c0.059-0.121,0.198-0.181,0.416-0.181
		c0.118,0,0.235,0.02,0.352,0.06c0.116,0.04,0.212,0.097,0.286,0.173c0.074,0.075,0.112,0.164,0.112,0.266h0.169L69.861,44.941
		L69.861,44.941z M72.121,45.069c-0.208,0-0.417,0.031-0.623,0.094c-0.207,0.063-0.403,0.155-0.587,0.281
		c-0.184,0.125-0.343,0.28-0.477,0.464c-0.134,0.184-0.231,0.393-0.29,0.626c-0.029,0.14-0.043,0.264-0.043,0.371
		c0,0.19,0.036,0.358,0.107,0.505s0.17,0.268,0.294,0.366c0.125,0.097,0.269,0.17,0.434,0.219c0.163,0.048,0.337,0.073,0.523,0.073
		c0.213,0,0.427-0.031,0.642-0.096c0.214-0.064,0.416-0.159,0.604-0.285c0.188-0.126,0.35-0.283,0.485-0.47
		c0.135-0.188,0.229-0.4,0.281-0.638c0.025-0.116,0.038-0.236,0.038-0.362c0-0.244-0.056-0.454-0.167-0.628
		c-0.111-0.175-0.262-0.305-0.453-0.393s-0.401-0.131-0.632-0.131C72.194,45.064,72.15,45.066,72.121,45.069L72.121,45.069z
		 M71.276,46.473c0.034-0.21,0.089-0.39,0.168-0.538c0.077-0.147,0.165-0.26,0.265-0.336c0.098-0.075,0.196-0.112,0.292-0.112
		c0.118,0,0.213,0.054,0.289,0.161c0.076,0.109,0.114,0.261,0.114,0.458c0,0.123-0.013,0.246-0.038,0.368
		c-0.05,0.231-0.117,0.432-0.201,0.599c-0.084,0.168-0.176,0.294-0.275,0.377c-0.1,0.084-0.2,0.126-0.302,0.126
		c-0.103,0-0.189-0.057-0.258-0.17c-0.068-0.113-0.101-0.273-0.101-0.48C71.228,46.785,71.244,46.634,71.276,46.473L71.276,46.473z
		 M72.984,44.655l0.188-0.276l-0.826-0.589l-1.069,0.538l0.067,0.327l0.884-0.276L72.984,44.655L72.984,44.655z M72.298,43.397
		l0.129,0.227l0.993-0.413c0.097-0.037,0.169-0.088,0.215-0.154c0.046-0.067,0.069-0.141,0.069-0.223c0-0.101-0.033-0.191-0.1-0.27
		c-0.065-0.078-0.148-0.117-0.246-0.117c-0.128,0-0.257,0.073-0.385,0.22L72.298,43.397L72.298,43.397z M75.277,45.496
		c0.196-0.174,0.397-0.305,0.601-0.392c0.205-0.088,0.394-0.132,0.569-0.132c0.191,0,0.343,0.049,0.46,0.149
		c0.116,0.1,0.174,0.236,0.174,0.41c0,0.051-0.005,0.101-0.014,0.149l-0.341,1.642c-0.016,0.089-0.025,0.152-0.025,0.19
		c0,0.149,0.083,0.223,0.25,0.223l-0.037,0.175h-1.647l0.024-0.175c0.081,0,0.146-0.017,0.191-0.053
		c0.046-0.034,0.078-0.078,0.096-0.129c0.02-0.051,0.04-0.128,0.063-0.231l0.268-1.369c0.01-0.05,0.015-0.092,0.015-0.126
		c0-0.135-0.054-0.202-0.163-0.202c-0.071,0-0.154,0.032-0.248,0.094c-0.093,0.063-0.178,0.147-0.253,0.253
		c-0.076,0.107-0.124,0.219-0.147,0.337l-0.197,1.013c-0.016,0.089-0.025,0.147-0.025,0.176c0,0.158,0.078,0.237,0.231,0.237
		l-0.039,0.175h-1.685l0.039-0.175c0.106,0,0.187-0.017,0.245-0.05c0.057-0.033,0.097-0.073,0.118-0.121
		c0.022-0.048,0.041-0.112,0.059-0.192l0.346-1.692c0.012-0.08,0.019-0.142,0.019-0.185c0-0.15-0.084-0.226-0.254-0.226l0.048-0.182
		l1.18-0.106c0.024,0.033,0.04,0.076,0.049,0.128c0.01,0.053,0.017,0.13,0.022,0.231C75.274,45.442,75.277,45.493,75.277,45.496
		L75.277,45.496z M81.188,45.27l0.043-0.182h-1.79c-0.302,0-0.577,0.058-0.828,0.174c-0.25,0.115-0.461,0.27-0.635,0.462
		c-0.173,0.192-0.305,0.403-0.397,0.63c-0.091,0.229-0.138,0.453-0.138,0.67c0,0.299,0.085,0.545,0.253,0.737
		c0.169,0.193,0.415,0.29,0.741,0.29c0.067,0,0.118-0.002,0.154-0.005c0.15-0.017,0.307-0.027,0.469-0.027
		c0.355,0,0.533,0.07,0.533,0.212c0,0.035-0.014,0.08-0.039,0.132c-0.069,0.133-0.192,0.241-0.371,0.325
		c-0.178,0.085-0.355,0.126-0.532,0.126c-0.025,0.004-0.065,0.006-0.12,0.006c-0.203,0-0.386-0.044-0.548-0.134
		c-0.162-0.089-0.243-0.216-0.243-0.378c0-0.072,0.016-0.146,0.048-0.223l-0.11-0.084l-0.721,0.814
		c0.117,0.11,0.259,0.202,0.427,0.277c0.167,0.075,0.349,0.13,0.546,0.167s0.403,0.056,0.615,0.056c0.279,0,0.549-0.03,0.812-0.09
		c0.262-0.059,0.496-0.147,0.701-0.263c0.206-0.115,0.361-0.252,0.469-0.413c0.128-0.203,0.192-0.372,0.192-0.508
		c0-0.067-0.011-0.125-0.033-0.175c-0.022-0.051-0.055-0.109-0.1-0.174c-0.044-0.065-0.077-0.118-0.097-0.159
		c-0.02-0.04-0.03-0.087-0.03-0.141c0-0.01,0.003-0.034,0.01-0.07l0.325-1.605c0.022-0.111,0.042-0.192,0.061-0.244
		c0.019-0.051,0.054-0.094,0.105-0.13C81.014,45.308,81.09,45.284,81.188,45.27L81.188,45.27z M79.792,45.496l-0.38,1.877
		c-0.014,0.067-0.048,0.119-0.103,0.156s-0.12,0.055-0.194,0.055c-0.091,0-0.179-0.026-0.267-0.077
		c-0.088-0.052-0.16-0.131-0.218-0.238c-0.057-0.107-0.086-0.237-0.086-0.39c0-0.031,0.002-0.079,0.009-0.145
		c0.029-0.231,0.103-0.443,0.22-0.635c0.118-0.192,0.258-0.342,0.423-0.451c0.164-0.109,0.326-0.163,0.485-0.163
		C79.703,45.485,79.74,45.489,79.792,45.496L79.792,45.496z M85.556,44.262l-0.366,0.564l0.063,0.031
		c0.048-0.037,0.099-0.06,0.152-0.069c0.054-0.009,0.127-0.012,0.221-0.012h0.609l-0.043,0.206c-0.054,0-0.116-0.007-0.186-0.019
		c-0.054-0.007-0.134-0.01-0.236-0.01c-0.314,0-0.599,0.057-0.854,0.171c-0.255,0.113-0.471,0.264-0.648,0.452
		c-0.176,0.187-0.311,0.395-0.404,0.62c-0.092,0.226-0.139,0.447-0.139,0.664c0,0.146,0.022,0.282,0.065,0.408
		c0.042,0.126,0.109,0.238,0.197,0.336c0.089,0.098,0.2,0.174,0.334,0.227c0.133,0.054,0.289,0.081,0.466,0.081h2.164l0.028-0.175
		c-0.138,0-0.205-0.066-0.205-0.197c0-0.053,0.012-0.125,0.038-0.216l0.504-2.516c0.046,0.016,0.076,0.033,0.086,0.051l0.393-0.575
		L87.7,44.263c-0.031,0.036-0.067,0.059-0.105,0.068c-0.039,0.009-0.1,0.014-0.182,0.014l0.062-0.352l-1.445,0.086l-0.043,0.186
		c0.106,0,0.181,0.023,0.226,0.071H85.82c-0.073,0-0.128-0.004-0.163-0.012C85.621,44.314,85.588,44.294,85.556,44.262
		L85.556,44.262z M86.107,45.405l-0.385,1.827c-0.014,0.077-0.055,0.138-0.123,0.184c-0.069,0.045-0.147,0.068-0.236,0.068
		c-0.139,0-0.261-0.056-0.366-0.169c-0.105-0.112-0.157-0.279-0.157-0.5c0-0.078,0.006-0.152,0.02-0.222
		c0.048-0.229,0.133-0.434,0.254-0.615c0.121-0.181,0.269-0.322,0.44-0.422C85.727,45.455,85.912,45.405,86.107,45.405
		L86.107,45.405z M87.366,46.507c0.059-0.233,0.156-0.442,0.29-0.626s0.293-0.339,0.477-0.464c0.184-0.124,0.38-0.218,0.587-0.281
		s0.415-0.094,0.623-0.094c0.029-0.003,0.074-0.005,0.134-0.005c0.231,0,0.442,0.044,0.632,0.131
		c0.165,0.076,0.301,0.185,0.407,0.326l0.712-0.976h0.62l-0.585,0.806c-0.019,0.035-0.028,0.072-0.028,0.111
		c0,0.03,0.009,0.056,0.028,0.075h-0.735c0.012,0.017,0.023,0.034,0.035,0.051c0.111,0.175,0.168,0.384,0.168,0.628
		c0,0.126-0.014,0.246-0.038,0.362c-0.052,0.237-0.146,0.45-0.281,0.638c-0.135,0.188-0.297,0.345-0.485,0.471
		c-0.187,0.126-0.389,0.221-0.604,0.285s-0.429,0.096-0.642,0.096c-0.186,0-0.36-0.025-0.523-0.073
		c-0.164-0.049-0.308-0.122-0.434-0.219c-0.125-0.097-0.223-0.219-0.294-0.366s-0.107-0.315-0.107-0.504
		C87.323,46.771,87.338,46.647,87.366,46.507L87.366,46.507z M88.5,46.447c-0.032,0.161-0.048,0.313-0.048,0.453
		c0,0.207,0.033,0.366,0.102,0.479c0.068,0.112,0.154,0.17,0.257,0.17c0.102,0,0.202-0.042,0.302-0.126
		c0.099-0.083,0.191-0.209,0.275-0.377s0.151-0.368,0.201-0.599c0.025-0.121,0.038-0.244,0.038-0.368
		c0-0.197-0.038-0.35-0.113-0.457c-0.077-0.109-0.172-0.162-0.29-0.162c-0.096,0-0.194,0.038-0.292,0.113
		c-0.099,0.076-0.187,0.187-0.265,0.336C88.588,46.057,88.533,46.236,88.5,46.447L88.5,46.447z M92.949,45.496
		c0-0.003-0.002-0.054-0.006-0.155c-0.005-0.101-0.012-0.178-0.022-0.231c-0.01-0.052-0.026-0.096-0.049-0.128l-1.18,0.106
		l-0.048,0.182c0.17,0,0.255,0.075,0.255,0.226c0,0.043-0.007,0.106-0.02,0.185l-0.345,1.692c-0.017,0.081-0.038,0.144-0.059,0.192
		c-0.022,0.048-0.061,0.088-0.118,0.121c-0.057,0.033-0.139,0.05-0.245,0.05l-0.038,0.175h1.685l0.038-0.175
		c-0.154,0-0.231-0.08-0.231-0.237c0-0.028,0.009-0.087,0.025-0.176l0.197-1.013c0.022-0.118,0.07-0.231,0.146-0.337
		c0.075-0.105,0.16-0.19,0.254-0.253c0.094-0.062,0.177-0.094,0.248-0.094c0.109,0,0.163,0.067,0.163,0.202
		c0,0.034-0.005,0.076-0.015,0.126l-0.269,1.369c-0.023,0.103-0.044,0.18-0.063,0.231c-0.019,0.051-0.051,0.095-0.097,0.129
		c-0.044,0.036-0.109,0.053-0.191,0.053l-0.023,0.175h1.646l0.037-0.175c-0.167,0-0.25-0.075-0.25-0.223
		c0-0.038,0.009-0.101,0.025-0.19l0.34-1.642c0.01-0.049,0.015-0.099,0.015-0.149c0-0.175-0.059-0.31-0.175-0.41
		c-0.116-0.1-0.269-0.149-0.46-0.149c-0.175,0-0.364,0.044-0.569,0.132C93.347,45.191,93.145,45.322,92.949,45.496L92.949,45.496z
		 M102.015,45.27c-0.098,0.014-0.174,0.038-0.224,0.073c-0.051,0.036-0.086,0.079-0.105,0.13c-0.019,0.051-0.04,0.133-0.061,0.244
		l-0.325,1.605c-0.007,0.036-0.01,0.06-0.01,0.07c0,0.054,0.01,0.101,0.03,0.141c0.02,0.041,0.053,0.093,0.097,0.159
		c0.044,0.065,0.078,0.123,0.1,0.174c0.022,0.05,0.033,0.109,0.033,0.175c0,0.136-0.064,0.305-0.192,0.508
		c-0.107,0.16-0.263,0.298-0.469,0.413c-0.205,0.116-0.439,0.204-0.701,0.263c-0.263,0.06-0.533,0.09-0.813,0.09
		c-0.212,0-0.418-0.019-0.615-0.056s-0.38-0.092-0.546-0.167c-0.168-0.075-0.31-0.167-0.427-0.277l0.721-0.814l0.11,0.084
		c-0.032,0.077-0.048,0.15-0.048,0.223c0,0.162,0.081,0.289,0.243,0.378c0.162,0.09,0.345,0.134,0.548,0.134
		c0.055,0,0.095-0.002,0.12-0.006c0.176,0,0.354-0.041,0.532-0.126c0.178-0.084,0.302-0.192,0.371-0.325
		c0.025-0.052,0.039-0.097,0.039-0.132c0-0.141-0.178-0.212-0.534-0.212c-0.162,0-0.319,0.01-0.469,0.027
		c-0.035,0.003-0.086,0.005-0.154,0.005c-0.326,0-0.572-0.097-0.741-0.29c-0.168-0.192-0.253-0.438-0.253-0.737
		c0-0.218,0.046-0.441,0.137-0.67c0.091-0.228,0.224-0.438,0.397-0.63c0.174-0.192,0.385-0.347,0.635-0.462
		c0.25-0.117,0.526-0.174,0.828-0.174h1.79L102.015,45.27L102.015,45.27z M100.619,45.496c-0.052-0.007-0.089-0.01-0.11-0.01
		c-0.159,0-0.321,0.054-0.485,0.163c-0.165,0.109-0.305,0.259-0.423,0.451c-0.117,0.192-0.191,0.403-0.22,0.635
		c-0.006,0.066-0.009,0.114-0.009,0.145c0,0.154,0.029,0.284,0.086,0.39c0.058,0.107,0.13,0.186,0.218,0.238
		c0.088,0.051,0.176,0.077,0.267,0.077c0.073,0,0.139-0.018,0.194-0.055s0.089-0.089,0.103-0.156L100.619,45.496L100.619,45.496z
		 M102.748,44.168c-0.009,0.043-0.014,0.084-0.014,0.12c0,0.134,0.046,0.237,0.136,0.312c0.089,0.074,0.202,0.11,0.334,0.11
		c0.152,0,0.295-0.047,0.427-0.144c0.132-0.096,0.215-0.229,0.249-0.398c0.01-0.041,0.015-0.078,0.015-0.113
		c0-0.089-0.024-0.167-0.073-0.232c-0.048-0.067-0.112-0.116-0.192-0.149c-0.08-0.034-0.164-0.051-0.253-0.051
		c-0.146,0-0.282,0.049-0.41,0.148C102.841,43.87,102.767,44.001,102.748,44.168z"/>
	<path class="st0" d="M116.748,28.36l-7.393-10.598l-0.752-0.69h7.287l4.938,8.012l0.397-0.324l2.985-4.436
		c0.733-1.09,0.635-2.356-0.411-3.252h6.885l-7.959,11.286l-0.004,8.189l1.403,1.668h-8.554l1.206-1.643
		C116.777,33.842,116.677,31.081,116.748,28.36L116.748,28.36z M96.675,17.071c0.591,0.811,0.765,1.095,0.831,1.816
		c0.046,0.502,0.012,0.788-0.15,1.257l-5.499,15.944c-0.256,0.655-0.789,1.379-1.563,2.083h6c-0.445-0.395-0.73-0.865-0.833-1.425
		c-0.095-0.511-0.091-0.704,0.021-1.196l1.22-3.787h6.983l1.088,2.918c0.114,0.305,0.179,0.589,0.208,0.917
		c0.096,1.09-0.254,1.987-1.119,2.62h9.407c-0.923-0.822-1.77-1.682-2.248-2.727l-6.868-18.42
		C102.171,17.071,98.657,17.071,96.675,17.071L96.675,17.071z M102.661,29.016h-4.995l2.422-6.901L102.661,29.016L102.661,29.016z
		 M77.654,17.089l4.727-0.018h2.25h3.489c3.157,0,5.74,2.583,5.74,5.74v0.707c0,3.157-2.584,5.564-5.74,5.66l-2.618,0.08
		c2.105-0.968,2.985-3.413,2.723-5.615c-0.211-1.767-1.121-3.467-2.638-3.499l-0.956-0.02v15.732c0,0.306,0.053,0.434,0.214,0.703
		c0.257,0.428,0.599,0.856,0.953,1.284c0.092,0.111,0.184,0.222,0.276,0.333h-8.142c0.123-0.15,0.243-0.301,0.357-0.457
		c0.246-0.336,0.465-0.693,0.629-1.091c0.105-0.256,0.158-0.445,0.158-0.717v-16.9C79.044,18.129,78.168,17.629,77.654,17.089z"/>
	<path class="st0" d="M33.515,16.977h6.572l5.515,15.816l4.678-13.101c0.085-0.509,0.012-0.673-0.183-1.112
		c-0.259-0.532-0.536-1.048-0.795-1.58h4.909c-0.291,1.069-0.72,2.243-1.091,3.321l-6.338,18.42c-1.73-0.345-3.659-1.03-5.151-2.444
		c-1.123-1.064-1.521-2.274-2.076-3.716l-5.3-14.036C34.047,17.992,33.789,17.496,33.515,16.977L33.515,16.977z M59.755,24.389
		V35.69c0,0.458,0.106,0.54,0.388,0.908l1.295,1.688h-6.186c0.348-0.532,0.697-1.063,1.045-1.595
		c0.269-0.439,0.385-0.588,0.385-1.097V19.805l-1.739-2.828h6.411l10.379,13.369V19.692c0-0.509-0.101-0.673-0.37-1.112
		c-0.348-0.532-0.712-1.048-1.06-1.58h6.18l-1.289,1.688c-0.282,0.368-0.388,0.45-0.388,0.908v19.23
		c-2.341-0.308-4.521-0.881-6.459-3.358L59.755,24.389z"/>
</g>
</svg>
