<?xml version="1.0" encoding="utf-8"?>
<!-- Generator: Adobe Illustrator 19.1.0, SVG Export Plug-In . SVG Version: 6.00 Build 0)  -->
<svg version="1.1" id="Layer_1" xmlns="http://www.w3.org/2000/svg" xmlns:xlink="http://www.w3.org/1999/xlink" x="0px" y="0px"
	 viewBox="0 0 100 100" style="enable-background:new 0 0 100 100;" xml:space="preserve">
<style type="text/css">
	.st0{opacity:0.2;fill:#393C44;enable-background:new    ;}
	.st1{fill:#67C6F0;stroke:#67C7F1;stroke-width:0.1205;stroke-miterlimit:10;}
	.st2{fill:#ED3539;stroke:#ED3539;stroke-width:0.0405;stroke-miterlimit:10;}
	.st3{fill-rule:evenodd;clip-rule:evenodd;fill:#EB2227;}
	.st4{fill-rule:evenodd;clip-rule:evenodd;fill:#085CA8;}
</style>
<g>
	<path class="st0" d="M50,99.32C22.804,99.32,0.68,77.194,0.68,49.999S22.804,0.679,50,0.679s49.321,22.126,49.321,49.32
		S77.196,99.32,50,99.32z M50,1.347c-26.828,0-48.654,21.826-48.654,48.652S23.172,98.652,50,98.652s48.654-21.826,48.654-48.653
		S76.827,1.347,50,1.347z"/>
	<path class="st0" d="M50,93.155c-23.796,0-43.156-19.361-43.156-43.156S26.204,6.844,50,6.844s43.156,19.361,43.156,43.155
		S73.796,93.155,50,93.155z M50,7.512c-23.428,0-42.489,19.061-42.489,42.487S26.572,92.487,50,92.487s42.488-19.061,42.488-42.488
		S73.427,7.512,50,7.512z"/>
	<path class="st1" d="M1.408,47.56C2.753,20.766,25.645,0.063,52.439,1.408l0.033-0.667C25.311-0.622,2.105,20.365,0.742,47.527
		s19.625,50.367,46.786,51.731l0.033-0.667C20.767,97.246,0.063,74.353,1.408,47.56z	">
<animateTransform  type="rotate" fill="remove" attributeName="transform" accumulate="none" dur="2s" restart="always" to="360 50 50" calcMode="spline" from="0 50 50" additive="replace" keySplines="0.4, 0, 0.2, 1" keyTimes="0;1" repeatCount="indefinite">
			</animateTransform>
	</path>
	<path class="st2" d="M80.905,79.156c-16.077,17.041-43.022,17.825-60.063,1.748l-0.458,0.486
		c17.309,16.33,44.677,15.533,61.006-1.775s15.533-44.676-1.775-61.005l-0.458,0.486C96.198,35.171,96.982,62.116,80.905,79.156z	">
<animateTransform  type="rotate" fill="remove" attributeName="transform" accumulate="none" dur="1.8s" restart="always" to="360 50 50" calcMode="linear" from="0 50 50" additive="replace" repeatCount="indefinite">
			</animateTransform>
	</path>
</g>
<g>
	<path class="st3" d="M63.367,57.558l-0.024,0.12c0.108,0.016,0.162,0.069,0.162,0.159c0,0.019-0.004,0.057-0.013,0.113
		l-0.223,1.085c-0.022,0.105-0.047,0.176-0.076,0.215c-0.029,0.039-0.091,0.058-0.183,0.058l-0.02,0.116h1.085l0.026-0.116
		c-0.064-0.011-0.108-0.027-0.132-0.051c-0.024-0.023-0.037-0.057-0.037-0.103c0-0.022,0.01-0.093,0.031-0.213l0.295-1.454
		L63.367,57.558L63.367,57.558z M65.813,58.156c-0.104,0.023-0.233,0.051-0.388,0.085c-0.154,0.035-0.302,0.079-0.442,0.136
		c-0.14,0.056-0.264,0.136-0.372,0.239c-0.107,0.102-0.172,0.231-0.197,0.386c-0.009,0.052-0.013,0.085-0.013,0.1
		c0,0.078,0.022,0.146,0.064,0.201c0.044,0.056,0.102,0.098,0.177,0.126c0.075,0.029,0.158,0.042,0.251,0.042
		c0.121,0,0.245-0.024,0.372-0.073c0.127-0.049,0.241-0.12,0.339-0.213c0.01,0.073,0.019,0.124,0.026,0.155
		c0.007,0.031,0.022,0.059,0.044,0.084h0.773l0.023-0.116c-0.095,0-0.143-0.035-0.143-0.106c0-0.02,0.005-0.057,0.013-0.111
		l0.213-1.024c0.008-0.049,0.012-0.088,0.012-0.12c-0.003-0.082-0.022-0.156-0.059-0.223c-0.037-0.067-0.103-0.124-0.198-0.168
		c-0.095-0.045-0.224-0.067-0.387-0.067c-0.135,0-0.25,0.008-0.346,0.024c-0.096,0.016-0.193,0.037-0.292,0.062
		c-0.098,0.025-0.164,0.038-0.196,0.038c-0.046,0-0.086-0.018-0.12-0.053l-0.228,0.689l0.105,0.033
		c0.04-0.095,0.101-0.18,0.184-0.254c0.083-0.074,0.173-0.131,0.272-0.172c0.099-0.04,0.191-0.06,0.277-0.06
		c0.081,0,0.146,0.019,0.194,0.055c0.048,0.037,0.073,0.092,0.073,0.164C65.842,58.057,65.832,58.105,65.813,58.156L65.813,58.156z
		 M65.765,58.396c-0.016,0.119-0.048,0.231-0.097,0.336c-0.049,0.105-0.106,0.189-0.174,0.252c-0.066,0.063-0.133,0.095-0.199,0.095
		c-0.044,0-0.084-0.014-0.12-0.043c-0.038-0.037-0.057-0.081-0.057-0.133c0-0.073,0.033-0.148,0.101-0.227
		c0.056-0.065,0.133-0.124,0.232-0.177C65.55,58.445,65.654,58.411,65.765,58.396L65.765,58.396z M65.765,56.676
		c0.011-0.115,0.055-0.206,0.134-0.273c0.079-0.066,0.166-0.1,0.263-0.1c0.093,0.019,0.139,0.066,0.139,0.14
		c0,0.055-0.027,0.115-0.079,0.18c-0.053,0.065-0.119,0.117-0.197,0.156c-0.08,0.035-0.153,0.083-0.221,0.144
		c-0.068,0.062-0.101,0.126-0.101,0.195c0,0.026,0.004,0.05,0.012,0.07c0.048-0.04,0.113-0.06,0.194-0.06
		c0.027,0,0.062,0.002,0.105,0.007c-0.004-0.017-0.007-0.029-0.007-0.037c0-0.04,0.021-0.073,0.064-0.098
		c0.043-0.026,0.118-0.061,0.225-0.106c0.106-0.046,0.192-0.091,0.254-0.135c0.063-0.044,0.105-0.101,0.126-0.169
		c0.021-0.057,0.032-0.109,0.032-0.157c0-0.064-0.018-0.119-0.052-0.164c-0.035-0.045-0.083-0.078-0.143-0.1
		c-0.06-0.022-0.128-0.032-0.202-0.032c-0.091,0-0.176,0.012-0.254,0.037c-0.004,0.001-0.03,0.007-0.077,0.019
		c-0.047,0.012-0.08,0.02-0.098,0.023c-0.018,0.004-0.037,0.006-0.056,0.006c-0.034,0-0.06-0.011-0.079-0.033l-0.047,0.489H65.765
		L65.765,56.676z M67.898,57.827c0-0.002-0.002-0.035-0.004-0.102c-0.003-0.066-0.007-0.117-0.014-0.153
		c-0.007-0.035-0.017-0.063-0.033-0.085l-0.78,0.07l-0.032,0.12c0.112,0,0.168,0.05,0.168,0.149c0,0.029-0.005,0.07-0.013,0.122
		l-0.228,1.118c-0.011,0.053-0.024,0.095-0.039,0.127c-0.014,0.031-0.04,0.058-0.079,0.08c-0.038,0.022-0.092,0.033-0.162,0.033
		l-0.025,0.116h1.114l0.025-0.116c-0.101,0-0.153-0.053-0.153-0.157c0-0.019,0.006-0.057,0.016-0.116l0.13-0.67
		c0.015-0.078,0.046-0.152,0.097-0.223c0.05-0.07,0.106-0.126,0.168-0.167c0.062-0.041,0.117-0.062,0.164-0.062
		c0.072,0,0.108,0.044,0.108,0.134c0,0.022-0.003,0.05-0.01,0.083l-0.177,0.905c-0.016,0.068-0.029,0.119-0.042,0.153
		c-0.013,0.034-0.034,0.063-0.064,0.085c-0.03,0.024-0.072,0.035-0.126,0.035l-0.016,0.116h1.089l0.024-0.116
		c-0.11,0-0.165-0.049-0.165-0.148c0-0.025,0.006-0.067,0.016-0.126l0.225-1.085c0.007-0.032,0.01-0.065,0.01-0.099
		c0-0.115-0.039-0.205-0.115-0.271c-0.077-0.066-0.178-0.099-0.304-0.099c-0.115,0-0.241,0.029-0.376,0.087
		C68.16,57.626,68.027,57.713,67.898,57.827L67.898,57.827z M70.963,56.89l-0.032,0.123c0.107,0,0.161,0.052,0.161,0.156
		c0,0.023-0.004,0.051-0.012,0.086l-0.353,1.78c-0.021,0.077-0.047,0.138-0.077,0.183c-0.031,0.045-0.091,0.075-0.182,0.09
		l-0.02,0.116h1.091l0.023-0.116c-0.106-0.018-0.159-0.073-0.159-0.167c0-0.024,0.007-0.071,0.022-0.14l0.137-0.662
		c0.013-0.078,0.042-0.15,0.087-0.214c0.045-0.064,0.097-0.115,0.157-0.153c0.06-0.037,0.115-0.055,0.168-0.055
		c0.046,0,0.083,0.015,0.11,0.047c0.028,0.031,0.042,0.078,0.042,0.142c0,0.038-0.005,0.075-0.013,0.11l-0.155,0.785
		c-0.017,0.082-0.045,0.152-0.083,0.214c-0.039,0.062-0.107,0.093-0.206,0.093l-0.025,0.116h1.094l0.02-0.116
		c-0.091,0-0.136-0.035-0.136-0.106c0-0.036,0.006-0.08,0.018-0.134l0.213-1.061c0.01-0.047,0.015-0.099,0.015-0.157
		c0-0.124-0.036-0.217-0.107-0.281c-0.071-0.063-0.167-0.095-0.286-0.095c-0.081,0-0.17,0.015-0.265,0.044
		c-0.096,0.03-0.193,0.074-0.292,0.133c-0.099,0.059-0.19,0.128-0.274,0.206l0.209-1.025L70.963,56.89L70.963,56.89z M72.881,58.496
		c0.039-0.154,0.103-0.292,0.192-0.414c0.088-0.122,0.193-0.224,0.315-0.307c0.122-0.082,0.251-0.144,0.388-0.186
		c0.137-0.042,0.274-0.062,0.413-0.062c0.019-0.002,0.049-0.003,0.088-0.003c0.153,0,0.292,0.029,0.418,0.087
		c0.109,0.05,0.199,0.122,0.269,0.216l0.471-0.645h0.41l-0.387,0.533c-0.013,0.023-0.019,0.047-0.019,0.073
		c0,0.02,0.007,0.037,0.019,0.049h-0.486c0.008,0.011,0.016,0.022,0.023,0.034c0.073,0.115,0.11,0.254,0.11,0.416
		c0,0.083-0.009,0.163-0.025,0.239c-0.035,0.157-0.097,0.297-0.186,0.422c-0.089,0.124-0.196,0.228-0.321,0.311
		c-0.124,0.083-0.258,0.146-0.399,0.188c-0.142,0.042-0.284,0.063-0.424,0.063c-0.123,0-0.238-0.016-0.346-0.048
		c-0.108-0.032-0.204-0.081-0.287-0.145c-0.083-0.064-0.148-0.145-0.195-0.242c-0.047-0.097-0.071-0.208-0.071-0.334
		C72.852,58.671,72.861,58.589,72.881,58.496L72.881,58.496z M73.63,58.456c-0.021,0.106-0.032,0.207-0.032,0.3
		c0,0.137,0.022,0.242,0.067,0.317c0.045,0.074,0.102,0.112,0.17,0.112c0.067,0,0.134-0.028,0.2-0.083
		c0.065-0.055,0.126-0.138,0.182-0.249c0.055-0.111,0.1-0.243,0.133-0.396c0.016-0.08,0.024-0.161,0.024-0.243
		c0-0.13-0.024-0.231-0.075-0.302c-0.05-0.072-0.113-0.107-0.191-0.107c-0.064,0-0.128,0.025-0.193,0.075
		c-0.065,0.05-0.124,0.124-0.175,0.222C73.688,58.199,73.652,58.317,73.63,58.456L73.63,58.456z M76.572,57.827
		c0-0.002-0.002-0.035-0.004-0.102c-0.003-0.066-0.008-0.117-0.014-0.153c-0.007-0.035-0.017-0.063-0.033-0.085l-0.78,0.07
		l-0.031,0.12c0.112,0,0.168,0.05,0.168,0.149c0,0.029-0.005,0.07-0.013,0.122l-0.228,1.118c-0.012,0.053-0.025,0.095-0.039,0.127
		c-0.014,0.031-0.04,0.058-0.078,0.08c-0.038,0.022-0.092,0.033-0.162,0.033l-0.026,0.116h1.114l0.026-0.116
		c-0.102,0-0.153-0.053-0.153-0.157c0-0.019,0.006-0.057,0.016-0.116l0.13-0.67c0.015-0.078,0.046-0.152,0.097-0.223
		c0.05-0.07,0.106-0.126,0.167-0.167c0.062-0.041,0.117-0.062,0.164-0.062c0.072,0,0.108,0.044,0.108,0.134
		c0,0.022-0.003,0.05-0.01,0.083l-0.177,0.905c-0.016,0.068-0.029,0.119-0.042,0.153c-0.012,0.034-0.033,0.063-0.064,0.085
		c-0.03,0.024-0.072,0.035-0.126,0.035l-0.016,0.116h1.089l0.024-0.116c-0.11,0-0.165-0.049-0.165-0.148
		c0-0.025,0.006-0.067,0.016-0.126l0.226-1.085c0.006-0.032,0.009-0.065,0.009-0.099c0-0.115-0.038-0.205-0.115-0.271
		c-0.077-0.066-0.178-0.099-0.304-0.099c-0.115,0-0.241,0.029-0.376,0.087C76.835,57.626,76.702,57.713,76.572,57.827L76.572,57.827
		z M22.918,59.514c0.014,0.002,0.037,0.003,0.066,0.003c0.033,0,0.077-0.003,0.135-0.009c0.057-0.006,0.109-0.011,0.156-0.016
		c0.047-0.006,0.089-0.01,0.128-0.013c0.038-0.004,0.075-0.006,0.109-0.006c0.099,0,0.157,0.022,0.175,0.066l0.46-0.838
		l-0.108-0.027c-0.036,0.075-0.081,0.144-0.138,0.206c-0.057,0.061-0.122,0.115-0.195,0.16c-0.073,0.045-0.15,0.08-0.232,0.104
		c-0.081,0.024-0.162,0.036-0.241,0.036c-0.127,0-0.243-0.033-0.349-0.098c-0.105-0.065-0.19-0.17-0.253-0.314
		c-0.064-0.144-0.096-0.329-0.096-0.553c0.009-0.177,0.057-0.342,0.144-0.495c0.088-0.153,0.199-0.274,0.332-0.365
		c0.134-0.09,0.268-0.135,0.403-0.135c0.155,0,0.291,0.064,0.408,0.193c0.117,0.129,0.195,0.326,0.235,0.593l0.096-0.033
		l0.022-1.112c-0.049,0.062-0.114,0.093-0.197,0.093c-0.039,0-0.135-0.015-0.29-0.047c-0.154-0.031-0.289-0.046-0.405-0.046
		c-0.287,0.013-0.531,0.074-0.734,0.182c-0.202,0.108-0.362,0.233-0.477,0.376c-0.115,0.143-0.199,0.275-0.251,0.395
		c-0.052,0.121-0.089,0.225-0.112,0.315c-0.01,0.096-0.016,0.177-0.016,0.243c0,0.251,0.046,0.455,0.139,0.611
		c0.093,0.156,0.206,0.27,0.339,0.342c0.134,0.073,0.25,0.118,0.348,0.135C22.617,59.479,22.75,59.497,22.918,59.514L22.918,59.514z
		 M24.745,56.89l-0.032,0.123c0.107,0,0.161,0.052,0.161,0.156c0,0.023-0.004,0.051-0.012,0.086l-0.353,1.78
		c-0.021,0.077-0.046,0.138-0.077,0.183c-0.031,0.045-0.091,0.075-0.182,0.09l-0.019,0.116h1.091l0.023-0.116
		c-0.106-0.018-0.159-0.073-0.159-0.167c0-0.024,0.007-0.071,0.022-0.14l0.137-0.662c0.013-0.078,0.042-0.15,0.087-0.214
		c0.045-0.064,0.097-0.115,0.157-0.153c0.06-0.037,0.115-0.055,0.168-0.055c0.046,0,0.083,0.015,0.11,0.047
		c0.028,0.031,0.042,0.078,0.042,0.142c0,0.038-0.005,0.075-0.013,0.11l-0.155,0.785c-0.018,0.082-0.045,0.152-0.083,0.214
		c-0.039,0.062-0.107,0.093-0.206,0.093l-0.025,0.116h1.094l0.02-0.116c-0.091,0-0.136-0.035-0.136-0.106
		c0-0.036,0.005-0.08,0.018-0.134l0.213-1.061c0.01-0.047,0.015-0.099,0.015-0.157c0-0.124-0.036-0.217-0.107-0.281
		c-0.071-0.063-0.167-0.095-0.286-0.095c-0.082,0-0.17,0.015-0.265,0.044c-0.095,0.03-0.193,0.074-0.292,0.133
		c-0.099,0.059-0.19,0.128-0.274,0.206l0.209-1.025L24.745,56.89L24.745,56.89z M26.767,58.496
		c-0.019,0.093-0.029,0.175-0.029,0.245c0,0.126,0.024,0.237,0.071,0.334c0.047,0.097,0.112,0.177,0.195,0.242
		c0.083,0.064,0.178,0.113,0.286,0.145c0.108,0.032,0.223,0.048,0.346,0.048c0.141,0,0.283-0.021,0.425-0.063
		c0.141-0.042,0.275-0.105,0.399-0.188c0.124-0.083,0.231-0.187,0.32-0.311c0.088-0.124,0.151-0.265,0.186-0.422
		c0.016-0.077,0.025-0.156,0.025-0.239c0-0.161-0.037-0.3-0.11-0.416c-0.074-0.115-0.174-0.202-0.299-0.26
		c-0.126-0.058-0.265-0.087-0.418-0.087c-0.04,0-0.069,0.001-0.088,0.003c-0.138,0-0.276,0.021-0.413,0.062
		c-0.137,0.042-0.267,0.103-0.388,0.186c-0.122,0.083-0.227,0.185-0.315,0.307C26.87,58.204,26.806,58.342,26.767,58.496
		L26.767,58.496z M27.516,58.456c0.022-0.139,0.059-0.258,0.11-0.356c0.051-0.097,0.11-0.172,0.175-0.222
		c0.065-0.049,0.13-0.074,0.193-0.074c0.078,0,0.141,0.035,0.191,0.106c0.05,0.072,0.075,0.173,0.075,0.303
		c0,0.082-0.008,0.163-0.025,0.243c-0.033,0.153-0.077,0.285-0.133,0.396c-0.055,0.111-0.117,0.194-0.182,0.249
		c-0.066,0.055-0.133,0.083-0.2,0.083c-0.069,0-0.126-0.038-0.17-0.112c-0.045-0.075-0.067-0.18-0.067-0.317
		C27.484,58.663,27.494,58.563,27.516,58.456L27.516,58.456z M32.084,58.825l-0.076-0.056c-0.069,0.081-0.141,0.149-0.214,0.203
		c-0.073,0.054-0.144,0.094-0.214,0.12c-0.07,0.026-0.136,0.04-0.198,0.04c-0.084,0-0.158-0.022-0.223-0.064
		c-0.065-0.043-0.116-0.104-0.153-0.184c-0.037-0.08-0.055-0.173-0.055-0.28c0-0.035,0.001-0.061,0.003-0.079
		c0.021-0.15,0.066-0.278,0.133-0.385c0.068-0.107,0.148-0.188,0.24-0.242c0.092-0.054,0.183-0.081,0.274-0.081
		c0.106,0,0.192,0.038,0.259,0.114c0.067,0.077,0.1,0.192,0.1,0.348l0.124-0.033l-0.019-0.786c-0.038,0.051-0.102,0.077-0.194,0.077
		c-0.039,0-0.115-0.008-0.227-0.025c-0.112-0.017-0.201-0.025-0.268-0.025c-0.169,0-0.335,0.038-0.496,0.115
		c-0.162,0.077-0.301,0.184-0.419,0.323c-0.117,0.139-0.198,0.295-0.243,0.47c-0.014,0.072-0.022,0.149-0.022,0.23
		c0,0.148,0.031,0.285,0.091,0.408c0.061,0.124,0.154,0.226,0.279,0.306c0.125,0.08,0.28,0.128,0.464,0.144
		c0.026,0.002,0.063,0.003,0.114,0.003c0.065,0,0.146-0.005,0.243-0.016c0.097-0.01,0.161-0.015,0.192-0.015
		c0.068,0,0.102,0.019,0.102,0.057L32.084,58.825L32.084,58.825z M33.353,59.091c-0.019,0.119-0.029,0.193-0.029,0.22
		c0,0.044,0.008,0.082,0.023,0.113h0.834l0.025-0.116c-0.106,0-0.159-0.052-0.159-0.154c0-0.027,0.008-0.078,0.022-0.153
		l0.305-1.514l-0.904,0.07l-0.032,0.12c0.11,0.016,0.165,0.068,0.165,0.156c0,0.034-0.005,0.073-0.016,0.116l-0.123,0.636
		c-0.018,0.072-0.053,0.144-0.107,0.214c-0.054,0.071-0.115,0.129-0.183,0.174c-0.067,0.045-0.125,0.068-0.175,0.068
		c-0.07,0-0.105-0.043-0.105-0.13c0-0.026,0.004-0.055,0.01-0.087l0.26-1.337l-0.898,0.07l-0.032,0.12
		c0.098,0,0.147,0.04,0.147,0.119c0,0.031-0.007,0.071-0.022,0.12l-0.203,1.024c-0.011,0.062-0.016,0.111-0.016,0.146
		c0,0.126,0.037,0.222,0.111,0.285c0.075,0.063,0.173,0.095,0.295,0.095c0.13,0,0.269-0.034,0.417-0.102
		C33.113,59.298,33.242,59.207,33.353,59.091L33.353,59.091z M35.708,57.528c0.019-0.002,0.049-0.003,0.088-0.003
		c0.153,0,0.292,0.029,0.418,0.087c0.126,0.058,0.225,0.144,0.299,0.26c0.073,0.115,0.11,0.254,0.11,0.416
		c0,0.083-0.009,0.163-0.025,0.239c-0.035,0.157-0.097,0.297-0.186,0.422c-0.089,0.124-0.196,0.228-0.321,0.311
		c-0.124,0.083-0.258,0.146-0.399,0.188c-0.142,0.042-0.284,0.063-0.425,0.063c-0.123,0-0.238-0.016-0.346-0.048
		c-0.108-0.032-0.204-0.081-0.287-0.145c-0.083-0.064-0.148-0.145-0.195-0.242c-0.047-0.097-0.071-0.208-0.071-0.334
		c0-0.071,0.009-0.153,0.029-0.245c0.039-0.154,0.103-0.292,0.192-0.414c0.088-0.122,0.193-0.224,0.315-0.307
		c0.122-0.083,0.251-0.144,0.388-0.186C35.433,57.549,35.57,57.528,35.708,57.528L35.708,57.528z M35.15,58.456
		c-0.021,0.106-0.032,0.206-0.032,0.299c0,0.137,0.022,0.242,0.067,0.317c0.045,0.074,0.102,0.112,0.17,0.112
		c0.067,0,0.134-0.028,0.2-0.083c0.065-0.055,0.126-0.138,0.182-0.249c0.055-0.111,0.1-0.243,0.133-0.396
		c0.016-0.08,0.024-0.161,0.024-0.243c0-0.13-0.024-0.231-0.075-0.303c-0.05-0.071-0.114-0.106-0.191-0.106
		c-0.064,0-0.128,0.025-0.193,0.074c-0.065,0.05-0.124,0.125-0.175,0.222C35.208,58.199,35.172,58.317,35.15,58.456L35.15,58.456z
		 M36.279,57.255l0.124-0.182l-0.546-0.389l-0.707,0.356l0.044,0.216l0.584-0.182L36.279,57.255L36.279,57.255z M35.609,60.366
		c0.004-0.026,0.007-0.045,0.007-0.056c0-0.067-0.023-0.119-0.069-0.155c-0.045-0.037-0.102-0.055-0.169-0.055
		c-0.077,0-0.15,0.024-0.217,0.07c-0.066,0.047-0.109,0.112-0.128,0.197c-0.007,0.03-0.01,0.059-0.01,0.086
		c0,0.074,0.022,0.132,0.067,0.173c0.044,0.042,0.099,0.063,0.164,0.063c0.051,0,0.101-0.012,0.15-0.037
		c0.049-0.024,0.092-0.06,0.128-0.109C35.569,60.494,35.595,60.435,35.609,60.366L35.609,60.366z M38.576,58.825l-0.076-0.056
		c-0.069,0.081-0.141,0.149-0.213,0.203c-0.073,0.054-0.144,0.094-0.214,0.12c-0.07,0.026-0.136,0.04-0.198,0.04
		c-0.084,0-0.158-0.022-0.223-0.064c-0.065-0.043-0.116-0.104-0.153-0.184c-0.036-0.08-0.055-0.173-0.055-0.28
		c0-0.035,0.001-0.061,0.003-0.079c0.021-0.15,0.066-0.278,0.133-0.385c0.068-0.107,0.148-0.188,0.24-0.242
		c0.092-0.054,0.183-0.081,0.274-0.081c0.106,0,0.192,0.038,0.259,0.114c0.067,0.077,0.1,0.192,0.1,0.348l0.124-0.033l-0.02-0.786
		c-0.038,0.051-0.102,0.077-0.193,0.077c-0.04,0-0.115-0.008-0.227-0.025c-0.112-0.017-0.201-0.025-0.268-0.025
		c-0.169,0-0.335,0.038-0.497,0.115c-0.162,0.077-0.301,0.184-0.418,0.323c-0.117,0.139-0.198,0.295-0.243,0.47
		c-0.014,0.072-0.022,0.149-0.022,0.23c0,0.148,0.031,0.285,0.091,0.408c0.061,0.124,0.154,0.226,0.279,0.306
		c0.125,0.08,0.28,0.128,0.464,0.144c0.025,0.002,0.063,0.003,0.114,0.003c0.065,0,0.146-0.005,0.243-0.016
		c0.097-0.01,0.161-0.015,0.192-0.015c0.068,0,0.102,0.019,0.102,0.057L38.576,58.825L38.576,58.825z M41.907,57.461
		c-0.031,0.036-0.079,0.053-0.146,0.053c-0.03,0-0.105-0.009-0.224-0.027c-0.119-0.018-0.223-0.027-0.312-0.027
		c-0.185,0-0.353,0.028-0.502,0.083c-0.149,0.055-0.271,0.132-0.364,0.229c-0.093,0.098-0.154,0.206-0.181,0.327
		c-0.009,0.041-0.013,0.083-0.013,0.126c0,0.132,0.044,0.231,0.132,0.295c0.088,0.065,0.191,0.111,0.31,0.139
		c0.118,0.028,0.238,0.058,0.36,0.091c0.122,0.032,0.182,0.079,0.182,0.141c0,0.033-0.011,0.069-0.035,0.11
		c-0.014,0.028-0.045,0.055-0.091,0.082c-0.046,0.027-0.102,0.049-0.167,0.066c-0.064,0.017-0.13,0.025-0.197,0.025
		c-0.141,0-0.261-0.042-0.357-0.125c-0.096-0.084-0.144-0.218-0.144-0.403l-0.124,0.029l-0.098,0.782
		c0.062-0.04,0.131-0.06,0.209-0.06c0.038,0,0.079,0.004,0.123,0.012c0.045,0.007,0.097,0.018,0.156,0.032
		c0.06,0.013,0.114,0.024,0.162,0.032c0.049,0.007,0.098,0.011,0.148,0.011c0.199,0,0.375-0.031,0.528-0.094
		c0.153-0.062,0.279-0.142,0.376-0.239c0.097-0.098,0.169-0.199,0.216-0.305c0.047-0.106,0.07-0.204,0.07-0.294
		c-0.013-0.125-0.067-0.223-0.16-0.293c-0.093-0.07-0.207-0.124-0.339-0.161c-0.133-0.038-0.25-0.071-0.35-0.1
		c-0.1-0.029-0.15-0.065-0.15-0.107c0-0.013,0.002-0.024,0.007-0.033c0.039-0.08,0.131-0.12,0.275-0.12
		c0.078,0,0.155,0.013,0.233,0.04c0.077,0.026,0.14,0.064,0.189,0.114c0.049,0.05,0.074,0.108,0.074,0.176h0.112L41.907,57.461
		L41.907,57.461z M43.401,57.545c-0.138,0-0.276,0.021-0.412,0.062c-0.137,0.042-0.267,0.103-0.388,0.186
		c-0.121,0.083-0.227,0.185-0.315,0.307c-0.089,0.122-0.153,0.26-0.192,0.414c-0.019,0.093-0.029,0.175-0.029,0.245
		c0,0.126,0.024,0.236,0.071,0.334c0.047,0.097,0.112,0.177,0.195,0.242c0.083,0.064,0.178,0.113,0.287,0.145
		c0.108,0.032,0.223,0.048,0.346,0.048c0.141,0,0.282-0.021,0.424-0.063c0.141-0.042,0.275-0.105,0.399-0.188
		c0.124-0.083,0.231-0.187,0.32-0.311c0.089-0.124,0.151-0.265,0.186-0.422c0.016-0.077,0.025-0.156,0.025-0.239
		c0-0.161-0.037-0.3-0.11-0.416c-0.073-0.115-0.173-0.202-0.299-0.26c-0.126-0.058-0.265-0.087-0.418-0.087
		C43.449,57.542,43.42,57.543,43.401,57.545L43.401,57.545z M42.842,58.474c0.022-0.139,0.059-0.258,0.111-0.356
		c0.051-0.097,0.109-0.172,0.175-0.222c0.065-0.049,0.129-0.074,0.193-0.074c0.078,0,0.141,0.035,0.191,0.106
		c0.051,0.072,0.075,0.173,0.075,0.303c0,0.082-0.009,0.163-0.025,0.243c-0.033,0.153-0.077,0.285-0.133,0.396
		c-0.055,0.111-0.116,0.194-0.182,0.249c-0.066,0.055-0.133,0.083-0.2,0.083c-0.068,0-0.125-0.038-0.17-0.112
		c-0.045-0.075-0.067-0.18-0.067-0.317C42.811,58.68,42.822,58.58,42.842,58.474L42.842,58.474z M43.972,57.272l0.124-0.182
		L43.549,56.7l-0.707,0.356l0.044,0.216l0.584-0.182L43.972,57.272L43.972,57.272z M43.518,56.44l0.085,0.15l0.657-0.273
		c0.064-0.024,0.112-0.058,0.142-0.102c0.03-0.044,0.046-0.093,0.046-0.148c0-0.067-0.022-0.126-0.066-0.179
		c-0.043-0.052-0.098-0.077-0.163-0.077c-0.084,0-0.17,0.048-0.254,0.146L43.518,56.44L43.518,56.44z M45.488,57.827
		c0.13-0.115,0.263-0.201,0.398-0.259c0.135-0.058,0.261-0.087,0.376-0.087c0.126,0,0.227,0.033,0.304,0.099
		c0.077,0.066,0.115,0.156,0.115,0.271c0,0.033-0.003,0.066-0.009,0.099l-0.226,1.085c-0.011,0.059-0.016,0.1-0.016,0.126
		c0,0.098,0.055,0.148,0.165,0.148l-0.024,0.116h-1.089l0.016-0.116c0.054,0,0.096-0.011,0.126-0.035
		c0.03-0.022,0.051-0.051,0.064-0.085c0.013-0.034,0.027-0.085,0.042-0.153l0.177-0.905c0.007-0.033,0.01-0.061,0.01-0.083
		c0-0.089-0.036-0.134-0.108-0.134c-0.047,0-0.102,0.021-0.164,0.062c-0.062,0.042-0.117,0.097-0.167,0.167
		c-0.051,0.071-0.082,0.145-0.097,0.223l-0.13,0.67c-0.011,0.059-0.016,0.097-0.016,0.116c0,0.104,0.051,0.157,0.153,0.157
		l-0.026,0.116h-1.114l0.026-0.116c0.07,0,0.124-0.011,0.162-0.033c0.038-0.022,0.064-0.049,0.078-0.08
		c0.014-0.032,0.027-0.074,0.039-0.127l0.229-1.118c0.008-0.053,0.013-0.094,0.013-0.122c0-0.099-0.056-0.149-0.168-0.149
		l0.031-0.12l0.78-0.07c0.016,0.022,0.027,0.05,0.033,0.085c0.007,0.035,0.011,0.086,0.014,0.153
		C45.486,57.792,45.488,57.825,45.488,57.827L45.488,57.827z M49.396,57.678l0.029-0.12h-1.183c-0.199,0-0.382,0.038-0.547,0.115
		c-0.165,0.076-0.305,0.179-0.42,0.305c-0.114,0.127-0.202,0.266-0.262,0.417c-0.06,0.152-0.091,0.299-0.091,0.443
		c0,0.197,0.056,0.36,0.167,0.487c0.112,0.128,0.274,0.192,0.49,0.192c0.044,0,0.078-0.001,0.102-0.003
		c0.099-0.011,0.203-0.018,0.31-0.018c0.235,0,0.353,0.046,0.353,0.14c0,0.023-0.009,0.053-0.026,0.087
		c-0.046,0.088-0.127,0.159-0.245,0.215c-0.117,0.056-0.235,0.084-0.352,0.084c-0.016,0.002-0.043,0.004-0.079,0.004
		c-0.134,0-0.255-0.029-0.362-0.089c-0.107-0.059-0.161-0.143-0.161-0.25c0-0.048,0.011-0.097,0.032-0.147l-0.073-0.056
		l-0.477,0.538c0.077,0.073,0.171,0.134,0.282,0.183c0.11,0.049,0.231,0.086,0.361,0.11c0.13,0.024,0.266,0.037,0.407,0.037
		c0.184,0,0.363-0.02,0.537-0.06c0.173-0.039,0.328-0.097,0.464-0.174c0.136-0.076,0.239-0.167,0.31-0.273
		c0.085-0.134,0.127-0.246,0.127-0.336c0-0.044-0.007-0.083-0.022-0.116C49.052,59.361,49.03,59.323,49,59.28
		c-0.029-0.043-0.051-0.078-0.064-0.105c-0.013-0.027-0.02-0.058-0.02-0.093c0-0.007,0.002-0.022,0.007-0.046l0.215-1.061
		c0.014-0.073,0.028-0.127,0.04-0.161c0.013-0.034,0.036-0.062,0.069-0.086C49.282,57.704,49.331,57.687,49.396,57.678
		L49.396,57.678z M48.473,57.827l-0.251,1.241c-0.009,0.044-0.032,0.079-0.068,0.103s-0.079,0.037-0.128,0.037
		c-0.06,0-0.118-0.017-0.177-0.051c-0.058-0.035-0.106-0.087-0.144-0.157c-0.038-0.071-0.057-0.157-0.057-0.258
		c0-0.02,0.002-0.052,0.006-0.096c0.019-0.153,0.068-0.293,0.146-0.42c0.078-0.127,0.171-0.226,0.28-0.298
		c0.108-0.072,0.216-0.108,0.321-0.108C48.414,57.821,48.439,57.823,48.473,57.827L48.473,57.827z M52.284,57.012l-0.242,0.373
		l0.042,0.021c0.032-0.024,0.066-0.04,0.101-0.046c0.035-0.006,0.084-0.008,0.146-0.008h0.403l-0.029,0.136
		c-0.036,0-0.077-0.004-0.123-0.013c-0.036-0.004-0.089-0.007-0.156-0.007c-0.208,0-0.396,0.038-0.564,0.113
		c-0.168,0.075-0.311,0.175-0.428,0.299c-0.117,0.124-0.206,0.261-0.267,0.41c-0.061,0.15-0.092,0.296-0.092,0.439
		c0,0.096,0.014,0.186,0.043,0.269c0.028,0.084,0.072,0.157,0.13,0.222c0.059,0.065,0.132,0.115,0.221,0.15
		c0.088,0.036,0.191,0.054,0.308,0.054h1.431l0.019-0.116c-0.091,0-0.136-0.044-0.136-0.13c0-0.035,0.008-0.083,0.025-0.143
		l0.333-1.663c0.031,0.011,0.05,0.022,0.057,0.033l0.26-0.38l-0.064-0.014c-0.02,0.024-0.044,0.039-0.069,0.045
		c-0.026,0.006-0.066,0.009-0.12,0.009l0.041-0.233l-0.955,0.057l-0.029,0.123c0.07,0,0.119,0.015,0.15,0.047h-0.26
		c-0.049,0-0.084-0.003-0.108-0.008C52.328,57.046,52.306,57.033,52.284,57.012L52.284,57.012z M52.649,57.768l-0.254,1.208
		c-0.009,0.051-0.036,0.091-0.082,0.121c-0.046,0.03-0.097,0.045-0.156,0.045c-0.092,0-0.173-0.037-0.242-0.112
		c-0.07-0.074-0.104-0.184-0.104-0.331c0-0.052,0.004-0.101,0.013-0.147c0.031-0.151,0.088-0.287,0.168-0.407
		c0.08-0.12,0.178-0.213,0.291-0.279C52.398,57.801,52.52,57.768,52.649,57.768L52.649,57.768z M53.481,58.496
		c0.039-0.154,0.103-0.292,0.192-0.414c0.089-0.122,0.194-0.224,0.315-0.307c0.122-0.082,0.251-0.144,0.388-0.186
		s0.274-0.062,0.412-0.062c0.019-0.002,0.049-0.003,0.088-0.003c0.152,0,0.292,0.029,0.418,0.087
		c0.109,0.05,0.199,0.122,0.269,0.216l0.471-0.645h0.41l-0.387,0.533c-0.013,0.023-0.019,0.047-0.019,0.073
		c0,0.02,0.006,0.037,0.019,0.049h-0.486c0.008,0.011,0.016,0.022,0.023,0.034c0.073,0.115,0.111,0.254,0.111,0.416
		c0,0.083-0.009,0.163-0.025,0.239c-0.034,0.157-0.097,0.297-0.186,0.422c-0.089,0.124-0.196,0.228-0.321,0.311
		c-0.124,0.083-0.257,0.146-0.399,0.188c-0.142,0.042-0.284,0.063-0.424,0.063c-0.123,0-0.238-0.016-0.346-0.048
		c-0.109-0.032-0.203-0.081-0.287-0.145c-0.082-0.064-0.148-0.145-0.195-0.242c-0.047-0.097-0.071-0.208-0.071-0.334
		C53.453,58.671,53.463,58.589,53.481,58.496L53.481,58.496z M54.231,58.456c-0.021,0.106-0.032,0.207-0.032,0.3
		c0,0.137,0.022,0.242,0.067,0.317c0.045,0.074,0.102,0.112,0.17,0.112c0.067,0,0.134-0.028,0.2-0.083
		c0.066-0.055,0.126-0.138,0.182-0.249c0.056-0.111,0.1-0.243,0.133-0.396c0.016-0.08,0.025-0.161,0.025-0.243
		c0-0.13-0.025-0.231-0.075-0.302c-0.051-0.072-0.114-0.107-0.192-0.107c-0.064,0-0.128,0.025-0.193,0.075
		c-0.066,0.05-0.124,0.124-0.175,0.222C54.29,58.199,54.253,58.317,54.231,58.456L54.231,58.456z M57.173,57.827
		c0-0.002-0.002-0.035-0.004-0.102c-0.003-0.066-0.008-0.117-0.014-0.153c-0.007-0.035-0.017-0.063-0.033-0.085l-0.78,0.07
		l-0.032,0.12c0.112,0,0.168,0.05,0.168,0.149c0,0.029-0.004,0.07-0.013,0.122l-0.228,1.118c-0.011,0.053-0.025,0.095-0.039,0.127
		c-0.014,0.031-0.04,0.058-0.078,0.08c-0.038,0.022-0.092,0.033-0.162,0.033l-0.025,0.116h1.114l0.025-0.116
		c-0.102,0-0.153-0.053-0.153-0.157c0-0.019,0.006-0.057,0.017-0.116l0.13-0.67c0.015-0.078,0.046-0.152,0.097-0.223
		c0.05-0.07,0.106-0.126,0.168-0.167c0.062-0.041,0.117-0.062,0.164-0.062c0.072,0,0.108,0.044,0.108,0.134
		c0,0.022-0.003,0.05-0.01,0.083l-0.178,0.905c-0.015,0.068-0.029,0.119-0.042,0.153c-0.013,0.034-0.034,0.063-0.064,0.085
		c-0.029,0.024-0.072,0.035-0.126,0.035l-0.015,0.116h1.088l0.024-0.116c-0.11,0-0.165-0.049-0.165-0.148
		c0-0.025,0.006-0.067,0.017-0.126l0.225-1.085c0.007-0.032,0.01-0.065,0.01-0.099c0-0.115-0.039-0.205-0.115-0.271
		c-0.077-0.066-0.178-0.099-0.304-0.099c-0.115,0-0.241,0.029-0.376,0.087C57.436,57.626,57.303,57.713,57.173,57.827L57.173,57.827
		z M63.168,57.678c-0.065,0.009-0.115,0.025-0.148,0.049c-0.033,0.024-0.057,0.052-0.069,0.086c-0.013,0.034-0.026,0.088-0.04,0.161
		l-0.215,1.061c-0.005,0.024-0.007,0.04-0.007,0.046c0,0.035,0.007,0.066,0.02,0.093c0.013,0.027,0.035,0.062,0.064,0.105
		c0.029,0.043,0.052,0.082,0.066,0.115c0.015,0.033,0.022,0.072,0.022,0.116c0,0.09-0.042,0.202-0.127,0.336
		c-0.071,0.106-0.174,0.197-0.31,0.273c-0.136,0.077-0.29,0.135-0.464,0.174c-0.174,0.04-0.353,0.06-0.537,0.06
		c-0.14,0-0.276-0.012-0.407-0.037c-0.13-0.024-0.251-0.061-0.361-0.11c-0.111-0.05-0.205-0.11-0.282-0.183l0.477-0.538l0.073,0.056
		c-0.021,0.051-0.032,0.1-0.032,0.147c0,0.107,0.053,0.191,0.161,0.25c0.107,0.06,0.228,0.089,0.363,0.089
		c0.036,0,0.063-0.001,0.079-0.004c0.117,0,0.234-0.027,0.351-0.084c0.118-0.055,0.199-0.127,0.245-0.215
		c0.017-0.035,0.026-0.064,0.026-0.087c0-0.093-0.118-0.14-0.353-0.14c-0.107,0-0.211,0.007-0.31,0.018
		c-0.023,0.002-0.057,0.003-0.102,0.003c-0.216,0-0.378-0.064-0.49-0.192c-0.111-0.127-0.167-0.29-0.167-0.487
		c0-0.144,0.031-0.292,0.091-0.443c0.06-0.15,0.148-0.29,0.262-0.417c0.115-0.127,0.255-0.229,0.42-0.305
		c0.166-0.077,0.348-0.115,0.547-0.115h1.183L63.168,57.678L63.168,57.678z M62.244,57.827c-0.034-0.004-0.059-0.007-0.073-0.007
		c-0.105,0-0.212,0.036-0.321,0.108c-0.109,0.072-0.202,0.171-0.28,0.298c-0.077,0.127-0.126,0.267-0.146,0.42
		c-0.004,0.044-0.006,0.075-0.006,0.096c0,0.102,0.019,0.188,0.057,0.258c0.038,0.071,0.086,0.123,0.144,0.157
		c0.058,0.034,0.117,0.051,0.177,0.051c0.049,0,0.092-0.012,0.128-0.037s0.059-0.059,0.068-0.103L62.244,57.827L62.244,57.827z
		 M63.652,56.95c-0.006,0.029-0.009,0.055-0.009,0.079c0,0.088,0.03,0.157,0.09,0.206c0.059,0.049,0.133,0.073,0.221,0.073
		c0.101,0,0.195-0.031,0.282-0.095c0.087-0.064,0.142-0.151,0.165-0.263c0.007-0.027,0.01-0.052,0.01-0.075
		c0-0.059-0.016-0.11-0.048-0.153c-0.032-0.044-0.074-0.077-0.127-0.099c-0.053-0.022-0.108-0.033-0.167-0.033
		c-0.096,0-0.187,0.033-0.271,0.098C63.714,56.753,63.665,56.839,63.652,56.95z"/>
	<path class="st4" d="M72.909,46.497l-4.888-7.008l-0.497-0.456h4.818l3.265,5.298l0.263-0.214l1.974-2.933
		c0.485-0.72,0.42-1.558-0.272-2.15h4.552l-5.262,7.463l-0.003,5.414l0.928,1.103H72.13l0.798-1.086
		C72.928,50.122,72.862,48.297,72.909,46.497L72.909,46.497z M59.637,39.033c0.391,0.536,0.506,0.724,0.55,1.201
		c0.03,0.332,0.008,0.521-0.099,0.831l-3.636,10.542c-0.169,0.433-0.521,0.912-1.034,1.377h3.967
		c-0.294-0.261-0.483-0.572-0.551-0.942c-0.063-0.338-0.06-0.465,0.014-0.791l0.807-2.504h4.617l0.719,1.929
		c0.075,0.202,0.118,0.39,0.137,0.607c0.063,0.721-0.168,1.314-0.74,1.732h6.22c-0.611-0.543-1.17-1.112-1.487-1.803l-4.541-12.179
		C63.27,39.033,60.947,39.033,59.637,39.033L59.637,39.033z M63.595,46.931h-3.303l1.601-4.563L63.595,46.931L63.595,46.931z
		 M47.06,39.045l3.125-0.012h1.488h2.307c2.087,0,3.795,1.708,3.795,3.795v0.468c0,2.087-1.709,3.679-3.795,3.742l-1.731,0.053
		c1.392-0.64,1.974-2.257,1.8-3.713c-0.139-1.169-0.741-2.292-1.744-2.314l-0.632-0.013v10.402c0,0.203,0.035,0.287,0.142,0.465
		c0.17,0.283,0.396,0.566,0.63,0.849c0.061,0.073,0.122,0.147,0.183,0.22h-5.383c0.081-0.099,0.16-0.199,0.236-0.302
		c0.163-0.222,0.308-0.458,0.416-0.721C47.966,51.795,48,51.67,48,51.49V40.315C47.979,39.733,47.4,39.402,47.06,39.045z"/>
	<path class="st3" d="M17.875,38.971h4.346l3.647,10.457l3.093-8.662c0.057-0.337,0.008-0.445-0.121-0.735
		c-0.171-0.352-0.354-0.693-0.525-1.045h3.246c-0.193,0.707-0.476,1.483-0.722,2.196l-4.191,12.179
		c-1.144-0.228-2.419-0.681-3.406-1.616c-0.742-0.703-1.006-1.503-1.373-2.457l-3.504-9.281
		C18.226,39.642,18.056,39.314,17.875,38.971L17.875,38.971z M35.225,43.872v7.472c0,0.303,0.07,0.357,0.257,0.601l0.856,1.116
		h-4.09c0.23-0.352,0.461-0.703,0.691-1.055c0.178-0.29,0.254-0.389,0.254-0.725v-10.44l-1.15-1.87h4.239l6.863,8.839v-7.044
		c0-0.337-0.067-0.445-0.244-0.735c-0.23-0.352-0.471-0.693-0.701-1.045h4.086l-0.852,1.116c-0.187,0.243-0.257,0.297-0.257,0.601
		v12.715c-1.548-0.204-2.989-0.582-4.271-2.221L35.225,43.872z"/>
</g>
</svg>
