<?xml version="1.0" encoding="utf-8"?>
<!-- Generator: Adobe Illustrator 19.1.0, SVG Export Plug-In . SVG Version: 6.00 Build 0)  -->
<svg version="1.1" id="Layer_1" xmlns="http://www.w3.org/2000/svg" xmlns:xlink="http://www.w3.org/1999/xlink" x="0px" y="0px"
	 viewBox="0 0 32 32" style="enable-background:new 0 0 32 32;" xml:space="preserve">
<style type="text/css">
	.st0{fill:#FFFFFF;}
</style>
<polygon class="st0" points="27.084,17.176 27.084,19.498 24.753,19.498 24.753,17.176 22.433,17.176 22.433,14.845 24.753,14.845 
	24.753,12.525 27.084,12.525 27.084,14.845 29.405,14.845 29.405,17.176 "/>
<path class="st0" d="M11.963,24.15c-4.497,0-8.139-3.643-8.139-8.139s3.641-8.138,8.139-8.138c2.197,0,4.03,0.799,5.451,2.131
	l-2.209,2.121c-0.599-0.577-1.654-1.254-3.241-1.254c-2.777,0-5.041,2.298-5.041,5.14c0,2.843,2.265,5.141,5.041,5.141
	c3.219,0,4.43-2.321,4.618-3.509h-4.618v-2.798h7.682c0.079,0.41,0.134,0.822,0.134,1.355C19.779,20.852,16.659,24.15,11.963,24.15z
	"/>
</svg>
