<?xml version="1.0" encoding="utf-8"?>
<!-- Generator: Adobe Illustrator 19.1.0, SVG Export Plug-In . SVG Version: 6.00 Build 0)  -->
<svg version="1.1" id="Layer_1" xmlns="http://www.w3.org/2000/svg" xmlns:xlink="http://www.w3.org/1999/xlink" x="0px" y="0px"
	 viewBox="0 0 96 32" style="enable-background:new 0 0 96 32;" xml:space="preserve">
<style type="text/css">
	.st0{fill:#2663AF;}
	.st1{fill:#47C8F5;}
	.st2{fill:#F04C3A;}
</style>
<g>
	<g id="XMLID_834_">
		<path id="XMLID_835_" class="st0" d="M11.724,16.59h1.983v8.162c0,0.161,0.131,0.292,0.292,0.292h3.361
			c0.161,0,0.292-0.131,0.292-0.292v-8.123h2.279c0.148,0,0.273-0.111,0.29-0.258l0.346-3.005c0.01-0.083-0.017-0.165-0.072-0.227
			c-0.055-0.062-0.135-0.098-0.218-0.098h-2.625v-1.884c0-0.568,0.306-0.856,0.909-0.856c0.086,0,1.716,0,1.716,0
			c0.161,0,0.292-0.131,0.292-0.292V7.251c0-0.161-0.131-0.292-0.292-0.292h-2.365c-0.017-0.001-0.054-0.002-0.108-0.002
			c-0.41,0-1.837,0.081-2.964,1.117c-1.249,1.149-1.075,2.524-1.034,2.763v2.203h-2.081c-0.161,0-0.292,0.131-0.292,0.292v2.966
			C11.432,16.459,11.563,16.59,11.724,16.59z"/>
	</g>
	<path class="st1" d="M57.21,9.928c-0.423,0.187-0.862,0.335-1.312,0.442c0.496-0.471,0.869-1.061,1.08-1.719l0,0
		c0.06-0.188-0.144-0.35-0.314-0.25l0,0c-0.626,0.372-1.301,0.65-2.005,0.829c-0.041,0.01-0.083,0.016-0.125,0.016
		c-0.128,0-0.253-0.048-0.351-0.134c-0.749-0.66-1.713-1.024-2.714-1.024c-0.433,0-0.87,0.067-1.299,0.201
		c-1.33,0.413-2.356,1.51-2.678,2.863c-0.121,0.508-0.153,1.016-0.097,1.51c0.006,0.057-0.02,0.096-0.037,0.115
		c-0.029,0.033-0.07,0.051-0.113,0.051c-0.005,0-0.01,0-0.015-0.001c-2.911-0.27-5.536-1.673-7.392-3.949l0,0
		c-0.095-0.116-0.276-0.102-0.352,0.028l0,0c-0.363,0.623-0.555,1.336-0.555,2.062c0,1.112,0.447,2.16,1.223,2.924
		c-0.326-0.077-0.642-0.199-0.936-0.362l0,0c-0.142-0.079-0.317,0.022-0.319,0.185l0,0c-0.02,1.652,0.947,3.122,2.396,3.784
		c-0.029,0.001-0.058,0.001-0.088,0.001c-0.23,0-0.462-0.022-0.691-0.066l0,0c-0.16-0.031-0.294,0.121-0.244,0.276l0,0
		c0.47,1.468,1.734,2.55,3.247,2.796c-1.255,0.843-2.717,1.287-4.239,1.287l-0.474,0c-0.146,0-0.27,0.095-0.307,0.237
		c-0.037,0.139,0.031,0.287,0.156,0.359c1.715,0.998,3.671,1.525,5.657,1.525c1.739,0,3.365-0.345,4.834-1.026
		c1.347-0.624,2.537-1.516,3.537-2.65c0.932-1.057,1.661-2.278,2.166-3.627c0.482-1.287,0.736-2.659,0.736-3.97v-0.062
		c0-0.21,0.095-0.408,0.261-0.543c0.63-0.512,1.179-1.114,1.631-1.79l0,0C57.595,10.065,57.406,9.841,57.21,9.928L57.21,9.928z"/>
	<g>
		<path class="st2" d="M76.048,17.749h4.14c-0.727,2.055-2.695,3.528-4.999,3.511c-2.796-0.021-5.108-2.257-5.216-5.051
			c-0.116-2.995,2.286-5.468,5.256-5.468c1.358,0,2.597,0.517,3.531,1.365c0.221,0.201,0.558,0.202,0.776-0.003l1.521-1.431
			c0.238-0.224,0.239-0.602,0.002-0.826c-1.481-1.403-3.469-2.278-5.66-2.321c-4.674-0.091-8.614,3.741-8.646,8.416
			c-0.033,4.71,3.775,8.538,8.478,8.538c4.522,0,8.216-3.541,8.464-8.001c0.007-0.056,0.011-1.946,0.011-1.946h-7.655
			c-0.314,0-0.568,0.254-0.568,0.568v2.082C75.48,17.495,75.734,17.749,76.048,17.749z"/>
		<path class="st2" d="M90.718,14.72v-2.034c0-0.275-0.223-0.498-0.498-0.498h-1.712c-0.275,0-0.498,0.223-0.498,0.498v2.034h-2.034
			c-0.275,0-0.498,0.223-0.498,0.498v1.712c0,0.275,0.223,0.498,0.498,0.498h2.034v2.034c0,0.275,0.223,0.498,0.498,0.498h1.712
			c0.275,0,0.498-0.223,0.498-0.498v-2.034h2.034c0.275,0,0.498-0.223,0.498-0.498v-1.712c0-0.275-0.223-0.498-0.498-0.498
			L90.718,14.72L90.718,14.72z"/>
	</g>
</g>
</svg>
