<svg xmlns="http://www.w3.org/2000/svg" width="60" height="60" viewBox="0 0 60 60">
  <g id="ic_guide4" transform="translate(-1218 -2370)">
    <path id="Path_6" data-name="Path 6" d="M0,0H60V60H0Z" transform="translate(1218 2370)" fill="none"/>
    <g id="Group_11" data-name="Group 11" transform="translate(4.702 45.238)">
      <g id="Group_3" data-name="Group 3" transform="translate(1220.298 2330.762)">
        <path id="Path_1" data-name="Path 1" d="M27.308,4A28.367,28.367,0,0,0,16.787,6.113l-1.854.828,3.974,7.949C14.754,17.334,3.963,24.827,3.963,37.072c0,5.741,1.884,10.092,5.916,12.508s9.666,3.055,17.429,3.055S40.7,52,44.736,49.58s5.916-6.767,5.916-12.508c0-7.978-4.627-13.954-9-17.843a16.468,16.468,0,0,1,5.624,3.6l2.865-2.637a25.714,25.714,0,0,0-14.051-6.053l3.594-7.2-1.854-.828A28.367,28.367,0,0,0,27.308,4Zm0,3.891A21.962,21.962,0,0,1,34.3,9.012l-2.359,4.715H22.672L20.316,9.012A21.965,21.965,0,0,1,27.308,7.891Zm-5.251,9.727H32.562c.541.285,14.2,7.526,14.2,19.454,0,5-1.176,7.462-4.024,9.168s-7.912,2.5-15.43,2.5-12.582-.8-15.43-2.5-4.024-4.165-4.024-9.168C7.854,25.144,21.515,17.9,22.057,17.618Z" transform="translate(-3.963 -4)" fill="#006e74"/>
        <path id="Path_2" data-name="Path 2" d="M16.891,10v2.31a5.818,5.818,0,0,0,1.945,11.308,1.945,1.945,0,1,1-1.945,1.945H13a5.853,5.853,0,0,0,3.891,5.471v2.31h3.891v-2.31a5.818,5.818,0,0,0-1.945-11.308,1.945,1.945,0,1,1,1.945-1.945h3.891a5.853,5.853,0,0,0-3.891-5.471V10Z" transform="translate(4.508 7.508)" fill="#e50019"/>
      </g>
    </g>
  </g>
</svg>
