<svg xmlns="http://www.w3.org/2000/svg" xmlns:xlink="http://www.w3.org/1999/xlink" width="60" height="60" viewBox="0 0 60 60">
  <defs>
    <linearGradient id="linear-gradient" x1="0.5" y1="0.998" x2="0.5" gradientUnits="objectBoundingBox">
      <stop offset="0" stop-color="#e50019"/>
      <stop offset="1" stop-color="#e50019"/>
    </linearGradient>
    <linearGradient id="linear-gradient-2" x1="0.5" x2="0.5" y2="1" gradientUnits="objectBoundingBox">
      <stop offset="0" stop-color="#008890"/>
      <stop offset="1" stop-color="#006e74"/>
    </linearGradient>
  </defs>
  <g id="ic_guide2" transform="translate(-846 -2336)">
    <path id="Path_4" data-name="Path 4" d="M0,0H60V60H0Z" transform="translate(846 2336)" fill="none"/>
    <g id="Group_13" data-name="Group 13" transform="translate(-19.725 44.546)">
      <path id="Combined_Shape" data-name="Combined Shape" d="M13.054,16.1V3.054a3.054,3.054,0,0,1,6.107,0V16.1a3.054,3.054,0,0,1-6.107,0ZM1,7.365a1,1,0,0,1-1-1V1.18a1,1,0,0,1,1-1H6.186a1,1,0,0,1,1,1V6.365a1,1,0,0,1-1,1Z" transform="translate(897.281 2322.831)" stroke="#fff" stroke-width="0.5" fill="url(#linear-gradient)"/>
      <path id="Combined_Shape-2" data-name="Combined Shape" d="M3.053,40.718A3.058,3.058,0,0,1,0,37.663V24.61a3.057,3.057,0,0,1,3.053-3.053H16.107a3.057,3.057,0,0,1,3.055,3.053v10h6.511a3.054,3.054,0,0,1,0,6.108H3.053ZM6.108,34.61h6.946V27.664H6.108Zm18.5-15.449a3.057,3.057,0,0,1-3.053-3.055V3.053A3.057,3.057,0,0,1,24.61,0H37.663a3.058,3.058,0,0,1,3.055,3.053V16.107a3.058,3.058,0,0,1-3.055,3.055Zm3.055-6.108H34.61V6.108H27.664ZM3.053,19.161A3.058,3.058,0,0,1,0,16.107V3.053A3.057,3.057,0,0,1,3.053,0H16.107a3.058,3.058,0,0,1,3.055,3.053V16.107a3.058,3.058,0,0,1-3.055,3.055Zm3.055-6.108h6.946V6.108H6.108Z" transform="translate(875.725 2301.454)" stroke="#fff" stroke-miterlimit="10" stroke-width="2" fill="url(#linear-gradient-2)"/>
    </g>
  </g>
</svg>
