<svg xmlns="http://www.w3.org/2000/svg" width="255.992" height="33.796" viewBox="0 0 255.992 33.796">
  <g id="vivnpay" transform="translate(-1248.889 -1453)">
    <g id="Group_7102" data-name="Group 7102" transform="translate(1397.975 1459.473)">
      <path id="Path_12862" data-name="Path 12862" d="M-1927.786-1271.079c0-3.923-.012-7.507.007-11.092.007-1.189-.949-1.9-1.42-2.967h6.407c0,.053.045.166.011.2-1.486,1.345-1.621,3.061-1.587,4.944.088,5.607.011,11.216.051,16.825.007.974-.087,1.309-1.227,1.086a9.976,9.976,0,0,1-6.187-3.67c-3-3.783-6.049-7.525-9.289-11.548v8.092c0,1.211.033,2.422-.008,3.628-.045,1.33,1.29,1.871,1.675,3.042h-6.409c0-.092-.062-.255-.009-.311,1.383-1.445,1.4-3.222,1.369-5.072q-.094-6.112.007-12.224a5.411,5.411,0,0,0-1.125-3.813,1.892,1.892,0,0,1-.6-1.273h6.5c.552,0,.729.447,1,.777q5.013,6.215,10.016,12.44C-1928.412-1271.776-1928.195-1271.547-1927.786-1271.079Z" transform="translate(1969.898 1285.235)" fill="#e4081c"/>
      <path id="Path_12863" data-name="Path 12863" d="M-1774.247-1285.048c2.808,0,5.267.04,7.724-.023.782-.02.928.425,1.134.966,2.034,5.466,4.088,10.924,6.1,16.4a11.151,11.151,0,0,0,3.159,5.207h-10.387c2.559-2.179.366-4.294-.042-6.447-.069-.362-.43-.308-.7-.31-1.855,0-3.709.011-5.564-.012a.794.794,0,0,0-.88.619c-.259.8-.548,1.6-.824,2.4-.467,1.351-.844,2.687,1.082,3.785h-7.006c3.061-5.135,4.207-11.027,6.394-16.509.3-.746.509-1.526.78-2.283A2.954,2.954,0,0,0-1774.247-1285.048Zm4.187,6.132-.253.019c-.32.945-.68,1.881-.952,2.834a14.432,14.432,0,0,0-1.02,3.52l3.721.066a1.157,1.157,0,0,1,.12,0c.5.057.635-.114.454-.608-.7-1.936-1.379-3.885-2.068-5.832Z" transform="translate(1844.344 1285.111)" fill="#004d9d"/>
      <path id="Path_12864" data-name="Path 12864" d="M-1834.382-1262.506h-9.123c1.371-1.325,1.419-2.915,1.413-4.535-.015-4.72-.005-9.442-.007-14.163a4.466,4.466,0,0,0-1.573-3.894c1.108,0,1.927-.021,2.75,0,3.262.1,6.541-.281,9.787.227a5.8,5.8,0,0,1,5.055,4.832,6.079,6.079,0,0,1-3.345,6.856,9.068,9.068,0,0,1-5.794.882c2.7-2.217,3.467-4.321,2.592-7.115a3.094,3.094,0,0,0-2.439-2.26c-.567-.123-.9-.049-.894.68.029,4.883.008,9.766.034,14.647A5.413,5.413,0,0,0-1834.382-1262.506Z" transform="translate(1892.252 1285.163)" fill="#004d9d"/>
      <path id="Path_12865" data-name="Path 12865" d="M-2031.142-1268.473c1.732-4.658,3.349-9.077,5.029-13.471a2.734,2.734,0,0,0-.525-2.48c-.34-.627-.271-.838.474-.815,1.169.036,2.342.052,3.514,0,.85-.041,1.049.162.743,1.009-1.616,4.464-3.18,8.947-4.769,13.42-.942,2.654-1.919,5.3-2.825,7.962-.236.695-.552.836-1.225.656-3.258-.868-5.7-2.563-6.943-5.906-2.111-5.688-4.406-11.307-6.689-17.136,2.291,0,4.52-.009,6.749,0,.689,0,.636.662.783,1.067,1.735,4.761,3.438,9.537,5.154,14.308C-2031.55-1269.49-2031.4-1269.126-2031.142-1268.473Z" transform="translate(2044.357 1285.246)" fill="#e4081c"/>
      <path id="Path_12866" data-name="Path 12866" d="M-1684.816-1284.91h7.576c-.021.5-.356.765-.576,1.084q-3.611,5.222-7.248,10.43a2.668,2.668,0,0,0-.524,1.677c.035,1.734.019,3.47.022,5.2a5.1,5.1,0,0,0,1.587,4.1h-9.514c1.346-1.105,1.274-2.579,1.456-4.055a13.791,13.791,0,0,0-3.412-11.23,37.292,37.292,0,0,1-2.709-4,11.673,11.673,0,0,0-2.872-3.262c2.843,0,5.4.012,7.959-.009.591,0,.721.445.943.794,1.4,2.214,2.8,4.427,4.161,6.666.376.62.586.608.97.024.841-1.28,1.787-2.494,2.585-3.8C-1683.493-1282.783-1683.621-1283.624-1684.816-1284.91Z" transform="translate(1784.146 1285.036)" fill="#004d9d"/>
    </g>
    <path id="Path_12867" data-name="Path 12867" d="M12.736-12.291c0,.022,3.689.044,3.687.066a.157.157,0,0,1-.019.066L12.078,4.935A3.379,3.379,0,0,1,8.427,7.716,3.385,3.385,0,0,1,4.761,4.935L.446-12.154a.367.367,0,0,0,0-.081.26.26,0,0,0-.026-.056.444.444,0,0,1,.13-.335.478.478,0,0,1,.34-.127H3.684a.459.459,0,0,1,.324.133.6.6,0,0,1,.178.33L8,4.1a.819.819,0,0,0,.147.359.371.371,0,0,0,.277.086.348.348,0,0,0,.27-.086A.891.891,0,0,0,8.836,4.1l3.819-16.386a.6.6,0,0,1,.18-.334.459.459,0,0,1,.324-.133h2.789a.478.478,0,0,1,.34.127c.09.084-3.548.209-3.552.339ZM24.979,6.958a.55.55,0,0,1-.522.545H21.843a.55.55,0,0,1-.522-.545V-12.228a.487.487,0,0,1,.162-.359.517.517,0,0,1,.366-.152h2.609a.517.517,0,0,1,.366.152.487.487,0,0,1,.162.359Zm2.365-25.047a.31.31,0,0,1-.1.213l-3.1,3.38a1.87,1.87,0,0,1-.29.273.607.607,0,0,1-.353.086H21.232q-.232,0-.232-.179a.379.379,0,0,1,.1-.28l2.506-3.274a1.35,1.35,0,0,1,.314-.326.725.725,0,0,1,.366-.074h2.763Q27.344-18.276,27.344-18.089ZM49.089-.614a10.617,10.617,0,0,1-.552,3.565A6.935,6.935,0,0,1,46.93,5.559a6.812,6.812,0,0,1-2.592,1.6,10.468,10.468,0,0,1-3.515.538q-.693,0-1.484-.034t-1.51-.054q-.719-.047-1.3-.1t-.881-.106a.914.914,0,0,1-.507-.253.863.863,0,0,1-.173-.6V-1.387H33.435a.477.477,0,0,1-.361-.145.515.515,0,0,1-.141-.373V-3.942a.471.471,0,0,1,.141-.359.5.5,0,0,1,.36-.133h1.529v-7.351a.837.837,0,0,1,.173-.592.939.939,0,0,1,.507-.246q.3-.054.881-.113t1.3-.106q.719-.047,1.51-.081t1.484-.034a10.468,10.468,0,0,1,3.515.538,6.812,6.812,0,0,1,2.592,1.6A6.926,6.926,0,0,1,48.535-8.2a10.683,10.683,0,0,1,.552,3.586ZM45.464-4.62a7.679,7.679,0,0,0-.353-2.528,3.928,3.928,0,0,0-.972-1.583,3.389,3.389,0,0,0-1.472-.812,7.112,7.112,0,0,0-1.838-.226q-.732,0-1.267.027t-.944.054v5.257h1.872a.5.5,0,0,1,.36.133.471.471,0,0,1,.141.359V-1.9a.515.515,0,0,1-.141.373.478.478,0,0,1-.36.147H38.614v5.84q.411.027.944.054t1.267.027A6.92,6.92,0,0,0,42.663,4.3a3.483,3.483,0,0,0,1.471-.816,3.872,3.872,0,0,0,.972-1.578,7.68,7.68,0,0,0,.353-2.528ZM58.339,6.959a.55.55,0,0,1-.522.545H55.2a.55.55,0,0,1-.522-.545V-12.226a.487.487,0,0,1,.162-.359.517.517,0,0,1,.366-.152h2.609a.517.517,0,0,1,.366.152.487.487,0,0,1,.162.359ZM75.97,6.78a.527.527,0,0,1-.526.572q-.258.027-.675.106T73.5,7.6q-.849.066-1.369.093t-1.689.027a9.87,9.87,0,0,1-3.207-.459,3.934,3.934,0,0,1-2.106-1.691,6.453,6.453,0,0,1-.771-3.426V-7.367a6.491,6.491,0,0,1,.771-3.434,3.936,3.936,0,0,1,2.106-1.7,9.87,9.87,0,0,1,3.207-.459,29.106,29.106,0,0,1,5,.385.682.682,0,0,1,.418.16A.614.614,0,0,1,75.97-12v1.743a.533.533,0,0,1-.162.385.5.5,0,0,1-.373.16H70.073a2.1,2.1,0,0,0-1.607.506A2.764,2.764,0,0,0,68-7.369v2.941h7.127a.5.5,0,0,1,.373.16.533.533,0,0,1,.162.385v1.956a.516.516,0,0,1-.162.385.514.514,0,0,1-.36.16H68.016V2.145a2.765,2.765,0,0,0,.463,1.831,2.085,2.085,0,0,0,1.607.513h5.373a.511.511,0,0,1,.386.147.551.551,0,0,1,.141.4Zm-3.34,5.793a.5.5,0,0,1-.173.393.562.562,0,0,1-.379.152H70.189a.562.562,0,0,1-.379-.152.5.5,0,0,1-.173-.393v-2.4a.513.513,0,0,1,.17-.378.539.539,0,0,1,.379-.167h1.889a.539.539,0,0,1,.379.167.512.512,0,0,1,.173.38Zm3.1-26.924q0,.179-.245.179H73.3a.623.623,0,0,1-.238-.039.561.561,0,0,1-.186-.133l-.18-.179-1.864-2.209-1.876,2.209a2.159,2.159,0,0,1-.3.287.6.6,0,0,1-.334.074H66.14q-.232,0-.232-.179a.379.379,0,0,1,.1-.28L68.427-17.9a1.874,1.874,0,0,1,.34-.334.707.707,0,0,1,.353-.066h3.419a.689.689,0,0,1,.36.074,1.628,1.628,0,0,1,.324.326l2.4,3.274a.378.378,0,0,1,.1.271ZM96.46,6.411a1.07,1.07,0,0,1-.308.773,1,1,0,0,1-.745.319H92.743a2.248,2.248,0,0,1-.972-.179,1.548,1.548,0,0,1-.648-.812L85.292-6.757q-.1-.213-.245-.213t-.128.213V6.95a.541.541,0,0,1-.147.393.474.474,0,0,1-.353.152H82.192a.55.55,0,0,1-.522-.545V-11.661a1.071,1.071,0,0,1,.308-.773,1,1,0,0,1,.745-.319h2.841a1.126,1.126,0,0,1,.688.179,1.694,1.694,0,0,1,.47.692L92.853,2.133q.1.213.219.213t.128-.253V-12.24a.515.515,0,0,1,.141-.373.478.478,0,0,1,.36-.147h2.268a.478.478,0,0,1,.36.147.514.514,0,0,1,.141.373Zm22.5-16.5a.443.443,0,0,1-.162.359.569.569,0,0,1-.373.127h-4.6V6.943a.528.528,0,0,1-.162.393.51.51,0,0,1-.373.152h-2.6a.55.55,0,0,1-.522-.545V-9.6h-4.607a.551.551,0,0,1-.373-.133.449.449,0,0,1-.162-.359v-2.152a.508.508,0,0,1,.147-.359.5.5,0,0,1,.379-.152h12.866a.529.529,0,0,1,.379.14.5.5,0,0,1,.147.38Zm12.085-8.838a4.941,4.941,0,0,0-1.254.346.592.592,0,0,1-.572,0q-.212-.147-.212-.292v-.825a.505.505,0,0,1,.091-.253,1.43,1.43,0,0,1,.565-.359,3.878,3.878,0,0,1,1-.307,6.775,6.775,0,0,1,1.336-.054,2.443,2.443,0,0,1,1.44.525,1.943,1.943,0,0,1,.63,1.624v.066a2.466,2.466,0,0,1-.162.859,4.214,4.214,0,0,1-.693,1.076l-.719.864a2.143,2.143,0,0,1-.18.226,2.2,2.2,0,0,0-.193.246.881.881,0,0,0-.1.233.954.954,0,0,0-.039.265v.466a.378.378,0,0,1-.147.233.564.564,0,0,1-.4.14h-.972a.55.55,0,0,1-.411-.133.368.368,0,0,1-.128-.24v-.466a2.639,2.639,0,0,1,.141-.938,3.308,3.308,0,0,1,.565-.871l.745-.9a2.308,2.308,0,0,0,.334-.592.83.83,0,0,0,.065-.572.546.546,0,0,0-.225-.307.978.978,0,0,0-.5-.057Zm7.214,11.474V.017a11.105,11.105,0,0,1-.513,3.62,5.8,5.8,0,0,1-1.458,2.369,5.786,5.786,0,0,1-2.281,1.3,10.019,10.019,0,0,1-2.975.412,9.956,9.956,0,0,1-2.969-.412A5.82,5.82,0,0,1,125.8,6.018a5.8,5.8,0,0,1-1.474-2.394A11.021,11.021,0,0,1,123.8.011V-12.233a.508.508,0,0,1,.147-.359.5.5,0,0,1,.379-.152h2.609a.516.516,0,0,1,.366.152.487.487,0,0,1,.162.359V.011a8.866,8.866,0,0,0,.314,2.621,2.6,2.6,0,0,0,1.085,1.47,4.071,4.071,0,0,0,2.172.486,4.1,4.1,0,0,0,2.185-.493,2.582,2.582,0,0,0,1.092-1.47A8.97,8.97,0,0,0,134.618.01V-12.235a.508.508,0,0,1,.147-.359.5.5,0,0,1,.379-.152h2.592a.529.529,0,0,1,.379.14.5.5,0,0,1,.147.38V-9.8a1.684,1.684,0,0,0,.617-1.21v-1.411q-.013-.292.437-.319h1.633a.326.326,0,0,1,.36.265Q141.708-8,138.262-7.449Z" transform="translate(1248.47 1473.677)" fill="#004d9d"/>
  </g>
</svg>
