<svg xmlns="http://www.w3.org/2000/svg" xmlns:xlink="http://www.w3.org/1999/xlink" width="40" height="40" viewBox="0 0 40 40">
  <defs>
    <clipPath id="clip-ic-chuyenkhoan">
      <rect width="40" height="40"/>
    </clipPath>
  </defs>
  <g id="ic-chuyenkhoan" clip-path="url(#clip-ic-chuyenkhoan)">
    <g id="Group_395" data-name="Group 395" transform="translate(3.112 5.871)">
      <path id="Path_988" data-name="Path 988" d="M6.412,0A6.412,6.412,0,1,1,0,6.412,6.412,6.412,0,0,1,6.412,0Z" transform="translate(10.182 7.574)" fill="#fad869" stroke="#000" stroke-width="1.3"/>
      <g id="Group_393" data-name="Group 393" transform="translate(14.696 10.037)">
        <line id="Line_83" data-name="Line 83" y2="7.233" transform="translate(1.744)" fill="none" stroke="#000" stroke-miterlimit="10" stroke-width="1"/>
        <path id="Path_982" data-name="Path 982" d="M31.034,21.9H28.777s-.821,0-.821,1.077a.854.854,0,0,0,.872.872h1.385s.821,0,.821,1.077c0,.718-.821.872-.821.872H27.7" transform="translate(-27.7 -20.259)" fill="none" stroke="#000" stroke-miterlimit="10" stroke-width="1"/>
      </g>
      <g id="Group_394" data-name="Group 394" transform="translate(1 0.957)">
        <path id="Path_983" data-name="Path 983" d="M16.5,12" transform="translate(-8.549 -6.357)" fill="none" stroke="#000" stroke-miterlimit="10" stroke-width="1.5"/>
        <path id="Path_984" data-name="Path 984" d="M1,24.85,4.95,20.9,8.9,24.85H6.232a10.75,10.75,0,0,0,17.9,6.412l1.949,1.949A13.493,13.493,0,0,1,3.514,24.85Z" transform="translate(-1 -10.692)" fill="none" stroke="#000" stroke-linecap="round" stroke-linejoin="round" stroke-miterlimit="10" stroke-width="1.3"/>
        <path id="Path_986" data-name="Path 986" d="M46.382,6.275c-.41-.359-.872-.667-1.282-.975" transform="translate(-22.479 -3.094)" fill="none" stroke="#000" stroke-linejoin="round" stroke-miterlimit="10" stroke-width="1.5"/>
        <path id="Path_987" data-name="Path 987" d="M28.548,2.693A13.553,13.553,0,0,0,12.8,4.591L14.749,6.54a10.75,10.75,0,0,1,17.9,6.412H29.984l3.95,3.95,3.95-3.95H35.37a13.362,13.362,0,0,0-3.8-7.9" transform="translate(-6.747 -1)" fill="none" stroke="#000" stroke-linejoin="round" stroke-miterlimit="10" stroke-width="1.3"/>
      </g>
    </g>
  </g>
</svg>
