<svg xmlns="http://www.w3.org/2000/svg" xmlns:xlink="http://www.w3.org/1999/xlink" width="40" height="40" viewBox="0 0 40 40">
  <defs>
    <clipPath id="clip-ic-datvemaybay">
      <rect width="40" height="40"/>
    </clipPath>
  </defs>
  <g id="ic-datvemaybay" clip-path="url(#clip-ic-datvemaybay)">
    <g id="DatVeMayBay" transform="translate(-83 -280)">
      <g id="Rectangle_151">
        <rect id="Rectangle_20" data-name="Rectangle 20" width="40" height="40" transform="translate(83 280)" fill="none"/>
      </g>
      <g id="Group_298">
        <g id="Rectangle_151-2">
          <rect id="Rectangle_21" data-name="Rectangle 21" width="40" height="40" transform="translate(83 280)" fill="none"/>
        </g>
        <g id="Group_402" transform="translate(85 291)">
          <g id="Path_991">
            <path id="Path_13" data-name="Path 13" d="M3.9,7.5H9.7l-5.2-6H2.1a.961.961,0,0,0-.9.7v.1a1.389,1.389,0,0,0,.2,1.1Z" fill="#e0562b"/>
          </g>
          <g id="Group_400" transform="translate(3.118 7.403)">
            <g id="Path_992">
              <path id="Path_14" data-name="Path 14" d="M29.8,3.6A3.877,3.877,0,0,0,25.9.8H7.1L6.5,0H.7L1,.5,0,3.4C1.6,7.6,6.9,7.5,6.9,7.5H30.2a2.165,2.165,0,0,0,2-2.1C32.3,3.5,29.8,3.6,29.8,3.6Z" fill="#fad869"/>
            </g>
          </g>
          <g id="Path_993">
            <path id="Path_15" data-name="Path 15" d="M10,15.6c-.6,0-5.8-.1-7.4-4.6l-.1-.2L3.5,8,.9,3.7A2.223,2.223,0,0,1,.6,2.1a1.193,1.193,0,0,1,.5-.9A2.1,2.1,0,0,1,2.2.8H4.8l5.8,6.6H29.1a4.551,4.551,0,0,1,4.3,2.9c2.4.3,2.6,1.9,2.6,2.5h0a2.81,2.81,0,0,1-2.6,2.7L10,15.6ZM3.9,10.9c1.4,3.6,6,3.5,6.2,3.5H33.4a1.52,1.52,0,0,0,1.4-1.5c0-.5-.2-1.2-1.8-1.3a.562.562,0,0,1-.6-.4,3.216,3.216,0,0,0-3.2-2.4H10L4.2,2.1h-2c-.2,0-.2,0-.3.1s-.1,0-.1.1a.821.821,0,0,0,.1.7L4.8,7.8Z"/>
          </g>
          <g id="Path_994">
            <path id="Path_16" data-name="Path 16" d="M10.1,10.4H2.3A1.324,1.324,0,0,1,1,9.1H1V8.9A1.324,1.324,0,0,1,2.3,7.6h7.8a1.324,1.324,0,0,1,1.3,1.3h0v.2a1.206,1.206,0,0,1-1.3,1.3Z" fill="#fff"/>
            <path id="Path_17" data-name="Path 17" d="M2.3,11.1a1.974,1.974,0,0,1-1.4-.6A1.974,1.974,0,0,1,.3,9.1V8.9A1.974,1.974,0,0,1,.9,7.5a1.974,1.974,0,0,1,1.4-.6h7.8a2.051,2.051,0,0,1,2,2v.2a2.051,2.051,0,0,1-2,2H2.3Zm0-2.9a.646.646,0,0,0-.5.2.764.764,0,0,0-.2.5v.2a.764.764,0,0,0,.2.5,1.689,1.689,0,0,0,.5.2h7.8a.684.684,0,0,0,.7-.7V8.9a.684.684,0,0,0-.7-.7H2.3Z"/>
          </g>
          <g id="Path_995">
            <path id="Path_18" data-name="Path 18" d="M25.4,16H15.9a1.324,1.324,0,0,1-1.3-1.3h0v-.2a1.324,1.324,0,0,1,1.3-1.3h9.4a1.324,1.324,0,0,1,1.3,1.3h0v.2A1.181,1.181,0,0,1,25.4,16Z" fill="#fff"/>
            <path id="Path_19" data-name="Path 19" d="M15.9,16.6a2.006,2.006,0,0,1-2-2v-.2a2.051,2.051,0,0,1,2-2h9.4a2.006,2.006,0,0,1,2,2v.2a2.389,2.389,0,0,1-.5,1.4,1.76,1.76,0,0,1-1.3.6Zm0-1.2h9.5v0a.764.764,0,0,0,.5-.2.9.9,0,0,0,.1-.5v-.2a.684.684,0,0,0-.7-.7H15.9a.684.684,0,0,0-.7.7v.2a.684.684,0,0,0,.7.7Z"/>
          </g>
          <g id="Group_401" transform="translate(12.698 10.291)">
            <g id="Line_86">
              <rect id="Rectangle_22" data-name="Rectangle 22" width="1.7" height="1.2" transform="translate(0 -0.6)"/>
            </g>
            <g id="Line_87">
              <rect id="Rectangle_23" data-name="Rectangle 23" width="1.7" height="1.2" transform="translate(2.7 -0.6)"/>
            </g>
            <g id="Line_88">
              <rect id="Rectangle_24" data-name="Rectangle 24" width="1.8" height="1.2" transform="translate(5.4 -0.6)"/>
            </g>
            <g id="Line_89">
              <rect id="Rectangle_25" data-name="Rectangle 25" width="1.8" height="1.2" transform="translate(8.1 -0.6)"/>
            </g>
            <g id="Line_90">
              <rect id="Rectangle_26" data-name="Rectangle 26" width="1.7" height="1.2" transform="translate(10.8 -0.6)"/>
            </g>
          </g>
          <g id="Line_91">
            <rect id="Rectangle_27" data-name="Rectangle 27" width="3.3" height="1.2" transform="translate(27.4 9.7)"/>
          </g>
          <g id="Path_996">
            <path id="Path_20" data-name="Path 20" d="M33.9,9.1,33,8.2c.6-.6.7-.9.6-1,0-.1-.5-.3-.8-.4a.56.56,0,0,1-.5-.6c0-.6-.1-1.4-.6-1.7-.6-.4-1.7.1-2.1.2a.638.638,0,0,1-.6,0,.55.55,0,0,1-.3-.5,3.164,3.164,0,0,0-3-2.7C23.4,1.5,23,4,23,4.1a.85.85,0,0,1-.3.5.638.638,0,0,1-.6,0c-.6-.3-1.4-.6-1.9-.3a1.706,1.706,0,0,0-.7,1.2.55.55,0,0,1-.3.5.638.638,0,0,1-.6,0,1.094,1.094,0,0,0-1.3.4l-1-.7a2.512,2.512,0,0,1,2.1-1,2.779,2.779,0,0,1,1.2-1.5,2.517,2.517,0,0,1,2.4,0A3.843,3.843,0,0,1,25.7.4a4.329,4.329,0,0,1,4.1,3,3.379,3.379,0,0,1,2.6.1,2.712,2.712,0,0,1,1.2,2.2,1.785,1.785,0,0,1,1.3,1.1C35.1,7.5,34.7,8.2,33.9,9.1Z"/>
          </g>
          <g id="Path_997">
            <path id="Path_21" data-name="Path 21" d="M27.3,4.6c-.4-.6-1-1.2-1.6-1.2h0c-.7,0-1.2.8-1.2.8l-1-.7a2.847,2.847,0,0,1,2.3-1.3h0c1,0,1.8.6,2.6,1.8Z"/>
          </g>
        </g>
      </g>
    </g>
  </g>
</svg>
