<svg xmlns="http://www.w3.org/2000/svg" xmlns:xlink="http://www.w3.org/1999/xlink" width="40" height="40" viewBox="0 0 40 40">
  <defs>
    <clipPath id="clip-ic-datphongks">
      <rect width="40" height="40"/>
    </clipPath>
  </defs>
  <g id="ic-datphongks" clip-path="url(#clip-ic-datphongks)">
    <g id="DatPhongKhachSan" transform="translate(-83 -280)">
      <g id="Rectangle_151">
        <rect id="Rectangle_28" data-name="Rectangle 28" width="40" height="40" transform="translate(83 280)" fill="none"/>
      </g>
      <g id="Group_298">
        <g id="Rectangle_151-2">
          <rect id="Rectangle_29" data-name="Rectangle 29" width="40" height="40" transform="translate(83 280)" fill="none"/>
        </g>
        <g id="hotel" transform="translate(90 287.961)">
          <g id="Group_3838" transform="translate(5.577 1.466)">
            <g id="Rectangle_3548">
              <rect id="Rectangle_30" data-name="Rectangle 30" width="2.8" height="3.2" transform="translate(0 6.2)"/>
            </g>
            <g id="Rectangle_3560">
              <rect id="Rectangle_31" data-name="Rectangle 31" width="2.8" height="3.2" transform="translate(0 11.2)"/>
            </g>
            <g id="Rectangle_3549">
              <rect id="Rectangle_32" data-name="Rectangle 32" width="2.8" height="3.2" transform="translate(5 6.2)"/>
            </g>
            <g id="Rectangle_3561">
              <rect id="Rectangle_33" data-name="Rectangle 33" width="2.8" height="3.2" transform="translate(5 11.2)"/>
            </g>
            <g id="Rectangle_3558">
              <rect id="Rectangle_34" data-name="Rectangle 34" width="3.8" height="5.5" transform="translate(4.1 16.6)" fill="#e0562b"/>
            </g>
            <g id="Rectangle_3562">
              <rect id="Rectangle_35" data-name="Rectangle 35" width="6" height="11" transform="translate(9.6 11.1)" fill="#fad869"/>
            </g>
            <g id="Path_1910">
              <path id="Path_22" data-name="Path 22" d="M0,0H7.5V3.4H0Z" fill="#e0562b"/>
            </g>
          </g>
          <g id="Path_1908">
            <path id="Path_23" data-name="Path 23" d="M24.8,23.1H16.4V4.8a.472.472,0,0,0-.5-.5H13.3V1.5a.472.472,0,0,0-.5-.5h-7a.536.536,0,0,0-.5.5h0V4.3H2.7a.472.472,0,0,0-.5.5h0V23.1H.5a.472.472,0,0,0-.5.5c0,.3.2.4.5.4H24.8a.472.472,0,0,0,.5-.5C25.3,23.2,25.1,23.1,24.8,23.1Zm-21.6,0V5.3H8.4a.472.472,0,0,0,.5-.5.472.472,0,0,0-.5-.5H6.3V2h6.1V4.3H11a.472.472,0,0,0-.5.5.472.472,0,0,0,.5.5h4.4V23.1Z"/>
            <path id="Path_24" data-name="Path 24" d="M24.8,24.3H.5a.789.789,0,0,1-.8-.8.736.736,0,0,1,.8-.8H2V4.7c-.1-.3.3-.7.7-.7H5V1.5A.789.789,0,0,1,5.8.7h7a.789.789,0,0,1,.8.8V4h2.3a.789.789,0,0,1,.8.8v18h8.1a.789.789,0,0,1,.8.8A.709.709,0,0,1,24.8,24.3ZM.5,23.4a.2.2,0,0,0,0,.4H24.8a.2.2,0,1,0,0-.4H16.1V4.8a.215.215,0,0,0-.2-.2H13V1.5a.215.215,0,0,0-.2-.2h-7a.215.215,0,0,0-.2.2V4.6H2.7a.215.215,0,0,0-.2.2V23.4Zm15.2,0H2.9V5H8.4a.2.2,0,0,0,0-.4H6V1.7h6.7V4.6H11A.2.2,0,1,0,11,5h4.7ZM3.5,22.8H15.1V5.6H11a.789.789,0,0,1-.8-.8c.1-.4.4-.8.8-.8h1V2.3H6.6V4H8.4a.8.8,0,0,1,0,1.6H3.5Z"/>
          </g>
          <g id="Path_1909">
            <path id="Path_25" data-name="Path 25" d="M22.8,23.6H21.3V12.8H16V11.3h6a.789.789,0,0,1,.8.8Z"/>
          </g>
        </g>
      </g>
    </g>
  </g>
</svg>
