<svg xmlns="http://www.w3.org/2000/svg" xmlns:xlink="http://www.w3.org/1999/xlink" width="40" height="40" viewBox="0 0 40 40">
  <defs>
    <clipPath id="clip-ic-datvexemphim">
      <rect width="40" height="40"/>
    </clipPath>
  </defs>
  <g id="ic-datvexemphim" clip-path="url(#clip-ic-datvexemphim)">
    <g id="DatVeXemPhim" transform="translate(-83 -280)">
      <g id="Rectangle_151">
        <rect id="Rectangle_44" data-name="Rectangle 44" width="40" height="40" transform="translate(83 280)" fill="none"/>
      </g>
      <g id="Group_298">
        <g id="clapperboard" transform="translate(56.962 288.001)">
          <g id="Group_1303" transform="translate(36.489 0.45)">
            <g id="Path_1278">
              <path id="Path_48" data-name="Path 48" d="M9.5,2.7l3.9,2.1L9.4,6,5.5,4V3.9l4-1.2Z" fill="#f2f2f2"/>
            </g>
            <g id="Path_1279">
              <path id="Path_49" data-name="Path 49" d="M17.9,0l1,3.1-1.5.5h0L13.5,1.5V1.4Z" fill="#f2f2f2"/>
            </g>
            <g id="Path_1280">
              <path id="Path_50" data-name="Path 50" d="M19.7,8.6v3.2H15l3.1-3.1V8.6Z" fill="#f2f2f2"/>
            </g>
            <g id="Path_1281">
              <path id="Path_51" data-name="Path 51" d="M14,8.6v.1l-3.1,3.1H6.7L9.8,8.7V8.6Z" fill="#f2f2f2"/>
            </g>
            <g id="Path_1282">
              <path id="Path_52" data-name="Path 52" d="M5.6,8.6v.1L2.5,11.8H1V8.6Z" fill="#f2f2f2"/>
            </g>
            <g id="Path_1283">
              <path id="Path_53" data-name="Path 53" d="M5.4,7.2.9,8.6,0,5.5,1.5,5v.1Z" fill="#f2f2f2"/>
            </g>
          </g>
          <g id="Group_1304" transform="translate(37.974 1.828)">
            <g id="Path_1284">
              <path id="Path_54" data-name="Path 54" d="M12,.1l3.9,2.1-4,1.2h0L8,1.3V1.2L12,0Z" fill="#fad869"/>
            </g>
            <g id="Path_1285">
              <path id="Path_55" data-name="Path 55" d="M7.9,4.6l-4,1.2L0,3.8V3.7L4,2.5v.1Z" fill="#fad869"/>
            </g>
          </g>
          <g id="Group_1305" transform="translate(38.995 9.068)">
            <g id="Path_1287">
              <path id="Path_56" data-name="Path 56" d="M15.7,0V.1L12.6,3.2H8.4L11.5.1V0Z" fill="#e0562b"/>
            </g>
            <g id="Path_1288">
              <path id="Path_57" data-name="Path 57" d="M7.3,0V.1L4.2,3.2H0L3.1.1V0Z" fill="#e0562b"/>
            </g>
          </g>
          <g id="Group_1306" transform="translate(40.424 15.646)">
            <g id="Path_1290">
              <path id="Path_58" data-name="Path 58" d="M12.4.9H.5A.458.458,0,0,1,0,.5C0,.2.1,0,.4,0h12c.2,0,.5.2.5.4-.1.3-.2.5-.5.5Z" fill="#e0562b"/>
              <path id="Path_59" data-name="Path 59" d="M.4,1.4A.9.9,0,0,1-.5.5a.987.987,0,0,1,.9-1h12a1.854,1.854,0,0,1,.7.2.908.908,0,0,1,.3.7.987.987,0,0,1-.9,1H.4Zm12-1v0Z" fill="#e0562b"/>
            </g>
            <g id="Path_1291">
              <path id="Path_60" data-name="Path 60" d="M12.4,4.4H.5A.458.458,0,0,1,0,4a.43.43,0,0,1,.4-.4H12.3c.2,0,.5.2.5.4a.366.366,0,0,1-.4.4Z" fill="#e0562b"/>
              <path id="Path_61" data-name="Path 61" d="M12.4,4.9H.4a.865.865,0,0,1-.9-1A.9.9,0,0,1,.4,3H12.3a1.063,1.063,0,0,1,1,.9,1.445,1.445,0,0,1-.2.7.908.908,0,0,1-.7.3Zm0-1v0Z" fill="#e0562b"/>
            </g>
          </g>
          <g id="Ellipse_162">
            <circle id="Ellipse_3" data-name="Ellipse 3" cx="0.5" cy="0.5" r="0.5" transform="translate(54.2 13.2)" fill="#fff"/>
          </g>
          <g id="Path_1292">
            <path id="Path_62" data-name="Path 62" d="M56.2,8.6H40.4L55.5,4a.486.486,0,0,0,.3-.6h0L54.9.3a.486.486,0,0,0-.6-.3h0L36.4,5.6a.486.486,0,0,0-.3.6h0l.9,3V23.6a.536.536,0,0,0,.5.5H56.3a.536.536,0,0,0,.5-.5h0V9.1a.634.634,0,0,0-.6-.5Zm-.4,3.2H52.7L55,9.5h.8Zm-7.4,0,2.3-2.3h2.9l-2.3,2.3Zm-4.1,0,2.3-2.3h2.9l-2.3,2.3Zm-4.2,0,2.3-2.3h2.9L43,11.8Zm-2.2,0V9.5h3.2l-2.3,2.3Zm3.9-7,2.9,1.5-2.8.9L39,5.7Zm4-1.2,2.9,1.5L45.9,6,43,4.4Zm4-1.3,2.9,1.5-2.8.9L47,3.2Zm5,.9-.9.3L51,2l3.1-1Zm-17,2.9,2.9,1.5-3,.9L37,6.3Zm.1,17V12.7H55.8V23.1H37.9Z"/>
            <path id="Path_63" data-name="Path 63" d="M56.2,24.2H37.4a.684.684,0,0,1-.7-.7V9.2l-.9-3a.715.715,0,0,1,.5-.9L54.2-.2a.715.715,0,0,1,.9.5l.9,3a.715.715,0,0,1-.5.9L42.1,8.4H56.2a.684.684,0,0,1,.7.7V23.6A.669.669,0,0,1,56.2,24.2ZM54.4.2h0l-18,5.6c-.1,0-.2.1-.1.3l.9,3.1V23.6a.215.215,0,0,0,.2.2H56.2a.215.215,0,0,0,.2-.2V9.1a.215.215,0,0,0-.2-.2H40.4l-.1-.5L55.4,3.7a.1.1,0,0,0,.1-.1V3.4L54.6.3A.349.349,0,0,0,54.4.2ZM56,23.3H37.6V12.5H56Zm-17.9-.5H55.5V13H38.1ZM56,12.1H52l2.8-2.8H56Zm-2.8-.5h2.3V9.8H55Zm-1.7.5H47.9l2.8-2.8h3.6Zm-2.4-.5h2.2l1.8-1.8H50.9Zm-1.8.5H43.7l2.8-2.8h3.6Zm-2.4-.5h2.2l1.8-1.8H46.7Zm-1.8.5H39.5l2.8-2.8h3.6Zm-2.4-.5h2.2l1.8-1.8H42.5Zm-1.8.5H37.6V9.3h4.1Zm-.8-.5h.6l1.8-1.8H38.1v1.8Zm-.5-2.8-.8-2.7,1.1-.3,3.5,1.9Zm-.2-2.3.5,1.7,2.2-.7L37.8,6.3Zm4.5,1L38.4,5.6l3.5-1.1,3.5,1.9ZM39.7,5.7,42,6.9l2.1-.6L41.8,5.1Zm6.2.5L42.4,4.3l3.5-1.1,3.5,1.9ZM43.7,4.5,46,5.7,48.1,5,45.8,3.8Zm6.2.5L46.4,3.1,49.9,2l3.5,1.9ZM47.7,3.3,50,4.5l2.1-.6L49.8,2.7Zm6.2.5L50.4,1.9,54.3.7l.8,2.7ZM51.7,2,54,3.2l.5-.2L54,1.3Z"/>
          </g>
        </g>
        <g id="Rectangle_151-2">
          <rect id="Rectangle_45" data-name="Rectangle 45" width="40" height="40" transform="translate(83 280)" fill="none"/>
        </g>
      </g>
    </g>
  </g>
</svg>
