<svg xmlns="http://www.w3.org/2000/svg" xmlns:xlink="http://www.w3.org/1999/xlink" width="40" height="40" viewBox="0 0 40 40">
  <defs>
    <clipPath id="clip-ic-datvetau">
      <rect width="40" height="40"/>
    </clipPath>
  </defs>
  <g id="ic-datvetau" clip-path="url(#clip-ic-datvetau)">
    <g id="DatVeTauHoa" transform="translate(-83.4 -280.4)">
      <g id="Rectangle_151" transform="translate(83.4 280.4)">
        <rect id="Rectangle_40" data-name="Rectangle 40" width="40" height="40" fill="none"/>
      </g>
      <g id="Group_587" transform="translate(83.4 280.4)">
        <g id="Rectangle_151-2">
          <rect id="Rectangle_41" data-name="Rectangle 41" width="40" height="40" fill="none"/>
        </g>
        <g id="Group_4048" transform="translate(6.91 8.973)">
          <g id="Group_587-2" transform="translate(0 0)">
            <g id="Rectangle_151-3" transform="translate(13.711 9.175)">
              <rect id="Rectangle_42" data-name="Rectangle 42" width="1.856" height="1.856" fill="none"/>
            </g>
            <g id="train" transform="translate(0 0)">
              <g id="Rectangle_3577" transform="translate(0.722 19.588)">
                <rect id="Rectangle_43" data-name="Rectangle 43" width="24.021" height="2.68" transform="translate(0)" fill="#fad869"/>
              </g>
              <g id="Path_1974" transform="translate(4.639 17.32)">
                <path id="Path_41" data-name="Path 41" d="M13.994,16.5l-2.371,2.268H4.2L6.571,16.5Z" transform="translate(-4.2 -16.5)" fill="#fad869"/>
              </g>
              <g id="Path_1977" transform="translate(5.361 1.856)">
                <path id="Path_42" data-name="Path 42" d="M17.684,1.5A13.373,13.373,0,0,0,11.6,6.861,25.3,25.3,0,0,0,4.9,8.407,38.526,38.526,0,0,1,17.684,1.5Z" transform="translate(-4.9 -1.5)" fill="#fad869"/>
              </g>
              <g id="Path_1978" transform="translate(14.227 11.134)">
                <path id="Path_43" data-name="Path 43" d="M23.912,10.5H16.49L13.5,14.624H24.015" transform="translate(-13.5 -10.5)" fill="#e0562b"/>
              </g>
              <g id="Ellipse_257" transform="translate(7.113 10.825)">
                <ellipse id="Ellipse_2" data-name="Ellipse 2" cx="1.237" cy="1.959" rx="1.237" ry="1.959" fill="#fad869"/>
              </g>
              <g id="Path_1979" transform="translate(6.289 10.103)">
                <path id="Path_44" data-name="Path 44" d="M7.853,9.7C6.822,9.7,6.1,10.731,6.1,12.174s.722,2.474,1.753,2.474,1.753-1.031,1.753-2.474S8.78,9.7,7.853,9.7Zm0,3.918c-.309,0-.722-.619-.722-1.443,0-.928.412-1.443.722-1.443s.722.619.722,1.443-.412,1.443-.722,1.443Z" transform="translate(-5.791 -9.494)"/>
                <path id="Path_45" data-name="Path 45" d="M7.862,14.861c-1.134,0-2.062-1.237-2.062-2.68,0-1.546.928-2.68,2.062-2.68s1.959,1.237,1.959,2.68S9,14.861,7.862,14.861Zm0-4.948c-.825,0-1.546.928-1.546,2.165s.619,2.165,1.546,2.165,1.443-.928,1.443-2.165C9.305,10.943,8.687,9.912,7.862,9.912Zm0,3.918h0c-.515,0-1.031-.825-1.031-1.753,0-1.031.515-1.753,1.031-1.753s1.031.825,1.031,1.753C8.893,13.108,8.377,13.83,7.862,13.83Zm0-2.887c-.1,0-.515.412-.515,1.237,0,.722.309,1.237.515,1.237h0a.1.1,0,0,0,.1-.1,1.489,1.489,0,0,0,.309-1.134C8.377,11.356,7.965,10.943,7.862,10.943Z" transform="translate(-5.8 -9.5)"/>
              </g>
              <g id="Path_1980">
                <path id="Path_46" data-name="Path 46" d="M24.021,17.32h.412a.46.46,0,0,0,.412-.309h0V.309C24.639.1,24.536,0,24.33,0l-2.68.309h0a36.934,36.934,0,0,0-6.6,1.856A34.665,34.665,0,0,0,8.866,5.258a31.142,31.142,0,0,0-6.392,5.155,3.993,3.993,0,0,0-.928,3.814A3.95,3.95,0,0,0,4.433,17.01c.515.1.928.206,1.443.309L4.124,18.969H.412A.46.46,0,0,0,0,19.278H0v2.68c0,.206.206.412.412.309H4.124a.46.46,0,0,0,.412-.309h0c0-.206-.206-.412-.412-.309H.722V19.691h23.3v1.959H8.041a.46.46,0,0,0-.412.309h0c0,.206.206.412.412.309H24.433a.46.46,0,0,0,.412-.309h0v-2.68c0-.206-.206-.412-.412-.309H23.2A3.142,3.142,0,0,0,24.021,17.32ZM9.278,5.876a41.617,41.617,0,0,1,6.082-2.99c1.34-.515,2.68-.928,4.124-1.34V3.505a2.71,2.71,0,0,1-2.577,2.68,46.571,46.571,0,0,0-10,1.237C7.629,6.907,8.454,6.392,9.278,5.876ZM2.165,14.021a3.126,3.126,0,0,1,.825-3.093c.722-.722,1.443-1.443,2.165-2.062,2.99-1.34,8.66-1.753,11.753-1.959a3.485,3.485,0,0,0,3.3-3.4V1.34a5.088,5.088,0,0,1,1.546-.309L24.021.825v9.691H22.99a.46.46,0,0,0-.412.309h0c0,.206.206.412.412.309h1.031v3.4H14.433l2.577-3.4h2.062a.46.46,0,0,0,.412-.309h0c0-.206-.206-.412-.412-.309H16.8c-.1,0-.206.1-.309.1L13.4,14.742a.314.314,0,0,0,0,.412.379.379,0,0,0,.309.1H24.021V16.6H6.7a6.647,6.647,0,0,1-2.062-.309A3.27,3.27,0,0,1,2.165,14.021ZM16.6,18.969a1.987,1.987,0,0,1-1.959-1.546h3.918A2.1,2.1,0,0,1,16.6,18.969ZM6.8,17.32h6.6l-1.649,1.546h-6.6Zm5.979,1.649,1.237-1.237a3.861,3.861,0,0,0,.722,1.237Zm5.67,0c.206-.206.309-.412.515-.619a2.733,2.733,0,0,0,.515.619Zm.928-1.649H23.3a2.02,2.02,0,0,1-2.371,1.546A1.753,1.753,0,0,1,19.381,17.32Z" transform="translate(0.309 0.309)"/>
                <path id="Path_47" data-name="Path 47" d="M8.051,22.69c-.206,0-.309-.1-.515-.206a.787.787,0,0,1-.206-.515.7.7,0,0,1,.722-.722h15.67v-1.34H1.04v1.34H4.03a.772.772,0,0,1,.722.619c0,.206-.1.309-.206.515a.567.567,0,0,1-.515.309H.422c-.206,0-.309-.1-.515-.206A.787.787,0,0,1-.3,21.968v-2.68c0-.206.1-.309.206-.515a.787.787,0,0,1,.515-.206H4.03l1.134-1.031c-.309-.1-.619-.1-.928-.206a4.5,4.5,0,0,1-3.093-2.99,4.359,4.359,0,0,1,1.031-4.124A34.842,34.842,0,0,1,8.669,5.061a35.6,35.6,0,0,1,6.289-3.093,30.26,30.26,0,0,1,6.6-1.959L24.339-.3a.69.69,0,0,1,.722.412c0,.1.1.206,0,.309v16.6a.7.7,0,0,1-.722.722h-.1a2.547,2.547,0,0,1-.412.928h.515c.206,0,.309.1.515.206a.787.787,0,0,1,.206.515v2.68c0,.412-.309.619-.722.619H8.051Zm0-.722h0l16.392.1a.1.1,0,0,0,.1-.1v-2.68H22.38L23,18.772a2.421,2.421,0,0,0,.722-1.443V17.02h.619a.1.1,0,0,0,.1-.1V.422l-.1-.1-2.68.309a35.88,35.88,0,0,0-6.495,1.856A34.665,34.665,0,0,0,8.978,5.576a37.22,37.22,0,0,0-6.392,5.052,3.676,3.676,0,0,0-.928,3.505,3.59,3.59,0,0,0,2.68,2.577c.515.1.928.206,1.443.309l.619.1L4.133,19.288H.422l-.1,2.784H4.03c.1-.1,0-.1,0-.1H.422V19.391H24.339v2.577H8.051Zm13.3-2.68h-.515a2.195,2.195,0,0,1-1.753-1.753l-.1-.412h4.639l-.1.412A2.206,2.206,0,0,1,21.349,19.288ZM19.8,17.638a1.486,1.486,0,0,0,1.134.928,1.552,1.552,0,0,0,1.856-.928Zm-3.2,1.649h0a2.325,2.325,0,0,1-2.268-1.856l-.1-.412h4.639l-.1.412A2.136,2.136,0,0,1,16.607,19.288Zm-1.546-1.649a1.6,1.6,0,0,0,1.546.928h.1a1.617,1.617,0,0,0,1.443-.928Zm5.155,1.649H17.638l.619-.515a1.81,1.81,0,0,0,.412-.515l.309-.412.309.412a2.249,2.249,0,0,0,.412.515Zm-4.639,0H12.071l2.165-2.062.1.515a2.139,2.139,0,0,0,.619,1.031Zm-2.062-.619h.515c-.1-.1-.1-.206-.206-.309Zm-1.649.619H4.442L6.71,17.123h7.423Zm-5.876-.619h5.67l1.031-.928H6.916Zm18.351-1.753H6.71a7.848,7.848,0,0,1-2.165-.309A3.805,3.805,0,0,1,1.968,14.03a3.7,3.7,0,0,1,.825-3.4A21.532,21.532,0,0,1,5.061,8.566h.1C8.051,7.226,13.824,6.71,16.916,6.5a3.152,3.152,0,0,0,2.99-3.093V1.143l.206-.1A13.526,13.526,0,0,1,21.659.731l2.68-.309V10.731H23v.1h1.34v4.021H13.824l2.99-4.021h2.165a.1.1,0,0,0,.1-.1H16.71l-3.093,4.124h0l.1.1H24.339v1.959ZM5.37,9.081c-.722.619-1.443,1.34-2.165,2.062a2.822,2.822,0,0,0-.722,2.784h0a2.926,2.926,0,0,0,2.165,2.062A6.647,6.647,0,0,0,6.71,16.3h17.01v-.722h-10a.787.787,0,0,1-.515-.206.627.627,0,0,1,0-.825L16.3,10.422a.567.567,0,0,1,.515-.309h2.268a.689.689,0,0,1,.722.619.7.7,0,0,1-.722.722H17.226l-2.062,2.784h8.557V11.453H23c-.206,0-.309-.1-.515-.206a.787.787,0,0,1-.206-.515c0-.206.1-.309.206-.515A.787.787,0,0,1,23,10.009h.722V1.143l-1.959.206a7.613,7.613,0,0,0-1.237.206V3.411A3.725,3.725,0,0,1,17.02,7.123C13.824,7.329,8.257,7.741,5.37,9.081ZM7.02,7.741,6.71,7.226A19.406,19.406,0,0,1,9.081,5.576h0a36.92,36.92,0,0,1,6.082-2.99,31.993,31.993,0,0,1,4.124-1.34l.412-.1V3.514A3.039,3.039,0,0,1,16.813,6.5,44.7,44.7,0,0,0,7.02,7.741ZM9.391,6.195c-.309.206-.722.412-1.031.619a47.341,47.341,0,0,1,8.557-1.031,2.453,2.453,0,0,0,2.268-2.371V1.968a26.113,26.113,0,0,0-3.711,1.237,33.3,33.3,0,0,0-6.082,2.99Z" transform="translate(0.3 0.3)"/>
              </g>
            </g>
          </g>
        </g>
      </g>
    </g>
  </g>
</svg>
