<svg xmlns="http://www.w3.org/2000/svg" xmlns:xlink="http://www.w3.org/1999/xlink" width="40" height="40" viewBox="0 0 40 40">
  <defs>
    <clipPath id="clip-ic-datvexe">
      <rect width="40" height="40"/>
    </clipPath>
  </defs>
  <g id="ic-datvexe" clip-path="url(#clip-ic-datvexe)">
    <g id="DatVeXe" transform="translate(-83.4 -280.4)">
      <g id="Rectangle_151" transform="translate(83.4 280.4)">
        <rect id="Rectangle_36" data-name="Rectangle 36" width="40" height="40" fill="none"/>
      </g>
      <g id="Group_298" transform="translate(83.4 280.4)">
        <g id="Rectangle_151-2">
          <rect id="Rectangle_37" data-name="Rectangle 37" width="40" height="40" fill="none"/>
        </g>
        <g id="Group_410" transform="translate(6.602 7.633)">
          <g id="Rectangle_190" transform="translate(2.68 14.536)">
            <rect id="Rectangle_38" data-name="Rectangle 38" width="20.619" height="6.804" fill="#fad869"/>
          </g>
          <g id="Group_409" transform="translate(2.795 0.619)">
            <g id="Path_1007">
              <path id="Path_26" data-name="Path 26" d="M20.309,1.959A1.982,1.982,0,0,0,18.247,0H2.062A2.049,2.049,0,0,0,0,1.959v2.99H20.309Z" fill="#e0562b"/>
            </g>
          </g>
          <g id="Rectangle_191" transform="translate(2.062 13.918)">
            <path id="Path_27" data-name="Path 27" d="M24.256,21.841H2.4V13.8H24.256ZM3.637,20.6H23.019V15.14H3.637Z" transform="translate(-2.4 -13.8)"/>
          </g>
          <g id="Rectangle_192" transform="translate(2.062 5.155)">
            <path id="Path_28" data-name="Path 28" d="M24.256,15.2H2.4V5.3H24.256ZM3.637,13.96H23.019V6.64H3.637Z" transform="translate(-2.4 -5.3)"/>
          </g>
          <g id="Path_1008" transform="translate(2.887 20.619)">
            <path id="Path_29" data-name="Path 29" d="M5.365,24.836H5.056A1.848,1.848,0,0,1,3.2,22.98V20.3H7.221v2.68a1.848,1.848,0,0,1-1.856,1.856Zm-.825-3.2v1.34a.487.487,0,0,0,.515.515h.309a.552.552,0,0,0,.515-.515V21.64Z" transform="translate(-3.2 -20.3)"/>
          </g>
          <g id="Path_1009" transform="translate(18.969 20.619)">
            <path id="Path_30" data-name="Path 30" d="M20.965,24.836h-.309A1.848,1.848,0,0,1,18.8,22.98V20.3h4.021v2.68a1.848,1.848,0,0,1-1.856,1.856Zm-.825-3.2v1.34a.487.487,0,0,0,.515.515h.309a.487.487,0,0,0,.515-.515V21.64Z" transform="translate(-18.8 -20.3)"/>
          </g>
          <g id="Path_1010" transform="translate(4.433 16.186)">
            <path id="Path_31" data-name="Path 31" d="M6.453,19.505a1.753,1.753,0,0,1,0-3.505,1.807,1.807,0,0,1,1.753,1.753h0A1.738,1.738,0,0,1,6.453,19.505Zm0-2.165a.412.412,0,1,0,.412.412h0A.443.443,0,0,0,6.453,17.34Z" transform="translate(-4.7 -16)"/>
          </g>
          <g id="Path_1011" transform="translate(18.041 16.186)">
            <path id="Path_32" data-name="Path 32" d="M19.653,19.505a1.753,1.753,0,1,1,1.753-1.753h0A1.738,1.738,0,0,1,19.653,19.505Zm0-2.165a.412.412,0,1,0,.412.412h0A.378.378,0,0,0,19.653,17.34Z" transform="translate(-17.9 -16)"/>
          </g>
          <g id="Path_1012" transform="translate(22.68 9.278)">
            <path id="Path_33" data-name="Path 33" d="M23.019,15.176H22.4V9.3h1.649A1.884,1.884,0,0,1,25.8,11.053v2.474a1.807,1.807,0,0,1-1.753,1.753H23.019Zm.619-1.34h.309a.472.472,0,0,0,.412-.515V10.949a.472.472,0,0,0-.515-.412h-.309v3.3Z" transform="translate(-22.4 -9.3)"/>
          </g>
          <g id="Path_1013" transform="translate(0 9.175)">
            <path id="Path_34" data-name="Path 34" d="M3.7,15.179H2.153A1.807,1.807,0,0,1,.4,13.427V10.953A1.807,1.807,0,0,1,2.153,9.2H3.8v5.979ZM2.153,10.54a.364.364,0,0,0-.412.412v2.371a.472.472,0,0,0,.515.412h.309v-3.3H2.153Z" transform="translate(-0.4 -9.2)"/>
          </g>
          <g id="Line_92" transform="translate(3.918 7.216)">
            <path id="Path_35" data-name="Path 35" d="M12.551,8.537H4.819A.665.665,0,0,1,4.2,7.919.665.665,0,0,1,4.819,7.3h7.629a.665.665,0,0,1,.619.619A.516.516,0,0,1,12.551,8.537Z" transform="translate(-4.2 -7.3)"/>
          </g>
          <g id="Line_93" transform="translate(8.351 2.68)">
            <path id="Path_36" data-name="Path 36" d="M16.851,4.137H9.119A.665.665,0,0,1,8.5,3.519.665.665,0,0,1,9.119,2.9h7.629a.665.665,0,0,1,.619.619A.577.577,0,0,1,16.851,4.137Z" transform="translate(-8.5 -2.9)"/>
          </g>
          <g id="Line_94" transform="translate(13.711 7.216)">
            <path id="Path_37" data-name="Path 37" d="M15.762,8.537H14.319a.665.665,0,0,1-.619-.619.665.665,0,0,1,.619-.619h1.443a.665.665,0,0,1,.619.619C16.484,8.228,16.174,8.537,15.762,8.537Z" transform="translate(-13.7 -7.3)"/>
          </g>
          <g id="Line_95" transform="translate(4.509 11.829)">
            <path id="Path_38" data-name="Path 38" d="M11.6,15H11.4L5.213,13.038A.652.652,0,0,1,5.626,11.8l6.186,1.959a.7.7,0,0,1,.412.825C12.223,14.894,11.914,15,11.6,15Z" transform="translate(-4.774 -11.774)"/>
          </g>
          <g id="Line_96" transform="translate(13.169 11.829)">
            <path id="Path_39" data-name="Path 39" d="M20.108,15H19.9l-6.289-1.959a.652.652,0,0,1,.412-1.237l6.289,1.959a.7.7,0,0,1,.412.825A.848.848,0,0,1,20.108,15Z" transform="translate(-13.174 -11.774)"/>
          </g>
          <g id="Line_97" transform="translate(16.495 0)">
            <rect id="Rectangle_39" data-name="Rectangle 39" width="1.34" height="1.237"/>
          </g>
          <g id="Path_1014" transform="translate(2.062 0)">
            <path id="Path_40" data-name="Path 40" d="M24.256,6.692H2.4V2.98a2.414,2.414,0,0,1,.825-1.856A2.414,2.414,0,0,1,5.08.3h9.691V1.537H5.08a1.964,1.964,0,0,0-1.031.515,1.307,1.307,0,0,0-.412.928V5.455H23.019V2.98a1.365,1.365,0,0,0-1.34-1.34H19.926V.3h1.649a2.729,2.729,0,0,1,2.68,2.68Z" transform="translate(-2.4 -0.3)"/>
          </g>
        </g>
      </g>
    </g>
  </g>
</svg>
