<svg xmlns="http://www.w3.org/2000/svg" xmlns:xlink="http://www.w3.org/1999/xlink" width="40" height="40" viewBox="0 0 40 40">
  <defs>
    <clipPath id="clip-path">
      <rect id="Rectangle_61" data-name="Rectangle 61" width="15" height="15"/>
    </clipPath>
    <clipPath id="clip-ic-danhba">
      <rect width="40" height="40"/>
    </clipPath>
  </defs>
  <g id="ic-danhba" clip-path="url(#clip-ic-danhba)">
    <g id="QuanLyDanhBa" transform="translate(-83 -280)">
      <g id="Rectangle_151">
        <rect id="Rectangle_59" data-name="Rectangle 59" width="40" height="40" transform="translate(83 280)" fill="none"/>
      </g>
      <g id="Group_298">
        <g id="Rectangle_151-2">
          <rect id="Rectangle_60" data-name="Rectangle 60" width="40" height="40" transform="translate(83 280)" fill="none"/>
        </g>
        <g id="Group_459" transform="translate(89 289)">
          <g id="Group_453">
            <g id="Path_1067">
              <path id="Path_116" data-name="Path 116" d="M3.9,8.6c0,.3.3.7.5.7h0A4.349,4.349,0,0,0,5,10H6.5A3.039,3.039,0,0,0,7,9.3h.1c.2,0,.4-.4.4-.8s0-.5-.2-.5H7.2c0-.9-.2-2.1-1.6-2.1S4.1,7.1,4.1,8h0c-.2,0-.2.3-.2.6Z"/>
            </g>
            <g id="Path_1068">
              <path id="Path_117" data-name="Path 117" d="M11.7,7.5l.1-.5a.52.52,0,0,0-.2-.4H7.4a4.253,4.253,0,0,1,.2,1.1c.1.1.2.1.2.2h3.6a.446.446,0,0,0,.3-.4Z"/>
            </g>
            <g id="Path_1069">
              <path id="Path_118" data-name="Path 118" d="M11.1,10c.2,0,.3-.1.4-.3l.1-.5c0-.1,0-.3-.2-.3H7.9a1.555,1.555,0,0,1-.6.8h0V10Z"/>
            </g>
            <g id="Group_452">
              <g id="Group_4" data-name="Group 4">
                <g id="Group_450" clip-path="url(#clip-path)">
                  <g id="Path_1070">
                    <path id="Path_119" data-name="Path 119" d="M1.7,9.8,1,5.2a1,1,0,0,1,1-1H12.4a1,1,0,0,1,1,1l-.6,4.5h.9l.6-4.5a1.9,1.9,0,0,0-1.9-1.9H2.1A1.9,1.9,0,0,0,.2,5.2h0L.9,9.8h.8Z"/>
                  </g>
                </g>
              </g>
              <g id="Group_5" data-name="Group 5">
                <g id="Group_451" clip-path="url(#clip-path)">
                  <g id="Path_1071">
                    <path id="Path_120" data-name="Path 120" d="M.7,10.4a.764.764,0,0,0-.5.2.735.735,0,0,0-.2.6l.5,3.7H14l.5-3.7a.545.545,0,0,0-.5-.7H.7Z"/>
                  </g>
                </g>
              </g>
            </g>
            <g id="Path_1072">
              <path id="Path_121" data-name="Path 121" d="M11.8,2.6l.2-.7V1.7c0-.1-.1-.1-.2-.1H2.4c-.1,0-.1,0-.2.1,0,.1-.1.1,0,.2l.2.7Z"/>
            </g>
            <g id="Path_1073">
              <path id="Path_122" data-name="Path 122" d="M10.9,1,11,.3V.1c-.1-.1-.1-.1-.2-.1H3.4c-.1,0-.2,0-.2.1a.139.139,0,0,0,0,.2l.1.7Z"/>
            </g>
          </g>
          <g id="Group_458" transform="translate(4.229 6.064)">
            <g id="Path_1074">
              <path id="Path_123" data-name="Path 123" d="M22.5,14H20.3c-.2,0-.4-.1-.4-.3a8.865,8.865,0,0,0-.8-1.7.637.637,0,0,1,0-.6L21,9.5c.2-.2.2-.5,0-.6h0L18.6,6.5c-.2-.2-.5-.2-.6,0h0l-1.9,2a.375.375,0,0,1-.6,0A5.483,5.483,0,0,0,14,7.7a.43.43,0,0,1-.4-.4V4.7a.472.472,0,0,0-.5-.5H9.8a.472.472,0,0,0-.5.5V7.3a.43.43,0,0,1-.4.4,2.851,2.851,0,0,0-1.4.8.616.616,0,0,1-.7-.1l-2-2c-.2-.2-.5-.2-.6,0h0L1.9,8.9c-.2.2-.2.5,0,.6h0l1.9,1.9a.375.375,0,0,1,0,.6A8.865,8.865,0,0,0,3,13.7c-.1.2-.2.3-.4.3H.5a.472.472,0,0,0-.5.5v1.4H22.9V14.4a.43.43,0,0,0-.4-.4Z" fill="#fff"/>
              <path id="Path_124" data-name="Path 124" d="M24.9,17.9H-2V14.5A2.476,2.476,0,0,1,.5,12H1.6L.5,11a2.505,2.505,0,0,1,0-3.5L2.9,5a2.508,2.508,0,0,1,3.5.1L7.5,6.2V4.7A2.476,2.476,0,0,1,10,2.2h3a2.476,2.476,0,0,1,2.5,2.5V6.1L16.6,5A2.384,2.384,0,0,1,20,5l2.5,2.5a2.716,2.716,0,0,1,.6,1.7,2.136,2.136,0,0,1-.8,1.7l-1,1h1a2.372,2.372,0,0,1,2.5,2.3Zm-19.8-4H17.9a4.053,4.053,0,0,0-.5-.9,2.393,2.393,0,0,1,.2-2.9l.1-.1.8-.8L18.3,9l-.9,1a2.422,2.422,0,0,1-3.1.2l-.1-.1a2.01,2.01,0,0,0-.8-.4,2.354,2.354,0,0,1-1.9-2.3V6.2h-.1V7.3A2.464,2.464,0,0,1,9.3,9.7a.55.55,0,0,0-.5.3,2.383,2.383,0,0,1-3.4-.2L4.6,9l-.2.2.8.8a2.421,2.421,0,0,1,.3,3.1A2.994,2.994,0,0,0,5.1,13.9Zm-4-.8ZM21.8,13ZM2.4,12.8ZM19.6,8.1ZM3.5,7.9Zm13.6-.1c.1,0,.1.1,0,0ZM7.4,7.3Z" fill="#fff"/>
            </g>
            <g id="Path_1075">
              <path id="Path_125" data-name="Path 125" d="M12.1,0" fill="none" stroke="#000" stroke-miterlimit="10" stroke-width="1.25"/>
            </g>
            <g id="Path_1076">
              <path id="Path_126" data-name="Path 126" d="M10.3,4.6" fill="none" stroke="#000" stroke-miterlimit="10" stroke-width="1.25"/>
            </g>
            <g id="Path_1077">
              <path id="Path_127" data-name="Path 127" d="M7.9,5" fill="none" stroke="#000" stroke-miterlimit="10" stroke-width="1.25"/>
            </g>
            <g id="Path_1078">
              <path id="Path_128" data-name="Path 128" d="M5.6,2.7" fill="none" stroke="#000" stroke-miterlimit="10" stroke-width="1.25"/>
            </g>
            <g id="Group_457" transform="translate(0 4.218)">
              <g id="Group_455">
                <g id="Group_454">
                  <g id="Path_1079">
                    <path id="Path_129" data-name="Path 129" d="M22.9,11.7V10.2a.472.472,0,0,0-.5-.5H20.2c-.2,0-.4-.1-.4-.3A8.865,8.865,0,0,0,19,7.7a.637.637,0,0,1,0-.6l2-1.9c.2-.2.2-.5,0-.6h0L18.6,2.2c-.2-.2-.5-.2-.6,0h0l-2,2a.375.375,0,0,1-.6,0,3.4,3.4,0,0,0-1.5-.7.43.43,0,0,1-.4-.4V.5A.536.536,0,0,0,13,0H9.8a.458.458,0,0,0-.4.5V3.1a.43.43,0,0,1-.4.4,2.751,2.751,0,0,0-1.5.8.616.616,0,0,1-.7-.1l-2-2c-.2-.2-.5-.2-.6,0h0L1.9,4.7c-.2.2-.2.5,0,.6h0L3.8,7.2a.375.375,0,0,1,0,.6A8.865,8.865,0,0,0,3,9.5c0,.2-.2.3-.4.3H.5a.536.536,0,0,0-.5.5v1.4Z" fill="#fad869"/>
                  </g>
                </g>
                <g id="Path_1080">
                  <path id="Path_130" data-name="Path 130" d="M23.5,11.7H22.3V10.4h-2a.974.974,0,0,1-1-.8A7.741,7.741,0,0,0,18.6,8a1.23,1.23,0,0,1,.1-1.3l1.8-1.8L18.3,2.7,16.5,4.6a1.228,1.228,0,0,1-1.5.2,6.109,6.109,0,0,0-1.4-.7,1.077,1.077,0,0,1-.8-1V.6H10V3.1a.987.987,0,0,1-.9,1,2.281,2.281,0,0,0-1.2.6,1,1,0,0,1-1.5-.1L4.6,2.8,2.5,5,4.3,6.8a1.071,1.071,0,0,1,.1,1.4,10.092,10.092,0,0,0-.7,1.5,1.077,1.077,0,0,1-1,.8H.7v1.2H-.5V10.3A1.11,1.11,0,0,1,.6,9.2h2a6.529,6.529,0,0,1,.8-1.7L1.5,5.8a1.115,1.115,0,0,1,0-1.6L3.8,1.8a1.215,1.215,0,0,1,1.6,0L7.3,3.7A2.928,2.928,0,0,1,8.9,3V.5A1.11,1.11,0,0,1,10-.6h3a1.135,1.135,0,0,1,.8.3,1.136,1.136,0,0,1,.3.8V3a7.741,7.741,0,0,1,1.6.7l1.8-1.9a1.115,1.115,0,0,1,1.6,0l2.4,2.4a1.135,1.135,0,0,1,.3.8,1.136,1.136,0,0,1-.3.8L19.7,7.6a3.479,3.479,0,0,1,.7,1.5h2a1.11,1.11,0,0,1,1.1,1.1ZM2.4,9.3Zm18.1-.1ZM3.4,7.7Zm-.1-.3ZM2.4,5.1Zm18.2-.3ZM7.3,3.8Zm1.4-.7Zm5.2-.2Zm-5,0ZM4.4,2.7Zm13.7-.1ZM13,.6Z"/>
                </g>
              </g>
              <g id="Group_456" transform="translate(7.781 7.921)">
                <g id="Path_1081">
                  <path id="Path_131" data-name="Path 131" d="M7.6,3.8A3.8,3.8,0,0,0,4-.2,3.957,3.957,0,0,0,0,3.5v.3" fill="#e0562b"/>
                </g>
                <g id="Path_1082">
                  <path id="Path_132" data-name="Path 132" d="M8.2,3.8H7a3.775,3.775,0,0,0-.8-2.3A3.212,3.212,0,0,0,4,.5H3.9a3.185,3.185,0,0,0-3.2,3v.3l-1.2.1V3.5A4.313,4.313,0,0,1,4-.8,4.483,4.483,0,0,1,7.1.6,4.2,4.2,0,0,1,8.2,3.8Z"/>
                </g>
              </g>
            </g>
          </g>
        </g>
      </g>
    </g>
  </g>
</svg>
