<svg xmlns="http://www.w3.org/2000/svg" xmlns:xlink="http://www.w3.org/1999/xlink" width="40" height="40" viewBox="0 0 40 40">
  <defs>
    <clipPath id="clip-ic-doimk">
      <rect width="40" height="40"/>
    </clipPath>
  </defs>
  <g id="ic-doimk" clip-path="url(#clip-ic-doimk)">
    <g id="DoiMatKhau" transform="translate(-83 -280)">
      <g id="Rectangle_151">
        <rect id="Rectangle_63" data-name="Rectangle 63" width="40" height="40" transform="translate(83 280)" fill="none"/>
      </g>
      <g id="Group_298">
        <g id="Rectangle_151-2">
          <rect id="Rectangle_64" data-name="Rectangle 64" width="40" height="40" transform="translate(83 280)" fill="none"/>
        </g>
        <g id="Group_449" transform="translate(86.4 288)">
          <g id="Group_443" transform="translate(0.6 1)">
            <g id="Path_1052">
              <path id="Path_133" data-name="Path 133" d="M14.9,0H1.8A1.815,1.815,0,0,0,0,1.9v9.4a1.8,1.8,0,0,0,1.7,1.9H9.6l1.5,2.5c.1.1.3.1.3,0L13,13.2h7.9a1.88,1.88,0,0,0,1.8-1.9V1.9A1.8,1.8,0,0,0,21,0h-.6" fill="none"/>
            </g>
            <g id="Line_110">
              <rect id="Rectangle_65" data-name="Rectangle 65" width="2.5" height="1.2" transform="translate(16.5 -0.6)"/>
            </g>
            <g id="Path_1053">
              <path id="Path_134" data-name="Path 134" d="M11.6,16.5a.755.755,0,0,1-.7-.4L9.6,13.9H1.9a2.136,2.136,0,0,1-1.7-.8,2.333,2.333,0,0,1-.6-1.8V1.9A2.438,2.438,0,0,1,1.9-.6H15V.6H1.9A1.23,1.23,0,0,0,.8,1.9v9.5a1.4,1.4,0,0,0,.3.9,1.234,1.234,0,0,0,.8.4h8.3l1.3,2.2,1.4-2.2h8.3a1.23,1.23,0,0,0,1.1-1.3V1.9A1.4,1.4,0,0,0,22,1a1.234,1.234,0,0,0-.8-.4h-.6V-.6h.6a2.136,2.136,0,0,1,1.7.8A2.333,2.333,0,0,1,23.5,2v9.4a2.438,2.438,0,0,1-2.3,2.5H13.6L12.3,16a.675.675,0,0,1-.6.4A.1.1,0,0,1,11.6,16.5Z"/>
            </g>
            <g id="Group_442" transform="translate(3.848 5.017)">
              <g id="Path_1054">
                <path id="Path_135" data-name="Path 135" d="M1.9,2.1l.1,1H1.1l.1-1-.8.6L0,1.9l1-.4L0,1.2.4.4l.9.6L1.1,0H2L1.9,1,2.7.4l.4.8-1,.4,1,.4-.4.7Z"/>
              </g>
              <g id="Path_1055">
                <path id="Path_136" data-name="Path 136" d="M5.8,2.1l.1,1H5.1l.1-1-.8.6L4,1.9l1-.4L4,1.2,4.4.4l.9.6L5.1,0H6L5.9,1,6.7.4l.4.8-1,.4,1,.4-.4.7Z"/>
              </g>
              <g id="Path_1056">
                <path id="Path_137" data-name="Path 137" d="M9.9,2.1l.1,1H9.2l.1-1-.8.6L8,1.9l1-.4L8,1.2,8.4.4l.9.6L9.2,0h.9L9.9,1l.8-.6.4.8-1,.4,1,.4-.4.8Z"/>
              </g>
              <g id="Path_1057">
                <path id="Path_138" data-name="Path 138" d="M13.9,2.1l.1,1h-.9l.1-1-.8.6L12,1.9l1-.4-1-.4.4-.8.9.7-.1-1h.9L14,1l.8-.6.4.8-1,.4,1,.4-.4.8Z"/>
              </g>
            </g>
          </g>
          <g id="Group_444" transform="translate(8.14 6.391)">
            <g id="Path_1058">
              <path id="Path_139" data-name="Path 139" d="M23.5,14.6H21.3c-.2,0-.4-.1-.4-.3a14.167,14.167,0,0,0-.8-1.8.637.637,0,0,1,0-.6l1.9-2a.483.483,0,0,0,0-.7h0L19.5,6.7a.483.483,0,0,0-.7,0h0l-2,2a.375.375,0,0,1-.6,0,4.812,4.812,0,0,0-1.6-.8.43.43,0,0,1-.4-.4V4.8a.472.472,0,0,0-.5-.5H10.4a.472.472,0,0,0-.5.5V7.5a.458.458,0,0,1-.4.5,3.048,3.048,0,0,0-1.6.8.452.452,0,0,1-.6,0l-2-2c-.3-.3-.6-.3-.8-.1h0L2,9.2a.483.483,0,0,0,0,.7H2l1.9,1.9a.375.375,0,0,1,0,.6,7.1,7.1,0,0,0-.8,1.8c-.1.2-.2.3-.4.3H.5c-.3.1-.5.3-.5.5v1.6H24V15A.458.458,0,0,0,23.5,14.6Z" fill="#fff"/>
              <path id="Path_140" data-name="Path 140" d="M26,18.6H-2V15A2.476,2.476,0,0,1,.5,12.5H1.7a.1.1,0,0,1,.1-.1L.7,11.3a2.416,2.416,0,0,1,0-3.5L3.3,5.2A2.114,2.114,0,0,1,5,4.6a2.136,2.136,0,0,1,1.7.8L7.9,6.6H8V5a2.476,2.476,0,0,1,2.5-2.5h3.3A2.476,2.476,0,0,1,16.3,5V6.6h0l1.3-1.3a2.478,2.478,0,0,1,3.4.1L23.6,8a2.41,2.41,0,0,1,.7,1.8,2.136,2.136,0,0,1-.8,1.7l-1.1,1.1a.1.1,0,0,0,.1.1h1.3A2.4,2.4,0,0,1,26.1,15v3.6Zm-20.9-4H18.8a5.359,5.359,0,0,0-.5-1.1,2.393,2.393,0,0,1,.2-2.9l.1-.1.9-.9-.4-.4-1,1a2.573,2.573,0,0,1-3.2.3l-.1-.1A2.994,2.994,0,0,0,14,10a2.354,2.354,0,0,1-1.9-2.3V6.4h-.2V7.6A2.464,2.464,0,0,1,9.8,10c-.2,0-.4.2-.6.3a2.383,2.383,0,0,1-3.4-.2l-.9-.9-.4.3.9.9a2.421,2.421,0,0,1,.3,3.1A5.973,5.973,0,0,0,5.1,14.6Zm-3.8-1Zm21.4,0ZM2.5,13.2Zm1-2.6ZM20.6,8.5Zm-2.5-.4ZM3.8,8.1Zm4.1-.6Z" fill="#fff"/>
            </g>
            <g id="Path_1059">
              <path id="Path_141" data-name="Path 141" d="M12.8,0" fill="none" stroke="#000" stroke-miterlimit="10" stroke-width="4"/>
            </g>
            <g id="Path_1060">
              <path id="Path_142" data-name="Path 142" d="M10.9,4.9" fill="none" stroke="#000" stroke-miterlimit="10" stroke-width="4"/>
            </g>
            <g id="Path_1061">
              <path id="Path_143" data-name="Path 143" d="M8.4,5.2" fill="none" stroke="#000" stroke-miterlimit="10" stroke-width="4"/>
            </g>
            <g id="Path_1062">
              <path id="Path_144" data-name="Path 144" d="M6,2.8" fill="none" stroke="#000" stroke-miterlimit="10" stroke-width="4"/>
            </g>
          </g>
          <g id="Group_448" transform="translate(8.14 10.726)">
            <g id="Group_446">
              <g id="Group_445">
                <g id="Path_1063">
                  <path id="Path_145" data-name="Path 145" d="M24,12.3V10.7a.472.472,0,0,0-.5-.5H21.3c-.2,0-.4-.1-.4-.3a14.167,14.167,0,0,0-.8-1.8.637.637,0,0,1,0-.6L22,5.6a.483.483,0,0,0,0-.7h0L19.5,2.4a.483.483,0,0,0-.7,0h0l-2,2a.375.375,0,0,1-.6,0,4.812,4.812,0,0,0-1.6-.8.43.43,0,0,1-.4-.4V.5a.472.472,0,0,0-.5-.5H10.4a.472.472,0,0,0-.5.5V3.2a.43.43,0,0,1-.4.4,4.02,4.02,0,0,0-1.6.8.452.452,0,0,1-.6,0l-2-2c-.3-.3-.6-.3-.8-.1h0L2,4.9a.375.375,0,0,0,0,.6H2L3.9,7.4a.375.375,0,0,1,0,.6,10.662,10.662,0,0,0-.7,1.9c-.1.2-.2.3-.4.3H.5a.472.472,0,0,0-.5.5v1.6Z" fill="#fad869"/>
                </g>
              </g>
              <g id="Path_1064">
                <path id="Path_146" data-name="Path 146" d="M24.6,12.3H23.4V10.9H21.3a.974.974,0,0,1-1-.8,4.812,4.812,0,0,0-.8-1.6,1.048,1.048,0,0,1,.1-1.3l1.9-1.9L19.2,3,17.3,4.9a1.071,1.071,0,0,1-1.4.1,3.694,3.694,0,0,0-1.4-.7,1.174,1.174,0,0,1-.9-1V.7h-3V3.3a1.164,1.164,0,0,1-1,1.1,2.106,2.106,0,0,0-1.3.5,1.087,1.087,0,0,1-1.5-.1L4.9,2.9,2.5,5.2,4.3,7a1.071,1.071,0,0,1,.1,1.4A4.594,4.594,0,0,0,3.7,10a.974.974,0,0,1-1,.8H.6v1.4H-.6V10.6A1.11,1.11,0,0,1,.5,9.5H2.6c.2-.5.5-1.1.8-1.7L1.6,6a1.215,1.215,0,0,1,0-1.6L4.1,1.9a1.135,1.135,0,0,1,.8-.3,1.136,1.136,0,0,1,.8.3L7.6,3.8A3.365,3.365,0,0,1,9.3,3V.5A1.11,1.11,0,0,1,10.4-.6h3.3A1.11,1.11,0,0,1,14.8.5V3.1a4.02,4.02,0,0,1,1.6.8l2-2a1.215,1.215,0,0,1,1.6,0l2.5,2.5a1.135,1.135,0,0,1,.3.8,1.136,1.136,0,0,1-.3.8L20.7,7.8a7.5,7.5,0,0,1,.8,1.8h2.1a1.11,1.11,0,0,1,1.1,1.1v1.6ZM2.6,9.7Zm18.8,0ZM3.5,7.9Zm0-.2ZM2.4,5.3Zm19.2-.2ZM7.7,3.9Zm1.6-.7ZM14.6,3ZM9.4,3ZM19,2.8ZM4.8,2.8Z"/>
              </g>
            </g>
            <g id="Group_447" transform="translate(8.28 8.329)">
              <g id="Path_1065">
                <path id="Path_147" data-name="Path 147" d="M7.9,3.9A3.992,3.992,0,0,0,3.9,0,3.9,3.9,0,0,0,0,3.9" fill="#e0562b"/>
              </g>
              <g id="Path_1066">
                <path id="Path_148" data-name="Path 148" d="M8.5,3.9H7.3A3.329,3.329,0,0,0,4,.6,3.417,3.417,0,0,0,.6,3.9H-.6A4.653,4.653,0,0,1,4-.7,4.567,4.567,0,0,1,8.5,3.9Z"/>
              </g>
            </g>
          </g>
        </g>
      </g>
    </g>
  </g>
</svg>
