<svg xmlns="http://www.w3.org/2000/svg" xmlns:xlink="http://www.w3.org/1999/xlink" width="40" height="40" viewBox="0 0 40 40">
  <defs>
    <clipPath id="clip-ic-muasam">
      <rect width="40" height="40"/>
    </clipPath>
  </defs>
  <g id="ic-muasam" clip-path="url(#clip-ic-muasam)">
    <g id="MuaSamTrucTuyen" transform="translate(-83 -280)">
      <g id="Rectangle_151">
        <rect id="Rectangle_47" data-name="Rectangle 47" width="40" height="40" transform="translate(83 280)" fill="none"/>
      </g>
      <g id="Group_298">
        <g id="Rectangle_151-2">
          <rect id="Rectangle_48" data-name="Rectangle 48" width="40" height="40" transform="translate(83 280)" fill="none"/>
        </g>
        <g id="shopping-bag" transform="translate(90 265.5)">
          <g id="Group_3840" transform="translate(0 22.5)">
            <g id="XMLID_455_">
              <path id="Path_76" data-name="Path 76" d="M25.1,23.5h-11a.9.9,0,0,1-.9-.9h0V12.1H25.9V22.7a.789.789,0,0,1-.8.8Z" fill="#fad869"/>
            </g>
            <g id="Path_1911">
              <path id="Path_77" data-name="Path 77" d="M3.3,24h7.4a.5.5,0,0,0,0-1H3.3A2.348,2.348,0,0,1,1,20.6V5.1H4.3V7.2a.472.472,0,0,0,.5.5.472.472,0,0,0,.5-.5h0V5.1h6.4V7.2a.5.5,0,0,0,1,0V5.1H16V6.2a.5.5,0,0,0,1,0h0V4.6a.472.472,0,0,0-.5-.5H12.7a4.2,4.2,0,0,0-8.4,0H.5a.472.472,0,0,0-.5.5v16A3.351,3.351,0,0,0,3.3,24ZM8.4,1a3.2,3.2,0,0,1,3.2,3.1H5.2A3.272,3.272,0,0,1,8.4,1Z"/>
              <path id="Path_78" data-name="Path 78" d="M3.3,24.2h0A3.442,3.442,0,0,1-.2,20.6V4.6a.684.684,0,0,1,.7-.7H4.1a4.4,4.4,0,0,1,8.8,0h3.6a.684.684,0,0,1,.7.7V6.2a.7.7,0,0,1-1.4,0V5.3H12.9V7.2a.7.7,0,1,1-1.4,0V5.3h-6V7.2a.764.764,0,0,1-.2.5,1.421,1.421,0,0,1-.6.2h0A.684.684,0,0,1,4,7.2V5.3H1.2V20.6a2.22,2.22,0,0,0,2.2,2.2h7.4a.7.7,0,0,1,0,1.4H3.3Zm0-.4h7.4a.3.3,0,1,0,0-.6H3.3A2.647,2.647,0,0,1,.7,20.6V4.9H4.4V7.2a.265.265,0,0,0,.3.3h0c.1,0,.1,0,.2-.1s.1-.1.1-.2V4.9h6.8V7.2a.3.3,0,0,0,.6,0V4.9h3.7V6.2a.3.3,0,1,0,.6,0V4.6a.265.265,0,0,0-.3-.3h-4V4.1a4,4,0,1,0-8,0v.2H.4a.265.265,0,0,0-.3.3v16A3.363,3.363,0,0,0,3.3,23.8ZM11.9,4.3H5V4.1A3.415,3.415,0,0,1,8.4.8h0a3.351,3.351,0,0,1,3.4,3.3ZM5.4,3.9h6a3.031,3.031,0,0,0-3-2.7h0A3.108,3.108,0,0,0,5.4,3.9Z"/>
            </g>
            <g id="Path_1912">
              <path id="Path_79" data-name="Path 79" d="M16.2,10.9v.6h-3a.472.472,0,0,0-.5.5v9.7A2.326,2.326,0,0,0,15,24h9.2a2.326,2.326,0,0,0,2.3-2.3V12a.472.472,0,0,0-.5-.5H23v-.6a3.372,3.372,0,0,0-3.4-3.4,3.436,3.436,0,0,0-3.4,3.4Zm9.3,1.7v9.2a1.324,1.324,0,0,1-1.3,1.3H15a1.324,1.324,0,0,1-1.3-1.3V12.6h2.5V14a.5.5,0,0,0,1,0V12.6H22V14a.5.5,0,1,0,1,0V12.6h2.5ZM19.6,8.5A2.54,2.54,0,0,1,22.1,11v.6H17.2V11a2.336,2.336,0,0,1,2.4-2.5Z"/>
              <path id="Path_80" data-name="Path 80" d="M24.2,24.2H15a2.476,2.476,0,0,1-2.5-2.5V12a.684.684,0,0,1,.7-.7H16v-.4a3.757,3.757,0,0,1,3.7-3.7h0a3.585,3.585,0,0,1,3.6,3.6v.4h2.8a.684.684,0,0,1,.7.7v9.7A2.79,2.79,0,0,1,24.2,24.2Zm-11-12.4a.265.265,0,0,0-.3.3v9.7A2.112,2.112,0,0,0,15,23.9h9.2a2.112,2.112,0,0,0,2.1-2.1V12.1a.265.265,0,0,0-.3-.3H22.8V11a3.159,3.159,0,0,0-3.2-3.2h0A3.081,3.081,0,0,0,16.4,11h0v.8H13.2Zm11,11.4H15a1.538,1.538,0,0,1-1.5-1.5V12.3h2.9v1.6a.3.3,0,1,0,.6,0V12.3h5.3v1.6a.3.3,0,1,0,.6,0V12.3h2.9v9.4A1.624,1.624,0,0,1,24.2,23.2ZM13.9,12.8v9A1.11,1.11,0,0,0,15,22.9h9.2a1.11,1.11,0,0,0,1.1-1.1v-9H23.2V14a.7.7,0,0,1-1.4,0V12.8H17.3V14a.684.684,0,0,1-.7.7c-.4,0-.6-.4-.6-.8V12.7H13.9Zm8.3-1H16.9V11a2.754,2.754,0,0,1,2.7-2.7h0A2.606,2.606,0,0,1,22.2,11v.8Zm-4.9-.4h4.5V11a2.4,2.4,0,0,0-2.3-2.3h0A2.242,2.242,0,0,0,17.3,11Z"/>
            </g>
          </g>
        </g>
      </g>
    </g>
  </g>
</svg>
