<svg xmlns="http://www.w3.org/2000/svg" xmlns:xlink="http://www.w3.org/1999/xlink" width="40" height="40" viewBox="0 0 40 40">
  <defs>
    <clipPath id="clip-ic-naptiendt">
      <rect width="40" height="40"/>
    </clipPath>
  </defs>
  <g id="ic-naptiendt" clip-path="url(#clip-ic-naptiendt)">
    <g id="NapTienDT" transform="translate(-83 -280)">
      <g id="Rectangle_151">
        <rect id="Rectangle_1" data-name="Rectangle 1" width="40" height="40" transform="translate(83 280)" fill="none"/>
      </g>
      <g id="Group_298">
        <g id="Rectangle_151-2">
          <rect id="Rectangle_2" data-name="Rectangle 2" width="40" height="40" transform="translate(83 280)" fill="none"/>
        </g>
        <g id="Group_297" transform="translate(88.02 286.95)">
          <g id="Path_855">
            <path id="Path_1" data-name="Path 1" d="M11.6,10.7,9.3,8.5l-1,1,3.3,3.3Z" fill="#fad869"/>
          </g>
          <g id="Path_856">
            <path id="Path_2" data-name="Path 2" d="M11.6,15.7,3.5,7.5,1.2,9.8,11.6,20.2V15.7Z" fill="#e0562b"/>
          </g>
          <g id="Line_11">
            <rect id="Rectangle_3" data-name="Rectangle 3" width="4.5" height="1.2" transform="translate(19.3 2)"/>
          </g>
          <g id="Rectangle_150">
            <rect id="Rectangle_4" data-name="Rectangle 4" width="12.4" height="17.1" transform="translate(15.2 4.3)" fill="#fad869"/>
          </g>
          <g id="Ellipse_1">
            <circle id="Ellipse_1-2" data-name="Ellipse 1" cx="1.1" cy="1.1" r="1.1" transform="translate(20.4 21.8)"/>
          </g>
          <g id="Line_12">
            <rect id="Rectangle_5" data-name="Rectangle 5" width="2" height="1.3" transform="translate(17.8)"/>
          </g>
          <g id="Path_853">
            <path id="Path_3" data-name="Path 3" d="M15.6,25.7a2.263,2.263,0,0,1-2.3-2.3V2.3A2.263,2.263,0,0,1,15.6,0h.9V1.2h-.9a1,1,0,0,0-1,1V23.3a1,1,0,0,0,1,1H27.7a1,1,0,0,0,1-1V2.3a1,1,0,0,0-1-1H21.5V0h6.2A2.326,2.326,0,0,1,30,2.3V23.4a2.263,2.263,0,0,1-2.3,2.3H15.6Z"/>
          </g>
          <g id="Path_854">
            <path id="Path_4" data-name="Path 4" d="M11.2,22.5.6,12a1.933,1.933,0,0,1,0-2.8L7.7,2.1a1.933,1.933,0,0,1,2.8,0l1.8,1.8-.9.9L9.6,3a.666.666,0,0,0-1,0L1.5,10.1a.666.666,0,0,0,0,1L12,21.7Z"/>
          </g>
        </g>
      </g>
    </g>
  </g>
</svg>
