<svg xmlns="http://www.w3.org/2000/svg" xmlns:xlink="http://www.w3.org/1999/xlink" width="40" height="40" viewBox="0 0 40 40">
  <defs>
    <clipPath id="clip-ic-softotp">
      <rect width="40" height="40"/>
    </clipPath>
  </defs>
  <g id="ic-softotp" clip-path="url(#clip-ic-softotp)">
    <g id="CaiDatVanTay" transform="translate(-83 -280)">
      <g id="Rectangle_151">
        <rect id="Rectangle_54" data-name="Rectangle 54" width="40" height="40" transform="translate(83 280)" fill="none"/>
      </g>
      <g id="Group_298" transform="translate(-4)">
        <g id="Rectangle_151-2">
          <rect id="Rectangle_55" data-name="Rectangle 55" width="40" height="40" transform="translate(87 280)" fill="none"/>
        </g>
        <g id="Group_441" transform="translate(85.181 286.933)">
          <g id="Group_440" transform="translate(6.819 6.813)">
            <g id="Path_1043">
              <path id="Path_92" data-name="Path 92" d="M24.3,15.1H22a.51.51,0,0,1-.5-.4,6.632,6.632,0,0,0-.9-1.9.471.471,0,0,1,.1-.6l2-2a.483.483,0,0,0,0-.7h0L20.1,7a.483.483,0,0,0-.7,0h0L17.3,9.1a.616.616,0,0,1-.7.1,3.805,3.805,0,0,0-1.7-.8.458.458,0,0,1-.4-.5V5.1a.472.472,0,0,0-.5-.5H10.6a.472.472,0,0,0-.5.5V7.9a.664.664,0,0,1-.4.5,2.469,2.469,0,0,0-1.6.8.616.616,0,0,1-.7-.1L5.4,7a.483.483,0,0,0-.7,0h0L2.1,9.6a.483.483,0,0,0,0,.7h0l2,2a.471.471,0,0,1,.1.6,6.632,6.632,0,0,0-.9,1.9.664.664,0,0,1-.5.4H.5a.472.472,0,0,0-.5.5v1.6H24.7V15.7c.1-.3-.1-.5-.4-.6Z" fill="#fff"/>
              <path id="Path_93" data-name="Path 93" d="M25.4,17.9H-.6V15.7A1.11,1.11,0,0,1,.5,14.6H2.7a6.632,6.632,0,0,1,.9-1.9L1.7,10.8a1.115,1.115,0,0,1,0-1.6L4.3,6.6a1.115,1.115,0,0,1,1.6,0l1.9,2a3.805,3.805,0,0,1,1.7-.8V5.1A1.11,1.11,0,0,1,10.6,4H14a1.11,1.11,0,0,1,1.1,1.1V7.8a6.712,6.712,0,0,1,1.7.8l2.1-2.1a1.215,1.215,0,0,1,1.6,0l2.6,2.6a1.217,1.217,0,0,1,0,1.6l-1.9,1.9a11.084,11.084,0,0,1,.9,1.9h2.4a1.033,1.033,0,0,1,.9,1.2ZM.6,16.6H24.1v-.9H22a1.17,1.17,0,0,1-1.1-.8,5.306,5.306,0,0,0-.8-1.7,1.048,1.048,0,0,1,.1-1.3l2-2L19.7,7.5l-2,2a1.2,1.2,0,0,1-1.5.1,2.966,2.966,0,0,0-1.5-.7,1.174,1.174,0,0,1-.9-1V5.2H10.6V7.9A1.164,1.164,0,0,1,9.6,9a4.073,4.073,0,0,0-1.1.6,1.116,1.116,0,0,1-1.6-.1L5,7.5,2.6,10l1.9,1.9a1.071,1.071,0,0,1,.1,1.4A8.865,8.865,0,0,0,3.8,15a.974.974,0,0,1-1,.8H.6Zm23.5-1ZM2.7,14.7Zm19.4-.1ZM3.7,12.8Zm-.1-.2ZM2.5,10.1Zm19.8-.3ZM7.9,8.7Zm1.6-.8ZM15,7.7Zm-5.4,0Zm10.1-.3Z" fill="#fff"/>
            </g>
            <g id="Path_1044">
              <path id="Path_94" data-name="Path 94" d="M13.1,0" fill="none" stroke="#000" stroke-miterlimit="10" stroke-width="1.25"/>
            </g>
            <g id="Path_1045">
              <path id="Path_95" data-name="Path 95" d="M11.1,5.1" fill="none" stroke="#000" stroke-miterlimit="10" stroke-width="1.25"/>
            </g>
            <g id="Path_1046">
              <path id="Path_96" data-name="Path 96" d="M8.6,5.4" fill="none" stroke="#000" stroke-miterlimit="10" stroke-width="1.25"/>
            </g>
            <g id="Path_1047">
              <path id="Path_97" data-name="Path 97" d="M6.1,2.9" fill="none" stroke="#000" stroke-miterlimit="10" stroke-width="1.25"/>
            </g>
            <g id="Group_439" transform="translate(0 4.554)">
              <g id="Group_437">
                <g id="Group_436">
                  <g id="Path_1048">
                    <path id="Path_98" data-name="Path 98" d="M24.8,12.7V11.1a.472.472,0,0,0-.5-.5H22a.51.51,0,0,1-.5-.4,6.632,6.632,0,0,0-.9-1.9.471.471,0,0,1,.1-.6l2-2a.483.483,0,0,0,0-.7h0L20.1,2.4a.483.483,0,0,0-.7,0h0L17.3,4.5a.616.616,0,0,1-.7.1,3.805,3.805,0,0,0-1.7-.8.458.458,0,0,1-.4-.5V.5A.472.472,0,0,0,14,0H10.6a.472.472,0,0,0-.5.5V3.3a.664.664,0,0,1-.4.5,3.048,3.048,0,0,0-1.6.8c-.2.2-.5.1-.7,0l-2-2.1a.483.483,0,0,0-.7,0h0L2.1,5.1a.483.483,0,0,0,0,.7h0l2,2a.471.471,0,0,1,.1.6,6.632,6.632,0,0,0-.9,1.9.7.7,0,0,1-.5.4H.5a.472.472,0,0,0-.5.5v1.6H24.8Z" fill="#fad869"/>
                  </g>
                </g>
                <g id="Path_1049">
                  <path id="Path_99" data-name="Path 99" d="M25.4,12.7H24.2V11.2H22a1.17,1.17,0,0,1-1.1-.8,5.306,5.306,0,0,0-.8-1.7,1.048,1.048,0,0,1,.1-1.3l2-2L19.7,3l-2,2a1.2,1.2,0,0,1-1.5.1,2.966,2.966,0,0,0-1.5-.7,1.174,1.174,0,0,1-.9-1V.7H10.6V3.4a1.164,1.164,0,0,1-1,1.1,1.737,1.737,0,0,0-1.1.6A1.215,1.215,0,0,1,6.9,5L5.1,3,2.6,5.4,4.5,7.3a1.071,1.071,0,0,1,.1,1.4,8.865,8.865,0,0,0-.8,1.7.974.974,0,0,1-1,.8H.6v1.5H-.6V11.1A1.11,1.11,0,0,1,.5,10H2.7a6.632,6.632,0,0,1,.9-1.9l-2-1.9a1.215,1.215,0,0,1,0-1.6L4.3,2A1.115,1.115,0,0,1,5.9,2L7.8,4a3.805,3.805,0,0,1,1.7-.8V.5A1.11,1.11,0,0,1,10.6-.6H14A1.11,1.11,0,0,1,15.1.5V3.2a6.712,6.712,0,0,1,1.7.8l2.1-2a1.215,1.215,0,0,1,1.6,0l2.6,2.6a1.135,1.135,0,0,1,.3.8,1.136,1.136,0,0,1-.3.8L21.2,8.1a11.084,11.084,0,0,1,.9,1.9h2.2a1.11,1.11,0,0,1,1.1,1.1S25.4,12.7,25.4,12.7ZM2.7,10.1ZM22.1,10ZM3.7,8.2Zm-.1-.1ZM2.5,5.5Zm19.8-.2ZM7.9,4.1Zm1.6-.8ZM15,3.2Zm-5.4,0Zm10.1-.3Z"/>
                </g>
              </g>
              <g id="Group_438" transform="translate(8.45 8.602)">
                <g id="Path_1050">
                  <path id="Path_100" data-name="Path 100" d="M8.2,4.1A4.055,4.055,0,0,0,4.1,0,4.055,4.055,0,0,0,0,4.1" fill="#e0562b"/>
                </g>
                <g id="Path_1051">
                  <path id="Path_101" data-name="Path 101" d="M8.8,4.1H7.6A3.543,3.543,0,0,0,4.1.6,3.543,3.543,0,0,0,.6,4.1H-.6a4.7,4.7,0,0,1,9.4,0Z"/>
                </g>
              </g>
            </g>
          </g>
          <g id="Group_3" data-name="Group 3">
            <g id="Path_1029">
              <path id="Path_102" data-name="Path 102" d="M30.9,18.4l2-2.8a6.61,6.61,0,1,0-8.2-4.2A6.814,6.814,0,0,0,29,15.7Z" fill="#e0562b"/>
              <path id="Path_103" data-name="Path 103" d="M30.9,19.5l-2.4-3.3A7.343,7.343,0,0,1,24,11.6a7.261,7.261,0,0,1,4.7-9.1,7.485,7.485,0,0,1,5.5.4,7.445,7.445,0,0,1,3.6,4.2,7.209,7.209,0,0,1-4.5,9Zm0-16.1a5.663,5.663,0,0,0-1.8.3,6.035,6.035,0,0,0-3.9,7.5,6.067,6.067,0,0,0,3.9,3.9l.2.1,1.6,2.2,1.7-2.3.2-.1a6.035,6.035,0,0,0,3.9-7.5A6.13,6.13,0,0,0,30.9,3.4Z"/>
            </g>
            <g id="Group_422" transform="translate(14.559 3.738)">
              <g id="Line_106">
                <rect id="Rectangle_56" data-name="Rectangle 56" width="1.2" height="7.7" transform="translate(15.7 1.8)"/>
              </g>
              <g id="Path_1030">
                <path id="Path_104" data-name="Path 104" d="M14.5,8.4V7.1h2.7a.37.37,0,0,0,.2-.3c0-.5-.2-.6-.2-.6H15.6A1.58,1.58,0,0,1,14,4.6a1.619,1.619,0,0,1,1.5-1.8h2.4V4H15.6c-.2,0-.3.3-.3.6a.265.265,0,0,0,.3.3h1.5a1.619,1.619,0,0,1,1.5,1.8,1.6,1.6,0,0,1-1.4,1.5Z"/>
              </g>
            </g>
          </g>
        </g>
      </g>
    </g>
  </g>
</svg>
