<svg xmlns="http://www.w3.org/2000/svg" xmlns:xlink="http://www.w3.org/1999/xlink" width="40" height="40" viewBox="0 0 40 40">
  <defs>
    <clipPath id="clip-ic-tthoadon">
      <rect width="40" height="40"/>
    </clipPath>
  </defs>
  <g id="ic-tthoadon" clip-path="url(#clip-ic-tthoadon)">
    <g id="ThanhToanHoaDon" transform="translate(-83 -280)">
      <g id="Rectangle_151">
        <rect id="Rectangle_6" data-name="Rectangle 6" width="40" height="40" transform="translate(83 280)" fill="none"/>
      </g>
      <g id="Group_298">
        <g id="Rectangle_151-2">
          <rect id="Rectangle_7" data-name="Rectangle 7" width="40" height="40" transform="translate(83 280)" fill="none"/>
        </g>
        <g id="Group_304" transform="translate(87.3 288.3)">
          <g id="Group_302" transform="translate(1.071 0.885)">
            <g id="Path_857">
              <path id="Path_5" data-name="Path 5" d="M23.7,9.5H0V.8A.86.86,0,0,1,.8,0H23a.684.684,0,0,1,.7.7h0V9.5Z" fill="#e0562b"/>
            </g>
          </g>
          <g id="Group_303" transform="translate(1.071 0.7)">
            <g id="Path_858">
              <path id="Path_6" data-name="Path 6" d="M21.6.7a1.538,1.538,0,0,1,1.5,1.5V20.5A1.538,1.538,0,0,1,21.6,22H2.2A1.538,1.538,0,0,1,.7,20.5V2.2A1.538,1.538,0,0,1,2.2.7H21.6m0-.7H2.2A2.22,2.22,0,0,0,0,2.2V20.5a2.22,2.22,0,0,0,2.2,2.2H21.7a2.22,2.22,0,0,0,2.2-2.2V2.2A2.308,2.308,0,0,0,21.6,0Z" fill="#e0562b"/>
            </g>
          </g>
          <g id="Path_859">
            <path id="Path_7" data-name="Path 7" d="M20.9,12.1l-4.4,4.3,1.6,1.5,4.4-4.3Z" fill="#fad869"/>
          </g>
          <g id="Path_860">
            <path id="Path_8" data-name="Path 8" d="M28.8,3.8l-7.6,7.8,1.7,1.9,8-8Z" fill="#fff"/>
          </g>
          <g id="Path_861">
            <path id="Path_9" data-name="Path 9" d="M17.1,20.3H14.3V17.2L29.1,2.8l2.7,2.7ZM15.5,19h1L30,5.5l-1-1L15.5,17.7Z"/>
          </g>
          <g id="Line_13">
            <rect id="Rectangle_8" data-name="Rectangle 8" width="1.2" height="2.8" transform="translate(20.488 12.058) rotate(-45.689)"/>
          </g>
          <g id="Line_14">
            <rect id="Rectangle_9" data-name="Rectangle 9" width="1.3" height="2.9" transform="matrix(0.707, -0.707, 0.707, 0.707, 15.544, 16.798)"/>
          </g>
          <g id="Line_15">
            <rect id="Rectangle_10" data-name="Rectangle 10" width="1.3" height="1.3" transform="translate(13.57 20.197) rotate(-44.968)"/>
          </g>
          <g id="Path_862">
            <path id="Path_10" data-name="Path 10" d="M26.9,12.4l-.8-.9,4-4.1-.5-.5.9-.9,1.4,1.4Z"/>
          </g>
          <g id="Line_16">
            <rect id="Rectangle_11" data-name="Rectangle 11" width="2" height="1.2" transform="translate(29.461 4.125) rotate(-44.968)"/>
          </g>
          <g id="Line_17">
            <rect id="Rectangle_12" data-name="Rectangle 12" width="2.9" height="1.2" transform="translate(3.2 13.3)"/>
          </g>
          <g id="Line_18">
            <rect id="Rectangle_13" data-name="Rectangle 13" width="5.4" height="1.2" transform="translate(7.2 13.3)"/>
          </g>
          <g id="Line_19">
            <rect id="Rectangle_14" data-name="Rectangle 14" width="11.9" height="1.2" transform="translate(3.2 15.3)"/>
          </g>
          <g id="Line_20">
            <rect id="Rectangle_15" data-name="Rectangle 15" width="10.8" height="1.2" transform="translate(3.2 17.3)"/>
          </g>
          <g id="Line_21">
            <rect id="Rectangle_16" data-name="Rectangle 16" width="4.4" height="1.2" transform="translate(3.2 19.3)"/>
          </g>
          <g id="Line_22">
            <rect id="Rectangle_17" data-name="Rectangle 17" width="2.5" height="1.2" transform="translate(8.6 19.3)"/>
          </g>
          <g id="Line_23">
            <rect id="Rectangle_18" data-name="Rectangle 18" width="2.9" height="1.2" transform="translate(5.6 0.1)"/>
          </g>
          <g id="Path_863">
            <path id="Path_11" data-name="Path 11" d="M25.8,5.6H24.6v-3a1.216,1.216,0,0,0-1.2-1.2H10.9V.1H23.4a2.476,2.476,0,0,1,2.5,2.5v3Z"/>
          </g>
          <g id="Path_864">
            <path id="Path_12" data-name="Path 12" d="M23.4,24.3H2.6A2.476,2.476,0,0,1,.1,21.8V2.6A2.476,2.476,0,0,1,2.6.1h.6V1.3H2.6A1.216,1.216,0,0,0,1.4,2.5V21.8A1.216,1.216,0,0,0,2.6,23H23.5a1.216,1.216,0,0,0,1.2-1.2V13.5h1.2v8.3A2.476,2.476,0,0,1,23.4,24.3Z"/>
          </g>
          <g id="Line_24">
            <rect id="Rectangle_19" data-name="Rectangle 19" width="19.4" height="1.2" transform="translate(0.7 10)"/>
          </g>
        </g>
      </g>
    </g>
  </g>
</svg>
