<svg xmlns="http://www.w3.org/2000/svg" xmlns:xlink="http://www.w3.org/1999/xlink" width="40" height="40" viewBox="0 0 40 40">
  <defs>
    <linearGradient id="linear-gradient" x1="0.722" y1="0.722" x2="3.693" y2="3.693" gradientUnits="objectBoundingBox">
      <stop offset="0"/>
      <stop offset="1" stop-color="#2d3251"/>
    </linearGradient>
    <clipPath id="clip-ic-vantay">
      <rect width="40" height="40"/>
    </clipPath>
  </defs>
  <g id="ic-vantay" clip-path="url(#clip-ic-vantay)">
    <g id="finger" transform="translate(-268 -295)">
      <g id="finger-2" data-name="finger" transform="translate(276 303)">
        <path id="Union_26" data-name="Union 26" d="M-2721.326,357.248a.779.779,0,0,1-.77-.891c.009-.065.02-.132.032-.2a.79.79,0,0,1,.913-.647.8.8,0,0,1,.644.92c-.008.047-.015.095-.022.141a.782.782,0,0,1-.77.675Zm-2.848,0a.783.783,0,0,1-.682-1.154,5.514,5.514,0,0,0,.616-2.557,4.82,4.82,0,0,0-4.5-5.065.8.8,0,0,1-.8-.746.793.793,0,0,1,.789-.845,6.4,6.4,0,0,1,6.1,6.656,7.127,7.127,0,0,1-.8,3.3.771.771,0,0,1-.683.41Zm-3.838,0a.783.783,0,0,1-.468-1.406q.248-.189.519-.364a2.317,2.317,0,0,0,1.074-1.941,2.02,2.02,0,0,0-1.867-2.141,1.931,1.931,0,0,0-1.788,1.526,8.217,8.217,0,0,1-1.288,2.779,12.149,12.149,0,0,1-1.1,1.315.768.768,0,0,1-.552.232h-.043a.782.782,0,0,1-.551-1.332,10.716,10.716,0,0,0,.971-1.156,6.622,6.622,0,0,0,1.033-2.244,3.512,3.512,0,0,1,3.318-2.711,3.6,3.6,0,0,1,3.449,3.732,3.906,3.906,0,0,1-1.8,3.277c-.136.088-.268.18-.394.275a.777.777,0,0,1-.468.158Zm-3,0a.782.782,0,0,1-.616-1.257l.028-.036a.787.787,0,0,1,1.109-.146.8.8,0,0,1,.146,1.115l-.015.019a.773.773,0,0,1-.616.305Zm.834-1.849a.8.8,0,0,1-.145-1.116l.94-1.23a.788.788,0,0,1,1.109-.146.8.8,0,0,1,.145,1.116l-.941,1.23a.786.786,0,0,1-.627.311A.785.785,0,0,1-2730.176,355.4Zm-7.515-.322a.8.8,0,0,1,.422-1.042,5.324,5.324,0,0,0,2.877-3.029,6.58,6.58,0,0,1,2.188-2.956.788.788,0,0,1,1.107.162.8.8,0,0,1-.16,1.114,4.99,4.99,0,0,0-1.655,2.245,6.919,6.919,0,0,1-3.742,3.931.783.783,0,0,1-.306.063A.791.791,0,0,1-2737.691,355.076Zm15.761-1.539a8.261,8.261,0,0,0-.693-3.347.8.8,0,0,1,.4-1.049.789.789,0,0,1,1.043.406,9.878,9.878,0,0,1,.827,3.99.793.793,0,0,1-.791.8A.794.794,0,0,1-2721.929,353.537Zm-15.557-1.866a.8.8,0,0,1-.067-1.123l1.093-1.239a12.062,12.062,0,0,0,.937-1.229,8.225,8.225,0,0,1,6.771-3.752,7.978,7.978,0,0,1,5.295,2.055.8.8,0,0,1,.069,1.123.788.788,0,0,1-1.117.069,6.321,6.321,0,0,0-4.247-1.656,6.565,6.565,0,0,0-5.462,3.052,13.2,13.2,0,0,1-1.063,1.392l-1.091,1.24a.79.79,0,0,1-.593.268A.788.788,0,0,1-2737.487,351.672Zm16.268-3.789a9.79,9.79,0,0,0-2.12-2.47.8.8,0,0,1-.108-1.119.788.788,0,0,1,1.114-.109,11.348,11.348,0,0,1,2.464,2.869.8.8,0,0,1-.263,1.093.78.78,0,0,1-.411.117A.788.788,0,0,1-2721.219,347.882Zm-16.155.264a.8.8,0,0,1-.264-1.093,10.436,10.436,0,0,1,8.884-5.225,9.791,9.791,0,0,1,3.278.563.8.8,0,0,1,.484,1.015.79.79,0,0,1-1.009.486,8.236,8.236,0,0,0-2.753-.473,8.87,8.87,0,0,0-7.534,4.463.787.787,0,0,1-.675.381A.779.779,0,0,1-2737.373,348.147Zm15.962-4.336a10.765,10.765,0,0,0-7.342-2.972,10.763,10.763,0,0,0-7.341,2.972.79.79,0,0,1-.538.213.786.786,0,0,1-.58-.254.8.8,0,0,1,.041-1.125,12.333,12.333,0,0,1,8.417-3.4,12.334,12.334,0,0,1,8.418,3.4.8.8,0,0,1,.041,1.125.788.788,0,0,1-.58.254A.781.781,0,0,1-2721.411,343.811Z" transform="translate(2740.773 -336.168)" fill="#f06744"/>
        <path id="Path_8515" data-name="Path 8515" d="M4.974,397.632H.65a.65.65,0,0,1-.65-.65v-4.324a.65.65,0,0,1,1.3,0v3.673H4.974a.65.65,0,0,1,0,1.3Zm0,0" transform="translate(0 -373.632)" fill="url(#linear-gradient)"/>
        <path id="Path_8516" data-name="Path 8516" d="M396.982,397.632h-4.324a.65.65,0,0,1,0-1.3h3.673v-3.673a.65.65,0,0,1,1.3,0v4.324A.65.65,0,0,1,396.982,397.632Zm0,0" transform="translate(-373.632 -373.632)" fill="url(#linear-gradient)"/>
        <path id="Path_8517" data-name="Path 8517" d="M.65,5.625A.65.65,0,0,1,0,4.974V.65A.65.65,0,0,1,.65,0H4.974a.65.65,0,0,1,0,1.3H1.3V4.974A.65.65,0,0,1,.65,5.625Zm0,0" fill="url(#linear-gradient)"/>
        <path id="Path_8518" data-name="Path 8518" d="M396.982,5.625a.65.65,0,0,1-.65-.65V1.3h-3.673a.65.65,0,0,1,0-1.3h4.324a.65.65,0,0,1,.65.65V4.974A.65.65,0,0,1,396.982,5.625Zm0,0" transform="translate(-373.632)" fill="url(#linear-gradient)"/>
      </g>
      <g id="Group_298" data-name="Group 298" transform="translate(181 15)">
        <rect id="Rectangle_151" data-name="Rectangle 151" width="40" height="40" transform="translate(87 280)" fill="none"/>
      </g>
    </g>
  </g>
</svg>
