<svg xmlns="http://www.w3.org/2000/svg" width="40" height="40" viewBox="0 0 40 40">
  <g id="r_service3" transform="translate(-83 -280)">
    <rect id="Rectangle_151" data-name="Rectangle 151" width="40" height="40" transform="translate(83 280)" fill="none"/>
    <g id="Group_9384" data-name="Group 9384" transform="translate(-2083 -421)">
      <rect id="Rectangle_3661" data-name="Rectangle 3661" width="12" height="6" transform="translate(2182 709)" fill="#fad869"/>
      <rect id="Rectangle_3662" data-name="Rectangle 3662" width="10" height="2" transform="translate(2181 727)" fill="#fad869"/>
      <path id="Path_8548" data-name="Path 8548" d="M1999.962,695.58h4.048v2.836h-6.448Z" transform="translate(183 24)" fill="#e0562b"/>
      <path id="Path_8549" data-name="Path 8549" d="M2001.609,695.58h-2.048v2.836h4.448Z" transform="translate(190 24)" fill="#e0562b"/>
      <path id="Path_8550" data-name="Path 8550" d="M1990.109,698.416h1.157l-1.792,2.506-.911-.695Z" transform="translate(183 24)" fill="#fad869"/>
      <path id="Path_8551" data-name="Path 8551" d="M1988.966,703.524l.794.4.281,1.1-1.182-.246Z" transform="translate(183 24)" fill="#fad869"/>
      <rect id="Rectangle_3663" data-name="Rectangle 3663" width="2" height="2" transform="translate(2199 725)" fill="#e0562b"/>
      <g id="_001-taxi-1" data-name="001-taxi-1" transform="translate(2171 708.5)">
        <path id="Path_8536" data-name="Path 8536" d="M27.618,13.258H25.63L23.589,9.829a2.826,2.826,0,0,0-2.417-1.374h-.193V7.612h1.733a.588.588,0,0,0,.588-.588V1.178A.588.588,0,0,0,22.711.59H20.331a.588.588,0,1,0,0,1.176h1.793V6.437H11.19V1.765h5.584a.588.588,0,1,0,0-1.176H10.6a.588.588,0,0,0-.588.588V7.024a.588.588,0,0,0,.588.588h1.822v.845a3.272,3.272,0,0,0-2.239.962L6.405,13.2H3.341a.594.594,0,0,0-.064,0H2.731A2.735,2.735,0,0,0,0,15.932v3.942a1.594,1.594,0,0,0,1.592,1.592H2.765a3.861,3.861,0,0,0,7.633,0H19.6a3.861,3.861,0,0,0,7.633,0h1.157A1.607,1.607,0,0,0,30,19.861V15.64A2.385,2.385,0,0,0,27.618,13.258Zm1.207,4.876h-.382V16.79h.382ZM19.8,7.612v.843H13.6V7.612ZM2.485,14.4a2.143,2.143,0,0,1-1.229,1.043A1.56,1.56,0,0,1,2.485,14.4ZM1.176,19.875V19.44a.714.714,0,0,1,.319.253.7.7,0,0,1,.127.406v.192H1.592A.417.417,0,0,1,1.176,19.875Zm5.406,3.69A2.689,2.689,0,0,1,3.9,20.878,2.653,2.653,0,0,1,4.2,19.629,2.686,2.686,0,0,1,8.822,19.4a2.516,2.516,0,0,1,.137.232,2.651,2.651,0,0,1,.307,1.249A2.689,2.689,0,0,1,6.581,23.564ZM19.6,20.291H10.4a3.893,3.893,0,0,0-.152-.632h9.513A3.858,3.858,0,0,0,19.6,20.291Zm3.816,3.273a2.689,2.689,0,0,1-2.686-2.686,2.651,2.651,0,0,1,.308-1.249,2.453,2.453,0,0,1,.134-.226,2.686,2.686,0,0,1,4.622.227,2.651,2.651,0,0,1,.307,1.248A2.689,2.689,0,0,1,23.421,23.564Zm4.974-3.273H27.237a3.861,3.861,0,0,0-6.845-1.808H9.609A3.859,3.859,0,0,0,2.8,20.113V20.1a1.87,1.87,0,0,0-.339-1.079,1.887,1.887,0,0,0-1.282-.788V16.669a3.316,3.316,0,0,0,2.582-2.293H6.649a.589.589,0,0,0,.416-.172l3.953-3.953a2.106,2.106,0,0,1,1.5-.62h8.657a1.645,1.645,0,0,1,1.407.8l2.212,3.716a.588.588,0,0,0,.5.287h2.322a1.207,1.207,0,0,1,1.205,1.181h-.675a.883.883,0,0,0-.881.881v1.932a.883.883,0,0,0,.881.881h.677v.551A.43.43,0,0,1,28.394,20.291Zm0,0" transform="translate(0 -0.085)"/>
        <path id="Path_8537" data-name="Path 8537" d="M154.849,168.664v-2.9a.588.588,0,0,0-.588-.588h-4.011a.589.589,0,0,0-.416.172l-2.9,2.9a.588.588,0,0,0,.415,1h6.907A.588.588,0,0,0,154.849,168.664Zm-1.176-.588h-4.9l1.721-1.721h3.18Zm0,0" transform="translate(-138.167 -155.031)"/>
        <path id="Path_8538" data-name="Path 8538" d="M300.666,165.448a.587.587,0,0,0-.493-.269H297.2a.588.588,0,0,0-.588.588v2.9a.588.588,0,0,0,.588.588h4.847a.588.588,0,0,0,.494-.907Zm-2.881,2.628v-1.721h2.067l1.112,1.721Zm0,0" transform="translate(-279.23 -155.031)"/>
        <path id="Path_8539" data-name="Path 8539" d="M208.882,40.9c.262,0,.445-.136.445-.33V38.641h.38c.189,0,.326-.176.326-.418s-.134-.411-.326-.411h-1.651c-.192,0-.327.169-.327.411s.138.418.327.418h.38v1.928C208.437,40.763,208.62,40.9,208.882,40.9Zm0,0" transform="translate(-195.559 -35.126)"/>
        <path id="Path_8540" data-name="Path 8540" d="M245.759,40.532a.312.312,0,0,0,.337-.219l.1-.369h.582l.1.371a.312.312,0,0,0,.336.217c.216,0,.529-.139.529-.391a.31.31,0,0,0-.012-.078l0-.007-.715-2.332a.616.616,0,0,0-1.06,0l-.711,2.331,0,.008a.318.318,0,0,0-.012.077C245.23,40.392,245.543,40.532,245.759,40.532Zm.639-1.341.087-.318.087.318Zm0,0" transform="translate(-230.862 -34.759)"/>
        <path id="Path_8541" data-name="Path 8541" d="M290.437,37.851a.36.36,0,0,0,.06.2l.585.937-.613.946a.349.349,0,0,0-.055.183c0,.269.322.441.544.441a.3.3,0,0,0,.268-.133l.431-.732.429.728a.292.292,0,0,0,.27.138c.222,0,.545-.172.545-.441a.355.355,0,0,0-.058-.187l-.61-.942.584-.936a.36.36,0,0,0,.061-.2c0-.246-.281-.43-.533-.43a.331.331,0,0,0-.307.173l-.381.664-.38-.662a.331.331,0,0,0-.308-.175C290.718,37.422,290.437,37.606,290.437,37.851Zm0,0" transform="translate(-273.398 -34.759)"/>
        <path id="Path_8542" data-name="Path 8542" d="M339.3,40.569v-2.43c0-.2-.179-.327-.445-.327s-.445.131-.445.327v2.43c0,.194.183.33.445.33S339.3,40.763,339.3,40.569Zm0,0" transform="translate(-318.578 -35.126)"/>
        <path id="Path_8543" data-name="Path 8543" d="M149.905,252.215h-2.552a.588.588,0,0,0,0,1.176h2.552a.588.588,0,0,0,0-1.176Zm0,0" transform="translate(-138.166 -236.966)"/>
        <path id="Path_8544" data-name="Path 8544" d="M277.972,252.215H275.42a.588.588,0,1,0,0,1.176h2.552a.588.588,0,0,0,0-1.176Zm0,0" transform="translate(-258.729 -236.966)"/>
        <path id="Path_8545" data-name="Path 8545" d="M81.6,314.219a1.912,1.912,0,1,0,1.911,1.911A1.914,1.914,0,0,0,81.6,314.219Zm0,2.648a.736.736,0,1,1,.736-.736A.737.737,0,0,1,81.6,316.866Zm0,0" transform="translate(-75.015 -295.337)"/>
        <path id="Path_8546" data-name="Path 8546" d="M368.551,314.264a1.9,1.9,0,0,0-1.469,1.86,1.938,1.938,0,0,0,.053.442,1.914,1.914,0,0,0,1.856,1.469,1.934,1.934,0,0,0,.447-.053,1.912,1.912,0,0,0-.887-3.719Zm.614,2.576a.736.736,0,0,1-.887-.545.75.75,0,0,1-.021-.171h0a.733.733,0,0,1,.566-.715.736.736,0,0,1,.887.546.735.735,0,0,1-.545.886Zm0,0" transform="translate(-345.573 -295.331)"/>
        <path id="Path_8547" data-name="Path 8547" d="M306.056,1.581l.016.011a.588.588,0,1,0,.64-.986L306.7.595a.588.588,0,1,0-.64.986Zm0,0" transform="translate(-287.871)"/>
      </g>
    </g>
  </g>
</svg>
